<svg width="36" height="32" viewBox="0 0 36 32" fill="none" xmlns="http://www.w3.org/2000/svg">
<path d="M6.13086 13.0578L11.3548 3.88576C11.5253 3.58637 11.7722 3.33758 12.0703 3.16481C12.3683 2.99204 12.707 2.90147 13.0515 2.90235C13.396 2.90323 13.7342 2.99554 14.0314 3.16983C14.3286 3.34413 14.5742 3.59418 14.7432 3.89445L20.0626 13.3444H20.0539C20.6488 14.4807 20.9585 15.7446 20.9563 17.0272C20.9563 21.4143 17.3997 24.9708 13.0126 24.9708C8.62558 24.9708 5.06903 21.4143 5.06903 17.0272C5.06903 15.652 5.41797 14.3588 6.03218 13.2315H6.0306L6.08034 13.1446L6.13086 13.0578Z" fill="#FF4D6D"/>
<path d="M6.13086 13.0578L11.3548 3.88576C11.5253 3.58637 11.7722 3.33758 12.0703 3.16481C12.3683 2.99204 12.707 2.90147 13.0515 2.90235C13.396 2.90323 13.7342 2.99554 14.0314 3.16983C14.3286 3.34413 14.5742 3.59418 14.7432 3.89445L20.0626 13.3444H20.0539C20.6488 14.4807 20.9585 15.7446 20.9563 17.0272C20.9563 21.4143 17.3997 24.9708 13.0126 24.9708C8.62558 24.9708 5.06903 21.4143 5.06903 17.0272C5.06903 15.652 5.41797 14.3588 6.03218 13.2315H6.0306L6.08034 13.1446L6.13086 13.0578Z" fill="url(#paint0_radial_1277_43589)"/>
<path d="M6.13086 13.0578L11.3548 3.88576C11.5253 3.58637 11.7722 3.33758 12.0703 3.16481C12.3683 2.99204 12.707 2.90147 13.0515 2.90235C13.396 2.90323 13.7342 2.99554 14.0314 3.16983C14.3286 3.34413 14.5742 3.59418 14.7432 3.89445L20.0626 13.3444H20.0539C20.6488 14.4807 20.9585 15.7446 20.9563 17.0272C20.9563 21.4143 17.3997 24.9708 13.0126 24.9708C8.62558 24.9708 5.06903 21.4143 5.06903 17.0272C5.06903 15.652 5.41797 14.3588 6.03218 13.2315H6.0306L6.08034 13.1446L6.13086 13.0578Z" fill="url(#paint1_radial_1277_43589)"/>
<path d="M6.13086 13.0578L11.3548 3.88576C11.5253 3.58637 11.7722 3.33758 12.0703 3.16481C12.3683 2.99204 12.707 2.90147 13.0515 2.90235C13.396 2.90323 13.7342 2.99554 14.0314 3.16983C14.3286 3.34413 14.5742 3.59418 14.7432 3.89445L20.0626 13.3444H20.0539C20.6488 14.4807 20.9585 15.7446 20.9563 17.0272C20.9563 21.4143 17.3997 24.9708 13.0126 24.9708C8.62558 24.9708 5.06903 21.4143 5.06903 17.0272C5.06903 15.652 5.41797 14.3588 6.03218 13.2315H6.0306L6.08034 13.1446L6.13086 13.0578Z" fill="url(#paint2_radial_1277_43589)"/>
<path d="M6.13086 13.0578L11.3548 3.88576C11.5253 3.58637 11.7722 3.33758 12.0703 3.16481C12.3683 2.99204 12.707 2.90147 13.0515 2.90235C13.396 2.90323 13.7342 2.99554 14.0314 3.16983C14.3286 3.34413 14.5742 3.59418 14.7432 3.89445L20.0626 13.3444H20.0539C20.6488 14.4807 20.9585 15.7446 20.9563 17.0272C20.9563 21.4143 17.3997 24.9708 13.0126 24.9708C8.62558 24.9708 5.06903 21.4143 5.06903 17.0272C5.06903 15.652 5.41797 14.3588 6.03218 13.2315H6.0306L6.08034 13.1446L6.13086 13.0578Z" fill="url(#paint3_linear_1277_43589)"/>
<g clip-path="url(#clip0_1277_43589)">
<path d="M21.1514 25.2652L23.7633 20.6792C23.8486 20.5295 23.972 20.4051 24.1211 20.3187C24.2701 20.2323 24.4394 20.1871 24.6117 20.1875C24.784 20.1879 24.953 20.2341 25.1016 20.3212C25.2502 20.4084 25.373 20.5334 25.4575 20.6836L28.1172 25.4085H28.1129C28.4103 25.9767 28.5652 26.6086 28.5641 27.2499C28.5641 29.4435 26.7858 31.2217 24.5923 31.2217C22.3987 31.2217 20.6205 29.4435 20.6205 27.2499C20.6205 26.5623 20.7949 25.9157 21.102 25.3521H21.1012L21.1261 25.3086L21.1514 25.2652Z" fill="#FF4D6D"/>
<path d="M21.1514 25.2652L23.7633 20.6792C23.8486 20.5295 23.972 20.4051 24.1211 20.3187C24.2701 20.2323 24.4394 20.1871 24.6117 20.1875C24.784 20.1879 24.953 20.2341 25.1016 20.3212C25.2502 20.4084 25.373 20.5334 25.4575 20.6836L28.1172 25.4085H28.1129C28.4103 25.9767 28.5652 26.6086 28.5641 27.2499C28.5641 29.4435 26.7858 31.2217 24.5923 31.2217C22.3987 31.2217 20.6205 29.4435 20.6205 27.2499C20.6205 26.5623 20.7949 25.9157 21.102 25.3521H21.1012L21.1261 25.3086L21.1514 25.2652Z" fill="url(#paint4_radial_1277_43589)"/>
<path d="M21.1514 25.2652L23.7633 20.6792C23.8486 20.5295 23.972 20.4051 24.1211 20.3187C24.2701 20.2323 24.4394 20.1871 24.6117 20.1875C24.784 20.1879 24.953 20.2341 25.1016 20.3212C25.2502 20.4084 25.373 20.5334 25.4575 20.6836L28.1172 25.4085H28.1129C28.4103 25.9767 28.5652 26.6086 28.5641 27.2499C28.5641 29.4435 26.7858 31.2217 24.5923 31.2217C22.3987 31.2217 20.6205 29.4435 20.6205 27.2499C20.6205 26.5623 20.7949 25.9157 21.102 25.3521H21.1012L21.1261 25.3086L21.1514 25.2652Z" fill="url(#paint5_radial_1277_43589)"/>
<path d="M21.1514 25.2652L23.7633 20.6792C23.8486 20.5295 23.972 20.4051 24.1211 20.3187C24.2701 20.2323 24.4394 20.1871 24.6117 20.1875C24.784 20.1879 24.953 20.2341 25.1016 20.3212C25.2502 20.4084 25.373 20.5334 25.4575 20.6836L28.1172 25.4085H28.1129C28.4103 25.9767 28.5652 26.6086 28.5641 27.2499C28.5641 29.4435 26.7858 31.2217 24.5923 31.2217C22.3987 31.2217 20.6205 29.4435 20.6205 27.2499C20.6205 26.5623 20.7949 25.9157 21.102 25.3521H21.1012L21.1261 25.3086L21.1514 25.2652Z" fill="url(#paint6_radial_1277_43589)"/>
<path d="M21.1514 25.2652L23.7633 20.6792C23.8486 20.5295 23.972 20.4051 24.1211 20.3187C24.2701 20.2323 24.4394 20.1871 24.6117 20.1875C24.784 20.1879 24.953 20.2341 25.1016 20.3212C25.2502 20.4084 25.373 20.5334 25.4575 20.6836L28.1172 25.4085H28.1129C28.4103 25.9767 28.5652 26.6086 28.5641 27.2499C28.5641 29.4435 26.7858 31.2217 24.5923 31.2217C22.3987 31.2217 20.6205 29.4435 20.6205 27.2499C20.6205 26.5623 20.7949 25.9157 21.102 25.3521H21.1012L21.1261 25.3086L21.1514 25.2652Z" fill="url(#paint7_linear_1277_43589)"/>
</g>
<path d="M22.7405 7.86404L26.2231 1.74936C26.3368 1.54976 26.5014 1.38391 26.7001 1.26873C26.8989 1.15354 27.1246 1.09317 27.3543 1.09375C27.584 1.09434 27.8094 1.15588 28.0075 1.27208C28.2057 1.38828 28.3694 1.55497 28.4821 1.75515L32.0284 8.0551H32.0226C32.4192 8.81264 32.6256 9.65526 32.6241 10.5103C32.6241 13.435 30.2531 15.8061 27.3284 15.8061C24.4037 15.8061 22.0327 13.435 22.0327 10.5103C22.0327 9.5935 22.2653 8.73141 22.6748 7.97983H22.6737L22.7069 7.92194L22.7405 7.86404Z" fill="#FF4D6D"/>
<path d="M22.7405 7.86404L26.2231 1.74936C26.3368 1.54976 26.5014 1.38391 26.7001 1.26873C26.8989 1.15354 27.1246 1.09317 27.3543 1.09375C27.584 1.09434 27.8094 1.15588 28.0075 1.27208C28.2057 1.38828 28.3694 1.55497 28.4821 1.75515L32.0284 8.0551H32.0226C32.4192 8.81264 32.6256 9.65526 32.6241 10.5103C32.6241 13.435 30.2531 15.8061 27.3284 15.8061C24.4037 15.8061 22.0327 13.435 22.0327 10.5103C22.0327 9.5935 22.2653 8.73141 22.6748 7.97983H22.6737L22.7069 7.92194L22.7405 7.86404Z" fill="url(#paint8_radial_1277_43589)"/>
<path d="M22.7405 7.86404L26.2231 1.74936C26.3368 1.54976 26.5014 1.38391 26.7001 1.26873C26.8989 1.15354 27.1246 1.09317 27.3543 1.09375C27.584 1.09434 27.8094 1.15588 28.0075 1.27208C28.2057 1.38828 28.3694 1.55497 28.4821 1.75515L32.0284 8.0551H32.0226C32.4192 8.81264 32.6256 9.65526 32.6241 10.5103C32.6241 13.435 30.2531 15.8061 27.3284 15.8061C24.4037 15.8061 22.0327 13.435 22.0327 10.5103C22.0327 9.5935 22.2653 8.73141 22.6748 7.97983H22.6737L22.7069 7.92194L22.7405 7.86404Z" fill="url(#paint9_radial_1277_43589)"/>
<path d="M22.7405 7.86404L26.2231 1.74936C26.3368 1.54976 26.5014 1.38391 26.7001 1.26873C26.8989 1.15354 27.1246 1.09317 27.3543 1.09375C27.584 1.09434 27.8094 1.15588 28.0075 1.27208C28.2057 1.38828 28.3694 1.55497 28.4821 1.75515L32.0284 8.0551H32.0226C32.4192 8.81264 32.6256 9.65526 32.6241 10.5103C32.6241 13.435 30.2531 15.8061 27.3284 15.8061C24.4037 15.8061 22.0327 13.435 22.0327 10.5103C22.0327 9.5935 22.2653 8.73141 22.6748 7.97983H22.6737L22.7069 7.92194L22.7405 7.86404Z" fill="url(#paint10_radial_1277_43589)"/>
<path d="M22.7405 7.86404L26.2231 1.74936C26.3368 1.54976 26.5014 1.38391 26.7001 1.26873C26.8989 1.15354 27.1246 1.09317 27.3543 1.09375C27.584 1.09434 27.8094 1.15588 28.0075 1.27208C28.2057 1.38828 28.3694 1.55497 28.4821 1.75515L32.0284 8.0551H32.0226C32.4192 8.81264 32.6256 9.65526 32.6241 10.5103C32.6241 13.435 30.2531 15.8061 27.3284 15.8061C24.4037 15.8061 22.0327 13.435 22.0327 10.5103C22.0327 9.5935 22.2653 8.73141 22.6748 7.97983H22.6737L22.7069 7.92194L22.7405 7.86404Z" fill="url(#paint11_linear_1277_43589)"/>
<defs>
<radialGradient id="paint0_radial_1277_43589" cx="0" cy="0" r="1" gradientUnits="userSpaceOnUse" gradientTransform="translate(13.0126 11.3423) rotate(90) scale(13.6298 11.9964)">
<stop offset="0.901" stop-color="#FE7C86" stop-opacity="0"/>
<stop offset="1" stop-color="#FE7C86"/>
</radialGradient>
<radialGradient id="paint1_radial_1277_43589" cx="0" cy="0" r="1" gradientUnits="userSpaceOnUse" gradientTransform="translate(18.8373 15.6307) rotate(143.778) scale(8.10309 5.08557)">
<stop stop-color="#FEB4BA"/>
<stop offset="1" stop-color="#FEB4BA" stop-opacity="0"/>
</radialGradient>
<radialGradient id="paint2_radial_1277_43589" cx="0" cy="0" r="1" gradientUnits="userSpaceOnUse" gradientTransform="translate(16.3805 4.38944) rotate(61.928) scale(12.0331 5.93556)">
<stop stop-color="#FEA2A9"/>
<stop offset="1" stop-color="#FEA2A9" stop-opacity="0"/>
</radialGradient>
<linearGradient id="paint3_linear_1277_43589" x1="7.73348" y1="9.74992" x2="13.0126" y2="11.5262" gradientUnits="userSpaceOnUse">
<stop offset="0.032" stop-color="#E43D4A"/>
<stop offset="1" stop-color="#FD4452" stop-opacity="0"/>
</linearGradient>
<radialGradient id="paint4_radial_1277_43589" cx="0" cy="0" r="1" gradientUnits="userSpaceOnUse" gradientTransform="translate(24.5923 24.4075) rotate(90) scale(6.81491 5.99821)">
<stop offset="0.901" stop-color="#FE7C86" stop-opacity="0"/>
<stop offset="1" stop-color="#FE7C86"/>
</radialGradient>
<radialGradient id="paint5_radial_1277_43589" cx="0" cy="0" r="1" gradientUnits="userSpaceOnUse" gradientTransform="translate(27.5046 26.5517) rotate(143.778) scale(4.05154 2.54279)">
<stop stop-color="#FEB4BA"/>
<stop offset="1" stop-color="#FEB4BA" stop-opacity="0"/>
</radialGradient>
<radialGradient id="paint6_radial_1277_43589" cx="0" cy="0" r="1" gradientUnits="userSpaceOnUse" gradientTransform="translate(26.2762 20.931) rotate(61.928) scale(6.01656 2.96778)">
<stop stop-color="#FEA2A9"/>
<stop offset="1" stop-color="#FEA2A9" stop-opacity="0"/>
</radialGradient>
<linearGradient id="paint7_linear_1277_43589" x1="21.9527" y1="23.6113" x2="24.5923" y2="24.4994" gradientUnits="userSpaceOnUse">
<stop offset="0.032" stop-color="#E43D4A"/>
<stop offset="1" stop-color="#FD4452" stop-opacity="0"/>
</linearGradient>
<radialGradient id="paint8_radial_1277_43589" cx="0" cy="0" r="1" gradientUnits="userSpaceOnUse" gradientTransform="translate(27.3284 6.72037) rotate(90) scale(9.08655 7.99761)">
<stop offset="0.901" stop-color="#FE7C86" stop-opacity="0"/>
<stop offset="1" stop-color="#FE7C86"/>
</radialGradient>
<radialGradient id="paint9_radial_1277_43589" cx="0" cy="0" r="1" gradientUnits="userSpaceOnUse" gradientTransform="translate(31.2115 9.57929) rotate(143.778) scale(5.40206 3.39038)">
<stop stop-color="#FEB4BA"/>
<stop offset="1" stop-color="#FEB4BA" stop-opacity="0"/>
</radialGradient>
<radialGradient id="paint10_radial_1277_43589" cx="0" cy="0" r="1" gradientUnits="userSpaceOnUse" gradientTransform="translate(29.5736 2.08515) rotate(61.928) scale(8.02209 3.95704)">
<stop stop-color="#FEA2A9"/>
<stop offset="1" stop-color="#FEA2A9" stop-opacity="0"/>
</radialGradient>
<linearGradient id="paint11_linear_1277_43589" x1="23.809" y1="5.6588" x2="27.3284" y2="6.843" gradientUnits="userSpaceOnUse">
<stop offset="0.032" stop-color="#E43D4A"/>
<stop offset="1" stop-color="#FD4452" stop-opacity="0"/>
</linearGradient>
<clipPath id="clip0_1277_43589">
<rect width="12.6315" height="12.6315" fill="white" transform="translate(18.2765 19.3672)"/>
</clipPath>
</defs>
</svg>
