<svg width="32" height="32" viewBox="0 0 32 32" fill="none" xmlns="http://www.w3.org/2000/svg">
<path d="M9.46224 15.2063L14.425 6.49285C14.587 6.20842 14.8215 5.97207 15.1047 5.80794C15.3879 5.6438 15.7096 5.55776 16.0369 5.5586C16.3642 5.55944 16.6854 5.64713 16.9678 5.81271C17.2501 5.9783 17.4835 6.21584 17.644 6.5011L22.6975 15.4786H22.6892C23.2544 16.5581 23.5486 17.7588 23.5465 18.9774C23.5465 23.1451 20.1677 26.5239 16 26.5239C11.8322 26.5239 8.45349 23.1451 8.45349 18.9774C8.45349 17.6709 8.78499 16.4423 9.36849 15.3713H9.36699L9.41424 15.2888L9.46224 15.2063Z" fill="#FF4D6D"/>
<path d="M9.46224 15.2063L14.425 6.49285C14.587 6.20842 14.8215 5.97207 15.1047 5.80794C15.3879 5.6438 15.7096 5.55776 16.0369 5.5586C16.3642 5.55944 16.6854 5.64713 16.9678 5.81271C17.2501 5.9783 17.4835 6.21584 17.644 6.5011L22.6975 15.4786H22.6892C23.2544 16.5581 23.5486 17.7588 23.5465 18.9774C23.5465 23.1451 20.1677 26.5239 16 26.5239C11.8322 26.5239 8.45349 23.1451 8.45349 18.9774C8.45349 17.6709 8.78499 16.4423 9.36849 15.3713H9.36699L9.41424 15.2888L9.46224 15.2063Z" fill="url(#paint0_radial_1277_43579)"/>
<path d="M9.46224 15.2063L14.425 6.49285C14.587 6.20842 14.8215 5.97207 15.1047 5.80794C15.3879 5.6438 15.7096 5.55776 16.0369 5.5586C16.3642 5.55944 16.6854 5.64713 16.9678 5.81271C17.2501 5.9783 17.4835 6.21584 17.644 6.5011L22.6975 15.4786H22.6892C23.2544 16.5581 23.5486 17.7588 23.5465 18.9774C23.5465 23.1451 20.1677 26.5239 16 26.5239C11.8322 26.5239 8.45349 23.1451 8.45349 18.9774C8.45349 17.6709 8.78499 16.4423 9.36849 15.3713H9.36699L9.41424 15.2888L9.46224 15.2063Z" fill="url(#paint1_radial_1277_43579)"/>
<path d="M9.46224 15.2063L14.425 6.49285C14.587 6.20842 14.8215 5.97207 15.1047 5.80794C15.3879 5.6438 15.7096 5.55776 16.0369 5.5586C16.3642 5.55944 16.6854 5.64713 16.9678 5.81271C17.2501 5.9783 17.4835 6.21584 17.644 6.5011L22.6975 15.4786H22.6892C23.2544 16.5581 23.5486 17.7588 23.5465 18.9774C23.5465 23.1451 20.1677 26.5239 16 26.5239C11.8322 26.5239 8.45349 23.1451 8.45349 18.9774C8.45349 17.6709 8.78499 16.4423 9.36849 15.3713H9.36699L9.41424 15.2888L9.46224 15.2063Z" fill="url(#paint2_radial_1277_43579)"/>
<path d="M9.46224 15.2063L14.425 6.49285C14.587 6.20842 14.8215 5.97207 15.1047 5.80794C15.3879 5.6438 15.7096 5.55776 16.0369 5.5586C16.3642 5.55944 16.6854 5.64713 16.9678 5.81271C17.2501 5.9783 17.4835 6.21584 17.644 6.5011L22.6975 15.4786H22.6892C23.2544 16.5581 23.5486 17.7588 23.5465 18.9774C23.5465 23.1451 20.1677 26.5239 16 26.5239C11.8322 26.5239 8.45349 23.1451 8.45349 18.9774C8.45349 17.6709 8.78499 16.4423 9.36849 15.3713H9.36699L9.41424 15.2888L9.46224 15.2063Z" fill="url(#paint3_linear_1277_43579)"/>
<defs>
<radialGradient id="paint0_radial_1277_43579" cx="0" cy="0" r="1" gradientUnits="userSpaceOnUse" gradientTransform="translate(16 13.5766) rotate(90) scale(12.9485 11.3967)">
<stop offset="0.901" stop-color="#FE7C86" stop-opacity="0"/>
<stop offset="1" stop-color="#FE7C86"/>
</radialGradient>
<radialGradient id="paint1_radial_1277_43579" cx="0" cy="0" r="1" gradientUnits="userSpaceOnUse" gradientTransform="translate(21.5335 17.6506) rotate(143.778) scale(7.698 4.83134)">
<stop stop-color="#FEB4BA"/>
<stop offset="1" stop-color="#FEB4BA" stop-opacity="0"/>
</radialGradient>
<radialGradient id="paint2_radial_1277_43579" cx="0" cy="0" r="1" gradientUnits="userSpaceOnUse" gradientTransform="translate(19.1995 6.97135) rotate(61.928) scale(11.4316 5.63883)">
<stop stop-color="#FEA2A9"/>
<stop offset="1" stop-color="#FEA2A9" stop-opacity="0"/>
</radialGradient>
<linearGradient id="paint3_linear_1277_43579" x1="10.9847" y1="12.0639" x2="16" y2="13.7514" gradientUnits="userSpaceOnUse">
<stop offset="0.032" stop-color="#E43D4A"/>
<stop offset="1" stop-color="#FD4452" stop-opacity="0"/>
</linearGradient>
</defs>
</svg>
