<svg width="32" height="32" viewBox="0 0 32 32" fill="none" xmlns="http://www.w3.org/2000/svg">
<path d="M5.63842 18.7949L10.7612 9.80033C10.9284 9.50672 11.1706 9.26275 11.4629 9.09332C11.7552 8.92389 12.0873 8.83508 12.4251 8.83594C12.763 8.83681 13.0946 8.92733 13.3861 9.09825C13.6775 9.26918 13.9184 9.51439 14.0841 9.80884L19.3006 19.0759H19.292C19.8754 20.1902 20.1791 21.4297 20.1769 22.6875C20.1769 26.9897 16.6892 30.4774 12.387 30.4774C8.08487 30.4774 4.59714 26.9897 4.59714 22.6875C4.59714 21.3389 4.93933 20.0707 5.54165 18.9652H5.5401L5.58888 18.88L5.63842 18.7949Z" fill="#FF4D6D"/>
<path d="M5.63842 18.7949L10.7612 9.80033C10.9284 9.50672 11.1706 9.26275 11.4629 9.09332C11.7552 8.92389 12.0873 8.83508 12.4251 8.83594C12.763 8.83681 13.0946 8.92733 13.3861 9.09825C13.6775 9.26918 13.9184 9.51439 14.0841 9.80884L19.3006 19.0759H19.292C19.8754 20.1902 20.1791 21.4297 20.1769 22.6875C20.1769 26.9897 16.6892 30.4774 12.387 30.4774C8.08487 30.4774 4.59714 26.9897 4.59714 22.6875C4.59714 21.3389 4.93933 20.0707 5.54165 18.9652H5.5401L5.58888 18.88L5.63842 18.7949Z" fill="url(#paint0_radial_1277_43583)"/>
<path d="M5.63842 18.7949L10.7612 9.80033C10.9284 9.50672 11.1706 9.26275 11.4629 9.09332C11.7552 8.92389 12.0873 8.83508 12.4251 8.83594C12.763 8.83681 13.0946 8.92733 13.3861 9.09825C13.6775 9.26918 13.9184 9.51439 14.0841 9.80884L19.3006 19.0759H19.292C19.8754 20.1902 20.1791 21.4297 20.1769 22.6875C20.1769 26.9897 16.6892 30.4774 12.387 30.4774C8.08487 30.4774 4.59714 26.9897 4.59714 22.6875C4.59714 21.3389 4.93933 20.0707 5.54165 18.9652H5.5401L5.58888 18.88L5.63842 18.7949Z" fill="url(#paint1_radial_1277_43583)"/>
<path d="M5.63842 18.7949L10.7612 9.80033C10.9284 9.50672 11.1706 9.26275 11.4629 9.09332C11.7552 8.92389 12.0873 8.83508 12.4251 8.83594C12.763 8.83681 13.0946 8.92733 13.3861 9.09825C13.6775 9.26918 13.9184 9.51439 14.0841 9.80884L19.3006 19.0759H19.292C19.8754 20.1902 20.1791 21.4297 20.1769 22.6875C20.1769 26.9897 16.6892 30.4774 12.387 30.4774C8.08487 30.4774 4.59714 26.9897 4.59714 22.6875C4.59714 21.3389 4.93933 20.0707 5.54165 18.9652H5.5401L5.58888 18.88L5.63842 18.7949Z" fill="url(#paint2_radial_1277_43583)"/>
<path d="M5.63842 18.7949L10.7612 9.80033C10.9284 9.50672 11.1706 9.26275 11.4629 9.09332C11.7552 8.92389 12.0873 8.83508 12.4251 8.83594C12.763 8.83681 13.0946 8.92733 13.3861 9.09825C13.6775 9.26918 13.9184 9.51439 14.0841 9.80884L19.3006 19.0759H19.292C19.8754 20.1902 20.1791 21.4297 20.1769 22.6875C20.1769 26.9897 16.6892 30.4774 12.387 30.4774C8.08487 30.4774 4.59714 26.9897 4.59714 22.6875C4.59714 21.3389 4.93933 20.0707 5.54165 18.9652H5.5401L5.58888 18.88L5.63842 18.7949Z" fill="url(#paint3_linear_1277_43583)"/>
<path d="M18.6241 7.7096L22.0393 1.71324C22.1507 1.5175 22.3122 1.35486 22.507 1.2419C22.7019 1.12895 22.9233 1.06974 23.1485 1.07032C23.3738 1.07089 23.5948 1.13124 23.7891 1.24519C23.9834 1.35914 24.144 1.52261 24.2545 1.71892L27.7322 7.89696H27.7265C28.1154 8.63984 28.3179 9.46615 28.3164 10.3047C28.3164 13.1728 25.9913 15.498 23.1231 15.498C20.255 15.498 17.9299 13.1728 17.9299 10.3047C17.9299 9.40559 18.158 8.56018 18.5595 7.82315H18.5585L18.591 7.76638L18.6241 7.7096Z" fill="#FF4D6D"/>
<path d="M18.6241 7.7096L22.0393 1.71324C22.1507 1.5175 22.3122 1.35486 22.507 1.2419C22.7019 1.12895 22.9233 1.06974 23.1485 1.07032C23.3738 1.07089 23.5948 1.13124 23.7891 1.24519C23.9834 1.35914 24.144 1.52261 24.2545 1.71892L27.7322 7.89696H27.7265C28.1154 8.63984 28.3179 9.46615 28.3164 10.3047C28.3164 13.1728 25.9913 15.498 23.1231 15.498C20.255 15.498 17.9299 13.1728 17.9299 10.3047C17.9299 9.40559 18.158 8.56018 18.5595 7.82315H18.5585L18.591 7.76638L18.6241 7.7096Z" fill="url(#paint4_radial_1277_43583)"/>
<path d="M18.6241 7.7096L22.0393 1.71324C22.1507 1.5175 22.3122 1.35486 22.507 1.2419C22.7019 1.12895 22.9233 1.06974 23.1485 1.07032C23.3738 1.07089 23.5948 1.13124 23.7891 1.24519C23.9834 1.35914 24.144 1.52261 24.2545 1.71892L27.7322 7.89696H27.7265C28.1154 8.63984 28.3179 9.46615 28.3164 10.3047C28.3164 13.1728 25.9913 15.498 23.1231 15.498C20.255 15.498 17.9299 13.1728 17.9299 10.3047C17.9299 9.40559 18.158 8.56018 18.5595 7.82315H18.5585L18.591 7.76638L18.6241 7.7096Z" fill="url(#paint5_radial_1277_43583)"/>
<path d="M18.6241 7.7096L22.0393 1.71324C22.1507 1.5175 22.3122 1.35486 22.507 1.2419C22.7019 1.12895 22.9233 1.06974 23.1485 1.07032C23.3738 1.07089 23.5948 1.13124 23.7891 1.24519C23.9834 1.35914 24.144 1.52261 24.2545 1.71892L27.7322 7.89696H27.7265C28.1154 8.63984 28.3179 9.46615 28.3164 10.3047C28.3164 13.1728 25.9913 15.498 23.1231 15.498C20.255 15.498 17.9299 13.1728 17.9299 10.3047C17.9299 9.40559 18.158 8.56018 18.5595 7.82315H18.5585L18.591 7.76638L18.6241 7.7096Z" fill="url(#paint6_radial_1277_43583)"/>
<path d="M18.6241 7.7096L22.0393 1.71324C22.1507 1.5175 22.3122 1.35486 22.507 1.2419C22.7019 1.12895 22.9233 1.06974 23.1485 1.07032C23.3738 1.07089 23.5948 1.13124 23.7891 1.24519C23.9834 1.35914 24.144 1.52261 24.2545 1.71892L27.7322 7.89696H27.7265C28.1154 8.63984 28.3179 9.46615 28.3164 10.3047C28.3164 13.1728 25.9913 15.498 23.1231 15.498C20.255 15.498 17.9299 13.1728 17.9299 10.3047C17.9299 9.40559 18.158 8.56018 18.5595 7.82315H18.5585L18.591 7.76638L18.6241 7.7096Z" fill="url(#paint7_linear_1277_43583)"/>
<defs>
<radialGradient id="paint0_radial_1277_43583" cx="0" cy="0" r="1" gradientUnits="userSpaceOnUse" gradientTransform="translate(12.387 17.1126) rotate(90) scale(13.3661 11.7643)">
<stop offset="0.901" stop-color="#FE7C86" stop-opacity="0"/>
<stop offset="1" stop-color="#FE7C86"/>
</radialGradient>
<radialGradient id="paint1_radial_1277_43583" cx="0" cy="0" r="1" gradientUnits="userSpaceOnUse" gradientTransform="translate(18.099 21.318) rotate(143.778) scale(7.94629 4.98717)">
<stop stop-color="#FEB4BA"/>
<stop offset="1" stop-color="#FEB4BA" stop-opacity="0"/>
</radialGradient>
<radialGradient id="paint2_radial_1277_43583" cx="0" cy="0" r="1" gradientUnits="userSpaceOnUse" gradientTransform="translate(15.6897 10.2943) rotate(61.928) scale(11.8003 5.82071)">
<stop stop-color="#FEA2A9"/>
<stop offset="1" stop-color="#FEA2A9" stop-opacity="0"/>
</radialGradient>
<linearGradient id="paint3_linear_1277_43583" x1="7.21003" y1="15.551" x2="12.387" y2="17.2929" gradientUnits="userSpaceOnUse">
<stop offset="0.032" stop-color="#E43D4A"/>
<stop offset="1" stop-color="#FD4452" stop-opacity="0"/>
</linearGradient>
<radialGradient id="paint4_radial_1277_43583" cx="0" cy="0" r="1" gradientUnits="userSpaceOnUse" gradientTransform="translate(23.1231 6.58806) rotate(90) scale(8.91073 7.84286)">
<stop offset="0.901" stop-color="#FE7C86" stop-opacity="0"/>
<stop offset="1" stop-color="#FE7C86"/>
</radialGradient>
<radialGradient id="paint5_radial_1277_43583" cx="0" cy="0" r="1" gradientUnits="userSpaceOnUse" gradientTransform="translate(26.9311 9.39166) rotate(143.778) scale(5.29753 3.32478)">
<stop stop-color="#FEB4BA"/>
<stop offset="1" stop-color="#FEB4BA" stop-opacity="0"/>
</radialGradient>
<radialGradient id="paint6_radial_1277_43583" cx="0" cy="0" r="1" gradientUnits="userSpaceOnUse" gradientTransform="translate(25.3249 2.04253) rotate(61.928) scale(7.86686 3.88047)">
<stop stop-color="#FEA2A9"/>
<stop offset="1" stop-color="#FEA2A9" stop-opacity="0"/>
</radialGradient>
<linearGradient id="paint7_linear_1277_43583" x1="19.6718" y1="5.54703" x2="23.1231" y2="6.70832" gradientUnits="userSpaceOnUse">
<stop offset="0.032" stop-color="#E43D4A"/>
<stop offset="1" stop-color="#FD4452" stop-opacity="0"/>
</linearGradient>
</defs>
</svg>
