<svg width="31" height="32" viewBox="0 0 31 32" fill="none" xmlns="http://www.w3.org/2000/svg">
<g clip-path="url(#clip0_1277_43592)">
<path d="M18.4951 26.7972L20.0706 24.031C20.1221 23.9407 20.1965 23.8656 20.2864 23.8135C20.3763 23.7614 20.4785 23.7341 20.5824 23.7344C20.6863 23.7346 20.7883 23.7625 20.8779 23.815C20.9675 23.8676 21.0416 23.943 21.0926 24.0336L22.6969 26.8836H22.6943C22.8737 27.2263 22.9671 27.6075 22.9664 27.9944C22.9664 29.3175 21.8938 30.3901 20.5706 30.3901C19.2475 30.3901 18.1749 29.3175 18.1749 27.9944C18.1749 27.5796 18.2801 27.1896 18.4654 26.8496H18.4649L18.4799 26.8234L18.4951 26.7972Z" fill="#FF4D6D"/>
<path d="M18.4951 26.7972L20.0706 24.031C20.1221 23.9407 20.1965 23.8656 20.2864 23.8135C20.3763 23.7614 20.4785 23.7341 20.5824 23.7344C20.6863 23.7346 20.7883 23.7625 20.8779 23.815C20.9675 23.8676 21.0416 23.943 21.0926 24.0336L22.6969 26.8836H22.6943C22.8737 27.2263 22.9671 27.6075 22.9664 27.9944C22.9664 29.3175 21.8938 30.3901 20.5706 30.3901C19.2475 30.3901 18.1749 29.3175 18.1749 27.9944C18.1749 27.5796 18.2801 27.1896 18.4654 26.8496H18.4649L18.4799 26.8234L18.4951 26.7972Z" fill="url(#paint0_radial_1277_43592)"/>
<path d="M18.4951 26.7972L20.0706 24.031C20.1221 23.9407 20.1965 23.8656 20.2864 23.8135C20.3763 23.7614 20.4785 23.7341 20.5824 23.7344C20.6863 23.7346 20.7883 23.7625 20.8779 23.815C20.9675 23.8676 21.0416 23.943 21.0926 24.0336L22.6969 26.8836H22.6943C22.8737 27.2263 22.9671 27.6075 22.9664 27.9944C22.9664 29.3175 21.8938 30.3901 20.5706 30.3901C19.2475 30.3901 18.1749 29.3175 18.1749 27.9944C18.1749 27.5796 18.2801 27.1896 18.4654 26.8496H18.4649L18.4799 26.8234L18.4951 26.7972Z" fill="url(#paint1_radial_1277_43592)"/>
<path d="M18.4951 26.7972L20.0706 24.031C20.1221 23.9407 20.1965 23.8656 20.2864 23.8135C20.3763 23.7614 20.4785 23.7341 20.5824 23.7344C20.6863 23.7346 20.7883 23.7625 20.8779 23.815C20.9675 23.8676 21.0416 23.943 21.0926 24.0336L22.6969 26.8836H22.6943C22.8737 27.2263 22.9671 27.6075 22.9664 27.9944C22.9664 29.3175 21.8938 30.3901 20.5706 30.3901C19.2475 30.3901 18.1749 29.3175 18.1749 27.9944C18.1749 27.5796 18.2801 27.1896 18.4654 26.8496H18.4649L18.4799 26.8234L18.4951 26.7972Z" fill="url(#paint2_radial_1277_43592)"/>
<path d="M18.4951 26.7972L20.0706 24.031C20.1221 23.9407 20.1965 23.8656 20.2864 23.8135C20.3763 23.7614 20.4785 23.7341 20.5824 23.7344C20.6863 23.7346 20.7883 23.7625 20.8779 23.815C20.9675 23.8676 21.0416 23.943 21.0926 24.0336L22.6969 26.8836H22.6943C22.8737 27.2263 22.9671 27.6075 22.9664 27.9944C22.9664 29.3175 21.8938 30.3901 20.5706 30.3901C19.2475 30.3901 18.1749 29.3175 18.1749 27.9944C18.1749 27.5796 18.2801 27.1896 18.4654 26.8496H18.4649L18.4799 26.8234L18.4951 26.7972Z" fill="url(#paint3_linear_1277_43592)"/>
</g>
<path d="M12.8207 10.6729L17.5472 2.37416C17.7015 2.10327 17.9248 1.87817 18.1946 1.72185C18.4643 1.56553 18.7706 1.48358 19.0824 1.48438C19.3941 1.48518 19.7 1.56869 19.9689 1.7264C20.2378 1.8841 20.4601 2.11034 20.6129 2.38201L25.4259 10.9321H25.418C25.9563 11.9603 26.2365 13.1038 26.2345 14.2643C26.2345 18.2337 23.0166 21.4516 19.0472 21.4516C15.0779 21.4516 11.86 18.2337 11.86 14.2643C11.86 13.02 12.1757 11.85 12.7314 10.83H12.73L12.775 10.7514L12.8207 10.6729Z" fill="#FF4D6D"/>
<path d="M12.8207 10.6729L17.5472 2.37416C17.7015 2.10327 17.9248 1.87817 18.1946 1.72185C18.4643 1.56553 18.7706 1.48358 19.0824 1.48438C19.3941 1.48518 19.7 1.56869 19.9689 1.7264C20.2378 1.8841 20.4601 2.11034 20.6129 2.38201L25.4259 10.9321H25.418C25.9563 11.9603 26.2365 13.1038 26.2345 14.2643C26.2345 18.2337 23.0166 21.4516 19.0472 21.4516C15.0779 21.4516 11.86 18.2337 11.86 14.2643C11.86 13.02 12.1757 11.85 12.7314 10.83H12.73L12.775 10.7514L12.8207 10.6729Z" fill="url(#paint4_radial_1277_43592)"/>
<path d="M12.8207 10.6729L17.5472 2.37416C17.7015 2.10327 17.9248 1.87817 18.1946 1.72185C18.4643 1.56553 18.7706 1.48358 19.0824 1.48438C19.3941 1.48518 19.7 1.56869 19.9689 1.7264C20.2378 1.8841 20.4601 2.11034 20.6129 2.38201L25.4259 10.9321H25.418C25.9563 11.9603 26.2365 13.1038 26.2345 14.2643C26.2345 18.2337 23.0166 21.4516 19.0472 21.4516C15.0779 21.4516 11.86 18.2337 11.86 14.2643C11.86 13.02 12.1757 11.85 12.7314 10.83H12.73L12.775 10.7514L12.8207 10.6729Z" fill="url(#paint5_radial_1277_43592)"/>
<path d="M12.8207 10.6729L17.5472 2.37416C17.7015 2.10327 17.9248 1.87817 18.1946 1.72185C18.4643 1.56553 18.7706 1.48358 19.0824 1.48438C19.3941 1.48518 19.7 1.56869 19.9689 1.7264C20.2378 1.8841 20.4601 2.11034 20.6129 2.38201L25.4259 10.9321H25.418C25.9563 11.9603 26.2365 13.1038 26.2345 14.2643C26.2345 18.2337 23.0166 21.4516 19.0472 21.4516C15.0779 21.4516 11.86 18.2337 11.86 14.2643C11.86 13.02 12.1757 11.85 12.7314 10.83H12.73L12.775 10.7514L12.8207 10.6729Z" fill="url(#paint6_radial_1277_43592)"/>
<path d="M12.8207 10.6729L17.5472 2.37416C17.7015 2.10327 17.9248 1.87817 18.1946 1.72185C18.4643 1.56553 18.7706 1.48358 19.0824 1.48438C19.3941 1.48518 19.7 1.56869 19.9689 1.7264C20.2378 1.8841 20.4601 2.11034 20.6129 2.38201L25.4259 10.9321H25.418C25.9563 11.9603 26.2365 13.1038 26.2345 14.2643C26.2345 18.2337 23.0166 21.4516 19.0472 21.4516C15.0779 21.4516 11.86 18.2337 11.86 14.2643C11.86 13.02 12.1757 11.85 12.7314 10.83H12.73L12.775 10.7514L12.8207 10.6729Z" fill="url(#paint7_linear_1277_43592)"/>
<path d="M3.65764 23.8757L6.80864 18.3432C6.91148 18.1626 7.06041 18.0125 7.24021 17.9083C7.42002 17.8041 7.62426 17.7495 7.83209 17.75C8.03991 17.7505 8.24387 17.8062 8.42314 17.9113C8.60241 18.0165 8.75056 18.1673 8.85248 18.3484L12.0611 24.0485H12.0559C12.4147 24.7339 12.6015 25.4963 12.6002 26.27C12.6002 28.9162 10.4549 31.0615 7.80865 31.0615C5.16242 31.0615 3.01715 28.9162 3.01715 26.27C3.01715 25.4404 3.22763 24.6604 3.59811 23.9804H3.59716L3.62716 23.928L3.65764 23.8757Z" fill="#FF4D6D"/>
<path d="M3.65764 23.8757L6.80864 18.3432C6.91148 18.1626 7.06041 18.0125 7.24021 17.9083C7.42002 17.8041 7.62426 17.7495 7.83209 17.75C8.03991 17.7505 8.24387 17.8062 8.42314 17.9113C8.60241 18.0165 8.75056 18.1673 8.85248 18.3484L12.0611 24.0485H12.0559C12.4147 24.7339 12.6015 25.4963 12.6002 26.27C12.6002 28.9162 10.4549 31.0615 7.80865 31.0615C5.16242 31.0615 3.01715 28.9162 3.01715 26.27C3.01715 25.4404 3.22763 24.6604 3.59811 23.9804H3.59716L3.62716 23.928L3.65764 23.8757Z" fill="url(#paint8_radial_1277_43592)"/>
<path d="M3.65764 23.8757L6.80864 18.3432C6.91148 18.1626 7.06041 18.0125 7.24021 17.9083C7.42002 17.8041 7.62426 17.7495 7.83209 17.75C8.03991 17.7505 8.24387 17.8062 8.42314 17.9113C8.60241 18.0165 8.75056 18.1673 8.85248 18.3484L12.0611 24.0485H12.0559C12.4147 24.7339 12.6015 25.4963 12.6002 26.27C12.6002 28.9162 10.4549 31.0615 7.80865 31.0615C5.16242 31.0615 3.01715 28.9162 3.01715 26.27C3.01715 25.4404 3.22763 24.6604 3.59811 23.9804H3.59716L3.62716 23.928L3.65764 23.8757Z" fill="url(#paint9_radial_1277_43592)"/>
<path d="M3.65764 23.8757L6.80864 18.3432C6.91148 18.1626 7.06041 18.0125 7.24021 17.9083C7.42002 17.8041 7.62426 17.7495 7.83209 17.75C8.03991 17.7505 8.24387 17.8062 8.42314 17.9113C8.60241 18.0165 8.75056 18.1673 8.85248 18.3484L12.0611 24.0485H12.0559C12.4147 24.7339 12.6015 25.4963 12.6002 26.27C12.6002 28.9162 10.4549 31.0615 7.80865 31.0615C5.16242 31.0615 3.01715 28.9162 3.01715 26.27C3.01715 25.4404 3.22763 24.6604 3.59811 23.9804H3.59716L3.62716 23.928L3.65764 23.8757Z" fill="url(#paint10_radial_1277_43592)"/>
<path d="M3.65764 23.8757L6.80864 18.3432C6.91148 18.1626 7.06041 18.0125 7.24021 17.9083C7.42002 17.8041 7.62426 17.7495 7.83209 17.75C8.03991 17.7505 8.24387 17.8062 8.42314 17.9113C8.60241 18.0165 8.75056 18.1673 8.85248 18.3484L12.0611 24.0485H12.0559C12.4147 24.7339 12.6015 25.4963 12.6002 26.27C12.6002 28.9162 10.4549 31.0615 7.80865 31.0615C5.16242 31.0615 3.01715 28.9162 3.01715 26.27C3.01715 25.4404 3.22763 24.6604 3.59811 23.9804H3.59716L3.62716 23.928L3.65764 23.8757Z" fill="url(#paint11_linear_1277_43592)"/>
<path d="M2.60109 8.95362L4.96434 4.80427C5.04148 4.66882 5.15317 4.55627 5.28803 4.47811C5.42288 4.39995 5.57606 4.35898 5.73193 4.35938C5.88779 4.35978 6.04076 4.40153 6.17522 4.48039C6.30967 4.55924 6.42079 4.67236 6.49722 4.80819L8.90369 9.08326H8.89976C9.16889 9.59732 9.30899 10.1691 9.30798 10.7494C9.30798 12.734 7.69903 14.343 5.71435 14.343C3.72968 14.343 2.12073 12.734 2.12073 10.7494C2.12073 10.1272 2.27859 9.5422 2.55645 9.03219H2.55573L2.57823 8.9929L2.60109 8.95362Z" fill="#FF4D6D"/>
<path d="M2.60109 8.95362L4.96434 4.80427C5.04148 4.66882 5.15317 4.55627 5.28803 4.47811C5.42288 4.39995 5.57606 4.35898 5.73193 4.35938C5.88779 4.35978 6.04076 4.40153 6.17522 4.48039C6.30967 4.55924 6.42079 4.67236 6.49722 4.80819L8.90369 9.08326H8.89976C9.16889 9.59732 9.30899 10.1691 9.30798 10.7494C9.30798 12.734 7.69903 14.343 5.71435 14.343C3.72968 14.343 2.12073 12.734 2.12073 10.7494C2.12073 10.1272 2.27859 9.5422 2.55645 9.03219H2.55573L2.57823 8.9929L2.60109 8.95362Z" fill="url(#paint12_radial_1277_43592)"/>
<path d="M2.60109 8.95362L4.96434 4.80427C5.04148 4.66882 5.15317 4.55627 5.28803 4.47811C5.42288 4.39995 5.57606 4.35898 5.73193 4.35938C5.88779 4.35978 6.04076 4.40153 6.17522 4.48039C6.30967 4.55924 6.42079 4.67236 6.49722 4.80819L8.90369 9.08326H8.89976C9.16889 9.59732 9.30899 10.1691 9.30798 10.7494C9.30798 12.734 7.69903 14.343 5.71435 14.343C3.72968 14.343 2.12073 12.734 2.12073 10.7494C2.12073 10.1272 2.27859 9.5422 2.55645 9.03219H2.55573L2.57823 8.9929L2.60109 8.95362Z" fill="url(#paint13_radial_1277_43592)"/>
<path d="M2.60109 8.95362L4.96434 4.80427C5.04148 4.66882 5.15317 4.55627 5.28803 4.47811C5.42288 4.39995 5.57606 4.35898 5.73193 4.35938C5.88779 4.35978 6.04076 4.40153 6.17522 4.48039C6.30967 4.55924 6.42079 4.67236 6.49722 4.80819L8.90369 9.08326H8.89976C9.16889 9.59732 9.30899 10.1691 9.30798 10.7494C9.30798 12.734 7.69903 14.343 5.71435 14.343C3.72968 14.343 2.12073 12.734 2.12073 10.7494C2.12073 10.1272 2.27859 9.5422 2.55645 9.03219H2.55573L2.57823 8.9929L2.60109 8.95362Z" fill="url(#paint14_radial_1277_43592)"/>
<path d="M2.60109 8.95362L4.96434 4.80427C5.04148 4.66882 5.15317 4.55627 5.28803 4.47811C5.42288 4.39995 5.57606 4.35898 5.73193 4.35938C5.88779 4.35978 6.04076 4.40153 6.17522 4.48039C6.30967 4.55924 6.42079 4.67236 6.49722 4.80819L8.90369 9.08326H8.89976C9.16889 9.59732 9.30899 10.1691 9.30798 10.7494C9.30798 12.734 7.69903 14.343 5.71435 14.343C3.72968 14.343 2.12073 12.734 2.12073 10.7494C2.12073 10.1272 2.27859 9.5422 2.55645 9.03219H2.55573L2.57823 8.9929L2.60109 8.95362Z" fill="url(#paint15_linear_1277_43592)"/>
<defs>
<radialGradient id="paint0_radial_1277_43592" cx="0" cy="0" r="1" gradientUnits="userSpaceOnUse" gradientTransform="translate(20.5706 26.2798) rotate(90) scale(4.11068 3.61805)">
<stop offset="0.901" stop-color="#FE7C86" stop-opacity="0"/>
<stop offset="1" stop-color="#FE7C86"/>
</radialGradient>
<radialGradient id="paint1_radial_1277_43592" cx="0" cy="0" r="1" gradientUnits="userSpaceOnUse" gradientTransform="translate(22.3273 27.5732) rotate(143.778) scale(2.44385 1.53378)">
<stop stop-color="#FEB4BA"/>
<stop offset="1" stop-color="#FEB4BA" stop-opacity="0"/>
</radialGradient>
<radialGradient id="paint2_radial_1277_43592" cx="0" cy="0" r="1" gradientUnits="userSpaceOnUse" gradientTransform="translate(21.5864 24.1829) rotate(61.928) scale(3.62913 1.79013)">
<stop stop-color="#FEA2A9"/>
<stop offset="1" stop-color="#FEA2A9" stop-opacity="0"/>
</radialGradient>
<linearGradient id="paint3_linear_1277_43592" x1="18.9785" y1="25.7996" x2="20.5706" y2="26.3353" gradientUnits="userSpaceOnUse">
<stop offset="0.032" stop-color="#E43D4A"/>
<stop offset="1" stop-color="#FD4452" stop-opacity="0"/>
</linearGradient>
<radialGradient id="paint4_radial_1277_43592" cx="0" cy="0" r="1" gradientUnits="userSpaceOnUse" gradientTransform="translate(19.0472 9.12069) rotate(90) scale(12.332 10.8542)">
<stop offset="0.901" stop-color="#FE7C86" stop-opacity="0"/>
<stop offset="1" stop-color="#FE7C86"/>
</radialGradient>
<radialGradient id="paint5_radial_1277_43592" cx="0" cy="0" r="1" gradientUnits="userSpaceOnUse" gradientTransform="translate(24.3173 13.0007) rotate(143.778) scale(7.33154 4.60134)">
<stop stop-color="#FEB4BA"/>
<stop offset="1" stop-color="#FEB4BA" stop-opacity="0"/>
</radialGradient>
<radialGradient id="paint6_radial_1277_43592" cx="0" cy="0" r="1" gradientUnits="userSpaceOnUse" gradientTransform="translate(22.0944 2.82988) rotate(61.928) scale(10.8874 5.3704)">
<stop stop-color="#FEA2A9"/>
<stop offset="1" stop-color="#FEA2A9" stop-opacity="0"/>
</radialGradient>
<linearGradient id="paint7_linear_1277_43592" x1="14.2707" y1="7.67995" x2="19.0472" y2="9.28712" gradientUnits="userSpaceOnUse">
<stop offset="0.032" stop-color="#E43D4A"/>
<stop offset="1" stop-color="#FD4452" stop-opacity="0"/>
</linearGradient>
<radialGradient id="paint8_radial_1277_43592" cx="0" cy="0" r="1" gradientUnits="userSpaceOnUse" gradientTransform="translate(7.80865 22.8409) rotate(90) scale(8.22136 7.23611)">
<stop offset="0.901" stop-color="#FE7C86" stop-opacity="0"/>
<stop offset="1" stop-color="#FE7C86"/>
</radialGradient>
<radialGradient id="paint9_radial_1277_43592" cx="0" cy="0" r="1" gradientUnits="userSpaceOnUse" gradientTransform="translate(11.322 25.4276) rotate(143.778) scale(4.88769 3.06756)">
<stop stop-color="#FEB4BA"/>
<stop offset="1" stop-color="#FEB4BA" stop-opacity="0"/>
</radialGradient>
<radialGradient id="paint10_radial_1277_43592" cx="0" cy="0" r="1" gradientUnits="userSpaceOnUse" gradientTransform="translate(9.84011 18.647) rotate(61.928) scale(7.25825 3.58027)">
<stop stop-color="#FEA2A9"/>
<stop offset="1" stop-color="#FEA2A9" stop-opacity="0"/>
</radialGradient>
<linearGradient id="paint11_linear_1277_43592" x1="4.62432" y1="21.8804" x2="7.80865" y2="22.9518" gradientUnits="userSpaceOnUse">
<stop offset="0.032" stop-color="#E43D4A"/>
<stop offset="1" stop-color="#FD4452" stop-opacity="0"/>
</linearGradient>
<radialGradient id="paint12_radial_1277_43592" cx="0" cy="0" r="1" gradientUnits="userSpaceOnUse" gradientTransform="translate(5.71435 8.17753) rotate(90) scale(6.16602 5.42708)">
<stop offset="0.901" stop-color="#FE7C86" stop-opacity="0"/>
<stop offset="1" stop-color="#FE7C86"/>
</radialGradient>
<radialGradient id="paint13_radial_1277_43592" cx="0" cy="0" r="1" gradientUnits="userSpaceOnUse" gradientTransform="translate(8.3494 10.1176) rotate(143.778) scale(3.66577 2.30067)">
<stop stop-color="#FEB4BA"/>
<stop offset="1" stop-color="#FEB4BA" stop-opacity="0"/>
</radialGradient>
<radialGradient id="paint14_radial_1277_43592" cx="0" cy="0" r="1" gradientUnits="userSpaceOnUse" gradientTransform="translate(7.23795 5.03213) rotate(61.928) scale(5.44369 2.6852)">
<stop stop-color="#FEA2A9"/>
<stop offset="1" stop-color="#FEA2A9" stop-opacity="0"/>
</radialGradient>
<linearGradient id="paint15_linear_1277_43592" x1="3.3261" y1="7.45716" x2="5.71435" y2="8.26075" gradientUnits="userSpaceOnUse">
<stop offset="0.032" stop-color="#E43D4A"/>
<stop offset="1" stop-color="#FD4452" stop-opacity="0"/>
</linearGradient>
<clipPath id="clip0_1277_43592">
<rect width="7.61916" height="7.61916" fill="white" transform="translate(16.7611 23.2383)"/>
</clipPath>
</defs>
</svg>
