<svg width="44" height="44" viewBox="0 0 44 44" fill="none" xmlns="http://www.w3.org/2000/svg">
<path d="M10.0141 20.543L19.1125 4.56827C19.4094 4.04682 19.8395 3.61351 20.3586 3.3126C20.8778 3.01168 21.4676 2.85394 22.0676 2.85548C22.6677 2.85702 23.2566 3.01778 23.7743 3.32135C24.2919 3.62492 24.7197 4.06043 25.014 4.5834L34.2787 21.0421H34.2636C35.2998 23.0212 35.8391 25.2226 35.8352 27.4565C35.8352 35.0974 29.6409 41.2918 22 41.2918C14.3591 41.2918 8.16473 35.0974 8.16473 27.4565C8.16473 25.0613 8.77248 22.809 9.84223 20.8455H9.83948L9.92611 20.6943L10.0141 20.543Z" fill="url(#paint0_linear_1294_10862)"/>
<path d="M10.0141 20.543L19.1125 4.56827C19.4094 4.04682 19.8395 3.61351 20.3586 3.3126C20.8778 3.01168 21.4676 2.85394 22.0676 2.85548C22.6677 2.85702 23.2566 3.01778 23.7743 3.32135C24.2919 3.62492 24.7197 4.06043 25.014 4.5834L34.2787 21.0421H34.2636C35.2998 23.0212 35.8391 25.2226 35.8352 27.4565C35.8352 35.0974 29.6409 41.2918 22 41.2918C14.3591 41.2918 8.16473 35.0974 8.16473 27.4565C8.16473 25.0613 8.77248 22.809 9.84223 20.8455H9.83948L9.92611 20.6943L10.0141 20.543Z" fill="url(#paint1_radial_1294_10862)"/>
<path d="M10.0141 20.543L19.1125 4.56827C19.4094 4.04682 19.8395 3.61351 20.3586 3.3126C20.8778 3.01168 21.4676 2.85394 22.0676 2.85548C22.6677 2.85702 23.2566 3.01778 23.7743 3.32135C24.2919 3.62492 24.7197 4.06043 25.014 4.5834L34.2787 21.0421H34.2636C35.2998 23.0212 35.8391 25.2226 35.8352 27.4565C35.8352 35.0974 29.6409 41.2918 22 41.2918C14.3591 41.2918 8.16473 35.0974 8.16473 27.4565C8.16473 25.0613 8.77248 22.809 9.84223 20.8455H9.83948L9.92611 20.6943L10.0141 20.543Z" fill="url(#paint2_radial_1294_10862)"/>
<path d="M10.0141 20.543L19.1125 4.56827C19.4094 4.04682 19.8395 3.61351 20.3586 3.3126C20.8778 3.01168 21.4676 2.85394 22.0676 2.85548C22.6677 2.85702 23.2566 3.01778 23.7743 3.32135C24.2919 3.62492 24.7197 4.06043 25.014 4.5834L34.2787 21.0421H34.2636C35.2998 23.0212 35.8391 25.2226 35.8352 27.4565C35.8352 35.0974 29.6409 41.2918 22 41.2918C14.3591 41.2918 8.16473 35.0974 8.16473 27.4565C8.16473 25.0613 8.77248 22.809 9.84223 20.8455H9.83948L9.92611 20.6943L10.0141 20.543Z" fill="url(#paint3_radial_1294_10862)"/>
<path d="M10.0141 20.543L19.1125 4.56827C19.4094 4.04682 19.8395 3.61351 20.3586 3.3126C20.8778 3.01168 21.4676 2.85394 22.0676 2.85548C22.6677 2.85702 23.2566 3.01778 23.7743 3.32135C24.2919 3.62492 24.7197 4.06043 25.014 4.5834L34.2787 21.0421H34.2636C35.2998 23.0212 35.8391 25.2226 35.8352 27.4565C35.8352 35.0974 29.6409 41.2918 22 41.2918C14.3591 41.2918 8.16473 35.0974 8.16473 27.4565C8.16473 25.0613 8.77248 22.809 9.84223 20.8455H9.83948L9.92611 20.6943L10.0141 20.543Z" fill="url(#paint4_linear_1294_10862)"/>
<defs>
<linearGradient id="paint0_linear_1294_10862" x1="22" y1="12.0318" x2="22" y2="40.2193" gradientUnits="userSpaceOnUse">
<stop stop-color="#FD4452"/>
<stop offset="1" stop-color="#FF1F5D"/>
</linearGradient>
<radialGradient id="paint1_radial_1294_10862" cx="0" cy="0" r="1" gradientUnits="userSpaceOnUse" gradientTransform="translate(22 17.5551) rotate(90) scale(23.7388 20.894)">
<stop offset="0.901" stop-color="#FE7C86" stop-opacity="0"/>
<stop offset="1" stop-color="#FE7C86"/>
</radialGradient>
<radialGradient id="paint2_radial_1294_10862" cx="0" cy="0" r="1" gradientUnits="userSpaceOnUse" gradientTransform="translate(32.1447 25.0241) rotate(143.778) scale(14.113 8.85745)">
<stop stop-color="#FEB4BA"/>
<stop offset="1" stop-color="#FEB4BA" stop-opacity="0"/>
</radialGradient>
<radialGradient id="paint3_radial_1294_10862" cx="0" cy="0" r="1" gradientUnits="userSpaceOnUse" gradientTransform="translate(27.8657 5.44552) rotate(61.928) scale(20.9579 10.3379)">
<stop stop-color="#FEA2A9"/>
<stop offset="1" stop-color="#FEA2A9" stop-opacity="0"/>
</radialGradient>
<linearGradient id="paint4_linear_1294_10862" x1="12.8054" y1="14.7818" x2="22" y2="17.8755" gradientUnits="userSpaceOnUse">
<stop offset="0.032" stop-color="#E43D4A"/>
<stop offset="1" stop-color="#FD4452" stop-opacity="0"/>
</linearGradient>
</defs>
</svg>
