<svg width="44" height="44" viewBox="0 0 44 44" fill="none" xmlns="http://www.w3.org/2000/svg">
<g filter="url(#filter0_iiii_795_10439)">
<path d="M33.9241 4.90625H10.076C6.08924 4.90625 2.8573 8.13819 2.8573 12.125V33.4265C2.8573 37.4133 6.08924 40.6453 10.076 40.6453H33.9241C37.9109 40.6453 41.1428 37.4133 41.1428 33.4265V12.125C41.1428 8.13819 37.9109 4.90625 33.9241 4.90625Z" fill="url(#paint0_linear_795_10439)"/>
</g>
<g filter="url(#filter1_dii_795_10439)">
<path d="M23.7271 31.8906H20.1452C20.0693 31.8906 20.0077 31.9522 20.0077 32.0281V35.61C20.0077 35.6859 20.0693 35.7475 20.1452 35.7475H23.7271C23.803 35.7475 23.8646 35.6859 23.8646 35.61V32.0281C23.8646 31.9522 23.803 31.8906 23.7271 31.8906Z" fill="#9896A1"/>
</g>
<g filter="url(#filter2_dii_795_10439)">
<path d="M15.4935 31.8906H11.9117C11.8357 31.8906 11.7742 31.9522 11.7742 32.0281V35.61C11.7742 35.6859 11.8357 35.7475 11.9117 35.7475H15.4935C15.5695 35.7475 15.631 35.6859 15.631 35.61V32.0281C15.631 31.9522 15.5695 31.8906 15.4935 31.8906Z" fill="#9896A1"/>
</g>
<g filter="url(#filter3_ii_795_10439)">
<path d="M41.1428 27.7656V33.6341C41.1428 35.494 40.404 37.2776 39.0889 38.5927C37.7738 39.9078 35.9902 40.6466 34.1303 40.6466H28.1835L41.1428 27.7656Z" fill="#D3CBDD"/>
</g>
<g filter="url(#filter4_dii_795_10439)">
<path d="M31.9606 31.8906H28.3787C28.3028 31.8906 28.2412 31.9522 28.2412 32.0281V35.61C28.2412 35.6859 28.3028 35.7475 28.3787 35.7475H31.9606C32.0365 35.7475 32.0981 35.6859 32.0981 35.61V32.0281C32.0981 31.9522 32.0365 31.8906 31.9606 31.8906Z" fill="#9896A1"/>
</g>
<g filter="url(#filter5_dii_795_10439)">
<path d="M31.9606 25.0156H28.3787C28.3028 25.0156 28.2412 25.0772 28.2412 25.1531V28.735C28.2412 28.8109 28.3028 28.8725 28.3787 28.8725H31.9606C32.0365 28.8725 32.0981 28.8109 32.0981 28.735V25.1531C32.0981 25.0772 32.0365 25.0156 31.9606 25.0156Z" fill="url(#paint1_linear_795_10439)"/>
</g>
<g filter="url(#filter6_i_795_10439)">
<path d="M41.0122 28.009C41.0746 27.947 41.1171 27.8678 41.1344 27.7816C41.1518 27.6953 41.1431 27.6059 41.1095 27.5246C41.0759 27.4433 41.0189 27.3738 40.9458 27.3249C40.8727 27.276 40.7867 27.2499 40.6987 27.25H39.09C36.0814 27.25 33.1961 28.4451 31.0687 30.5725C28.9414 32.6999 27.7462 35.5852 27.7462 38.5937V40.2025C27.7462 40.2905 27.7722 40.3765 27.8211 40.4496C27.87 40.5227 27.9395 40.5797 28.0208 40.6133C28.1021 40.6469 28.1915 40.6555 28.2778 40.6382C28.364 40.6209 28.4432 40.5784 28.5052 40.516L41.0122 28.009Z" fill="url(#paint2_radial_795_10439)"/>
<path d="M41.0122 28.009C41.0746 27.947 41.1171 27.8678 41.1344 27.7816C41.1518 27.6953 41.1431 27.6059 41.1095 27.5246C41.0759 27.4433 41.0189 27.3738 40.9458 27.3249C40.8727 27.276 40.7867 27.2499 40.6987 27.25H39.09C36.0814 27.25 33.1961 28.4451 31.0687 30.5725C28.9414 32.6999 27.7462 35.5852 27.7462 38.5937V40.2025C27.7462 40.2905 27.7722 40.3765 27.8211 40.4496C27.87 40.5227 27.9395 40.5797 28.0208 40.6133C28.1021 40.6469 28.1915 40.6555 28.2778 40.6382C28.364 40.6209 28.4432 40.5784 28.5052 40.516L41.0122 28.009Z" fill="url(#paint3_linear_795_10439)"/>
</g>
<g filter="url(#filter7_dii_795_10439)">
<path d="M23.7271 25.0156H20.1452C20.0693 25.0156 20.0077 25.0772 20.0077 25.1531V28.735C20.0077 28.8109 20.0693 28.8725 20.1452 28.8725H23.7271C23.803 28.8725 23.8646 28.8109 23.8646 28.735V25.1531C23.8646 25.0772 23.803 25.0156 23.7271 25.0156Z" fill="#9896A1"/>
</g>
<g filter="url(#filter8_dii_795_10439)">
<path d="M15.4935 25.0156H11.9117C11.8357 25.0156 11.7742 25.0772 11.7742 25.1531V28.735C11.7742 28.8109 11.8357 28.8725 11.9117 28.8725H15.4935C15.5695 28.8725 15.631 28.8109 15.631 28.735V25.1531C15.631 25.0772 15.5695 25.0156 15.4935 25.0156Z" fill="#9896A1"/>
</g>
<g filter="url(#filter9_dii_795_10439)">
<path d="M31.9606 18.1406H28.3787C28.3028 18.1406 28.2412 18.2022 28.2412 18.2781V21.86C28.2412 21.9359 28.3028 21.9975 28.3787 21.9975H31.9606C32.0365 21.9975 32.0981 21.9359 32.0981 21.86V18.2781C32.0981 18.2022 32.0365 18.1406 31.9606 18.1406Z" fill="#9896A1"/>
</g>
<g filter="url(#filter10_dii_795_10439)">
<path d="M23.7271 18.1406H20.1452C20.0693 18.1406 20.0077 18.2022 20.0077 18.2781V21.86C20.0077 21.9359 20.0693 21.9975 20.1452 21.9975H23.7271C23.803 21.9975 23.8646 21.9359 23.8646 21.86V18.2781C23.8646 18.2022 23.803 18.1406 23.7271 18.1406Z" fill="#9896A1"/>
</g>
<g filter="url(#filter11_dii_795_10439)">
<path d="M15.4935 18.1406H11.9117C11.8357 18.1406 11.7742 18.2022 11.7742 18.2781V21.86C11.7742 21.9359 11.8357 21.9975 11.9117 21.9975H15.4935C15.5695 21.9975 15.631 21.9359 15.631 21.86V18.2781C15.631 18.2022 15.5695 18.1406 15.4935 18.1406Z" fill="#9896A1"/>
</g>
<path d="M41.1428 14.2741H2.8573V11.9188C2.8573 10.0589 3.59611 8.27526 4.91121 6.96016C6.22631 5.64507 8.00997 4.90625 9.8698 4.90625H34.1303C35.9901 4.90625 37.7738 5.64507 39.0889 6.96016C40.404 8.27526 41.1428 10.0589 41.1428 11.9188V14.2741Z" fill="url(#paint4_linear_795_10439)"/>
<path d="M41.1428 14.2741H2.8573V11.9188C2.8573 10.0589 3.59611 8.27526 4.91121 6.96016C6.22631 5.64507 8.00997 4.90625 9.8698 4.90625H34.1303C35.9901 4.90625 37.7738 5.64507 39.0889 6.96016C40.404 8.27526 41.1428 10.0589 41.1428 11.9188V14.2741Z" fill="url(#paint5_linear_795_10439)"/>
<path d="M41.1428 14.2741H2.8573V11.9188C2.8573 10.0589 3.59611 8.27526 4.91121 6.96016C6.22631 5.64507 8.00997 4.90625 9.8698 4.90625H34.1303C35.9901 4.90625 37.7738 5.64507 39.0889 6.96016C40.404 8.27526 41.1428 10.0589 41.1428 11.9188V14.2741Z" fill="url(#paint6_radial_795_10439)"/>
<path d="M41.1428 14.2741H2.8573V11.9188C2.8573 10.0589 3.59611 8.27526 4.91121 6.96016C6.22631 5.64507 8.00997 4.90625 9.8698 4.90625H34.1303C35.9901 4.90625 37.7738 5.64507 39.0889 6.96016C40.404 8.27526 41.1428 10.0589 41.1428 11.9188V14.2741Z" fill="url(#paint7_linear_795_10439)"/>
<g filter="url(#filter12_f_795_10439)">
<path d="M39.7458 13.5586C39.7458 9.57109 38.027 6.33984 32.527 6.33984H18.5625" stroke="url(#paint8_radial_795_10439)" stroke-width="1.5"/>
</g>
<g filter="url(#filter13_f_795_10439)">
<path d="M28.0418 4.90625C27.8468 5.42971 27.7471 5.98388 27.7476 6.5425C27.7476 8.71775 29.2408 10.5575 31.3088 10.9728C31.5592 11.0229 31.8192 10.9715 32.0317 10.83C32.2441 10.6884 32.3917 10.4682 32.4418 10.2179C32.492 9.96753 32.4406 9.70751 32.299 9.49504C32.1575 9.28256 31.9373 9.13502 31.6869 9.08488C30.5429 8.85525 29.6726 7.82538 29.6726 6.54112C29.6726 5.90862 29.8788 5.34488 30.2129 4.90625H28.0418Z" fill="#2B9696"/>
</g>
<g filter="url(#filter14_f_795_10439)">
<path d="M20.3019 4.90625C20.1069 5.42971 20.0072 5.98388 20.0077 6.5425C20.0077 8.71775 21.5009 10.5575 23.5689 10.9728C23.8193 11.0229 24.0793 10.9715 24.2918 10.83C24.5043 10.6884 24.6518 10.4682 24.7019 10.2179C24.7521 9.96753 24.7007 9.70751 24.5592 9.49504C24.4176 9.28256 24.1974 9.13502 23.9471 9.08488C22.8031 8.85525 21.9327 7.82538 21.9327 6.54112C21.9327 5.90862 22.1389 5.34488 22.4731 4.90625H20.3019Z" fill="#2B9696"/>
</g>
<g filter="url(#filter15_f_795_10439)">
<path d="M13.2055 4.90625C13.0105 5.42971 12.9108 5.98388 12.9113 6.5425C12.9113 8.71775 14.4045 10.5575 16.4725 10.9727C16.5965 10.9976 16.7241 10.9977 16.8481 10.9732C16.9722 10.9487 17.0901 10.9001 17.1953 10.83C17.3006 10.7599 17.3909 10.6697 17.4613 10.5647C17.5317 10.4597 17.5807 10.3418 17.6055 10.2179C17.6303 10.0939 17.6305 9.96628 17.606 9.84225C17.5815 9.71823 17.5328 9.60024 17.4627 9.49504C17.3926 9.38983 17.3025 9.29945 17.1975 9.22908C17.0924 9.1587 16.9746 9.1097 16.8506 9.08488C15.7066 8.85525 14.8363 7.82537 14.8363 6.54112C14.8363 5.90862 15.0425 5.34488 15.3766 4.90625H13.2055Z" fill="#2B9696"/>
</g>
<g filter="url(#filter16_f_795_10439)">
<path d="M7.82385 5.81787C7.63272 6.32662 6.25635 6.27575 6.25635 6.84913C6.25635 9.02437 7.71385 10.5575 9.78047 10.9728C9.90443 10.9977 10.0321 10.9979 10.1561 10.9735C10.2802 10.9491 10.3982 10.9005 10.5035 10.8305C10.6088 10.7604 10.6992 10.6703 10.7697 10.5653C10.8402 10.4604 10.8892 10.3425 10.9142 10.2186C10.9391 10.0946 10.9393 9.96695 10.9149 9.84289C10.8905 9.71883 10.8419 9.60079 10.7719 9.49552C10.7018 9.39025 10.6117 9.2998 10.5068 9.22934C10.4018 9.15888 10.2839 9.10979 10.16 9.08488C9.01597 8.85525 8.14422 7.82538 8.14422 6.54112C8.14422 5.90862 8.35047 5.34488 8.6846 4.90625L7.82385 5.81787Z" fill="#005A5A"/>
</g>
<path d="M8.74775 6.22463C8.74775 4.74925 9.86838 3.64375 11.1403 3.64375C11.99 3.64375 12.7738 4.13875 13.1986 4.90875H15.268C14.7331 3.0855 13.1175 1.71875 11.1403 1.71875C8.7065 1.71875 6.82275 3.78675 6.82275 6.22463C6.82275 8.40125 8.316 10.241 10.384 10.6562C10.508 10.6811 10.6356 10.6812 10.7596 10.6567C10.8836 10.6322 11.0016 10.5836 11.1068 10.5135C11.2121 10.4434 11.3024 10.3532 11.3728 10.2482C11.4432 10.1432 11.4922 10.0253 11.517 9.90137C11.5418 9.77742 11.542 9.64978 11.5175 9.52575C11.493 9.40173 11.4443 9.28374 11.3742 9.17853C11.3041 9.07333 11.214 8.98295 11.109 8.91258C11.0039 8.8422 10.8861 8.7932 10.7621 8.76837C9.61813 8.53875 8.74775 7.50887 8.74775 6.22463Z" fill="url(#paint9_radial_795_10439)"/>
<path d="M8.74775 6.22463C8.74775 4.74925 9.86838 3.64375 11.1403 3.64375C11.99 3.64375 12.7738 4.13875 13.1986 4.90875H15.268C14.7331 3.0855 13.1175 1.71875 11.1403 1.71875C8.7065 1.71875 6.82275 3.78675 6.82275 6.22463C6.82275 8.40125 8.316 10.241 10.384 10.6562C10.508 10.6811 10.6356 10.6812 10.7596 10.6567C10.8836 10.6322 11.0016 10.5836 11.1068 10.5135C11.2121 10.4434 11.3024 10.3532 11.3728 10.2482C11.4432 10.1432 11.4922 10.0253 11.517 9.90137C11.5418 9.77742 11.542 9.64978 11.5175 9.52575C11.493 9.40173 11.4443 9.28374 11.3742 9.17853C11.3041 9.07333 11.214 8.98295 11.109 8.91258C11.0039 8.8422 10.8861 8.7932 10.7621 8.76837C9.61813 8.53875 8.74775 7.50887 8.74775 6.22463Z" fill="url(#paint10_radial_795_10439)"/>
<g filter="url(#filter17_f_795_10439)">
<path d="M10.8103 9.41319C9.20435 9.08869 8.02185 7.65594 8.02185 5.92619C8.02185 3.96819 9.52335 2.38281 11.3769 2.38281C12.3531 2.38281 13.2303 2.82281 13.8436 3.52544" stroke="#D8D7DE" stroke-width="0.4" stroke-linecap="round"/>
</g>
<path d="M15.9143 6.22463C15.9143 4.74925 17.0349 3.64375 18.3068 3.64375C19.1579 3.64375 19.9403 4.13875 20.3651 4.90875H22.4345C21.8996 3.0855 20.2854 1.71875 18.3068 1.71875C15.873 1.71875 13.9893 3.78675 13.9893 6.22463C13.9893 8.40125 15.4825 10.241 17.5505 10.6562C17.6745 10.6812 17.8021 10.6814 17.9262 10.657C18.0502 10.6326 18.1683 10.584 18.2735 10.514C18.3788 10.4439 18.4693 10.3538 18.5397 10.2488C18.6102 10.1439 18.6593 10.026 18.6842 9.90206C18.7091 9.7781 18.7094 9.65045 18.685 9.52639C18.6605 9.40233 18.6119 9.28429 18.5419 9.17902C18.4719 9.07375 18.3818 8.9833 18.2768 8.91284C18.1718 8.84238 18.054 8.79329 17.93 8.76837C16.786 8.53875 15.9143 7.50887 15.9143 6.22463Z" fill="url(#paint11_radial_795_10439)"/>
<path d="M15.9143 6.22463C15.9143 4.74925 17.0349 3.64375 18.3068 3.64375C19.1579 3.64375 19.9403 4.13875 20.3651 4.90875H22.4345C21.8996 3.0855 20.2854 1.71875 18.3068 1.71875C15.873 1.71875 13.9893 3.78675 13.9893 6.22463C13.9893 8.40125 15.4825 10.241 17.5505 10.6562C17.6745 10.6812 17.8021 10.6814 17.9262 10.657C18.0502 10.6326 18.1683 10.584 18.2735 10.514C18.3788 10.4439 18.4693 10.3538 18.5397 10.2488C18.6102 10.1439 18.6593 10.026 18.6842 9.90206C18.7091 9.7781 18.7094 9.65045 18.685 9.52639C18.6605 9.40233 18.6119 9.28429 18.5419 9.17902C18.4719 9.07375 18.3818 8.9833 18.2768 8.91284C18.1718 8.84238 18.054 8.79329 17.93 8.76837C16.786 8.53875 15.9143 7.50887 15.9143 6.22463Z" fill="url(#paint12_radial_795_10439)"/>
<g filter="url(#filter18_f_795_10439)">
<path d="M17.9769 9.41319C16.3709 9.09006 15.1884 7.65594 15.1884 5.92619C15.1884 3.96819 16.6899 2.38281 18.5434 2.38281C19.5196 2.38281 20.3982 2.82281 21.0115 3.52544" stroke="#D8D7DE" stroke-width="0.4" stroke-linecap="round"/>
</g>
<path d="M23.133 6.22463C23.133 4.74925 24.2536 3.64375 25.5255 3.64375C26.3766 3.64375 27.159 4.13875 27.5839 4.90875H29.6533C29.1184 3.0855 27.5041 1.71875 25.5255 1.71875C23.0918 1.71875 21.208 3.78675 21.208 6.22463C21.208 8.40125 22.7013 10.241 24.7693 10.6562C24.8932 10.6812 25.0209 10.6814 25.1449 10.657C25.269 10.6326 25.387 10.584 25.4923 10.514C25.5976 10.4439 25.688 10.3538 25.7585 10.2488C25.8289 10.1439 25.878 10.026 25.9029 9.90206C25.9279 9.7781 25.9281 9.65045 25.9037 9.52639C25.8793 9.40233 25.8307 9.28429 25.7606 9.17902C25.6906 9.07375 25.6005 8.9833 25.4955 8.91284C25.3906 8.84238 25.2727 8.79329 25.1488 8.76837C24.0048 8.53875 23.133 7.50887 23.133 6.22463Z" fill="url(#paint13_radial_795_10439)"/>
<path d="M23.133 6.22463C23.133 4.74925 24.2536 3.64375 25.5255 3.64375C26.3766 3.64375 27.159 4.13875 27.5839 4.90875H29.6533C29.1184 3.0855 27.5041 1.71875 25.5255 1.71875C23.0918 1.71875 21.208 3.78675 21.208 6.22463C21.208 8.40125 22.7013 10.241 24.7693 10.6562C24.8932 10.6812 25.0209 10.6814 25.1449 10.657C25.269 10.6326 25.387 10.584 25.4923 10.514C25.5976 10.4439 25.688 10.3538 25.7585 10.2488C25.8289 10.1439 25.878 10.026 25.9029 9.90206C25.9279 9.7781 25.9281 9.65045 25.9037 9.52639C25.8793 9.40233 25.8307 9.28429 25.7606 9.17902C25.6906 9.07375 25.6005 8.9833 25.4955 8.91284C25.3906 8.84238 25.2727 8.79329 25.1488 8.76837C24.0048 8.53875 23.133 7.50887 23.133 6.22463Z" fill="url(#paint14_radial_795_10439)"/>
<g filter="url(#filter19_f_795_10439)">
<path d="M25.1956 9.41319C23.5896 9.09006 22.4071 7.65594 22.4071 5.92619C22.4071 3.96819 23.9086 2.38281 25.7621 2.38281C26.7384 2.38281 27.617 2.82281 28.2302 3.52544" stroke="#D8D7DE" stroke-width="0.4" stroke-linecap="round"/>
</g>
<path d="M30.3394 6.22463C30.3394 4.74925 31.4601 3.64375 32.7319 3.64375C33.5941 3.64375 34.3874 4.1525 34.8082 4.94037C35.5638 5.01089 36.3025 5.20603 36.9944 5.51787C36.6727 3.40038 34.9251 1.71875 32.7319 1.71875C30.2982 1.71875 28.4144 3.78675 28.4144 6.22463C28.4144 8.40125 29.9077 10.241 31.9757 10.6562C32.226 10.7066 32.4861 10.6554 32.6987 10.514C32.9113 10.3725 33.059 10.1524 33.1094 9.90206C33.1597 9.65171 33.1085 9.39163 32.9671 9.17902C32.8256 8.96641 32.6055 8.8187 32.3552 8.76837C31.2112 8.53875 30.3394 7.50887 30.3394 6.22463Z" fill="url(#paint15_radial_795_10439)"/>
<path d="M30.3394 6.22463C30.3394 4.74925 31.4601 3.64375 32.7319 3.64375C33.5941 3.64375 34.3874 4.1525 34.8082 4.94037C35.5638 5.01089 36.3025 5.20603 36.9944 5.51787C36.6727 3.40038 34.9251 1.71875 32.7319 1.71875C30.2982 1.71875 28.4144 3.78675 28.4144 6.22463C28.4144 8.40125 29.9077 10.241 31.9757 10.6562C32.226 10.7066 32.4861 10.6554 32.6987 10.514C32.9113 10.3725 33.059 10.1524 33.1094 9.90206C33.1597 9.65171 33.1085 9.39163 32.9671 9.17902C32.8256 8.96641 32.6055 8.8187 32.3552 8.76837C31.2112 8.53875 30.3394 7.50887 30.3394 6.22463Z" fill="url(#paint16_radial_795_10439)"/>
<g filter="url(#filter20_f_795_10439)">
<path d="M32.4019 9.41319C30.7959 9.09006 29.6134 7.65594 29.6134 5.92619C29.6134 3.96819 31.1149 2.38281 32.9684 2.38281C33.9447 2.38281 34.8233 2.82281 35.4352 3.52544" stroke="#D8D7DE" stroke-width="0.4" stroke-linecap="round"/>
</g>
<defs>
<filter id="filter0_iiii_795_10439" x="1.8573" y="3.90625" width="40.2855" height="36.7383" filterUnits="userSpaceOnUse" color-interpolation-filters="sRGB">
<feFlood flood-opacity="0" result="BackgroundImageFix"/>
<feBlend mode="normal" in="SourceGraphic" in2="BackgroundImageFix" result="shape"/>
<feColorMatrix in="SourceAlpha" type="matrix" values="0 0 0 0 0 0 0 0 0 0 0 0 0 0 0 0 0 0 127 0" result="hardAlpha"/>
<feOffset dy="-1"/>
<feGaussianBlur stdDeviation="1.5"/>
<feComposite in2="hardAlpha" operator="arithmetic" k2="-1" k3="1"/>
<feColorMatrix type="matrix" values="0 0 0 0 0.67451 0 0 0 0 0.619608 0 0 0 0 0.74902 0 0 0 1 0"/>
<feBlend mode="normal" in2="shape" result="effect1_innerShadow_795_10439"/>
<feColorMatrix in="SourceAlpha" type="matrix" values="0 0 0 0 0 0 0 0 0 0 0 0 0 0 0 0 0 0 127 0" result="hardAlpha"/>
<feOffset dx="1"/>
<feGaussianBlur stdDeviation="0.75"/>
<feComposite in2="hardAlpha" operator="arithmetic" k2="-1" k3="1"/>
<feColorMatrix type="matrix" values="0 0 0 0 0.8 0 0 0 0 0.788235 0 0 0 0 0.819608 0 0 0 1 0"/>
<feBlend mode="normal" in2="effect1_innerShadow_795_10439" result="effect2_innerShadow_795_10439"/>
<feColorMatrix in="SourceAlpha" type="matrix" values="0 0 0 0 0 0 0 0 0 0 0 0 0 0 0 0 0 0 127 0" result="hardAlpha"/>
<feOffset dx="-1"/>
<feGaussianBlur stdDeviation="0.75"/>
<feComposite in2="hardAlpha" operator="arithmetic" k2="-1" k3="1"/>
<feColorMatrix type="matrix" values="0 0 0 0 0.956863 0 0 0 0 0.945098 0 0 0 0 0.976471 0 0 0 1 0"/>
<feBlend mode="normal" in2="effect2_innerShadow_795_10439" result="effect3_innerShadow_795_10439"/>
<feColorMatrix in="SourceAlpha" type="matrix" values="0 0 0 0 0 0 0 0 0 0 0 0 0 0 0 0 0 0 127 0" result="hardAlpha"/>
<feOffset dx="0.25" dy="-0.25"/>
<feGaussianBlur stdDeviation="0.5"/>
<feComposite in2="hardAlpha" operator="arithmetic" k2="-1" k3="1"/>
<feColorMatrix type="matrix" values="0 0 0 0 0.670588 0 0 0 0 0.619608 0 0 0 0 0.745098 0 0 0 1 0"/>
<feBlend mode="normal" in2="effect3_innerShadow_795_10439" result="effect4_innerShadow_795_10439"/>
</filter>
<filter id="filter1_dii_795_10439" x="19.6077" y="31.6906" width="4.45693" height="4.45547" filterUnits="userSpaceOnUse" color-interpolation-filters="sRGB">
<feFlood flood-opacity="0" result="BackgroundImageFix"/>
<feColorMatrix in="SourceAlpha" type="matrix" values="0 0 0 0 0 0 0 0 0 0 0 0 0 0 0 0 0 0 127 0" result="hardAlpha"/>
<feOffset dx="-0.1" dy="0.1"/>
<feGaussianBlur stdDeviation="0.15"/>
<feComposite in2="hardAlpha" operator="out"/>
<feColorMatrix type="matrix" values="0 0 0 0 0.772549 0 0 0 0 0.752941 0 0 0 0 0.803922 0 0 0 1 0"/>
<feBlend mode="normal" in2="BackgroundImageFix" result="effect1_dropShadow_795_10439"/>
<feBlend mode="normal" in="SourceGraphic" in2="effect1_dropShadow_795_10439" result="shape"/>
<feColorMatrix in="SourceAlpha" type="matrix" values="0 0 0 0 0 0 0 0 0 0 0 0 0 0 0 0 0 0 127 0" result="hardAlpha"/>
<feOffset dx="-0.1" dy="0.1"/>
<feGaussianBlur stdDeviation="0.075"/>
<feComposite in2="hardAlpha" operator="arithmetic" k2="-1" k3="1"/>
<feColorMatrix type="matrix" values="0 0 0 0 0.654902 0 0 0 0 0.647059 0 0 0 0 0.682353 0 0 0 1 0"/>
<feBlend mode="normal" in2="shape" result="effect2_innerShadow_795_10439"/>
<feColorMatrix in="SourceAlpha" type="matrix" values="0 0 0 0 0 0 0 0 0 0 0 0 0 0 0 0 0 0 127 0" result="hardAlpha"/>
<feOffset dx="0.1" dy="-0.1"/>
<feGaussianBlur stdDeviation="0.075"/>
<feComposite in2="hardAlpha" operator="arithmetic" k2="-1" k3="1"/>
<feColorMatrix type="matrix" values="0 0 0 0 0.572549 0 0 0 0 0.564706 0 0 0 0 0.607843 0 0 0 1 0"/>
<feBlend mode="normal" in2="effect2_innerShadow_795_10439" result="effect3_innerShadow_795_10439"/>
</filter>
<filter id="filter2_dii_795_10439" x="11.3742" y="31.6906" width="4.45693" height="4.45547" filterUnits="userSpaceOnUse" color-interpolation-filters="sRGB">
<feFlood flood-opacity="0" result="BackgroundImageFix"/>
<feColorMatrix in="SourceAlpha" type="matrix" values="0 0 0 0 0 0 0 0 0 0 0 0 0 0 0 0 0 0 127 0" result="hardAlpha"/>
<feOffset dx="-0.1" dy="0.1"/>
<feGaussianBlur stdDeviation="0.15"/>
<feComposite in2="hardAlpha" operator="out"/>
<feColorMatrix type="matrix" values="0 0 0 0 0.772549 0 0 0 0 0.752941 0 0 0 0 0.803922 0 0 0 1 0"/>
<feBlend mode="normal" in2="BackgroundImageFix" result="effect1_dropShadow_795_10439"/>
<feBlend mode="normal" in="SourceGraphic" in2="effect1_dropShadow_795_10439" result="shape"/>
<feColorMatrix in="SourceAlpha" type="matrix" values="0 0 0 0 0 0 0 0 0 0 0 0 0 0 0 0 0 0 127 0" result="hardAlpha"/>
<feOffset dx="-0.1" dy="0.1"/>
<feGaussianBlur stdDeviation="0.075"/>
<feComposite in2="hardAlpha" operator="arithmetic" k2="-1" k3="1"/>
<feColorMatrix type="matrix" values="0 0 0 0 0.654902 0 0 0 0 0.647059 0 0 0 0 0.682353 0 0 0 1 0"/>
<feBlend mode="normal" in2="shape" result="effect2_innerShadow_795_10439"/>
<feColorMatrix in="SourceAlpha" type="matrix" values="0 0 0 0 0 0 0 0 0 0 0 0 0 0 0 0 0 0 127 0" result="hardAlpha"/>
<feOffset dx="0.1" dy="-0.1"/>
<feGaussianBlur stdDeviation="0.075"/>
<feComposite in2="hardAlpha" operator="arithmetic" k2="-1" k3="1"/>
<feColorMatrix type="matrix" values="0 0 0 0 0.572549 0 0 0 0 0.564706 0 0 0 0 0.607843 0 0 0 1 0"/>
<feBlend mode="normal" in2="effect2_innerShadow_795_10439" result="effect3_innerShadow_795_10439"/>
</filter>
<filter id="filter3_ii_795_10439" x="27.1835" y="27.1656" width="14.3594" height="13.4828" filterUnits="userSpaceOnUse" color-interpolation-filters="sRGB">
<feFlood flood-opacity="0" result="BackgroundImageFix"/>
<feBlend mode="normal" in="SourceGraphic" in2="BackgroundImageFix" result="shape"/>
<feColorMatrix in="SourceAlpha" type="matrix" values="0 0 0 0 0 0 0 0 0 0 0 0 0 0 0 0 0 0 127 0" result="hardAlpha"/>
<feOffset dx="-1"/>
<feGaussianBlur stdDeviation="0.75"/>
<feComposite in2="hardAlpha" operator="arithmetic" k2="-1" k3="1"/>
<feColorMatrix type="matrix" values="0 0 0 0 0.937255 0 0 0 0 0.917647 0 0 0 0 0.964706 0 0 0 1 0"/>
<feBlend mode="normal" in2="shape" result="effect1_innerShadow_795_10439"/>
<feColorMatrix in="SourceAlpha" type="matrix" values="0 0 0 0 0 0 0 0 0 0 0 0 0 0 0 0 0 0 127 0" result="hardAlpha"/>
<feOffset dx="0.4" dy="-0.6"/>
<feGaussianBlur stdDeviation="0.75"/>
<feComposite in2="hardAlpha" operator="arithmetic" k2="-1" k3="1"/>
<feColorMatrix type="matrix" values="0 0 0 0 0.658824 0 0 0 0 0.607843 0 0 0 0 0.729412 0 0 0 1 0"/>
<feBlend mode="normal" in2="effect1_innerShadow_795_10439" result="effect2_innerShadow_795_10439"/>
</filter>
<filter id="filter4_dii_795_10439" x="27.8412" y="31.6906" width="4.45693" height="4.45547" filterUnits="userSpaceOnUse" color-interpolation-filters="sRGB">
<feFlood flood-opacity="0" result="BackgroundImageFix"/>
<feColorMatrix in="SourceAlpha" type="matrix" values="0 0 0 0 0 0 0 0 0 0 0 0 0 0 0 0 0 0 127 0" result="hardAlpha"/>
<feOffset dx="-0.1" dy="0.1"/>
<feGaussianBlur stdDeviation="0.15"/>
<feComposite in2="hardAlpha" operator="out"/>
<feColorMatrix type="matrix" values="0 0 0 0 0.772549 0 0 0 0 0.752941 0 0 0 0 0.803922 0 0 0 1 0"/>
<feBlend mode="normal" in2="BackgroundImageFix" result="effect1_dropShadow_795_10439"/>
<feBlend mode="normal" in="SourceGraphic" in2="effect1_dropShadow_795_10439" result="shape"/>
<feColorMatrix in="SourceAlpha" type="matrix" values="0 0 0 0 0 0 0 0 0 0 0 0 0 0 0 0 0 0 127 0" result="hardAlpha"/>
<feOffset dx="-0.1" dy="0.1"/>
<feGaussianBlur stdDeviation="0.075"/>
<feComposite in2="hardAlpha" operator="arithmetic" k2="-1" k3="1"/>
<feColorMatrix type="matrix" values="0 0 0 0 0.654902 0 0 0 0 0.647059 0 0 0 0 0.682353 0 0 0 1 0"/>
<feBlend mode="normal" in2="shape" result="effect2_innerShadow_795_10439"/>
<feColorMatrix in="SourceAlpha" type="matrix" values="0 0 0 0 0 0 0 0 0 0 0 0 0 0 0 0 0 0 127 0" result="hardAlpha"/>
<feOffset dx="0.1" dy="-0.1"/>
<feGaussianBlur stdDeviation="0.075"/>
<feComposite in2="hardAlpha" operator="arithmetic" k2="-1" k3="1"/>
<feColorMatrix type="matrix" values="0 0 0 0 0.572549 0 0 0 0 0.564706 0 0 0 0 0.607843 0 0 0 1 0"/>
<feBlend mode="normal" in2="effect2_innerShadow_795_10439" result="effect3_innerShadow_795_10439"/>
</filter>
<filter id="filter5_dii_795_10439" x="27.8412" y="24.8156" width="4.45693" height="4.45547" filterUnits="userSpaceOnUse" color-interpolation-filters="sRGB">
<feFlood flood-opacity="0" result="BackgroundImageFix"/>
<feColorMatrix in="SourceAlpha" type="matrix" values="0 0 0 0 0 0 0 0 0 0 0 0 0 0 0 0 0 0 127 0" result="hardAlpha"/>
<feOffset dx="-0.1" dy="0.1"/>
<feGaussianBlur stdDeviation="0.15"/>
<feComposite in2="hardAlpha" operator="out"/>
<feColorMatrix type="matrix" values="0 0 0 0 0.858824 0 0 0 0 0.835294 0 0 0 0 0.917647 0 0 0 1 0"/>
<feBlend mode="normal" in2="BackgroundImageFix" result="effect1_dropShadow_795_10439"/>
<feBlend mode="normal" in="SourceGraphic" in2="effect1_dropShadow_795_10439" result="shape"/>
<feColorMatrix in="SourceAlpha" type="matrix" values="0 0 0 0 0 0 0 0 0 0 0 0 0 0 0 0 0 0 127 0" result="hardAlpha"/>
<feOffset dx="-0.1" dy="0.1"/>
<feGaussianBlur stdDeviation="0.075"/>
<feComposite in2="hardAlpha" operator="arithmetic" k2="-1" k3="1"/>
<feColorMatrix type="matrix" values="0 0 0 0 0.34902 0 0 0 0 0.631373 0 0 0 0 0.917647 0 0 0 1 0"/>
<feBlend mode="normal" in2="shape" result="effect2_innerShadow_795_10439"/>
<feColorMatrix in="SourceAlpha" type="matrix" values="0 0 0 0 0 0 0 0 0 0 0 0 0 0 0 0 0 0 127 0" result="hardAlpha"/>
<feOffset dx="0.1" dy="-0.1"/>
<feGaussianBlur stdDeviation="0.075"/>
<feComposite in2="hardAlpha" operator="arithmetic" k2="-1" k3="1"/>
<feColorMatrix type="matrix" values="0 0 0 0 0.254902 0 0 0 0 0.498039 0 0 0 0 0.819608 0 0 0 1 0"/>
<feBlend mode="normal" in2="effect2_innerShadow_795_10439" result="effect3_innerShadow_795_10439"/>
</filter>
<filter id="filter6_i_795_10439" x="27.7462" y="27.25" width="13.497" height="13.4984" filterUnits="userSpaceOnUse" color-interpolation-filters="sRGB">
<feFlood flood-opacity="0" result="BackgroundImageFix"/>
<feBlend mode="normal" in="SourceGraphic" in2="BackgroundImageFix" result="shape"/>
<feColorMatrix in="SourceAlpha" type="matrix" values="0 0 0 0 0 0 0 0 0 0 0 0 0 0 0 0 0 0 127 0" result="hardAlpha"/>
<feOffset dx="0.1" dy="0.1"/>
<feGaussianBlur stdDeviation="0.1"/>
<feComposite in2="hardAlpha" operator="arithmetic" k2="-1" k3="1"/>
<feColorMatrix type="matrix" values="0 0 0 0 0.803922 0 0 0 0 0.807843 0 0 0 0 0.870588 0 0 0 1 0"/>
<feBlend mode="normal" in2="shape" result="effect1_innerShadow_795_10439"/>
</filter>
<filter id="filter7_dii_795_10439" x="19.6077" y="24.8156" width="4.45693" height="4.45547" filterUnits="userSpaceOnUse" color-interpolation-filters="sRGB">
<feFlood flood-opacity="0" result="BackgroundImageFix"/>
<feColorMatrix in="SourceAlpha" type="matrix" values="0 0 0 0 0 0 0 0 0 0 0 0 0 0 0 0 0 0 127 0" result="hardAlpha"/>
<feOffset dx="-0.1" dy="0.1"/>
<feGaussianBlur stdDeviation="0.15"/>
<feComposite in2="hardAlpha" operator="out"/>
<feColorMatrix type="matrix" values="0 0 0 0 0.772549 0 0 0 0 0.752941 0 0 0 0 0.803922 0 0 0 1 0"/>
<feBlend mode="normal" in2="BackgroundImageFix" result="effect1_dropShadow_795_10439"/>
<feBlend mode="normal" in="SourceGraphic" in2="effect1_dropShadow_795_10439" result="shape"/>
<feColorMatrix in="SourceAlpha" type="matrix" values="0 0 0 0 0 0 0 0 0 0 0 0 0 0 0 0 0 0 127 0" result="hardAlpha"/>
<feOffset dx="-0.1" dy="0.1"/>
<feGaussianBlur stdDeviation="0.075"/>
<feComposite in2="hardAlpha" operator="arithmetic" k2="-1" k3="1"/>
<feColorMatrix type="matrix" values="0 0 0 0 0.654902 0 0 0 0 0.647059 0 0 0 0 0.682353 0 0 0 1 0"/>
<feBlend mode="normal" in2="shape" result="effect2_innerShadow_795_10439"/>
<feColorMatrix in="SourceAlpha" type="matrix" values="0 0 0 0 0 0 0 0 0 0 0 0 0 0 0 0 0 0 127 0" result="hardAlpha"/>
<feOffset dx="0.1" dy="-0.1"/>
<feGaussianBlur stdDeviation="0.075"/>
<feComposite in2="hardAlpha" operator="arithmetic" k2="-1" k3="1"/>
<feColorMatrix type="matrix" values="0 0 0 0 0.572549 0 0 0 0 0.564706 0 0 0 0 0.607843 0 0 0 1 0"/>
<feBlend mode="normal" in2="effect2_innerShadow_795_10439" result="effect3_innerShadow_795_10439"/>
</filter>
<filter id="filter8_dii_795_10439" x="11.3742" y="24.8156" width="4.45693" height="4.45547" filterUnits="userSpaceOnUse" color-interpolation-filters="sRGB">
<feFlood flood-opacity="0" result="BackgroundImageFix"/>
<feColorMatrix in="SourceAlpha" type="matrix" values="0 0 0 0 0 0 0 0 0 0 0 0 0 0 0 0 0 0 127 0" result="hardAlpha"/>
<feOffset dx="-0.1" dy="0.1"/>
<feGaussianBlur stdDeviation="0.15"/>
<feComposite in2="hardAlpha" operator="out"/>
<feColorMatrix type="matrix" values="0 0 0 0 0.772549 0 0 0 0 0.752941 0 0 0 0 0.803922 0 0 0 1 0"/>
<feBlend mode="normal" in2="BackgroundImageFix" result="effect1_dropShadow_795_10439"/>
<feBlend mode="normal" in="SourceGraphic" in2="effect1_dropShadow_795_10439" result="shape"/>
<feColorMatrix in="SourceAlpha" type="matrix" values="0 0 0 0 0 0 0 0 0 0 0 0 0 0 0 0 0 0 127 0" result="hardAlpha"/>
<feOffset dx="-0.1" dy="0.1"/>
<feGaussianBlur stdDeviation="0.075"/>
<feComposite in2="hardAlpha" operator="arithmetic" k2="-1" k3="1"/>
<feColorMatrix type="matrix" values="0 0 0 0 0.654902 0 0 0 0 0.647059 0 0 0 0 0.682353 0 0 0 1 0"/>
<feBlend mode="normal" in2="shape" result="effect2_innerShadow_795_10439"/>
<feColorMatrix in="SourceAlpha" type="matrix" values="0 0 0 0 0 0 0 0 0 0 0 0 0 0 0 0 0 0 127 0" result="hardAlpha"/>
<feOffset dx="0.1" dy="-0.1"/>
<feGaussianBlur stdDeviation="0.075"/>
<feComposite in2="hardAlpha" operator="arithmetic" k2="-1" k3="1"/>
<feColorMatrix type="matrix" values="0 0 0 0 0.572549 0 0 0 0 0.564706 0 0 0 0 0.607843 0 0 0 1 0"/>
<feBlend mode="normal" in2="effect2_innerShadow_795_10439" result="effect3_innerShadow_795_10439"/>
</filter>
<filter id="filter9_dii_795_10439" x="27.8412" y="17.9406" width="4.45693" height="4.45547" filterUnits="userSpaceOnUse" color-interpolation-filters="sRGB">
<feFlood flood-opacity="0" result="BackgroundImageFix"/>
<feColorMatrix in="SourceAlpha" type="matrix" values="0 0 0 0 0 0 0 0 0 0 0 0 0 0 0 0 0 0 127 0" result="hardAlpha"/>
<feOffset dx="-0.1" dy="0.1"/>
<feGaussianBlur stdDeviation="0.15"/>
<feComposite in2="hardAlpha" operator="out"/>
<feColorMatrix type="matrix" values="0 0 0 0 0.772549 0 0 0 0 0.752941 0 0 0 0 0.803922 0 0 0 1 0"/>
<feBlend mode="normal" in2="BackgroundImageFix" result="effect1_dropShadow_795_10439"/>
<feBlend mode="normal" in="SourceGraphic" in2="effect1_dropShadow_795_10439" result="shape"/>
<feColorMatrix in="SourceAlpha" type="matrix" values="0 0 0 0 0 0 0 0 0 0 0 0 0 0 0 0 0 0 127 0" result="hardAlpha"/>
<feOffset dx="-0.1" dy="0.1"/>
<feGaussianBlur stdDeviation="0.075"/>
<feComposite in2="hardAlpha" operator="arithmetic" k2="-1" k3="1"/>
<feColorMatrix type="matrix" values="0 0 0 0 0.654902 0 0 0 0 0.647059 0 0 0 0 0.682353 0 0 0 1 0"/>
<feBlend mode="normal" in2="shape" result="effect2_innerShadow_795_10439"/>
<feColorMatrix in="SourceAlpha" type="matrix" values="0 0 0 0 0 0 0 0 0 0 0 0 0 0 0 0 0 0 127 0" result="hardAlpha"/>
<feOffset dx="0.1" dy="-0.1"/>
<feGaussianBlur stdDeviation="0.075"/>
<feComposite in2="hardAlpha" operator="arithmetic" k2="-1" k3="1"/>
<feColorMatrix type="matrix" values="0 0 0 0 0.572549 0 0 0 0 0.564706 0 0 0 0 0.607843 0 0 0 1 0"/>
<feBlend mode="normal" in2="effect2_innerShadow_795_10439" result="effect3_innerShadow_795_10439"/>
</filter>
<filter id="filter10_dii_795_10439" x="19.6077" y="17.9406" width="4.45693" height="4.45547" filterUnits="userSpaceOnUse" color-interpolation-filters="sRGB">
<feFlood flood-opacity="0" result="BackgroundImageFix"/>
<feColorMatrix in="SourceAlpha" type="matrix" values="0 0 0 0 0 0 0 0 0 0 0 0 0 0 0 0 0 0 127 0" result="hardAlpha"/>
<feOffset dx="-0.1" dy="0.1"/>
<feGaussianBlur stdDeviation="0.15"/>
<feComposite in2="hardAlpha" operator="out"/>
<feColorMatrix type="matrix" values="0 0 0 0 0.772549 0 0 0 0 0.752941 0 0 0 0 0.803922 0 0 0 1 0"/>
<feBlend mode="normal" in2="BackgroundImageFix" result="effect1_dropShadow_795_10439"/>
<feBlend mode="normal" in="SourceGraphic" in2="effect1_dropShadow_795_10439" result="shape"/>
<feColorMatrix in="SourceAlpha" type="matrix" values="0 0 0 0 0 0 0 0 0 0 0 0 0 0 0 0 0 0 127 0" result="hardAlpha"/>
<feOffset dx="-0.1" dy="0.1"/>
<feGaussianBlur stdDeviation="0.075"/>
<feComposite in2="hardAlpha" operator="arithmetic" k2="-1" k3="1"/>
<feColorMatrix type="matrix" values="0 0 0 0 0.654902 0 0 0 0 0.647059 0 0 0 0 0.682353 0 0 0 1 0"/>
<feBlend mode="normal" in2="shape" result="effect2_innerShadow_795_10439"/>
<feColorMatrix in="SourceAlpha" type="matrix" values="0 0 0 0 0 0 0 0 0 0 0 0 0 0 0 0 0 0 127 0" result="hardAlpha"/>
<feOffset dx="0.1" dy="-0.1"/>
<feGaussianBlur stdDeviation="0.075"/>
<feComposite in2="hardAlpha" operator="arithmetic" k2="-1" k3="1"/>
<feColorMatrix type="matrix" values="0 0 0 0 0.572549 0 0 0 0 0.564706 0 0 0 0 0.607843 0 0 0 1 0"/>
<feBlend mode="normal" in2="effect2_innerShadow_795_10439" result="effect3_innerShadow_795_10439"/>
</filter>
<filter id="filter11_dii_795_10439" x="11.3742" y="17.9406" width="4.45693" height="4.45547" filterUnits="userSpaceOnUse" color-interpolation-filters="sRGB">
<feFlood flood-opacity="0" result="BackgroundImageFix"/>
<feColorMatrix in="SourceAlpha" type="matrix" values="0 0 0 0 0 0 0 0 0 0 0 0 0 0 0 0 0 0 127 0" result="hardAlpha"/>
<feOffset dx="-0.1" dy="0.1"/>
<feGaussianBlur stdDeviation="0.15"/>
<feComposite in2="hardAlpha" operator="out"/>
<feColorMatrix type="matrix" values="0 0 0 0 0.772549 0 0 0 0 0.752941 0 0 0 0 0.803922 0 0 0 1 0"/>
<feBlend mode="normal" in2="BackgroundImageFix" result="effect1_dropShadow_795_10439"/>
<feBlend mode="normal" in="SourceGraphic" in2="effect1_dropShadow_795_10439" result="shape"/>
<feColorMatrix in="SourceAlpha" type="matrix" values="0 0 0 0 0 0 0 0 0 0 0 0 0 0 0 0 0 0 127 0" result="hardAlpha"/>
<feOffset dx="-0.1" dy="0.1"/>
<feGaussianBlur stdDeviation="0.075"/>
<feComposite in2="hardAlpha" operator="arithmetic" k2="-1" k3="1"/>
<feColorMatrix type="matrix" values="0 0 0 0 0.654902 0 0 0 0 0.647059 0 0 0 0 0.682353 0 0 0 1 0"/>
<feBlend mode="normal" in2="shape" result="effect2_innerShadow_795_10439"/>
<feColorMatrix in="SourceAlpha" type="matrix" values="0 0 0 0 0 0 0 0 0 0 0 0 0 0 0 0 0 0 127 0" result="hardAlpha"/>
<feOffset dx="0.1" dy="-0.1"/>
<feGaussianBlur stdDeviation="0.075"/>
<feComposite in2="hardAlpha" operator="arithmetic" k2="-1" k3="1"/>
<feColorMatrix type="matrix" values="0 0 0 0 0.572549 0 0 0 0 0.564706 0 0 0 0 0.607843 0 0 0 1 0"/>
<feBlend mode="normal" in2="effect2_innerShadow_795_10439" result="effect3_innerShadow_795_10439"/>
</filter>
<filter id="filter12_f_795_10439" x="17.3125" y="4.33984" width="24.4332" height="10.4688" filterUnits="userSpaceOnUse" color-interpolation-filters="sRGB">
<feFlood flood-opacity="0" result="BackgroundImageFix"/>
<feBlend mode="normal" in="SourceGraphic" in2="BackgroundImageFix" result="shape"/>
<feGaussianBlur stdDeviation="0.625" result="effect1_foregroundBlur_795_10439"/>
</filter>
<filter id="filter13_f_795_10439" x="26.9976" y="4.15625" width="6.21301" height="7.58594" filterUnits="userSpaceOnUse" color-interpolation-filters="sRGB">
<feFlood flood-opacity="0" result="BackgroundImageFix"/>
<feBlend mode="normal" in="SourceGraphic" in2="BackgroundImageFix" result="shape"/>
<feGaussianBlur stdDeviation="0.375" result="effect1_foregroundBlur_795_10439"/>
</filter>
<filter id="filter14_f_795_10439" x="19.2577" y="4.15625" width="6.21301" height="7.58594" filterUnits="userSpaceOnUse" color-interpolation-filters="sRGB">
<feFlood flood-opacity="0" result="BackgroundImageFix"/>
<feBlend mode="normal" in="SourceGraphic" in2="BackgroundImageFix" result="shape"/>
<feGaussianBlur stdDeviation="0.375" result="effect1_foregroundBlur_795_10439"/>
</filter>
<filter id="filter15_f_795_10439" x="12.1613" y="4.15625" width="6.21301" height="7.58594" filterUnits="userSpaceOnUse" color-interpolation-filters="sRGB">
<feFlood flood-opacity="0" result="BackgroundImageFix"/>
<feBlend mode="normal" in="SourceGraphic" in2="BackgroundImageFix" result="shape"/>
<feGaussianBlur stdDeviation="0.375" result="effect1_foregroundBlur_795_10439"/>
</filter>
<filter id="filter16_f_795_10439" x="5.50635" y="4.15625" width="6.17664" height="7.58594" filterUnits="userSpaceOnUse" color-interpolation-filters="sRGB">
<feFlood flood-opacity="0" result="BackgroundImageFix"/>
<feBlend mode="normal" in="SourceGraphic" in2="BackgroundImageFix" result="shape"/>
<feGaussianBlur stdDeviation="0.375" result="effect1_foregroundBlur_795_10439"/>
</filter>
<filter id="filter17_f_795_10439" x="7.2219" y="1.58359" width="7.42168" height="8.62969" filterUnits="userSpaceOnUse" color-interpolation-filters="sRGB">
<feFlood flood-opacity="0" result="BackgroundImageFix"/>
<feBlend mode="normal" in="SourceGraphic" in2="BackgroundImageFix" result="shape"/>
<feGaussianBlur stdDeviation="0.3" result="effect1_foregroundBlur_795_10439"/>
</filter>
<filter id="filter18_f_795_10439" x="14.3884" y="1.58359" width="7.42302" height="8.62969" filterUnits="userSpaceOnUse" color-interpolation-filters="sRGB">
<feFlood flood-opacity="0" result="BackgroundImageFix"/>
<feBlend mode="normal" in="SourceGraphic" in2="BackgroundImageFix" result="shape"/>
<feGaussianBlur stdDeviation="0.3" result="effect1_foregroundBlur_795_10439"/>
</filter>
<filter id="filter19_f_795_10439" x="21.6072" y="1.58359" width="7.42302" height="8.62969" filterUnits="userSpaceOnUse" color-interpolation-filters="sRGB">
<feFlood flood-opacity="0" result="BackgroundImageFix"/>
<feBlend mode="normal" in="SourceGraphic" in2="BackgroundImageFix" result="shape"/>
<feGaussianBlur stdDeviation="0.3" result="effect1_foregroundBlur_795_10439"/>
</filter>
<filter id="filter20_f_795_10439" x="28.8135" y="1.58359" width="7.42168" height="8.62969" filterUnits="userSpaceOnUse" color-interpolation-filters="sRGB">
<feFlood flood-opacity="0" result="BackgroundImageFix"/>
<feBlend mode="normal" in="SourceGraphic" in2="BackgroundImageFix" result="shape"/>
<feGaussianBlur stdDeviation="0.3" result="effect1_foregroundBlur_795_10439"/>
</filter>
<linearGradient id="paint0_linear_795_10439" x1="7.11567" y1="24.8438" x2="38.5317" y2="24.8438" gradientUnits="userSpaceOnUse">
<stop stop-color="#E4DEEC"/>
<stop offset="1" stop-color="#E7E2EF"/>
</linearGradient>
<linearGradient id="paint1_linear_795_10439" x1="28.7975" y1="24.0863" x2="33.3035" y2="25.936" gradientUnits="userSpaceOnUse">
<stop stop-color="#78C7C7"/>
<stop offset="1" stop-color="#099595"/>
</linearGradient>
<radialGradient id="paint2_radial_795_10439" cx="0" cy="0" r="1" gradientUnits="userSpaceOnUse" gradientTransform="translate(31.6471 30.6022) rotate(45.699) scale(4.6757 11.3311)">
<stop stop-color="#E4DDED"/>
<stop offset="1" stop-color="#D5CFDC"/>
</radialGradient>
<linearGradient id="paint3_linear_795_10439" x1="34.5263" y1="34.7424" x2="34.1716" y2="34.389" gradientUnits="userSpaceOnUse">
<stop offset="0.461" stop-color="#BFB8CA"/>
<stop offset="1" stop-color="#D9D3E0" stop-opacity="0"/>
</linearGradient>
<linearGradient id="paint4_linear_795_10439" x1="2.40767" y1="12.1415" x2="38.2746" y2="12.1415" gradientUnits="userSpaceOnUse">
<stop stop-color="#008080"/>
<stop offset="0.794" stop-color="#2B9696"/>
</linearGradient>
<linearGradient id="paint5_linear_795_10439" x1="22.0001" y1="4.90625" x2="22.0001" y2="7.54075" gradientUnits="userSpaceOnUse">
<stop stop-color="#008080"/>
<stop offset="1" stop-color="#008080" stop-opacity="0"/>
</linearGradient>
<radialGradient id="paint6_radial_795_10439" cx="0" cy="0" r="1" gradientUnits="userSpaceOnUse" gradientTransform="translate(29.8527 14.2741) rotate(-170.157) scale(27.3989 15.232)">
<stop offset="0.759" stop-color="#005A5A" stop-opacity="0"/>
<stop offset="1" stop-color="#005A5A"/>
</radialGradient>
<linearGradient id="paint7_linear_795_10439" x1="29.1157" y1="15.403" x2="29.1157" y2="13.3955" gradientUnits="userSpaceOnUse">
<stop stop-color="#005A5A"/>
<stop offset="1" stop-color="#008080" stop-opacity="0.1"/>
</linearGradient>
<radialGradient id="paint8_radial_795_10439" cx="0" cy="0" r="1" gradientUnits="userSpaceOnUse" gradientTransform="translate(42.4976 6.34066) rotate(152.761) scale(13.8702 19.9442)">
<stop stop-color="#2B9696"/>
<stop offset="1" stop-color="#2B9696" stop-opacity="0"/>
</radialGradient>
<radialGradient id="paint9_radial_795_10439" cx="0" cy="0" r="1" gradientUnits="userSpaceOnUse" gradientTransform="translate(13.013 5.41068) rotate(137.82) scale(6.40728 7.09604)">
<stop offset="0.525" stop-color="#C2C4CC"/>
<stop offset="0.962" stop-color="#938DA1"/>
</radialGradient>
<radialGradient id="paint10_radial_795_10439" cx="0" cy="0" r="1" gradientUnits="userSpaceOnUse" gradientTransform="translate(11.3575 6.19575) rotate(-60.5551) scale(3.32146 3.48684)">
<stop offset="0.546" stop-color="#6BB5B5"/>
<stop offset="1" stop-color="#005A5A" stop-opacity="0"/>
</radialGradient>
<radialGradient id="paint11_radial_795_10439" cx="0" cy="0" r="1" gradientUnits="userSpaceOnUse" gradientTransform="translate(20.1795 5.41057) rotate(137.82) scale(6.40728 7.09604)">
<stop offset="0.525" stop-color="#C2C4CC"/>
<stop offset="0.962" stop-color="#938DA1"/>
</radialGradient>
<radialGradient id="paint12_radial_795_10439" cx="0" cy="0" r="1" gradientUnits="userSpaceOnUse" gradientTransform="translate(18.524 6.19713) rotate(-60.5551) scale(3.32146 3.48684)">
<stop offset="0.546" stop-color="#005A5A"/>
<stop offset="1" stop-color="#005A5A" stop-opacity="0"/>
</radialGradient>
<radialGradient id="paint13_radial_795_10439" cx="0" cy="0" r="1" gradientUnits="userSpaceOnUse" gradientTransform="translate(27.3979 5.40966) rotate(137.82) scale(6.40728 7.09604)">
<stop offset="0.525" stop-color="#C2C4CC"/>
<stop offset="0.962" stop-color="#938DA1"/>
</radialGradient>
<radialGradient id="paint14_radial_795_10439" cx="0" cy="0" r="1" gradientUnits="userSpaceOnUse" gradientTransform="translate(25.7428 6.19713) rotate(-60.5551) scale(3.32146 3.48684)">
<stop offset="0.546" stop-color="#005A5A"/>
<stop offset="1" stop-color="#005A5A" stop-opacity="0"/>
</radialGradient>
<radialGradient id="paint15_radial_795_10439" cx="0" cy="0" r="1" gradientUnits="userSpaceOnUse" gradientTransform="translate(34.6025 5.40859) rotate(137.82) scale(6.40728 7.09604)">
<stop offset="0.525" stop-color="#C2C4CC"/>
<stop offset="0.962" stop-color="#938DA1"/>
</radialGradient>
<radialGradient id="paint16_radial_795_10439" cx="0" cy="0" r="1" gradientUnits="userSpaceOnUse" gradientTransform="translate(32.9492 6.19713) rotate(-60.5546) scale(3.32146 3.48683)">
<stop offset="0.546" stop-color="#005A5A"/>
<stop offset="1" stop-color="#005A5A" stop-opacity="0"/>
</radialGradient>
</defs>
</svg>
