<svg width="64" height="64" viewBox="0 0 64 64" fill="none" xmlns="http://www.w3.org/2000/svg">
<path d="M16.4642 24.2969L21.3577 36.5311L40.9321 40.2012L36.0386 31.6373L16.4642 24.2969Z" fill="#C85473"/>
<mask id="mask0_1781_12389" style="mask-type:luminance" maskUnits="userSpaceOnUse" x="31" y="18" width="21" height="35">
<path d="M31.1309 18.1719H51.9299V52.4213H31.1309V18.1719Z" fill="white"/>
</mask>
<g mask="url(#mask0_1781_12389)">
<path d="M31.1451 18.1777L43.379 52.4333L51.9429 41.4225L38.4855 18.1777H31.1451Z" fill="#EB8DA6"/>
</g>
<path d="M35.9383 31.5987L32.9374 30.4746L19.8201 32.6851L20.9003 35.3876L38.5136 38.812L35.9383 31.5987Z" fill="#700247"/>
<path d="M38.4855 18.1797H31.1451L40.0293 20.8442L38.4855 18.1797Z" fill="#700247"/>
<mask id="mask1_1781_12389" style="mask-type:luminance" maskUnits="userSpaceOnUse" x="37" y="36" width="15" height="6">
<path d="M37.5309 36.1094H51.93V41.4822H37.5309V36.1094Z" fill="white"/>
</mask>
<g mask="url(#mask1_1781_12389)">
<path d="M37.558 36.1367L38.5136 38.8136L51.9429 41.4256L37.558 36.1367Z" fill="#700247"/>
</g>
<mask id="mask2_1781_12389" style="mask-type:luminance" maskUnits="userSpaceOnUse" x="7" y="32" width="45" height="21">
<path d="M7.90033 32.791H51.93V52.4231H7.90033V32.791Z" fill="white"/>
</mask>
<g mask="url(#mask2_1781_12389)">
<path d="M7.90033 32.8613L25.0281 52.436H43.379L51.9429 41.4252L7.90033 32.8613Z" fill="#EB8DA6"/>
</g>
<mask id="mask3_1781_12389" style="mask-type:luminance" maskUnits="userSpaceOnUse" x="38" y="8" width="14" height="11">
<path d="M38.479 8.39258H51.9299V18.2518H38.479V8.39258Z" fill="white"/>
</mask>
<g mask="url(#mask3_1781_12389)">
<path d="M38.4855 8.39258V18.1796H51.9429L38.4855 8.39258Z" fill="#EB8DA6"/>
</g>
<mask id="mask4_1781_12389" style="mask-type:luminance" maskUnits="userSpaceOnUse" x="24" y="41" width="28" height="12">
<path d="M24.9679 41.4023H51.9299V52.4221H24.9679V41.4023Z" fill="white"/>
</mask>
<g mask="url(#mask4_1781_12389)">
<path d="M25.0281 52.4346L51.9429 41.4238L43.379 52.4346H25.0281Z" fill="#C85473"/>
</g>
<mask id="mask5_1781_12389" style="mask-type:luminance" maskUnits="userSpaceOnUse" x="31" y="8" width="8" height="11">
<path d="M31.1309 8.39258H38.558V18.2518H31.1309V8.39258Z" fill="white"/>
</mask>
<g mask="url(#mask5_1781_12389)">
<path d="M38.4855 8.39258L31.1451 18.1796H38.4855V8.39258Z" fill="#C85473"/>
</g>
</svg>
