<svg width="32" height="32" viewBox="0 0 32 32" fill="none" xmlns="http://www.w3.org/2000/svg">
<rect width="32" height="32" rx="16" fill="white"/>
<path d="M15.5772 12.3751H17.6525C18.6369 12.3751 19.5284 12.7744 20.1738 13.4194C20.8279 14.0739 21.2293 14.9814 21.2179 15.9823C21.1955 17.9427 19.5675 19.5062 17.6069 19.5062H12.2847C12.2042 19.5062 12.1246 19.522 12.0502 19.5527C11.9758 19.5834 11.9083 19.6285 11.8514 19.6854C11.7944 19.7423 11.7493 19.8098 11.7185 19.8842C11.6877 19.9585 11.6719 20.0382 11.6719 20.1187C11.6719 20.4568 11.9461 20.7311 12.2847 20.7311H13.4416C14.4274 20.7311 15.2266 21.5302 15.2266 22.5161V25.5744C15.2266 25.8094 15.036 26 14.8009 26H14.2681C14.033 26 13.8425 25.8094 13.8425 25.5744V22.5571C13.8425 22.2688 13.6088 22.0351 13.3205 22.0351H10.4908C9.56919 22.0351 8.7352 21.6616 8.13122 21.058C7.52765 20.454 7.15408 19.62 7.15408 18.6984C7.15408 16.8555 8.64794 15.3616 10.4908 15.3616H10.03C8.462 15.3616 7.15959 14.106 7.15412 12.538C7.15139 11.7515 7.46918 11.0391 7.98409 10.5242C8.49679 10.0115 9.20531 9.69423 9.98783 9.69423H14.6234V6.62167C14.6234 6.27834 14.9018 6 15.2451 6H17.0309C17.3742 6 17.6525 6.27834 17.6525 6.62167V10.2998C17.6525 11.4458 16.7233 12.3751 15.5772 12.3751Z" fill="#E79098"/>
<path d="M20.6364 24.0284C22.9613 24.0284 24.8459 22.1437 24.8459 19.8189C24.8459 17.494 22.9613 15.6094 20.6364 15.6094C18.3116 15.6094 16.4269 17.494 16.4269 19.8189C16.4269 22.1437 18.3116 24.0284 20.6364 24.0284Z" fill="#E3F6FC"/>
<path d="M18.1148 19.8189C18.1148 17.7831 19.5603 16.0847 21.4807 15.6939C21.2028 15.6375 20.9199 15.6092 20.6364 15.6094C18.3115 15.6094 16.4268 17.494 16.4268 19.8189C16.4268 22.1438 18.3115 24.0285 20.6364 24.0285C20.9254 24.0285 21.2072 23.9996 21.4799 23.9441C19.5595 23.5532 18.1148 21.8547 18.1148 19.8189Z" fill="#CFEFFC"/>
<path d="M20.9845 18.6432C21.407 18.6432 21.7495 18.3007 21.7495 17.8782C21.7495 17.4558 21.407 17.1133 20.9845 17.1133C20.5621 17.1133 20.2196 17.4558 20.2196 17.8782C20.2196 18.3007 20.5621 18.6432 20.9845 18.6432Z" fill="#E79098"/>
<path d="M19.4121 21.6089C20.0397 21.6089 20.5486 21.1001 20.5486 20.4724C20.5486 19.8448 20.0397 19.3359 19.4121 19.3359C18.7844 19.3359 18.2756 19.8448 18.2756 20.4724C18.2756 21.1001 18.7844 21.6089 19.4121 21.6089Z" fill="#E79098"/>
<path d="M22.3727 19.8159C22.3052 19.8158 22.2397 19.7932 22.1867 19.7515C22.1336 19.7099 22.0961 19.6516 22.08 19.5861L21.9828 19.1899C21.9638 19.1122 21.9763 19.0301 22.0178 18.9617C22.0592 18.8933 22.1262 18.8442 22.2038 18.8251C22.2423 18.8157 22.2823 18.8139 22.3214 18.8199C22.3606 18.8259 22.3982 18.8395 22.432 18.8601C22.4659 18.8806 22.4954 18.9076 22.5188 18.9395C22.5423 18.9714 22.5592 19.0077 22.5686 19.0462L22.6658 19.4424C22.6767 19.4868 22.6774 19.5332 22.6677 19.5779C22.6581 19.6226 22.6384 19.6645 22.6101 19.7005C22.5819 19.7365 22.5458 19.7656 22.5047 19.7856C22.4635 19.8056 22.4184 19.816 22.3727 19.8159Z" fill="#FBE88C"/>
<path d="M22.3176 21.2455C22.2403 21.2455 22.166 21.2158 22.1099 21.1626C22.0538 21.1094 22.0204 21.0367 22.0164 20.9595C22.0124 20.8823 22.0382 20.8065 22.0884 20.7478C22.1387 20.6891 22.2096 20.6519 22.2864 20.6439L22.7835 20.5916C22.9494 20.5735 23.0975 20.6944 23.1149 20.8601C23.1191 20.8994 23.1154 20.9393 23.1042 20.9772C23.0929 21.0152 23.0743 21.0506 23.0494 21.0814C23.0244 21.1122 22.9937 21.1377 22.9589 21.1566C22.9241 21.1755 22.8859 21.1874 22.8465 21.1915L22.3495 21.2438C22.3389 21.2449 22.3283 21.2455 22.3176 21.2455Z" fill="#C5E97D"/>
<path d="M20.9847 22.6519C20.9232 22.6519 20.8632 22.6332 20.8127 22.5981C20.7621 22.5631 20.7235 22.5135 20.702 22.4559C20.6805 22.3983 20.6771 22.3355 20.6922 22.2759C20.7074 22.2164 20.7404 22.1628 20.7868 22.1226L21.1263 21.8278C21.1867 21.7753 21.2655 21.749 21.3453 21.7547C21.4251 21.7603 21.4993 21.7974 21.5518 21.8578C21.5778 21.8877 21.5976 21.9224 21.6101 21.96C21.6227 21.9975 21.6277 22.0372 21.6249 22.0767C21.6221 22.1162 21.6116 22.1548 21.5939 22.1902C21.5762 22.2256 21.5517 22.2572 21.5218 22.2832L21.1823 22.578C21.1275 22.6257 21.0573 22.6519 20.9847 22.6519Z" fill="#FBE88C"/>
<path d="M18.6956 18.1789C18.6669 18.1789 18.6383 18.1748 18.6108 18.1667C18.5728 18.1556 18.5374 18.1371 18.5065 18.1123C18.4756 18.0874 18.4499 18.0568 18.4309 18.022C18.4119 17.9873 18.3999 17.9492 18.3957 17.9098C18.3914 17.8704 18.3949 17.8306 18.406 17.7926L18.5001 17.4709C18.5112 17.4328 18.5297 17.3974 18.5545 17.3665C18.5793 17.3356 18.61 17.3099 18.6447 17.2909C18.6795 17.2719 18.7176 17.2599 18.757 17.2557C18.7964 17.2514 18.8362 17.2549 18.8742 17.2661C18.9123 17.2772 18.9477 17.2957 18.9786 17.3205C19.0094 17.3453 19.0351 17.376 19.0541 17.4107C19.0731 17.4455 19.0851 17.4836 19.0894 17.523C19.0937 17.5624 19.0902 17.6022 19.079 17.6402L18.9849 17.9619C18.9666 18.0245 18.9285 18.0794 18.8764 18.1186C18.8242 18.1577 18.7608 18.1789 18.6956 18.1789Z" fill="#C5E97D"/>
<path d="M17.0282 6H15.2477C14.9029 6 14.6234 6.27951 14.6234 6.62432V9.69158C14.6234 9.69228 14.6231 9.69296 14.6226 9.69345C14.6221 9.69395 14.6215 9.69423 14.6207 9.69423H9.98782C9.2053 9.69423 8.49678 10.0115 7.98408 10.5242C7.48948 11.0188 7.17675 11.6956 7.15528 12.4453C7.10936 14.0493 8.42942 15.3616 10.0341 15.3616H10.4909C9.63476 15.3616 8.85788 15.6804 8.26729 16.2104C7.58442 16.8214 7.15411 17.7099 7.15411 18.6984C7.15411 19.62 7.52768 20.454 8.13125 21.058C8.73523 21.6616 9.56922 22.0351 10.4909 22.0351H13.3179C13.6076 22.0351 13.8425 22.27 13.8425 22.5597V25.5717C13.8425 25.8082 14.0343 26 14.2708 26H14.7983C15.0348 26 15.2266 25.8083 15.2266 25.5717V25.243C15.2266 25.2423 15.2263 25.2416 15.2258 25.2411C15.2253 25.2406 15.2246 25.2403 15.2239 25.2403H14.9023C14.6657 25.2403 14.474 25.0486 14.474 24.812V22.268C14.474 21.7198 14.0296 21.2755 13.4815 21.2755C13.4815 21.2755 10.9681 21.2727 10.8921 21.2674C10.6383 21.2495 10.3998 21.1398 10.2197 20.9601L10.2176 20.958C9.61405 20.354 9.24049 19.52 9.24049 18.5983C9.24049 17.0109 10.3491 15.6831 11.8343 15.3453C11.8572 15.34 11.8736 15.3199 11.8736 15.2964C11.8736 15.2705 11.8538 15.2491 11.828 15.2466C10.3919 15.1038 9.2663 14.2397 9.26124 12.7689C9.26112 12.7292 9.26646 12.2961 9.30213 12.1753C9.45337 11.6626 9.80586 11.2275 10.2868 10.9944C10.6467 10.8195 11.0415 10.7288 11.4416 10.7291H14.8092C15.4302 10.7291 15.9337 10.2257 15.9337 9.60464V7.61888C15.9337 7.27133 16.2034 6.98957 16.5361 6.98957H17.6498C17.6505 6.98957 17.6512 6.98929 17.6517 6.98879C17.6522 6.98829 17.6525 6.98762 17.6525 6.98691V6.62432C17.6525 6.27951 17.373 6 17.0282 6Z" fill="#E17983"/>
</svg>
