<svg width="32" height="32" viewBox="0 0 32 32" fill="none" xmlns="http://www.w3.org/2000/svg">
<rect width="32" height="32" rx="16" fill="white"/>
<g clip-path="url(#clip0_1277_44013)">
<path d="M20.5846 18.6541L17.0598 19.5086C16.0689 19.7661 14.9883 19.2854 14.5448 18.2424C14.3212 17.7168 14.3636 17.1253 14.5769 16.5955L14.4888 11.591C14.1876 9.58028 12.1905 8.83622 12.1905 8.83622C11.733 8.67892 11.2538 8.59361 10.7701 8.58333C8.01906 8.52434 6.16129 10.4834 6.16129 13.4208C6.16129 19.2816 11.594 25.0337 17.129 25.0337C18.7193 25.0337 20.3748 24.4442 21.4451 22.9805C21.4451 22.9805 21.9124 22.3192 21.87 21.5005L20.5846 18.6541Z" fill="#FFB3B7"/>
<path d="M24.7582 18.0143C24.114 17.553 23.2814 17.442 22.5144 17.6409L17.7405 18.8787C16.7495 19.1362 15.6689 18.6555 15.2254 17.6125C15.002 17.0869 15.0443 16.4954 15.2575 15.9655C15.6143 15.0792 15.6828 13.9655 15.5131 13.0259C15.4508 12.6809 15.5474 12.3266 15.7955 12.0789L15.8034 12.071C16.2237 11.6515 16.5571 11.1533 16.7845 10.6048C17.012 10.0563 17.1291 9.46841 17.1291 8.87465V6.32258C17.1291 6.28022 17.1207 6.23827 17.1045 6.19913C17.0883 6.16 17.0645 6.12444 17.0346 6.09448C17.0046 6.06453 16.9691 6.04077 16.9299 6.02455C16.8908 6.00834 16.8489 6 16.8065 6H16.1613C16.0758 6 15.9937 6.03399 15.9332 6.09448C15.8727 6.15498 15.8388 6.23703 15.8388 6.32258V8.87473C15.8388 9.51285 15.6547 10.1227 15.3118 10.6435C15.1392 10.9057 14.7592 10.8967 14.5786 10.64C13.9916 9.80562 13.1541 9.1668 12.1906 8.83484C13.8035 9.57672 13.9794 12.8086 12.9986 15.9965L13.1737 19.5346L16.6418 21.1111L18.8925 20.5856C20.574 20.1389 22.1323 21.2152 21.4452 22.9791C22.0248 22.1892 22.4293 21.1504 22.5644 19.8043C22.5841 19.6077 22.6587 19.4196 22.7868 19.2691C23.1182 18.8798 23.7126 18.8036 24.1005 19.1368L24.104 19.1398C24.2435 19.2599 24.3553 19.4086 24.432 19.5759C24.5087 19.7431 24.5484 19.9249 24.5484 20.1089V25.6775C24.5484 25.7198 24.5567 25.7618 24.573 25.8009C24.5892 25.84 24.6129 25.8756 24.6429 25.9056C24.6728 25.9355 24.7084 25.9593 24.7475 25.9755C24.7867 25.9917 24.8286 26 24.871 26H25.5161C25.6017 26 25.6837 25.9661 25.7442 25.9056C25.8047 25.8451 25.8387 25.763 25.8387 25.6775V20.1142C25.8387 19.2768 25.4434 18.505 24.7582 18.0143Z" fill="#FF9BA6"/>
<path d="M14.2433 13.256C14.1257 12.546 13.9155 11.9286 13.5232 11.3824C12.8652 10.4667 11.8346 9.89553 10.7423 9.87205C9.80847 9.85236 9.00956 10.137 8.43796 10.6964C7.79265 11.328 7.45163 12.2696 7.45163 13.4195C7.45163 14.5829 7.70452 15.7514 8.15163 16.8623L9.7885 18.084C10.8001 17.9564 11.8129 17.8372 12.8252 17.7151L13.7866 16.7908C13.7954 16.3576 13.8867 15.9154 14.0604 15.4838C14.3098 14.8648 14.3687 14.0132 14.2433 13.256Z" fill="#FB4455"/>
<path d="M20.3457 20.3811C20.3135 20.3473 20.1939 20.2404 20.0216 20.2863L18.2262 20.7517C16.2593 21.2622 14.2485 20.2602 13.4443 18.3693C13.0332 17.4025 13.0394 16.292 13.4619 15.2423C13.6616 14.7468 13.7171 14.026 13.6071 13.3607C13.4956 12.6896 13.3025 12.1803 12.9995 11.758C12.4542 10.9995 11.6052 10.5353 10.7285 10.5164C10.703 10.5159 10.6775 10.5156 10.6523 10.5156C9.92707 10.5156 9.31879 10.7366 8.8891 11.157C8.37089 11.6643 8.09683 12.4465 8.09683 13.4188C8.09683 18.2123 12.6552 23.0963 17.1291 23.0963C17.5512 23.0963 19.694 22.9794 20.4176 20.6722C20.4616 20.531 20.3917 20.4293 20.3457 20.3811Z" fill="#FF5F7A"/>
<path d="M19.8597 19.6625L18.0643 20.128C16.409 20.5579 14.7161 19.7127 14.0378 18.1177C13.861 17.7017 13.7773 17.2507 13.7865 16.791C13.5772 16.6604 13.4223 16.4895 13.1671 16.3945L10.5881 17.6412L8.69265 16.5009C8.50632 16.6171 8.36129 16.7648 8.15152 16.8625C9.66937 20.6339 13.4261 23.7422 17.1289 23.7422C18.0772 23.7422 20.2566 23.3411 21.0331 20.8661C21.2573 20.1516 20.5846 19.4746 19.8597 19.6625Z" fill="#FFD05B"/>
<path d="M20.3457 20.3832C20.3135 20.3495 20.1939 20.2426 20.0215 20.2884L18.2262 20.7539C16.2592 21.2644 14.2485 20.2624 13.4442 18.3715C13.1821 17.7549 13.0901 17.0763 13.1672 16.3959C13.0482 16.3511 12.9113 16.3242 12.7333 16.3242C11.8845 16.3242 11.8845 16.9694 11.0358 16.9694C10.1884 16.9694 10.1884 16.3242 9.341 16.3242C9.04674 16.3242 8.85428 16.4012 8.69272 16.5023C10.0706 20.1028 13.626 23.0984 17.129 23.0984C17.5511 23.0984 19.6939 22.9816 20.4175 20.6744C20.4616 20.5332 20.3917 20.4314 20.3457 20.3832Z" fill="#FFE077"/>
<path d="M12.2903 19.2255C12.2479 19.2256 12.206 19.2173 12.1668 19.2011C12.1277 19.1848 12.0921 19.161 12.0622 19.131C12.0323 19.1011 12.0085 19.0655 11.9923 19.0264C11.9761 18.9873 11.9677 18.9453 11.9677 18.903C11.9677 18.8606 11.9761 18.8187 11.9923 18.7795C12.0085 18.7404 12.0323 18.7048 12.0622 18.6749L12.3848 18.3523C12.4147 18.3224 12.4503 18.2986 12.4894 18.2824C12.5286 18.2662 12.5705 18.2578 12.6129 18.2578C12.6552 18.2578 12.6972 18.2662 12.7363 18.2824C12.7754 18.2986 12.811 18.3224 12.8409 18.3523C12.8709 18.3823 12.8947 18.4178 12.9109 18.457C12.9271 18.4961 12.9355 18.538 12.9355 18.5804C12.9355 18.6228 12.9271 18.6647 12.9109 18.7038C12.8947 18.743 12.8709 18.7785 12.8409 18.8085L12.5184 19.131C12.4884 19.161 12.4529 19.1848 12.4138 19.201C12.3746 19.2173 12.3327 19.2256 12.2903 19.2255Z" fill="#FFF4D6"/>
<path d="M16.8064 22.4482C16.7641 22.4482 16.7221 22.4399 16.683 22.4237C16.6438 22.4075 16.6083 22.3837 16.5783 22.3537L16.2558 22.0311C16.2258 22.0012 16.202 21.9656 16.1858 21.9265C16.1696 21.8874 16.1613 21.8454 16.1613 21.8031C16.1613 21.7607 16.1696 21.7187 16.1858 21.6796C16.202 21.6405 16.2258 21.6049 16.2558 21.575C16.2857 21.545 16.3213 21.5213 16.3604 21.505C16.3995 21.4888 16.4415 21.4805 16.4838 21.4805C16.5262 21.4805 16.5681 21.4888 16.6073 21.505C16.6464 21.5213 16.682 21.545 16.7119 21.575L17.0345 21.8976C17.0644 21.9275 17.0882 21.9631 17.1044 22.0022C17.1206 22.0413 17.129 22.0833 17.129 22.1256C17.129 22.168 17.1206 22.2099 17.1044 22.2491C17.0882 22.2882 17.0644 22.3238 17.0345 22.3537C17.0046 22.3837 16.969 22.4075 16.9299 22.4237C16.8908 22.4399 16.8488 22.4482 16.8064 22.4482Z" fill="#FFD05B"/>
<path d="M10.6774 18.5787C10.8556 18.5787 11 18.4343 11 18.2562C11 18.078 10.8556 17.9336 10.6774 17.9336C10.4993 17.9336 10.3548 18.078 10.3548 18.2562C10.3548 18.4343 10.4993 18.5787 10.6774 18.5787Z" fill="#FFD05B"/>
<path d="M13.258 20.8366C13.4362 20.8366 13.5806 20.6921 13.5806 20.514C13.5806 20.3358 13.4362 20.1914 13.258 20.1914C13.0799 20.1914 12.9355 20.3358 12.9355 20.514C12.9355 20.6921 13.0799 20.8366 13.258 20.8366Z" fill="#FFD05B"/>
<path d="M18.742 21.8053C18.9201 21.8053 19.0645 21.6609 19.0645 21.4827C19.0645 21.3046 18.9201 21.1602 18.742 21.1602C18.5638 21.1602 18.4194 21.3046 18.4194 21.4827C18.4194 21.6609 18.5638 21.8053 18.742 21.8053Z" fill="#FFF4D6"/>
<path d="M14.871 22.1295C15.0491 22.1295 15.1936 21.9851 15.1936 21.807C15.1936 21.6288 15.0491 21.4844 14.871 21.4844C14.6928 21.4844 14.5484 21.6288 14.5484 21.807C14.5484 21.9851 14.6928 22.1295 14.871 22.1295Z" fill="#FFF4D6"/>
</g>
<defs>
<clipPath id="clip0_1277_44013">
<rect width="20" height="20" fill="white" transform="translate(6 6)"/>
</clipPath>
</defs>
</svg>
