<svg width="32" height="32" viewBox="0 0 32 32" fill="none" xmlns="http://www.w3.org/2000/svg">
<rect width="32" height="32" rx="16" fill="white"/>
<path d="M20.7793 11.8646C19.5536 10.1693 17.3314 9.52809 15.3924 10.307C15.1118 10.4197 14.8007 10.4454 14.5118 10.356C14.2512 10.276 14.0231 10.1145 13.8611 9.89526C13.6991 9.67602 13.6116 9.41059 13.6116 9.13797V6.19531C13.6116 6.14351 13.591 6.09383 13.5544 6.05721C13.5177 6.02058 13.468 6 13.4162 6H11.0515C10.9997 6 10.95 6.02058 10.9134 6.05721C10.8767 6.09383 10.8562 6.14351 10.8562 6.19531V12.2687C10.8562 13.4659 11.2662 14.6269 12.0181 15.5584L12.8391 16.5755C13.5403 17.4443 13.6316 18.6565 13.0672 19.6209C12.7646 20.1379 12.2084 20.4536 11.6093 20.4536H9.7257C8.61512 20.4536 7.71484 21.3539 7.71484 22.4645V25.8047C7.71484 25.8565 7.73542 25.9062 7.77205 25.9428C7.80868 25.9794 7.85836 26 7.91016 26H9.92074C9.97254 26 10.0222 25.9794 10.0588 25.9428C10.0955 25.9062 10.1161 25.8565 10.1161 25.8047V23.4457C10.1161 23.1052 10.3311 22.7941 10.6568 22.6948C10.7829 22.656 10.917 22.6503 11.0459 22.6785C11.1749 22.7066 11.2944 22.7675 11.393 22.8553L12.0595 23.4493C13.0445 24.3272 14.4465 24.5604 15.6627 24.0485C18.2745 22.9491 20.36 20.8824 21.483 18.2807C22.3952 16.1674 22.1279 13.7299 20.7793 11.8646Z" fill="#FFA78F"/>
<path d="M19.9063 17.8872C18.91 20.1951 17.3747 21.6702 15.0579 22.6453C14.7943 22.7563 13.8394 22.987 13.608 22.903C13.3532 22.8105 13.1184 22.6702 12.9161 22.4897C12.7596 22.3521 12.6847 22.1657 12.6847 21.9798C12.6847 21.7408 12.809 21.503 13.0445 21.3734C13.5141 21.1155 13.9141 20.732 14.1897 20.2539C14.6187 19.5114 14.7954 18.6607 14.6964 17.8048C14.6082 17.0442 14.2927 16.3279 13.8119 15.7323L13.0203 14.7516C12.9653 14.6835 12.9126 14.6134 12.8623 14.5417C12.7616 14.3981 12.8188 14.2002 12.9782 14.127C13.2951 13.9816 13.4702 13.75 14.0272 13.75C14.8388 13.75 14.8388 14.2421 15.6509 14.2421C16.463 14.2421 16.463 13.75 17.275 13.75C18.0871 13.75 18.0871 14.2421 18.8992 14.2421C19.1724 14.2421 19.3537 14.1864 19.5049 14.1125C19.6015 14.0653 20.1166 13.963 20.2082 14.2879C20.5316 15.4339 20.3893 16.7682 19.9063 17.8872Z" fill="#A2E62E"/>
<path d="M20.528 14.2589C20.4363 13.934 20.0643 13.7824 19.774 13.9547C19.6858 14.007 19.6013 14.0616 19.5047 14.1088C19.565 14.1441 19.6174 14.1914 19.6588 14.2477C19.7002 14.304 19.7296 14.3682 19.7452 14.4363C20.0163 15.5958 19.8924 16.836 19.3593 17.932C18.2594 20.1923 16.3548 21.9162 13.9964 22.7854C13.8642 22.8343 13.7275 22.8699 13.5883 22.8918C13.8275 22.9814 14.0808 23.0273 14.3362 23.0273C14.6203 23.0275 14.9016 22.9706 15.1632 22.8599C17.4799 21.8848 19.3044 20.0764 20.3008 17.7685C20.7838 16.6495 20.8513 15.4049 20.528 14.2589Z" fill="#80D261"/>
<path d="M9.89413 22.6746C9.52815 22.7451 9.27097 23.0775 9.27097 23.4502V26H9.92073C9.97253 26 10.0222 25.9794 10.0588 25.9428C10.0955 25.9062 10.116 25.8565 10.116 25.8047V23.4277C10.116 23.1607 10.2527 22.9257 10.4598 22.7884C10.2958 22.6802 10.0943 22.6361 9.89413 22.6746ZM13.475 10.2795C13.6274 10.3549 13.7933 10.3991 13.963 10.4094C14.1327 10.4197 14.3028 10.3959 14.4632 10.3395C14.4143 10.3224 14.3665 10.3024 14.3201 10.2795C14.1073 10.1742 13.9283 10.0115 13.8031 9.80977C13.6779 9.60807 13.6116 9.3754 13.6116 9.13801V6.19531C13.6116 6.16966 13.6065 6.14427 13.5967 6.12057C13.5869 6.09687 13.5725 6.07534 13.5543 6.05721C13.5362 6.03907 13.5147 6.02468 13.491 6.01487C13.4673 6.00505 13.4419 6 13.4162 6H12.7665V9.13797C12.7665 9.37536 12.8328 9.60803 12.958 9.80973C13.0832 10.0114 13.2623 10.1741 13.475 10.2795ZM20.7792 11.8646C19.8155 10.5314 18.2354 9.85035 16.6614 9.99887C17.938 10.1169 19.1435 10.7709 19.9342 11.8646C21.2827 13.73 21.5501 16.1674 20.6379 18.2807C19.5149 20.8825 17.4293 22.9492 14.8175 24.0486C14.5285 24.1702 14.2241 24.2514 13.9129 24.29C14.5072 24.3643 15.1106 24.281 15.6626 24.0486C18.2744 22.9492 20.3599 20.8825 21.4829 18.2807C22.3952 16.1674 22.1278 13.7299 20.7792 11.8646Z" fill="#F89580"/>
<path d="M18.4611 18.0793C18.4215 18.0793 18.3822 18.0715 18.3456 18.0563C18.309 18.0411 18.2757 18.0189 18.2477 17.9909C18.2197 17.9628 18.1975 17.9296 18.1823 17.893C18.1671 17.8563 18.1593 17.8171 18.1593 17.7775V17.5762C18.1593 17.5366 18.1671 17.4974 18.1823 17.4608C18.1975 17.4241 18.2197 17.3909 18.2477 17.3628C18.2758 17.3348 18.309 17.3126 18.3456 17.2974C18.3823 17.2823 18.4215 17.2745 18.4611 17.2745C18.5008 17.2745 18.54 17.2823 18.5766 17.2974C18.6132 17.3126 18.6465 17.3348 18.6745 17.3628C18.7026 17.3909 18.7248 17.4241 18.74 17.4608C18.7551 17.4974 18.7629 17.5366 18.7629 17.5762V17.7775C18.7629 17.8171 18.7551 17.8563 18.74 17.893C18.7248 17.9296 18.7026 17.9628 18.6745 17.9909C18.6465 18.0189 18.6132 18.0411 18.5766 18.0563C18.54 18.0715 18.5008 18.0793 18.4611 18.0793ZM16.3143 17.7775C16.2747 17.7775 16.2354 17.7697 16.1988 17.7545C16.1622 17.7393 16.1289 17.7171 16.1009 17.6891C16.0729 17.6611 16.0506 17.6278 16.0355 17.5912C16.0203 17.5545 16.0125 17.5153 16.0125 17.4757V17.2745C16.0125 17.1944 16.0443 17.1176 16.1009 17.061C16.1575 17.0045 16.2343 16.9727 16.3143 16.9727C16.3943 16.9727 16.4711 17.0045 16.5277 17.061C16.5843 17.1176 16.6161 17.1944 16.6161 17.2745V17.4757C16.6161 17.5153 16.6083 17.5545 16.5931 17.5912C16.578 17.6278 16.5557 17.6611 16.5277 17.6891C16.4997 17.7171 16.4664 17.7393 16.4298 17.7545C16.3932 17.7697 16.3539 17.7775 16.3143 17.7775ZM17.2756 19.5964C17.2359 19.5964 17.1967 19.5886 17.1601 19.5735C17.1235 19.5583 17.0902 19.5361 17.0622 19.5081C17.0341 19.48 17.0119 19.4468 16.9967 19.4101C16.9816 19.3735 16.9738 19.3343 16.9738 19.2946V19.0934C16.9738 19.0134 17.0056 18.9366 17.0622 18.88C17.1188 18.8234 17.1955 18.7916 17.2756 18.7916C17.3556 18.7916 17.4324 18.8234 17.489 18.88C17.5456 18.9366 17.5774 19.0134 17.5774 19.0934V19.2946C17.5774 19.3343 17.5696 19.3735 17.5544 19.4101C17.5393 19.4468 17.517 19.48 17.489 19.5081C17.461 19.5361 17.4277 19.5583 17.3911 19.5735C17.3545 19.5886 17.3152 19.5964 17.2756 19.5964ZM15.5773 21.1934C15.4973 21.1934 15.4205 21.1616 15.3639 21.105C15.3073 21.0484 15.2755 20.9716 15.2755 20.8916V20.6904C15.2755 20.6103 15.3073 20.5335 15.3639 20.4769C15.4205 20.4204 15.4973 20.3886 15.5773 20.3886C15.6574 20.3886 15.7341 20.4204 15.7907 20.4769C15.8473 20.5335 15.8791 20.6103 15.8791 20.6904V20.8916C15.8791 20.9716 15.8473 21.0484 15.7907 21.105C15.7341 21.1616 15.6574 21.1934 15.5773 21.1934Z" fill="#80D261"/>
<path d="M10.6427 18.0978C10.6005 18.0978 10.5588 18.0889 10.5203 18.0717C10.4472 18.0392 10.3899 17.9789 10.3612 17.9042C10.3324 17.8295 10.3345 17.7465 10.367 17.6733L10.8132 16.6691C10.8169 16.661 10.8189 16.6522 10.8189 16.6433C10.8189 16.6344 10.817 16.6256 10.8134 16.6175C10.8099 16.6093 10.8047 16.602 10.7982 16.596C10.7916 16.59 10.7838 16.5854 10.7754 16.5826L9.76929 16.241C9.61247 16.1881 9.48094 16.0788 9.40036 15.9342C9.31977 15.7897 9.29592 15.6203 9.33343 15.4592L9.63761 14.1376C9.64113 14.1227 9.63916 14.1071 9.63209 14.0936C9.62502 14.08 9.6133 14.0695 9.5991 14.0639L8.99472 13.8226C8.66496 13.691 8.49601 13.3244 8.61007 12.9882L9.07539 11.6164C9.1011 11.5406 9.15587 11.4781 9.22766 11.4427C9.2632 11.4252 9.30185 11.4148 9.3414 11.4122C9.38095 11.4096 9.42063 11.4148 9.45816 11.4276C9.49569 11.4403 9.53035 11.4603 9.56016 11.4864C9.58996 11.5125 9.61433 11.5443 9.63187 11.5798C9.64941 11.6154 9.65977 11.654 9.66237 11.6936C9.66497 11.7331 9.65976 11.7728 9.64703 11.8103L9.18164 13.1821C9.1707 13.2143 9.18691 13.2494 9.21847 13.2619L9.82281 13.5033C10.1307 13.6261 10.3002 13.9498 10.2258 14.2729L9.92164 15.5945C9.91804 15.6099 9.92032 15.6261 9.92803 15.64C9.93574 15.6538 9.94834 15.6643 9.96336 15.6694L10.9694 16.011C11.1466 16.0712 11.2912 16.204 11.3663 16.3754C11.4413 16.5468 11.4408 16.7431 11.3648 16.9141L10.9186 17.9184C10.8949 17.9718 10.8562 18.0172 10.8073 18.049C10.7583 18.0808 10.7011 18.0978 10.6427 18.0978ZM22.1661 20.4202C22.1037 20.4202 22.0428 20.4009 21.9918 20.3649C21.9409 20.3289 21.9023 20.2779 21.8815 20.2191C21.8607 20.1603 21.8586 20.0964 21.8755 20.0363C21.8925 19.9763 21.9277 19.9229 21.9762 19.8837C22.3926 19.5473 22.7975 19.1969 23.1901 18.8331C23.0739 18.5417 22.9471 18.2547 22.8098 17.9727C22.7071 17.7615 22.7421 17.5107 22.8988 17.3337C23.1679 17.0299 23.4273 16.7178 23.6767 16.3977C23.474 16.0848 23.2611 15.7785 23.0384 15.4794C22.8953 15.2871 22.8832 15.0317 23.0074 14.8289C23.1866 14.5367 23.3557 14.2384 23.5144 13.9346C23.2159 13.6107 22.9075 13.296 22.5897 12.991C22.4238 12.8317 22.3668 12.5899 22.4443 12.3751C22.5662 12.0373 22.6699 11.6989 22.7526 11.3691C22.7931 11.2074 22.9573 11.1092 23.1187 11.1498C23.1964 11.1693 23.2631 11.2188 23.3042 11.2874C23.3454 11.3561 23.3575 11.4383 23.3381 11.5159C23.2517 11.8603 23.1439 12.2131 23.0175 12.5649C23.345 12.8795 23.6627 13.2042 23.9702 13.5384C24.1346 13.7174 24.1693 13.9835 24.0564 14.2004C23.8919 14.5162 23.7166 14.8263 23.5308 15.13C23.7614 15.4402 23.9818 15.7578 24.1916 16.0824C24.3259 16.2904 24.3147 16.5605 24.1638 16.7546C23.9061 17.0859 23.638 17.4091 23.3598 17.7235C23.503 18.0186 23.6353 18.3188 23.7564 18.6236C23.8457 18.8488 23.7893 19.1002 23.6128 19.2642C23.2064 19.6415 22.7871 20.0046 22.3557 20.3531C22.3021 20.3966 22.2351 20.4203 22.1661 20.4202Z" fill="#EE6161"/>
</svg>
