<svg width="32" height="32" viewBox="0 0 32 32" fill="none" xmlns="http://www.w3.org/2000/svg">
<rect width="32" height="32" rx="16" fill="white"/>
<path fill-rule="evenodd" clip-rule="evenodd" d="M13.8199 13.5195H10.0208C8.65353 13.5195 7.5354 14.6352 7.5354 15.9994C7.5354 17.3637 8.65466 18.4793 10.0208 18.4793H13.8199H13.8118C12.4479 18.4839 11.3344 19.5983 11.3344 20.9604C11.3344 22.3235 12.4537 23.4402 13.8199 23.4402H14.6647C14.9619 23.4402 15.2054 23.6832 15.2054 23.9786V24.9482C15.2054 25.5266 15.6788 26 16.2595 26C16.8391 26 17.3136 25.5266 17.3136 24.9482V23.4402C17.3136 22.0759 16.1943 20.9604 14.8281 20.9604H18.7312C20.0974 20.9604 21.2166 19.8436 21.2166 18.4793C21.2166 17.1184 20.102 16.004 18.7381 15.9994H21.9792C23.3454 15.9994 24.4646 14.8838 24.4646 13.5195C24.4646 12.1553 23.3454 11.0396 21.9792 11.0396H18.7312C20.0974 11.0396 21.2167 9.92402 21.2167 8.55977V7.05172C21.2167 6.4734 20.7422 6 20.1626 6C19.583 6 19.1085 6.4734 19.1085 7.05172V8.0202C19.1085 8.3168 18.865 8.55977 18.5678 8.55977H13.8199C12.4537 8.55977 11.3344 9.67539 11.3344 11.0396C11.3344 12.4039 12.4525 13.5195 13.8199 13.5195Z" fill="#F47C7C"/>
<path d="M18.8501 18.7821H13.4357C13.3557 18.7821 13.2789 18.7504 13.2223 18.6938C13.1657 18.6372 13.1339 18.5604 13.1339 18.4804C13.1339 18.4003 13.1657 18.3235 13.2223 18.2669C13.2789 18.2104 13.3557 18.1786 13.4357 18.1786H18.8501C18.9302 18.1786 19.0069 18.2104 19.0635 18.2669C19.1201 18.3235 19.1519 18.4003 19.1519 18.4804C19.1519 18.5604 19.1201 18.6372 19.0635 18.6938C19.0069 18.7504 18.9302 18.7821 18.8501 18.7821ZM21.1904 13.8223H13.8198C13.7398 13.8223 13.663 13.7905 13.6064 13.7339C13.5498 13.6774 13.518 13.6006 13.518 13.5205C13.518 13.4405 13.5498 13.3637 13.6064 13.3071C13.663 13.2505 13.7398 13.2188 13.8198 13.2188H21.1904C21.3571 13.2188 21.4922 13.3539 21.4922 13.5205C21.4922 13.6872 21.3571 13.8223 21.1904 13.8223Z" fill="#E94444"/>
<path fill-rule="evenodd" clip-rule="evenodd" d="M20.3547 11.0396C21.722 11.0396 22.8401 12.1553 22.8401 13.5195C22.8401 14.8815 21.7243 15.9971 20.3604 15.9994H21.9793C23.3454 15.9994 24.4647 14.8838 24.4647 13.5195C24.4647 12.1553 23.3455 11.0396 21.9793 11.0396H20.3547ZM17.1147 15.9994C18.4786 16.004 19.5921 17.1184 19.5921 18.4793C19.5921 19.8436 18.4728 20.9604 17.1067 20.9604H18.7312C20.0974 20.9604 21.2167 19.8436 21.2167 18.4793C21.2167 17.1184 20.102 16.004 18.7381 15.9994H18.7312H17.1147ZM20.1614 7.05172V8.55973C20.1614 9.92402 19.0422 11.0396 17.676 11.0396H18.7312C20.0974 11.0396 21.2167 9.92399 21.2167 8.55973V7.05172C21.2167 6.4734 20.7422 6 20.1626 6C19.9771 5.99969 19.7949 6.0485 19.6344 6.14145C19.9488 6.32395 20.1614 6.66391 20.1614 7.05172Z" fill="#EE6161"/>
<path d="M18.7313 11.3419H14.6716C14.6319 11.3419 14.5927 11.3341 14.5561 11.3189C14.5195 11.3037 14.4862 11.2815 14.4582 11.2535C14.4301 11.2255 14.4079 11.1922 14.3927 11.1556C14.3776 11.119 14.3698 11.0797 14.3698 11.0401C14.3698 11.0004 14.3776 10.9612 14.3927 10.9246C14.4079 10.888 14.4301 10.8547 14.4582 10.8267C14.4862 10.7987 14.5195 10.7764 14.5561 10.7613C14.5927 10.7461 14.6319 10.7383 14.6716 10.7383H18.7313C18.7709 10.7383 18.8101 10.7461 18.8467 10.7613C18.8834 10.7764 18.9166 10.7987 18.9447 10.8267C18.9727 10.8547 18.9949 10.888 19.0101 10.9246C19.0252 10.9612 19.0331 11.0004 19.0331 11.0401C19.0331 11.0797 19.0252 11.119 19.0101 11.1556C18.9949 11.1922 18.9727 11.2255 18.9447 11.2535C18.9166 11.2815 18.8834 11.3037 18.8467 11.3189C18.8101 11.3341 18.7709 11.3419 18.7313 11.3419ZM19.4766 16.3016H10.7079C10.6683 16.3016 10.629 16.2938 10.5924 16.2787C10.5558 16.2635 10.5225 16.2413 10.4945 16.2133C10.4665 16.1852 10.4442 16.152 10.4291 16.1153C10.4139 16.0787 10.4061 16.0395 10.4061 15.9998C10.4061 15.9602 10.4139 15.921 10.4291 15.8843C10.4442 15.8477 10.4665 15.8145 10.4945 15.7864C10.5225 15.7584 10.5558 15.7362 10.5924 15.721C10.629 15.7058 10.6683 15.698 10.7079 15.698H19.4766C19.5162 15.698 19.5555 15.7058 19.5921 15.721C19.6287 15.7362 19.662 15.7584 19.69 15.7864C19.718 15.8145 19.7403 15.8477 19.7554 15.8843C19.7706 15.921 19.7784 15.9602 19.7784 15.9998C19.7784 16.0395 19.7706 16.0787 19.7554 16.1153C19.7403 16.152 19.718 16.1852 19.69 16.2133C19.662 16.2413 19.6287 16.2635 19.5921 16.2787C19.5555 16.2938 19.5162 16.3016 19.4766 16.3016Z" fill="#E94444"/>
<path fill-rule="evenodd" clip-rule="evenodd" d="M13.6689 20.9609C15.0362 20.9609 16.1543 22.0766 16.1543 23.4408V24.9488C16.1543 25.3139 15.9657 25.6378 15.6799 25.826C15.8468 25.9355 16.0457 26.0005 16.2595 26.0005C16.8391 26.0005 17.3136 25.5271 17.3136 24.9488V23.4408C17.3136 22.0765 16.1943 20.9609 14.8281 20.9609H13.6689Z" fill="#EE6161"/>
<path d="M14.8282 21.2637H13.6175C13.5778 21.2638 13.5386 21.256 13.502 21.2408C13.4654 21.2256 13.4321 21.2034 13.4041 21.1754C13.376 21.1473 13.3538 21.1141 13.3386 21.0775C13.3235 21.0408 13.3157 21.0016 13.3157 20.962C13.3157 20.9223 13.3235 20.8831 13.3386 20.8465C13.3538 20.8098 13.376 20.7766 13.4041 20.7485C13.4321 20.7205 13.4654 20.6983 13.502 20.6831C13.5386 20.668 13.5778 20.6602 13.6175 20.6602H14.8282C14.8678 20.6602 14.9071 20.668 14.9437 20.6831C14.9803 20.6983 15.0136 20.7205 15.0416 20.7485C15.0696 20.7766 15.0918 20.8098 15.107 20.8465C15.1222 20.8831 15.13 20.9223 15.13 20.962C15.13 21.0016 15.1222 21.0408 15.107 21.0775C15.0918 21.1141 15.0696 21.1473 15.0416 21.1754C15.0136 21.2034 14.9803 21.2256 14.9437 21.2408C14.9071 21.256 14.8678 21.2638 14.8282 21.2637Z" fill="#E94444"/>
</svg>
