<svg width="32" height="32" viewBox="0 0 32 32" fill="none" xmlns="http://www.w3.org/2000/svg">
<rect width="32" height="32" rx="16" fill="white"/>
<path d="M13.9775 6.78902C14.1262 7.55121 14.3975 8.36289 14.723 9.20773C14.9473 9.78996 15.5552 10.1245 16.1688 10.0112C17.7718 9.71523 20.1769 9.64891 21.6156 11.4196C25.8092 16.5809 21.3854 25.7069 15.9482 25.7069C14.5768 25.7069 13.3446 25.0782 12.5085 24.4712C11.9335 24.0538 11.1237 24.1487 10.705 24.7227C10.5821 24.8911 10.2042 25.5404 10.1111 25.7408L9.66737 26H9.20882C8.75105 26 8.44526 25.5384 8.61026 25.1114C9.30386 23.3166 10.7361 22.4602 12.0285 21.688C13.5975 20.7504 14.9525 19.9406 15.3601 17.5541C15.6632 15.7798 14.7265 13.531 13.8205 11.3563C13.1843 9.82895 12.5327 8.26211 12.2576 6.75387C12.1859 6.36047 12.4958 6 12.8957 6H13.4314L13.9775 6.78902Z" fill="#FFE09C"/>
<path d="M21.377 17.4589C21.0834 17.6469 20.9198 17.9341 20.4411 17.9341C19.6992 17.9341 19.6992 17.289 18.9573 17.289C18.216 17.289 18.216 17.9341 17.4748 17.9341C17.2814 17.9341 17.1265 17.8915 17.0059 17.8348C16.8224 17.7485 16.6083 17.872 16.566 18.0703C16.0983 20.2593 14.8971 21.5447 12.8599 22.7518C12.8467 22.7596 12.8341 22.768 12.8222 22.7767L13.0201 23.19C13.1903 23.2653 13.3521 23.3584 13.5026 23.4678C14.3578 24.0881 15.1106 24.4499 15.9821 24.4499C17.8671 24.4499 19.6547 22.9305 20.886 20.3435C21.2644 19.5484 21.5803 18.6062 21.7557 17.6111L21.377 17.4589ZM18.316 15.8391C18.2597 15.8392 18.2044 15.8246 18.1555 15.7966C18.1067 15.7687 18.066 15.7285 18.0375 15.68L16.5632 13.1737C16.4731 13.0203 16.5241 12.8224 16.6778 12.7321C16.8312 12.6416 17.0291 12.6933 17.1195 12.8467L18.5938 15.353C18.6839 15.5064 18.6328 15.7042 18.4791 15.7946C18.4297 15.8238 18.3734 15.8392 18.316 15.8391Z" fill="#98DB7C"/>
<path d="M19.3996 14.6307C19.3573 14.6308 19.3153 14.6224 19.2762 14.6062C19.237 14.59 19.2014 14.5663 19.1715 14.5363C19.1415 14.5064 19.1178 14.4708 19.1016 14.4316C19.0854 14.3925 19.077 14.3505 19.0771 14.3082V12.264C19.0771 12.0857 19.2214 11.9414 19.3996 11.9414C19.5779 11.9414 19.7222 12.0857 19.7222 12.264V14.3082C19.7222 14.3505 19.7139 14.3925 19.6977 14.4316C19.6815 14.4708 19.6577 14.5064 19.6278 14.5363C19.5978 14.5663 19.5623 14.59 19.5231 14.6062C19.484 14.6224 19.442 14.6308 19.3996 14.6307Z" fill="#B8EB7C"/>
<path d="M20.0448 16.8462C20.0045 16.8462 19.9645 16.8386 19.927 16.8238C19.761 16.759 19.6794 16.5715 19.7446 16.4058L20.6796 14.0236C20.7444 13.8573 20.9322 13.776 21.0976 13.8412C21.2636 13.9061 21.3452 14.0936 21.28 14.2593L20.345 16.6415C20.3214 16.7018 20.2801 16.7537 20.2266 16.7902C20.173 16.8268 20.1096 16.8463 20.0448 16.8462ZM17.9493 12.3799C17.805 12.3799 17.6733 12.2822 17.6368 12.1357L17.4739 11.4868C17.4636 11.4457 17.4615 11.403 17.4677 11.3611C17.4739 11.3192 17.4882 11.2789 17.51 11.2426C17.5318 11.2063 17.5605 11.1746 17.5945 11.1493C17.6285 11.1241 17.6672 11.1058 17.7083 11.0956C17.8791 11.0527 18.0564 11.157 18.0996 11.3299L18.2624 11.9789C18.2727 12.02 18.2749 12.0627 18.2687 12.1046C18.2625 12.1465 18.2481 12.1868 18.2263 12.2231C18.2046 12.2594 18.1759 12.2911 18.1418 12.3163C18.1078 12.3416 18.0691 12.3599 18.028 12.3701C18.0023 12.3766 17.9758 12.3799 17.9493 12.3799Z" fill="#98DB7C"/>
<path d="M17.3627 16.7645C17.3182 16.7645 17.2742 16.7554 17.2334 16.7375C17.1926 16.7197 17.156 16.6936 17.1258 16.6608L16.7053 16.2053C16.5843 16.0743 16.5925 15.8701 16.7232 15.7495C16.854 15.6288 17.0587 15.637 17.1791 15.7675L17.5996 16.223C17.7206 16.354 17.7124 16.5582 17.5816 16.6788C17.5221 16.734 17.4439 16.7646 17.3627 16.7645Z" fill="#B8EB7C"/>
<path d="M21.7979 11.1613C20.3593 9.39059 17.9757 9.44418 16.3727 9.74016C15.7591 9.85344 15.1511 9.51891 14.9268 8.93668C14.6014 8.09184 14.3301 7.2802 14.1814 6.51797C14.1225 6.21602 13.8587 6 13.551 6H13.4314C13.5699 7.05766 13.9909 8.30234 14.3253 9.16941C14.6595 10.0376 15.5674 10.5448 16.4888 10.3747C18.0113 10.0937 20.0813 10.072 21.2973 11.568C22.6837 13.2748 23.6221 16.6978 21.7037 20.7284C20.3661 23.5387 18.1238 25.3548 15.9914 25.3548C14.9808 25.3548 13.9775 24.9985 13.0094 24.296C12.1384 23.6631 10.9259 23.8402 10.3069 24.6888C10.0991 24.9732 9.84543 25.523 9.66742 26H9.91742C10.17 26 10.3962 25.85 10.5026 25.621C10.5926 25.4271 10.7014 25.2426 10.8275 25.0699C11.2461 24.4959 12.056 24.401 12.6309 24.8184C13.4671 25.4254 14.6201 26 15.9915 26C21.4286 26 25.9915 16.3226 21.7979 11.1613Z" fill="#FFD18D"/>
<path d="M21.991 17.7203C22.0321 17.4871 21.8037 17.2819 21.5806 17.361C21.509 17.3865 21.4407 17.4203 21.377 17.4617C21.1902 18.6274 20.8241 19.5756 20.5387 20.1755C19.4311 22.5025 17.6037 24.066 15.9914 24.066C15.259 24.066 14.5108 23.7928 13.7683 23.2542C13.4792 23.0442 13.1573 22.8846 12.8222 22.7796C12.568 22.9671 12.6074 23.3662 12.9068 23.4983C13.077 23.5736 13.2387 23.6667 13.3893 23.7762C14.2444 24.3964 15.12 24.7111 15.9915 24.7111C17.8764 24.7111 19.89 23.0396 21.1213 20.4527C21.4998 19.6575 21.8156 18.7153 21.991 17.7203Z" fill="#77CC7D"/>
<path d="M17.6567 20.2936C17.8349 20.2936 17.9793 20.1492 17.9793 19.971C17.9793 19.7929 17.8349 19.6484 17.6567 19.6484C17.4786 19.6484 17.3341 19.7929 17.3341 19.971C17.3341 20.1492 17.4786 20.2936 17.6567 20.2936Z" fill="#B8EB7C"/>
<path d="M18.747 19.1647C18.9252 19.1647 19.0696 19.0203 19.0696 18.8421C19.0696 18.664 18.9252 18.5195 18.747 18.5195C18.5689 18.5195 18.4245 18.664 18.4245 18.8421C18.4245 19.0203 18.5689 19.1647 18.747 19.1647Z" fill="#77CC7D"/>
<path d="M19.528 20.3092C19.7061 20.3092 19.8505 20.1648 19.8505 19.9866C19.8505 19.8085 19.7061 19.6641 19.528 19.6641C19.3498 19.6641 19.2054 19.8085 19.2054 19.9866C19.2054 20.1648 19.3498 20.3092 19.528 20.3092Z" fill="#77CC7D"/>
</svg>
