<svg width="20" height="32" viewBox="0 0 20 32" fill="none" xmlns="http://www.w3.org/2000/svg">
<path d="M17.0352 13.6747C17.2272 13.6297 17.4112 13.5247 17.5672 13.3597C17.8152 13.0997 17.9672 12.7397 17.9952 12.3347C18.0232 11.9347 17.9272 11.5447 17.7232 11.2347C17.5272 10.9347 17.2552 10.7597 16.9712 10.7097C17.0872 10.6497 17.2032 10.5697 17.3032 10.4647C17.5512 10.2047 17.7032 9.84466 17.7312 9.43966C17.7592 9.03966 17.6632 8.64967 17.4592 8.33967C17.0712 7.74967 16.3991 7.63464 15.8951 8.03965C15.9671 7.86966 16.0111 7.67966 16.0271 7.47964C16.0551 7.07965 15.9591 6.68465 15.7551 6.37465C15.371 5.79463 14.707 5.67463 14.2109 6.06462C14.307 5.86464 14.371 5.64463 14.391 5.40464C14.419 5.00461 14.323 4.61462 14.1189 4.30462C13.6949 3.6646 12.9429 3.5746 12.4348 4.10461C12.3788 4.16461 12.3348 4.22461 12.2908 4.28961C12.2988 4.23461 12.3108 4.17962 12.3148 4.11962C12.3428 3.7196 12.2468 3.32961 12.0428 3.01961C11.6228 2.37959 10.8667 2.28959 10.3586 2.81959C10.2227 2.96461 10.1146 3.14961 10.0426 3.3496C10.0186 3.05461 9.92663 2.77461 9.77462 2.5446C9.35059 1.9046 8.59453 1.81458 8.09048 2.34959C7.84247 2.60459 7.69045 2.96959 7.66245 3.36962C7.65844 3.4196 7.66245 3.46462 7.66245 3.5096C7.62646 3.42961 7.58644 3.3546 7.53844 3.27962C7.11841 2.6396 6.36235 2.55461 5.85433 3.08461C5.61029 3.34459 5.45828 3.70461 5.4303 4.10961C5.41428 4.3146 5.43428 4.51462 5.48228 4.70963C5.04626 4.20462 4.37421 4.1596 3.91017 4.64963C3.66215 4.90961 3.51014 5.26963 3.48213 5.67463C3.45415 6.07463 3.55015 6.46465 3.75417 6.77465C3.76616 6.79464 3.78215 6.80965 3.79817 6.82964C3.79016 6.82464 3.78215 6.81963 3.77817 6.81963C3.14612 6.57464 2.47808 7.02465 2.28204 7.81964C2.18604 8.20966 2.21805 8.61967 2.36605 8.97465C2.50608 9.30968 2.73408 9.55468 3.0141 9.67968C2.8061 9.71966 2.60609 9.82467 2.43007 10.0047C2.18604 10.2647 2.03402 10.6247 2.00604 11.0297C1.97403 11.4297 2.07004 11.8197 2.27406 12.1297C2.51006 12.4897 2.8541 12.6747 3.19812 12.6747C3.32614 12.6747 3.45415 12.6447 3.57816 12.5947C3.40214 12.8347 3.29012 13.1397 3.26612 13.4697C3.23812 13.8697 3.33412 14.2597 3.53814 14.5697C3.77417 14.9297 4.11418 15.1147 4.4582 15.1147C4.67424 15.1147 4.89024 15.0397 5.08625 14.8897C5.01025 15.0647 4.95824 15.2597 4.94225 15.4697C4.91424 15.8697 5.01025 16.2647 5.21427 16.5747C5.4503 16.9298 5.79432 17.1148 6.13433 17.1148C6.40637 17.1148 6.67439 17.0047 6.8984 16.7697C6.98239 16.6848 7.05042 16.5797 7.11041 16.4697C7.11041 16.4797 7.10643 16.4847 7.10643 16.4948C7.07842 16.8947 7.17442 17.2847 7.37844 17.5947C7.61445 17.9548 7.95449 18.1398 8.29851 18.1398C8.55851 18.1398 8.82255 18.0298 9.04256 17.8098C8.98655 17.9648 8.94655 18.1248 8.93454 18.2948C8.90656 18.6998 9.00256 19.0898 9.20658 19.3998C9.44259 19.7598 9.7826 19.9448 10.1266 19.9448C10.3027 19.9448 10.4747 19.8898 10.6387 19.7948C10.5107 20.0098 10.4307 20.2648 10.4107 20.5398C10.3826 20.9398 10.4787 21.3298 10.6827 21.6448C10.9187 21.9998 11.2587 22.1848 11.6028 22.1848C11.8708 22.1848 12.1428 22.0748 12.3668 21.8398C12.6108 21.5798 12.7628 21.2198 12.7948 20.8148C12.8029 20.6848 12.7948 20.5598 12.7788 20.4348C12.7828 20.4448 12.7868 20.4548 12.7908 20.4598C13.0269 20.8198 13.3709 21.0048 13.7149 21.0048C13.9829 21.0048 14.255 20.8898 14.475 20.6598C14.723 20.3998 14.875 20.0398 14.903 19.6348C14.923 19.3548 14.879 19.0798 14.783 18.8348C14.987 19.0148 15.227 19.1098 15.471 19.1098C15.7391 19.1098 16.0111 18.9998 16.2351 18.7648C16.4791 18.5047 16.6311 18.1448 16.6591 17.7448C16.6911 17.3398 16.5951 16.9497 16.3911 16.6397C16.3631 16.5997 16.3351 16.5697 16.3071 16.5347C16.4231 16.5797 16.5431 16.6147 16.6631 16.6147C16.9312 16.6147 17.2032 16.4998 17.4272 16.2647C17.6712 16.0097 17.8232 15.6447 17.8512 15.2397C17.8832 14.8397 17.7872 14.4497 17.5832 14.1397C17.4312 13.9147 17.2432 13.7597 17.0352 13.6747ZM15.8991 13.9447C15.6511 14.1997 15.499 14.5647 15.471 14.9647C15.439 15.3647 15.539 15.7597 15.7431 16.0697C15.7631 16.1047 15.7951 16.1297 15.8191 16.1597C15.447 16.0197 15.027 16.1047 14.707 16.4397C14.459 16.6997 14.307 17.0647 14.279 17.4648C14.2589 17.7448 14.303 18.0198 14.399 18.2698C13.9669 17.8847 13.3749 17.8898 12.9469 18.3348C12.7028 18.5947 12.5508 18.9548 12.5228 19.3598C12.5108 19.4898 12.5188 19.6148 12.5348 19.7398C12.5308 19.7298 12.5268 19.7198 12.5228 19.7148C12.1668 19.1698 11.5708 19.0298 11.0907 19.3198C11.2147 19.0998 11.2987 18.8498 11.3187 18.5748C11.3467 18.1698 11.2507 17.7798 11.0467 17.4697C10.6307 16.8398 9.89062 16.7498 9.38257 17.2547C9.43858 17.1047 9.4786 16.9397 9.49059 16.7697C9.5186 16.3697 9.42259 15.9797 9.21857 15.6697C8.79855 15.0297 8.04248 14.9397 7.53444 15.4697C7.45045 15.5597 7.38242 15.6597 7.32243 15.7697C7.32243 15.7597 7.32644 15.7547 7.32644 15.7447C7.35444 15.3447 7.25842 14.9547 7.05442 14.6447C6.67038 14.0547 6.00234 13.9397 5.50631 14.3347C5.58229 14.1547 5.63429 13.9547 5.65031 13.7447C5.67832 13.3447 5.58229 12.9547 5.37829 12.6447C5.05427 12.1497 4.53023 11.9897 4.07419 12.1797C4.25021 11.9397 4.3622 11.6397 4.3862 11.3047C4.41421 10.9047 4.3182 10.5097 4.11418 10.1997C3.97819 9.98968 3.79817 9.84466 3.60616 9.75466C4.04218 9.66466 4.42622 9.27468 4.56222 8.70466C4.65822 8.31965 4.63024 7.90964 4.47823 7.55466C4.43022 7.43466 4.36621 7.32965 4.2942 7.23465C4.41821 7.28463 4.54622 7.31964 4.67424 7.31964C4.94225 7.31964 5.21427 7.20465 5.43828 6.97463C5.6823 6.71465 5.83431 6.34963 5.86632 5.94963C5.87833 5.73964 5.85831 5.53462 5.81031 5.34461C6.03432 5.60963 6.32636 5.75462 6.62238 5.75462C6.89039 5.75462 7.16241 5.63963 7.38242 5.40962C7.63047 5.14963 7.78245 4.78461 7.81046 4.38461C7.81446 4.33462 7.81046 4.28961 7.81046 4.24463C7.84647 4.32461 7.88647 4.39963 7.93447 4.47461C8.1705 4.83463 8.51051 5.01963 8.85456 5.01963C9.12257 5.01963 9.39459 4.90464 9.6186 4.66962C9.75462 4.52463 9.85861 4.3446 9.93462 4.14462C9.95862 4.43463 10.0506 4.71463 10.2027 4.94962C10.4387 5.30463 10.7827 5.48963 11.1227 5.48963C11.3947 5.48963 11.6668 5.37962 11.8868 5.14463C11.9428 5.08963 11.9868 5.02463 12.0348 4.95963C12.0228 5.01462 12.0108 5.06961 12.0068 5.12961C11.9788 5.52964 12.0748 5.91963 12.2788 6.23464C12.5148 6.58965 12.8549 6.77465 13.1989 6.77465C13.4149 6.77465 13.6309 6.69964 13.8229 6.54964C13.7269 6.74966 13.6629 6.96465 13.6429 7.20465C13.6149 7.60464 13.7109 7.99466 13.9149 8.30466C14.151 8.66465 14.491 8.84965 14.835 8.84965C15.059 8.84965 15.283 8.76966 15.4791 8.60966C15.4071 8.77967 15.363 8.96467 15.351 9.16466C15.319 9.56466 15.415 9.95968 15.6191 10.2697C15.8231 10.5697 16.0991 10.7447 16.3871 10.7897C16.2631 10.8497 16.1471 10.9247 16.0391 11.0347C15.7951 11.2947 15.6431 11.6597 15.6151 12.0597C15.583 12.4597 15.6791 12.8497 15.8831 13.1647C16.0351 13.3947 16.2311 13.5447 16.4431 13.6247C16.2511 13.6747 16.0591 13.7747 15.8991 13.9447ZM12.4328 24.2826C12.4328 24.2165 12.3961 24.163 12.3509 24.163H12.0104V22.9646H11.194V24.163H10.8537C10.8084 24.163 10.7718 24.2165 10.7718 24.2826V26.1979H12.4328V24.2826ZM10.379 29.8598C10.3702 29.933 10.4088 30 10.4597 30H12.7449C12.7958 30 12.8344 29.933 12.8256 29.8598L12.4794 26.9743H10.7252L10.379 29.8598Z" fill="#228B22"/>
</svg>
