<svg width="31" height="32" viewBox="0 0 31 32" fill="none" xmlns="http://www.w3.org/2000/svg">
<path d="M20.6524 15.0602C19.2558 13.0909 19.314 10.3111 19.314 10.3111V8.06445C19.314 5.26647 17.3859 2.87444 14.7887 2.19336H13.6878L11.3321 3.78318L10.0364 6.60008V12.5156L8.45502 16.6002L8.61492 17.3023C8.91094 17.4073 9.21085 17.501 9.51399 17.5832L9.7265 17.7411H16.8252L17.1307 17.584C18.7501 17.1452 19.8628 16.5029 20.4854 16.0665C20.8122 15.8373 20.8833 15.3858 20.6524 15.0602Z" fill="#7B6C79"/>
<path d="M8.84933 16.4984C10.2459 14.3125 10.1876 11.2267 10.1876 11.2267V8.7328C10.1876 5.5968 12.1533 2.92028 14.7887 2.1942C14.3103 2.06874 13.8181 2.00351 13.3236 2C10.0204 2.02412 7.33317 4.76199 7.33317 8.06528V10.312C7.33317 10.312 7.39141 13.0918 5.99486 15.061C5.76397 15.3866 5.83501 15.8382 6.16193 16.0673C6.68972 16.4373 7.57112 16.9548 8.8134 17.3712C8.67345 17.1076 8.67892 16.7651 8.84933 16.4984Z" fill="#665E68"/>
<path d="M18.5012 10.6927L19.0279 10.109V9.90617C18.9728 9.81442 18.9084 9.72862 18.8357 9.65012C18.4896 9.33649 17.9535 9.11818 17.3248 9.20776H17.3227L17.1068 9.45062V10.8453L18.5012 10.6927Z" fill="#FFCEBE"/>
<path d="M17.3193 10.6687L17.1068 10.5033V12.0085L17.3193 12.1739C18.3401 12.335 19.2384 11.5951 19.2384 10.657C19.2384 10.3834 19.1616 10.1268 19.0279 9.9043C18.7035 10.4446 18.0423 10.7828 17.3193 10.6687ZM9.32452 10.0121H8.06409C7.70889 10.0121 7.41057 10.2949 7.40887 10.6501V10.657C7.40887 11.5948 8.30652 12.3345 9.32687 12.1742L9.50111 12.0297V10.1441L9.32452 10.0121Z" fill="#FFB1A0"/>
<path d="M21.5148 19.2826L18.1192 17.9675L17.8345 18.0516L16.3227 17.4506L16.1163 17.1918L15.8322 17.0818C15.7558 17.0522 15.6902 17.0003 15.6438 16.9328C15.5974 16.8653 15.5725 16.7854 15.5723 16.7036L15.5712 15.3411L15.2382 15.0703H13.1349V24.3602H9.81093V17.7578L8.8743 18.1784L8.52796 17.9661L6.27905 18.838L5.2757 19.7981L4.88135 21.122V29.3897L5.12077 29.8615L5.31343 29.9999H5.90253L6.3251 29.5869H20.4589L20.7447 29.9999H22.9812C23.386 29.9999 23.7141 29.6717 23.7141 29.267V22.6939C23.7141 21.1379 22.7179 19.7777 21.5148 19.2826Z" fill="#FFCEBE"/>
<path d="M5.00351 29.311V21.792C5.00351 20.3621 5.7868 19.2992 6.58169 18.7206L5.13247 19.2825C4.19217 19.6695 2.93304 20.8871 2.93304 22.6939V29.267C2.93304 29.6717 3.26122 29.9999 3.66597 29.9999H5.4788C5.20115 29.894 5.00351 29.6259 5.00351 29.311ZM13.3236 15.0703H11.3102L11.0725 15.3491V16.701C11.0725 17.0123 10.7949 17.0872 10.6765 17.1331L10.5309 17.1896L10.3954 17.4952L10.3242 17.5272V25.0798H13.3236L13.3236 15.0703Z" fill="#FFB1A0"/>
<path d="M20.2335 27.7509L18.9842 24.039C18.9159 23.9582 18.8498 23.8756 18.786 23.7913C18.3485 23.2122 18.1192 22.5023 18.1192 21.7765V17.9671L16.1163 17.1914V20.8351C16.1163 22.3774 14.8659 23.6277 13.3235 23.6277C12.0246 23.6277 10.933 22.7409 10.6207 21.5397L10.4728 21.8394V27.9715H20.322V27.8588L20.2335 27.7509Z" fill="#FF76AA"/>
<path d="M10.656 21.6643C10.5728 21.3958 10.5306 21.1163 10.5309 20.8353V17.1895L8.52794 17.966V21.7767C8.52794 22.5025 8.29858 23.2124 7.86114 23.7915C7.5826 24.1603 7.26176 24.4951 6.9052 24.7891L6.32507 25.2675V27.9717H10.656V21.6643Z" fill="#FF5595"/>
<path d="M10.4729 27.8594V29.7279L10.656 30.0001H20.3221V27.8594H10.4729Z" fill="#FF94BC"/>
<path d="M10.656 27.8594H6.32507V30.0001H10.656V27.8594Z" fill="#FF76AA"/>
<path d="M6.74762 29.9999V22.2624C6.74762 22.1503 6.7031 22.0428 6.62387 21.9636C6.54463 21.8844 6.43716 21.8398 6.3251 21.8398C6.21305 21.8398 6.10558 21.8844 6.02634 21.9636C5.9471 22.0428 5.90259 22.1503 5.90259 22.2624V29.9999H6.74762ZM20.7447 29.9999V24.9108C20.7447 24.7988 20.7002 24.6913 20.6209 24.6121C20.5417 24.5328 20.4342 24.4883 20.3222 24.4883C20.2101 24.4883 20.1026 24.5328 20.0234 24.6121C19.9441 24.6913 19.8996 24.7988 19.8996 24.9108V29.9999H20.7447Z" fill="#FFB1A0"/>
<path d="M21.459 24.5176H26.1633V26.5252H21.459V24.5176Z" fill="#1CA8FF"/>
<path d="M27.9207 23.1836H27.6732L27.3698 23.3245L27.2447 23.6531V27.5123L27.4074 27.7189L27.6984 27.8597H27.9207C28.2786 27.8597 28.5686 27.5696 28.5686 27.2118V23.8314C28.5687 23.4737 28.2786 23.1836 27.9207 23.1836Z" fill="#8BCAFF"/>
<path d="M27.3433 27.2119V23.8315C27.3433 23.4856 27.6147 23.2038 27.956 23.1854C27.9442 23.1847 27.9326 23.1836 27.9207 23.1836H26.5686C26.2108 23.1836 25.9207 23.4737 25.9207 23.8315V27.2119C25.9207 27.5697 26.2108 27.8598 26.5686 27.8598H27.9207C27.9326 27.8598 27.9442 27.8586 27.956 27.858C27.6147 27.8396 27.3433 27.5579 27.3433 27.2119Z" fill="#60B9FE"/>
<path d="M20.9842 23.1836H20.7366L20.4333 23.3245L20.3082 23.6531V27.5123L20.4709 27.7189L20.7619 27.8597H20.9842C21.342 27.8597 21.6321 27.5696 21.6321 27.2118V23.8314C21.6322 23.4737 21.3421 23.1836 20.9842 23.1836Z" fill="#8BCAFF"/>
<path d="M20.4067 27.2119V23.8315C20.4067 23.4856 20.6781 23.2038 21.0194 23.1854C21.0076 23.1847 20.996 23.1836 20.9842 23.1836H19.632C19.2742 23.1836 18.9841 23.4737 18.9841 23.8315V27.2119C18.9841 27.5697 19.2742 27.8598 19.632 27.8598H20.9842C20.996 27.8598 21.0076 27.8586 21.0194 27.858C20.6781 27.8396 20.4067 27.5579 20.4067 27.2119Z" fill="#60B9FE"/>
<path d="M15.6711 7.70486C15.5423 7.4918 15.242 7.46839 15.0807 7.6581C14.6064 8.21619 13.6085 9.14369 11.9161 9.65245L11.8239 10.0139V13.2874L13.1349 15.0715L13.7922 15.6536L14.4277 15.8766C16.0925 15.4063 17.3227 13.851 17.3227 12.0422V9.20778C17.3227 9.20778 16.2887 8.72664 15.6711 7.70486Z" fill="#FFDECF"/>
<path d="M11.9161 12.0421V9.65234C11.186 9.8718 10.3274 10.0138 9.32452 10.0138V12.0809C9.32452 14.136 10.931 16.0147 13.3646 16.0229C13.7914 16.0242 14.2154 15.9547 14.6194 15.817C13.0528 15.285 11.9161 13.7808 11.9161 12.0421Z" fill="#FFCEBE"/>
</svg>
