<svg width="17" height="32" viewBox="0 0 17 32" fill="none" xmlns="http://www.w3.org/2000/svg">
<path d="M13.4177 23.2207H3.51534C3.48478 23.2207 3.45515 23.2312 3.43141 23.2504C3.40767 23.2697 3.39125 23.2965 3.38491 23.3264L2.0029 29.8393C1.99878 29.8587 1.99905 29.8788 2.00369 29.8981C2.00833 29.9174 2.01723 29.9354 2.02973 29.9509C2.04223 29.9663 2.05802 29.9788 2.07594 29.9873C2.09386 29.9959 2.11347 30.0003 2.13333 30.0003H14.7997C14.8196 30.0003 14.8392 29.9959 14.8571 29.9873C14.875 29.9788 14.8908 29.9663 14.9033 29.9509C14.9158 29.9354 14.9247 29.9174 14.9294 29.8981C14.934 29.8788 14.9343 29.8587 14.9302 29.8393L13.5481 23.3264C13.5418 23.2965 13.5254 23.2697 13.5016 23.2504C13.4779 23.2312 13.4483 23.2207 13.4177 23.2207Z" fill="#91DEB6"/>
<path d="M14.7995 29.9999H13.6592C13.6791 30 13.6987 29.9956 13.7167 29.9871C13.7347 29.9786 13.7505 29.9662 13.763 29.9507C13.7756 29.9353 13.7845 29.9172 13.7891 29.8979C13.7937 29.8785 13.7939 29.8584 13.7897 29.839L12.408 23.3259C12.4015 23.2961 12.385 23.2694 12.3613 23.2503C12.3375 23.2312 12.308 23.2207 12.2775 23.2207H13.4178C13.4808 23.2207 13.5348 23.2646 13.5483 23.3259L14.93 29.839C14.9342 29.8584 14.934 29.8785 14.9294 29.8979C14.9248 29.9172 14.9159 29.9353 14.9033 29.9507C14.8908 29.9661 14.875 29.9786 14.857 29.9871C14.8391 29.9956 14.8194 30 14.7995 29.9999Z" fill="#6ED5A1"/>
<path d="M12.6163 27.4845C12.2671 25.2131 11.908 18.0664 11.908 18.0664H5.02514C5.02514 18.0664 4.66606 25.2131 4.31683 27.4845C4.27597 27.75 4.48193 27.9889 4.75061 27.9889H12.1826C12.4512 27.9889 12.6572 27.75 12.6163 27.4845Z" fill="#FDDEB0"/>
<path d="M12.1825 27.9887H11.5709C11.5853 27.9284 11.5878 27.8659 11.5783 27.8047C11.2593 25.7293 10.933 19.946 10.8323 18.0664H11.9079C11.9079 18.0664 12.2674 25.2129 12.6162 27.4846C12.6573 27.7501 12.4514 27.9887 12.1825 27.9887Z" fill="#FCCD7F"/>
<path d="M13.4199 14.5535L11.9702 9.94134C11.8014 9.40441 11.7155 8.84488 11.7155 8.28206V5.24893C11.7155 3.45458 10.2609 2 8.4666 2V2.00005L8.46654 2C6.67225 2 5.21761 3.45458 5.21761 5.24893V8.28206C5.21761 8.84485 5.13175 9.40441 4.96299 9.94134L3.51322 14.5535C3.39215 14.9386 3.33056 15.34 3.33057 15.7437V20.3392C3.33057 20.6444 3.5526 20.9044 3.85403 20.952L5.80337 21.2603C8.03123 21.613 10.3043 21.5626 12.5143 21.1114C12.716 21.0703 12.9172 21.0273 13.1181 20.9825C13.2557 20.9517 13.3786 20.875 13.4667 20.7649C13.5548 20.6549 13.6027 20.5181 13.6026 20.3771V15.7438C13.6026 15.34 13.541 14.9386 13.4199 14.5535Z" fill="#FDF6EC"/>
<path d="M13.6024 15.744V20.3768C13.6024 20.6677 13.4015 20.9191 13.118 20.9827C12.9172 21.0273 12.7159 21.0702 12.5144 21.1115C12.4671 21.1211 12.4204 21.1307 12.3732 21.1396C12.4925 21.0243 12.565 20.8606 12.565 20.6834V15.9729C12.565 15.5622 12.5037 15.1543 12.3827 14.7628L10.933 10.0736C10.7641 9.52735 10.6782 8.9588 10.6781 8.38701V5.30291C10.6781 3.65736 9.49503 2.29307 7.94568 2.04162C8.11791 2.01376 8.29211 1.99984 8.46658 2C10.2607 2 11.7155 3.45485 11.7155 5.24893V8.28179C11.7155 8.84496 11.8016 9.40414 11.9703 9.94139L13.4201 14.5535C13.541 14.9387 13.6025 15.3402 13.6024 15.744Z" fill="#FEF1DA"/>
<path d="M10.3594 6.82472C10.3594 7.87008 9.51198 8.71757 8.46657 8.71757C7.42122 8.71757 6.57373 7.87013 6.57373 6.82472V5.397C6.57373 5.34811 6.71214 5.27094 6.71575 5.22298C6.79002 4.2455 7.62537 3.60374 8.46657 3.59379C8.46657 3.59379 9.8243 3.56431 10.2541 5.16304L10.3594 5.39705V6.82472Z" fill="#F6A96C"/>
<path d="M10.3595 5.38784H6.57361C6.57837 4.34659 7.424 3.50391 8.46651 3.50391C8.98937 3.50391 9.46237 3.71571 9.80509 4.05822C10.1457 4.3987 10.3572 4.86869 10.3595 5.38784Z" fill="#FDDEB0"/>
<path d="M10.3596 5.39776V6.82505C10.3596 7.87089 9.5118 8.71816 8.46651 8.71816C8.27072 8.71816 8.08227 8.68836 7.90503 8.63323C8.67574 8.39359 9.23497 7.67462 9.23497 6.8251V5.39776C9.23497 4.87511 9.08108 4.43498 8.79469 4.04413C8.58037 3.75155 8.46645 3.70666 8.22615 3.61434C8.40334 3.55922 8.31907 3.61434 8.51479 3.61434C9.03744 3.61434 9.41708 3.89659 9.7142 4.15411C10.0553 4.4497 10.1573 4.67337 10.184 5.15363C10.186 5.18885 10.3596 5.36194 10.3596 5.39776Z" fill="#EA9B58"/>
<path d="M10.3596 5.388H9.23558C9.23334 4.86874 9.02126 4.39898 8.68089 4.0586C8.46386 3.84146 8.19749 3.68009 7.90454 3.58829C8.08663 3.53231 8.27607 3.50386 8.46656 3.50391C8.98921 3.50391 9.46231 3.71598 9.80493 4.0586C10.1458 4.39898 10.3573 4.86874 10.3596 5.388Z" fill="#FCCD7F"/>
</svg>
