<svg width="31" height="32" viewBox="0 0 31 32" fill="none" xmlns="http://www.w3.org/2000/svg">
<path d="M12.4774 8.24421L12.6945 7.83105L12.4851 7.49937C12.16 6.48229 11.4769 5.62539 10.5834 5.0772C10.2961 4.90116 10.0588 4.65439 9.89416 4.36047C9.7295 4.06655 9.64297 3.73531 9.64286 3.39841C9.64286 3.12562 9.56312 2.86827 9.42624 2.65039H8.90933L8.51498 4.31934L6.3178 6.81698L5.99854 8.09398V28.507H12.1206L12.6945 28.1127V21.615L7.08775 11.4555L12.4774 8.24421Z" fill="#8BCAFF"/>
<path d="M6.1714 8.84537C6.1714 7.25079 7.01621 5.85412 8.2825 5.07718C8.56975 4.90114 8.80704 4.65436 8.97171 4.36044C9.13637 4.06652 9.2229 3.73528 9.22301 3.39838V3.36754C9.22301 3.10449 9.29755 2.85889 9.42629 2.65036C9.1785 2.25585 8.74275 1.99089 8.24892 2.00024C7.50588 2.01429 6.90782 2.62111 6.90782 3.36748V3.39833C6.9077 3.73523 6.82118 4.06647 6.65651 4.36039C6.49185 4.65431 6.25455 4.90108 5.9673 5.07712C4.70101 5.85407 3.8562 7.25073 3.8562 8.84531V28.1127L4.40231 28.507H6.71751L6.1714 28.1127V8.84537Z" fill="#60B9FE"/>
<path d="M13.2262 28.1133H5.17777C4.82886 28.2844 4.58807 28.6421 4.58807 29.0569C4.58807 29.4718 4.82886 29.8294 5.17777 30.0005H13.2262C13.7474 30.0005 14.1699 29.5781 14.1699 29.0569C14.1699 28.5357 13.7474 28.1133 13.2262 28.1133Z" fill="#B5DCFF"/>
<path d="M4.696 29.0569C4.696 28.5357 5.11852 28.1133 5.63963 28.1133H3.32449C2.80332 28.1133 2.38086 28.5357 2.38086 29.0569C2.38086 29.5781 2.80332 30.0005 3.32449 30.0005H5.63969C5.11852 30.0005 4.696 29.5781 4.696 29.0569Z" fill="#8BCAFF"/>
<path d="M28.4063 18.1552L20.3259 4.15954C19.9995 3.59429 19.2802 3.36871 18.706 3.679C18.3511 3.87079 18.1337 4.21363 18.0868 4.58266C18.0716 4.70254 17.9484 4.77888 17.8372 4.73163C17.503 4.58961 17.1086 4.60071 16.7699 4.79627C16.4312 4.99178 16.2243 5.32783 16.1803 5.68822C16.1658 5.80602 16.0405 5.87843 15.9313 5.832C15.5971 5.68997 15.2027 5.70107 14.864 5.89664C14.5253 6.0922 14.3185 6.4282 14.2744 6.78859C14.2599 6.90639 14.1346 6.97874 14.0254 6.93236C13.6912 6.79039 13.2968 6.8015 12.9581 6.997C12.6194 7.19251 12.4126 7.52857 12.3685 7.88901C12.3541 8.00681 12.2287 8.07916 12.1195 8.03273C11.7853 7.89076 11.3909 7.90181 11.0522 8.09737C10.7135 8.29293 10.5067 8.62899 10.4626 8.98938C10.4482 9.10718 10.3229 9.17953 10.2136 9.13315C9.87945 8.99113 9.48504 9.00223 9.14636 9.19774C8.80768 9.3933 8.60086 9.7293 8.55678 10.0897C8.55184 10.1304 8.53271 10.168 8.50275 10.1959L8.4165 10.6372L17.082 25.3564L17.2204 25.3981C17.2678 25.3672 17.3284 25.3581 17.3861 25.3826C17.7202 25.5245 18.1147 25.5135 18.4534 25.3179C18.792 25.1224 18.9989 24.7864 19.043 24.4259C19.0574 24.3081 19.1827 24.2357 19.292 24.2821C19.6261 24.4241 20.0206 24.4131 20.3593 24.2175C20.6979 24.0219 20.9048 23.6859 20.9489 23.3255C20.9632 23.2077 21.0886 23.1353 21.1978 23.1818C21.532 23.3237 21.9264 23.3126 22.2651 23.1171C22.6038 22.9216 22.8106 22.5856 22.8548 22.2252C22.8692 22.1074 22.9945 22.035 23.1038 22.0814C23.438 22.2234 23.8324 22.2123 24.171 22.0168C24.5097 21.8213 24.7166 21.4852 24.7606 21.1248C24.775 21.007 24.9004 20.9346 25.0096 20.981C25.3438 21.1231 25.7382 21.112 26.0769 20.9164C26.4156 20.7208 26.6224 20.3848 26.6665 20.0244C26.6812 19.9044 26.8089 19.8359 26.9203 19.8827C27.2633 20.0266 27.669 20.0098 28.0125 19.7983C28.5684 19.4561 28.7326 18.7205 28.4063 18.1552Z" fill="#FFE02F"/>
<path d="M17.0012 25.0533L8.64869 10.5862C8.57895 10.4647 8.52962 10.3325 8.50268 10.195C8.47639 10.2196 8.44352 10.2361 8.40806 10.2424C8.3726 10.2487 8.33607 10.2446 8.3029 10.2305C7.9599 10.0865 7.55429 10.1034 7.21068 10.315C6.65484 10.6572 6.49056 11.3928 6.81694 11.9581L14.8973 25.9537C15.2237 26.519 15.9429 26.7446 16.5172 26.4343C16.8721 26.2425 17.0896 25.8997 17.1364 25.5306C17.1408 25.4951 17.1553 25.4616 17.1782 25.4341C17.2012 25.4066 17.2315 25.3864 17.2657 25.3757C17.1605 25.2834 17.0712 25.1744 17.0012 25.0533Z" fill="#FFD500"/>
<path d="M22.9024 12.002C21.8218 10.1305 19.8938 9.0469 17.8801 8.95508C17.3798 9.0977 16.899 9.30147 16.4486 9.56178C13.4187 11.3111 12.3769 15.1992 14.1262 18.2291C14.985 19.7165 16.3593 20.7242 17.8944 21.1584C18.8407 21.1161 19.7906 20.8529 20.6662 20.3475C23.5835 18.6631 24.5867 14.9194 22.9024 12.002Z" fill="#FBC700"/>
<path d="M14.2926 18.1117C12.6083 15.1943 13.6114 11.4506 16.5287 9.76626C17.1653 9.39803 17.8634 9.14837 18.5891 9.0294C17.2467 8.81043 15.8239 9.03476 14.5569 9.76626C11.6395 11.4506 10.6365 15.1943 12.3208 18.1117C13.6264 20.3731 16.1695 21.4839 18.6058 21.0847C16.8574 20.7995 15.2454 19.762 14.2926 18.1117Z" fill="#EAB900"/>
<path d="M21.4387 12.8469C20.7034 11.5735 19.43 10.8054 18.0717 10.6621C17.8062 10.7569 17.5497 10.8754 17.3055 11.0164C15.0742 12.3046 14.3097 15.1578 15.598 17.3891C16.1755 18.3895 17.0682 19.0932 18.0779 19.4509C18.6924 19.3863 19.2863 19.193 19.8212 18.8836C21.9348 17.6633 22.6589 14.9605 21.4387 12.8469Z" fill="#FFE02F"/>
<path d="M15.7563 17.2655C14.536 15.1518 15.2602 12.4492 17.3738 11.2289C17.7543 11.0089 18.1656 10.8469 18.5939 10.7482C17.5452 10.5088 16.4071 10.6486 15.402 11.2289C13.2884 12.4492 12.5642 15.1519 13.7845 17.2655C14.7792 18.9883 16.7585 19.7875 18.6011 19.3636C17.4444 19.0996 16.3963 18.3741 15.7563 17.2655Z" fill="#FFD500"/>
</svg>
