<svg width="32" height="32" viewBox="0 0 32 32" fill="none" xmlns="http://www.w3.org/2000/svg">
<path d="M24.7117 20.1351H7.77526C6.67276 20.1351 5.77905 19.2413 5.77905 18.1389V5.91222C5.77905 4.80972 6.67281 3.91602 7.77526 3.91602H24.7117C25.8142 3.91602 26.7079 4.80977 26.7079 5.91222V18.1388C26.7079 19.2413 25.8141 20.1351 24.7117 20.1351Z" fill="#F8F6F6"/>
<path d="M26.7079 5.91277V18.1394C26.7079 19.2414 25.8144 20.1355 24.7118 20.1355H23.585C24.6876 20.1355 25.5811 19.2414 25.5811 18.1394V5.91277C25.5811 4.81016 24.6875 3.91602 23.585 3.91602H24.7118C25.8144 3.91602 26.7079 4.81016 26.7079 5.91277Z" fill="#EBEBEB"/>
<path d="M21.4592 4.48724C20.218 2.96912 18.3304 2 16.2166 2C14.1939 2 12.3785 2.8872 11.1382 4.2937C10.4207 5.10734 10.0337 6.1603 10.0337 7.24513V16.6771C10.0337 19.2645 12.1312 21.3619 14.7185 21.3619H17.7682C20.3556 21.3619 22.453 19.2645 22.453 16.6771V7.30655C22.4531 6.28094 22.1084 5.28125 21.4592 4.48724Z" fill="#5A5A5A"/>
<path d="M22.4531 7.3066V16.6773C22.4531 19.2648 20.3558 21.3622 17.7682 21.3622H16.7731C19.3602 21.3622 21.458 19.2648 21.458 16.6773V7.3066C21.4584 6.79714 21.3727 6.29129 21.2046 5.81035C21.037 5.33304 20.7888 4.88433 20.4639 4.48752C19.3216 3.08992 17.6305 2.15717 15.7198 2.0181C15.8837 2.00618 16.0495 2 16.2167 2C18.3303 2 20.2181 2.96939 21.459 4.48752C21.7834 4.88433 22.0321 5.33304 22.1998 5.81035C22.3678 6.29129 22.4535 6.79715 22.4531 7.3066Z" fill="#444444"/>
<path d="M20.5508 18.9756L19.7493 18.4449C19.046 17.9791 18.4691 17.3465 18.0699 16.6035C17.6708 15.8604 17.4619 15.0301 17.4619 14.1867V14.1758H14.9592V14.1867C14.9592 15.0301 14.7503 15.8604 14.3512 16.6035C13.9521 17.3465 13.3751 17.9792 12.6719 18.4449L11.8704 18.9756C11.3057 19.3496 10.8425 19.8575 10.522 20.4541C10.2016 21.0507 10.0338 21.7174 10.0338 22.3946V25.3531H22.3873V22.3946C22.3873 21.7174 22.2196 21.0507 21.8991 20.4541C21.5787 19.8575 21.1154 19.3496 20.5508 18.9756Z" fill="#FED2A4"/>
<path d="M22.3871 22.3948V25.3533H20.9076V22.3948C20.9076 21.0195 20.3057 20.0877 19.1591 19.3282L18.3574 18.7974C16.9292 17.8514 15.9817 15.9004 15.9817 14.187V14.1758H17.4618V14.187C17.4618 15.0305 17.6707 15.8609 18.0699 16.6039C18.469 17.3469 19.046 17.9796 19.7492 18.4453L20.5509 18.976C21.1155 19.35 21.5786 19.8579 21.899 20.4545C22.2194 21.0511 22.3871 21.7177 22.3871 22.3948Z" fill="#FFBD86"/>
<path d="M20.2569 6.5606L20.9072 8.4687V10.7178C20.9072 10.875 20.8994 11.0322 20.8836 11.1886C20.7735 12.2885 20.2812 13.2756 19.5412 14.0155C18.6974 14.8593 17.5316 15.3815 16.2434 15.3815C13.8264 15.3815 11.839 13.543 11.6032 11.1886C11.5875 11.0321 11.5796 10.875 11.5796 10.7177V8.46865L12.0267 6.56055L20.2569 6.5606Z" fill="#FED2A4"/>
<path d="M20.907 8.46876V10.718C20.907 10.8769 20.8991 11.0341 20.8833 11.1884C20.7735 12.2888 20.281 13.2758 19.5413 14.0156C18.6973 14.8596 17.5316 15.3813 16.2436 15.3813C16.0532 15.3813 15.865 15.37 15.6808 15.3475C16.7434 15.2196 17.6955 14.7345 18.4145 14.0156C19.1542 13.2758 19.6466 12.2887 19.7565 11.1884C19.7723 11.034 19.7802 10.8769 19.7802 10.718V8.30601L19.2765 6.56055H20.4033L20.907 8.46876Z" fill="#FFBD86"/>
<path d="M16.6911 6.43164H11.5797V8.46771C13.2756 8.41696 14.9615 8.06242 15.8749 7.14509C16.0226 6.99678 16.1437 6.8593 16.2435 6.73412C16.3433 6.8593 16.4644 6.99678 16.6121 7.14509C17.5254 8.06237 19.2115 8.41691 20.9074 8.46771V6.43164H16.6911Z" fill="#5A5A5A"/>
<path d="M7.43689 20.8281H25.0499V30.0003H7.43689V20.8281Z" fill="#FE76A8"/>
<path d="M23.9231 21.4121H25.0499V30.0003H23.9231V21.4121Z" fill="#FE5694"/>
<path d="M14.4684 11.3363C13.8343 11.3363 13.3184 10.8203 13.3184 10.1862V10.0938C13.3184 9.98497 13.3616 9.88065 13.4385 9.80373C13.5154 9.72681 13.6197 9.68359 13.7285 9.68359C13.8373 9.68359 13.9416 9.72681 14.0185 9.80373C14.0955 9.88065 14.1387 9.98497 14.1387 10.0938V10.1862C14.1387 10.3681 14.2866 10.5159 14.4684 10.5159C14.6503 10.5159 14.7981 10.368 14.7981 10.1862V10.0938C14.7981 9.98497 14.8414 9.88065 14.9183 9.80373C14.9952 9.72681 15.0995 9.68359 15.2083 9.68359C15.3171 9.68359 15.4214 9.72681 15.4983 9.80373C15.5752 9.88065 15.6185 9.98497 15.6185 10.0938V10.1862C15.6185 10.8204 15.1026 11.3363 14.4684 11.3363ZM18.0184 11.3363C17.3842 11.3363 16.8683 10.8203 16.8683 10.1862V10.0938C16.8683 9.98497 16.9115 9.88065 16.9884 9.80373C17.0653 9.72681 17.1697 9.68359 17.2784 9.68359C17.3872 9.68359 17.4916 9.72681 17.5685 9.80373C17.6454 9.88065 17.6886 9.98497 17.6886 10.0938V10.1862C17.6886 10.3681 17.8365 10.5159 18.0184 10.5159C18.2002 10.5159 18.3481 10.368 18.3481 10.1862V10.0938C18.3481 9.98497 18.3913 9.88065 18.4683 9.80373C18.5452 9.72681 18.6495 9.68359 18.7583 9.68359C18.8671 9.68359 18.9714 9.72681 19.0483 9.80373C19.1252 9.88065 19.1684 9.98497 19.1684 10.0938V10.1862C19.1684 10.8204 18.6525 11.3363 18.0184 11.3363Z" fill="#5A5A5A"/>
<path d="M4.07954 9.11177H2.41015C2.33628 9.11177 2.26379 9.09181 2.20032 9.05402C2.13685 9.01623 2.08476 8.962 2.04956 8.89705C2.01436 8.83211 1.99735 8.75887 2.00033 8.68506C2.00332 8.61125 2.02617 8.53961 2.0665 8.47772L3.28384 6.60938H2.46151C2.35273 6.60938 2.2484 6.56616 2.17148 6.48924C2.09456 6.41232 2.05135 6.308 2.05135 6.19922C2.05135 6.09044 2.09456 5.98611 2.17148 5.90919C2.2484 5.83228 2.35273 5.78906 2.46151 5.78906H4.04066C4.11453 5.78906 4.18703 5.80901 4.2505 5.84681C4.31397 5.8846 4.36606 5.93883 4.40126 6.00377C4.43646 6.06872 4.45346 6.14196 4.45048 6.21577C4.4475 6.28958 4.42464 6.36122 4.38432 6.42311L3.16697 8.29145H4.07954C4.18832 8.29145 4.29265 8.33467 4.36957 8.41159C4.44649 8.4885 4.4897 8.59283 4.4897 8.70161C4.4897 8.81039 4.44649 8.91471 4.36957 8.99163C4.29265 9.06855 4.18832 9.11177 4.07954 9.11177ZM5.77677 28.3572H3.24485C3.17098 28.3572 3.09848 28.3373 3.03501 28.2995C2.97154 28.2617 2.91946 28.2075 2.88426 28.1425C2.84906 28.0776 2.83205 28.0043 2.83503 27.9305C2.83801 27.8567 2.86087 27.7851 2.90119 27.7232L4.96105 24.5619H3.32267C3.21389 24.5619 3.10956 24.5186 3.03265 24.4417C2.95573 24.3648 2.91251 24.2605 2.91251 24.1517C2.91251 24.0429 2.95573 23.9386 3.03265 23.8617C3.10956 23.7848 3.21389 23.7415 3.32267 23.7415H5.71782C5.79169 23.7415 5.86419 23.7615 5.92766 23.7993C5.99113 23.8371 6.04321 23.8913 6.07841 23.9563C6.11361 24.0212 6.13062 24.0944 6.12764 24.1683C6.12466 24.2421 6.1018 24.3137 6.06147 24.3756L4.00162 27.5369H5.77677C5.88555 27.5369 5.98988 27.5801 6.0668 27.657C6.14371 27.734 6.18693 27.8383 6.18693 27.9471C6.18693 28.0558 6.14371 28.1602 6.0668 28.2371C5.98988 28.314 5.88555 28.3572 5.77677 28.3572ZM28.9707 23.4848H27.3013C27.2275 23.4848 27.155 23.4649 27.0915 23.4271C27.028 23.3893 26.9759 23.3351 26.9407 23.2701C26.9055 23.2052 26.8885 23.1319 26.8915 23.0581C26.8945 22.9843 26.9174 22.9127 26.9577 22.8508L28.175 20.9825H27.3526C27.2439 20.9825 27.1395 20.9393 27.0626 20.8624C26.9857 20.7855 26.9425 20.6811 26.9425 20.5724C26.9425 20.4636 26.9857 20.3592 27.0626 20.2823C27.1395 20.2054 27.2439 20.1622 27.3526 20.1622H28.9318C29.0057 20.1622 29.0782 20.1821 29.1416 20.2199C29.2051 20.2577 29.2572 20.312 29.2924 20.3769C29.3276 20.4419 29.3446 20.5151 29.3416 20.5889C29.3386 20.6627 29.3158 20.7343 29.2754 20.7962L28.0581 22.6645H28.9707C29.0794 22.6645 29.1838 22.7077 29.2607 22.7847C29.3376 22.8616 29.3808 22.9659 29.3808 23.0747C29.3808 23.1835 29.3376 23.2878 29.2607 23.3647C29.1838 23.4416 29.0794 23.4848 28.9707 23.4848ZM7.43692 18.6538C7.43692 17.8757 8.06769 17.2449 8.84578 17.2449C9.37652 17.2449 9.83847 17.5385 10.0787 17.972C10.319 17.5385 10.7809 17.2449 11.3116 17.2449C11.8424 17.2449 12.3043 17.5385 12.5446 17.972C12.7848 17.5385 13.2468 17.2449 13.7775 17.2449C14.3082 17.2449 14.7702 17.5385 15.0104 17.972C15.2507 17.5385 15.7127 17.2449 16.2434 17.2449C16.7741 17.2449 17.236 17.5385 17.4763 17.972C17.7165 17.5385 18.1785 17.2449 18.7092 17.2449C19.24 17.2449 19.7019 17.5385 19.9421 17.972C20.1824 17.5385 20.6443 17.2449 21.1751 17.2449C21.7058 17.2449 22.1678 17.5385 22.408 17.972C22.6482 17.5385 23.1102 17.2449 23.6409 17.2449C24.419 17.2449 25.0498 17.8757 25.0498 18.6538V21.412H7.43692V18.6538Z" fill="#FFC8DD"/>
<path d="M25.0499 18.6532V21.4111H23.923V18.6532C23.923 18.0752 23.5748 17.5782 23.0768 17.3613C23.2548 17.2837 23.4471 17.2438 23.6413 17.2441C24.4194 17.2441 25.0499 17.8752 25.0499 18.6532Z" fill="#FEA3C6"/>
</svg>
