<svg width="28" height="32" viewBox="0 0 28 32" fill="none" xmlns="http://www.w3.org/2000/svg">
<path d="M20.8788 26.5072H2.50757C2.33789 25.8119 2.12742 24.9336 2.05429 24.0284C1.98632 23.1812 2.04867 22.4367 2.24507 21.7524C2.51601 20.8068 3.03726 20.0344 3.5407 19.2867C3.80929 18.8888 4.08679 18.4772 4.31367 18.0535C4.96476 16.6132 5.1532 15.0724 4.84382 13.7119L4.96945 13.2818V7.81744C4.96945 4.60455 7.20304 2 9.95836 2H13.3835C16.1384 2 18.3724 4.60455 18.3724 7.81744V13.2708L18.5182 13.7327C18.2187 15.0664 18.4155 16.5996 19.0727 18.0536C19.3001 18.4772 19.5771 18.8888 19.8457 19.2867C20.3496 20.0345 20.8704 20.8068 21.1413 21.7524C21.5899 23.3161 21.2585 24.9724 20.8788 26.5072Z" fill="#4B6675"/>
<path d="M20.8789 26.5072H19.707C20.0867 24.9724 20.4181 23.3162 19.9695 21.7524C19.6985 20.8068 19.1778 20.0344 18.6739 19.2867C18.4053 18.8888 18.1282 18.4772 17.9009 18.0535C17.2437 16.5996 17.0468 15.0664 17.3464 13.7327L17.2006 13.2708V7.81738C17.2006 4.60455 14.9665 2 12.2117 2H13.3835C16.1384 2 18.3725 4.60455 18.3725 7.81744V13.2708L18.5182 13.7327C18.2187 15.0664 18.4156 16.5996 19.0728 18.0536C19.3001 18.4772 19.5771 18.8888 19.8457 19.2867C20.3496 20.0345 20.8704 20.8068 21.1414 21.7524C21.5899 23.3161 21.2585 24.9724 20.8789 26.5072Z" fill="#294A59"/>
<path d="M21.3847 28.4076V29.5899C21.3846 29.6986 21.3476 29.8029 21.2817 29.8797C21.2157 29.9566 21.1263 29.9998 21.0331 29.9998H2.35156C2.25835 29.9998 2.16896 29.9566 2.10304 29.8797C2.03711 29.8029 2.00005 29.6986 2 29.5899V28.4076C2 26.8028 2.97594 25.4237 4.32734 25.1187L8.59297 24.1556L9.92094 23.8561L13.4188 23.8457C13.4188 23.8457 13.4197 23.8457 13.4211 23.8462L14.7936 24.1562L19.0578 25.1187C20.4088 25.4237 21.3847 26.8028 21.3847 28.4076Z" fill="#00B1FF"/>
<path d="M21.3847 28.407V29.5893C21.3846 29.6981 21.3476 29.8023 21.2816 29.8792C21.2157 29.9561 21.1263 29.9993 21.0331 29.9993H19.4951C19.6498 29.9993 19.7755 29.8156 19.7755 29.5893V28.9536C19.7755 27.3488 18.9448 26.1556 17.9187 25.6648C16.4455 24.9602 13.512 23.8796 13.4211 23.8457L14.7936 24.1556L19.0578 25.1182C20.4087 25.4232 21.3847 26.8022 21.3847 28.407Z" fill="#008CFF"/>
<path d="M14.7936 24.1562C14.7875 24.2234 14.7795 24.2901 14.7701 24.3562C14.5283 26.0829 13.2425 27.4008 11.6933 27.4008C10.0845 27.4008 8.7603 25.9802 8.59296 24.1556L9.92093 23.8561L13.4187 23.8457C13.4187 23.8457 13.4197 23.8457 13.4211 23.8463L14.7936 24.1562Z" fill="#E4F4FF"/>
<path d="M13.4211 23.8457L14.7936 24.1556C14.7875 24.2228 14.7795 24.2895 14.7701 24.3557C14.0234 24.0682 13.46 23.8605 13.4211 23.8457Z" fill="#C0EAF7"/>
<path d="M13.206 23.1181C13.2472 23.3684 13.3185 23.6132 13.4188 23.8456C13.4188 24.4086 13.2233 24.9185 12.9064 25.2875C12.59 25.6565 12.1527 25.8849 11.6699 25.8849C11.1871 25.8849 10.7497 25.6564 10.4333 25.2875C10.1169 24.9186 9.92096 24.4086 9.92096 23.8456C10.0224 23.6116 10.0948 23.3621 10.1361 23.1044C10.1638 22.9344 10.1774 22.7617 10.1774 22.589C10.1774 22.2632 10.1286 21.9363 10.0297 21.6237L9.92096 21.2793H13.4188L13.31 21.6237C13.1591 22.1014 13.1231 22.6182 13.206 23.1181Z" fill="#FFEAC5"/>
<path d="M13.31 21.6248C13.1591 22.1025 13.1231 22.6193 13.2059 23.1192C12.7332 23.3869 12.2146 23.5262 11.6891 23.5264H11.6755C11.1414 23.5259 10.6147 23.3819 10.1361 23.1055C10.1638 22.9356 10.1773 22.7628 10.1773 22.5901C10.1773 22.2643 10.1286 21.9375 10.0297 21.6248L9.92094 21.2804H13.4188L13.31 21.6248ZM5.06961 11.6347C4.71435 12.054 4.52211 12.6096 4.52835 13.1991C4.54091 14.3906 5.3825 15.36 6.40442 15.36H6.75599V10.9844H6.40442C5.89888 10.9843 5.42483 11.2153 5.06961 11.6347ZM18.2968 11.6347C18.6521 12.054 18.8443 12.6096 18.8381 13.1991C18.8255 14.3906 17.984 15.36 16.962 15.36H16.6105V10.9844H16.962C17.4675 10.9843 17.9416 11.2153 18.2968 11.6347Z" fill="#FFC69F"/>
<path d="M16.9947 15.658C16.9468 15.0884 16.9327 13.2594 16.9619 11.4034L16.962 11.3958V11.3939C16.9619 11.34 16.9528 11.2867 16.9352 11.2369C16.9175 11.1872 16.8916 11.142 16.859 11.1039C16.8263 11.0659 16.7876 11.0357 16.7449 11.0151C16.7023 10.9945 16.6565 10.9839 16.6104 10.9839C15.891 10.9839 15.0068 8.82152 15.0068 7.06228C15.0068 6.83588 14.8494 6.65234 14.6552 6.65234C14.461 6.65234 14.3037 6.83588 14.3037 7.06228C14.3037 7.75069 14.1071 8.74491 13.1707 9.57195C12.1099 10.5089 10.3933 10.9839 8.0685 10.9839H6.75595C6.66159 10.9839 6.57122 11.0281 6.50508 11.1066C6.43894 11.1851 6.40266 11.2913 6.40444 11.4014C6.43378 13.259 6.41967 15.0905 6.3713 15.6655C6.35987 15.8221 6.35429 15.9792 6.35456 16.1364C6.35456 17.6507 7.40742 19.4117 9.48314 21.37C10.1014 21.9567 10.8805 22.2796 11.6763 22.2795H11.69C12.486 22.2795 13.2642 21.9573 13.8812 21.3724C15.9585 19.4124 17.0118 17.6508 17.0118 16.1366C17.0118 15.974 17.0062 15.8147 16.9947 15.658Z" fill="#FFEAC5"/>
<path d="M15.3382 9.11973C13.9601 10.045 11.7444 10.941 8.31476 10.9822C10.5146 10.9496 12.1477 10.4758 13.1707 9.57173C14.1073 8.74474 14.3037 7.75047 14.3037 7.06228C14.3037 6.95354 14.3408 6.84927 14.4067 6.7724C14.4727 6.69553 14.5621 6.65234 14.6553 6.65234C14.8498 6.65234 15.0068 6.83598 15.0068 7.06228C15.0068 7.73685 15.1371 8.47092 15.3382 9.11973Z" fill="#FFC69F"/>
<path d="M26 26.1437C26 28.3055 24.4756 30.0517 22.6128 29.9992C22.603 29.9986 22.5931 29.9986 22.5837 29.9981C20.8564 29.9314 19.4478 28.2935 19.3911 26.2744C19.3573 25.0893 19.7825 24.0196 20.4748 23.2874C20.9192 22.8171 21.1691 22.1466 21.1691 21.4466V11.219C21.1691 10.7273 21.3397 10.2827 21.6158 9.96062C21.8812 9.65038 22.2357 9.46572 22.6109 9.44219C22.6386 9.44055 22.6662 9.43945 22.6944 9.43945C23.5372 9.43945 24.2202 10.2363 24.2202 11.219V21.4466C24.2202 22.1537 24.4803 22.8237 24.927 23.3011C25.5866 24.006 26 25.0182 26 26.1437Z" fill="#E4F4FF"/>
<path d="M26.0001 26.1437C26.0001 28.3055 24.4757 30.0517 22.6129 29.9992C22.603 29.9986 22.5932 29.9986 22.5838 29.9981C23.8016 29.9297 24.9201 28.23 24.9201 26.1437C24.9201 25.0182 24.5226 24.006 24.0735 23.301C23.7693 22.8236 23.5921 22.1537 23.5921 21.4466V11.219C23.5921 10.2691 23.158 9.49305 22.611 9.44219C22.6386 9.44055 22.6663 9.43945 22.6944 9.43945C23.5372 9.43945 24.2202 10.2363 24.2202 11.219V21.4466C24.2202 22.1537 24.4804 22.8237 24.9271 23.3011C25.5866 24.006 26.0001 25.0182 26.0001 26.1437Z" fill="#C0EAF7"/>
<path d="M24.92 26.1305C24.92 27.5622 23.922 28.726 22.6949 28.7265H22.6944C22.4924 28.7265 22.2964 28.6948 22.1099 28.6357C21.1658 28.3355 20.4692 27.326 20.4692 26.1305C20.4692 24.9246 21.9008 23.185 22.3428 22.677V11.1445C22.3428 11.0521 22.3691 10.9668 22.4141 10.8984C22.4141 10.8984 22.4146 10.8979 22.4146 10.8973C22.4471 10.8467 22.4894 10.8056 22.538 10.7773C22.5865 10.749 22.6401 10.7343 22.6944 10.7344H22.6949C22.788 10.7345 22.8773 10.7778 22.9432 10.8547C23.009 10.9316 23.046 11.0358 23.046 11.1445V22.677C23.488 23.185 24.92 24.9246 24.92 26.1305Z" fill="#FF2261"/>
<path d="M24.92 26.1305C24.92 27.5622 23.922 28.726 22.6949 28.7265H22.6944C22.4924 28.7265 22.2964 28.6948 22.1099 28.6357C23.1238 28.336 24.1119 27.3271 24.1119 26.1305C24.1119 24.9246 23.1369 23.196 22.6949 22.6879V11.5541C22.6949 11.2862 22.5847 11.0483 22.4141 10.8984C22.4141 10.8984 22.4146 10.8979 22.4146 10.8973C22.4471 10.8467 22.4894 10.8056 22.538 10.7773C22.5865 10.749 22.6401 10.7343 22.6944 10.7344H22.6949C22.788 10.7345 22.8773 10.7778 22.9432 10.8547C23.009 10.9316 23.046 11.0358 23.046 11.1445V22.677C23.488 23.185 24.92 24.9246 24.92 26.1305Z" fill="#B7305D"/>
</svg>
