<svg width="30" height="30" viewBox="0 0 30 30" fill="none" xmlns="http://www.w3.org/2000/svg">
<path d="M18.7419 19.1442C23.3273 19.1442 27.0445 15.427 27.0445 10.8416C27.0445 6.25624 23.3273 2.53906 18.7419 2.53906C14.1566 2.53906 10.4394 6.25624 10.4394 10.8416C10.4394 15.427 14.1566 19.1442 18.7419 19.1442Z" fill="#D5EFC8"/>
<path d="M18.7346 19.4265C18.6226 19.4265 18.5152 19.382 18.4359 19.3028C18.3567 19.2235 18.3122 19.1161 18.3122 19.004V14.2623C18.3122 14.1503 18.3567 14.0428 18.4359 13.9636C18.5152 13.8844 18.6226 13.8398 18.7346 13.8398C18.8467 13.8398 18.9541 13.8844 19.0334 13.9636C19.1126 14.0428 19.1571 14.1503 19.1571 14.2623V19.004C19.1571 19.1161 19.1126 19.2235 19.0334 19.3028C18.9541 19.382 18.8467 19.4265 18.7346 19.4265Z" fill="#97DA7B"/>
<path d="M18.7347 15.8929L17.0554 14.6499C14.7038 12.9094 14.7154 9.38728 17.0783 7.66222L18.509 6.61781C18.6212 6.53586 18.7814 6.59393 18.8143 6.729C18.9684 7.36228 18.9356 8.02243 18.7347 8.70674L19.5461 10.2061L18.7347 15.8929Z" fill="#ADE194"/>
<path d="M21.0323 5.43601L20.0868 7.16941C20.0057 7.31813 19.906 7.45594 19.7901 7.57952L18.272 9.19886C17.8985 9.59727 17.6377 10.0879 17.5163 10.6204C17.395 11.1528 17.4175 11.708 17.5815 12.2289L18.7347 15.8915L21.3658 13.1706C23.426 11.04 23.6096 7.71995 21.7968 5.37524C21.5947 5.11371 21.1906 5.14582 21.0323 5.43601Z" fill="#80D261"/>
<path d="M13.9885 20.3305L17.7928 18.2444C20.2014 16.9237 23.1794 17.2545 25.2393 19.0718L26.7911 20.4408V22.0164L15.2989 25.5637L13.9885 22.0944V20.3305Z" fill="#DC8758"/>
<path d="M29.8823 20.5884C29.6074 19.9936 28.9253 19.7052 28.3068 19.9226L19.7395 22.9356L19.7457 22.9294C19.8867 22.7889 19.9985 22.6219 20.0747 22.438C20.1508 22.2542 20.1899 22.0571 20.1896 21.858C20.1896 21.3286 19.9181 20.8627 19.5063 20.5918C19.2596 20.4292 18.9704 20.3428 18.6749 20.3434H13.4602C12.9453 19.8285 12.2469 19.5391 11.5186 19.5391H4.50562V26.3011L7.34764 26.229L7.59604 26.443C8.36007 27.1009 9.33486 27.4627 10.3431 27.4625H18.2226C18.8963 27.4625 19.5604 27.3009 20.1586 26.9911L29.3134 22.2501C29.7482 22.0248 30 21.5815 30 21.1207C30 20.9422 29.9622 20.7608 29.8823 20.5884Z" fill="#FFCEBF"/>
<path d="M14.3126 23.3616H18.6693C19.506 23.3616 20.1841 22.6834 20.1841 21.8468C20.1841 21.0102 19.5059 20.332 18.6693 20.332H13.1461L13.4546 23.3617H14.3126V23.3616Z" fill="#FFCEBF"/>
<path d="M18.6693 22.1732H14.3126C13.8387 22.1732 13.4546 22.5573 13.4546 23.0311V23.2586C13.4546 23.3149 13.5002 23.3604 13.5563 23.3604H18.6693C19.5059 23.3604 20.1841 22.6821 20.1841 21.8456C20.1841 21.6349 20.141 21.4343 20.0632 21.252C19.8323 21.7935 19.2952 22.1732 18.6693 22.1732Z" fill="#FFB09E"/>
<path d="M29.733 20.6893L20.5782 25.4303C19.9799 25.7401 19.316 25.9018 18.6423 25.9018H10.7627C9.75449 25.9019 8.7797 25.5401 8.01567 24.8823C7.85581 24.7445 7.65044 24.6712 7.4395 24.6766L4.92525 24.7404V19.5391H4.50562V26.3011L7.34764 26.229L7.59604 26.443C8.36007 27.1009 9.33486 27.4627 10.3431 27.4625H18.2226C18.8963 27.4625 19.5604 27.3009 20.1586 26.9911L29.3134 22.2501C29.7482 22.0248 30 21.5815 30 21.1207C30 20.9448 29.9638 20.7675 29.8862 20.5975C29.8373 20.6316 29.7861 20.6623 29.733 20.6893Z" fill="#FFB09E"/>
<path d="M5.97216 19.6996V26.1208C5.97216 26.1574 5.96934 26.1929 5.96427 26.2278C5.91245 26.5956 5.59646 26.879 5.214 26.879H2.3953C2.29046 26.879 2.18991 26.8373 2.11578 26.7632C2.04165 26.6891 2 26.5885 2 26.4837V19.3367C2 19.2319 2.04165 19.1313 2.11578 19.0572C2.18991 18.9831 2.29046 18.9414 2.3953 18.9414H5.214C5.57731 18.9414 5.88091 19.1966 5.9547 19.5379C5.96596 19.5897 5.97216 19.6438 5.97216 19.6996Z" fill="#99E6FC"/>
</svg>
