<svg width="32" height="32" viewBox="0 0 32 32" fill="none" xmlns="http://www.w3.org/2000/svg">
<path d="M26.3877 18.3525L25.8964 17.0732C25.3615 15.6804 25.1238 14.182 25.2757 12.6978C25.302 12.4402 25.3111 12.1775 25.3016 11.9108C25.1962 8.94342 22.7627 6.5345 19.7945 6.4576C18.6486 6.42791 17.5778 6.73963 16.6749 7.29717C16.2032 5.30753 14.3634 3.84726 12.2032 3.9679C10.0018 4.09084 8.22198 5.88672 8.11643 8.08899C8.11555 8.10703 8.11479 8.12503 8.11419 8.14302C8.0198 10.7794 7.51984 13.3853 6.57408 15.848L5.61229 18.3525C4.6704 20.8051 6.481 23.4399 9.10824 23.4399H22.8918C25.519 23.4399 27.3296 20.8051 26.3877 18.3525Z" fill="#685E68"/>
<path d="M13.4474 18.3531C12.5056 20.8054 14.3166 23.4399 16.9439 23.4399H9.10827C6.48102 23.4399 4.6707 20.8054 5.61253 18.3531L6.57399 15.8486C7.5202 13.3855 8.01977 10.78 8.11416 8.14335C8.11487 8.12519 8.11558 8.10704 8.11634 8.08959C8.22238 5.88716 10.0022 4.09133 12.2032 3.9679C13.4514 3.89818 14.5923 4.3564 15.4245 5.13849C14.6264 5.88716 14.1087 6.93208 14.0534 8.08959L14.0513 8.14335C13.9569 10.7801 13.4565 13.3855 12.5111 15.8486L13.4474 18.3531Z" fill="#554E56"/>
<path d="M22.1333 29.9996H11.8015C11.8015 27.1468 14.1143 24.834 16.9677 24.834C18.3941 24.834 19.6853 25.4123 20.6201 26.3471C21.5549 27.282 22.1333 28.5732 22.1333 29.9996Z" fill="#FEC0DD"/>
<path d="M18.3373 25.0175C16.1486 25.617 14.5403 27.6206 14.5403 29.9996H11.8015C11.8015 27.1468 14.1149 24.834 16.9677 24.834C17.442 24.834 17.9014 24.898 18.3373 25.0175Z" fill="#FEA3CE"/>
<path d="M22.6224 19.3967C22.7474 19.3969 22.8724 19.3928 22.9971 19.3843C22.4757 21.3166 21.0503 22.8779 19.2029 23.5866C19.0267 23.6544 18.8474 23.714 18.6656 23.7653V24.7071C18.6656 25.1762 18.4753 25.601 18.1689 25.9081C17.861 26.2153 17.4362 26.4056 16.9671 26.4056C16.0297 26.4056 15.2693 25.6453 15.2693 24.7071V23.7653C12.9042 23.0986 11.1091 21.0741 10.7766 18.587C10.4796 18.9363 10.0926 19.1469 9.66846 19.1469C8.73024 19.1469 7.96997 18.115 7.96997 16.8421C7.96997 15.5691 8.73024 14.538 9.66846 14.538C10.0664 14.538 10.4324 14.7239 10.7214 15.0347V14.8684C10.7214 13.6506 11.0707 12.5134 11.6741 11.5527C12.2173 12.5969 13.3094 13.3108 14.5679 13.3108C15.4472 13.3108 16.2446 12.9622 16.8305 12.3973C16.7612 12.7611 16.7265 13.1307 16.7267 13.501C16.7267 16.7571 19.3663 19.3967 22.6224 19.3967Z" fill="#FFDFCF"/>
<path d="M19.2029 23.5866C19.0266 23.6542 18.8474 23.7137 18.6657 23.7651V24.7072C18.6657 25.1765 18.4755 25.6008 18.1686 25.9083C17.8611 26.2153 17.4362 26.4055 16.9674 26.4055C16.0293 26.4055 15.2691 25.6453 15.2691 24.7072V23.7651C12.9046 23.0984 11.1089 21.0742 10.777 18.5873C10.4795 18.936 10.0924 19.1467 9.66866 19.1467C8.73055 19.1467 7.97034 18.1152 7.97034 16.8423C7.97034 15.5694 8.73055 14.5378 9.66866 14.5378C10.0663 14.5378 10.4322 14.7241 10.7213 15.035V14.8681C10.7213 13.5919 11.0163 12.542 11.6742 11.5527C11.6569 13.4418 11.7362 15.2819 11.7362 15.5104C11.7362 19.7796 14.8409 23.2407 18.6708 23.2407C18.8726 23.2407 19.0506 23.3658 19.2029 23.5866Z" fill="#FFCEBF"/>
<path d="M10.1331 17.2635C10.1331 17.2635 10.0036 16.3943 9.31939 16.043C9.31939 16.043 8.79094 16.7457 9.21012 17.4114C9.6293 18.0772 10.1331 17.2635 10.1331 17.2635Z" fill="#FFB09E"/>
<path d="M14.4731 17.291C14.0987 17.291 13.7243 17.1972 13.3831 17.0096C13.2864 16.9548 13.2152 16.8641 13.1848 16.7572C13.1545 16.6503 13.1676 16.5357 13.2211 16.4384C13.2746 16.341 13.3644 16.2686 13.4709 16.2369C13.5774 16.2052 13.6921 16.2168 13.7902 16.2691C14.2178 16.5042 14.7284 16.5042 15.156 16.2691C15.2047 16.2423 15.2581 16.2254 15.3132 16.2194C15.3684 16.2133 15.4242 16.2181 15.4775 16.2336C15.5308 16.249 15.5805 16.2749 15.6238 16.3096C15.6671 16.3443 15.7031 16.3871 15.7299 16.4358C15.7566 16.4844 15.7735 16.5378 15.7796 16.5929C15.7857 16.6481 15.7808 16.7039 15.7654 16.7572C15.7499 16.8105 15.7241 16.8602 15.6894 16.9035C15.6547 16.9468 15.6118 16.9829 15.5632 17.0096C15.2219 17.1972 14.8475 17.291 14.4731 17.291Z" fill="#554E56"/>
<path d="M17.9918 20.7696C17.9207 20.7696 17.8508 20.7516 17.7886 20.7173C17.361 20.4822 16.8504 20.4822 16.4228 20.7173C16.3247 20.7696 16.21 20.7811 16.1035 20.7494C15.997 20.7177 15.9072 20.6454 15.8537 20.548C15.8001 20.4506 15.7871 20.336 15.8174 20.2291C15.8477 20.1222 15.9189 20.0315 16.0156 19.9767C16.6982 19.6015 17.5131 19.6015 18.1957 19.9767C18.2779 20.0219 18.3428 20.0932 18.3801 20.1793C18.4173 20.2654 18.4249 20.3615 18.4015 20.4523C18.3781 20.5432 18.3252 20.6237 18.251 20.6812C18.1768 20.7386 18.0856 20.7697 17.9918 20.7696Z" fill="#FEC0DD"/>
<path d="M14.8464 18.9546L13.8684 17.9766L12.8903 18.9546C12.3502 19.4947 12.3502 20.3705 12.8903 20.9107C13.4305 21.4508 14.3063 21.4508 14.8464 20.9107C15.3866 20.3705 15.3866 19.4947 14.8464 18.9546Z" fill="#60B7FF"/>
<path d="M13.8684 21.3157C13.6868 21.3159 13.5068 21.2802 13.339 21.2107C13.1711 21.1412 13.0186 21.0392 12.8903 20.9106C12.3502 20.3705 12.3502 19.4945 12.8903 18.9543L13.8684 17.9766L13.5423 18.9543C13.362 19.4945 13.362 20.3705 13.5423 20.9106C13.632 21.1806 13.7503 21.3157 13.8684 21.3157Z" fill="#26A6FE"/>
<path d="M24.1953 4.23278L21.9625 2L19.7298 4.23278C18.4967 5.46587 18.4967 7.4652 19.7298 8.69829C20.9628 9.93138 22.9622 9.93138 24.1953 8.69829C25.4284 7.46514 25.4284 5.46587 24.1953 4.23278Z" fill="#60B7FF"/>
<path d="M21.9627 9.62305C21.1549 9.62305 20.3462 9.31478 19.7297 8.69829C18.4967 7.46525 18.4967 5.46538 19.7297 4.23234L21.9624 2L21.218 4.23234C20.8065 5.46538 20.8065 7.46525 21.218 8.69829C21.4229 9.31484 21.6928 9.62305 21.9627 9.62305Z" fill="#26A6FE"/>
</svg>
