<svg width="32" height="32" viewBox="0 0 32 32" fill="none" xmlns="http://www.w3.org/2000/svg">
<path d="M11.0234 5.66812L9.58362 4.21581L11.6269 2.1547C11.6755 2.10565 11.7332 2.06675 11.7968 2.0402C11.8603 2.01366 11.9284 2 11.9971 2C12.0659 2 12.134 2.01366 12.1975 2.0402C12.261 2.06675 12.3188 2.10565 12.3674 2.1547L13.0666 2.86003C13.1152 2.90907 13.1538 2.9673 13.1801 3.03138C13.2064 3.09545 13.22 3.16413 13.22 3.23349C13.22 3.30285 13.2064 3.37153 13.1801 3.43561C13.1538 3.49969 13.1152 3.55791 13.0666 3.60696L11.0234 5.66812ZM14.8514 7.4891L13.4116 6.03678L15.4549 3.97568C15.5035 3.92663 15.5613 3.88772 15.6248 3.86118C15.6883 3.83464 15.7564 3.82098 15.8251 3.82098C15.8939 3.82098 15.962 3.83464 16.0255 3.86118C16.089 3.88772 16.1468 3.92663 16.1954 3.97568L16.8946 4.68101C16.9432 4.73005 16.9818 4.78827 17.0081 4.85235C17.0344 4.91643 17.048 4.98511 17.048 5.05447C17.048 5.12383 17.0344 5.19251 17.0081 5.25659C16.9818 5.32067 16.9432 5.37889 16.8946 5.42793L14.8514 7.4891ZM26.3636 21.1421L27.8033 22.5944L29.8466 20.5333C29.8952 20.4843 29.9338 20.4261 29.9601 20.362C29.9864 20.2979 30 20.2292 30 20.1599C30 20.0905 29.9864 20.0218 29.9601 19.9577C29.9338 19.8937 29.8952 19.8354 29.8466 19.7864L29.1473 19.081C29.0987 19.032 29.041 18.9931 28.9775 18.9665C28.9139 18.94 28.8459 18.9263 28.7771 18.9263C28.7083 18.9263 28.6402 18.94 28.5767 18.9665C28.5132 18.9931 28.4555 19.032 28.4069 19.081L26.3636 21.1421ZM24.3154 17.2807L25.7551 18.733L27.7984 16.6719C27.847 16.6229 27.8856 16.5647 27.9119 16.5006C27.9382 16.4365 27.9518 16.3678 27.9518 16.2985C27.9518 16.2291 27.9382 16.1604 27.9119 16.0963C27.8856 16.0323 27.847 15.974 27.7984 15.925L27.0992 15.2197C27.0506 15.1706 26.9928 15.1317 26.9293 15.1052C26.8658 15.0786 26.7977 15.065 26.7289 15.065C26.6602 15.065 26.5921 15.0786 26.5286 15.1052C26.465 15.1317 26.4073 15.1706 26.3587 15.2197L24.3154 17.2807Z" fill="#3D6687"/>
<path d="M26.2472 27.1886L17.108 14.838L4.86406 5.61901C4.43504 5.29597 4.38976 4.66417 4.76836 4.28227L6.0236 3.01603C6.2984 2.73881 6.64855 2.55003 7.02974 2.47359C7.41092 2.39714 7.80602 2.43646 8.16505 2.58657L23.0743 8.81954L29.2533 23.8588C29.4021 24.221 29.4411 24.6195 29.3653 25.004C29.2895 25.3885 29.1024 25.7417 28.8276 26.0189L27.5724 27.2851C27.1938 27.6671 26.5674 27.6215 26.2472 27.1886ZM11.9413 29.8472L7.73832 24.2104L2.15036 19.9707C1.96722 19.8318 1.94835 19.5615 2.11044 19.3981L2.75477 18.7481C2.9668 18.5343 3.23841 18.3907 3.53341 18.3365C3.82841 18.2823 4.13278 18.3201 4.40595 18.4448L10.6346 21.289L13.4541 27.5719C13.5778 27.8475 13.6153 28.1545 13.5615 28.452C13.5078 28.7496 13.3654 29.0236 13.1534 29.2375L12.509 29.8874C12.347 30.0509 12.079 30.0319 11.9413 29.8472Z" fill="#CCDFED"/>
<path d="M13.4542 27.5729L12.4886 25.4213L11.8875 26.0276C11.3638 26.5558 10.498 26.4944 10.0529 25.8974L8.34187 23.6026L8.33651 23.608L2.40243 19.1046L2.1104 19.3991C1.94836 19.5626 1.96723 19.8328 2.15032 19.9718L7.73834 24.2115L11.9413 29.8482C12.079 30.033 12.347 30.052 12.509 29.8885L13.1534 29.2385C13.3654 29.0246 13.5078 28.7506 13.5615 28.453C13.6153 28.1555 13.5778 27.8485 13.4542 27.5729ZM29.2206 25.4506C29.2459 25.3955 29.2695 25.3397 29.2896 25.2826C29.3303 25.1656 29.3601 25.0451 29.3786 24.9225C29.4328 24.5705 29.3945 24.2032 29.2534 23.8597L28.3552 21.6736L28.2982 21.5347C28.244 21.9719 28.0469 22.3784 27.738 22.6899L26.4828 23.9561C26.1042 24.338 25.4779 24.2924 25.1576 23.8596L17.8949 14.0451L4.86326 4.1875L4.76837 4.28321C4.5196 4.53415 4.45501 4.89261 4.56083 5.20081C4.61779 5.36812 4.72348 5.51418 4.86408 5.6199L12.8191 11.6096L17.108 14.8389L20.3093 19.1651L26.2472 27.1896C26.352 27.3314 26.4968 27.438 26.6627 27.4955C26.9682 27.6022 27.3236 27.537 27.5724 27.2861L28.8277 26.0199C28.9909 25.855 29.1239 25.6622 29.2206 25.4506Z" fill="#BAD5E5"/>
<path d="M7.73748 25.7231C6.78078 26.1836 5.78148 25.1756 6.23801 24.2106C7.25268 22.0656 8.54873 20.068 10.0913 18.2715L20.6917 5.92649C22.2599 4.10011 24.4681 2.95686 26.8534 2.73628L27.5034 2.67621C28.4094 2.59241 29.1688 3.35831 29.0858 4.27233L29.0262 4.92796C28.8075 7.33409 27.6741 9.56148 25.8636 11.1434L13.6252 21.8363C11.8443 23.3923 9.86394 24.6996 7.73748 25.7231Z" fill="#61AFF6"/>
<path d="M29.0261 4.92796L29.0857 4.27233C29.1688 3.35837 28.4094 2.59241 27.5033 2.67621L26.8533 2.73628C26.8449 2.73705 26.8364 2.73816 26.828 2.73893C26.6036 5.13557 25.4718 7.35265 23.668 8.92881L6.46326 25.5065C6.7758 25.8178 7.26186 25.9521 7.73747 25.7231C9.8639 24.6996 11.8442 23.3923 13.6252 21.8363L25.8635 11.1434C27.674 9.5615 28.8074 7.33411 29.0261 4.92796Z" fill="#399AEA"/>
<path d="M23.9237 4.98005C23.813 4.97052 23.7031 5.00572 23.6182 5.0779C23.5332 5.15009 23.4801 5.25335 23.4706 5.36498C23.4612 5.47663 23.4961 5.58748 23.5676 5.67319C23.6392 5.75889 23.7416 5.81242 23.8522 5.82202C25.1084 5.93047 25.8594 6.6881 25.9668 7.95506C25.9751 8.05427 26.018 8.1473 26.0879 8.21764C26.1486 8.27891 26.2265 8.31987 26.3111 8.33496C26.3957 8.35006 26.4828 8.33856 26.5607 8.30203C26.6386 8.26551 26.7035 8.20571 26.7465 8.13075C26.7896 8.05579 26.8088 7.96929 26.8015 7.88296C26.6596 6.20861 25.5837 5.12325 23.9237 4.98005Z" fill="white"/>
<path d="M26.42 8.34026C26.5307 8.33069 26.6331 8.27716 26.7047 8.19145C26.7762 8.10574 26.8111 7.99487 26.8016 7.88322C26.7321 7.06408 26.4387 6.3865 25.9632 5.89062C25.8342 6.1633 25.6921 6.4295 25.5375 6.6883C25.7777 7.02321 25.924 7.44836 25.9669 7.95526C25.9752 8.05447 26.0181 8.1475 26.088 8.21784C26.1311 8.26148 26.1832 8.29505 26.2405 8.3162C26.2979 8.33735 26.3592 8.34556 26.42 8.34026Z" fill="#CCDFED"/>
</svg>
