<svg width="32" height="32" viewBox="0 0 32 32" fill="none" xmlns="http://www.w3.org/2000/svg">
<path d="M16 2C8.26801 2 2 8.26801 2 16C2 23.732 8.26801 30 16 30C23.732 30 30 23.732 30 16C30 8.26801 23.732 2 16 2ZM3.82115 16C3.82115 12.7469 5.08798 9.68852 7.38825 7.3882C9.68852 5.08793 12.7469 3.82115 16 3.82115C18.9669 3.82115 21.7714 4.8753 23.9871 6.80566L6.80572 23.9871C4.8753 21.7714 3.82115 18.9669 3.82115 16ZM24.6118 24.6118C22.3115 26.9121 19.2531 28.1789 16 28.1789C13.0331 28.1789 10.2286 27.1247 8.01295 25.1943L25.1943 8.01289C27.1247 10.2285 28.1789 13.0331 28.1789 15.9999C28.1789 19.2531 26.9121 22.3115 24.6118 24.6118Z" fill="#FE646F"/>
<path d="M15.5436 11.223L15.1787 10.7365C15.0923 10.6213 14.9651 10.5435 14.8231 10.5192C14.6812 10.4949 14.5353 10.5259 14.4155 10.6057L14.3178 10.6709C14.2252 10.7326 14.1165 10.7655 14.0052 10.7655C13.894 10.7655 13.7853 10.7326 13.6927 10.6709L13.4641 10.5184C13.3715 10.4568 13.2628 10.4238 13.1516 10.4238C13.0403 10.4238 12.9316 10.4568 12.8391 10.5184L12.6104 10.6709C12.5179 10.7326 12.4091 10.7655 12.2979 10.7655C12.1867 10.7655 12.0779 10.7326 11.9854 10.6709L11.7567 10.5184C11.6642 10.4568 11.5555 10.4238 11.4442 10.4238C11.333 10.4238 11.2243 10.4568 11.1317 10.5184L10.9031 10.6709C10.8105 10.7326 10.7018 10.7655 10.5906 10.7655C10.4793 10.7655 10.3706 10.7326 10.278 10.6709L10.0494 10.5184C9.95685 10.4568 9.84811 10.4238 9.73689 10.4238C9.62566 10.4238 9.51692 10.4568 9.42438 10.5184L9.11277 10.7262C9.0413 10.7738 8.95989 10.8045 8.87475 10.8158C8.78962 10.8272 8.70302 10.8189 8.62156 10.7917L7.9237 10.5583C7.55877 10.4362 7.18164 10.7078 7.18164 11.0926V22.0479C7.18164 22.4327 7.55882 22.7043 7.9237 22.5822L8.62156 22.3488C8.70302 22.3216 8.78962 22.3133 8.87475 22.3247C8.95989 22.336 9.0413 22.3667 9.11277 22.4143L9.42438 22.622C9.51692 22.6837 9.62566 22.7167 9.73689 22.7167C9.84811 22.7167 9.95685 22.6837 10.0494 22.622L10.278 22.4696C10.3706 22.4079 10.4793 22.375 10.5906 22.375C10.7018 22.375 10.8105 22.4079 10.9031 22.4696L11.1317 22.622C11.2243 22.6837 11.333 22.7167 11.4442 22.7167C11.5555 22.7167 11.6642 22.6837 11.7567 22.622L11.9854 22.4696C12.0779 22.4079 12.1867 22.375 12.2979 22.375C12.4091 22.375 12.5179 22.4079 12.6104 22.4696L12.8391 22.622C12.9316 22.6837 13.0403 22.7167 13.1516 22.7167C13.2628 22.7167 13.3715 22.6837 13.4641 22.622L13.6927 22.4696C13.7853 22.4079 13.894 22.375 14.0052 22.375C14.1165 22.375 14.2252 22.4079 14.3178 22.4696L14.4155 22.5348C14.5353 22.6146 14.6812 22.6456 14.8231 22.6213C14.9651 22.597 15.0923 22.5192 15.1787 22.404L15.5436 21.9175C15.5961 21.8475 15.6641 21.7908 15.7423 21.7516C15.8205 21.7125 15.9068 21.6922 15.9943 21.6921H17.4199V11.4484H15.9943C15.9068 11.4483 15.8205 11.428 15.7423 11.3889C15.6641 11.3497 15.5961 11.293 15.5436 11.223Z" fill="#DFF6FD"/>
<path d="M17.42 10.5117L16.4 11.0716C16.2093 11.1763 15.9871 11.2087 15.7744 11.1628C15.5617 11.1169 15.3728 10.9957 15.2422 10.8216L15.1788 10.7371C15.0924 10.6219 14.9651 10.5441 14.8232 10.5198C14.6813 10.4955 14.5354 10.5265 14.4156 10.6063L14.3178 10.6715C14.228 10.7312 14.1229 10.7638 14.015 10.7654C14.0113 13.6598 14.009 20.3589 14.0083 22.3758C14.1163 22.3764 14.2241 22.4077 14.3178 22.4702L14.4156 22.5354C14.5354 22.6152 14.6812 22.6462 14.8232 22.6219C14.9651 22.5976 15.0924 22.5198 15.1788 22.4046L15.2501 22.3095C15.3791 22.1375 15.5652 22.0171 15.775 21.97C15.9847 21.9229 16.2044 21.9521 16.3946 22.0524L17.42 22.5931V10.5117Z" fill="#C8EFFE"/>
<path d="M12.2981 13.1562C10.4122 13.1562 8.88342 14.685 8.88342 16.5709C8.88342 18.4567 10.4122 19.9855 12.2981 19.9855C14.1839 19.9855 15.7127 18.4567 15.7127 16.5709C15.7127 14.685 14.1839 13.1562 12.2981 13.1562ZM12.298 18.2782C11.3566 18.2782 10.5907 17.5123 10.5907 16.5709C10.5907 15.6295 11.3566 14.8636 12.298 14.8636C13.2394 14.8636 14.0053 15.6295 14.0053 16.5709C14.0053 17.5123 13.2394 18.2782 12.298 18.2782Z" fill="#FE9738"/>
<path d="M15.7127 16.5703C15.7127 15.3078 15.027 14.2061 14.0082 13.6152V19.5254C15.027 18.9345 15.7127 17.8328 15.7127 16.5703Z" fill="#FE860A"/>
<path d="M25.2542 5.49609C27.4296 7.96338 28.7501 11.2025 28.7501 14.7504C28.7501 22.4824 22.4821 28.7504 14.7501 28.7504C11.2022 28.7504 7.96313 27.4299 5.49585 25.2546C8.06124 28.1642 11.8159 30.0002 16 30.0002C23.7319 30.0002 30 23.7322 30 16.0002C30 11.8162 28.1639 8.06154 25.2542 5.49609Z" fill="#FD4755"/>
<path d="M19.0621 8.60187V7.7482C19.0621 7.27674 18.6798 6.89453 18.2084 6.89453C17.7369 6.89453 17.3547 7.27674 17.3547 7.7482V8.60187L16.8892 8.92513C16.5269 9.17663 16.231 9.51209 16.0266 9.90283C15.8222 10.2936 15.7155 10.728 15.7155 11.169V23.962H20.8374V11.2337C20.8374 10.7757 20.7223 10.3251 20.5026 9.92323C20.2828 9.52138 19.9656 9.18123 19.5801 8.93405L19.0621 8.60187Z" fill="#FFE177"/>
<path d="M19.58 8.93399L19.062 8.60187V7.7482C19.062 7.27674 18.6797 6.89453 18.2083 6.89453C17.7368 6.89453 17.3546 7.27674 17.3546 7.7482V8.60187L17.8726 8.93399C18.2582 9.18118 18.5754 9.52135 18.7951 9.9232C19.0148 10.3251 19.13 10.7757 19.13 11.2337V23.9621H20.8373V11.2337C20.8373 10.7757 20.7222 10.3251 20.5025 9.9232C20.2828 9.52134 19.9655 9.18118 19.58 8.93399Z" fill="#FFD15B"/>
<path d="M21.2358 25.1057H15.3171C15.1963 25.1057 15.0805 25.0578 14.9952 24.9724C14.9098 24.887 14.8618 24.7712 14.8618 24.6505V23.8537C14.8618 23.733 14.9098 23.6172 14.9952 23.5318C15.0805 23.4464 15.1963 23.3984 15.3171 23.3984H21.2358C21.3566 23.3984 21.4724 23.4464 21.5577 23.5318C21.6431 23.6172 21.6911 23.733 21.6911 23.8537V24.6505C21.6911 24.7712 21.6431 24.887 21.5577 24.9724C21.4724 25.0578 21.3566 25.1057 21.2358 25.1057Z" fill="#FFD15B"/>
<path d="M21.2358 23.3984H19.4147C19.5354 23.3984 19.6512 23.4464 19.7366 23.5318C19.822 23.6172 19.8699 23.733 19.8699 23.8537V24.6505C19.8699 24.7712 19.822 24.887 19.7366 24.9724C19.6512 25.0578 19.5354 25.1057 19.4147 25.1057H21.2358C21.3566 25.1057 21.4724 25.0578 21.5577 24.9724C21.6431 24.887 21.6911 24.7712 21.6911 24.6505V23.8537C21.6911 23.733 21.6431 23.6172 21.5577 23.5318C21.4724 23.4464 21.3566 23.3984 21.2358 23.3984Z" fill="#FFC344"/>
</svg>
