<svg width="32" height="32" viewBox="0 0 32 32" fill="none" xmlns="http://www.w3.org/2000/svg">
<g clip-path="url(#clip0_1277_43501)">
<path d="M0 15.9996C0 8.55922 5.07863 2.30503 11.9584 0.514407C12.1814 0.456345 12.4064 0.621407 12.6331 0.572845C13.7186 0.340345 14.845 0.41047 16 0.41047C17.1326 0.41047 18.2377 0.335595 19.3037 0.559407C19.5373 0.60847 19.7689 0.44422 19.9986 0.503282C26.9002 2.27903 32 8.54378 32 15.9996C32 18.5373 31.4092 20.9371 30.3576 23.0688C30.2505 23.2859 29.8373 22.9225 29.7208 23.1339C28.7164 24.9562 27.3671 26.5617 25.7609 27.8624C25.5995 27.9931 25.7369 28.6985 25.5704 28.823C25.2173 29.0869 24.8535 29.3362 24.4798 29.5702C24.4147 29.611 19.0321 27.3827 15.9999 27.3827C12.9678 27.3827 7.58519 29.611 7.52006 29.5702C7.14644 29.3362 6.78261 29.087 6.4295 28.823C6.21362 28.6617 6.40794 27.9091 6.20069 27.7373C4.58681 26.3993 3.24012 24.7505 2.25231 22.8825C2.1825 22.7504 1.7085 23.2032 1.64225 23.0689C0.590812 20.9371 0 18.5373 0 15.9996Z" fill="#40C1FA"/>
<path d="M19.9986 0.503345C21.1199 0.791884 22.2062 1.20211 23.2383 1.72672C24.3161 3.56991 25.191 5.70391 25.7685 8.03878C27.1166 13.4904 26.52 18.729 24.5082 22.1812C23.5978 21.6125 17.007 18.6674 16 15.8921C14.993 18.6675 8.40221 21.6126 7.49171 22.1812C5.47996 18.729 4.8834 13.4903 6.23158 8.03872C6.80902 5.70391 7.6839 3.56997 8.76165 1.72672C9.78053 1.20882 10.8523 0.802363 11.9584 0.514407C12.1814 0.456345 12.4063 0.621407 12.633 0.572845C13.7186 0.340345 14.845 0.41047 16 0.41047C17.1326 0.41047 18.2376 0.335595 19.3037 0.559407C19.5373 0.60847 19.769 0.44422 19.9986 0.503345Z" fill="#784132"/>
<path d="M31.2557 12.2713C31.2527 12.2991 31.2504 12.3267 31.2487 12.3545L30.692 15.1887L30.3576 23.0692C29.2346 25.3457 27.586 27.3166 25.5704 28.8233L25.4189 14.3431C23.9749 16.7974 23.3006 19.6708 23.3006 22.7423C23.3006 24.9241 23.7196 27.5277 24.4799 29.5705C22.0214 31.11 19.1146 32 16 32C12.8854 32 9.97861 31.11 7.52011 29.5706C8.28036 27.5278 8.69936 24.9241 8.69936 22.7424C8.69936 19.6709 8.02498 16.7975 6.58104 14.3432L6.42954 28.8234C4.41392 27.3166 2.76536 25.3458 1.64236 23.0693L1.30792 15.1888L0.751295 12.3546C0.749332 12.3221 0.746622 12.2897 0.74317 12.2573C0.649982 11.3656 0.760357 10.4626 1.11704 9.64013C1.40128 8.98475 1.72923 8.34922 2.09867 7.73781C2.54667 6.99625 3.17686 6.37675 3.93273 5.95344C4.79511 5.47044 5.78129 5.15331 6.73417 5.03569C8.02361 4.87644 9.56186 4.72456 11.0194 4.59694C11.8459 4.52463 12.4917 3.83831 12.4937 3.00863V2.99319C12.4937 2.11562 12.3034 1.27869 11.9582 0.514875C13.2494 0.178813 14.6038 0 16 0C17.3962 0 18.7506 0.178813 20.0415 0.514813C19.6965 1.27869 19.506 2.11562 19.506 2.99312V3.00856C19.5082 3.83819 20.1539 4.5245 20.9804 4.59688C22.438 4.72444 23.9762 4.87638 25.2657 5.03562C26.1764 5.14806 27.1307 5.44275 27.9753 5.89025C28.814 6.33463 29.5047 7.01219 29.9902 7.82781C30.3067 8.35946 30.592 8.90907 30.8447 9.47388C31.2368 10.3504 31.3585 11.3166 31.2557 12.2713Z" fill="#F2BB88"/>
<path d="M11.9584 0.514438C12.4635 0.383011 12.9747 0.276507 13.4902 0.195312C13.6375 1 13.7156 1.84162 13.7156 2.70806C13.7156 3.00616 13.7063 3.30418 13.6877 3.60169C13.613 4.79025 12.1958 5.3695 11.3154 4.56763L11.2944 4.5485C11.9849 4.36581 12.492 3.74325 12.4939 3.00819V2.99275C12.4939 2.11525 12.3035 1.27831 11.9584 0.514438ZM7.69805 16.7207C8.37611 18.584 8.69936 20.6155 8.69936 22.742C8.69936 24.9237 8.28036 27.5274 7.52011 29.5702C8.16123 29.9717 8.83008 30.3271 9.52161 30.6337C9.83905 27.791 10.0877 23.9209 10.0877 22.5499C10.0877 20.7403 14.4196 20.2835 14.3557 19.6273C14.1237 17.2462 9.10136 15.9404 7.96936 13.9764L7.69805 16.7207ZM26.9165 27.6971C26.4887 28.0966 26.0393 28.4724 25.5704 28.8229L24.8604 16.9637C25.0521 16.3298 24.4067 13.2283 24.6689 12.3975C24.8419 11.8492 25.7537 11.6269 26.1848 12.5136C26.2553 12.6585 26.3848 14.0026 26.4653 14.9066C26.5132 15.4445 26.9165 27.6971 26.9165 27.6971ZM2.9813 25.303C2.475 24.5959 2.02721 23.8487 1.64236 23.0688L1.30792 15.1883L0.751299 12.3541C0.749336 12.3217 0.746627 12.2892 0.743174 12.2569C0.649861 11.3649 0.760236 10.4624 1.11705 9.63963C1.39515 8.99849 1.71507 8.37632 2.07474 7.77713C2.52355 7.02944 3.14624 6.398 3.90517 5.9685C4.4288 5.67219 4.99899 5.43731 5.58017 5.27131C5.48343 5.32146 5.38784 5.37381 5.29349 5.42831C4.53449 5.86675 3.91186 6.51125 3.46305 7.2745C3.10301 7.88681 2.78311 8.52186 2.50536 9.17562C2.14855 10.0154 2.03811 10.9367 2.13149 11.8471C2.13486 11.8802 2.13761 11.9133 2.13961 11.9464L2.69624 14.8394L2.9813 25.303ZM16.7773 14.6103C16.7157 14.6103 16.6548 14.5982 16.5979 14.5746C16.541 14.5511 16.4894 14.5166 16.4458 14.473C16.4023 14.4295 16.3678 14.3778 16.3442 14.321C16.3207 14.2641 16.3085 14.2031 16.3085 14.1416C16.3085 11.2757 18.1796 8.94406 20.4794 8.94406C20.7384 8.94406 20.9482 9.15387 20.9482 9.41281C20.9482 9.67175 20.7384 9.88156 20.4794 9.88156C18.6965 9.88156 17.246 11.7926 17.246 14.1416C17.246 14.2659 17.1967 14.3851 17.1088 14.473C17.0208 14.5609 16.9016 14.6103 16.7773 14.6103ZM15.6914 14.1416C15.6914 11.2757 13.8204 8.94406 11.5205 8.94406C11.2616 8.94406 11.0518 9.15387 11.0518 9.41281C11.0518 9.67175 11.2616 9.88156 11.5205 9.88156C13.3034 9.88156 14.7539 11.7926 14.7539 14.1416C14.7539 14.4005 14.9637 14.6103 15.2227 14.6103C15.4816 14.6103 15.6914 14.4005 15.6914 14.1416ZM16 29.9106C16.3877 29.9106 16.7021 29.5962 16.7021 29.2084C16.7021 28.8207 16.3877 28.5063 16 28.5063C15.6122 28.5063 15.2979 28.8207 15.2979 29.2084C15.2979 29.5962 15.6122 29.9106 16 29.9106Z" fill="#E3A76F"/>
<path d="M15.0199 19.3863C14.1198 20.0643 12.8225 20.1112 11.3772 20.1123C8.61555 20.1147 6.30624 17.6541 6.32142 14.6472C6.32542 13.8605 6.48286 13.1134 6.76292 12.4396C7.19642 11.3965 7.50124 10.3045 7.6418 9.18378L8.18292 4.86834C8.70611 4.76828 9.30186 4.71509 9.87967 4.69922V9.32734C9.87967 10.0823 10.4073 10.7338 11.1454 10.8927C12.5845 11.2023 13.8568 12.0175 14.7997 13.1611C15.4189 13.9122 15.5992 18.9501 15.0199 19.3863Z" fill="#F2D1A5"/>
<path d="M25.6786 14.6472C25.6938 17.6542 23.3844 20.1147 20.6228 20.1123C19.1774 20.1111 17.8802 20.0642 16.9801 19.3863C16.4008 18.9501 15.5992 18.9501 15.02 19.3863C14.5861 19.7132 13.5008 19.7347 12.3589 19.6772C10.708 19.5943 9.41364 18.2277 9.41364 16.5747V15.2594C9.41364 12.5797 12.6036 11.1302 14.5829 12.9365C14.6666 13.0128 14.7393 13.0878 14.7997 13.161C15.4189 13.9121 16.5812 13.9121 17.2004 13.161C18.1426 12.0183 19.4134 11.2036 20.8511 10.8933C21.5875 10.7344 22.1204 10.0948 22.1204 9.34141V4.69922C22.8179 4.72772 23.3824 4.77759 23.8169 4.86666L24.3583 9.18372C24.4989 10.3045 24.8037 11.3965 25.2372 12.4396C25.5171 13.1134 25.6746 13.8605 25.6786 14.6472Z" fill="#FFE4C2"/>
<path d="M28.1856 19.7507L27.7696 19.9456C27.223 20.2016 27.039 20.8884 27.3844 21.3834L27.6472 21.7601C27.8353 22.0296 27.6236 22.3962 27.2961 22.3681L26.8385 22.3289C26.2371 22.2773 25.7343 22.7801 25.7859 23.3814L25.8252 23.8391C25.8533 24.1665 25.4867 24.3782 25.2171 24.1901L24.8404 23.9273C24.3454 23.5819 23.6586 23.7659 23.4026 24.3126L23.2078 24.7285C23.0684 25.0261 22.6451 25.0261 22.5057 24.7285L22.3109 24.3126C22.0549 23.7659 21.3681 23.5819 20.8731 23.9273L20.4964 24.1901C20.2268 24.3782 19.8603 24.1666 19.8883 23.8391L19.9276 23.3814C19.9791 22.7801 19.4764 22.2773 18.875 22.3289L18.4174 22.3681C18.0899 22.3962 17.8783 22.0296 18.0663 21.7601L18.3291 21.3834C18.6745 20.8884 18.4905 20.2016 17.9439 19.9456L17.5279 19.7507C17.2303 19.6114 17.2303 19.1881 17.5279 19.0486L17.9439 18.8538C18.4905 18.5978 18.6745 17.911 18.3291 17.416L18.0663 17.0393C17.8783 16.7697 18.0899 16.4032 18.4174 16.4312L18.875 16.4705C19.4764 16.5221 19.9792 16.0193 19.9276 15.4179L19.8883 14.9603C19.8603 14.6329 20.2268 14.4212 20.4964 14.6092L20.8731 14.8721C21.3681 15.2174 22.0549 15.0334 22.3109 14.4868L22.5057 14.0709C22.6451 13.7732 23.0684 13.7732 23.2078 14.0709L23.4026 14.4868C23.6586 15.0334 24.3454 15.2174 24.8404 14.8721L25.2171 14.6092C25.4867 14.4212 25.8533 14.6328 25.8252 14.9603L25.7859 15.4179C25.7344 16.0193 26.2371 16.5221 26.8385 16.4705L27.2961 16.4312C27.6236 16.4032 27.8353 16.7697 27.6472 17.0393L27.3844 17.416C27.039 17.911 27.223 18.5978 27.7696 18.8538L28.1856 19.0486C28.4832 19.1881 28.4832 19.6114 28.1856 19.7507Z" fill="#F44545"/>
<path d="M28.1856 19.7507L27.7696 19.9456C27.223 20.2016 27.039 20.8884 27.3843 21.3834L27.6471 21.7601C27.8352 22.0296 27.6236 22.3962 27.2961 22.3681L26.8384 22.3289C26.2371 22.2773 25.7342 22.7801 25.7859 23.3814L25.8204 23.7839C22.3887 22.8218 19.7349 19.9991 19.0157 16.4726C19.5525 16.4419 19.975 15.9718 19.9275 15.4179L19.8882 14.9603C19.8602 14.6328 20.2267 14.4212 20.4963 14.6092L20.873 14.8721C21.368 15.2174 22.0548 15.0334 22.3108 14.4868L22.5056 14.0709C22.645 13.7732 23.0683 13.7732 23.2077 14.0709L23.4026 14.4868C23.6586 15.0334 24.3454 15.2174 24.8404 14.8721L25.2171 14.6092C25.4866 14.4212 25.8532 14.6328 25.8251 14.9603L25.7859 15.4179C25.7343 16.0193 26.2371 16.5221 26.8384 16.4705L27.2961 16.4312C27.6236 16.4032 27.8352 16.7697 27.6471 17.0393L27.3843 17.416C27.0389 17.911 27.2229 18.5978 27.7696 18.8538L28.1856 19.0486C28.4832 19.1881 28.4832 19.6114 28.1856 19.7507Z" fill="#FB5858"/>
<path d="M22.8567 26.5649C18.9058 26.5649 15.6914 23.3506 15.6914 19.3996C15.6914 15.4487 18.9058 12.2344 22.8567 12.2344C26.8077 12.2344 30.0221 15.4487 30.0221 19.3996C30.0221 23.3506 26.8077 26.5649 22.8567 26.5649ZM22.8567 13.1718C19.4227 13.1718 16.6289 15.9656 16.6289 19.3996C16.6289 22.8336 19.4227 25.6274 22.8567 25.6274C26.2908 25.6274 29.0846 22.8336 29.0846 19.3996C29.0846 15.9656 26.2907 13.1718 22.8567 13.1718ZM23.6098 18.8853L24.0877 16.018C24.1262 15.7869 23.948 15.5766 23.7138 15.5766C23.6013 15.5766 23.4946 15.6266 23.4226 15.713L20.9294 18.7049C20.7236 18.9517 20.8992 19.3266 21.2206 19.3266H21.8388C22.0731 19.3266 22.2512 19.5369 22.2127 19.768L21.7348 22.6353C21.6963 22.8663 21.8745 23.0766 22.1087 23.0766C22.2212 23.0766 22.3279 23.0267 22.3999 22.9403L24.8931 19.9484C25.0989 19.7015 24.9233 19.3266 24.6019 19.3266H23.9837C23.7495 19.3266 23.5713 19.1163 23.6098 18.8853Z" fill="#FFF5F5"/>
</g>
<defs>
<clipPath id="clip0_1277_43501">
<rect width="32" height="32" fill="white"/>
</clipPath>
</defs>
</svg>
