<svg width="32" height="32" viewBox="0 0 32 32" fill="none" xmlns="http://www.w3.org/2000/svg">
<g clip-path="url(#clip0_1277_43446)">
<path d="M32 16C32 23.7517 26.4875 30.2159 19.1688 31.6863C18.8028 31.7598 18.4323 31.0934 18.0578 31.1415C17.3754 31.229 16.688 31.2728 16 31.2726C11.0069 31.2726 7.00731 28.9201 4.07312 25.4428C3.78969 25.1069 3.06106 25.4244 2.807 25.0549C1.03637 22.4801 0 19.3611 0 16C0 7.16344 7.16344 0 16 0C24.8366 0 32 7.16344 32 16Z" fill="white"/>
<path d="M28.0845 14.8364C28.0845 21.7576 22.4738 27.3682 15.5527 27.3682C8.63168 27.3682 3.021 21.7575 3.021 14.8364C3.021 7.91537 8.63162 2.30469 15.5527 2.30469C22.4739 2.30469 28.0845 7.91531 28.0845 14.8364Z" fill="white"/>
<path d="M25.2165 10.7113C25.2165 12.5104 23.758 13.9689 21.9589 13.9689H9.65814C7.85901 13.9689 6.40051 12.5104 6.40051 10.7113C6.40051 8.91216 7.85901 7.45366 9.65814 7.45366H9.90739C10.0662 5.80266 11.4573 4.51172 13.15 4.51172H18.4671C20.1598 4.51172 21.5509 5.80266 21.7096 7.45366H21.9589C23.758 7.45366 25.2165 8.91216 25.2165 10.7113Z" fill="#D5F1FE"/>
<path d="M22.0228 13.9689H14.2859C12.4868 13.9689 11.0283 12.5104 11.0283 10.7113C11.0283 8.91216 12.4868 7.45366 14.2859 7.45366H14.5351C14.6939 5.80266 16.085 4.51172 17.7777 4.51172H18.531C20.2236 4.51172 21.6148 5.80266 21.7735 7.45366H22.0228C23.8219 7.45366 25.2804 8.91216 25.2804 10.7113C25.2804 12.5104 23.8219 13.9689 22.0228 13.9689Z" fill="#FFF5F5"/>
<path d="M24.2059 6.03391C24.2796 6.9526 23.965 7.89647 23.2623 8.59922C22.5596 9.30197 21.6157 9.61647 20.697 9.54285C20.6234 8.62416 20.9379 7.68029 21.6406 6.97754C22.3433 6.27479 23.2872 5.96029 24.2059 6.03391Z" fill="#93E2C6"/>
<path d="M10.5144 8.22644C9.59572 8.30007 8.65184 7.9855 7.94909 7.28282C7.24634 6.58013 6.93184 5.63619 7.00547 4.7175C7.92416 4.64388 8.86803 4.95844 9.57078 5.66113C10.2735 6.36382 10.588 7.30775 10.5144 8.22644Z" fill="#20B7A1"/>
<path d="M21.1772 29.4756C20.5794 30.2458 19.9351 30.9786 19.2479 31.6701C18.1792 31.89 17.091 32.0006 16 32C15.2931 32 14.5969 31.9541 13.9142 31.8652C12.0999 31.6291 10.4615 30.66 9.3608 29.1984C6.3633 25.2181 4.58643 20.2666 4.58643 14.9C4.58643 13.4406 4.71786 12.0119 4.96949 10.625H11.0283L12.4712 11.5705H25.3912C25.6429 12.9573 24.3027 25.4491 21.1772 29.4756Z" fill="#F44545"/>
<path d="M32 16.1174V15.1207C32 12.6418 29.9832 10.625 27.5043 10.625H21.6304L21.1617 10.9854L20.6929 10.625H11.0284C10.8726 11.8226 10.7946 13.029 10.7949 14.2366C10.7949 19.9244 12.5102 25.2116 15.4517 29.6091C16.2765 29.738 17.1101 29.8025 17.945 29.8022C19.0523 29.8022 20.1333 29.6898 21.1772 29.4756C22.5662 27.6862 23.7054 25.6933 24.5425 23.5492H24.5682C28.666 23.5492 32 20.2153 32 16.1174ZM24.9952 22.2846C25.7535 19.9599 26.1635 17.4778 26.1635 14.9C26.1635 13.8752 26.0987 12.8656 25.9729 11.875H27.5043C29.294 11.875 30.75 13.331 30.75 15.1207V16.1174C30.75 19.3826 28.2054 22.0646 24.9952 22.2846Z" fill="#FB5858"/>
<path d="M11.2272 23.398C13.5261 25.697 14.3956 28.8841 13.8358 31.8549C9.26383 31.2366 5.30484 28.6873 2.80709 25.055C2.44557 23.6664 2.40271 22.2141 2.68171 20.8067C5.67759 20.2124 8.90533 21.0762 11.2272 23.398Z" fill="#199A8E"/>
<path d="M13.9822 30.6782C13.5638 30.6529 13.1469 30.6068 12.7331 30.5398C12.3496 29.4288 11.3907 28.037 10.0396 26.7568C8.60197 25.3945 7.06216 24.4823 5.90385 24.2155C6.23266 25.3577 7.22628 26.8462 8.66391 28.2085C9.63653 29.1301 10.6559 29.8457 11.5722 30.2948C7.17635 29.1459 3.72135 25.6698 2.60278 21.2616C2.62535 21.1095 2.6516 20.9578 2.68153 20.8066C5.67741 20.2124 8.90522 21.0762 11.2271 23.398C13.2248 25.3957 14.1432 28.064 13.9822 30.6782Z" fill="#20B7A1"/>
<path d="M17.9604 24.125C17.9604 27.3255 16.3724 30.1551 13.9413 31.8687C13.7815 31.8483 13.622 31.8253 13.4629 31.7999C11.0862 30.0799 9.54001 27.283 9.54001 24.125C9.54001 20.8414 11.2116 17.9483 13.7503 16.25C16.2889 17.9483 17.9604 20.8414 17.9604 24.125Z" fill="#93E2C6"/>
<path d="M13.832 31.8543C13.7889 31.8485 13.7459 31.8424 13.703 31.8363C13.703 31.8363 13.5269 31.8101 13.4628 31.7999C11.0862 30.0799 9.54001 27.283 9.54001 24.125C9.54001 20.8414 11.2116 17.9483 13.7503 16.25C13.7693 16.2627 13.7883 16.2756 13.8073 16.2885C12.4285 18.4139 11.5983 21.1538 11.5983 24.1442C11.5983 26.8966 12.3016 29.4367 13.4886 31.4808C13.0351 30.436 12.7503 28.9275 12.7503 27.2501C12.7503 25.2695 13.1473 23.5244 13.7503 22.5001C14.3533 23.5244 14.7503 25.2695 14.7503 27.2501C14.7503 29.1396 14.3888 30.8149 13.832 31.8543Z" fill="#24D3B5"/>
<path d="M12.1742 9.0055C12.1742 9.35069 11.8944 9.6305 11.5492 9.6305C11.204 9.6305 10.9242 9.35069 10.9242 9.0055C10.9242 8.66031 11.204 8.3805 11.5492 8.3805C11.8944 8.3805 12.1742 8.66038 12.1742 9.0055ZM24.6554 7.97619C24.3102 7.97619 24.0304 8.256 24.0304 8.60119C24.0304 8.94637 24.3102 9.22619 24.6554 9.22619C25.0006 9.22619 25.2804 8.94637 25.2804 8.60119C25.2804 8.256 25.0006 7.97619 24.6554 7.97619ZM6.995 7.97619C6.64981 7.97619 6.37 8.256 6.37 8.60119C6.37 8.94637 6.64981 9.22619 6.995 9.22619C7.34018 9.22619 7.62 8.94637 7.62 8.60119C7.62 8.256 7.34018 7.97619 6.995 7.97619ZM20.5367 4.77344C20.1916 4.77344 19.9117 5.05325 19.9117 5.39844C19.9117 5.74362 20.1916 6.02344 20.5367 6.02344C20.8819 6.02344 21.1617 5.74362 21.1617 5.39844C21.1617 5.05325 20.8819 4.77344 20.5367 4.77344ZM14.1252 7.1305C13.7801 7.1305 13.5002 7.41031 13.5002 7.7555C13.5002 8.10069 13.7801 8.3805 14.1252 8.3805C14.4704 8.3805 14.7502 8.10069 14.7502 7.7555C14.7502 7.41038 14.4704 7.1305 14.1252 7.1305Z" fill="#2E5180"/>
<path d="M18.4049 6.7494C18.3617 6.81078 18.3042 6.86084 18.2375 6.89535C18.1708 6.92987 18.0968 6.94783 18.0217 6.94771C17.9249 6.94775 17.8306 6.9177 17.7516 6.86171C17.7014 6.8262 17.6586 6.78112 17.6257 6.72906C17.5929 6.67701 17.5706 6.61899 17.5601 6.55832C17.5497 6.49765 17.5513 6.43553 17.5649 6.37549C17.5785 6.31545 17.6038 6.25867 17.6393 6.2084C18.1105 5.54159 18.1106 4.41503 17.6393 3.74834C16.9375 2.75515 16.9375 1.19928 17.6393 0.206151C17.6748 0.155868 17.7199 0.113074 17.772 0.0802141C17.824 0.0473545 17.882 0.0250733 17.9427 0.0146434C18.0034 0.00421353 18.0655 0.00583935 18.1255 0.019428C18.1856 0.0330166 18.2424 0.0583018 18.2926 0.0938389C18.3429 0.129357 18.3857 0.174432 18.4186 0.226488C18.4514 0.278545 18.4737 0.336563 18.4841 0.397231C18.4945 0.457898 18.4929 0.520026 18.4793 0.580066C18.4658 0.640106 18.4405 0.696882 18.4049 0.747151C17.9338 1.4139 17.9338 2.54046 18.4049 3.20721C19.1068 4.20028 19.1068 5.75621 18.4049 6.7494ZM15.9356 0.747151C16.0074 0.645623 16.0359 0.519748 16.0148 0.397216C15.9938 0.274685 15.9249 0.165534 15.8234 0.0937764C15.7219 0.0220188 15.596 -0.00646792 15.4734 0.014583C15.3509 0.035634 15.2418 0.104498 15.17 0.206026C14.4681 1.19921 14.4681 2.75509 15.17 3.74821C15.6412 4.41496 15.6412 5.54153 15.17 6.20834C15.1345 6.25861 15.1092 6.31538 15.0956 6.37542C15.082 6.43546 15.0804 6.49759 15.0908 6.55826C15.1013 6.61893 15.1235 6.67695 15.1564 6.729C15.1893 6.78106 15.232 6.82613 15.2823 6.86165C15.3612 6.91766 15.4556 6.94772 15.5524 6.94765C15.6275 6.94777 15.7015 6.92982 15.7682 6.8953C15.8349 6.86079 15.8924 6.81072 15.9356 6.74934C16.6374 5.75615 16.6374 4.20028 15.9356 3.20709C15.4644 2.54046 15.4644 1.41384 15.9356 0.747151ZM13.4663 0.747151C13.538 0.645623 13.5665 0.519748 13.5454 0.397216C13.5244 0.274685 13.4555 0.165534 13.354 0.0937764C13.2525 0.0220188 13.1266 -0.00646792 13.0041 0.014583C12.8815 0.035634 12.7724 0.104498 12.7006 0.206026C11.9988 1.19921 11.9988 2.75509 12.7006 3.74821C13.1718 4.41496 13.1718 5.54153 12.7006 6.20834C12.6651 6.25861 12.6398 6.31538 12.6262 6.37542C12.6127 6.43546 12.611 6.49759 12.6215 6.55826C12.6319 6.61893 12.6542 6.67695 12.687 6.729C12.7199 6.78106 12.7627 6.82613 12.8129 6.86165C12.8919 6.91766 12.9862 6.94772 13.083 6.94765C13.1581 6.94777 13.2321 6.92982 13.2989 6.8953C13.3656 6.86079 13.423 6.81072 13.4663 6.74934C14.1681 5.75615 14.1681 4.20028 13.4663 3.20709C12.995 2.54046 12.995 1.41384 13.4663 0.747151Z" fill="#B46E5A"/>
<path d="M21.1617 17.6316C21.0374 17.6316 20.9182 17.5822 20.8303 17.4943C20.7424 17.4064 20.693 17.2872 20.693 17.1629V10.625H21.6305V17.1629C21.6305 17.2872 21.5811 17.4064 21.4932 17.4943C21.4053 17.5822 21.2861 17.6316 21.1617 17.6316Z" fill="#1C314E"/>
<path d="M22.7038 22.2841H19.6197C19.5368 22.2841 19.4573 22.2511 19.3987 22.1925C19.3401 22.1339 19.3072 22.0544 19.3072 21.9716V17.7422C19.3072 17.6593 19.3401 17.5798 19.3987 17.5212C19.4573 17.4626 19.5368 17.4297 19.6197 17.4297H22.7038C22.7867 17.4297 22.8662 17.4626 22.9248 17.5212C22.9834 17.5798 23.0163 17.6593 23.0163 17.7422V21.9716C23.0163 22.0544 22.9834 22.1339 22.9248 22.1925C22.8662 22.2511 22.7867 22.2841 22.7038 22.2841Z" fill="#FF94D2"/>
<path d="M22.7038 22.2841H21.0055C20.9226 22.2841 20.8431 22.2511 20.7845 22.1925C20.7259 22.1339 20.693 22.0544 20.693 21.9716V17.7422C20.693 17.6593 20.7259 17.5798 20.7845 17.5212C20.8431 17.4626 20.9226 17.4297 21.0055 17.4297H22.7038C22.7867 17.4297 22.8662 17.4626 22.9248 17.5212C22.9834 17.5798 23.0163 17.6593 23.0163 17.7422V21.9716C23.0163 22.0544 22.9834 22.1339 22.9248 22.1925C22.8662 22.2511 22.7867 22.2841 22.7038 22.2841Z" fill="#FFAEE0"/>
<path d="M21.1617 19.0111C21.0374 19.0111 20.9182 18.9617 20.8303 18.8738C20.7424 18.7859 20.693 18.6667 20.693 18.5424V17.0703C20.693 16.946 20.7424 16.8268 20.8303 16.7389C20.9182 16.6509 21.0374 16.6016 21.1617 16.6016C21.2861 16.6016 21.4053 16.6509 21.4932 16.7389C21.5811 16.8268 21.6305 16.946 21.6305 17.0703V18.5424C21.6305 18.6667 21.5811 18.7859 21.4932 18.8738C21.4053 18.9617 21.2861 19.0111 21.1617 19.0111Z" fill="#FFC7E7"/>
</g>
<defs>
<clipPath id="clip0_1277_43446">
<rect width="32" height="32" fill="white"/>
</clipPath>
</defs>
</svg>
