<svg width="32" height="32" viewBox="0 0 32 32" fill="none" xmlns="http://www.w3.org/2000/svg">
<path d="M32 16.001C32 21.206 29.5146 25.8304 25.6659 28.7524C25.5299 28.8556 6.37994 28.7891 6.20087 28.6501C2.42812 25.7232 0 21.1456 0 16.001C0 11.4206 1.92475 7.28971 5.00956 4.37302C5.141 4.24877 26.9642 4.34802 27.0055 4.38721C30.0815 7.30309 32 11.428 32 16.001Z" fill="#F2D1A5"/>
<path d="M29.5439 16.0009C29.5439 23.481 23.4801 29.5448 16 29.5448C8.51993 29.5448 2.45612 23.481 2.45612 16.0009C2.45612 8.52084 8.51993 2.45703 16 2.45703C23.4801 2.45703 29.5439 8.52084 29.5439 16.0009Z" fill="#FFE4C2"/>
<path d="M25.7828 28.662C23.0754 30.7568 19.6779 32.0026 15.9897 32.0002C12.3015 31.9978 8.90556 30.7477 6.20088 28.6493C3.94138 25.265 3.54313 21.101 5.31231 17.3117C6.20238 15.4054 6.69188 13.3293 6.69325 11.1568C6.69456 9.07958 6.24906 7.09008 5.43394 5.25214C5.36194 5.08977 7.83713 5.84371 9.33588 5.84371C11.5084 5.84371 13.4893 5.02345 14.9858 3.67577C15.2636 3.42437 15.6249 3.28516 15.9996 3.28516C16.3743 3.28516 16.7356 3.42437 17.0134 3.67577C18.5099 5.02345 20.4908 5.84371 22.6633 5.84371C24.1746 5.84371 26.6666 5.07233 26.5939 5.23458C25.7676 7.08014 25.3144 9.07977 25.3131 11.1688C25.3117 13.3413 25.7984 15.418 26.6861 17.3255C28.4503 21.117 28.0467 25.2805 25.7828 28.662Z" fill="#784132"/>
<path d="M6.925 29.1794C6.67872 29.0095 6.43723 28.8328 6.20082 28.6494C3.94132 25.265 3.54307 21.101 5.31225 17.3117C6.20232 15.4054 6.69182 13.3294 6.69319 11.1569C6.6945 9.07956 6.249 7.09012 5.43388 5.25218C5.302 4.95481 11.9585 4.44181 12.1582 5.34712C12.3329 6.13893 8.17219 6.94812 8.25482 7.77175C8.32604 8.48287 8.36144 9.19713 8.36088 9.91181C8.35919 12.5592 7.86944 15.0892 6.97907 17.4125C5.49294 21.2907 5.53532 25.4907 6.925 29.1794Z" fill="#61362B"/>
<path d="M14.5519 27.8218H17.4481L16.3338 31.9978C16.1113 32.0023 15.8887 32.0023 15.6663 31.9978L14.5519 27.8218ZM16 13.0664C15.6123 13.0664 15.2979 13.3808 15.2979 13.7685C15.2979 14.1563 15.6123 14.4707 16 14.4707C16.3878 14.4707 16.7021 14.1563 16.7021 13.7685C16.7021 13.3807 16.3878 13.0664 16 13.0664Z" fill="#4C2C21"/>
<path d="M27.5387 19.8491C23.6432 21.0687 20.508 23.3998 18.8218 26.3209C18.4951 26.8868 13.5047 26.8868 13.1781 26.3209C11.4919 23.3998 8.35668 21.0686 4.46118 19.8491C4.64343 18.9955 4.92624 18.1477 5.31312 17.3178C5.43938 17.0461 5.55752 16.7708 5.66737 16.4922C8.76549 17.636 12.2779 18.2816 15.9999 18.2816C19.722 18.2816 23.2344 17.6361 26.3325 16.4922C26.5199 16.7773 26.5966 17.0096 26.7233 17.2812C27.1102 18.1111 27.4216 18.9688 27.5387 19.8491Z" fill="#B46E5A"/>
<path d="M7.13643 16.9873C7.08554 17.1293 7.03312 17.2707 6.97918 17.4116C6.60089 18.3983 6.31714 19.4187 6.13174 20.4591C5.58481 20.2296 5.02738 20.0261 4.4613 19.8491C4.56787 18.9688 4.87793 18.0992 5.26474 17.2693C5.39137 16.9976 5.49212 16.7746 5.66749 16.4922C6.15237 16.6711 6.64221 16.8362 7.13643 16.9873Z" fill="#A65D4E"/>
<path d="M16 24.9883C14.9966 24.9883 14.0423 25.4637 13.1781 26.3205C13.5048 26.8863 13.7771 27.4744 13.9899 28.0808C14.1745 28.6065 14.6581 28.972 15.2146 28.9988C15.7379 29.0241 16.2621 29.0241 16.7854 28.9988C17.3419 28.972 17.8255 28.6065 18.0101 28.0808C18.2229 27.4745 18.4953 26.8864 18.8219 26.3205C17.9578 25.4637 17.0034 24.9883 16 24.9883Z" fill="#E09380"/>
<path d="M13.4879 5.51577C12.3576 6.12696 11.0634 6.47402 9.68824 6.47402C8.12486 6.47402 6.66618 6.02552 5.43393 5.25021C5.30184 4.95245 5.16031 4.65897 5.00955 4.37021C6.84349 2.63627 9.08736 1.33146 11.5804 0.616458C11.6513 0.596146 11.7082 0.677583 11.6646 0.737083C11.2904 1.24752 11.0716 1.89802 11.0716 2.59171C11.0716 4.2094 12.2041 5.39733 13.4879 5.51577Z" fill="#A65D4E"/>
<path d="M27.0054 4.38619C26.8596 4.66467 26.7224 4.94755 26.5939 5.23444C25.3558 6.02057 23.8869 6.47582 22.3118 6.47582C20.2514 6.47582 18.373 5.69694 16.9549 4.41757C16.4097 3.92569 15.5881 3.928 15.0428 4.41969C14.6407 4.78223 14.203 5.10316 13.7363 5.37757C11.9939 6.40169 9.79788 5.12832 9.79788 3.10725C9.79788 1.93307 10.5766 0.896628 11.7079 0.582316C13.0771 0.201878 14.5199 -0.000934264 16.0103 3.23556e-06C20.2701 0.00275324 24.1401 1.67 27.0054 4.38619Z" fill="#B46E5A"/>
<path d="M21.3288 14.7976L20.9129 14.9924C20.3662 15.2484 20.1822 15.9353 20.5276 16.4303L20.7904 16.8069C20.9785 17.0765 20.7669 17.4431 20.4394 17.415L19.9817 17.3758C19.3804 17.3242 18.8776 17.8269 18.9292 18.4283L18.9684 18.8859C18.9965 19.2134 18.6299 19.4251 18.3604 19.237L17.9837 18.9742C17.4887 18.6288 16.8019 18.8128 16.5459 19.3594L16.3511 19.7754C16.2116 20.073 15.7884 20.073 15.6489 19.7754L15.4541 19.3594C15.1981 18.8128 14.5113 18.6288 14.0163 18.9742L13.6396 19.237C13.3701 19.4251 13.0035 19.2134 13.0316 18.8859L13.0708 18.4283C13.1224 17.8269 12.6196 17.3241 12.0182 17.3758L11.5606 17.415C11.2332 17.4431 11.0215 17.0765 11.2096 16.8069L11.4724 16.4303C11.8177 15.9353 11.6337 15.2484 11.0871 14.9924L10.6712 14.7976C10.3736 14.6582 10.3736 14.2349 10.6712 14.0955L11.0871 13.9007C11.6337 13.6447 11.8177 12.9579 11.4724 12.4629L11.2096 12.0862C11.0215 11.8166 11.2331 11.4501 11.5606 11.4781L12.0182 11.5174C12.6196 11.5689 13.1224 11.0662 13.0708 10.4648L13.0316 10.0072C13.0035 9.67975 13.3701 9.46806 13.6396 9.65612L14.0163 9.91894C14.5113 10.2643 15.1981 10.0803 15.4541 9.53369L15.6489 9.11775C15.7884 8.82012 16.2116 8.82012 16.3511 9.11775L16.5459 9.53369C16.8019 10.0803 17.4887 10.2643 17.9837 9.91894L18.3604 9.65612C18.6299 9.46806 18.9965 9.67969 18.9684 10.0072L18.9292 10.4648C18.8776 11.0662 19.3804 11.5689 19.9817 11.5174L20.4394 11.4781C20.7668 11.4501 20.9785 11.8166 20.7904 12.0862L20.5276 12.4629C20.1822 12.9579 20.3662 13.6447 20.9129 13.9007L21.3288 14.0955C21.6264 14.2349 21.6264 14.6582 21.3288 14.7976Z" fill="#F44545"/>
<path d="M21.3287 14.7976L20.9128 14.9924C20.3662 15.2484 20.1822 15.9353 20.5275 16.4303L20.7903 16.8069C20.9784 17.0765 20.7667 17.4431 20.4392 17.415L19.9816 17.3758C19.3802 17.3242 18.8774 17.8269 18.9291 18.4283L18.9636 18.8308C15.5319 17.8687 12.8781 15.046 12.1589 11.5194C12.6957 11.4887 13.1182 11.0186 13.0707 10.4648L13.0314 10.0072C13.0034 9.67969 13.3699 9.46806 13.6395 9.65612L14.0162 9.91894C14.5112 10.2643 15.198 10.0803 15.454 9.53369L15.6488 9.11775C15.7882 8.82012 16.2115 8.82012 16.3509 9.11775L16.5457 9.53369C16.8017 10.0803 17.4886 10.2643 17.9836 9.91894L18.3602 9.65612C18.6298 9.46806 18.9964 9.67969 18.9683 10.0072L18.9291 10.4648C18.8775 11.0662 19.3802 11.569 19.9816 11.5174L20.4392 11.4781C20.7667 11.4501 20.9784 11.8166 20.7903 12.0862L20.5275 12.4629C20.1821 12.9579 20.3661 13.6447 20.9128 13.9007L21.3287 14.0955C21.6264 14.2349 21.6264 14.6582 21.3287 14.7976Z" fill="#FB5858"/>
<path d="M16 21.6118C12.0491 21.6118 8.83469 18.3975 8.83469 14.4466C8.83469 10.4956 12.0491 7.28125 16 7.28125C19.9509 7.28125 23.1653 10.4956 23.1653 14.4466C23.1653 18.3975 19.9509 21.6118 16 21.6118ZM16 8.21881C12.566 8.21881 9.77219 11.0126 9.77219 14.4466C9.77219 17.8806 12.5659 20.6744 16 20.6744C19.4341 20.6744 22.2278 17.8806 22.2278 14.4466C22.2278 11.0126 19.434 8.21881 16 8.21881ZM16.7531 13.9322L17.2309 11.0649C17.2694 10.8339 17.0912 10.6236 16.8571 10.6236C16.7446 10.6236 16.6379 10.6735 16.5659 10.7599L14.0726 13.7518C13.8669 13.9987 14.0424 14.3736 14.3638 14.3736H14.9821C15.2163 14.3736 15.3944 14.5839 15.3559 14.8149L14.8781 17.6822C14.8396 17.9132 15.0177 18.1236 15.2519 18.1236C15.3644 18.1236 15.4711 18.0736 15.5431 17.9872L18.0364 14.9953C18.2421 14.7484 18.0666 14.3736 17.7452 14.3736H17.1269C16.8927 14.3736 16.7146 14.1632 16.7531 13.9322Z" fill="#FFF5F5"/>
</svg>
