<svg width="32" height="32" viewBox="0 0 32 32" fill="none" xmlns="http://www.w3.org/2000/svg">
<g clip-path="url(#clip0_1277_43398)">
<path d="M32 16C32 21.5138 29.211 26.3761 24.9668 29.2532C24.9379 29.2728 24.898 29.1973 24.8689 29.2167C24.626 29.3791 24.3786 29.5349 24.1271 29.6838C24.091 29.7051 24.0656 29.8214 24.0293 29.8425C21.6693 31.2144 18.9264 32 16 32C7.16344 32 0 24.8366 0 16C0 7.16344 7.16344 0 16 0C18.9264 0 21.6693 0.785625 24.0293 2.1575C24.1222 2.2115 24.1091 2.45081 24.2008 2.50662C24.35 2.59742 24.4977 2.69064 24.6438 2.78625C24.7167 2.834 24.8947 2.69788 24.9668 2.74675C29.211 5.62394 32 10.4862 32 16Z" fill="#254167"/>
<path d="M25.1249 14.0259C25.1249 20.1628 20.1499 25.1376 14.0131 25.1376C7.87631 25.1376 2.90137 20.1627 2.90137 14.0259C2.90137 7.88906 7.87624 2.91406 14.0131 2.91406C20.15 2.91406 25.1249 7.889 25.1249 14.0259Z" fill="#2E5180"/>
<path d="M19.8675 24.8519C19.8675 26.1617 19.5153 27.3891 18.9004 28.4447C17.8448 29.0596 16.6173 29.4119 15.3076 29.4119C11.3594 29.4119 8.15875 26.2112 8.15875 22.2631C8.15875 20.9533 8.511 19.7259 9.12582 18.6702C10.1815 18.0554 11.4089 17.7031 12.7187 17.7031C16.6669 17.7031 19.8675 20.9037 19.8675 24.8519Z" fill="#FFAEE0"/>
<path d="M19.0054 28.2554C17.7951 30.4846 15.4336 31.9981 12.7187 31.9981C8.77051 31.9981 5.56989 28.7974 5.56989 24.8492C5.56989 22.1343 7.08332 19.7728 9.31257 18.5625C8.76282 19.5751 8.45051 20.7354 8.45051 21.9686C8.45051 25.9168 11.6511 29.1174 15.5993 29.1174C16.8326 29.1174 17.9928 28.8052 19.0054 28.2554Z" fill="#FF94D2"/>
<path d="M15.4904 26.3057C14.7262 26.9925 13.7225 27.336 12.7187 27.336C11.7149 27.336 10.7111 26.9925 9.94693 26.3057C9.85447 26.2225 9.79881 26.1061 9.7922 25.982C9.78559 25.8578 9.82857 25.7361 9.91168 25.6437C9.99479 25.5512 10.1112 25.4955 10.2354 25.4889C10.3595 25.4823 10.4812 25.5253 10.5737 25.6084C11.7564 26.6716 13.681 26.6716 14.8637 25.6084C14.9566 25.5277 15.0774 25.4868 15.2001 25.4944C15.3229 25.5019 15.4377 25.5574 15.5199 25.6489C15.6021 25.7403 15.6451 25.8605 15.6396 25.9833C15.6341 26.1062 15.5805 26.2219 15.4904 26.3057ZM11.4687 24.5508C11.593 24.5508 11.7122 24.5014 11.8001 24.4135C11.888 24.3256 11.9374 24.2064 11.9374 24.082V22.832C11.9374 22.5732 11.7276 22.3633 11.4687 22.3633C11.2097 22.3633 10.9999 22.5732 10.9999 22.832V24.082C10.9999 24.2064 11.0493 24.3256 11.1372 24.4135C11.2251 24.5014 11.3444 24.5508 11.4687 24.5508ZM13.9687 24.5508C14.093 24.5508 14.2122 24.5014 14.3001 24.4135C14.388 24.3256 14.4374 24.2064 14.4374 24.082V22.832C14.4374 22.5732 14.2276 22.3633 13.9687 22.3633C13.7097 22.3633 13.4999 22.5732 13.4999 22.832V24.082C13.4999 24.2064 13.5493 24.3256 13.6372 24.4135C13.7251 24.5014 13.8444 24.5508 13.9687 24.5508Z" fill="#FF50B5"/>
<path d="M19.8675 16.0004C19.8675 17.3101 19.5153 18.5376 18.9004 19.5932C17.8448 20.2081 16.6173 20.5603 15.3076 20.5603C11.3594 20.5603 8.15875 17.3597 8.15875 13.4115C8.15875 12.1017 8.511 10.8743 9.12582 9.81869C10.1815 9.20381 11.4089 8.85156 12.7187 8.85156C16.6669 8.85156 19.8675 12.0522 19.8675 16.0004Z" fill="#93DCFC"/>
<path d="M19.0054 19.4077C17.7951 21.637 15.4336 23.1504 12.7187 23.1504C8.77051 23.1504 5.56989 19.9498 5.56989 16.0016C5.56989 13.2867 7.08332 10.9252 9.31257 9.71484C8.76282 10.7275 8.45051 11.8877 8.45051 13.121C8.45051 17.0692 11.6511 20.2698 15.5993 20.2698C16.8326 20.2698 17.9928 19.9575 19.0054 19.4077Z" fill="#72D1FB"/>
<path d="M15.6874 17.875C15.6874 17.9993 15.638 18.1185 15.5501 18.2065C15.4622 18.2944 15.3429 18.3438 15.2186 18.3438H10.2186C9.95969 18.3438 9.74988 18.1339 9.74988 17.875C9.74988 17.6161 9.95969 17.4062 10.2186 17.4062H15.2186C15.3429 17.4062 15.4622 17.4556 15.5501 17.5435C15.638 17.6315 15.6874 17.7507 15.6874 17.875ZM11.4686 15.8438C11.5929 15.8438 11.7122 15.7944 11.8001 15.7065C11.888 15.6185 11.9374 15.4993 11.9374 15.375V14.125C11.9374 13.8661 11.7276 13.6562 11.4686 13.6562C11.2097 13.6562 10.9999 13.8661 10.9999 14.125V15.375C10.9999 15.4993 11.0493 15.6185 11.1372 15.7065C11.2251 15.7944 11.3443 15.8438 11.4686 15.8438ZM13.9686 15.8438C14.0929 15.8438 14.2122 15.7944 14.3001 15.7065C14.388 15.6185 14.4374 15.4993 14.4374 15.375V14.125C14.4374 13.8661 14.2276 13.6562 13.9686 13.6562C13.7097 13.6562 13.4999 13.8661 13.4999 14.125V15.375C13.4999 15.4993 13.5493 15.6185 13.6372 15.7065C13.7251 15.7944 13.8443 15.8438 13.9686 15.8438Z" fill="#057AAD"/>
<path d="M19.8675 7.14881C19.8675 8.45856 19.5153 9.686 18.9004 10.7416C17.8448 11.3565 16.6173 11.7087 15.3076 11.7087C11.3594 11.7087 8.15875 8.50813 8.15875 4.55994C8.15875 3.25019 8.511 2.02275 9.12582 0.967125C10.1815 0.35225 11.4089 0 12.7187 0C16.6669 0 19.8675 3.20062 19.8675 7.14881Z" fill="#909090"/>
<path d="M19.0054 10.5562C17.7951 12.7854 15.4336 14.2988 12.7187 14.2988C8.77051 14.2988 5.56989 11.0982 5.56989 7.15003C5.56989 4.43509 7.08332 2.07366 9.31257 0.863281C8.76282 1.87591 8.45051 3.03616 8.45051 4.26941C8.45051 8.21759 11.6511 11.4182 15.5993 11.4182C16.8326 11.4182 17.9928 11.1059 19.0054 10.5562Z" fill="#808080"/>
<path d="M24.9668 6.2895C24.9668 6.54838 24.757 6.75825 24.498 6.75825C24.2391 6.75825 24.0293 6.54838 24.0293 6.2895V2.15625C24.3485 2.3418 24.6612 2.53835 24.9668 2.74556V6.2895Z" fill="#636363"/>
<path d="M24.9668 19.9453V29.2533C24.6612 29.4605 24.3485 29.6571 24.0293 29.8426V19.9453C24.0293 19.6864 24.2391 19.4766 24.498 19.4766C24.757 19.4766 24.9668 19.6864 24.9668 19.9453Z" fill="#FF94D2"/>
<path d="M24.9668 7.70703V20.2707C24.9668 20.5295 24.757 20.7394 24.498 20.7394C24.2391 20.7394 24.0293 20.5295 24.0293 20.2707V7.70703C24.0293 7.44816 24.2391 7.23828 24.498 7.23828C24.757 7.23828 24.9668 7.44816 24.9668 7.70703Z" fill="#72D1FB"/>
<path d="M27.9977 4.64102V8.40534L24.637 8.33802C24.637 8.33802 20.5548 7.32934 20.6782 7.14602C20.7169 7.08846 20.7734 7.04021 20.8476 7.00984L27.4806 4.29396C27.7273 4.19296 27.9977 4.3744 27.9977 4.64102Z" fill="#909090"/>
<path d="M27.9977 8.40384V10.0712C27.9977 10.3378 27.7273 10.5193 27.4806 10.4183L20.8476 7.70241C20.6113 7.60566 20.5549 7.32784 20.6783 7.14453L27.9977 8.40384Z" fill="#808080"/>
<path d="M4.42138 19.0328C4.42138 18.9084 4.372 18.7892 4.28409 18.7013C4.19618 18.6134 4.07695 18.564 3.95263 18.564H2.92657C2.80225 18.564 2.68302 18.6134 2.59511 18.7013C2.50721 18.7892 2.45782 18.9084 2.45782 19.0328C2.45782 19.1571 2.50721 19.2763 2.59511 19.3642C2.68302 19.4521 2.80225 19.5015 2.92657 19.5015H3.95263C4.07695 19.5015 4.19618 19.4521 4.28409 19.3642C4.372 19.2763 4.42138 19.1571 4.42138 19.0328ZM4.42138 17.2074C4.42138 17.0831 4.372 16.9639 4.28409 16.876C4.19618 16.7881 4.07695 16.7387 3.95263 16.7387H2.18457C2.06025 16.7387 1.94102 16.7881 1.85311 16.876C1.76521 16.9639 1.71582 17.0831 1.71582 17.2074C1.71582 17.3318 1.76521 17.451 1.85311 17.5389C1.94102 17.6268 2.06025 17.6762 2.18457 17.6762H3.95263C4.07695 17.6762 4.19618 17.6268 4.28409 17.5389C4.372 17.451 4.42138 17.3318 4.42138 17.2074ZM4.42138 15.3821C4.42138 15.2578 4.372 15.1386 4.28409 15.0507C4.19618 14.9628 4.07695 14.9134 3.95263 14.9134H2.92657C2.80225 14.9134 2.68302 14.9628 2.59511 15.0507C2.50721 15.1386 2.45782 15.2578 2.45782 15.3821C2.45782 15.5064 2.50721 15.6257 2.59511 15.7136C2.68302 15.8015 2.80225 15.8509 2.92657 15.8509H3.95263C4.07695 15.8509 4.19618 15.8015 4.28409 15.7136C4.372 15.6257 4.42138 15.5064 4.42138 15.3821ZM4.42138 13.5569C4.42138 13.4326 4.372 13.3133 4.28409 13.2254C4.19618 13.1375 4.07695 13.0881 3.95263 13.0881H2.92657C2.80225 13.0881 2.68302 13.1375 2.59511 13.2254C2.50721 13.3133 2.45782 13.4326 2.45782 13.5569C2.45782 13.6812 2.50721 13.8004 2.59511 13.8883C2.68302 13.9762 2.80225 14.0256 2.92657 14.0256H3.95263C4.07695 14.0256 4.19618 13.9762 4.28409 13.8883C4.372 13.8004 4.42138 13.6812 4.42138 13.5569ZM4.42138 11.7316C4.42138 11.6072 4.372 11.488 4.28409 11.4001C4.19618 11.3122 4.07695 11.2628 3.95263 11.2628H2.18457C2.06025 11.2628 1.94102 11.3122 1.85311 11.4001C1.76521 11.488 1.71582 11.6072 1.71582 11.7316C1.71582 11.8559 1.76521 11.9751 1.85311 12.063C1.94102 12.1509 2.06025 12.2003 2.18457 12.2003H3.95263C4.07695 12.2003 4.19618 12.1509 4.28409 12.063C4.372 11.9751 4.42138 11.8559 4.42138 11.7316ZM4.42138 9.90625C4.42138 9.78193 4.372 9.6627 4.28409 9.57479C4.19618 9.48689 4.07695 9.4375 3.95263 9.4375H2.92657C2.80225 9.4375 2.68302 9.48689 2.59511 9.57479C2.50721 9.6627 2.45782 9.78193 2.45782 9.90625C2.45782 10.0306 2.50721 10.1498 2.59511 10.2377C2.68302 10.3256 2.80225 10.375 2.92657 10.375H3.95263C4.07695 10.375 4.19618 10.3256 4.28409 10.2377C4.372 10.1498 4.42138 10.0306 4.42138 9.90625ZM27.1136 11.7052H28.1397C28.264 11.7052 28.3832 11.7546 28.4712 11.8425C28.5591 11.9304 28.6084 12.0496 28.6084 12.1739C28.6084 12.2983 28.5591 12.4175 28.4712 12.5054C28.3832 12.5933 28.264 12.6427 28.1397 12.6427H27.1136C26.9893 12.6427 26.8701 12.5933 26.7822 12.5054C26.6943 12.4175 26.6449 12.2983 26.6449 12.1739C26.6449 12.0496 26.6943 11.9304 26.7822 11.8425C26.8701 11.7546 26.9893 11.7052 27.1136 11.7052ZM26.6449 13.9993C26.6449 14.1236 26.6943 14.2428 26.7822 14.3307C26.8701 14.4186 26.9893 14.468 27.1136 14.468H28.1397C28.264 14.468 28.3832 14.4186 28.4712 14.3307C28.5591 14.2428 28.6084 14.1236 28.6084 13.9993C28.6084 13.8749 28.5591 13.7557 28.4712 13.6678C28.3832 13.5799 28.264 13.5305 28.1397 13.5305H27.1136C26.9893 13.5305 26.8701 13.5799 26.7822 13.6678C26.6943 13.7557 26.6449 13.8749 26.6449 13.9993ZM26.6449 15.8245C26.6449 15.9488 26.6943 16.068 26.7822 16.156C26.8701 16.2439 26.9893 16.2933 27.1136 16.2933H28.8817C29.006 16.2933 29.1252 16.2439 29.2132 16.156C29.3011 16.068 29.3504 15.9488 29.3504 15.8245C29.3504 15.7002 29.3011 15.581 29.2132 15.493C29.1252 15.4051 29.006 15.3558 28.8817 15.3558H27.1136C26.9893 15.3558 26.8701 15.4051 26.7822 15.493C26.6943 15.581 26.6449 15.7002 26.6449 15.8245ZM26.6449 17.6498C26.6449 17.7741 26.6943 17.8934 26.7822 17.9813C26.8701 18.0692 26.9893 18.1186 27.1136 18.1186H28.1397C28.264 18.1186 28.3832 18.0692 28.4712 17.9813C28.5591 17.8934 28.6084 17.7741 28.6084 17.6498C28.6084 17.5255 28.5591 17.4063 28.4712 17.3184C28.3832 17.2304 28.264 17.1811 28.1397 17.1811H27.1136C26.9893 17.1811 26.8701 17.2304 26.7822 17.3184C26.6943 17.4063 26.6449 17.5255 26.6449 17.6498ZM26.6449 19.4751C26.6449 19.5994 26.6943 19.7187 26.7822 19.8066C26.8701 19.8945 26.9893 19.9439 27.1136 19.9439H28.1397C28.264 19.9439 28.3832 19.8945 28.4712 19.8066C28.5591 19.7187 28.6084 19.5994 28.6084 19.4751C28.6084 19.3508 28.5591 19.2316 28.4712 19.1437C28.3832 19.0558 28.264 19.0064 28.1397 19.0064H27.1136C26.9893 19.0064 26.8701 19.0558 26.7822 19.1437C26.6943 19.2316 26.6449 19.3508 26.6449 19.4751ZM26.6449 21.3004C26.6449 21.4248 26.6943 21.544 26.7822 21.6319C26.8701 21.7198 26.9893 21.7692 27.1136 21.7692H28.8817C29.006 21.7692 29.1252 21.7198 29.2132 21.6319C29.3011 21.544 29.3504 21.4248 29.3504 21.3004C29.3504 21.1761 29.3011 21.0569 29.2132 20.969C29.1252 20.8811 29.006 20.8317 28.8817 20.8317H27.1136C26.9893 20.8317 26.8701 20.8811 26.7822 20.969C26.6943 21.0569 26.6449 21.1761 26.6449 21.3004ZM26.6449 23.1257C26.6449 23.2501 26.6943 23.3693 26.7822 23.4572C26.8701 23.5451 26.9893 23.5945 27.1136 23.5945H28.1397C28.264 23.5945 28.3832 23.5451 28.4712 23.4572C28.5591 23.3693 28.6084 23.2501 28.6084 23.1257C28.6084 23.0014 28.5591 22.8822 28.4712 22.7943C28.3832 22.7064 28.264 22.657 28.1397 22.657H27.1136C26.9893 22.657 26.8701 22.7064 26.7822 22.7943C26.6943 22.8822 26.6449 23.0014 26.6449 23.1257ZM26.6449 24.9511C26.6449 25.0754 26.6943 25.1946 26.7822 25.2825C26.8701 25.3704 26.9893 25.4198 27.1136 25.4198H28.1397C28.264 25.4198 28.3832 25.3704 28.4712 25.2825C28.5591 25.1946 28.6084 25.0754 28.6084 24.9511C28.6084 24.8267 28.5591 24.7075 28.4712 24.6196C28.3832 24.5317 28.264 24.4823 28.1397 24.4823H27.1136C26.9893 24.4823 26.8701 24.5317 26.7822 24.6196C26.6943 24.7075 26.6449 24.8267 26.6449 24.9511Z" fill="#FFF5F5"/>
<path d="M15.6874 9.21875C15.6874 9.34307 15.638 9.4623 15.5501 9.55021C15.4622 9.63811 15.3429 9.6875 15.2186 9.6875H10.2186C9.95969 9.6875 9.74988 9.47762 9.74988 9.21875C9.74988 8.95988 9.95969 8.75 10.2186 8.75H15.2186C15.3429 8.75 15.4622 8.79939 15.5501 8.88729C15.638 8.9752 15.6874 9.09443 15.6874 9.21875ZM11.4686 7.1875C11.5929 7.1875 11.7122 7.13811 11.8001 7.05021C11.888 6.9623 11.9374 6.84307 11.9374 6.71875V5.46875C11.9374 5.20987 11.7276 5 11.4686 5C11.2097 5 10.9999 5.20987 10.9999 5.46875V6.71875C10.9999 6.84307 11.0493 6.9623 11.1372 7.05021C11.2251 7.13811 11.3443 7.1875 11.4686 7.1875ZM13.9686 7.1875C14.0929 7.1875 14.2122 7.13811 14.3001 7.05021C14.388 6.9623 14.4374 6.84307 14.4374 6.71875V5.46875C14.4374 5.20987 14.2276 5 13.9686 5C13.7097 5 13.4999 5.20987 13.4999 5.46875V6.71875C13.4999 6.84307 13.5493 6.9623 13.6372 7.05021C13.7251 7.13811 13.8443 7.1875 13.9686 7.1875Z" fill="#636363"/>
</g>
<defs>
<clipPath id="clip0_1277_43398">
<rect width="32" height="32" fill="white"/>
</clipPath>
</defs>
</svg>
