<svg width="32" height="32" viewBox="0 0 32 32" fill="none" xmlns="http://www.w3.org/2000/svg">
<g clip-path="url(#clip0_1277_43468)">
<path d="M32 16C32 24.8366 24.8366 32 16 32C15.9462 32 15.8926 31.9998 15.839 31.9992C15.5801 31.9966 15.3793 31.5852 15.1234 31.5704C12.6698 31.4293 10.3644 30.7353 8.32981 29.6111C8.14219 29.5074 7.90006 29.8029 7.71712 29.6919C3.09119 26.8875 0 21.8048 0 16C0 7.16344 7.16344 0 16 0C24.8366 0 32 7.16344 32 16Z" fill="#FB5858"/>
<path d="M22.6756 12.5463C23.279 12.5463 23.7974 12.9771 23.9055 13.5707C24.1594 14.9643 24.2953 16.4353 24.2953 17.9559C24.2953 19.4765 24.1594 20.9475 23.9055 22.3411C23.7974 22.9348 23.279 23.3655 22.6756 23.3655H18.5551C18.7487 24.8398 19.0284 26.2607 19.3853 27.613C19.8664 29.437 18.774 31.3093 16.9478 31.7822C16.6181 31.8676 16.2853 31.9406 15.9501 32.0011C12.9371 31.9919 10.1201 31.1498 7.7172 29.6931C7.46523 29.0325 7.42742 28.3094 7.60913 27.6261C7.96751 26.2699 8.24851 24.8446 8.4427 23.3655H5.41488C4.81145 23.3655 4.29307 22.9348 4.18495 22.3412C3.93107 20.9477 3.7952 19.4766 3.7952 17.956C3.7952 16.4354 3.93107 14.9643 4.18495 13.5708C4.29307 12.9771 4.81145 12.5464 5.41488 12.5464H8.28188C8.10395 11.4557 7.87838 10.3975 7.60901 9.37834C7.12863 7.56059 8.21138 5.70134 10.0308 5.22734C11.1386 4.93878 12.3008 4.78516 13.4989 4.78516C14.697 4.78516 15.8592 4.93878 16.9669 5.22734C18.7864 5.70134 19.8691 7.56059 19.3887 9.37834C19.1193 10.3975 18.8938 11.4557 18.7158 12.5464L22.6756 12.5463Z" fill="#D63030"/>
<path d="M6.24231 11.0863C6.30212 10.7967 6.55856 10.5898 6.85431 10.5898H25.1457C25.4414 10.5898 25.6979 10.7967 25.7577 11.0863C26.0774 12.6343 26.25 14.2854 26.25 15.9994C26.25 17.7134 26.0773 19.3645 25.7577 20.9125C25.6979 21.2022 25.4414 21.409 25.1457 21.409H6.85431C6.55862 21.409 6.30212 21.2022 6.24231 20.9125C5.92269 19.3645 5.75 17.7134 5.75 15.9994C5.75 14.2854 5.92262 12.6343 6.24231 11.0863Z" fill="#B4E7FD"/>
<path d="M8.64563 21.409H6.85431C6.55862 21.409 6.30212 21.2021 6.24231 20.9125C5.92262 19.3645 5.75 17.7134 5.75 15.9994C5.75 14.2854 5.92262 12.6343 6.24231 11.0863C6.30212 10.7967 6.55856 10.5898 6.85431 10.5898H8.64563C8.388 12.308 8.25 14.1229 8.25 15.9994C8.25 17.8759 8.388 19.6908 8.64563 21.409ZM22.8956 21.409H21.1043C20.8086 21.409 20.5521 21.2021 20.4923 20.9125C20.1726 19.3645 20 17.7134 20 15.9994C20 14.2854 20.1726 12.6343 20.4923 11.0863C20.5521 10.7967 20.8086 10.5898 21.1043 10.5898H22.8956C22.638 12.308 22.5 14.1229 22.5 15.9994C22.5 17.8759 22.638 19.6908 22.8956 21.409Z" fill="#93DCFC"/>
<path d="M21.8898 25.1224C22.3711 26.9433 21.2722 28.8064 19.4489 29.2786C18.3469 29.5639 17.1912 29.7158 16 29.7158C14.8088 29.7158 13.6531 29.5639 12.5511 29.2786C10.7278 28.8064 9.62894 26.9433 10.1102 25.1224C10.8483 22.3294 11.2579 19.2433 11.2579 15.9985C11.2579 12.7537 10.8483 9.66763 10.1102 6.87463C9.62894 5.05369 10.7278 3.19063 12.5511 2.71844C13.6531 2.43306 14.8088 2.28125 16 2.28125C17.1912 2.28125 18.3469 2.43306 19.4489 2.71844C21.2722 3.19063 22.3711 5.05369 21.8898 6.87463C21.1517 9.66763 20.7421 12.7537 20.7421 15.9985C20.7421 19.2433 21.1517 22.3294 21.8898 25.1224Z" fill="#D5F1FE"/>
<path d="M21.8898 6.87462C21.1517 9.66762 20.7421 12.7537 20.7421 15.9984C20.7421 19.2432 21.1517 22.3293 21.8898 25.1222C22.3711 26.9432 21.2722 28.8063 19.4489 29.2784C18.3469 29.5638 17.1912 29.7157 16 29.7157C15.6889 29.7157 15.3803 29.7053 15.0743 29.6849C14.3662 28.7666 14.0598 27.4867 14.3573 26.225C15.0954 23.0944 15.505 19.6353 15.505 15.9984C15.505 12.3616 15.0954 8.90244 14.3573 5.77194C14.0598 4.51019 14.3662 3.23031 15.0743 2.312C15.3803 2.29162 15.6889 2.28125 16 2.28125C17.1912 2.28125 18.3469 2.43312 19.4489 2.7185C21.2721 3.19062 22.371 5.05362 21.8898 6.87462Z" fill="#FFF5F5"/>
<path d="M16 30.1845C14.7922 30.1845 13.5923 30.0324 12.4336 29.7323C11.427 29.4716 10.5834 28.8339 10.0583 27.9368C9.53558 27.0436 9.39301 26.0016 9.65701 25.0026C10.4083 22.16 10.7891 19.1306 10.7891 15.9985C10.7891 12.8664 10.4082 9.837 9.65701 6.99444C9.39301 5.99544 9.53558 4.95337 10.0583 4.06019C10.5834 3.16306 11.427 2.52544 12.4336 2.26469C13.5923 1.96462 14.7922 1.8125 16 1.8125C17.2078 1.8125 18.4077 1.96462 19.5664 2.26469C20.5731 2.52537 21.4166 3.16306 21.9417 4.06019C22.4645 4.95337 22.607 5.99544 22.343 6.99444C21.5918 9.837 21.2109 12.8664 21.2109 15.9985C21.2109 19.1306 21.5918 22.16 22.343 25.0026C22.607 26.0016 22.4645 27.0436 21.9417 27.9368C21.4166 28.8339 20.5731 29.4716 19.5664 29.7323C18.4077 30.0324 17.2078 30.1845 16 30.1845ZM16 2.75C14.8715 2.75 13.7506 2.89206 12.6687 3.17225C11.9053 3.37 11.2656 3.85344 10.8675 4.53369C10.4716 5.21 10.3636 5.99887 10.5634 6.75487C11.3353 9.67556 11.7266 12.7856 11.7266 15.9984C11.7266 19.2113 11.3353 22.3214 10.5634 25.2421C10.3636 25.9981 10.4716 26.7869 10.8675 27.4633C11.2656 28.1435 11.9053 28.627 12.6687 28.8247C13.7506 29.1049 14.8715 29.2469 16 29.2469C17.1286 29.2469 18.2494 29.1049 19.3313 28.8247C20.0948 28.6269 20.7345 28.1435 21.1326 27.4633C21.5284 26.7869 21.6364 25.9981 21.4366 25.2421C20.6648 22.3214 20.2734 19.2114 20.2734 15.9985C20.2734 12.7856 20.6648 9.67556 21.4366 6.75487C21.6364 5.99887 21.5285 5.21006 21.1326 4.53369C20.7345 3.85344 20.0948 3.36994 19.3313 3.17225C18.2494 2.89206 17.1286 2.75 16 2.75Z" fill="#B4E7FD"/>
<path d="M10.1782 9.30525C10.1238 9.01669 10.3449 8.75 10.6386 8.75C10.8632 8.75 11.0575 8.90894 11.0991 9.12963C11.516 11.3416 11.7266 13.6431 11.7266 16C11.7266 18.3119 11.5239 20.5706 11.1227 22.7437C11.0818 22.9652 10.8871 23.125 10.6619 23.125H10.6619C10.3689 23.125 10.1479 22.8595 10.2011 22.5714C10.5917 20.455 10.7891 18.2541 10.7891 16C10.7891 13.7021 10.5841 11.4594 10.1782 9.30525Z" fill="#93DCFC"/>
<path d="M16 22.4564C14.9883 22.4564 14.1682 21.6362 14.1682 20.6246V11.3786C14.1682 10.3669 14.9883 9.54688 15.9999 9.54688C17.0116 9.54688 17.8317 10.367 17.8317 11.3786V20.6246C17.8318 21.6362 17.0117 22.4564 16 22.4564Z" fill="#93E2C6"/>
<path d="M16 19.1305C15.6548 19.1305 15.375 18.8507 15.375 18.5055V13.4922C15.375 13.147 15.6548 12.8672 16 12.8672C16.3452 12.8672 16.625 13.147 16.625 13.4922V18.5055C16.625 18.8507 16.3452 19.1305 16 19.1305Z" fill="#24D3B5"/>
<path d="M32 7.59375C32 8.985 31.6259 10.2889 30.9727 11.4102C29.8514 12.0634 28.5475 12.4375 27.1562 12.4375C22.9623 12.4375 19.5625 9.03769 19.5625 4.84375C19.5625 3.4525 19.9366 2.14862 20.5898 1.02731C21.7111 0.374125 23.015 0 24.4062 0C28.6002 0 32 3.39981 32 7.59375Z" fill="#254167"/>
<path d="M31.0843 11.2102C29.7986 13.5782 27.2902 15.1859 24.4062 15.1859C20.2123 15.1859 16.8125 11.7861 16.8125 7.59212C16.8125 4.70819 18.4201 2.19975 20.7881 0.914062C20.2041 1.98969 19.8724 3.22219 19.8724 4.53219C19.8724 8.72612 23.2723 12.1259 27.4662 12.1259C28.7761 12.126 30.0086 11.7942 31.0843 11.2102Z" fill="#1C314E"/>
<path d="M27.3308 9.78103C28.0173 9.78103 28.6723 9.64559 29.2704 9.40009C28.5065 11.2609 26.6765 12.5713 24.5404 12.5713C21.7177 12.5713 19.4295 10.2832 19.4295 7.46047C19.4295 5.32441 20.7399 3.49434 22.6008 2.73047C22.3553 3.32859 22.2198 3.98353 22.2198 4.67016C22.2199 7.49284 24.5081 9.78103 27.3308 9.78103ZM27.2161 7.14266L27.954 6.02078C27.9634 6.00653 27.9755 5.99441 27.9898 5.98503L29.1116 5.24716C29.1289 5.23578 29.1431 5.22027 29.153 5.20205C29.1628 5.18382 29.1679 5.16343 29.1679 5.14272C29.1679 5.12201 29.1628 5.10162 29.153 5.08339C29.1431 5.06516 29.1289 5.04966 29.1116 5.03828L27.9898 4.30041C27.9755 4.29105 27.9634 4.27889 27.954 4.26466L27.2161 3.14278C27.2047 3.12548 27.1892 3.11127 27.171 3.10144C27.1528 3.09161 27.1324 3.08647 27.1117 3.08647C27.091 3.08647 27.0706 3.09161 27.0524 3.10144C27.0341 3.11127 27.0186 3.12548 27.0073 3.14278L26.2694 4.26466C26.26 4.27891 26.2479 4.29103 26.2336 4.30041L25.1118 5.03828C25.0944 5.04966 25.0802 5.06516 25.0704 5.08339C25.0606 5.10162 25.0554 5.12201 25.0554 5.14272C25.0554 5.16343 25.0606 5.18382 25.0704 5.20205C25.0802 5.22027 25.0944 5.23578 25.1118 5.24716L26.2336 5.98503C26.2479 5.99441 26.26 6.00653 26.2694 6.02078L27.0073 7.14266C27.0186 7.15996 27.0341 7.17416 27.0524 7.18399C27.0706 7.19382 27.091 7.19897 27.1117 7.19897C27.1324 7.19897 27.1528 7.19382 27.171 7.18399C27.1892 7.17416 27.2047 7.15996 27.2161 7.14266Z" fill="#FFF5F5"/>
<path d="M24.5404 12.57C21.7178 12.57 19.4296 10.2818 19.4296 7.45909C19.4296 6.68478 19.6018 5.95066 19.91 5.29297C20.2663 8.88034 23.1192 11.7332 26.7066 12.0895C26.0488 12.3978 25.3148 12.57 24.5404 12.57Z" fill="#F2D1A5"/>
</g>
<defs>
<clipPath id="clip0_1277_43468">
<rect width="32" height="32" fill="white"/>
</clipPath>
</defs>
</svg>
