<svg width="32" height="32" viewBox="0 0 32 32" fill="none" xmlns="http://www.w3.org/2000/svg">
<g clip-path="url(#clip0_1277_43319)">
<path d="M0 16C0 7.16344 7.16344 0 16 0C24.8366 0 32 7.16344 32 16C32 21.0527 29.6578 25.5585 26 28.4907C25.9304 28.5465 19.6877 25.3125 16 25.3125C12.3123 25.3125 6.06956 28.5465 6 28.4907C2.34219 25.5585 0 21.0527 0 16Z" fill="#40C1FA"/>
<path d="M22.2792 2.96875C23.4326 4.3715 24.125 6.1675 24.125 8.12531V15.0003C24.125 18.4521 21.3267 21.2503 17.875 21.2503H14.125C10.6732 21.2503 7.875 18.4521 7.875 15.0003V8.12531C7.875 6.31194 8.46906 4.63737 9.47313 3.2855C9.59794 3.1175 9.83875 3.08763 9.99575 3.22594C11.0969 4.19588 12.5423 4.78419 14.125 4.78419H17.875C19.5932 4.78419 21.1494 4.09088 22.2792 2.96875Z" fill="#61362B"/>
<path d="M21 4.78419H17.875C19.5932 4.78419 21.1494 4.09088 22.2792 2.96875C22.6386 3.40581 22.9515 3.87919 23.2127 4.38119C22.5249 4.64163 21.7791 4.78419 21 4.78419ZM11 15.0003V8.12531C11 6.775 11.3294 5.50163 11.9122 4.38119C11.2091 4.11459 10.5599 3.72325 9.99581 3.226C9.83875 3.08769 9.59794 3.1175 9.47313 3.28556C8.46906 4.63737 7.875 6.31194 7.875 8.12531V15.0003C7.875 18.4521 10.6732 21.2503 14.125 21.2503H17.25C13.7982 21.2503 11 18.4521 11 15.0003Z" fill="#4C2C21"/>
<path d="M10.375 20.2031H12.8258C10.4096 20.2031 8.45081 22.1619 8.45081 24.5781V29.5445C8.45081 29.8002 8.17325 29.9589 7.95237 29.8302C7.26942 29.4319 6.61685 28.9837 6 28.4891V24.5782C6 22.1619 7.95875 20.2031 10.375 20.2031Z" fill="#FF72C3"/>
<path d="M26 28.4891C23.2608 30.6849 19.7838 31.9983 16 31.9983C13.0339 31.9983 10.2564 31.1912 7.875 29.7847V24.5781C7.875 22.2681 9.66538 20.3762 11.9342 20.2144C12.0385 20.2069 12.3865 20.8029 12.4927 20.8029H19.5073L20.0658 20.2031H21.625C24.0413 20.2031 26 22.1619 26 24.5781V28.4891Z" fill="#FF94D2"/>
<path d="M15.65 29.5059L13.2842 23.3573C13.1897 23.1117 13.371 22.8477 13.6342 22.8477H18.3657C18.6289 22.8477 18.8102 23.1117 18.7157 23.3573L16.35 29.5059C16.2267 29.8263 15.7733 29.8263 15.65 29.5059Z" fill="#FFF5F5"/>
<path d="M9.125 14.5781C8.26206 14.5781 7.5625 13.8786 7.5625 13.0156V12.3906C7.5625 11.5277 8.26206 10.8281 9.125 10.8281C9.98794 10.8281 10.6875 11.5277 10.6875 12.3906V13.0156C10.6875 13.8786 9.98794 14.5781 9.125 14.5781Z" fill="#B46E5A"/>
<path d="M8.5 12.0781V13.3281C8.5 13.8392 8.74544 14.2931 9.12488 14.5781C8.262 14.5781 7.5625 13.8785 7.5625 13.0156V12.3906C7.5625 11.5278 8.262 10.8282 9.12488 10.8281C8.74544 11.1132 8.5 11.5669 8.5 12.0781ZM22.875 10.8281V9.57812C22.875 5.78119 19.7969 2.70312 16 2.70312C12.2031 2.70312 9.125 5.78119 9.125 9.57812V12.0781C9.125 15.2251 11.2394 17.8782 14.125 18.6943V20.2031H11.9342V22.3012C11.9342 23.721 13.0852 24.872 14.505 24.872H17.495C18.9148 24.872 20.0658 23.721 20.0658 22.3012V20.2031H17.875V18.6943C19.9741 18.1006 21.6651 16.5349 22.4309 14.5141C22.5751 14.5567 22.7247 14.5782 22.875 14.5781C23.7379 14.5781 24.4375 13.8786 24.4375 13.0156V12.3906C24.4375 11.5276 23.7379 10.8281 22.875 10.8281Z" fill="#915041"/>
<path d="M22.875 9.58109V12.0811C22.875 15.2556 20.7234 17.9275 17.799 18.7183C17.2348 18.8708 16.6402 18.8708 16.076 18.7183C13.1516 17.9275 11 15.2556 11 12.0811V9.58109C11 6.10216 13.5841 3.22678 16.9375 2.76953C20.2909 3.22672 22.875 6.10209 22.875 9.58109Z" fill="#B46E5A"/>
<path d="M15.0937 12.5019C15.0065 12.4139 14.9576 12.2948 14.9579 12.1709C14.9581 12.0469 15.0075 11.9281 15.0952 11.8404C15.1828 11.7528 15.3016 11.7034 15.4256 11.7031C15.5495 11.7028 15.6686 11.7517 15.7566 11.839C15.8217 11.9041 15.9081 11.94 15.9999 11.94C16.0917 11.94 16.1781 11.9041 16.2432 11.839C16.3317 11.7535 16.4501 11.7062 16.5731 11.7072C16.696 11.7083 16.8136 11.7576 16.9006 11.8445C16.9875 11.9315 17.0368 12.0491 17.0379 12.1721C17.0389 12.295 16.9916 12.4135 16.9061 12.5019C16.6639 12.7441 16.3421 12.8775 15.9999 12.8775C15.6576 12.8775 15.3359 12.7441 15.0937 12.5019ZM14.1061 15.5358C14.194 15.6237 14.3132 15.6731 14.4375 15.6731C14.5618 15.6731 14.681 15.6237 14.7689 15.5358C15.4477 14.857 16.5522 14.857 17.2311 15.5358C17.3195 15.6213 17.4379 15.6686 17.5609 15.6676C17.6838 15.6665 17.8015 15.6172 17.8884 15.5302C17.9754 15.4433 18.0247 15.3257 18.0257 15.2027C18.0267 15.0797 17.9794 14.9613 17.8939 14.8729C17.3718 14.3508 16.6859 14.0897 16 14.0897C15.3141 14.0897 14.6282 14.3508 14.1061 14.8729C14.0625 14.9164 14.028 14.9681 14.0044 15.025C13.9809 15.0818 13.9688 15.1428 13.9688 15.2044C13.9688 15.2659 13.9809 15.3269 14.0044 15.3838C14.028 15.4406 14.0625 15.4923 14.1061 15.5358Z" fill="#915041"/>
<path d="M14.6529 9.06199C14.7408 9.1499 14.7902 9.26912 14.7902 9.39343C14.7902 9.51774 14.7408 9.63696 14.6529 9.72487C14.3178 10.0599 13.8777 10.2274 13.4376 10.2274C12.9974 10.2274 12.5573 10.0599 12.2223 9.72487C12.1343 9.63696 12.085 9.51772 12.085 9.3934C12.085 9.26907 12.1343 9.14984 12.2223 9.06193C12.3102 8.97402 12.4294 8.92463 12.5537 8.92463C12.6781 8.92463 12.7973 8.97402 12.8852 9.06193C13.1898 9.36649 13.6854 9.36649 13.9901 9.06193C14.0336 9.01841 14.0853 8.98388 14.1421 8.96033C14.199 8.93678 14.2599 8.92466 14.3215 8.92466C14.383 8.92467 14.444 8.9368 14.5008 8.96036C14.5577 8.98393 14.6094 9.01846 14.6529 9.06199ZM19.7779 9.06199C19.7344 9.01846 19.6827 8.98392 19.6258 8.96035C19.5689 8.93679 19.508 8.92466 19.4464 8.92465C19.3849 8.92465 19.3239 8.93677 19.267 8.96032C19.2102 8.98388 19.1585 9.0184 19.1149 9.06193C18.8103 9.36649 18.3147 9.36649 18.0101 9.06193C17.9665 9.0184 17.9149 8.98387 17.858 8.96031C17.8011 8.93675 17.7402 8.92463 17.6786 8.92463C17.5543 8.92463 17.435 8.97402 17.3471 9.06193C17.2592 9.14984 17.2098 9.26907 17.2098 9.3934C17.2098 9.51772 17.2592 9.63696 17.3471 9.72487C17.6822 10.0599 18.1223 10.2274 18.5624 10.2274C19.0026 10.2274 19.4427 10.0599 19.7778 9.72487C19.8213 9.68136 19.8559 9.62969 19.8794 9.57283C19.903 9.51596 19.9151 9.45501 19.9151 9.39345C19.9152 9.3319 19.903 9.27094 19.8795 9.21407C19.8559 9.15719 19.8214 9.10552 19.7779 9.06199ZM22.5404 3.53499C23.0041 4.03487 23.4124 4.6323 23.75 5.30562C22.9397 6.64918 21.7341 7.50112 20.3878 7.50112H17.7371C16.5013 7.50112 15.3841 6.78318 14.5823 5.62612H14.125C13.529 5.62612 12.9524 5.54268 12.4064 5.38687C12.3814 5.37969 12.3582 5.36733 12.3383 5.35059C12.3184 5.33385 12.3022 5.3131 12.2908 5.28969C12.2795 5.26629 12.2731 5.24075 12.2723 5.21474C12.2714 5.18874 12.2761 5.16284 12.2859 5.13874C13.1611 2.96205 14.8719 1.21124 17.0212 0.283554C17.2769 0.172755 17.5613 0.146565 17.8329 0.208804C19.8026 0.662929 21.4984 1.83318 22.6316 3.43062C22.6016 3.46574 22.5712 3.50049 22.5404 3.53499Z" fill="#61362B"/>
<path d="M12.4146 5.38806C11.2124 5.04675 10.1578 4.35469 9.36838 3.4295C10.8404 1.35425 13.2621 0 16 0C16.6665 0 17.3142 0.08025 17.9341 0.231625C17.7626 0.278883 17.5926 0.331681 17.4246 0.389937C14.9851 1.2355 13.2059 3.12681 12.4146 5.38806Z" fill="#4C2C21"/>
<path d="M28.116 9.99136C28.1441 10.3189 27.7775 10.5305 27.5079 10.3424L27.1312 10.0796C26.6362 9.73424 25.9494 9.91824 25.6934 10.4649L25.4986 10.8808C25.3592 11.1784 24.9359 11.1784 24.7965 10.8808L24.6017 10.4649C24.3457 9.91824 23.6589 9.73424 23.1638 10.0796L22.7871 10.3424C22.5176 10.5305 22.151 10.3189 22.1791 9.99136L22.2183 9.53374C22.2699 8.93236 21.7671 8.42955 21.1657 8.48118L20.7081 8.52043C20.3807 8.54849 20.169 8.18193 20.3571 7.91236L20.6199 7.53568C20.9652 7.04068 20.7812 6.35386 20.2346 6.09786L19.8187 5.90305C19.5211 5.76368 19.5211 5.34036 19.8187 5.20093L20.2346 5.00611C20.7812 4.75011 20.9652 4.0633 20.6199 3.5683L20.3571 3.19161C20.169 2.92205 20.3806 2.55549 20.7081 2.58355L21.1657 2.6228C21.2297 2.6283 21.2925 2.62749 21.3536 2.62099C21.4684 2.6088 21.5754 2.68061 21.6031 2.79268C22.3894 5.97936 24.7684 8.5388 27.8471 9.57824C27.9936 9.62768 28.0961 9.76018 28.1092 9.91418L28.116 9.99136Z" fill="#F44545"/>
<path d="M30.4764 5.90309L30.0604 6.09791C29.5138 6.35391 29.3298 7.04072 29.6751 7.53572L29.9379 7.91241C30.126 8.18197 29.9144 8.54853 29.5869 8.52047L29.1292 8.48122C28.5279 8.42966 28.025 8.93241 28.0767 9.53378L28.1112 9.93628C24.6795 8.97416 22.0257 6.15147 21.3065 2.62491C21.8433 2.59422 22.2658 2.12409 22.2183 1.57028L22.179 1.11266C22.151 0.785156 22.5175 0.573531 22.7871 0.761594L23.1638 1.02441C23.6588 1.36978 24.3456 1.18578 24.6016 0.639156L24.7964 0.223219C24.9358 -0.0744063 25.3591 -0.0744063 25.4985 0.223219L25.6934 0.639156C25.9494 1.18578 26.6362 1.36978 27.1312 1.02441L27.5079 0.761594C27.7774 0.573531 28.144 0.785156 28.1159 1.11266L28.0767 1.57028C28.0251 2.17166 28.5279 2.67447 29.1292 2.62284L29.5869 2.58359C29.9144 2.55553 30.126 2.92209 29.9379 3.19166L29.6751 3.56834C29.3297 4.06334 29.5137 4.75016 30.0604 5.00616L30.4764 5.20097C30.774 5.34041 30.774 5.76372 30.4764 5.90309Z" fill="#FB5858"/>
<path d="M10.6802 27.3477V31.0962C10.3639 30.9847 10.0513 30.8632 9.74268 30.732V27.3477C9.74268 27.2233 9.79206 27.1041 9.87997 27.0162C9.96788 26.9283 10.0871 26.8789 10.2114 26.8789C10.3357 26.8789 10.455 26.9283 10.5429 27.0162C10.6308 27.1041 10.6802 27.2233 10.6802 27.3477ZM21.8032 26.8789C21.6789 26.8789 21.5596 26.9283 21.4717 27.0162C21.3838 27.1041 21.3344 27.2233 21.3344 27.3477V31.091C21.6507 30.9792 21.9634 30.8573 22.2719 30.7257V27.3477C22.2719 27.2233 22.2225 27.1041 22.1346 27.0162C22.0467 26.9283 21.9275 26.8789 21.8032 26.8789Z" fill="#FF72C3"/>
<path d="M5.27336 14.0994L3.40492 12.7252C3.35533 12.6888 3.31341 12.6429 3.28155 12.5902C3.24969 12.5376 3.22852 12.4791 3.21925 12.4183C3.20997 12.3574 3.21277 12.2953 3.2275 12.2356C3.24222 12.1758 3.26857 12.1195 3.30504 12.0699C3.34151 12.0203 3.38739 11.9784 3.44006 11.9466C3.49273 11.9147 3.55116 11.8935 3.61201 11.8843C3.67287 11.875 3.73495 11.8778 3.79472 11.8925C3.85449 11.9072 3.91077 11.9336 3.96036 11.9701L5.82879 13.3442C5.92756 13.4183 5.99306 13.5285 6.01106 13.6507C6.02906 13.7729 5.99811 13.8972 5.92493 13.9967C5.85175 14.0962 5.74225 14.1628 5.62025 14.182C5.49824 14.2013 5.37358 14.1716 5.27336 14.0994ZM5.28017 15.3827C5.30183 15.2603 5.27398 15.1343 5.20274 15.0324C5.1315 14.9306 5.02271 14.8612 4.90029 14.8395L3.11411 14.5234C2.99216 14.5028 2.86701 14.5313 2.76593 14.6026C2.66486 14.6738 2.59605 14.7822 2.5745 14.9039C2.55294 15.0257 2.58039 15.1511 2.65087 15.2527C2.72134 15.3544 2.82912 15.424 2.95073 15.4466L4.73692 15.7626C4.85933 15.7843 4.98534 15.7564 5.08722 15.6852C5.18909 15.6139 5.2585 15.5052 5.28017 15.3827ZM6.61504 18.5015L5.24092 20.3699C5.20445 20.4195 5.15857 20.4614 5.1059 20.4933C5.05323 20.5252 4.9948 20.5463 4.93395 20.5556C4.8731 20.5649 4.81101 20.5621 4.75124 20.5474C4.69148 20.5326 4.63519 20.5063 4.58561 20.4698C4.53602 20.4333 4.49409 20.3875 4.46224 20.3348C4.43038 20.2821 4.40921 20.2237 4.39993 20.1628C4.39066 20.102 4.39346 20.0399 4.40818 19.9801C4.42291 19.9204 4.44926 19.8641 4.48573 19.8145L5.85986 17.9461C5.89606 17.8958 5.94187 17.8532 5.99464 17.8207C6.04741 17.7883 6.10609 17.7666 6.16728 17.757C6.22848 17.7473 6.29098 17.7499 6.35117 17.7646C6.41136 17.7792 6.46804 17.8057 6.51795 17.8424C6.56786 17.8791 6.60999 17.9253 6.64192 17.9784C6.67385 18.0315 6.69493 18.0904 6.70396 18.1517C6.71299 18.213 6.70978 18.2755 6.69452 18.3355C6.67926 18.3955 6.65225 18.452 6.61504 18.5015ZM3.04048 17.9839C3.09764 18.0943 3.19631 18.1774 3.31478 18.2151C3.43326 18.2527 3.56183 18.2418 3.67223 18.1846L5.28311 17.3507C5.3935 17.2935 5.47666 17.1949 5.51431 17.0764C5.55196 16.9579 5.541 16.8293 5.48386 16.7189C5.4267 16.6085 5.32803 16.5254 5.20956 16.4877C5.09108 16.4501 4.9625 16.461 4.85211 16.5182L3.24123 17.3521C3.18656 17.3804 3.138 17.4192 3.09832 17.4663C3.05864 17.5133 3.02862 17.5677 3.00998 17.6264C2.99133 17.6851 2.98443 17.7468 2.98967 17.8082C2.9949 17.8695 3.01217 17.9292 3.04048 17.9839ZM26.1712 13.3441L28.0396 11.97C28.1398 11.8978 28.2645 11.8681 28.3865 11.8873C28.5085 11.9065 28.618 11.9731 28.6912 12.0726C28.7644 12.1721 28.7953 12.2965 28.7773 12.4187C28.7593 12.5409 28.6938 12.651 28.595 12.7252L26.7266 14.0993C26.6264 14.1715 26.5017 14.2012 26.3797 14.182C26.2577 14.1628 26.1482 14.0962 26.075 13.9967C26.0019 13.8972 25.9709 13.7728 25.9889 13.6506C26.0069 13.5284 26.0724 13.4183 26.1712 13.3441ZM29.4292 14.9033C29.4075 14.7809 29.3381 14.6721 29.2362 14.6009C29.1343 14.5296 29.0083 14.5018 28.8859 14.5234L27.0997 14.8395C26.9773 14.8612 26.8685 14.9306 26.7973 15.0324C26.726 15.1343 26.6982 15.2603 26.7199 15.3827C26.7415 15.5052 26.8109 15.6139 26.9128 15.6852C27.0147 15.7564 27.1407 15.7843 27.2631 15.7626L29.0493 15.4466C29.1717 15.4249 29.2805 15.3555 29.3517 15.2536C29.423 15.1517 29.4508 15.0257 29.4292 14.9033ZM26.1402 17.9461L27.5143 19.8145C27.5865 19.9147 27.6162 20.0394 27.597 20.1614C27.5778 20.2834 27.5112 20.3929 27.4117 20.4661C27.3122 20.5392 27.1878 20.5702 27.0656 20.5522C26.9434 20.5342 26.8333 20.4687 26.7591 20.3699L25.385 18.5015C25.3113 18.4013 25.2805 18.276 25.2992 18.1531C25.318 18.0302 25.3848 17.9198 25.4849 17.8462C25.5345 17.8097 25.5908 17.7833 25.6505 17.7686C25.7103 17.7539 25.7724 17.7511 25.8332 17.7604C25.8941 17.7696 25.9525 17.7908 26.0052 17.8227C26.0578 17.8545 26.1037 17.8965 26.1402 17.9461ZM26.5161 16.7189C26.459 16.8293 26.448 16.9579 26.4857 17.0764C26.5233 17.1949 26.6065 17.2935 26.7169 17.3507L28.3277 18.1846C28.438 18.2403 28.5657 18.2502 28.6832 18.2122C28.8008 18.1742 28.8985 18.0914 28.9553 17.9817C29.0121 17.872 29.0233 17.7444 28.9865 17.6265C28.9497 17.5086 28.8678 17.41 28.7587 17.3521L27.1479 16.5182C27.0375 16.461 26.9089 16.4501 26.7904 16.4877C26.6719 16.5254 26.5733 16.6085 26.5161 16.7189Z" fill="#D5F1FE"/>
<path d="M27.184 6.10222L24.6907 9.09409C24.6552 9.13678 24.6107 9.17113 24.5603 9.1947C24.51 9.21826 24.4551 9.23048 24.3996 9.23047C24.1653 9.23047 23.9872 9.02016 24.0257 8.78909L24.5036 5.92184C24.5421 5.69078 24.3639 5.48047 24.1297 5.48047H23.5114C23.1901 5.48047 23.0145 5.10566 23.2202 4.85872L25.7135 1.86684C25.7491 1.82415 25.7936 1.78981 25.8439 1.76624C25.8942 1.74267 25.9491 1.73046 26.0047 1.73047C26.2389 1.73047 26.4171 1.94078 26.3786 2.17184L25.9007 5.03909C25.8622 5.27016 26.0404 5.48047 26.2746 5.48047H26.8928C27.2142 5.48047 27.3897 5.85534 27.184 6.10222Z" fill="#FFF5F5"/>
</g>
<defs>
<clipPath id="clip0_1277_43319">
<rect width="32" height="32" fill="white"/>
</clipPath>
</defs>
</svg>
