<svg width="32" height="32" viewBox="0 0 32 32" fill="none" xmlns="http://www.w3.org/2000/svg">
<g clip-path="url(#clip0_1277_43514)">
<path d="M32 16C32 24.8366 24.8366 32 16 32C7.16344 32 0 24.8366 0 16C0 7.16344 7.16344 0 16 0C24.8366 0 32 7.16344 32 16Z" fill="#4070B2"/>
<path d="M28.2979 19.5732C26.5661 21.305 24.0243 21.7875 21.6837 21.0667C20.9546 20.8422 20.1777 21.0207 19.6556 21.5429C19.1334 22.065 18.9549 22.842 19.1794 23.571C19.9002 25.9117 19.4177 28.4535 17.6858 30.1853C16.7412 31.1299 15.5557 31.7027 14.2934 31.9115C12.0754 31.6772 9.93152 30.9787 8.00112 29.8616C7.95948 29.8217 7.91827 29.7814 7.87749 29.7406C5.04618 26.9093 4.84712 22.5179 7.43281 19.9322L18.0449 9.32011C20.6306 6.73442 25.022 6.93348 27.8533 9.76479C30.6845 12.5961 30.8836 16.9875 28.2979 19.5732Z" fill="#2E5180"/>
<path d="M25.4366 2.1815C24.9423 1.68682 24.383 1.26171 23.7741 0.917879C22.0416 -0.0598083 19.9767 -0.267496 18.1091 0.347942C16.2566 0.958504 14.7372 2.33082 13.9404 4.11319C13.0609 6.08094 11.8608 7.855 10.3734 9.38625C8.76145 11.0466 6.85807 12.3737 4.72082 13.3288C2.85801 14.1611 1.46251 15.7636 0.891761 17.7253C0.313198 19.7139 0.644573 21.8571 1.80089 23.6054C2.09581 24.0508 2.43545 24.4648 2.81451 24.8411C5.77707 27.7839 10.5489 27.8164 13.4518 24.9134L25.5773 12.7881C28.4628 9.90263 28.3996 5.14457 25.4366 2.1815ZM24.2514 11.4623L12.1261 23.5877C9.95182 25.7619 6.36745 25.7276 4.13601 23.5109C3.84766 23.2248 3.58927 22.9099 3.36489 22.5712C2.51301 21.2831 2.26782 19.7078 2.6922 18.2491C2.92971 17.4301 3.3703 16.6844 3.97307 16.0812C4.40955 15.6449 4.92226 15.2922 5.48582 15.0406C7.84139 13.9881 9.93876 12.5269 11.7183 10.6927C13.3592 9.0035 14.6828 7.04725 15.6523 4.87844C16.2426 3.5575 17.3236 2.58107 18.6961 2.12882C20.0838 1.6715 21.56 1.82144 22.8528 2.55094C23.3136 2.81122 23.7368 3.13298 24.1108 3.50738C26.3428 5.73932 26.4058 9.30788 24.2514 11.4623Z" fill="#FB5858"/>
<path d="M27.8532 7.26482C30.6845 10.0961 30.8836 14.4874 28.2979 17.0732C26.5661 18.805 24.0242 19.2876 21.6837 18.5668C20.9546 18.3423 20.1777 18.5208 19.6555 19.0429C19.1333 19.5651 18.9548 20.3421 19.1794 21.0711C19.9002 23.4117 19.4176 25.9535 17.6857 27.6853C15.1001 30.271 10.7087 30.0719 7.87737 27.2406C5.04606 24.4093 4.847 20.018 7.43268 17.4323L18.0448 6.82013C20.6306 4.23438 25.0219 4.43351 27.8532 7.26482Z" fill="#FF94D2"/>
<path d="M27.8532 7.26482C30.6845 10.0961 30.8836 14.4874 28.2979 17.0732C26.5661 18.805 24.0243 19.2876 21.6837 18.5668C20.9546 18.3423 20.1777 18.5208 19.6555 19.0429C19.1333 19.5651 18.9548 20.3421 19.1794 21.0711L19.1914 21.1105C19.8404 23.2602 17.7755 25.2363 15.6456 24.5248C14.4581 24.1282 13.3936 23.493 12.5093 22.6087C12.4685 22.5679 12.4281 22.5266 12.3882 22.4848C9.65951 19.6308 9.76751 15.0974 12.5596 12.3054L18.0448 6.82013C20.6306 4.23438 25.0219 4.43351 27.8532 7.26482Z" fill="#FFAEE0"/>
<path d="M15.8976 21.1788C15.8976 21.4377 15.6877 21.6475 15.4288 21.6475H13.9154C13.712 22.0672 13.4561 22.4595 13.1541 22.8148L14.2791 23.94C14.3447 24.0055 14.3894 24.089 14.4075 24.18C14.4256 24.2709 14.4163 24.3652 14.3808 24.4508C14.3453 24.5365 14.2852 24.6097 14.2081 24.6612C14.131 24.7127 14.0403 24.7401 13.9476 24.7401C13.886 24.7402 13.8251 24.7281 13.7682 24.7045C13.7113 24.6809 13.6596 24.6464 13.6161 24.6028L12.4911 23.4777C12.1357 23.7798 11.7435 24.0356 11.3238 24.2391V25.7525C11.3238 26.0115 11.114 26.2213 10.8551 26.2213C10.5961 26.2213 10.3863 26.0115 10.3863 25.7525V24.5875C10.0452 24.6786 9.69567 24.734 9.34318 24.7529C9.21904 24.7595 9.09737 24.7165 9.00493 24.6334C8.91249 24.5503 8.85685 24.4338 8.85024 24.3097C8.84697 24.2482 8.85584 24.1867 8.87634 24.1287C8.89684 24.0706 8.92858 24.0172 8.96973 23.9714C9.01088 23.9256 9.06065 23.8884 9.11619 23.8619C9.17173 23.8353 9.23196 23.82 9.29343 23.8167C11.492 23.6996 13.3759 21.8156 13.493 19.6171C13.5067 19.3586 13.7274 19.1583 13.986 19.174C14.0475 19.1772 14.1077 19.1926 14.1632 19.2191C14.2188 19.2457 14.2685 19.2829 14.3097 19.3287C14.3508 19.3744 14.3826 19.4279 14.4031 19.4859C14.4236 19.544 14.4325 19.6055 14.4292 19.667C14.4103 20.0194 14.3548 20.369 14.2638 20.71H15.4288C15.6877 20.71 15.8976 20.9198 15.8976 21.1788ZM26.3675 9.77139H25.2025C25.2935 9.43033 25.349 9.08075 25.3679 8.72826C25.3711 8.66679 25.3623 8.60528 25.3418 8.54723C25.3213 8.48919 25.2895 8.43575 25.2484 8.38997C25.2072 8.3442 25.1575 8.30697 25.1019 8.28042C25.0464 8.25388 24.9862 8.23853 24.9247 8.23526C24.6663 8.21933 24.4455 8.41983 24.4317 8.67845C24.3146 10.877 22.4306 12.7609 20.2321 12.878C20.1706 12.8813 20.1104 12.8966 20.0549 12.9232C19.9993 12.9497 19.9496 12.9869 19.9084 13.0327C19.8673 13.0785 19.8355 13.1319 19.815 13.19C19.7945 13.248 19.7857 13.3095 19.7889 13.371C19.7955 13.4951 19.8512 13.6116 19.9436 13.6947C20.0361 13.7778 20.1577 13.8208 20.2819 13.8142C20.6344 13.7953 20.9839 13.7399 21.325 13.6488V14.8138C21.325 15.0728 21.5348 15.2826 21.7937 15.2826C22.0527 15.2826 22.2625 15.0728 22.2625 14.8138V13.3004C22.6822 13.097 23.0744 12.8411 23.4297 12.5391L24.5548 13.6641C24.6464 13.7556 24.7664 13.8014 24.8863 13.8014C25.0062 13.8014 25.1262 13.7556 25.2178 13.6641C25.2613 13.6206 25.2959 13.5689 25.3194 13.5121C25.343 13.4552 25.3551 13.3942 25.3551 13.3327C25.3551 13.2711 25.343 13.2102 25.3194 13.1533C25.2959 13.0964 25.2613 13.0447 25.2178 13.0012L24.0927 11.8761C24.3948 11.5208 24.6506 11.1286 24.854 10.7089H26.3674C26.6264 10.7089 26.8362 10.4991 26.8362 10.2401C26.8362 9.9812 26.6264 9.77139 26.3675 9.77139Z" fill="#D12898"/>
<path d="M11.7791 11.1229L9.79794 13.104C9.22113 13.6808 8.286 13.6808 7.70919 13.104C7.13238 12.5272 7.13238 11.592 7.70919 11.0153L9.69032 9.03417C10.2671 8.45736 11.2023 8.45736 11.7791 9.03417C12.3558 9.61098 12.3558 10.5462 11.7791 11.1229Z" fill="#FFC7E7"/>
<path d="M13.7189 9.18276L11.4737 11.428C10.8969 12.0048 9.96176 12.0048 9.38494 11.428C8.80813 10.8512 8.80813 9.91607 9.38494 9.33932L11.6302 7.09407C12.207 6.51726 13.1421 6.51726 13.7189 7.09407C14.2957 7.67082 14.2957 8.60595 13.7189 9.18276ZM30.5828 12.5647V12.5742C30.5828 12.615 30.5824 12.6558 30.5818 12.6966C30.5798 12.8184 30.5305 12.9347 30.4443 13.0208C30.3581 13.1069 30.2418 13.156 30.1199 13.1578C30.2397 13.1803 30.3461 13.2485 30.4164 13.348C30.4868 13.4475 30.5156 13.5705 30.4968 13.6909C30.4899 13.7348 30.4826 13.7784 30.475 13.8221C30.454 13.9422 30.387 14.0494 30.2883 14.121C30.1895 14.1925 30.0668 14.2227 29.9461 14.2053C30.0608 14.2468 30.1548 14.3313 30.2082 14.4411C30.2615 14.5508 30.27 14.677 30.2318 14.7928C30.2179 14.8351 30.2035 14.8772 30.1888 14.9191C30.1483 15.0344 30.0645 15.1292 29.9551 15.1836C29.8458 15.2379 29.7195 15.2475 29.6033 15.2102C29.7096 15.2704 29.7882 15.3697 29.8224 15.487C29.8566 15.6043 29.8437 15.7303 29.7863 15.8382C29.7654 15.8776 29.744 15.9169 29.7223 15.956C29.6627 16.0628 29.5637 16.142 29.4465 16.1769C29.3294 16.2117 29.2032 16.1994 29.0949 16.1426C29.1895 16.2201 29.2501 16.3316 29.2636 16.4532C29.2771 16.5748 29.2425 16.6969 29.1672 16.7933C29.1398 16.8285 29.1121 16.8633 29.0839 16.898C29.0069 16.993 28.8958 17.0541 28.7744 17.0683C28.6529 17.0825 28.5307 17.0486 28.4339 16.974C28.5135 17.0667 28.5537 17.1867 28.5461 17.3086C28.5385 17.4305 28.4836 17.5447 28.3931 17.6267C28.3601 17.6566 28.3268 17.6862 28.2933 17.7153C28.2012 17.7955 28.0813 17.8366 27.9594 17.8298C27.8374 17.823 27.7229 17.7688 27.6403 17.6788C27.7026 17.7839 27.7215 17.9092 27.6929 18.028C27.6642 18.1468 27.5903 18.2497 27.4869 18.3148C27.4492 18.3386 27.4113 18.3619 27.3733 18.3849C27.2686 18.4479 27.1434 18.4675 27.0245 18.4397C26.9055 18.4118 26.8021 18.3386 26.7363 18.2356C26.7797 18.3498 26.7769 18.4763 26.7284 18.5884C26.6799 18.7005 26.5896 18.7892 26.4767 18.8358C26.4354 18.8527 26.394 18.8693 26.3525 18.8854C26.2386 18.9297 26.112 18.9277 25.9995 18.88C25.8871 18.8323 25.7977 18.7425 25.7504 18.6298C25.7742 18.7495 25.7504 18.8737 25.684 18.9761C25.6176 19.0785 25.5139 19.151 25.3949 19.1781C25.3515 19.188 25.3078 19.1976 25.2641 19.2066C25.1448 19.2312 25.0206 19.2085 24.9178 19.1432C24.8149 19.0779 24.7416 18.9751 24.7132 18.8566C24.7173 18.9783 24.6738 19.0969 24.592 19.1871C24.5102 19.2773 24.3965 19.3322 24.275 19.3401C24.2308 19.3429 24.1866 19.3454 24.1423 19.3475C23.8879 19.3575 23.6723 19.1672 23.6529 18.9156C23.6229 19.1661 23.3984 19.3489 23.1461 19.3265C23.1024 19.3226 23.0586 19.3184 23.0148 19.3138C22.8938 19.3011 22.7825 19.2419 22.7044 19.1487C22.6263 19.0555 22.5874 18.9356 22.5961 18.8143C22.5638 18.9314 22.4872 19.0315 22.3826 19.0933C22.278 19.1552 22.1534 19.174 22.0352 19.1458C21.9923 19.1355 21.9495 19.1249 21.9068 19.1139C21.7997 19.0865 21.7057 19.022 21.6415 18.9319C21.5773 18.8418 21.547 18.7319 21.556 18.6217C21.4914 18.8105 21.3087 18.945 21.1001 18.9383C21.0678 18.9374 21.0354 18.9375 21.003 18.9386C20.8064 18.9462 20.6376 18.8316 20.5615 18.6649C20.5706 18.7566 20.5525 18.8489 20.5095 18.9304C20.4664 19.0119 20.4003 19.0788 20.3194 19.1229C20.2918 19.1379 20.2647 19.1539 20.2381 19.1708C20.161 19.2195 20.0714 19.2447 19.9802 19.2433C19.889 19.2418 19.8002 19.2138 19.7247 19.1627C19.779 19.2361 19.8107 19.3237 19.816 19.4149C19.8212 19.5061 19.7997 19.5968 19.7541 19.6759C19.7384 19.7031 19.7237 19.7307 19.7098 19.7588C19.6691 19.8416 19.6048 19.9106 19.525 19.957C19.4452 20.0034 19.3535 20.0252 19.2613 20.0196C19.3472 20.0546 19.4207 20.1143 19.4726 20.1911C19.5245 20.2679 19.5525 20.3584 19.5531 20.4511C19.5533 20.483 19.5544 20.5151 19.5565 20.5473C19.5633 20.6495 19.5364 20.7511 19.48 20.8366C19.4235 20.922 19.3407 20.9867 19.2441 21.0206C19.4743 20.9946 19.6936 21.1439 19.7503 21.3751C19.7608 21.4181 19.7709 21.4611 19.7807 21.5042C19.8075 21.6226 19.7873 21.7469 19.7244 21.8507C19.6615 21.9546 19.5607 22.0299 19.4433 22.0609C19.6958 22.0466 19.9144 22.233 19.9378 22.4855C19.9419 22.5294 19.9456 22.5732 19.949 22.617C19.9584 22.7384 19.9201 22.8587 19.8423 22.9524C19.7645 23.0461 19.6533 23.1058 19.5322 23.1189C19.6535 23.1297 19.7657 23.1873 19.8453 23.2795C19.9248 23.3717 19.9654 23.4912 19.9584 23.6127C19.9558 23.6571 19.9528 23.7014 19.9494 23.7458C19.9299 23.999 19.7134 24.1919 19.4607 24.1781C19.5788 24.2079 19.6807 24.2825 19.7448 24.3862C19.8089 24.4898 19.83 24.6143 19.8039 24.7333C19.7943 24.7769 19.7843 24.8204 19.7738 24.8637C19.7143 25.111 19.4689 25.2646 19.2212 25.2125C19.3332 25.2612 19.4217 25.3517 19.468 25.4648C19.5142 25.5778 19.5146 25.7044 19.4689 25.8176C19.4522 25.8589 19.4351 25.9001 19.4176 25.9413C19.3697 26.0536 19.2798 26.1428 19.1672 26.1899C19.0545 26.2369 18.928 26.2382 18.8144 26.1934C18.9163 26.2605 18.9881 26.3648 19.0144 26.484C19.0406 26.6032 19.0194 26.7279 18.9551 26.8317C18.9315 26.8697 18.9074 26.9076 18.8831 26.9452C18.8165 27.0479 18.7124 27.1205 18.593 27.1475C18.4736 27.1744 18.3484 27.1536 18.2442 27.0894C18.3335 27.1732 18.3865 27.2886 18.3918 27.4109C18.3971 27.5332 18.3543 27.6528 18.2726 27.7439C18.2429 27.7771 18.213 27.8101 18.1826 27.8427C18.0994 27.9322 17.9846 27.9856 17.8625 27.9917C17.7405 27.9977 17.6209 27.9558 17.5293 27.875C17.6025 27.9728 17.6347 28.0954 17.6189 28.2167C17.6031 28.3379 17.5406 28.4481 17.4446 28.5239C17.4096 28.5515 17.3744 28.5788 17.3389 28.6057C17.2415 28.6795 17.1192 28.7123 16.9979 28.6972C16.8766 28.6821 16.7661 28.6202 16.6898 28.5248C16.745 28.6338 16.7556 28.76 16.7191 28.8767C16.6826 28.9933 16.602 29.0911 16.4945 29.1492C16.4552 29.1704 16.4157 29.1913 16.376 29.2116C16.2674 29.2675 16.1412 29.2788 16.0244 29.243C15.9076 29.2072 15.8094 29.1273 15.7507 29.0202C15.7865 29.137 15.7754 29.2631 15.7196 29.3718C15.6638 29.4804 15.5678 29.5631 15.4521 29.602C15.4098 29.6163 15.3674 29.6301 15.325 29.6434C15.2087 29.6801 15.0827 29.6699 14.9737 29.6151C14.8647 29.5603 14.7814 29.4652 14.7414 29.35C14.7574 29.4709 14.7257 29.5933 14.653 29.6912C14.5803 29.789 14.4722 29.8547 14.3519 29.8743C14.3082 29.8814 14.2644 29.8881 14.2204 29.8944C14.0997 29.9118 13.9771 29.8814 13.8784 29.8099C13.7797 29.7383 13.7128 29.6311 13.6918 29.5111C13.6886 29.6328 13.6382 29.7484 13.5512 29.8336C13.4642 29.9188 13.3476 29.9668 13.2258 29.9675L13.1896 29.9676C13.1572 29.9676 13.1247 29.9674 13.0921 29.9669C12.9704 29.9652 12.8541 29.9162 12.7679 29.8303C12.6817 29.7444 12.6322 29.6283 12.63 29.5066C12.6086 29.6265 12.5415 29.7333 12.4427 29.8044C12.344 29.8756 12.2214 29.9056 12.101 29.888C12.0573 29.8816 12.0135 29.8749 11.9697 29.8677C11.8496 29.8481 11.7418 29.7825 11.6692 29.6848C11.5965 29.5871 11.5647 29.465 11.5805 29.3443C11.542 29.4596 11.4601 29.5555 11.3523 29.6116C11.2444 29.6677 11.119 29.6797 11.0024 29.6451C10.9598 29.6324 10.9174 29.6194 10.8751 29.6059C10.7591 29.5692 10.662 29.4888 10.6042 29.3818C10.5464 29.2748 10.5325 29.1495 10.5653 29.0324C10.5109 29.1413 10.4163 29.2248 10.3014 29.2651C10.1866 29.3055 10.0606 29.2996 9.95001 29.2486C9.90994 29.2302 9.87013 29.2115 9.83032 29.1925C9.72076 29.1399 9.6359 29.0469 9.59363 28.933C9.55135 28.819 9.55496 28.6931 9.60369 28.5818C9.53478 28.6821 9.42956 28.7516 9.31029 28.7757C9.19102 28.7998 9.06706 28.7766 8.96463 28.7109C8.92764 28.6872 8.89081 28.6633 8.85413 28.6391C8.75277 28.5721 8.68141 28.4682 8.65512 28.3496C8.62883 28.2309 8.64965 28.1066 8.71319 28.003C8.63143 28.0931 8.51784 28.1479 8.39643 28.1558C8.27502 28.1637 8.1553 28.124 8.06257 28.0453C8.02932 28.0171 7.99626 27.9886 7.96332 27.9599C7.87208 27.8802 7.81523 27.7683 7.80468 27.6476C7.79414 27.5269 7.83072 27.4069 7.90676 27.3126C7.8139 27.3903 7.69457 27.429 7.57377 27.4207C7.45298 27.4124 7.34009 27.3576 7.25876 27.2679C7.22924 27.2354 7.19997 27.2026 7.17094 27.1696C7.09105 27.0787 7.04944 26.9603 7.05484 26.8394C7.06023 26.7184 7.11221 26.6043 7.19988 26.5208C7.09736 26.5855 6.97372 26.608 6.85495 26.5836C6.73618 26.5591 6.63152 26.4895 6.56294 26.3895C6.53832 26.3536 6.51394 26.3176 6.48988 26.2814C6.42287 26.1808 6.39732 26.0582 6.41856 25.9392C6.43981 25.8202 6.5062 25.714 6.60388 25.6428C6.4937 25.6925 6.36859 25.6977 6.25466 25.6574C6.14072 25.617 6.04678 25.5342 5.99244 25.4263C5.97276 25.387 5.95332 25.3477 5.93419 25.3083C5.8815 25.1993 5.87299 25.0742 5.91045 24.9591C5.9479 24.844 6.02841 24.7479 6.13513 24.6908C6.019 24.7249 5.89419 24.7128 5.78681 24.6569C5.67942 24.6011 5.59778 24.506 5.55894 24.3913C5.54482 24.3497 5.53119 24.308 5.51776 24.2663C5.48071 24.1509 5.48983 24.0256 5.5432 23.9167C5.59658 23.8079 5.69005 23.7239 5.80401 23.6825C5.55682 23.7189 5.32157 23.5528 5.27544 23.3042C5.26738 23.2607 5.25969 23.2172 5.25238 23.1736C5.23234 23.0539 5.25952 22.9311 5.32822 22.831C5.39692 22.7309 5.50176 22.6614 5.62069 22.637H5.62057C5.49905 22.6369 5.38231 22.5897 5.29496 22.5052C5.20762 22.4207 5.1565 22.3056 5.15238 22.1841C5.15094 22.1402 5.14976 22.0962 5.14894 22.0523C5.14679 21.9307 5.19196 21.8131 5.27492 21.7242C5.35788 21.6353 5.47214 21.5821 5.59357 21.5759C5.47341 21.5573 5.36516 21.4928 5.29167 21.396C5.21818 21.2991 5.1852 21.1775 5.19969 21.0568C5.20501 21.0125 5.21069 20.9684 5.21682 20.9243C5.25201 20.6725 5.48157 20.4949 5.73213 20.5233C5.61588 20.4861 5.51873 20.405 5.46133 20.2973C5.40393 20.1896 5.39081 20.0638 5.42476 19.9465C5.43713 19.9036 5.44994 19.8609 5.46319 19.8183C5.49949 19.7017 5.57985 19.6039 5.68718 19.5456C5.79451 19.4874 5.92034 19.4733 6.03788 19.5064C5.92923 19.4504 5.84677 19.3542 5.80807 19.2382C5.76938 19.1222 5.77752 18.9957 5.83076 18.8857C5.85026 18.8454 5.87007 18.8054 5.89038 18.7656C5.9458 18.6567 6.0415 18.5738 6.15712 18.5345C6.27274 18.4951 6.39915 18.5025 6.50944 18.5549C6.41215 18.481 6.34758 18.372 6.32947 18.2512C6.31136 18.1303 6.34116 18.0072 6.41251 17.908C6.43869 17.8716 6.46532 17.8354 6.49232 17.7994C6.56584 17.7017 6.67469 17.6365 6.79561 17.6179C6.91653 17.5993 7.03993 17.6287 7.13944 17.6999C7.05652 17.611 7.01135 17.4935 7.01345 17.372C7.01555 17.2504 7.06476 17.1345 7.15069 17.0486L7.23869 16.9606C7.32134 16.8779 7.4319 16.8291 7.54867 16.8237C7.66544 16.8184 7.78 16.8568 7.86988 16.9316C7.79517 16.8417 7.75673 16.7271 7.76209 16.6104C7.76746 16.4936 7.81624 16.383 7.89888 16.3004L7.98694 16.2123C8.0696 16.1297 8.18013 16.0809 8.29688 16.0755C8.41363 16.0702 8.52817 16.1086 8.61807 16.1833C8.54339 16.0934 8.50497 15.9788 8.51034 15.8621C8.51572 15.7453 8.5645 15.6348 8.64713 15.5521L8.73513 15.4641C8.81779 15.3815 8.92834 15.3327 9.04511 15.3273C9.16187 15.322 9.27643 15.3604 9.36632 15.4351C9.29161 15.3452 9.25317 15.2307 9.25853 15.1139C9.2639 14.9972 9.31268 14.8866 9.39532 14.8039L9.48332 14.7159C9.56596 14.6333 9.6765 14.5845 9.79325 14.5791C9.91 14.5738 10.0246 14.6122 10.1144 14.6869C10.0397 14.597 10.0013 14.4824 10.0067 14.3657C10.0121 14.2489 10.0609 14.1384 10.1435 14.0558L10.2315 13.9678C10.3142 13.8851 10.4247 13.8363 10.5414 13.831C10.6582 13.8256 10.7727 13.864 10.8626 13.9387C10.7879 13.8488 10.7495 13.7343 10.7549 13.6175C10.7603 13.5008 10.8091 13.3902 10.8917 13.3076L10.9798 13.2195C11.0624 13.1369 11.1729 13.0881 11.2897 13.0827C11.4064 13.0773 11.521 13.1158 11.6109 13.1904C11.5362 13.1006 11.4978 12.986 11.5031 12.8693C11.5085 12.7525 11.5573 12.642 11.6399 12.5593L11.7279 12.4713C11.8106 12.3887 11.9211 12.3399 12.0379 12.3345C12.1547 12.3291 12.2693 12.3676 12.3591 12.4423C12.2844 12.3524 12.246 12.2379 12.2513 12.1211C12.2567 12.0043 12.3055 11.8938 12.3881 11.8111L12.4761 11.7231C12.5588 11.6405 12.6693 11.5917 12.7861 11.5863C12.9028 11.5809 13.0174 11.6194 13.1073 11.6941C13.0326 11.6042 12.9942 11.4896 12.9995 11.3729C13.0049 11.2561 13.0537 11.1456 13.1363 11.0629L13.2243 10.9749C13.307 10.8923 13.4177 10.8435 13.5345 10.8382C13.6513 10.8329 13.7659 10.8714 13.8558 10.9463C13.781 10.8564 13.7424 10.7418 13.7477 10.6249C13.753 10.5081 13.8018 10.3975 13.8845 10.3148L13.9725 10.2268C14.0551 10.1441 14.1657 10.0953 14.2824 10.0899C14.3992 10.0845 14.5137 10.123 14.6036 10.1977C14.5289 10.1078 14.4905 9.99325 14.4959 9.8765C14.5013 9.75976 14.5501 9.64922 14.6327 9.56657L14.7207 9.47857C14.8033 9.39593 14.9139 9.34714 15.0306 9.34176C15.1474 9.33638 15.2619 9.37481 15.3518 9.44951C15.2771 9.35962 15.2387 9.24507 15.2441 9.12832C15.2494 9.01156 15.2982 8.90103 15.3809 8.81839L15.4689 8.73038C15.5515 8.64773 15.6621 8.59894 15.7789 8.59358C15.8956 8.58821 16.0102 8.62666 16.1001 8.70139C16.0254 8.61149 15.9869 8.49694 15.9923 8.38017C15.9976 8.26341 16.0464 8.15286 16.1291 8.0702L16.2171 7.9822C16.2998 7.8995 16.4104 7.85071 16.5273 7.84541C16.6441 7.8401 16.7587 7.87866 16.8486 7.95351C16.7737 7.86365 16.7351 7.74904 16.7404 7.6322C16.7458 7.51535 16.7946 7.40472 16.8773 7.32201L16.9653 7.23401C17.0479 7.15136 17.1585 7.10257 17.2752 7.0972C17.392 7.09184 17.5066 7.13029 17.5964 7.20501C17.5217 7.11512 17.4833 7.00056 17.4887 6.8838C17.494 6.76703 17.5428 6.65649 17.6254 6.57382L17.7134 6.48582C17.8966 6.30276 18.1974 6.29888 18.3804 6.48188C18.5634 6.66501 18.5674 6.95776 18.3844 7.14088L18.2884 7.23682C18.2057 7.31945 18.0952 7.36822 17.9784 7.37359C17.8616 7.37895 17.7471 7.34052 17.6572 7.26582C17.7319 7.35572 17.7703 7.47027 17.765 7.58703C17.7596 7.7038 17.7108 7.81435 17.6282 7.89701L17.5402 7.98501C17.4575 8.06772 17.3469 8.11652 17.23 8.12182C17.1132 8.12713 16.9986 8.08856 16.9087 8.0137C16.9836 8.10356 17.0221 8.21817 17.0168 8.33501C17.0115 8.45185 16.9627 8.56249 16.88 8.6452L16.792 8.7332C16.7093 8.81582 16.5988 8.8646 16.482 8.86996C16.3653 8.87533 16.2507 8.83689 16.1608 8.7622C16.2355 8.85209 16.274 8.96665 16.2686 9.08341C16.2632 9.20017 16.2145 9.31072 16.1318 9.39338L16.0438 9.48139C15.9611 9.56398 15.8506 9.61273 15.7339 9.61811C15.6171 9.62348 15.5026 9.58509 15.4127 9.51045C15.4874 9.60034 15.5258 9.71489 15.5204 9.83164C15.5151 9.94839 15.4663 10.0589 15.3836 10.1416L15.2956 10.2296C15.213 10.3122 15.1024 10.3609 14.9857 10.3663C14.869 10.3717 14.7544 10.3333 14.6645 10.2586C14.7392 10.3485 14.7776 10.4631 14.7723 10.5798C14.7669 10.6966 14.7181 10.8071 14.6354 10.8898L14.5474 10.9778C14.4647 11.0605 14.3541 11.1093 14.2373 11.1146C14.1204 11.1199 14.0058 11.0813 13.9159 11.0064C13.9908 11.0963 14.0294 11.2109 14.0241 11.3278C14.0188 11.4446 13.97 11.5552 13.8873 11.6379L13.7993 11.7259C13.7166 11.8086 13.6061 11.8573 13.4893 11.8627C13.3726 11.8681 13.258 11.8297 13.1681 11.755C13.2428 11.8449 13.2812 11.9595 13.2759 12.0762C13.2705 12.193 13.2217 12.3035 13.1391 12.3861L13.0511 12.4741C12.9684 12.5568 12.8579 12.6055 12.7411 12.6109C12.6243 12.6163 12.5098 12.5778 12.4199 12.5031C12.4946 12.593 12.533 12.7076 12.5277 12.8243C12.5223 12.9411 12.4735 13.0517 12.3909 13.1343L12.3029 13.2223C12.2202 13.3049 12.1097 13.3537 11.9929 13.3591C11.8762 13.3645 11.7617 13.3261 11.6718 13.2514C11.7465 13.3413 11.7849 13.4558 11.7795 13.5726C11.7741 13.6893 11.7253 13.7999 11.6427 13.8825L11.5546 13.9706C11.472 14.0532 11.3614 14.102 11.2447 14.1073C11.128 14.1127 11.0134 14.0743 10.9235 13.9996C10.9982 14.0895 11.0366 14.2041 11.0313 14.3208C11.0259 14.4376 10.9771 14.5481 10.8944 14.6308L10.8064 14.7188C10.7238 14.8014 10.6132 14.8501 10.4965 14.8555C10.3798 14.8609 10.2652 14.8225 10.1753 14.7478C10.25 14.8377 10.2884 14.9523 10.2831 15.069C10.2777 15.1858 10.2289 15.2963 10.1463 15.3789L10.0583 15.4669C9.97559 15.5496 9.86504 15.5983 9.74828 15.6037C9.63152 15.6091 9.51697 15.5706 9.42707 15.4959C9.50178 15.5858 9.54022 15.7004 9.53486 15.8172C9.52949 15.9339 9.48071 16.0445 9.39807 16.1271L9.31007 16.2151C9.2274 16.2977 9.11687 16.3465 9.00013 16.3519C8.8834 16.3572 8.76886 16.3188 8.67894 16.2442C8.75364 16.3341 8.79207 16.4486 8.78669 16.5654C8.78132 16.6821 8.73252 16.7927 8.64988 16.8753L8.56182 16.9634C8.47917 17.046 8.36862 17.0949 8.25185 17.1002C8.13508 17.1056 8.02051 17.0671 7.93063 16.9924C8.00534 17.0823 8.04378 17.1968 8.03842 17.3136C8.03305 17.4304 7.98427 17.5409 7.90163 17.6236L7.81363 17.7116C7.73518 17.7899 7.63153 17.8379 7.52105 17.8471C7.41058 17.8563 7.30041 17.8261 7.21007 17.7619C7.28505 17.8425 7.32928 17.9469 7.33502 18.0568C7.34076 18.1667 7.30763 18.2751 7.24144 18.3631C7.21844 18.3936 7.19588 18.4244 7.17357 18.4554C7.1095 18.5445 7.01627 18.6082 6.91008 18.6356C6.80389 18.663 6.69146 18.6523 6.59232 18.6054C6.67955 18.672 6.74068 18.767 6.76506 18.874C6.78944 18.981 6.77554 19.0931 6.72576 19.1909C6.7084 19.225 6.69138 19.2594 6.67469 19.2939C6.62683 19.3929 6.54567 19.4719 6.44543 19.5171C6.34518 19.5624 6.23222 19.5709 6.12632 19.5413C6.22406 19.5919 6.30087 19.6753 6.34329 19.7769C6.38571 19.8785 6.39103 19.9918 6.35832 20.0969C6.34692 20.1335 6.3359 20.1703 6.32526 20.2071C6.26094 20.4293 6.04619 20.5667 5.82457 20.5429C5.92965 20.5768 6.01942 20.6466 6.07808 20.7401C6.13674 20.8336 6.16053 20.9449 6.14526 21.0542C6.13994 21.0922 6.135 21.1303 6.13044 21.1684C6.11727 21.278 6.06587 21.3795 5.98527 21.4549C5.90467 21.5303 5.80005 21.5749 5.68982 21.5808C5.79887 21.5978 5.89842 21.6528 5.97094 21.736C6.04346 21.8192 6.0843 21.9253 6.08626 22.0357C6.08694 22.0746 6.08794 22.1134 6.08932 22.1524C6.09303 22.2629 6.05756 22.3712 5.98917 22.4581C5.92078 22.5451 5.82388 22.605 5.71557 22.6274C5.82633 22.6277 5.93344 22.6671 6.01791 22.7388C6.10238 22.8104 6.15876 22.9096 6.17707 23.0189C6.18344 23.0569 6.19013 23.0951 6.19719 23.1331C6.21744 23.2421 6.19839 23.3547 6.14344 23.451C6.08848 23.5473 6.00116 23.6211 5.89701 23.6591C6.00669 23.6432 6.11844 23.6668 6.21243 23.7255C6.30642 23.7842 6.37657 23.8743 6.41044 23.9798C6.42226 24.0169 6.43451 24.0538 6.44701 24.0907C6.48253 24.1957 6.47969 24.31 6.43898 24.4131C6.39827 24.5163 6.32233 24.6017 6.22463 24.6541C6.33108 24.6231 6.44507 24.6308 6.5464 24.6758C6.64772 24.7208 6.72982 24.8003 6.77813 24.9001C6.79507 24.9351 6.81226 24.97 6.82976 25.0048C6.87964 25.1039 6.89275 25.2175 6.86675 25.3254C6.84075 25.4333 6.77733 25.5285 6.68776 25.594C6.78898 25.5486 6.90304 25.5405 7.00967 25.5712C7.11629 25.6019 7.20856 25.6695 7.27007 25.7618C7.29182 25.7944 7.31376 25.8269 7.33607 25.8594C7.39899 25.9512 7.42722 26.0623 7.4157 26.173C7.40418 26.2837 7.35367 26.3867 7.27319 26.4636C7.36755 26.4042 7.47996 26.3804 7.59029 26.3964C7.70061 26.4123 7.80164 26.4671 7.87526 26.5508C7.90094 26.5801 7.92701 26.6093 7.95319 26.6381C8.02817 26.7208 8.07119 26.8275 8.07451 26.9391C8.07784 27.0507 8.04124 27.1598 7.97132 27.2468C8.05702 27.1753 8.16537 27.1368 8.27693 27.1381C8.38849 27.1393 8.49594 27.1803 8.58001 27.2536C8.60969 27.2796 8.63951 27.3052 8.66951 27.3307C8.75466 27.4031 8.81118 27.5035 8.82887 27.6138C8.84656 27.7242 8.82427 27.8372 8.76601 27.9326C8.84132 27.8498 8.94372 27.7968 9.05474 27.7829C9.16575 27.7691 9.27806 27.7954 9.37138 27.8571C9.40419 27.8789 9.43726 27.9002 9.47026 27.9214C9.56416 27.9815 9.63356 28.0732 9.66597 28.1799C9.69839 28.2866 9.69171 28.4014 9.64713 28.5036C9.71052 28.4116 9.80466 28.3453 9.91259 28.3166C10.0205 28.288 10.1351 28.2987 10.2358 28.3471C10.2711 28.364 10.3066 28.3806 10.3421 28.397C10.4433 28.4436 10.5246 28.5248 10.5714 28.6259C10.6182 28.727 10.6275 28.8415 10.5976 28.9488C10.6476 28.8492 10.7316 28.7706 10.8343 28.7272C10.9371 28.6839 11.0519 28.6785 11.1583 28.7122C11.1953 28.7239 11.2323 28.7353 11.2694 28.7463C11.3761 28.7781 11.4681 28.8467 11.5288 28.9401C11.5896 29.0334 11.6151 29.1453 11.6009 29.2558C11.6362 29.1503 11.708 29.0609 11.8033 29.0035C11.8985 28.9461 12.0111 28.9244 12.1209 28.9424C12.1593 28.9487 12.1977 28.9546 12.2361 28.9602C12.346 28.9762 12.4466 29.0307 12.5201 29.114C12.5935 29.1973 12.6351 29.3039 12.6373 29.4149C12.657 29.3057 12.7148 29.207 12.8005 29.1364C12.8862 29.0658 12.9942 29.0279 13.1052 29.0294C13.1333 29.0298 13.1614 29.03 13.1895 29.03L13.2206 29.0299H13.2232C13.3334 29.03 13.4401 29.0688 13.5245 29.1397C13.6089 29.2105 13.6657 29.3088 13.6849 29.4173C13.688 29.3069 13.73 29.201 13.8035 29.1185C13.8771 29.036 13.9774 28.9821 14.0868 28.9664C14.1251 28.9609 14.1633 28.955 14.2015 28.9488C14.3103 28.9314 14.4217 28.9527 14.5164 29.009C14.611 29.0654 14.6828 29.1532 14.7193 29.2571C14.705 29.1479 14.7297 29.0371 14.789 28.9442C14.8482 28.8513 14.9383 28.7822 15.0434 28.7491C15.0801 28.7376 15.1166 28.7257 15.1531 28.7134C15.2572 28.6785 15.3703 28.6811 15.4727 28.721C15.5751 28.7609 15.6602 28.8354 15.7133 28.9316C15.6812 28.8265 15.6871 28.7135 15.7299 28.6123C15.7727 28.5111 15.8497 28.4282 15.9474 28.3779C15.9814 28.3605 16.0152 28.3426 16.0489 28.3244C16.1454 28.2723 16.2572 28.2556 16.3647 28.2774C16.4722 28.2991 16.5687 28.3579 16.6374 28.4435C16.5879 28.3456 16.5744 28.2334 16.5991 28.1265C16.6239 28.0195 16.6853 27.9247 16.7728 27.8584C16.8033 27.8354 16.8335 27.812 16.8635 27.7883C16.9496 27.7203 17.0568 27.6847 17.1664 27.6875C17.2761 27.6904 17.3812 27.7316 17.4636 27.804C17.398 27.7161 17.3653 27.6079 17.3713 27.4983C17.3772 27.3887 17.4214 27.2847 17.4961 27.2044C17.5225 27.176 17.5486 27.1474 17.5743 27.1187C17.6475 27.037 17.7471 26.9835 17.8556 26.9676C17.9642 26.9517 18.0749 26.9744 18.1684 27.0316C18.0885 26.9564 18.0376 26.8554 18.0245 26.7464C18.0113 26.6374 18.0369 26.5273 18.0966 26.4352C18.1175 26.403 18.138 26.3707 18.1581 26.3381C18.2159 26.2449 18.3046 26.1748 18.4087 26.1402C18.5129 26.1055 18.6258 26.1085 18.728 26.1486C18.6365 26.0881 18.5691 25.9974 18.5375 25.8923C18.506 25.7873 18.5123 25.6745 18.5553 25.5736C18.5704 25.5383 18.5851 25.5028 18.5994 25.4672C18.6407 25.3652 18.7164 25.2809 18.8135 25.2291C18.9105 25.1772 19.0227 25.1612 19.1304 25.1836C19.0295 25.1395 18.9474 25.0612 18.8984 24.9626C18.8495 24.864 18.8367 24.7513 18.8625 24.6443C18.8715 24.607 18.8801 24.5697 18.8883 24.5322C18.9381 24.3061 19.1448 24.1548 19.3668 24.1644C19.2597 24.1373 19.1657 24.0732 19.1013 23.9835C19.0369 23.8938 19.0063 23.7842 19.0148 23.6741C19.0177 23.6358 19.0203 23.5974 19.0225 23.559C19.0289 23.4484 19.0742 23.3436 19.1505 23.2632C19.2268 23.1828 19.3291 23.1321 19.4393 23.1199C19.3289 23.1099 19.2257 23.0611 19.1479 22.9822C19.0701 22.9033 19.0228 22.7994 19.0143 22.6889C19.0113 22.6501 19.0079 22.6113 19.0044 22.5724C18.9941 22.4621 19.0233 22.3517 19.0867 22.2608C19.1501 22.1699 19.2437 22.1044 19.3508 22.0759C19.1263 22.0891 18.9179 21.9385 18.8664 21.7115C18.8579 21.6737 18.849 21.636 18.8398 21.5983C18.812 21.4851 18.8274 21.3657 18.883 21.2632C18.9386 21.1608 19.0304 21.0827 19.1404 21.0443C19.1335 21.045 19.1266 21.0456 19.1198 21.046C18.8634 21.0646 18.6382 20.8676 18.6211 20.6092C18.6178 20.5584 18.6159 20.5076 18.6156 20.4567C18.6153 20.3951 18.627 20.3341 18.6503 20.2771C18.6735 20.2201 18.7077 20.1682 18.751 20.1244C18.7942 20.0807 18.8457 20.0458 18.9025 20.0219C18.9592 19.998 19.0201 19.9856 19.0816 19.9852C19.092 19.9854 19.1026 19.9854 19.1131 19.9861C19.0534 19.9619 18.9993 19.9256 18.9543 19.8796C18.9093 19.8335 18.8742 19.7787 18.8513 19.7185C18.8284 19.6583 18.8181 19.594 18.8212 19.5297C18.8242 19.4654 18.8405 19.4023 18.8689 19.3446C18.8918 19.2982 18.9161 19.2526 18.9419 19.2078C18.9741 19.152 19.0174 19.1034 19.0693 19.065C19.1211 19.0267 19.1803 18.9995 19.2431 18.985C19.306 18.9706 19.3711 18.9693 19.4345 18.9812C19.4978 18.9931 19.5581 19.0179 19.6114 19.0541C19.5729 19.0023 19.5455 18.9431 19.531 18.8803C19.5164 18.8174 19.515 18.7522 19.5269 18.6887C19.5387 18.6253 19.5635 18.565 19.5997 18.5116C19.6359 18.4582 19.6828 18.4128 19.7373 18.3783C19.7809 18.3508 19.8254 18.3246 19.8706 18.2999C19.9272 18.2691 19.9895 18.2502 20.0536 18.2445C20.1178 18.2389 20.1824 18.2465 20.2435 18.2669C20.3046 18.2872 20.3608 18.32 20.4087 18.3631C20.4566 18.4062 20.4951 18.4587 20.5218 18.5173C20.5153 18.4533 20.522 18.3887 20.5416 18.3275C20.5611 18.2663 20.5931 18.2097 20.6354 18.1614C20.6777 18.113 20.7295 18.0739 20.7877 18.0464C20.8458 18.0189 20.9089 18.0037 20.9731 18.0016C21.0237 18 21.0743 17.9998 21.1249 18.0011C21.1887 18.0028 21.2515 18.0175 21.3094 18.0442C21.3673 18.071 21.4192 18.1093 21.4617 18.1568C21.5043 18.2043 21.5368 18.26 21.5571 18.3205C21.5774 18.381 21.5851 18.445 21.5798 18.5086C21.6179 18.3969 21.6968 18.3036 21.8006 18.2475C21.9044 18.1914 22.0256 18.1765 22.1399 18.2058C22.1777 18.2154 22.2154 18.2248 22.2533 18.2338C22.3612 18.2596 22.4565 18.3229 22.5222 18.4124C22.5878 18.5019 22.6196 18.6117 22.6119 18.7224C22.6718 18.5053 22.8815 18.3566 23.1127 18.3814C23.1515 18.3854 23.1904 18.3892 23.2291 18.3926C23.3395 18.4024 23.4428 18.451 23.5207 18.5296C23.5987 18.6083 23.6463 18.7121 23.655 18.8225C23.6684 18.7126 23.7203 18.611 23.8015 18.5357C23.8826 18.4604 23.9878 18.4162 24.0984 18.4109C24.1371 18.4092 24.1758 18.407 24.2144 18.4044C24.3247 18.3971 24.434 18.4291 24.5229 18.4946C24.6119 18.5601 24.6748 18.655 24.7006 18.7624C24.6971 18.6521 24.7326 18.5441 24.8009 18.4574C24.8692 18.3707 24.966 18.3109 25.0741 18.2885C25.1117 18.2807 25.1492 18.2725 25.1866 18.2639C25.294 18.2395 25.4066 18.2536 25.5047 18.3039C25.6028 18.3541 25.68 18.4373 25.7228 18.5389C25.7016 18.4309 25.719 18.3189 25.7721 18.2224C25.8252 18.126 25.9105 18.0513 26.0131 18.0114C26.0488 17.9975 26.0844 17.9833 26.1199 17.9686C26.2215 17.9269 26.3345 17.9221 26.4392 17.9551C26.544 17.9881 26.6338 18.0567 26.6931 18.1491C26.6543 18.0465 26.6527 17.9335 26.6887 17.8298C26.7246 17.7261 26.7957 17.6383 26.8898 17.5816C26.9226 17.5619 26.9553 17.5418 26.9877 17.5213C27.0804 17.463 27.1907 17.4389 27.2993 17.4533C27.4079 17.4678 27.5081 17.5198 27.5823 17.6004C27.5265 17.506 27.5056 17.3951 27.5231 17.287C27.5405 17.1788 27.5954 17.0801 27.678 17.0081C27.7068 16.9831 27.7354 16.9576 27.7638 16.9319C27.8451 16.8582 27.9497 16.8153 28.0594 16.8108C28.1692 16.8063 28.277 16.8405 28.3641 16.9073C28.2928 16.824 28.253 16.7183 28.2515 16.6086C28.2501 16.499 28.2871 16.3923 28.3562 16.3071C28.3806 16.2771 28.4046 16.2468 28.4283 16.2164C28.4958 16.1299 28.5915 16.0699 28.6987 16.0466C28.806 16.0234 28.918 16.0386 29.0152 16.0894C28.9305 16.0196 28.8729 15.9223 28.8525 15.8144C28.8322 15.7065 28.8503 15.5949 28.9038 15.499C28.9226 15.4654 28.9409 15.4318 28.9589 15.3979C29.0104 15.301 29.0943 15.2252 29.196 15.1838C29.2977 15.1424 29.4107 15.138 29.5153 15.1713C29.4198 15.1171 29.3463 15.031 29.3078 14.9281C29.2693 14.8252 29.2681 14.712 29.3045 14.6084C29.3173 14.5721 29.3297 14.5356 29.3418 14.499C29.414 14.2798 29.6327 14.15 29.8534 14.1817C29.75 14.144 29.663 14.0712 29.6079 13.9758C29.5527 13.8805 29.5329 13.7688 29.5519 13.6603C29.5585 13.6223 29.5648 13.5841 29.5708 13.5459C29.5879 13.4368 29.643 13.3372 29.7263 13.2647C29.8096 13.1922 29.9159 13.1514 30.0263 13.1496C29.9177 13.129 29.8199 13.0708 29.7501 12.9851C29.6803 12.8995 29.6429 12.7919 29.6447 12.6814C29.6453 12.6454 29.6456 12.6093 29.6456 12.5733V12.5644C29.6456 12.4539 29.6847 12.347 29.7558 12.2624C29.827 12.1779 29.9258 12.1212 30.0347 12.1024C29.924 12.0985 29.8183 12.0556 29.7363 11.9812C29.6543 11.9068 29.6012 11.8058 29.5865 11.6961C29.5814 11.658 29.5759 11.6199 29.5701 11.5819C29.5533 11.4723 29.5759 11.3603 29.6338 11.2658C29.6918 11.1713 29.7813 11.1004 29.8866 11.0656C29.6631 11.0904 29.4476 10.9518 29.3838 10.7284C29.3732 10.6914 29.3623 10.6543 29.351 10.6174C29.3186 10.5112 29.325 10.3969 29.3689 10.2949C29.4129 10.193 29.4916 10.1099 29.5911 10.0606C29.3736 10.1175 29.1398 10.0104 29.045 9.79807C29.0291 9.76245 29.0128 9.72682 28.9964 9.69132C28.9497 9.59074 28.9402 9.47686 28.9695 9.36992C28.9988 9.26298 29.0651 9.1699 29.1566 9.1072C28.9486 9.19339 28.7026 9.11951 28.5795 8.92207C28.5588 8.88889 28.5378 8.8557 28.5164 8.82263C28.4563 8.72899 28.4314 8.617 28.4462 8.5067C28.4611 8.39639 28.5146 8.29495 28.5974 8.22051C28.5013 8.27718 28.3882 8.29777 28.2784 8.27857C28.1685 8.25937 28.0691 8.20165 27.9979 8.11576C27.9731 8.08576 27.948 8.05588 27.9226 8.0262C27.85 7.94138 27.8102 7.83348 27.8101 7.72188C27.81 7.61029 27.8497 7.50232 27.9221 7.41739C27.8343 7.48631 27.7249 7.52169 27.6134 7.51717C27.5019 7.51264 27.3957 7.46851 27.3139 7.3927C27.2851 7.36601 27.2561 7.33957 27.227 7.31339C27.1438 7.23861 27.0901 7.13657 27.0756 7.02567C27.061 6.91477 27.0866 6.80233 27.1477 6.70863C27.07 6.78908 26.9661 6.83909 26.8548 6.84965C26.7434 6.8602 26.632 6.8306 26.5406 6.7662C26.5084 6.74357 26.4761 6.7212 26.4437 6.69914C26.3515 6.63622 26.2847 6.54246 26.2554 6.43472C26.2262 6.32697 26.2363 6.21232 26.284 6.11138C26.2178 6.20142 26.1217 6.26486 26.0129 6.29027C25.9041 6.31569 25.7898 6.30141 25.6906 6.25001C25.6559 6.23207 25.6212 6.21451 25.5863 6.19713C25.4864 6.14752 25.4075 6.06391 25.3637 5.96132C25.3199 5.85874 25.3142 5.7439 25.3474 5.63745C25.2943 5.73547 25.208 5.81137 25.104 5.85154C25 5.89172 24.8851 5.89355 24.7799 5.8567C24.7429 5.8437 24.7058 5.83107 24.6688 5.81876C24.5633 5.78355 24.4737 5.71196 24.4161 5.61679C24.3584 5.52161 24.3365 5.40904 24.3543 5.2992C24.3154 5.4035 24.2408 5.4906 24.1437 5.54494C24.0465 5.59928 23.9333 5.61731 23.8241 5.59582C23.7862 5.58833 23.7483 5.5812 23.7103 5.57445C23.6008 5.55498 23.5017 5.49718 23.4309 5.41139C23.36 5.32559 23.322 5.21739 23.3236 5.10613C23.3003 5.21482 23.2393 5.31173 23.1513 5.37961C23.0633 5.44748 22.954 5.48191 22.843 5.47676C22.8045 5.47492 22.7659 5.47347 22.7274 5.47238C22.6166 5.46927 22.5105 5.42703 22.4279 5.35316C22.3454 5.27928 22.2916 5.17855 22.2762 5.06882C22.2695 5.17935 22.2238 5.28393 22.1473 5.36403C22.0709 5.44413 21.9685 5.49458 21.8584 5.50645C21.8204 5.51052 21.7824 5.515 21.7445 5.51989C21.5153 5.54964 21.3023 5.40745 21.2364 5.19307C21.2469 5.3028 21.2184 5.41272 21.1559 5.50351C21.0934 5.5943 21.0009 5.66016 20.8946 5.68951C20.8574 5.69976 20.8203 5.71038 20.7834 5.72132C20.6779 5.75258 20.5648 5.74577 20.4639 5.70208C20.363 5.65839 20.2806 5.5806 20.2312 5.48232C20.2594 5.58856 20.2494 5.70132 20.2029 5.80092C20.1564 5.90052 20.0764 5.98063 19.9769 6.02726C19.942 6.04357 19.9074 6.0602 19.8728 6.07726C19.7744 6.12569 19.6621 6.13805 19.5554 6.11219C19.4488 6.08634 19.3546 6.0239 19.2893 5.93576C19.335 6.03552 19.3442 6.14815 19.3154 6.25402C19.2866 6.3599 19.2216 6.45232 19.1317 6.5152C19.1006 6.53701 19.0697 6.55907 19.0389 6.58157C18.9385 6.6535 18.8138 6.6829 18.6919 6.66338C18.5699 6.64386 18.4606 6.57699 18.3876 6.47732C18.3147 6.37764 18.2841 6.25321 18.3024 6.13107C18.3207 6.00892 18.3864 5.89893 18.4854 5.82501C18.5215 5.79851 18.5579 5.77251 18.5946 5.74695C18.6948 5.67693 18.8183 5.64878 18.9389 5.66851C19.0595 5.68824 19.1676 5.75429 19.2402 5.85257C19.1891 5.74153 19.1834 5.61492 19.2243 5.49973C19.2652 5.38455 19.3495 5.28989 19.4592 5.23595C19.4991 5.21639 19.5391 5.19713 19.5794 5.17826C19.6901 5.12643 19.8166 5.1199 19.9321 5.16003C20.0476 5.20017 20.1428 5.28381 20.1974 5.39314C20.1659 5.27514 20.1816 5.14949 20.2413 5.04292C20.301 4.93636 20.3999 4.8573 20.517 4.82257C20.5596 4.80996 20.6022 4.79773 20.645 4.78588C20.7627 4.75336 20.8884 4.76802 20.9954 4.82674C21.1024 4.88546 21.1823 4.98361 21.2181 5.10032C21.2063 4.97913 21.2422 4.85812 21.318 4.7629C21.3939 4.66768 21.5039 4.60572 21.6246 4.59014C21.669 4.58439 21.7135 4.5792 21.7581 4.57439C21.8793 4.56129 22.0008 4.59592 22.0969 4.67093C22.1929 4.74593 22.256 4.85541 22.2726 4.97614C22.2874 4.72439 22.5009 4.52864 22.7536 4.53532C22.7981 4.53657 22.8426 4.53826 22.8871 4.54039C23.0088 4.54609 23.1234 4.59893 23.2068 4.68771C23.2902 4.77649 23.3357 4.89424 23.3338 5.01601C23.359 4.89699 23.4294 4.79242 23.5303 4.72439C23.6312 4.65636 23.7545 4.63021 23.8743 4.65145C23.9181 4.65926 23.9619 4.66751 24.0057 4.67614C24.125 4.69969 24.2305 4.7687 24.2999 4.8686C24.3693 4.9685 24.3972 5.09146 24.3776 5.21151C24.4198 5.09742 24.5048 5.00421 24.6145 4.95157C24.7241 4.89893 24.85 4.89097 24.9654 4.92939C25.0071 4.94332 25.0488 4.95751 25.0904 4.97214C25.2052 5.01241 25.2999 5.09572 25.3543 5.20447C25.4088 5.31323 25.4189 5.4389 25.3824 5.55495C25.4401 5.44787 25.5372 5.36742 25.6531 5.3306C25.769 5.29378 25.8947 5.30347 26.0036 5.35763C26.0432 5.37726 26.0826 5.39732 26.122 5.4177C26.2299 5.47359 26.3119 5.56919 26.3506 5.68434C26.3894 5.79949 26.3819 5.92519 26.3298 6.03495C26.4017 5.93688 26.5088 5.87057 26.6286 5.85C26.7484 5.82943 26.8716 5.85621 26.972 5.9247C27.0083 5.94945 27.0445 5.97451 27.0804 5.99982C27.1798 6.06981 27.2481 6.17566 27.2709 6.29504C27.2937 6.41442 27.2693 6.53799 27.2028 6.6397C27.2871 6.55215 27.4021 6.50078 27.5236 6.49642C27.645 6.49206 27.7634 6.53505 27.8538 6.61632C27.8864 6.64557 27.9186 6.67501 27.9509 6.70489C28.0397 6.78716 28.0933 6.90063 28.1003 7.02152C28.1074 7.14241 28.0674 7.26134 27.9887 7.35338C28.0838 7.27848 28.2042 7.24325 28.3247 7.25509C28.4452 7.26693 28.5564 7.3249 28.6351 7.41688C28.6638 7.45045 28.6921 7.48407 28.7201 7.51789C28.7974 7.61119 28.8355 7.73078 28.8265 7.85159C28.8176 7.97239 28.7621 8.08503 28.6719 8.16588C28.7764 8.10406 28.9007 8.08513 29.0188 8.11308C29.1369 8.14103 29.2396 8.21368 29.3052 8.31576C29.3287 8.35238 29.352 8.38907 29.3749 8.42595C29.4389 8.52855 29.4608 8.65192 29.436 8.77026C29.4111 8.88861 29.3415 8.99278 29.2417 9.06101C29.3534 9.01453 29.4789 9.01309 29.5916 9.05699C29.7044 9.10089 29.7959 9.18672 29.8468 9.29651C29.8653 9.3362 29.8833 9.37595 29.9011 9.4157C29.9505 9.52633 29.9551 9.6518 29.9141 9.76579C29.873 9.87978 29.7894 9.97344 29.6808 10.0271C29.7979 9.99647 29.9223 10.0123 30.028 10.0713C30.1337 10.1303 30.2125 10.228 30.2479 10.3438C30.2608 10.3861 30.2733 10.4284 30.2854 10.4708C30.3187 10.5873 30.3056 10.7122 30.2488 10.8192C30.1921 10.9262 30.0961 11.0072 29.981 11.045C30.2298 11.0169 30.4588 11.1899 30.497 11.4397C30.5038 11.4836 30.5101 11.5276 30.5159 11.5716C30.5321 11.6919 30.5009 11.8137 30.429 11.9115C30.357 12.0093 30.25 12.0754 30.1304 12.0958C30.2518 12.1002 30.3669 12.1515 30.4512 12.2389C30.5356 12.3264 30.5828 12.4432 30.5828 12.5647ZM4.12401 15.1249L4.86188 14.0031C4.87126 13.9888 4.88338 13.9767 4.89763 13.9673L6.01951 13.2294C6.03681 13.2181 6.05102 13.2026 6.06084 13.1843C6.07067 13.1661 6.07582 13.1457 6.07582 13.125C6.07582 13.1043 6.07067 13.0839 6.06084 13.0657C6.05102 13.0475 6.03681 13.032 6.01951 13.0206L4.89763 12.2827C4.8834 12.2733 4.87124 12.2612 4.86188 12.2469L4.12401 11.1251C4.11263 11.1078 4.09713 11.0936 4.0789 11.0837C4.06067 11.0739 4.04028 11.0688 4.01957 11.0688C3.99886 11.0688 3.97847 11.0739 3.96024 11.0837C3.94201 11.0936 3.92651 11.1078 3.91513 11.1251L3.17726 12.2469C3.16788 12.2612 3.15576 12.2733 3.14151 12.2827L2.01963 13.0206C2.00233 13.032 1.98812 13.0475 1.97829 13.0657C1.96846 13.0839 1.96332 13.1043 1.96332 13.125C1.96332 13.1457 1.96846 13.1661 1.97829 13.1843C1.98812 13.2026 2.00233 13.2181 2.01963 13.2294L3.14151 13.9673C3.15576 13.9767 3.16788 13.9888 3.17726 14.0031L3.91513 15.1249C3.92651 15.1423 3.94201 15.1565 3.96024 15.1663C3.97847 15.1761 3.99886 15.1813 4.01957 15.1813C4.04028 15.1813 4.06067 15.1761 4.0789 15.1663C4.09713 15.1565 4.11263 15.1423 4.12401 15.1249ZM7.03957 8.19713L7.52557 7.45826C7.53176 7.44888 7.53976 7.44089 7.54913 7.4347L8.28801 6.9487C8.29941 6.9412 8.30876 6.931 8.31524 6.91899C8.32171 6.90698 8.3251 6.89356 8.3251 6.87992C8.3251 6.86628 8.32171 6.85285 8.31524 6.84084C8.30876 6.82884 8.29941 6.81863 8.28801 6.81114L7.54913 6.32514C7.53976 6.31896 7.53175 6.31094 7.52557 6.30157L7.03957 5.5627C7.03208 5.5513 7.02187 5.54194 7.00986 5.53547C6.99786 5.52899 6.98443 5.5256 6.97079 5.5256C6.95715 5.5256 6.94372 5.52899 6.93171 5.53547C6.91971 5.54194 6.9095 5.5513 6.90201 5.5627L6.41601 6.30157C6.40982 6.31095 6.40182 6.31895 6.39244 6.32514L5.65357 6.81114C5.64217 6.81863 5.63281 6.82884 5.62634 6.84084C5.61986 6.85285 5.61647 6.86628 5.61647 6.87992C5.61647 6.89356 5.61986 6.90698 5.62634 6.91899C5.63281 6.931 5.64217 6.9412 5.65357 6.9487L6.39244 7.4347C6.40182 7.44089 6.40982 7.44888 6.41601 7.45826L6.90201 8.19713C6.9095 8.20853 6.91971 8.21789 6.93171 8.22437C6.94372 8.23084 6.95715 8.23423 6.97079 8.23423C6.98443 8.23423 6.99786 8.23084 7.00986 8.22437C7.02187 8.21789 7.03208 8.20853 7.03957 8.19713ZM24.7353 26.2018L25.2213 25.4629C25.2275 25.4536 25.2355 25.4456 25.2449 25.4394L25.9838 24.9534C25.9952 24.9459 26.0045 24.9357 26.011 24.9237C26.0175 24.9117 26.0209 24.8982 26.0209 24.8846C26.0209 24.871 26.0175 24.8575 26.011 24.8455C26.0045 24.8335 25.9952 24.8233 25.9838 24.8158L25.2449 24.3298C25.2355 24.3236 25.2275 24.3156 25.2213 24.3063L24.7353 23.5674C24.7278 23.556 24.7176 23.5466 24.7056 23.5402C24.6936 23.5337 24.6802 23.5303 24.6665 23.5303C24.6529 23.5303 24.6395 23.5337 24.6275 23.5402C24.6155 23.5466 24.6052 23.556 24.5978 23.5674L24.1118 24.3063C24.1056 24.3156 24.0976 24.3236 24.0882 24.3298L23.3493 24.8158C23.3379 24.8233 23.3286 24.8335 23.3221 24.8455C23.3156 24.8575 23.3122 24.871 23.3122 24.8846C23.3122 24.8982 23.3156 24.9117 23.3221 24.9237C23.3286 24.9357 23.3379 24.9459 23.3493 24.9534L24.0882 25.4394C24.0976 25.4456 24.1056 25.4536 24.1118 25.4629L24.5978 26.2018C24.6303 26.2513 24.7028 26.2513 24.7353 26.2018Z" fill="#FFF5F5"/>
</g>
<defs>
<clipPath id="clip0_1277_43514">
<rect width="32" height="32" fill="white"/>
</clipPath>
</defs>
</svg>
