<svg width="32" height="32" viewBox="0 0 32 32" fill="none" xmlns="http://www.w3.org/2000/svg">
<g clip-path="url(#clip0_1277_43360)">
<path d="M0.361187 17.2188C0.275037 17.2187 0.192181 17.1856 0.129635 17.1264C0.0670899 17.0672 0.0296034 16.9862 0.024875 16.9002C0.008375 16.6023 0 16.3021 0 16C0 7.16344 7.16344 0 16 0C24.8366 0 32 7.16344 32 16C32 16.2979 31.9919 16.5939 31.9757 16.8878C31.9709 16.9771 31.932 17.0613 31.867 17.1229C31.802 17.1844 31.7158 17.2187 31.6263 17.2188H0.361187Z" fill="#FFAEE0"/>
<path d="M31.9765 16.875C31.5222 25.3046 24.543 32 16 32C7.457 32 0.477811 25.3046 0.0234985 16.875H31.9765Z" fill="#915041"/>
<path d="M26.25 22.5H23.125C20.7088 22.5 18.75 20.5413 18.75 18.125C18.75 15.7088 20.7088 13.75 23.125 13.75H26.25C28.6663 13.75 30.625 15.7088 30.625 18.125C30.625 20.5413 28.6663 22.5 26.25 22.5Z" fill="#F44545"/>
<path d="M30.625 18.125C30.6254 18.5482 30.5643 18.9693 30.4438 19.375H27.5927C25.1765 19.375 23.2177 17.4162 23.2177 15C23.2174 14.5768 23.2784 14.1557 23.3989 13.75H26.25C28.6662 13.75 30.625 15.7088 30.625 18.125Z" fill="#FB5858"/>
<path d="M25.6955 13.9062H24.4455C24.3212 13.9062 24.2019 13.8569 24.114 13.769C24.0261 13.681 23.9767 13.5618 23.9767 13.4375C23.9767 13.3132 24.0261 13.194 24.114 13.106C24.2019 13.0181 24.3212 12.9688 24.4455 12.9688H25.6955C25.8198 12.9688 25.939 13.0181 26.027 13.106C26.1149 13.194 26.1642 13.3132 26.1642 13.4375C26.1642 13.5618 26.1149 13.681 26.027 13.769C25.939 13.8569 25.8198 13.9062 25.6955 13.9062Z" fill="#20B7A1"/>
<path d="M24.7671 5.5505V21.2812C24.7671 21.9544 24.2215 22.5 23.5484 22.5H15.1734C14.5002 22.5 13.9546 21.9544 13.9546 21.2812V5.5505C13.9546 5.3438 14.0072 5.14049 14.1074 4.9597C14.2076 4.7789 14.3522 4.62656 14.5274 4.517L16.1613 3.49581V2.1875C16.1613 2.10462 16.1942 2.02513 16.2528 1.96653C16.3114 1.90792 16.3909 1.875 16.4738 1.875H22.2479C22.3308 1.875 22.4102 1.90792 22.4688 1.96653C22.5274 2.02513 22.5604 2.10462 22.5604 2.1875V3.49581L24.1942 4.517C24.3696 4.62653 24.5141 4.77886 24.6143 4.95966C24.7146 5.14046 24.7671 5.34378 24.7671 5.5505Z" fill="#E1EBF0"/>
<path d="M24.7671 5.5505V14.796C24.7671 16.6518 23.2627 18.1563 21.4068 18.1563C19.551 18.1563 18.0465 16.6519 18.0465 14.796V1.875H22.2479C22.3308 1.875 22.4102 1.90792 22.4689 1.96653C22.5275 2.02513 22.5604 2.10462 22.5604 2.1875V3.49581L24.1943 4.51706C24.3696 4.62659 24.5142 4.77892 24.6144 4.95971C24.7146 5.14049 24.7671 5.3438 24.7671 5.5505Z" fill="#FFF5F5"/>
<path d="M21.5625 9.50609C20.4443 9.50609 19.7024 8.34397 20.1769 7.33147C20.4622 6.72272 20.9811 6.11803 21.5625 5.55859C22.1439 6.11809 22.6628 6.72272 22.9481 7.33147C23.4226 8.34397 22.6807 9.50609 21.5625 9.50609Z" fill="#E1EBF0"/>
<path d="M20.0311 11.7305C20.0311 11.6061 20.0805 11.4869 20.1684 11.399C20.2563 11.3111 20.3756 11.2617 20.4999 11.2617H22.6251C22.7494 11.2617 22.8686 11.3111 22.9565 11.399C23.0444 11.4869 23.0938 11.6061 23.0938 11.7305C23.0938 11.8548 23.0444 11.974 22.9565 12.0619C22.8686 12.1498 22.7494 12.1992 22.6251 12.1992H20.4999C20.3756 12.1992 20.2563 12.1498 20.1684 12.0619C20.0805 11.974 20.0311 11.8548 20.0311 11.7305ZM22.6251 15H20.4999C20.3756 15 20.2564 15.0494 20.1685 15.1373C20.0806 15.2252 20.0312 15.3445 20.0312 15.4688C20.0312 15.5931 20.0806 15.7123 20.1685 15.8002C20.2564 15.8881 20.3756 15.9375 20.4999 15.9375H22.6251C22.7494 15.9375 22.8687 15.8881 22.9566 15.8002C23.0445 15.7123 23.0939 15.5931 23.0939 15.4688C23.0939 15.3445 23.0445 15.2252 22.9566 15.1373C22.8687 15.0494 22.7494 15 22.6251 15ZM21.1544 13.125C21.0301 13.125 20.9108 13.1744 20.8229 13.2623C20.735 13.3502 20.6856 13.4695 20.6856 13.5938C20.6856 13.7181 20.735 13.8373 20.8229 13.9252C20.9108 14.0131 21.0301 14.0625 21.1544 14.0625H21.9707C22.095 14.0625 22.2142 14.0131 22.3021 13.9252C22.3901 13.8373 22.4394 13.7181 22.4394 13.5938C22.4394 13.4695 22.3901 13.3502 22.3021 13.2623C22.2142 13.1744 22.095 13.125 21.9707 13.125H21.1544Z" fill="#B4D2D7"/>
<path d="M8.03287 22.8954H5.957C3.56194 22.8954 1.68156 20.8428 1.89094 18.4569L2.96444 6.22481C3.14937 4.117 4.9145 2.5 7.03044 2.5C9.15544 2.5 10.9249 4.13037 11.0984 6.24831L12.1009 18.4804C12.2957 20.8581 10.4186 22.8954 8.03287 22.8954Z" fill="#254167"/>
<path d="M6.02256 22.8954H5.957C3.56194 22.8954 1.68156 20.8429 1.89094 18.4569L2.96444 6.22481C3.14944 4.117 4.9145 2.5 7.03044 2.5C7.0525 2.5 7.0745 2.50019 7.09644 2.50056C6.01762 3.19456 5.2615 4.40606 5.14394 5.82812L4.07044 18.8099C3.92894 20.5209 4.74162 22.0704 6.02256 22.8954Z" fill="#1C314E"/>
<path d="M6.51461 1.84989L7.31161 0.258827C7.36728 0.147668 7.46484 0.0631801 7.58281 0.0239499C7.70078 -0.0152804 7.82951 -0.00603964 7.94067 0.0496392C8.05183 0.105318 8.13631 0.202874 8.17554 0.320846C8.21478 0.438818 8.20553 0.567543 8.14985 0.678702L7.35286 2.26976C7.29718 2.38092 7.19962 2.46541 7.08165 2.50464C6.96368 2.54387 6.83495 2.53463 6.72379 2.47895C6.61263 2.42327 6.52815 2.32572 6.48892 2.20774C6.44969 2.08977 6.45893 1.96105 6.51461 1.84989Z" fill="#24D3B5"/>
<path d="M22.9052 2.5H15.8165C15.7336 2.5 15.6541 2.46708 15.5955 2.40847C15.5369 2.34987 15.504 2.27038 15.504 2.1875V1.1875C15.504 1.10462 15.5369 1.02513 15.5955 0.966529C15.6541 0.907924 15.7336 0.875 15.8165 0.875H22.9053C22.9882 0.875 23.0677 0.907924 23.1263 0.966529C23.1849 1.02513 23.2178 1.10462 23.2178 1.1875V2.1875C23.2178 2.27039 23.1849 2.34987 23.1262 2.40847C23.0676 2.46708 22.9881 2.5 22.9052 2.5Z" fill="#4070B2"/>
<path d="M17.8624 2.5H15.8165C15.7336 2.5 15.6541 2.46708 15.5955 2.40847C15.5369 2.34987 15.504 2.27038 15.504 2.1875V1.1875C15.504 1.10462 15.5369 1.02513 15.5955 0.966529C15.6541 0.907924 15.7336 0.875 15.8165 0.875H17.8624C17.7796 0.875 17.7001 0.907924 17.6415 0.966529C17.5829 1.02513 17.5499 1.10462 17.5499 1.1875V2.1875C17.5499 2.27038 17.5829 2.34987 17.6415 2.40847C17.7001 2.46708 17.7796 2.5 17.8624 2.5Z" fill="#2E5180"/>
<path d="M7.63947 26.9062C7.12172 26.9062 6.70197 26.4865 6.70197 25.9688V15.3438C6.70197 14.826 7.12172 14.4062 7.63947 14.4062C8.15722 14.4062 8.57697 14.826 8.57697 15.3438V25.9688C8.57697 26.4865 8.15722 26.9062 7.63947 26.9062ZM12.2244 25.9688V15.3438C12.2244 14.826 11.8047 14.4062 11.2869 14.4062C10.7692 14.4062 10.3494 14.826 10.3494 15.3438V25.9688C10.3494 26.4865 10.7692 26.9062 11.2869 26.9062C11.8047 26.9062 12.2244 26.4865 12.2244 25.9688Z" fill="#24D3B5"/>
<path d="M9.46313 26.9062C8.94538 26.9062 8.52563 26.4865 8.52563 25.9688V15.3438C8.52563 14.826 8.94538 14.4062 9.46313 14.4062C9.98088 14.4062 10.4006 14.826 10.4006 15.3438V25.9688C10.4006 26.4865 9.98095 26.9062 9.46313 26.9062ZM14.0481 25.9688V15.3438C14.0481 14.826 13.6283 14.4062 13.1106 14.4062C12.5928 14.4062 12.1731 14.826 12.1731 15.3438V25.9688C12.1731 26.4865 12.5928 26.9062 13.1106 26.9062C13.6284 26.9062 14.0481 26.4865 14.0481 25.9688Z" fill="#93E2C6"/>
<path d="M10.246 18.1562H6.3125C5.79475 18.1562 5.375 17.7365 5.375 17.2188C5.375 16.701 5.79475 16.2812 6.3125 16.2812H10.246C10.7638 16.2812 11.1835 16.701 11.1835 17.2188C11.1835 17.7365 10.7638 18.1562 10.246 18.1562Z" fill="#20B7A1"/>
<path d="M14.4375 18.1562H9.6875C9.16975 18.1562 8.75 17.7365 8.75 17.2188C8.75 16.701 9.16975 16.2812 9.6875 16.2812H14.4375C14.9552 16.2812 15.375 16.701 15.375 17.2188C15.375 17.7365 14.9552 18.1562 14.4375 18.1562Z" fill="#24D3B5"/>
<path d="M7.61993 2.8125H6.36993C6.24561 2.8125 6.12639 2.76311 6.03848 2.67521C5.95057 2.5873 5.90118 2.46807 5.90118 2.34375C5.90118 2.21943 5.95057 2.1002 6.03848 2.01229C6.12639 1.92439 6.24561 1.875 6.36993 1.875H7.61993C7.74425 1.875 7.86348 1.92439 7.95139 2.01229C8.0393 2.1002 8.08868 2.21943 8.08868 2.34375C8.08868 2.46807 8.0393 2.5873 7.95139 2.67521C7.86348 2.76311 7.74425 2.8125 7.61993 2.8125Z" fill="#93E2C6"/>
<path d="M14.3921 14.4062C14.3921 15.7869 13.2728 16.9062 11.8921 16.9062H4.375C2.99431 16.9062 1.875 15.7869 1.875 14.4062C1.875 13.4549 2.40644 12.6277 3.18856 12.2052C3.16886 12.1073 3.15895 12.0077 3.159 11.9078C3.159 11.2769 3.54931 10.7372 4.10162 10.5169C4.07017 10.357 4.05437 10.1943 4.05444 10.0312C4.05444 8.65056 5.17375 7.53125 6.55444 7.53125H11.1103C12.491 7.53125 13.6103 8.65056 13.6103 10.0312C13.6103 10.8405 13.2258 11.5599 12.6296 12.0169C13.6504 12.3315 14.3921 13.2822 14.3921 14.4062Z" fill="#24D3B5"/>
<path d="M18.875 14.4062C18.875 15.7869 17.7557 16.9062 16.375 16.9062H9.27881C7.89812 16.9062 6.77881 15.7869 6.77881 14.4062C6.77794 13.8505 6.96308 13.3104 7.30475 12.8721C7.07701 12.6024 6.9523 12.2608 6.95281 11.9078C6.95281 11.1117 7.57431 10.4608 8.35862 10.4137C8.33924 10.2871 8.32952 10.1593 8.32956 10.0312C8.32956 8.65056 9.44887 7.53125 10.8296 7.53125H14.8241C16.2048 7.53125 17.3241 8.65056 17.3241 10.0312C17.3241 10.2001 17.3074 10.3649 17.2754 10.5243C17.8181 10.7491 18.1998 11.2839 18.1998 11.9078C18.1998 12.1391 18.1473 12.3582 18.0536 12.5538C18.5582 13.0111 18.875 13.6717 18.875 14.4062Z" fill="#93E2C6"/>
<path d="M16.4546 11.3526C16.4546 11.8731 16.0327 12.295 15.5122 12.295C14.9917 12.295 14.5698 11.8731 14.5698 11.3526C14.5698 10.8321 14.9917 10.4102 15.5122 10.4102C16.0327 10.4101 16.4546 10.8321 16.4546 11.3526ZM13.4349 14.0142C13.0991 14.0142 12.8269 14.2863 12.8269 14.6222C12.8269 14.958 13.0991 15.2302 13.4349 15.2302C13.7708 15.2302 14.0429 14.958 14.0429 14.6222C14.0429 14.2863 13.7708 14.0142 13.4349 14.0142ZM10.816 11.3952C10.4802 11.3952 10.208 11.6674 10.208 12.0032C10.208 12.339 10.4802 12.6112 10.816 12.6112C11.1518 12.6112 11.424 12.339 11.424 12.0032C11.424 11.6674 11.1518 11.3952 10.816 11.3952Z" fill="#24D3B5"/>
<path d="M20.8296 24.0938C20.8296 27.0278 18.8709 29.4062 16.4546 29.4062C14.0384 29.4062 12.0796 27.0278 12.0796 24.0938C12.0796 21.1597 14.0384 18.7812 16.4546 18.7812C18.8709 18.7812 20.8296 21.1597 20.8296 24.0938Z" fill="#F2BB88"/>
<path d="M20.8296 24.0938C20.8296 25.0788 20.6088 26.0012 20.2241 26.792C19.7683 26.9874 19.2779 27.0938 18.7671 27.0938C16.3509 27.0938 14.3921 24.7153 14.3921 21.7812C14.3921 20.7962 14.6129 19.8738 14.9977 19.083C15.4534 18.8876 15.9438 18.7812 16.4546 18.7812C18.8709 18.7812 20.8296 21.1597 20.8296 24.0938Z" fill="#F2D1A5"/>
<path d="M26.5567 21.8042C28.6314 23.8789 28.9281 26.9458 27.2196 28.6543C25.5111 30.3629 22.4442 30.0661 20.3695 27.9914C18.2948 25.9167 17.998 22.8498 19.7065 21.1413C21.415 19.4327 24.4821 19.7295 26.5567 21.8042Z" fill="#F2BB88"/>
<path d="M26.5567 21.8042C27.2532 22.5007 27.7494 23.3091 28.0365 24.1403C27.8524 24.6007 27.5808 25.0227 27.2196 25.3839C25.5111 27.0924 22.4442 26.7956 20.3695 24.7209C19.6729 24.0244 19.1768 23.2161 18.8897 22.3848C19.0737 21.9244 19.3454 21.5024 19.7066 21.1412C21.4151 19.4327 24.4821 19.7295 26.5567 21.8042Z" fill="#F2D1A5"/>
<path d="M15.7613 27.0918C15.7613 27.4208 15.4945 27.6876 15.1655 27.6876C14.8365 27.6876 14.5698 27.4208 14.5698 27.0918C14.5698 26.7628 14.8365 26.4961 15.1655 26.4961C15.4945 26.4961 15.7613 26.7628 15.7613 27.0918Z" fill="#E3A76F"/>
<path d="M21.6316 21.9551C21.6316 22.2841 21.3649 22.5509 21.0359 22.5509C20.7069 22.5509 20.4401 22.2841 20.4401 21.9551C20.4401 21.6261 20.7069 21.3594 21.0359 21.3594C21.1939 21.3594 21.3454 21.4221 21.4571 21.5339C21.5689 21.6456 21.6316 21.7971 21.6316 21.9551ZM22.6723 23.0886C22.198 23.0886 21.8135 23.4731 21.8135 23.9474C21.8135 24.4217 22.198 24.8062 22.6723 24.8062C23.1466 24.8062 23.5311 24.4217 23.5311 23.9474C23.5311 23.4731 23.1466 23.0886 22.6723 23.0886Z" fill="#F2BB88"/>
</g>
<defs>
<clipPath id="clip0_1277_43360">
<rect width="32" height="32" fill="white"/>
</clipPath>
</defs>
</svg>
