<svg width="32" height="32" viewBox="0 0 32 32" fill="none" xmlns="http://www.w3.org/2000/svg">
<g clip-path="url(#clip0_1277_43419)">
<path d="M0 16C0 7.16344 7.16344 0 16 0C24.8366 0 32 7.16344 32 16C32 21.046 29.6641 25.5464 26.0146 28.479C25.9603 28.5227 19.7153 25.2181 16 25.2181C12.2847 25.2181 6.04956 28.5304 6 28.4907C2.34212 25.5585 0 21.0527 0 16Z" fill="#F44545"/>
<path d="M27.3222 16.0019C27.3222 22.2549 22.2531 27.3241 16 27.3241C9.74695 27.3241 4.67783 22.2549 4.67783 16.0019C4.67783 9.74881 9.74695 4.67969 16 4.67969C22.2531 4.67969 27.3222 9.74881 27.3222 16.0019Z" fill="#FB5858"/>
<path d="M4.8085 25.5045V23.668C4.8085 21.2517 6.76725 19.293 9.1835 19.293H13.2753L11.5678 25.5045H4.8085Z" fill="#B4E7FD"/>
<path d="M27.2061 25.5045H24.092C23.1627 26.3067 22.5745 27.4934 22.5745 28.8175V29.3625C22.5745 30.1332 22.0898 30.8213 21.3636 31.0796C19.6869 31.676 17.8814 32.0008 16 32.0008C13.8972 32.0008 11.8891 31.5951 10.0498 30.8578C9.56369 30.6629 9.24594 30.1905 9.24594 29.6668C9.24594 28.2987 8.72688 27.0519 7.875 26.1125V23.668C7.875 21.2517 9.83375 19.293 12.25 19.293H22.8311C25.2474 19.293 27.2061 21.2517 27.2061 23.668V25.5045Z" fill="#D5F1FE"/>
<path d="M22.2646 25.5039H26.0146V28.4792C24.8734 29.3967 23.6116 30.1531 22.2646 30.7273V25.5039ZM6 28.491C7.14154 29.4065 8.40331 30.1611 9.75 30.7335V25.5039H6V28.491Z" fill="#F2BB88"/>
<path d="M7.875 29.7866C7.22006 29.3997 6.59348 28.9668 6 28.491V25.5039H7.875V29.7866Z" fill="#E3A76F"/>
<path d="M22.2719 27.3477V30.7257C21.9634 30.8573 21.6507 30.9791 21.3344 31.091V27.3477C21.3344 27.2233 21.3838 27.1041 21.4717 27.0162C21.5596 26.9283 21.6789 26.8789 21.8032 26.8789C21.9275 26.8789 22.0467 26.9283 22.1346 27.0162C22.2225 27.1041 22.2719 27.2233 22.2719 27.3477ZM10.2114 26.8789C10.0871 26.8789 9.96788 26.9283 9.87997 27.0162C9.79206 27.1041 9.74268 27.2233 9.74268 27.3477V30.732C10.0513 30.8632 10.3639 30.9847 10.6802 31.0962V27.3477C10.6802 27.2233 10.6308 27.1041 10.5429 27.0162C10.455 26.9283 10.3357 26.8789 10.2114 26.8789Z" fill="#B4E7FD"/>
<path d="M18.8866 25.4468C17.9641 24.5007 16.7111 25.0799 16 25.9613C15.2889 25.0799 14.0358 24.5007 13.1134 25.4468C11.3049 27.1483 14.5776 29.4968 15.9351 30.5888C15.956 30.6057 15.9778 30.618 16 30.6258C16.0236 30.6173 16.0455 30.6048 16.0649 30.5888C17.4225 29.4968 20.6951 27.1483 18.8866 25.4468Z" fill="#93DCFC"/>
<path d="M18.4805 26.5974C18.472 26.7953 18.349 27.2422 17.6209 28.0117C17.1225 28.5384 16.52 29.0303 16 29.4434C15.4799 29.0303 14.8774 28.5384 14.3791 28.0117C13.6509 27.2422 13.528 26.7953 13.5195 26.5974C13.5145 26.4807 13.5387 26.3339 13.7559 26.1296C13.7657 26.1203 13.7753 26.1109 13.7847 26.1012C13.96 25.9215 14.1023 25.8984 14.2067 25.8984C14.5285 25.8984 14.956 26.1603 15.2704 26.55C15.3582 26.6589 15.4694 26.7468 15.5956 26.8071C15.7219 26.8675 15.86 26.8988 16 26.8988C16.1399 26.8988 16.2781 26.8675 16.4043 26.8071C16.5306 26.7468 16.6417 26.6589 16.7296 26.55C17.044 26.1602 17.4715 25.8984 17.7932 25.8984C17.8977 25.8984 18.04 25.9215 18.2152 26.1012C18.2247 26.1109 18.2343 26.1204 18.2441 26.1296C18.4614 26.3339 18.4855 26.4807 18.4805 26.5974Z" fill="#40C1FA"/>
<path d="M10.1277 24.6797V25.693C10.1277 25.7759 10.0948 25.8554 10.0362 25.914C9.97757 25.9726 9.89808 26.0055 9.8152 26.0055H4.66357C4.58069 26.0055 4.50121 25.9726 4.4426 25.914C4.384 25.8554 4.35107 25.7759 4.35107 25.693V24.6797C4.35107 24.5968 4.384 24.5173 4.4426 24.4587C4.50121 24.4001 4.58069 24.3672 4.66357 24.3672H9.8152C9.89808 24.3672 9.97757 24.4001 10.0362 24.4587C10.0948 24.5173 10.1277 24.5968 10.1277 24.6797Z" fill="#E1EBF0"/>
<path d="M27.3364 24.3673H22.1848C22.1019 24.3673 22.0224 24.4002 21.9638 24.4588C21.9052 24.5174 21.8723 24.5969 21.8723 24.6798V25.6931C21.8723 25.7759 21.9052 25.8554 21.9638 25.914C22.0224 25.9726 22.1019 26.0056 22.1848 26.0056H27.3364C27.4193 26.0056 27.4988 25.9726 27.5574 25.914C27.616 25.8554 27.6489 25.7759 27.6489 25.6931V24.6798C27.6489 24.5969 27.616 24.5174 27.5574 24.4588C27.4988 24.4002 27.4193 24.3673 27.3364 24.3673ZM9.81517 26.0055H7.08911C7.00623 26.0055 6.92675 25.9726 6.86814 25.914C6.80954 25.8554 6.77661 25.7759 6.77661 25.693V24.6797C6.77661 24.5968 6.80954 24.5173 6.86814 24.4587C6.92675 24.4001 7.00623 24.3672 7.08911 24.3672H9.81517C9.89805 24.3672 9.97754 24.4001 10.0361 24.4587C10.0947 24.5173 10.1277 24.5968 10.1277 24.6797V25.693C10.1277 25.7759 10.0947 25.8554 10.0361 25.914C9.97754 25.9726 9.89805 26.0055 9.81517 26.0055Z" fill="#FFF5F5"/>
<path d="M5.26706 18.4949L3.62706 16.8549C3.53915 16.767 3.48976 16.6478 3.48976 16.5235C3.48976 16.3991 3.53915 16.2799 3.62706 16.192C3.71497 16.1041 3.8342 16.0547 3.95853 16.0547C4.08285 16.0547 4.20209 16.1041 4.29 16.192L5.93 17.832C6.01791 17.9199 6.0673 18.0391 6.0673 18.1635C6.0673 18.2878 6.01791 18.407 5.93 18.4949C5.84209 18.5828 5.72285 18.6322 5.59853 18.6322C5.4742 18.6322 5.35497 18.5828 5.26706 18.4949ZM5.08037 19.7647C5.10011 19.7064 5.10817 19.6447 5.1041 19.5833C5.10002 19.5219 5.08389 19.4619 5.05662 19.4067C5.02934 19.3515 4.99147 19.3022 4.94516 19.2617C4.89884 19.2211 4.84499 19.1901 4.78668 19.1704L3.06856 18.5887C2.9508 18.5489 2.82203 18.5574 2.71058 18.6125C2.59912 18.6676 2.51411 18.7647 2.47425 18.8824C2.43438 19.0002 2.44293 19.1289 2.498 19.2404C2.55308 19.3519 2.65018 19.4369 2.76793 19.4767L4.48606 20.0584C4.54437 20.0781 4.60599 20.0862 4.66741 20.0821C4.72884 20.078 4.78885 20.0619 4.84404 20.0346C4.89923 20.0073 4.9485 19.9695 4.98905 19.9231C5.0296 19.8768 5.06063 19.823 5.08037 19.7647ZM26.7329 18.4949L28.3729 16.8549C28.4165 16.8114 28.451 16.7597 28.4746 16.7028C28.4981 16.646 28.5102 16.585 28.5102 16.5235C28.5102 16.4619 28.4981 16.4009 28.4746 16.3441C28.451 16.2872 28.4165 16.2355 28.3729 16.192C28.3294 16.1485 28.2777 16.1139 28.2209 16.0904C28.164 16.0668 28.103 16.0547 28.0415 16.0547C27.9799 16.0547 27.919 16.0668 27.8621 16.0904C27.8052 16.1139 27.7535 16.1485 27.71 16.192L26.07 17.832C26.0265 17.8755 25.9919 17.9272 25.9684 17.9841C25.9448 18.0409 25.9327 18.1019 25.9327 18.1635C25.9327 18.225 25.9448 18.286 25.9684 18.3428C25.9919 18.3997 26.0265 18.4514 26.07 18.4949C26.1135 18.5385 26.1652 18.573 26.2221 18.5965C26.2789 18.6201 26.3399 18.6322 26.4015 18.6322C26.463 18.6322 26.524 18.6201 26.5809 18.5965C26.6377 18.573 26.6894 18.5385 26.7329 18.4949ZM27.5139 20.0584L29.2321 19.4767C29.3498 19.4369 29.4469 19.3519 29.502 19.2404C29.5571 19.1289 29.5656 19.0002 29.5257 18.8824C29.4859 18.7647 29.4009 18.6676 29.2894 18.6125C29.178 18.5574 29.0492 18.5489 28.9314 18.5887L27.2133 19.1704C27.155 19.1901 27.1012 19.2211 27.0548 19.2617C27.0085 19.3022 26.9707 19.3515 26.9434 19.4067C26.9161 19.4619 26.9 19.5219 26.8959 19.5833C26.8918 19.6447 26.8999 19.7064 26.9196 19.7647C26.9394 19.823 26.9704 19.8768 27.0109 19.9231C27.0515 19.9695 27.1008 20.0073 27.156 20.0346C27.2111 20.0619 27.2712 20.078 27.3326 20.0821C27.394 20.0862 27.4556 20.0781 27.5139 20.0584Z" fill="#FC7979"/>
<path d="M16.5733 23.4755H15.4267C13.7154 23.4755 12.3281 22.0882 12.3281 20.3769V19.293H19.6719V20.3769C19.6719 22.0882 18.2846 23.4755 16.5733 23.4755Z" fill="#FFF5F5"/>
<path d="M25.125 10.223C25.5285 10.6792 25.7509 11.2675 25.75 11.8766V15.0016C25.75 16.3823 24.6307 17.5016 23.25 17.5016H12.2252C10.8445 17.5016 9.72519 16.3823 9.72519 15.0016V11.8766C9.72433 11.2675 9.94668 10.6793 10.3502 10.223V9.37663C10.3502 8.44706 10.8576 7.636 11.6104 7.20519C11.6226 7.01738 11.6414 6.83131 11.6668 6.64744C11.7409 6.10969 12.2039 5.71094 12.7467 5.71094H22.6573C23.2503 5.71094 23.7473 6.15425 23.8209 6.74269C23.84 6.8955 23.8547 7.04975 23.8647 7.20525C24.6176 7.636 25.125 8.44706 25.125 9.37663V10.223Z" fill="#2E5180"/>
<path d="M14.5532 17.5017H8.75C7.36931 17.5017 6.25 16.3824 6.25 15.0017V11.8767C6.24915 11.2676 6.47149 10.6793 6.875 10.2231V9.37669C6.875 8.44712 7.38238 7.63606 8.13525 7.20525C8.14738 7.01744 8.16625 6.83138 8.19163 6.64744C8.26575 6.10969 8.72869 5.71094 9.2715 5.71094H15.0747C14.5319 5.71094 14.0689 6.10975 13.9948 6.64744C13.9693 6.83263 13.9505 7.01869 13.9384 7.20525C13.1856 7.636 12.6782 8.44706 12.6782 9.37669V10.2231C12.2747 10.6793 12.0523 11.2676 12.0532 11.8767V15.0017C12.0532 16.3824 13.1725 17.5017 14.5532 17.5017Z" fill="#254167"/>
<path d="M10.6875 11.4805V12.1055C10.6875 12.9684 9.98794 13.668 9.125 13.668C8.26206 13.668 7.5625 12.9684 7.5625 12.1055V11.4805C7.5625 10.6175 8.26206 9.91797 9.125 9.91797C9.98794 9.91797 10.6875 10.6175 10.6875 11.4805Z" fill="#F2D1A5"/>
<path d="M8.5 11.168V12.418C8.5 12.9291 8.74544 13.3829 9.12488 13.668C8.262 13.6679 7.5625 12.9683 7.5625 12.1055V11.4805C7.5625 10.6176 8.262 9.91803 9.12488 9.91797C8.74544 10.203 8.5 10.6568 8.5 11.168ZM22.875 9.91797V8.66797C22.875 4.87103 19.7969 1.79297 16 1.79297C12.2031 1.79297 9.125 4.87103 9.125 8.66797V11.168C9.125 14.3149 11.2394 16.968 14.125 17.7842V19.918C14.125 20.9535 14.9644 21.793 16 21.793C17.0356 21.793 17.875 20.9535 17.875 19.918V17.7842C19.9741 17.1905 21.6651 15.6247 22.4309 13.604C22.5751 13.6465 22.7247 13.6681 22.875 13.668C23.7379 13.668 24.4375 12.9684 24.4375 12.1055V11.4805C24.4375 10.6175 23.7379 9.91797 22.875 9.91797Z" fill="#F2BB88"/>
<path d="M22.875 8.66703V11.167C22.875 14.3415 20.7234 17.0135 17.799 17.8042C17.2348 17.9567 16.6402 17.9567 16.076 17.8042C13.1516 17.0135 11 14.3415 11 11.167V8.66703C11 5.18809 13.5841 2.31272 16.9375 1.85547C20.2909 2.31266 22.875 5.18803 22.875 8.66703Z" fill="#F2D1A5"/>
<path d="M15.0937 11.5878C15.0065 11.4998 14.9576 11.3808 14.9579 11.2568C14.9581 11.1328 15.0075 11.014 15.0952 10.9264C15.1828 10.8387 15.3016 10.7893 15.4256 10.7891C15.5495 10.7888 15.6686 10.8376 15.7566 10.9249C15.8217 10.99 15.9081 11.0259 15.9999 11.0259C16.0917 11.0259 16.1781 10.99 16.2432 10.9249C16.3317 10.8394 16.4501 10.7921 16.5731 10.7932C16.696 10.7942 16.8136 10.8435 16.9006 10.9305C16.9875 11.0174 17.0368 11.1351 17.0379 11.258C17.0389 11.381 16.9916 11.4994 16.9061 11.5878C16.6639 11.83 16.3421 11.9634 15.9999 11.9634C15.6576 11.9634 15.3359 11.83 15.0937 11.5878ZM14.1061 14.6218C14.194 14.7097 14.3132 14.7591 14.4375 14.7591C14.5618 14.7591 14.681 14.7097 14.7689 14.6218C15.4477 13.943 16.5522 13.943 17.2311 14.6218C17.3195 14.7073 17.4379 14.7546 17.5609 14.7536C17.6838 14.7525 17.8015 14.7032 17.8884 14.6162C17.9754 14.5293 18.0247 14.4117 18.0257 14.2887C18.0267 14.1657 17.9794 14.0473 17.8939 13.9589C17.3718 13.4368 16.6859 13.1757 16 13.1757C15.3141 13.1757 14.6282 13.4368 14.1061 13.9589C14.0625 14.0024 14.028 14.0541 14.0044 14.111C13.9809 14.1678 13.9688 14.2288 13.9688 14.2904C13.9688 14.3519 13.9809 14.4129 14.0044 14.4698C14.028 14.5266 14.0625 14.5783 14.1061 14.6218Z" fill="#E3A76F"/>
<path d="M14.6529 8.14908C14.7408 8.23699 14.7902 8.35621 14.7902 8.48052C14.7902 8.60483 14.7408 8.72405 14.6529 8.81195C14.3178 9.14695 13.8777 9.31452 13.4376 9.31452C12.9974 9.31452 12.5573 9.14695 12.2223 8.81195C12.1343 8.72404 12.085 8.60481 12.085 8.48049C12.085 8.35616 12.1343 8.23693 12.2223 8.14902C12.3102 8.06111 12.4294 8.01172 12.5537 8.01172C12.6781 8.01172 12.7973 8.06111 12.8852 8.14902C13.1898 8.45358 13.6854 8.45358 13.9901 8.14902C14.0336 8.10549 14.0853 8.07097 14.1421 8.04742C14.199 8.02387 14.2599 8.01175 14.3215 8.01175C14.383 8.01176 14.444 8.02389 14.5008 8.04745C14.5577 8.07101 14.6094 8.10555 14.6529 8.14908ZM19.7779 8.14908C19.7344 8.10554 19.6827 8.07101 19.6258 8.04744C19.5689 8.02388 19.508 8.01175 19.4464 8.01174C19.3849 8.01174 19.3239 8.02386 19.267 8.04741C19.2102 8.07096 19.1585 8.10549 19.1149 8.14902C18.8103 8.45358 18.3147 8.45358 18.0101 8.14902C17.9222 8.06111 17.8029 8.01172 17.6786 8.01172C17.5543 8.01172 17.435 8.06111 17.3471 8.14902C17.2592 8.23693 17.2098 8.35616 17.2098 8.48049C17.2098 8.60481 17.2592 8.72404 17.3471 8.81195C17.6822 9.14695 18.1223 9.31452 18.5624 9.31452C19.0026 9.31452 19.4427 9.14695 19.7778 8.81195C19.8213 8.76844 19.8559 8.71678 19.8794 8.65992C19.903 8.60305 19.9151 8.5421 19.9151 8.48054C19.9152 8.41899 19.903 8.35803 19.8795 8.30116C19.8559 8.24428 19.8214 8.19261 19.7779 8.14908Z" fill="#2E5180"/>
<path d="M20.2181 12.2001C19.419 12.2001 18.8888 11.3696 19.2278 10.646C19.4317 10.2109 19.8025 9.77878 20.2181 9.37891C20.6336 9.77872 21.0045 10.2109 21.2083 10.646C21.5475 11.3696 21.0172 12.2001 20.2181 12.2001Z" fill="#FFF5F5"/>
<path d="M11.3732 6.875H8.16351C8.57876 3.00975 11.8513 0 15.8268 0H16.1732C16.6542 0 17.1249 0.0440625 17.5815 0.128375C17.6753 0.145687 17.6829 0.2775 17.5913 0.304062C14.851 1.09869 12.74 3.37331 12.1805 6.20556C12.1039 6.59313 11.7683 6.875 11.3732 6.875Z" fill="#254167"/>
<path d="M17.3347 6.87519H11.236C11.6017 3.47087 14.2351 0.73025 17.5619 0.125C20.8886 0.73025 23.4708 3.47087 23.8365 6.87519H20.9126C20.664 6.87519 20.4255 6.77644 20.2497 6.60063L19.7866 6.1375C19.4204 5.77137 18.8269 5.77137 18.4607 6.1375L17.9976 6.60063C17.9106 6.68767 17.8072 6.75672 17.6935 6.80383C17.5798 6.85094 17.4578 6.87519 17.3347 6.87519Z" fill="#2E5180"/>
</g>
<defs>
<clipPath id="clip0_1277_43419">
<rect width="32" height="32" fill="white"/>
</clipPath>
</defs>
</svg>
