<svg width="32" height="32" viewBox="0 0 32 32" fill="none" xmlns="http://www.w3.org/2000/svg">
<circle cx="16" cy="16" r="16" fill="#2E5180"/>
<circle cx="16" cy="16" r="12" fill="#376099"/>
<mask id="mask0_1277_43392" style="mask-type:alpha" maskUnits="userSpaceOnUse" x="0" y="0" width="32" height="32">
<circle cx="16" cy="16" r="16" fill="#2E5180"/>
</mask>
<g mask="url(#mask0_1277_43392)">
<path d="M24.7031 10.875V22.6875C24.7031 27.0367 21.1774 30.5625 16.8281 30.5625H16.1719C11.8226 30.5625 8.29688 27.0367 8.29688 22.6875V10.875C8.29688 6.52577 11.8226 3 16.1719 3H16.8281C21.1774 3 24.7031 6.52577 24.7031 10.875Z" fill="#FFE4C2"/>
<path d="M17.9766 30.4794C17.5963 30.5348 17.2124 30.5626 16.8281 30.5625H16.1719C11.8226 30.5625 8.29688 27.0367 8.29688 22.6875V10.875C8.29688 6.52577 11.8226 3 16.1719 3H16.8281C17.2182 3 17.6016 3.02835 17.9766 3.08315C14.1717 3.63906 11.25 6.91584 11.25 10.875V22.6875C11.25 26.6467 14.1716 29.9234 17.9766 30.4794Z" fill="#F2D1A5"/>
<path d="M20.91 23.3435H12.09C11.3004 23.3435 10.6604 22.7035 10.6604 21.9139C10.6604 21.1244 11.3004 20.4844 12.09 20.4844H20.91C21.6995 20.4844 22.3396 21.1244 22.3396 21.9139C22.3395 22.7035 21.6995 23.3435 20.91 23.3435Z" fill="#07A9F0"/>
<path d="M13.5665 23.3435H12.09C11.3004 23.3435 10.6604 22.7035 10.6604 21.9139C10.6604 21.1244 11.3004 20.4844 12.09 20.4844H13.5665C12.777 20.4844 12.137 21.1244 12.137 21.9139C12.137 22.7035 12.7771 23.3435 13.5665 23.3435Z" fill="#0691CE"/>
<path d="M10.5938 23.0156H13.586C11.0489 23.0156 8.99224 25.0723 8.99224 27.6094V30.5385C8.99224 31.0565 8.37812 31.3344 7.99277 30.9882C7.26844 30.3374 6.6017 29.6253 6 28.8597V27.6094C6 25.0723 8.05669 23.0156 10.5938 23.0156Z" fill="#07A9F0"/>
<path d="M27 33.3797C24.6731 34.5982 22.0254 35.2875 19.2167 35.2875C14.8907 35.2875 10.9466 33.6524 7.96875 30.9666V27.6094C7.96875 25.0723 10.0254 23.0156 12.5625 23.0156H22.4062C24.9433 23.0156 27 25.0723 27 27.6094V33.3797Z" fill="#40C1FA"/>
<path d="M16.0078 29.0006V23.7005C16.3338 23.6238 16.6621 23.5569 16.9922 23.5V29.0006C16.9922 29.1312 16.9403 29.2563 16.848 29.3487C16.7557 29.441 16.6305 29.4928 16.5 29.4928C16.3694 29.4928 16.2442 29.441 16.1519 29.3487C16.0596 29.2563 16.0078 29.1312 16.0078 29.0006ZM22.5856 29.0506C22.455 29.0506 22.3299 29.1024 22.2375 29.1947C22.1452 29.287 22.0934 29.4122 22.0934 29.5427V35.0434C22.4234 34.9864 22.7517 34.9195 23.0778 34.8429V29.5427C23.0778 29.4122 23.0259 29.287 22.9336 29.1947C22.8413 29.1024 22.7161 29.0506 22.5856 29.0506ZM10.4143 29.0506C10.2838 29.0506 10.1586 29.1024 10.0663 29.1947C9.97397 29.287 9.92212 29.4122 9.92212 29.5427V32.4856C10.2432 32.6992 10.5715 32.9017 10.9065 33.0927V29.5427C10.9065 29.4122 10.8546 29.287 10.7623 29.1947C10.67 29.1024 10.5448 29.0506 10.4143 29.0506Z" fill="#07A9F0"/>
<path d="M25.3594 14.8125V15.4687C25.3594 16.3748 24.6248 17.1094 23.7188 17.1094C23.5609 17.1095 23.4039 17.0869 23.2525 17.0422C22.4483 19.164 20.6728 20.808 18.4687 21.4314V23.6719C18.4687 24.7592 17.5873 25.6406 16.5 25.6406C15.4127 25.6406 14.5312 24.7592 14.5312 23.6719V21.4314C12.3272 20.808 10.5517 19.164 9.74752 17.0422C9.59613 17.0869 9.43909 17.1095 9.28125 17.1094C8.37517 17.1094 7.64062 16.3748 7.64062 15.4687V14.8125C7.64062 13.9064 8.37517 13.1719 9.28125 13.1719V11.8594C9.28125 7.87259 12.5132 4.64062 16.5 4.64062C20.4868 4.64062 23.7188 7.87259 23.7188 11.8594V13.1719C24.6248 13.1719 25.3594 13.9064 25.3594 14.8125Z" fill="#F2BB88"/>
<path d="M23.7187 11.8592V14.4842C23.7187 17.8174 21.4596 20.6229 18.3889 21.4532C17.7965 21.6133 17.1722 21.6133 16.5798 21.4532C13.5091 20.6229 11.25 17.8174 11.25 14.4842V11.8592C11.25 8.20629 13.9633 5.18714 17.4844 4.70703C21.0055 5.18714 23.7187 8.20629 23.7187 11.8592Z" fill="#F2D1A5"/>
<path d="M15.5484 14.9246C15.4568 14.8322 15.4055 14.7072 15.4058 14.5771C15.4061 14.4469 15.4579 14.3222 15.5499 14.2301C15.642 14.1381 15.7667 14.0862 15.8969 14.0859C16.027 14.0856 16.152 14.1369 16.2445 14.2286C16.3128 14.2969 16.4035 14.3346 16.4999 14.3346C16.5963 14.3346 16.687 14.2969 16.7554 14.2286C16.8482 14.1388 16.9726 14.0892 17.1017 14.0902C17.2308 14.0913 17.3543 14.1431 17.4456 14.2344C17.5369 14.3257 17.5887 14.4492 17.5898 14.5783C17.5909 14.7075 17.5412 14.8318 17.4514 14.9246C17.1971 15.1789 16.8592 15.319 16.4999 15.319C16.1405 15.319 15.8027 15.1789 15.5484 14.9246ZM18.4886 17.4142C17.9404 16.866 17.2202 16.5918 16.5 16.5918C15.7798 16.5918 15.0596 16.866 14.5114 17.4142C14.4197 17.5066 14.3684 17.6316 14.3687 17.7618C14.369 17.8919 14.4208 18.0167 14.5129 18.1087C14.6049 18.2008 14.7296 18.2526 14.8598 18.2529C14.99 18.2532 15.1149 18.2019 15.2074 18.1103C15.9201 17.3975 17.0798 17.3975 17.7926 18.1103C17.8854 18.2 18.0098 18.2497 18.1389 18.2486C18.268 18.2475 18.3915 18.1957 18.4828 18.1044C18.5741 18.0131 18.6259 17.8896 18.627 17.7605C18.6281 17.6314 18.5784 17.507 18.4886 17.4142Z" fill="#D6995C"/>
<path d="M15.0854 11.3161C15.1777 11.4084 15.2295 11.5336 15.2295 11.6641C15.2295 11.7946 15.1777 11.9198 15.0854 12.0121C14.7336 12.3639 14.2714 12.5398 13.8093 12.5398C13.3472 12.5398 12.885 12.3639 12.5332 12.0121C12.4409 11.9198 12.3891 11.7946 12.3891 11.6641C12.3891 11.5335 12.4409 11.4083 12.5332 11.316C12.6255 11.2237 12.7507 11.1719 12.8813 11.1719C13.0118 11.1719 13.137 11.2237 13.2293 11.316C13.5492 11.6358 14.0696 11.6358 14.3894 11.316C14.4817 11.2238 14.6069 11.172 14.7374 11.172C14.8679 11.172 14.9931 11.2238 15.0854 11.3161ZM20.4666 11.3161C20.4209 11.2704 20.3667 11.2341 20.307 11.2094C20.2473 11.1846 20.1832 11.1719 20.1186 11.1719C20.054 11.1719 19.99 11.1846 19.9302 11.2094C19.8705 11.2341 19.8163 11.2703 19.7706 11.316C19.4507 11.6358 18.9303 11.6358 18.6104 11.316C18.5181 11.2237 18.3929 11.1719 18.2624 11.1719C18.1319 11.1719 18.0067 11.2237 17.9144 11.316C17.822 11.4083 17.7702 11.5335 17.7702 11.6641C17.7702 11.7946 17.822 11.9198 17.9144 12.0121C18.2662 12.3639 18.7283 12.5398 19.1904 12.5398C19.6526 12.5398 20.1147 12.3639 20.4665 12.0121C20.5122 11.9664 20.5485 11.9122 20.5733 11.8525C20.598 11.7928 20.6108 11.7288 20.6108 11.6641C20.6108 11.5995 20.5981 11.5355 20.5733 11.4758C20.5486 11.4161 20.5124 11.3618 20.4666 11.3161Z" fill="#B46E5A"/>
<path d="M14.3184 7.83877C11.907 8.48728 9.99466 10.3535 9.28125 12.7376V11.5291C9.28125 8.71388 10.8929 6.275 13.2438 5.08476C14.2336 4.58364 15.4043 5.29902 15.4043 6.40835C15.4043 7.07483 14.9619 7.66566 14.3184 7.83877Z" fill="#FF72C3"/>
<path d="M23.7187 11.5312V12.7397C22.828 9.76318 20.0683 7.59375 16.8019 7.59375H16.1979C15.089 7.59375 14.0385 7.84378 13.0997 8.29056C12.7005 8.48054 11.9425 8.43828 11.8528 8.21594C11.6927 7.81937 13.6642 6.8113 13.5519 6.57026C13.4975 6.45345 12.9593 6.52813 11.2499 7.12158C11.2501 6.93897 11.2888 6.75845 11.3634 6.5918C11.4381 6.42515 11.5471 6.27611 11.6832 6.1544C12.9609 5.00911 14.649 4.3125 16.4999 4.3125C20.4867 4.3125 23.7187 7.54447 23.7187 11.5312Z" fill="#FF94D2"/>
<path d="M19.4406 22.3633V23.841C19.4406 25.1423 18.1214 26.201 16.5 26.201C14.8785 26.201 13.5593 25.1423 13.5593 23.841V22.3633C13.5593 22.0914 13.7796 21.8711 14.0515 21.8711C14.3234 21.8711 14.5437 22.0914 14.5437 22.3633V23.841C14.5437 24.5867 15.4395 25.2167 16.5 25.2167C17.5604 25.2167 18.4562 24.5867 18.4562 23.841V22.3633C18.4562 22.0914 18.6765 21.8711 18.9484 21.8711C19.2203 21.8711 19.4406 22.0914 19.4406 22.3633Z" fill="#07A9F0"/>
<path d="M9.73407 15.7739V16.8718C9.73407 17.0023 9.68222 17.1275 9.58991 17.2198C9.49761 17.3121 9.37242 17.364 9.24188 17.364C9.11135 17.364 8.98616 17.3121 8.89385 17.2198C8.80155 17.1275 8.7497 17.0023 8.7497 16.8718V16.4791C8.62603 16.4241 8.52098 16.3344 8.44725 16.2208C8.37352 16.1073 8.33428 15.9749 8.33429 15.8395V15.7937C8.33429 15.4072 8.64765 15.0938 9.03418 15.0938C9.37937 15.0938 9.66621 15.3438 9.72357 15.6726C9.73046 15.7052 9.73407 15.7391 9.73407 15.7739ZM23.2763 15.6725C23.3337 15.3437 23.6205 15.0938 23.9657 15.0938C24.3522 15.0938 24.6656 15.4071 24.6656 15.7936V15.8394C24.6656 16.1247 24.495 16.37 24.2502 16.479V16.8717C24.2502 17.0023 24.1983 17.1275 24.106 17.2198C24.0137 17.3121 23.8885 17.3639 23.758 17.3639C23.6275 17.3639 23.5023 17.3121 23.41 17.2198C23.3177 17.1275 23.2658 17.0023 23.2658 16.8717V15.7738C23.2659 15.7398 23.2694 15.7058 23.2763 15.6725Z" fill="#FFF5F5"/>
</g>
</svg>
