<svg width="32" height="32" viewBox="0 0 32 32" fill="none" xmlns="http://www.w3.org/2000/svg">
<g clip-path="url(#clip0_1277_43486)">
<path d="M32 16.001C32 21.206 29.5146 25.8304 25.6659 28.7524C25.5299 28.8556 6.37994 28.7891 6.20087 28.6501C2.42812 25.7232 0 21.1456 0 16.001C0 11.4206 1.92475 7.28971 5.00956 4.37302C5.141 4.24877 26.9642 4.34802 27.0055 4.38721C30.0815 7.30309 32 11.428 32 16.001Z" fill="#6C94CA"/>
<path d="M29.5439 16.0009C29.5439 23.481 23.4801 29.5448 16 29.5448C8.51993 29.5448 2.45612 23.481 2.45612 16.0009C2.45612 8.52084 8.51993 2.45703 16 2.45703C23.4801 2.45703 29.5439 8.52084 29.5439 16.0009Z" fill="#5381C1"/>
<path d="M25.7828 28.662C23.0754 30.7568 19.6779 32.0026 15.9897 32.0002C12.3015 31.9978 8.90556 30.7477 6.20088 28.6493C3.94138 25.265 3.54313 21.101 5.31231 17.3117C6.20238 15.4054 6.69188 13.3293 6.69325 11.1568C6.69456 9.07958 6.24906 7.09008 5.43394 5.25214C5.36194 5.08977 7.83713 5.84371 9.33588 5.84371C11.5084 5.84371 13.4893 5.02345 14.9858 3.67577C15.2636 3.42437 15.6249 3.28516 15.9996 3.28516C16.3743 3.28516 16.7356 3.42437 17.0134 3.67577C18.5099 5.02345 20.4908 5.84371 22.6633 5.84371C24.1746 5.84371 26.6666 5.07233 26.5939 5.23458C25.7676 7.08014 25.3144 9.07977 25.3131 11.1688C25.3117 13.3413 25.7984 15.418 26.6861 17.3255C28.4503 21.117 28.0467 25.2805 25.7828 28.662Z" fill="#F2BB88"/>
<path d="M6.925 29.1794C6.67872 29.0095 6.43723 28.8328 6.20082 28.6494C3.94132 25.265 3.54307 21.101 5.31225 17.3117C6.20232 15.4054 6.69182 13.3294 6.69319 11.1569C6.6945 9.07956 6.249 7.09012 5.43388 5.25218C5.302 4.95481 11.9585 4.44181 12.1582 5.34712C12.3329 6.13893 8.17219 6.94812 8.25482 7.77175C8.32604 8.48287 8.36144 9.19713 8.36088 9.91181C8.35919 12.5592 7.86944 15.0892 6.97907 17.4125C5.49294 21.2907 5.53532 25.4907 6.925 29.1794Z" fill="#E3A76F"/>
<path d="M13.4879 5.51869C12.3576 6.12987 11.0635 6.47694 9.68827 6.47694C8.12489 6.47694 6.66621 6.02844 5.43396 5.25312C5.30187 4.95536 5.16034 4.66188 5.00958 4.37313C6.90027 2.5855 9.22671 1.254 11.8126 0.554688C11.3488 1.08788 11.0717 1.81394 11.0717 2.59462C11.0716 4.21231 12.2041 5.40025 13.4879 5.51869Z" fill="#F2D1A5"/>
<path d="M27.0054 4.38619C26.8596 4.66467 26.7224 4.94755 26.5939 5.23444C25.3558 6.02057 23.8869 6.47582 22.3118 6.47582C20.2514 6.47582 18.373 5.69694 16.9549 4.41757C16.4097 3.92569 15.5881 3.928 15.0428 4.41969C14.6407 4.78223 14.203 5.10316 13.7363 5.37757C11.9939 6.40169 9.79788 5.12832 9.79788 3.10725C9.79788 1.93307 10.5766 0.896628 11.7079 0.582316C13.0771 0.201878 14.5199 -0.000934264 16.0103 3.23556e-06C20.2701 0.00275324 24.1401 1.67 27.0054 4.38619Z" fill="#FFE4C2"/>
<path d="M15.2979 13.7685C15.2979 13.3808 15.6122 13.0664 16 13.0664C16.3877 13.0664 16.7021 13.3808 16.7021 13.7685C16.7021 14.1563 16.3877 14.4707 16 14.4707C15.6122 14.4707 15.2979 14.1563 15.2979 13.7685ZM24.1219 21.1833C21.0726 21.1833 18.1984 22.5308 16.2462 24.8324H15.7537C13.8016 22.5308 10.9273 21.1833 7.87805 21.1833C7.61918 21.1833 7.4093 21.3932 7.4093 21.6521C7.4093 21.911 7.61918 22.1208 7.87805 22.1208C10.4134 22.1208 12.8158 23.1455 14.5657 24.9214L15.6662 31.9979C15.8887 32.0024 16.1113 32.0024 16.3337 31.9979L17.4343 24.9215C19.1842 23.1455 21.5866 22.1208 24.122 22.1208C24.3809 22.1208 24.5907 21.911 24.5907 21.6521C24.5907 21.3932 24.3809 21.1833 24.1219 21.1833Z" fill="#D6995C"/>
<path d="M21 18C21 18.5523 20.5523 19 20 19C19.4477 19 19 18.5523 19 18C19 17.4477 19.4477 17 20 17C20.5523 17 21 17.4477 21 18Z" fill="#93DCFC"/>
<path d="M12 13.5C12 13.7761 11.7762 14 11.5 14C11.2238 14 11 13.7762 11 13.5C11 13.2239 11.2238 13 11.5 13C11.7762 13 12 13.2239 12 13.5Z" fill="#FFF5F5"/>
<path d="M15.5 22.2232C15.5 22.6374 15.1642 22.9732 14.75 22.9732C14.3358 22.9732 14 22.6374 14 22.2232C14 21.809 14.3358 21.4732 14.75 21.4732C15.1642 21.4732 15.5 21.8089 15.5 22.2232ZM14.75 29.0151C14.4048 29.0151 14.125 29.2949 14.125 29.6401C14.125 29.9853 14.4048 30.2651 14.75 30.2651C15.0952 30.2651 15.375 29.9853 15.375 29.6401C15.375 29.2949 15.0952 29.0151 14.75 29.0151ZM17.0565 23.4866C16.4805 23.4866 16.0135 23.9536 16.0135 24.5296C16.0135 25.1056 16.4804 25.5726 17.0565 25.5726C17.6326 25.5726 18.0995 25.1057 18.0995 24.5296C18.0994 23.9536 17.6325 23.4866 17.0565 23.4866ZM15.5 7.625C15.5 7.97019 15.2202 8.25 14.875 8.25C14.5298 8.25 14.25 7.97019 14.25 7.625C14.25 7.27981 14.5298 7 14.875 7C15.2202 7 15.5 7.27981 15.5 7.625ZM16.0135 11.8213C15.4375 11.8213 14.9705 12.2882 14.9705 12.8643C14.9705 13.4404 15.4374 13.9073 16.0135 13.9073C16.5895 13.9073 17.0565 13.4404 17.0565 12.8643C17.0565 12.2882 16.5895 11.8213 16.0135 11.8213Z" fill="#93DCFC"/>
<path d="M19.5716 21.3887C20.3622 23.1337 20.0036 25.0249 18.9458 26.3355C18.8687 26.4309 18.033 26.7143 17.6801 26.7143C13.8738 26.7143 11.3483 22.6225 12.9634 19.0575C13.0411 18.8862 13.4235 18.2765 13.533 18.1435C14.1352 17.4118 14.8022 16.6945 15.4999 16C17.2085 17.7005 18.7334 19.5385 19.5716 21.3887Z" fill="#B4E7FD"/>
<path d="M18.9459 26.3385C18.1381 27.3393 16.9228 28.0016 15.5 28.0016C12.2142 28.0016 10.0341 24.4693 11.4284 21.3918C11.929 20.287 12.6743 19.1866 13.5573 18.1172C13.4277 18.3583 13.3061 18.6038 13.1927 18.8535C11.5899 22.3912 14.096 26.4516 17.8732 26.4516C18.2336 26.452 18.593 26.4141 18.9459 26.3385Z" fill="#93DCFC"/>
</g>
<defs>
<clipPath id="clip0_1277_43486">
<rect width="32" height="32" fill="white"/>
</clipPath>
</defs>
</svg>
