<svg width="97" height="96" viewBox="0 0 97 96" fill="none" xmlns="http://www.w3.org/2000/svg">
<circle cx="40" cy="56" r="40" fill="#8AC0CB"/>
<path d="M55.2799 69.7038L43.7295 57.7372L76.2136 26.3828L87.764 38.3494L55.2799 69.7038Z" fill="url(#paint0_linear_4033_14693)"/>
<path d="M79.2741 43.3284L70.562 34.3024L76.0272 29.0273L84.7393 38.0533L79.2741 43.3284Z" fill="url(#paint1_linear_4033_14693)"/>
<path d="M72.8779 49.5042L64.1658 40.4782L69.6309 35.2031L78.343 44.2292L72.8779 49.5042Z" fill="url(#paint2_linear_4033_14693)"/>
<path d="M66.4814 55.6761L57.7693 46.6501L63.2344 41.375L71.9465 50.401L66.4814 55.6761Z" fill="url(#paint3_linear_4033_14693)"/>
<path d="M60.0854 61.848L51.3733 52.822L56.8384 47.5469L65.5505 56.5729L60.0854 61.848Z" fill="url(#paint4_linear_4033_14693)"/>
<g opacity="0.3">
<path d="M87.7639 38.3457L81.6238 31.9844C81.2303 33.7534 80.4907 35.6012 79.1467 37.2294C76.5893 40.3274 73.6548 40.4365 69.2176 43.1723C64.5866 46.0277 63.2955 48.6757 59.7388 52.4521C57.1438 55.2074 53.32 58.5871 47.6572 61.8028L55.2798 69.7001L87.7639 38.3457Z" fill="url(#paint5_linear_4033_14693)"/>
</g>
<path d="M49.6314 69.2918L45.2874 53.2375L88.8678 41.4453L93.2118 57.4997L49.6314 69.2918Z" fill="url(#paint6_linear_4033_14693)"/>
<path d="M83.373 57.765L80.0964 45.6558L87.4284 43.6719L90.705 55.7811L83.373 57.765Z" fill="url(#paint7_linear_4033_14693)"/>
<path d="M74.7919 60.0853L71.5154 47.9761L78.8474 45.9922L82.1239 58.1014L74.7919 60.0853Z" fill="url(#paint8_linear_4033_14693)"/>
<path d="M66.2106 62.4096L62.9341 50.3003L70.2661 48.3164L73.5426 60.4257L66.2106 62.4096Z" fill="url(#paint9_linear_4033_14693)"/>
<path d="M57.6296 64.7299L54.353 52.6206L61.685 50.6367L64.9616 62.746L57.6296 64.7299Z" fill="url(#paint10_linear_4033_14693)"/>
<g opacity="0.3">
<path d="M93.212 57.5032L90.351 46.9297C88.5373 49.2589 86.7137 50.3083 85.2537 50.827C81.1516 52.2845 78.7007 49.99 73.3165 50.9638C68.2678 51.877 66.1682 54.6641 62.7599 56.7223C59.5172 58.6805 54.6109 60.2679 46.9519 59.3922L49.6315 69.2954L93.212 57.5032Z" fill="url(#paint11_linear_4033_14693)"/>
</g>
<path d="M45.9773 67.3925L49.9176 51.2344L93.7799 61.9307L89.8396 78.0889L45.9773 67.3925Z" fill="url(#paint12_linear_4033_14693)"/>
<path d="M81.0935 73.5743L84.0656 61.3867L91.445 63.1863L88.4729 75.3738L81.0935 73.5743Z" fill="url(#paint13_linear_4033_14693)"/>
<path d="M72.4568 71.4727L75.4289 59.2852L82.8083 61.0847L79.8362 73.2723L72.4568 71.4727Z" fill="url(#paint14_linear_4033_14693)"/>
<path d="M63.8203 69.3633L66.7924 57.1758L74.1718 58.9754L71.1997 71.1629L63.8203 69.3633Z" fill="url(#paint15_linear_4033_14693)"/>
<path d="M55.1836 67.2539L58.1557 55.0664L65.5351 56.866L62.563 69.0535L55.1836 67.2539Z" fill="url(#paint16_linear_4033_14693)"/>
<g opacity="0.3">
<path d="M89.8395 78.09L92.3684 67.72C88.8337 69.749 86.1676 69.8966 84.3264 69.6172C80.0223 68.964 78.946 65.7838 73.7405 64.0986C68.8592 62.5185 65.6921 63.9831 61.7158 64.1871C58.1905 64.3679 53.5438 63.5818 47.7994 59.9219L45.9773 67.3937L89.8395 78.09Z" fill="url(#paint17_linear_4033_14693)"/>
</g>
<path d="M51.3065 61.9006C52.2833 61.9006 53.0752 61.1088 53.0752 60.132C53.0752 59.1551 52.2833 58.3633 51.3065 58.3633C50.3297 58.3633 49.5378 59.1551 49.5378 60.132C49.5378 61.1088 50.3297 61.9006 51.3065 61.9006Z" fill="url(#paint18_linear_4033_14693)"/>
<path d="M48.4971 58.9339C46.7533 57.2974 44.4521 54.6395 43.4109 50.8815C42.0453 45.9528 44.0464 43.4622 43.8208 35.1179C43.6781 29.8419 43.5253 26.1612 40.8655 24.1926C38.781 22.6499 35.4065 22.3431 33.3585 23.7731C31.6556 24.9621 30.6705 27.4909 30.3699 29.296C30.1249 30.7671 30.3216 31.8353 29.4736 32.6103C28.607 33.4022 27.6714 32.9539 26.861 33.5405C25.2176 34.7301 26.1692 38.6706 26.323 39.3075C28.0338 46.3918 34.5614 51.1698 37.4339 53.2196C39.8089 54.9145 43.483 57.173 48.4971 58.9339Z" fill="url(#paint19_linear_4033_14693)"/>
<mask id="mask0_4033_14693" style="mask-type:luminance" maskUnits="userSpaceOnUse" x="25" y="22" width="24" height="37">
<path d="M48.4967 58.9339C46.7528 57.2974 44.4516 54.6395 43.4104 50.8815C42.0448 45.9528 44.0459 43.4622 43.8203 35.1179C43.6776 29.8419 43.5248 26.1612 40.865 24.1926C38.7805 22.6499 35.406 22.3431 33.358 23.7731C31.6551 24.9621 30.67 27.4909 30.3694 29.296C30.1244 30.7671 30.3211 31.8353 29.4731 32.6103C28.6065 33.4022 27.6709 32.9539 26.8605 33.5405C25.2171 34.7301 26.1687 38.6706 26.3225 39.3075C28.0333 46.3918 34.5609 51.1698 37.4334 53.2196C39.8084 54.9145 43.4825 57.173 48.4967 58.9339Z" fill="white"/>
</mask>
<g mask="url(#mask0_4033_14693)">
<g opacity="0.5">
<path d="M50.4808 60.2654C47.438 59.1092 44.8189 57.7297 42.6961 56.1654C39.5514 53.8479 37.5926 51.1848 36.874 48.2501C36.3123 45.9558 36.5204 43.4723 36.7839 40.3281C37.0023 37.7213 37.3917 35.8958 37.7354 34.2852C38.1799 32.2014 38.5311 30.5554 38.2875 28.1773C38.0401 25.7607 37.2428 23.3574 35.9177 21.0341L36.0869 20.9375C37.4256 23.2846 38.2311 25.7137 38.4813 28.1574C38.728 30.5661 38.3739 32.2252 37.9259 34.3258C37.5834 35.9307 37.1954 37.7498 36.9779 40.3437C36.7057 43.5931 36.509 45.9404 37.0633 48.2037C37.7706 51.0929 39.7047 53.7189 42.8116 56.0085C44.9201 57.5624 47.5237 58.9333 50.55 60.0833L50.4808 60.2654Z" fill="white"/>
<path d="M37.026 38.5422L36.9946 38.4368C35.5942 33.7358 33.0806 30.7935 31.2185 29.1531C29.2 27.3749 27.4904 26.6999 27.4734 26.6934L27.5438 26.5117C27.5611 26.5184 29.2968 27.2025 31.3403 29.0008C33.2096 30.6458 35.7276 33.5863 37.1487 38.2728C37.5379 38.0837 39.0046 37.3136 40.4718 35.8018C42.0413 34.1845 43.9333 31.3616 44.0342 27.0978L44.229 27.1023C44.1265 31.4331 42.2021 34.3005 40.6058 35.9434C38.8761 37.7234 37.1442 38.4907 37.1269 38.4982L37.026 38.5422Z" fill="white"/>
<path d="M36.6621 45.5679L36.5942 45.548C34.2955 44.8733 31.6888 42.2313 28.8464 37.6952C26.7353 34.3263 25.2764 31.1123 25.262 31.0802L25.4394 31C25.4969 31.1271 31.2208 43.677 36.5819 45.3408C36.8548 44.9501 38.4638 42.6884 40.4873 40.7029C41.6543 39.5579 43.6224 38.8172 45.068 38.3975C46.6292 37.9442 47.9348 37.757 47.9478 37.7551L47.975 37.948C47.9237 37.9553 42.8061 38.7006 40.6237 40.842C38.4249 42.9994 36.719 45.4846 36.7021 45.5095L36.6621 45.5679Z" fill="white"/>
<path d="M41.9167 55.5385L41.7239 55.5155C41.6982 55.5124 39.1182 55.1965 35.7493 54.0218C32.6391 52.9374 28.1988 50.878 24.7077 47.2253L17.9753 40.1815L18.1161 40.0469L24.8485 47.0908C28.3115 50.714 32.7201 52.7588 35.8086 53.8362C38.634 54.8218 40.8997 55.1997 41.5551 55.2957C40.2711 52.9266 40.5114 50.3497 42.2547 47.8306C43.5965 45.8917 45.375 44.6528 45.3927 44.6405L45.5035 44.8008C45.4859 44.8129 43.7331 46.0348 42.4119 47.9457C40.6501 50.4941 40.451 52.992 41.8198 55.3702L41.9167 55.5385Z" fill="white"/>
</g>
</g>
<path d="M47.5427 55.1586C44.1517 56.8196 39.5949 58.4517 34.5364 58.5729C33.2454 58.6038 25.2705 58.7947 24.6079 55.4397C24.3745 54.2578 25.2455 53.6341 24.9611 52.0485C24.624 50.1698 23.1853 49.843 21.47 48.1251C20.4465 47.1001 17.4512 44.1003 18.6503 41.0635C19.3669 39.2489 21.5488 37.5031 23.6264 37.0399C26.6737 36.3604 28.8993 38.5735 32.6004 42.3831C35.8813 45.7603 36.0117 46.9142 38.4167 49.3048C40.2015 51.079 43.0414 53.3377 47.5427 55.1586Z" fill="url(#paint20_linear_4033_14693)"/>
<mask id="mask1_4033_14693" style="mask-type:luminance" maskUnits="userSpaceOnUse" x="18" y="36" width="30" height="23">
<path d="M47.5429 55.1625C44.152 56.8235 39.5952 58.4557 34.5366 58.5768C33.2457 58.6077 25.2708 58.7986 24.6081 55.4436C24.3747 54.2618 25.2458 53.638 24.9613 52.0524C24.6242 50.1737 23.1856 49.8469 21.4703 48.129C20.4468 47.104 17.4515 44.1042 18.6506 41.0674C19.3671 39.2528 21.549 37.507 23.6266 37.0438C26.6739 36.3643 28.8996 38.5774 32.6007 42.387C35.8815 45.7642 36.0119 46.9181 38.4169 49.3087C40.2018 51.083 43.0416 53.3416 47.5429 55.1625Z" fill="white"/>
</mask>
<g mask="url(#mask1_4033_14693)">
<g opacity="0.5">
<path d="M47.4623 55.1354C43.7319 55.1354 39.9318 54.1503 36.1149 52.1883C30.5632 49.3348 26.3666 45.1282 23.8236 42.1018C22.0496 39.9905 20.8855 37.2711 20.3635 34.0192L20.5558 33.9883C21.0721 37.205 22.2218 39.8926 23.9727 41.9765C26.5042 44.9892 30.681 49.1763 36.2039 52.0151C41.5052 54.74 46.7717 55.5666 51.8573 54.4722C55.6748 53.6507 59.2557 51.8231 62.5004 49.0402L62.6273 49.1881C59.3576 51.9923 55.7478 53.8342 51.8981 54.6626C50.4333 54.9779 48.9532 55.1354 47.4623 55.1354Z" fill="white"/>
<path d="M29.5779 47.748L29.4911 47.7371C19.8573 46.5229 17.3002 41.0189 16.7458 39.361C16.7356 39.3303 16.729 39.3098 16.7251 39.3006L16.9006 39.2162C16.9054 39.226 16.9155 39.254 16.9306 39.2992C17.474 40.9248 19.9789 46.3102 29.4268 47.5325C29.5868 46.7504 30.6491 40.8114 27.0604 36.607L27.2086 36.4805C31.1025 41.0426 29.6136 47.5971 29.5981 47.6628L29.5779 47.748Z" fill="white"/>
<path d="M27.2113 55.2239C26.9342 55.2239 26.6735 55.2138 26.4291 55.1963C24.1119 55.0306 22.7984 54.2092 22.7437 54.1743L22.8482 54.01C22.8613 54.0183 24.1836 54.8432 26.4557 55.0029C28.5467 55.1498 31.8915 54.7474 35.9685 52.0033C35.9531 51.4547 35.7328 46.6445 32.7681 41.511L29.5831 35.9958L29.7518 35.8984L32.9368 41.4136C36.0982 46.8877 36.1641 52.0027 36.1644 52.0537L36.1647 52.1058L36.1216 52.135C32.4479 54.6197 29.352 55.2239 27.2113 55.2239Z" fill="white"/>
</g>
</g>
<path d="M96.5273 81.6028L19.855 80.9492V82.8829C19.855 83.4078 20.1894 83.8541 20.6423 83.9336L42.323 87.7415C42.5803 87.7867 42.8412 87.7987 43.1008 87.7772L95.6941 83.4357C96.1637 83.3969 96.5273 82.9492 96.5273 82.41V81.6028Z" fill="#26264F"/>
<path d="M68.7031 78.5006L20.6477 82.0381C19.7878 82.1014 19.0886 81.4288 19.0886 80.5356V44.7501C19.0886 43.8569 19.7878 43.1328 20.6477 43.1328H68.7031C69.4116 43.1328 69.9843 43.7874 69.9843 44.5948V76.9442C69.9843 77.7517 69.4115 78.4484 68.7031 78.5006Z" fill="#26264F"/>
<path d="M69.4695 78.5006L21.4141 82.0381C20.5541 82.1014 19.855 81.4288 19.855 80.5356V44.7501C19.855 43.8569 20.5541 43.1328 21.4141 43.1328H69.4695C70.1779 43.1328 70.7507 43.7874 70.7507 44.5948V76.9442C70.7507 77.7517 70.1779 78.4484 69.4695 78.5006Z" fill="url(#paint21_linear_4033_14693)"/>
<path d="M67.9723 76.2164L23.2138 79.2892C22.514 79.3373 21.9453 78.7852 21.9453 78.056V46.7258C21.9453 45.9966 22.514 45.403 23.2138 45.4L67.9723 45.207C68.5567 45.2045 69.0295 45.7409 69.0295 46.4051V74.9413C69.0295 75.6054 68.5567 76.1763 67.9723 76.2164Z" fill="url(#paint22_linear_4033_14693)"/>
<path d="M47.1387 44.1134C47.1387 44.4459 46.8914 44.7162 46.586 44.7172C46.2802 44.7182 46.032 44.4488 46.032 44.1156C46.032 43.7823 46.2801 43.512 46.586 43.5117C46.8914 43.5115 47.1387 43.7809 47.1387 44.1134Z" fill="white"/>
<path opacity="0.48" d="M21.4139 82.0381L69.2262 78.5185L69.4695 78.5006C69.7946 78.4767 70.0901 78.316 70.3159 78.0723C66.8752 77.884 64.7382 76.663 63.3597 75.4013C60.5913 72.8677 61.0714 70.3692 58.086 68.7034C54.3624 66.6256 51.4346 69.2584 48.609 66.6608C46.8959 65.0859 47.7369 63.9115 45.6291 61.5581C43.2944 58.9515 41.7745 59.8277 39.4282 57.4817C36.4615 54.5154 37.9452 52.2075 35.3898 50.0778C32.2897 47.4941 28.9464 49.8854 25.9953 47.4076C24.7225 46.3389 24.024 44.7852 23.6594 43.1328H21.4141C20.5542 43.1328 19.855 43.8569 19.855 44.7501V80.5356C19.855 81.4287 20.554 82.1013 21.4139 82.0381Z" fill="white"/>
<path d="M71.3848 78.3072L19.855 82.0309L42.323 85.977C42.5803 86.0222 42.8412 86.0342 43.1008 86.0128L96.5273 81.6024L72.2045 78.3325C71.9325 78.296 71.6581 78.2875 71.3848 78.3072Z" fill="url(#paint23_linear_4033_14693)"/>
<path d="M27.3738 82.0603L70.2739 78.9141L83.5511 80.6846L41.0206 84.0478L27.3738 82.0603Z" fill="#26264F"/>
<path d="M75.4356 68.8844C75.4356 72.8436 72.2061 76.2582 68.1663 76.5147L23.1665 79.3717C27.9248 79.0696 31.7243 75.3481 31.7243 71.0548V21.668L75.4356 23.3402L75.4356 68.8844Z" fill="url(#paint24_linear_4033_14693)"/>
<path d="M54.7035 34.4592C54.7035 38.9316 50.9062 42.553 46.1476 42.5477C41.3049 42.5423 37.3157 38.7952 37.3157 34.1785C37.3157 29.5617 41.3049 25.9434 46.1476 26.0944C50.9062 26.2427 54.7035 29.9867 54.7035 34.4592Z" fill="url(#paint25_linear_4033_14693)"/>
<path d="M72.6082 34.263L56.8892 33.9944V31.2617L72.6082 31.6104V34.263Z" fill="#D8DEE8"/>
<path d="M72.6082 36.4478L56.8892 36.2453V34.8789L72.6082 35.1215V36.4478Z" fill="#D8DEE8"/>
<path d="M72.6082 38.6395L56.8892 38.5031V37.1367L72.6082 37.3132V38.6395Z" fill="#D8DEE8"/>
<path d="M72.6083 50.3758L38.7905 50.8446V49.4875L72.6083 49.1016V50.3758Z" fill="#D8DEE8"/>
<path d="M36.0317 50.8813L37.5633 50.86V49.5L36.0317 49.5175V50.8813Z" fill="url(#paint26_linear_4033_14693)"/>
<path d="M72.6083 52.4813L38.7905 53.0866V51.7296L72.6083 51.207V52.4813Z" fill="#D8DEE8"/>
<path d="M36.0317 53.1335L37.5633 53.1061V51.7461L36.0317 51.7698V53.1335Z" fill="url(#paint27_linear_4033_14693)"/>
<path d="M72.6083 54.5829L38.7905 55.3248V53.9678L72.6083 53.3086V54.5829Z" fill="#D8DEE8"/>
<path d="M36.0317 55.3858L37.5633 55.3522V53.9922L36.0317 54.022V55.3858Z" fill="url(#paint28_linear_4033_14693)"/>
<path d="M72.6083 56.6923L38.7905 57.5707V56.2137L72.6083 55.418V56.6923Z" fill="#D8DEE8"/>
<path d="M36.0317 57.642L37.5633 57.6022V56.2422L36.0317 56.2782V57.642Z" fill="url(#paint29_linear_4033_14693)"/>
<path d="M72.6082 60.9032L36.0317 62.1488V60.7851L72.6082 59.6289V60.9032Z" fill="#D8DEE8"/>
<path d="M72.6082 63.0047L36.0317 64.3981V63.0344L72.6082 61.7305V63.0047Z" fill="#D8DEE8"/>
<path d="M72.6082 65.1102L36.0317 66.6513V65.2876L72.6082 63.8359V65.1102Z" fill="#D8DEE8"/>
<path d="M72.6082 67.2157L36.0317 68.9046V67.5408L72.6082 65.9414V67.2157Z" fill="#D8DEE8"/>
<path d="M48.8328 39.1245L48.0535 36.5778L44.0996 36.5587L43.3061 39.1245H40.7905L44.6669 28.3125L47.4785 28.3698L51.2735 39.1245L48.8328 39.1245ZM47.5081 34.6705C46.784 32.3512 46.3755 31.0368 46.2841 30.7318C46.1926 30.4269 46.1272 30.1858 46.0876 30.0089C45.9244 30.6331 45.4563 32.1774 44.6819 34.6467L47.5081 34.6705Z" fill="white"/>
<path d="M92.7622 88.4235L81.049 89.5037C80.717 89.5343 80.4231 89.29 80.3925 88.958C80.3619 88.6261 80.6061 88.3321 80.9381 88.3015L92.6513 87.2213C92.9832 87.1907 93.2771 87.435 93.3078 87.767C93.3384 88.099 93.0941 88.3929 92.7622 88.4235Z" fill="#D8DEE8"/>
<path d="M95.9595 86.9191L93.357 87.1591L93.2214 85.6894L95.824 85.4494C95.8446 85.4475 95.8629 85.4627 95.8648 85.4833L95.9934 86.8782C95.9953 86.8989 95.9801 86.9172 95.9595 86.9191Z" fill="#D8DEE8"/>
<path d="M48.4975 90.8747L47.4053 90.9754C47.2825 90.9867 47.1737 90.8963 47.1623 90.7734C47.151 90.6505 47.2414 90.5418 47.3643 90.5304L48.4565 90.4297L48.4975 90.8747Z" fill="#26264F"/>
<path d="M47.8465 90.7065C47.8673 90.9318 48.0435 91.1114 48.2684 91.1366L52.9093 91.6554L52.6504 88.8477L48.1826 90.2065C47.9661 90.2724 47.8257 90.4812 47.8465 90.7065Z" fill="#D8DEE8"/>
<path d="M48.1271 90.4818C48.1328 90.5435 48.296 90.5821 48.5178 90.5742L53.0604 90.0268L52.9895 89.2578L48.4943 90.3194C48.2748 90.3523 48.1214 90.4201 48.1271 90.4818Z" fill="white"/>
<path d="M93.5627 87.8543L52.7989 91.6657C52.0236 91.7372 51.7647 88.9295 52.54 88.858L93.3037 85.0466C93.7663 85.0039 94.1757 85.3443 94.2184 85.8068L94.3229 86.9396C94.3655 87.4021 94.0251 87.8116 93.5627 87.8543Z" fill="url(#paint30_linear_4033_14693)"/>
<path d="M84.5352 87.0485L52.4909 90.0558L52.4299 89.394L84.4742 86.3867L84.5352 87.0485Z" fill="white"/>
<path d="M84.9541 88.6627L84.581 88.6971L84.321 85.8782L84.6941 85.8438L84.9541 88.6627Z" fill="url(#paint31_linear_4033_14693)"/>
<path d="M93.2478 85.0515L92.8748 85.0859L93.1346 87.9049L93.5077 87.8705L93.2478 85.0515Z" fill="white"/>
<path opacity="0.3" d="M93.3039 85.0466L73.7694 86.9002C71.543 88.9487 69.9893 89.2774 68.913 89.0859C68.1656 88.9529 67.2006 88.4898 65.7183 88.7111C64.2867 88.9247 64.208 89.5026 63.0417 89.5401C61.3128 89.5958 60.7195 88.3501 59.4285 88.7352C58.7342 88.9422 58.845 89.3206 57.8847 89.9023C57.5285 90.1182 56.0453 91.0166 54.3441 90.6007C53.3547 90.3588 52.6517 89.7602 52.1868 89.2077C51.8954 89.9731 52.1849 91.7224 52.7991 91.6657L93.5629 87.8543C94.0254 87.8117 94.3657 87.4022 94.3231 86.9396L94.2186 85.8068C94.1759 85.3443 93.7665 85.0039 93.3039 85.0466Z" fill="url(#paint32_linear_4033_14693)"/>
<mask id="mask2_4033_14693" style="mask-type:luminance" maskUnits="userSpaceOnUse" x="12" y="0" width="28" height="43">
<path d="M12 0H39.9744V42.555H12V0Z" fill="white"/>
</mask>
<g mask="url(#mask2_4033_14693)">
<mask id="mask3_4033_14693" style="mask-type:luminance" maskUnits="userSpaceOnUse" x="18" y="36" width="4" height="5">
<path d="M18.8638 36.7148H21.746V40.6143H18.8638V36.7148Z" fill="white"/>
</mask>
<g mask="url(#mask3_4033_14693)">
<mask id="mask4_4033_14693" style="mask-type:luminance" maskUnits="userSpaceOnUse" x="-2" y="-5" width="52" height="58">
<path d="M23.0468 -4.84375L49.2709 10.2607L25.0277 52.3515L-1.19702 37.247L23.0468 -4.84375Z" fill="white"/>
</mask>
<g mask="url(#mask4_4033_14693)">
<mask id="mask5_4033_14693" style="mask-type:luminance" maskUnits="userSpaceOnUse" x="-2" y="-5" width="52" height="58">
<path d="M23.0468 -4.84766L49.2709 10.2568L25.0277 52.3476L-1.19702 37.2431L23.0468 -4.84766Z" fill="white"/>
</mask>
<g mask="url(#mask5_4033_14693)">
<path d="M20.4415 38.9347C20.3772 39.2182 20.3117 39.501 20.2481 39.7844C20.2362 39.8374 20.2315 39.8924 20.217 39.9447C20.1925 40.0328 20.1196 40.0818 20.0415 40.0692C19.96 40.0559 19.9037 39.991 19.9123 39.897C19.9236 39.7791 19.9501 39.6625 19.97 39.5453C19.9779 39.4983 19.9858 39.4513 19.9693 39.3923C19.7746 39.6334 19.5785 39.8738 19.3838 40.1149C19.3309 40.1804 19.2838 40.2513 19.2302 40.3155C19.1984 40.3526 19.1633 40.3904 19.1216 40.4149C19.0613 40.4507 18.9951 40.446 18.9434 40.3944C18.8944 40.344 18.8785 40.2818 18.913 40.2169C18.9335 40.1778 18.962 40.142 18.9898 40.1083C19.3772 39.6387 19.766 39.1705 20.1541 38.7009C20.1627 38.691 20.1666 38.6764 20.1792 38.6513C20.109 38.6234 20.0428 38.595 19.9746 38.5718C19.8156 38.5188 19.6554 38.4678 19.4958 38.4168C19.4269 38.395 19.3865 38.3493 19.3812 38.2771C19.3752 38.2042 19.4136 38.1552 19.4766 38.1241C19.5554 38.085 19.6315 38.1095 19.7064 38.136C19.8925 38.2029 20.0772 38.2704 20.2766 38.3433C20.2792 38.3022 20.2892 38.2731 20.2819 38.2493C20.168 37.8698 20.0534 37.4903 19.8348 37.1532C19.8242 37.1366 19.813 37.1194 19.8057 37.1009C19.766 37.0062 19.7885 36.9227 19.8646 36.881C19.9395 36.8393 20.0335 36.8565 20.0819 36.9452C20.1892 37.1399 20.2845 37.3413 20.3825 37.5413C20.4064 37.589 20.4229 37.6406 20.4554 37.7227C20.5011 37.5671 20.5375 37.4413 20.5753 37.3168C20.5931 37.2605 20.6104 37.2029 20.6369 37.1505C20.6852 37.0545 20.7607 37.0214 20.8408 37.0519C20.921 37.0817 20.9534 37.1605 20.9243 37.2625C20.8879 37.3916 20.8468 37.5188 20.8104 37.6472C20.7753 37.7691 20.7435 37.8916 20.7316 38.0274C20.7541 38.0062 20.7779 37.9863 20.7991 37.9638C20.968 37.7896 21.1336 37.6128 21.3044 37.4406C21.3481 37.3956 21.4038 37.3565 21.4607 37.3313C21.5541 37.2896 21.6561 37.3393 21.6932 37.432C21.7316 37.528 21.6905 37.6141 21.5866 37.6565C21.5548 37.6691 21.5164 37.6764 21.4945 37.6989C21.2501 37.9552 21.0071 38.2142 20.7435 38.495C20.8521 38.5287 20.9296 38.5552 21.0084 38.5758C21.1707 38.6181 21.3342 38.6572 21.4972 38.6983C21.5263 38.7056 21.5561 38.7095 21.5832 38.7208C21.6561 38.7519 21.6912 38.8135 21.6813 38.8857C21.672 38.9566 21.6197 39.0109 21.5402 39.0155C21.4872 39.0188 21.4316 39.0115 21.3793 38.9989C21.1918 38.9546 21.0051 38.9056 20.8024 38.8552C20.8077 38.8943 20.8084 38.9307 20.8177 38.9652C20.8958 39.2778 20.9759 39.5897 21.0541 39.9016C21.0693 39.9645 21.0826 40.0281 21.0865 40.0917C21.0912 40.1758 21.0382 40.2394 20.964 40.2553C20.8892 40.2705 20.8203 40.2328 20.7879 40.1533C20.7753 40.1215 20.7706 40.0857 20.762 40.0526C20.6759 39.7116 20.5905 39.3705 20.5044 39.0294C20.4958 38.9976 20.4819 38.9678 20.47 38.9367C20.4607 38.9354 20.4508 38.9354 20.4415 38.9347Z" fill="#6A5B92"/>
</g>
</g>
</g>
<mask id="mask6_4033_14693" style="mask-type:luminance" maskUnits="userSpaceOnUse" x="34" y="26" width="4" height="4">
<path d="M34.1226 26.3711H37.1743V29.4229H34.1226V26.3711Z" fill="white"/>
</mask>
<g mask="url(#mask6_4033_14693)">
<mask id="mask7_4033_14693" style="mask-type:luminance" maskUnits="userSpaceOnUse" x="-2" y="-5" width="52" height="58">
<path d="M23.0468 -4.84375L49.2709 10.2607L25.0277 52.3515L-1.19702 37.247L23.0468 -4.84375Z" fill="white"/>
</mask>
<g mask="url(#mask7_4033_14693)">
<mask id="mask8_4033_14693" style="mask-type:luminance" maskUnits="userSpaceOnUse" x="-2" y="-5" width="52" height="58">
<path d="M23.0468 -4.84766L49.2709 10.2568L25.0277 52.3476L-1.19702 37.2431L23.0468 -4.84766Z" fill="white"/>
</mask>
<g mask="url(#mask8_4033_14693)">
<path d="M35.7231 26.9198C35.7436 26.8158 35.7635 26.7111 35.786 26.6072C35.7979 26.5549 35.8078 26.4999 35.8317 26.4529C35.8635 26.388 35.9251 26.3635 35.9946 26.38C36.0635 26.3959 36.1085 26.4423 36.1132 26.5151C36.1158 26.5535 36.1112 26.5946 36.1032 26.6323C36.0549 26.8549 36.0052 27.0767 35.9555 27.2992C35.9482 27.3324 35.9423 27.3655 35.9304 27.4218C35.9774 27.3893 36.0079 27.3701 36.0357 27.3483C36.2655 27.1675 36.4933 26.9853 36.7238 26.8059C36.7741 26.7661 36.8277 26.7284 36.8854 26.7019C36.9794 26.6588 37.0781 26.6926 37.1158 26.7721C37.1529 26.8502 37.1205 26.9184 37.0337 26.9833C36.7688 27.1827 36.5079 27.3867 36.2456 27.59C36.2357 27.5979 36.2317 27.6132 36.2158 27.641C36.3774 27.6635 36.5271 27.688 36.6774 27.7052C36.8211 27.7224 36.8867 27.7695 36.886 27.8668C36.8847 27.9708 36.8026 28.0337 36.6602 28.0218C36.5224 28.0112 36.3853 27.9854 36.2483 27.9668C36.1959 27.9595 36.143 27.9536 36.0747 27.945C36.1012 28.0304 36.1238 28.1006 36.1443 28.1708C36.1979 28.3509 36.2516 28.5317 36.3039 28.7125C36.3204 28.7695 36.333 28.8278 36.3443 28.8867C36.3681 29.0159 36.3231 29.1033 36.2264 29.1198C36.1357 29.1364 36.0681 29.0761 36.0343 28.9569C35.9641 28.7039 35.892 28.4516 35.8191 28.1993C35.8072 28.1576 35.79 28.1172 35.7668 28.0536C35.7423 28.1019 35.7231 28.1278 35.7151 28.1576C35.6237 28.4966 35.5337 28.8357 35.4423 29.1755C35.435 29.2039 35.4297 29.2337 35.4171 29.2602C35.3813 29.3384 35.3118 29.3735 35.2363 29.3563C35.1707 29.3417 35.1217 29.2814 35.1211 29.2026C35.1211 29.1589 35.1303 29.1139 35.1409 29.0708C35.1946 28.8496 35.2502 28.6298 35.3092 28.3907C35.2721 28.4139 35.2423 28.4271 35.2197 28.4476C35.0396 28.6099 34.8615 28.7748 34.6807 28.9357C34.629 28.9814 34.5734 29.0258 34.5138 29.0576C34.4204 29.1059 34.3356 29.0828 34.2912 29.0092C34.2469 28.9351 34.2714 28.8589 34.3502 28.79C34.7005 28.4841 35.0489 28.1761 35.3972 27.8688C35.4012 27.8662 35.4025 27.8609 35.4118 27.845C35.3794 27.8337 35.3502 27.8198 35.3198 27.8145C35.1641 27.7847 35.0091 27.7569 34.8535 27.7297C34.7608 27.7138 34.7052 27.6569 34.7058 27.5734C34.7065 27.4926 34.7634 27.4178 34.8482 27.4079C34.9005 27.4012 34.9562 27.4118 35.0091 27.4224C35.1641 27.4529 35.3191 27.4873 35.4741 27.5185C35.5012 27.5238 35.5304 27.5211 35.5741 27.5224C35.5582 27.4695 35.5489 27.4264 35.5323 27.3873C35.4515 27.19 35.3681 26.9939 35.2866 26.7972C35.2674 26.7515 35.2443 26.7065 35.2343 26.6588C35.2131 26.5615 35.2575 26.482 35.3403 26.4568C35.4171 26.4343 35.4893 26.4707 35.531 26.5582C35.5754 26.6522 35.6151 26.7482 35.6582 26.8429C35.6701 26.8688 35.6833 26.8939 35.6959 26.9198C35.7052 26.9198 35.7138 26.9198 35.7231 26.9198Z" fill="#6A5B92"/>
</g>
</g>
</g>
<mask id="mask9_4033_14693" style="mask-type:luminance" maskUnits="userSpaceOnUse" x="12" y="17" width="4" height="4">
<path d="M12.7603 17.0508H15.1338V20.2721H12.7603V17.0508Z" fill="white"/>
</mask>
<g mask="url(#mask9_4033_14693)">
<mask id="mask10_4033_14693" style="mask-type:luminance" maskUnits="userSpaceOnUse" x="-2" y="-5" width="52" height="58">
<path d="M23.0468 -4.84375L49.2709 10.2607L25.0277 52.3515L-1.19702 37.247L23.0468 -4.84375Z" fill="white"/>
</mask>
<g mask="url(#mask10_4033_14693)">
<mask id="mask11_4033_14693" style="mask-type:luminance" maskUnits="userSpaceOnUse" x="-2" y="-5" width="52" height="58">
<path d="M23.0468 -4.84766L49.2709 10.2568L25.0277 52.3476L-1.19702 37.2431L23.0468 -4.84766Z" fill="white"/>
</mask>
<g mask="url(#mask11_4033_14693)">
<path d="M13.7926 19.2186C13.7747 19.2451 13.7542 19.271 13.739 19.2988C13.5939 19.5577 13.4496 19.818 13.3052 20.0776C13.2979 20.0908 13.2926 20.1041 13.284 20.1167C13.2304 20.1955 13.1542 20.22 13.0794 20.1836C13.0058 20.1465 12.9721 20.069 13.0052 19.9816C13.0403 19.8889 13.08 19.7968 13.1297 19.712C13.2661 19.4763 13.4092 19.2445 13.5496 19.0107C13.5688 18.9782 13.5873 18.9451 13.6184 18.8908C13.4297 18.857 13.2608 18.8272 13.0919 18.7974C13.0628 18.7921 13.0323 18.7941 13.0032 18.7868C12.9204 18.7676 12.8714 18.7067 12.8741 18.6285C12.8767 18.5524 12.9297 18.4915 13.0158 18.4828C13.0741 18.4769 13.1343 18.4835 13.1926 18.4921C13.3376 18.514 13.4827 18.5405 13.643 18.5676C13.6257 18.5319 13.6171 18.5093 13.6045 18.4895C13.4158 18.204 13.2131 17.9298 12.9582 17.6987C12.9436 17.6848 12.9284 17.6722 12.9151 17.657C12.8628 17.5934 12.8575 17.5292 12.8986 17.4669C12.9416 17.4033 13.0211 17.3775 13.0959 17.4133C13.139 17.4345 13.1774 17.4682 13.2131 17.502C13.4158 17.6921 13.5893 17.908 13.7489 18.1358C13.7761 18.1742 13.8059 18.2107 13.8589 18.2391C13.8575 18.0285 13.8549 17.8179 13.8542 17.6067C13.8542 17.5232 13.8509 17.4384 13.8589 17.355C13.8681 17.2517 13.9324 17.1907 14.0165 17.1914C14.1072 17.1921 14.1688 17.2603 14.1708 17.3722C14.1748 17.5404 14.1741 17.7093 14.1761 17.8775C14.1767 17.91 14.1814 17.9424 14.186 17.9994C14.2622 17.906 14.3191 17.8279 14.384 17.7577C14.4205 17.7186 14.4662 17.6841 14.5145 17.6623C14.5973 17.6252 14.686 17.6537 14.741 17.7226C14.8191 17.8199 14.788 17.9484 14.6668 17.9815C14.6019 17.9987 14.5628 18.0318 14.5291 18.0808C14.4171 18.2444 14.3052 18.408 14.1953 18.5729C14.1827 18.5921 14.1801 18.6173 14.1668 18.657C14.2251 18.6709 14.2761 18.6842 14.3271 18.6954C14.4761 18.7292 14.6264 18.7603 14.7754 18.7968C14.8185 18.8067 14.8615 18.8233 14.8993 18.8451C14.9708 18.8868 14.996 18.9663 14.9682 19.0372C14.9423 19.1027 14.8768 19.1425 14.7999 19.1319C14.7516 19.1246 14.7046 19.106 14.6569 19.0941C14.5516 19.0683 14.4463 19.0438 14.3152 19.0127C14.3675 19.1087 14.4072 19.1809 14.4463 19.2537C14.5542 19.4597 14.6622 19.6657 14.7688 19.8723C14.792 19.916 14.8119 19.9624 14.8244 20.01C14.847 20.0975 14.8066 20.1769 14.7317 20.2048C14.6589 20.2319 14.59 20.2067 14.5417 20.1312C14.5231 20.1021 14.5112 20.069 14.4953 20.0379C14.396 19.8445 14.2966 19.6504 14.196 19.457C14.1854 19.4372 14.1701 19.4193 14.1357 19.3696C14.1205 19.569 14.1085 19.7339 14.0953 19.8988C14.0913 19.9478 14.0893 19.9981 14.0774 20.0458C14.0582 20.1193 13.9953 20.1604 13.9224 20.1584C13.8476 20.1557 13.8019 20.112 13.784 20.0451C13.7734 20.0028 13.7741 19.9564 13.7767 19.9127C13.7887 19.72 13.8045 19.5273 13.8171 19.3345C13.8198 19.2988 13.8158 19.2617 13.8151 19.2253C13.8079 19.2233 13.7999 19.2206 13.7926 19.2186Z" fill="#6A5B92"/>
</g>
</g>
</g>
<mask id="mask12_4033_14693" style="mask-type:luminance" maskUnits="userSpaceOnUse" x="25" y="8" width="4" height="5">
<path d="M25.4756 8.73828H28.1883V12.2987H25.4756V8.73828Z" fill="white"/>
</mask>
<g mask="url(#mask12_4033_14693)">
<mask id="mask13_4033_14693" style="mask-type:luminance" maskUnits="userSpaceOnUse" x="-2" y="-5" width="52" height="58">
<path d="M23.0468 -4.84375L49.2709 10.2607L25.0277 52.3515L-1.19702 37.247L23.0468 -4.84375Z" fill="white"/>
</mask>
<g mask="url(#mask13_4033_14693)">
<mask id="mask14_4033_14693" style="mask-type:luminance" maskUnits="userSpaceOnUse" x="-2" y="-5" width="52" height="58">
<path d="M23.0468 -4.84766L49.2709 10.2568L25.0277 52.3476L-1.19702 37.2431L23.0468 -4.84766Z" fill="white"/>
</mask>
<g mask="url(#mask14_4033_14693)">
<path d="M26.5613 10.4327C26.4434 10.4281 26.3256 10.4254 26.2077 10.4195C26.1534 10.4162 26.0977 10.4115 26.0461 10.3983C25.9706 10.3791 25.9262 10.3155 25.9282 10.2466C25.9302 10.1731 25.9878 10.1062 26.0686 10.0989C26.1322 10.093 26.1971 10.1016 26.2606 10.1036C26.3693 10.1062 26.4779 10.1095 26.607 10.1122C26.5812 10.0407 26.5626 9.98171 26.5381 9.92541C26.4209 9.65057 26.2712 9.3956 26.0851 9.16115C26.0606 9.13002 26.0355 9.0989 26.0183 9.0638C25.9865 8.99889 25.999 8.93664 26.0514 8.88697C26.1037 8.83664 26.1693 8.83001 26.2282 8.86843C26.2732 8.8969 26.3163 8.93532 26.3448 8.97969C26.4818 9.19162 26.6143 9.40619 26.7474 9.62011C26.7699 9.65719 26.7872 9.69825 26.8329 9.74064C26.8401 9.69693 26.8481 9.65322 26.8547 9.60951C26.866 9.5413 26.8693 9.47043 26.8891 9.40487C26.9123 9.32539 26.9891 9.28301 27.0613 9.29427C27.1435 9.30685 27.1971 9.37175 27.1892 9.4658C27.1759 9.62209 27.1541 9.77839 27.1322 9.96714C27.1911 9.91945 27.2302 9.89164 27.264 9.85853C27.3812 9.74461 27.4958 9.62872 27.611 9.51282C27.6355 9.48831 27.658 9.46182 27.6839 9.43931C27.7627 9.36977 27.8501 9.36116 27.9124 9.41414C27.9819 9.47441 27.9852 9.56514 27.913 9.6519C27.86 9.7168 27.8018 9.77839 27.7428 9.83733C27.6349 9.94595 27.5236 10.0506 27.4037 10.1685C27.4421 10.1811 27.4719 10.1923 27.5024 10.2003C27.6402 10.2387 27.7799 10.2718 27.9163 10.3155C27.9759 10.3354 28.0342 10.3685 28.0845 10.4075C28.1647 10.4698 28.1786 10.5599 28.1296 10.6301C28.0832 10.6956 28.0011 10.7188 27.9177 10.6711C27.6792 10.5327 27.4123 10.5082 27.1481 10.4725C27.1196 10.4678 27.0898 10.4698 27.0441 10.4685C27.0567 10.5234 27.0633 10.5711 27.0772 10.6162C27.209 11.0433 27.3587 11.4619 27.5733 11.8559C27.5971 11.899 27.6203 11.944 27.6342 11.9904C27.6561 12.0659 27.6243 12.1348 27.562 12.1685C27.4931 12.2063 27.4176 12.1904 27.364 12.1242C27.3421 12.097 27.3243 12.0665 27.3097 12.0354C27.1892 11.7698 27.0699 11.503 26.9501 11.2367C26.9342 11.201 26.9203 11.1645 26.8925 11.0963C26.8706 11.1817 26.8593 11.2374 26.8421 11.2917C26.8123 11.3871 26.7348 11.4374 26.6534 11.4188C26.5679 11.399 26.5209 11.3268 26.5355 11.2241C26.5474 11.146 26.5706 11.0698 26.5878 10.9923C26.5944 10.9599 26.5991 10.9268 26.6097 10.8665C26.5534 10.9149 26.5163 10.9433 26.4832 10.9751C26.3044 11.1466 26.1275 11.3195 25.9494 11.491C25.9249 11.5149 25.9004 11.5414 25.8719 11.5599C25.801 11.6083 25.7255 11.6023 25.6692 11.5467C25.6129 11.493 25.605 11.4182 25.658 11.3453C25.6984 11.289 25.7467 11.238 25.7971 11.191C26.0189 10.9791 26.2428 10.7692 26.466 10.5585C26.5011 10.5254 26.5368 10.493 26.5726 10.4605C26.5686 10.4513 26.5653 10.442 26.5613 10.4327Z" fill="#6A5B92"/>
</g>
</g>
</g>
<mask id="mask15_4033_14693" style="mask-type:luminance" maskUnits="userSpaceOnUse" x="29" y="36" width="2" height="2">
<path d="M29.3752 36.207H30.9011V37.9025H29.3752V36.207Z" fill="white"/>
</mask>
<g mask="url(#mask15_4033_14693)">
<mask id="mask16_4033_14693" style="mask-type:luminance" maskUnits="userSpaceOnUse" x="-2" y="-5" width="52" height="58">
<path d="M23.0471 -4.84375L49.2711 10.2607L25.0279 52.3515L-1.19678 37.247L23.0471 -4.84375Z" fill="white"/>
</mask>
<g mask="url(#mask16_4033_14693)">
<mask id="mask17_4033_14693" style="mask-type:luminance" maskUnits="userSpaceOnUse" x="-2" y="-5" width="52" height="58">
<path d="M23.0473 -4.84766L49.2714 10.2568L25.0282 52.3476L-1.19653 37.2431L23.0473 -4.84766Z" fill="white"/>
</mask>
<g mask="url(#mask17_4033_14693)">
<path d="M29.6287 36.7408C29.7876 36.4547 29.9969 36.3242 30.2817 36.3461C30.5466 36.3673 30.7254 36.515 30.83 36.7594C30.9685 37.0845 30.7075 37.6382 30.3737 37.7422C30.1294 37.819 29.9095 37.7786 29.7247 37.6104C29.5333 37.4369 29.473 37.2124 29.5419 36.962C29.5664 36.8719 29.6101 36.7878 29.6287 36.7408Z" fill="#6A5B92"/>
</g>
</g>
</g>
<mask id="mask18_4033_14693" style="mask-type:luminance" maskUnits="userSpaceOnUse" x="39" y="18" width="3" height="2">
<path d="M39.6357 18.1406H41.1616V19.6665H39.6357V18.1406Z" fill="white"/>
</mask>
<g mask="url(#mask18_4033_14693)">
<mask id="mask19_4033_14693" style="mask-type:luminance" maskUnits="userSpaceOnUse" x="-1" y="-8" width="51" height="58">
<path d="M23.6433 -7.82031L49.8673 7.28416L25.6241 49.375L-0.600586 34.2705L23.6433 -7.82031Z" fill="white"/>
</mask>
<g mask="url(#mask19_4033_14693)">
<mask id="mask20_4033_14693" style="mask-type:luminance" maskUnits="userSpaceOnUse" x="-1" y="-8" width="51" height="58">
<path d="M23.6435 -7.82422L49.8676 7.28025L25.6244 49.371L-0.600342 34.2666L23.6435 -7.82422Z" fill="white"/>
</mask>
<g mask="url(#mask20_4033_14693)">
<path d="M39.8421 18.5886C40.1143 18.1158 40.6726 18.0754 40.9666 18.4575C41.2057 18.7694 41.0342 19.433 40.6613 19.584C40.2878 19.7344 39.8672 19.5317 39.7778 19.1383C39.7308 18.933 39.7546 18.7343 39.8421 18.5886Z" fill="#6A5B92"/>
</g>
</g>
</g>
<mask id="mask21_4033_14693" style="mask-type:luminance" maskUnits="userSpaceOnUse" x="20" y="14" width="3" height="3">
<path d="M20.5596 14.5078H22.0854V16.0337H20.5596V14.5078Z" fill="white"/>
</mask>
<g mask="url(#mask21_4033_14693)">
<mask id="mask22_4033_14693" style="mask-type:luminance" maskUnits="userSpaceOnUse" x="-2" y="-5" width="52" height="58">
<path d="M23.0471 -4.84375L49.2711 10.2607L25.0279 52.3515L-1.19678 37.247L23.0471 -4.84375Z" fill="white"/>
</mask>
<g mask="url(#mask22_4033_14693)">
<mask id="mask23_4033_14693" style="mask-type:luminance" maskUnits="userSpaceOnUse" x="-2" y="-5" width="52" height="58">
<path d="M23.0471 -4.84766L49.2711 10.2568L25.0279 52.3476L-1.19678 37.2431L23.0471 -4.84766Z" fill="white"/>
</mask>
<g mask="url(#mask23_4033_14693)">
<path d="M20.7612 14.8911C20.9387 14.5832 21.2586 14.4646 21.5632 14.5765C21.8533 14.6825 22.0215 14.9911 21.9619 15.3083C21.9493 15.3766 21.9341 15.4448 21.9142 15.511C21.8241 15.8137 21.5407 16.0097 21.2387 15.9792C20.9215 15.9468 20.6837 15.7044 20.6566 15.3832C20.6407 15.2004 20.6758 15.0282 20.7612 14.8911Z" fill="#6A5B92"/>
</g>
</g>
</g>
<mask id="mask24_4033_14693" style="mask-type:luminance" maskUnits="userSpaceOnUse" x="35" y="31" width="2" height="3">
<path d="M35.1401 31.9688H36.4965V33.3251H35.1401V31.9688Z" fill="white"/>
</mask>
<g mask="url(#mask24_4033_14693)">
<mask id="mask25_4033_14693" style="mask-type:luminance" maskUnits="userSpaceOnUse" x="-2" y="-5" width="52" height="58">
<path d="M23.0471 -4.83984L49.2711 10.2646L25.0279 52.3554L-1.19678 37.251L23.0471 -4.83984Z" fill="white"/>
</mask>
<g mask="url(#mask25_4033_14693)">
<mask id="mask26_4033_14693" style="mask-type:luminance" maskUnits="userSpaceOnUse" x="-2" y="-5" width="52" height="58">
<path d="M23.0471 -4.84375L49.2711 10.2607L25.0279 52.3515L-1.19678 37.247L23.0471 -4.84375Z" fill="white"/>
</mask>
<g mask="url(#mask26_4033_14693)">
<mask id="mask27_4033_14693" style="mask-type:luminance" maskUnits="userSpaceOnUse" x="34" y="31" width="3" height="3">
<path d="M35.4559 31.7461L36.5811 32.3945L36.0083 33.3892L34.8831 32.7415L35.4559 31.7461Z" fill="white"/>
</mask>
<g mask="url(#mask27_4033_14693)">
<path d="M36.2801 32.9188C36.1112 33.1903 35.7582 33.2486 35.5165 33.0393C35.4529 32.9844 35.3913 32.9281 35.331 32.8691C35.1953 32.738 35.1469 32.5771 35.1953 32.3963C35.2456 32.2102 35.3688 32.0883 35.5595 32.0433C35.8529 31.9744 36.3615 32.2029 36.3284 32.6897C36.3231 32.7665 36.2966 32.8426 36.2801 32.9188Z" fill="#6A5B92"/>
</g>
</g>
</g>
</g>
<mask id="mask28_4033_14693" style="mask-type:luminance" maskUnits="userSpaceOnUse" x="16" y="18" width="2" height="2">
<path d="M16.6599 18.5742H17.8467V19.761H16.6599V18.5742Z" fill="white"/>
</mask>
<g mask="url(#mask28_4033_14693)">
<mask id="mask29_4033_14693" style="mask-type:luminance" maskUnits="userSpaceOnUse" x="-2" y="-5" width="52" height="58">
<path d="M23.0473 -4.84375L49.2714 10.2607L25.0282 52.3515L-1.19653 37.247L23.0473 -4.84375Z" fill="white"/>
</mask>
<g mask="url(#mask29_4033_14693)">
<mask id="mask30_4033_14693" style="mask-type:luminance" maskUnits="userSpaceOnUse" x="-2" y="-5" width="52" height="58">
<path d="M23.0476 -4.84766L49.2716 10.2568L25.0284 52.3476L-1.19629 37.2431L23.0476 -4.84766Z" fill="white"/>
</mask>
<g mask="url(#mask30_4033_14693)">
<path d="M17.4944 18.6278C17.7494 18.7721 17.8917 19.0867 17.8348 19.3112C17.7878 19.4993 17.6686 19.6252 17.4791 19.6735C17.295 19.7218 17.1348 19.6682 17.0056 19.5338C16.8917 19.4146 16.8321 19.2682 16.8235 19.1039C16.8142 18.9159 16.8924 18.7655 17.0533 18.6668C17.2142 18.5682 17.3811 18.5655 17.4944 18.6278Z" fill="#6A5B92"/>
</g>
</g>
</g>
<mask id="mask31_4033_14693" style="mask-type:luminance" maskUnits="userSpaceOnUse" x="15" y="40" width="2" height="2">
<path d="M15.4736 40.7812H16.6604V41.968H15.4736V40.7812Z" fill="white"/>
</mask>
<g mask="url(#mask31_4033_14693)">
<mask id="mask32_4033_14693" style="mask-type:luminance" maskUnits="userSpaceOnUse" x="-2" y="-5" width="52" height="58">
<path d="M23.0473 -4.84375L49.2714 10.2607L25.0282 52.3515L-1.19653 37.247L23.0473 -4.84375Z" fill="white"/>
</mask>
<g mask="url(#mask32_4033_14693)">
<mask id="mask33_4033_14693" style="mask-type:luminance" maskUnits="userSpaceOnUse" x="-2" y="-5" width="52" height="58">
<path d="M23.0473 -4.84766L49.2714 10.2568L25.0282 52.3476L-1.19653 37.2431L23.0473 -4.84766Z" fill="white"/>
</mask>
<g mask="url(#mask33_4033_14693)">
<path d="M16.5764 41.6146C16.5254 41.6748 16.4791 41.7397 16.4234 41.7941C16.2082 42.0047 15.8572 41.9682 15.6857 41.7212C15.5638 41.545 15.5724 41.2748 15.7049 41.094C15.84 40.9099 16.1082 40.8179 16.3115 40.8854C16.6162 40.9867 16.7393 41.3311 16.5764 41.6146Z" fill="#6A5B92"/>
</g>
</g>
</g>
<mask id="mask34_4033_14693" style="mask-type:luminance" maskUnits="userSpaceOnUse" x="15" y="11" width="3" height="2">
<path d="M15.9819 11.2812H17.1687V12.468H15.9819V11.2812Z" fill="white"/>
</mask>
<g mask="url(#mask34_4033_14693)">
<mask id="mask35_4033_14693" style="mask-type:luminance" maskUnits="userSpaceOnUse" x="-2" y="-5" width="52" height="58">
<path d="M23.0471 -4.84375L49.2711 10.2607L25.0279 52.3515L-1.19678 37.247L23.0471 -4.84375Z" fill="white"/>
</mask>
<g mask="url(#mask35_4033_14693)">
<mask id="mask36_4033_14693" style="mask-type:luminance" maskUnits="userSpaceOnUse" x="-2" y="-5" width="52" height="58">
<path d="M23.0471 -4.84766L49.2711 10.2568L25.0279 52.3476L-1.19678 37.2431L23.0471 -4.84766Z" fill="white"/>
</mask>
<g mask="url(#mask36_4033_14693)">
<path d="M16.3149 12.3107C16.0699 12.1703 15.9765 11.8279 16.1162 11.5848C16.2593 11.3352 16.5566 11.2676 16.8269 11.4226C17.0752 11.5656 17.1593 11.861 17.0196 12.1014C16.8712 12.357 16.5573 12.4504 16.3149 12.3107Z" fill="#6A5B92"/>
</g>
</g>
</g>
<mask id="mask37_4033_14693" style="mask-type:luminance" maskUnits="userSpaceOnUse" x="30" y="31" width="3" height="2">
<path d="M30.9011 31.457H32.0879V32.6438H30.9011V31.457Z" fill="white"/>
</mask>
<g mask="url(#mask37_4033_14693)">
<mask id="mask38_4033_14693" style="mask-type:luminance" maskUnits="userSpaceOnUse" x="-2" y="-5" width="52" height="58">
<path d="M23.0471 -4.84375L49.2711 10.2607L25.0279 52.3515L-1.19678 37.247L23.0471 -4.84375Z" fill="white"/>
</mask>
<g mask="url(#mask38_4033_14693)">
<mask id="mask39_4033_14693" style="mask-type:luminance" maskUnits="userSpaceOnUse" x="-2" y="-5" width="52" height="58">
<path d="M23.0473 -4.84766L49.2714 10.2568L25.0282 52.3476L-1.19653 37.2431L23.0473 -4.84766Z" fill="white"/>
</mask>
<g mask="url(#mask39_4033_14693)">
<path d="M31.3089 32.3947C31.0434 32.2384 30.952 31.9431 31.093 31.698C31.2314 31.4576 31.5288 31.3821 31.7738 31.5258C32.0361 31.6801 32.1288 31.9808 31.9897 32.2245C31.852 32.4649 31.5546 32.5391 31.3089 32.3947Z" fill="#6A5B92"/>
</g>
</g>
</g>
<mask id="mask40_4033_14693" style="mask-type:luminance" maskUnits="userSpaceOnUse" x="25" y="33" width="2" height="2">
<path d="M25.4756 33.6641H26.6624V34.8509H25.4756V33.6641Z" fill="white"/>
</mask>
<g mask="url(#mask40_4033_14693)">
<mask id="mask41_4033_14693" style="mask-type:luminance" maskUnits="userSpaceOnUse" x="-2" y="-5" width="52" height="58">
<path d="M23.0468 -4.83984L49.2709 10.2646L25.0277 52.3554L-1.19702 37.251L23.0468 -4.83984Z" fill="white"/>
</mask>
<g mask="url(#mask41_4033_14693)">
<mask id="mask42_4033_14693" style="mask-type:luminance" maskUnits="userSpaceOnUse" x="-2" y="-5" width="52" height="58">
<path d="M23.0468 -4.84375L49.2709 10.2607L25.0277 52.3515L-1.19702 37.247L23.0468 -4.84375Z" fill="white"/>
</mask>
<g mask="url(#mask42_4033_14693)">
<path d="M26.5506 34.4876C26.4129 34.7293 26.0784 34.8148 25.8248 34.673C25.585 34.5393 25.5042 34.2479 25.6407 34.0094C25.7784 33.7684 26.1142 33.681 26.3665 33.8207C26.6016 33.9512 26.6851 34.2518 26.5506 34.4876Z" fill="#6A5B92"/>
</g>
</g>
</g>
<mask id="mask43_4033_14693" style="mask-type:luminance" maskUnits="userSpaceOnUse" x="21" y="9" width="2" height="2">
<path d="M21.2375 9.08594H22.4243V10.2727H21.2375V9.08594Z" fill="white"/>
</mask>
<g mask="url(#mask43_4033_14693)">
<mask id="mask44_4033_14693" style="mask-type:luminance" maskUnits="userSpaceOnUse" x="-2" y="-5" width="52" height="58">
<path d="M23.0473 -4.83984L49.2714 10.2646L25.0282 52.3554L-1.19653 37.251L23.0473 -4.83984Z" fill="white"/>
</mask>
<g mask="url(#mask44_4033_14693)">
<mask id="mask45_4033_14693" style="mask-type:luminance" maskUnits="userSpaceOnUse" x="-2" y="-5" width="52" height="58">
<path d="M23.0476 -4.84375L49.2716 10.2607L25.0284 52.3515L-1.19629 37.247L23.0476 -4.84375Z" fill="white"/>
</mask>
<g mask="url(#mask45_4033_14693)">
<path d="M21.6258 10.1448C21.3814 10.005 21.2986 9.67589 21.4443 9.41959C21.5788 9.18117 21.8761 9.09773 22.1099 9.23217C22.3457 9.36727 22.4318 9.71232 22.2927 9.96265C22.1616 10.1984 21.8616 10.2799 21.6258 10.1448Z" fill="#6A5B92"/>
</g>
</g>
</g>
<mask id="mask46_4033_14693" style="mask-type:luminance" maskUnits="userSpaceOnUse" x="31" y="7" width="2" height="2">
<path d="M31.4104 7.55469H32.4277V8.74148H31.4104V7.55469Z" fill="white"/>
</mask>
<g mask="url(#mask46_4033_14693)">
<mask id="mask47_4033_14693" style="mask-type:luminance" maskUnits="userSpaceOnUse" x="-2" y="-5" width="52" height="58">
<path d="M23.0473 -4.83984L49.2714 10.2646L25.0282 52.3554L-1.19653 37.251L23.0473 -4.83984Z" fill="white"/>
</mask>
<g mask="url(#mask47_4033_14693)">
<mask id="mask48_4033_14693" style="mask-type:luminance" maskUnits="userSpaceOnUse" x="-2" y="-5" width="52" height="58">
<path d="M23.0476 -4.84375L49.2716 10.2607L25.0284 52.3515L-1.19629 37.247L23.0476 -4.84375Z" fill="white"/>
</mask>
<g mask="url(#mask48_4033_14693)">
<path d="M31.6743 8.56027C31.4392 8.42318 31.361 8.12317 31.5008 7.89203C31.6365 7.66686 31.9312 7.58937 32.1604 7.71918C32.3942 7.85097 32.477 8.15429 32.3425 8.38675C32.2068 8.62186 31.9107 8.69868 31.6743 8.56027Z" fill="#6A5B92"/>
</g>
</g>
</g>
<mask id="mask49_4033_14693" style="mask-type:luminance" maskUnits="userSpaceOnUse" x="34" y="22" width="2" height="2">
<path d="M34.1226 22.8125H35.3094V23.8298H34.1226V22.8125Z" fill="white"/>
</mask>
<g mask="url(#mask49_4033_14693)">
<mask id="mask50_4033_14693" style="mask-type:luminance" maskUnits="userSpaceOnUse" x="-2" y="-5" width="52" height="58">
<path d="M23.0468 -4.84375L49.2709 10.2607L25.0277 52.3515L-1.19702 37.247L23.0468 -4.84375Z" fill="white"/>
</mask>
<g mask="url(#mask50_4033_14693)">
<mask id="mask51_4033_14693" style="mask-type:luminance" maskUnits="userSpaceOnUse" x="-2" y="-5" width="52" height="58">
<path d="M23.0468 -4.84766L49.2709 10.2568L25.0277 52.3476L-1.19702 37.2431L23.0468 -4.84766Z" fill="white"/>
</mask>
<g mask="url(#mask51_4033_14693)">
<path d="M35.0983 23.5671C34.9639 23.8069 34.6658 23.8903 34.4307 23.7546C34.2009 23.6221 34.1201 23.3281 34.2499 23.0956C34.383 22.8565 34.6824 22.7731 34.9175 22.9088C35.1493 23.042 35.2288 23.334 35.0983 23.5671Z" fill="#6A5B92"/>
</g>
</g>
</g>
<mask id="mask52_4033_14693" style="mask-type:luminance" maskUnits="userSpaceOnUse" x="12" y="25" width="1" height="2">
<path d="M12.0002 25.7734H12.848V26.6211H12.0002V25.7734Z" fill="white"/>
</mask>
<g mask="url(#mask52_4033_14693)">
<mask id="mask53_4033_14693" style="mask-type:luminance" maskUnits="userSpaceOnUse" x="-1" y="-8" width="51" height="58">
<path d="M23.643 -7.81641L49.8671 7.28807L25.6239 49.3789L-0.60083 34.2744L23.643 -7.81641Z" fill="white"/>
</mask>
<g mask="url(#mask53_4033_14693)">
<mask id="mask54_4033_14693" style="mask-type:luminance" maskUnits="userSpaceOnUse" x="-1" y="-8" width="51" height="58">
<path d="M23.643 -7.82031L49.8671 7.28416L25.6239 49.375L-0.60083 34.2705L23.643 -7.82031Z" fill="white"/>
</mask>
<g mask="url(#mask54_4033_14693)">
<path d="M12.0772 26.0738C12.1891 25.8784 12.5341 25.836 12.6851 25.9989C12.8004 26.1228 12.7977 26.3076 12.6739 26.4228C12.5639 26.5261 12.4341 26.5751 12.2805 26.5387C12.0712 26.489 11.9705 26.2592 12.0772 26.0738Z" fill="#6A5B92"/>
</g>
</g>
</g>
<mask id="mask55_4033_14693" style="mask-type:luminance" maskUnits="userSpaceOnUse" x="31" y="27" width="1" height="1">
<path d="M31.0708 27.2188H31.9185V27.8969H31.0708V27.2188Z" fill="white"/>
</mask>
<g mask="url(#mask55_4033_14693)">
<mask id="mask56_4033_14693" style="mask-type:luminance" maskUnits="userSpaceOnUse" x="-2" y="-5" width="52" height="58">
<path d="M23.0468 -4.84375L49.2709 10.2607L25.0277 52.3515L-1.19702 37.247L23.0468 -4.84375Z" fill="white"/>
</mask>
<g mask="url(#mask56_4033_14693)">
<mask id="mask57_4033_14693" style="mask-type:luminance" maskUnits="userSpaceOnUse" x="-2" y="-5" width="52" height="58">
<path d="M23.0468 -4.84766L49.2709 10.2568L25.0277 52.3476L-1.19702 37.2431L23.0468 -4.84766Z" fill="white"/>
</mask>
<g mask="url(#mask57_4033_14693)">
<path d="M31.2974 27.8223C31.1371 27.7289 31.0828 27.5428 31.1702 27.3871C31.2616 27.2236 31.4649 27.1746 31.6351 27.2739C31.7914 27.3653 31.8484 27.56 31.7636 27.7123C31.6742 27.8733 31.4676 27.9216 31.2974 27.8223Z" fill="#6A5B92"/>
</g>
</g>
</g>
<mask id="mask58_4033_14693" style="mask-type:luminance" maskUnits="userSpaceOnUse" x="37" y="18" width="2" height="2">
<path d="M37.3442 18.2383H38.1919V19.086H37.3442V18.2383Z" fill="white"/>
</mask>
<g mask="url(#mask58_4033_14693)">
<mask id="mask59_4033_14693" style="mask-type:luminance" maskUnits="userSpaceOnUse" x="-2" y="-5" width="52" height="58">
<path d="M23.0471 -4.83984L49.2711 10.2646L25.0279 52.3554L-1.19678 37.251L23.0471 -4.83984Z" fill="white"/>
</mask>
<g mask="url(#mask59_4033_14693)">
<mask id="mask60_4033_14693" style="mask-type:luminance" maskUnits="userSpaceOnUse" x="-2" y="-5" width="52" height="58">
<path d="M23.0471 -4.84375L49.2711 10.2607L25.0279 52.3515L-1.19678 37.247L23.0471 -4.84375Z" fill="white"/>
</mask>
<g mask="url(#mask60_4033_14693)">
<path d="M38.096 18.7254C37.998 18.8983 37.7808 18.9638 37.6232 18.8685C37.4781 18.781 37.4278 18.5863 37.5113 18.438C37.6073 18.2678 37.8272 18.2029 37.9861 18.2976C38.1338 18.3863 38.1821 18.5738 38.096 18.7254Z" fill="#6A5B92"/>
</g>
</g>
</g>
<mask id="mask61_4033_14693" style="mask-type:luminance" maskUnits="userSpaceOnUse" x="29" y="11" width="2" height="2">
<path d="M29.7148 11.6211H30.5626V12.4688H29.7148V11.6211Z" fill="white"/>
</mask>
<g mask="url(#mask61_4033_14693)">
<mask id="mask62_4033_14693" style="mask-type:luminance" maskUnits="userSpaceOnUse" x="-2" y="-5" width="52" height="58">
<path d="M23.0471 -4.84375L49.2711 10.2607L25.0279 52.3515L-1.19678 37.247L23.0471 -4.84375Z" fill="white"/>
</mask>
<g mask="url(#mask62_4033_14693)">
<mask id="mask63_4033_14693" style="mask-type:luminance" maskUnits="userSpaceOnUse" x="-2" y="-5" width="52" height="58">
<path d="M23.0471 -4.84766L49.2711 10.2568L25.0279 52.3476L-1.19678 37.2431L23.0471 -4.84766Z" fill="white"/>
</mask>
<g mask="url(#mask63_4033_14693)">
<path d="M30.3999 12.2473C30.3125 12.403 30.1231 12.456 29.9661 12.3699C29.7906 12.2732 29.7244 12.0626 29.8191 11.9023C29.9085 11.7513 30.1045 11.701 30.2575 11.7904C30.4264 11.8884 30.488 12.0884 30.3999 12.2473Z" fill="#6A5B92"/>
</g>
</g>
</g>
<mask id="mask64_4033_14693" style="mask-type:luminance" maskUnits="userSpaceOnUse" x="24" y="39" width="2" height="1">
<path d="M24.459 39.0859H25.3067V39.9336H24.459V39.0859Z" fill="white"/>
</mask>
<g mask="url(#mask64_4033_14693)">
<mask id="mask65_4033_14693" style="mask-type:luminance" maskUnits="userSpaceOnUse" x="-2" y="-5" width="52" height="58">
<path d="M23.0471 -4.84375L49.2711 10.2607L25.0279 52.3515L-1.19678 37.247L23.0471 -4.84375Z" fill="white"/>
</mask>
<g mask="url(#mask65_4033_14693)">
<mask id="mask66_4033_14693" style="mask-type:luminance" maskUnits="userSpaceOnUse" x="-2" y="-5" width="52" height="58">
<path d="M23.0471 -4.84766L49.2711 10.2568L25.0279 52.3476L-1.19678 37.2431L23.0471 -4.84766Z" fill="white"/>
</mask>
<g mask="url(#mask66_4033_14693)">
<path d="M24.7669 39.7223C24.5967 39.6243 24.5384 39.4389 24.6278 39.2793C24.7186 39.1184 24.9093 39.0707 25.0775 39.166C25.2451 39.2621 25.3053 39.4528 25.2179 39.6111C25.1298 39.77 24.9338 39.8184 24.7669 39.7223Z" fill="#6A5B92"/>
</g>
</g>
</g>
<mask id="mask67_4033_14693" style="mask-type:luminance" maskUnits="userSpaceOnUse" x="21" y="34" width="1" height="2">
<path d="M21.0679 34.5117H21.9156V35.1899H21.0679V34.5117Z" fill="white"/>
</mask>
<g mask="url(#mask67_4033_14693)">
<mask id="mask68_4033_14693" style="mask-type:luminance" maskUnits="userSpaceOnUse" x="-2" y="-5" width="52" height="58">
<path d="M23.0471 -4.84375L49.2711 10.2607L25.0279 52.3515L-1.19678 37.247L23.0471 -4.84375Z" fill="white"/>
</mask>
<g mask="url(#mask68_4033_14693)">
<mask id="mask69_4033_14693" style="mask-type:luminance" maskUnits="userSpaceOnUse" x="-2" y="-5" width="52" height="58">
<path d="M23.0471 -4.84766L49.2711 10.2568L25.0279 52.3476L-1.19678 37.2431L23.0471 -4.84766Z" fill="white"/>
</mask>
<g mask="url(#mask69_4033_14693)">
<path d="M21.7781 35.0131C21.688 35.1667 21.49 35.2171 21.3403 35.125C21.1946 35.0343 21.1476 34.8449 21.2337 34.6958C21.3238 34.5415 21.5178 34.4932 21.6714 34.5866C21.8191 34.6766 21.8655 34.8627 21.7781 35.0131Z" fill="#6A5B92"/>
</g>
</g>
</g>
<path d="M12.7948 33.8144C12.7776 33.819 12.761 33.8237 12.7438 33.8276C12.7531 34.1588 12.7405 34.4919 12.7749 34.8197C12.8398 35.4396 12.9465 36.0542 13.0849 36.6628C13.1855 37.1012 13.2776 37.5417 13.3736 37.9814C13.3802 38.0105 13.3915 38.0384 13.4074 38.09C13.4816 37.7682 13.5518 37.4754 13.6167 37.1814C13.6279 37.1297 13.6246 37.0728 13.6187 37.0198C13.5346 36.2251 13.373 35.4449 13.1253 34.6853C13.0292 34.3906 12.9054 34.1051 12.7948 33.8144ZM13.269 30.1719C13.2617 30.1725 13.2544 30.1732 13.2458 30.1745C13.2345 30.211 13.2213 30.248 13.2114 30.2851C12.9763 31.1527 12.81 32.0302 12.7815 32.9316C12.7776 33.0607 12.7921 33.1733 12.871 33.2793C12.918 33.3428 12.9511 33.4164 12.9842 33.4879C13.208 33.9747 13.416 34.4674 13.5471 34.9879C13.6405 35.3581 13.7193 35.731 13.8054 36.1025C13.816 36.1482 13.8266 36.1939 13.8405 36.2509C13.9617 35.9052 14.0776 35.5754 14.1929 35.2449C14.2001 35.223 14.2008 35.1952 14.1942 35.1734C14.1352 34.9846 14.0803 34.7939 14.0114 34.6091C13.9081 34.329 13.8233 34.0442 13.7882 33.7482C13.7293 33.2614 13.675 32.774 13.6319 32.2859C13.5743 31.6335 13.463 30.9898 13.3233 30.3514C13.31 30.2904 13.2875 30.2315 13.269 30.1719ZM14.1564 27.2142C13.8544 27.9493 13.6418 28.701 13.4292 29.4533C13.4028 29.548 13.4187 29.6374 13.4498 29.7288C13.5226 29.9447 13.6081 30.158 13.6551 30.3792C13.7961 31.0381 13.9127 31.7017 13.9564 32.3753C13.9756 32.672 14.0028 32.968 14.0379 33.2627C14.0895 33.6912 14.1525 34.1177 14.3193 34.5197C14.3399 34.5674 14.3611 34.6151 14.3935 34.6899C14.4339 34.6349 14.4624 34.6084 14.477 34.5753C14.5896 34.3276 14.7002 34.0793 14.8094 33.8303C14.8227 33.7998 14.8273 33.7634 14.8266 33.7303C14.8233 33.621 14.8167 33.513 14.8108 33.4038C14.7723 32.7329 14.618 32.0839 14.4531 31.4348C14.2551 30.6514 14.0948 29.8606 14.0697 29.0487C14.0531 28.5036 14.0882 27.9599 14.1399 27.4181C14.1458 27.3506 14.1511 27.2824 14.1564 27.2142ZM21.3282 32.6243C21.3083 32.613 21.3004 32.6037 21.2931 32.6051C21.2348 32.6137 21.1765 32.6256 21.1176 32.6342C20.3619 32.7475 19.6348 32.9647 18.9599 33.321C18.3254 33.6554 17.7115 34.0296 17.0903 34.3899C16.7684 34.576 16.4565 34.7773 16.1313 34.9568C15.6081 35.2469 15.132 35.5979 14.6988 36.0092C14.6631 36.0429 14.6247 36.0767 14.5988 36.1184C14.4531 36.3535 14.3154 36.5933 14.1677 36.8277C14.0054 37.086 13.8763 37.3556 13.8306 37.6595C13.8167 37.7556 13.7922 37.8503 13.7723 37.945C13.8372 37.9026 13.8809 37.8523 13.922 37.7999C14.3333 37.2774 14.7829 36.792 15.2896 36.3595C15.8545 35.8754 16.4658 35.4522 17.0817 35.0376C18.336 34.1939 19.6222 33.4031 21.0057 32.7819C21.1129 32.7342 21.2163 32.6792 21.3282 32.6243ZM36.2068 9.41358C36.2366 9.37053 36.2466 9.35927 36.2525 9.34669C36.2664 9.3202 36.279 9.29304 36.2896 9.26523C36.5452 8.59699 36.7347 7.91419 36.7843 7.1943C36.8472 6.29096 36.6989 5.43994 36.226 4.65448C36.1048 4.45381 35.9651 4.27169 35.7949 4.11009C35.43 3.7624 35.0055 3.65643 34.5207 3.79286C34.414 3.82266 34.3081 3.85843 34.2359 3.96903C34.377 3.9485 34.5028 3.92466 34.63 3.91406C34.8432 3.89551 35.0306 3.96505 35.1902 4.10546C35.33 4.22798 35.4399 4.375 35.5008 4.55183C35.5744 4.76707 35.6446 4.98363 35.7088 5.20218C35.8512 5.68432 35.8446 6.16976 35.7306 6.65587C35.6843 6.85323 35.634 7.05059 35.571 7.24265C35.5373 7.34728 35.5399 7.43139 35.6081 7.51815C35.6532 7.57709 35.6889 7.64266 35.7267 7.7069C36.0081 8.18374 36.1929 8.68971 36.1976 9.25066C36.1982 9.29371 36.2022 9.33675 36.2068 9.41358ZM35.171 3.41603C35.1882 3.42861 35.1949 3.43855 35.2035 3.43987C35.5969 3.51669 35.9009 3.74121 36.1598 4.03062C36.5433 4.45911 36.787 4.96774 36.9453 5.51477C37.2075 6.42937 37.1512 7.34795 36.9406 8.26255C36.8366 8.71157 36.6863 9.14668 36.5121 9.57584C36.5486 9.54934 36.5837 9.52219 36.6082 9.48775C36.8075 9.2043 37.0201 8.92879 37.1996 8.63276C37.5102 8.11883 37.7592 7.57511 37.9168 6.99164C38.0996 6.31414 38.189 5.63266 38.0347 4.93661C37.9532 4.5664 37.7844 4.24255 37.5115 3.97499C37.291 3.75909 37.0287 3.61471 36.7413 3.5114C36.385 3.38292 36.0221 3.2902 35.6379 3.32199C35.4816 3.33457 35.3267 3.35974 35.171 3.41603ZM35.3909 7.78174C35.3598 7.85723 35.3386 7.90691 35.3181 7.95658C35.2002 8.22943 35.0902 8.5056 34.9637 8.77382C34.6247 9.4957 34.1611 10.1381 33.6683 10.76C33.6067 10.8381 33.5875 10.9103 33.6008 11.0037C33.6392 11.2732 33.6796 11.5428 33.7087 11.8137C33.7597 12.2898 33.761 12.7627 33.5829 13.219C33.5683 13.2568 33.5624 13.2978 33.5458 13.3614C33.5849 13.3296 33.6067 13.3164 33.622 13.2985C34.1313 12.7183 34.6253 12.1256 35.0531 11.4805C35.2916 11.1222 35.5187 10.756 35.7432 10.3884C35.7903 10.311 35.8234 10.2156 35.8313 10.1255C35.8565 9.85929 35.873 9.59305 35.8797 9.3255C35.8936 8.79899 35.7227 8.32348 35.4571 7.8771C35.4419 7.85194 35.424 7.82942 35.3909 7.78174ZM33.2935 11.2368C33.0796 11.4719 32.8835 11.6944 32.6815 11.911C32.2431 12.3819 31.8014 12.8495 31.261 13.2084C31.2033 13.2468 31.206 13.2932 31.204 13.3481C31.1795 14.0839 31.0053 14.7859 30.71 15.4588C30.5609 15.7986 30.4066 16.1357 30.2556 16.4747C30.2404 16.5085 30.2351 16.5463 30.2172 16.6112C30.2722 16.5675 30.304 16.5456 30.3318 16.5198C31.2292 15.6979 32.1219 14.8714 32.969 13.9972C33.0332 13.9309 33.0769 13.8621 33.0948 13.7687C33.1193 13.6429 33.1597 13.5203 33.1955 13.3972C33.2584 13.1786 33.3451 12.964 33.3836 12.7422C33.4703 12.2428 33.3948 11.7488 33.2935 11.2368ZM14.2736 35.9396C14.2829 35.9429 14.2922 35.9456 14.3021 35.9496C14.3207 35.9343 14.3412 35.9204 14.3578 35.9032C14.8505 35.4005 15.4101 34.9886 16.0273 34.6522C16.2843 34.5124 16.5313 34.3555 16.783 34.2084C17.438 33.827 18.0923 33.4455 18.7493 33.068C18.8778 32.9945 19.0169 32.9395 19.152 32.8766C19.9765 32.4958 20.86 32.3441 21.7467 32.2037C21.8474 32.1878 21.9434 32.1885 22.0242 32.262C22.3574 32.0845 22.6799 31.907 22.9872 31.7004C22.9402 31.6931 22.8978 31.6964 22.8561 31.7031C22.4143 31.7719 21.9706 31.7971 21.5236 31.7792C21.1679 31.7653 20.811 31.7593 20.4546 31.7693C19.2539 31.8031 18.1758 32.1984 17.2088 32.9031C16.6764 33.2918 16.1625 33.7031 15.6816 34.1555C15.3896 34.4303 15.0803 34.6846 14.7346 34.8939C14.6922 34.9191 14.6564 34.9687 14.6366 35.0157C14.5419 35.2396 14.4531 35.4648 14.3637 35.6906C14.3313 35.7727 14.3034 35.8562 14.2736 35.9396ZM28.7913 14.6204C28.7602 14.8535 28.7503 15.0727 28.6993 15.282C28.4231 16.4158 28.0529 17.5165 27.5185 18.5576C27.5079 18.5788 27.5039 18.6039 27.494 18.6364C27.5191 18.6291 27.5304 18.6285 27.5377 18.6238C28.2291 18.1278 28.943 17.6609 29.6086 17.1284C29.7106 17.0469 29.7801 16.9569 29.8106 16.8304C29.9218 16.3701 30.1232 15.9443 30.3311 15.5224C30.6285 14.9197 30.7947 14.282 30.8742 13.6184C30.8795 13.572 30.8788 13.525 30.8815 13.4607C30.1656 13.8588 29.4695 14.2449 28.7913 14.6204ZM16.1572 31.1852C16.1962 31.1249 16.2187 31.0944 16.2373 31.062C16.43 30.7216 16.6214 30.3812 16.8141 30.0407C16.8797 29.9249 16.9287 29.8063 16.9684 29.6765C17.1135 29.2083 17.1287 28.7354 17.089 28.2519C17.0519 27.8036 17.0367 27.3532 17.0088 26.9036C16.991 26.6128 16.9678 26.3214 16.9466 26.0307C16.9366 25.8896 16.8936 25.7737 16.7784 25.6711C16.589 25.5009 16.4784 25.2677 16.3525 25.0492C16.2466 24.8664 16.181 24.6717 16.1598 24.4611C16.1545 24.4101 16.1459 24.3591 16.1386 24.3081C16.128 24.3074 16.1174 24.3074 16.1068 24.3074C16.0565 24.5022 16.0009 24.6962 15.9578 24.8922C15.7293 25.9426 15.6552 27.0069 15.6823 28.0791C15.685 28.1923 15.6942 28.3069 15.7134 28.4188C15.7962 28.9016 15.8757 29.3851 15.9744 29.8652C16.0545 30.254 16.1174 30.6434 16.1452 31.0395C16.1479 31.0765 16.1512 31.1136 16.1572 31.1852ZM15.118 33.17C15.1512 33.1124 15.1684 33.0852 15.1836 33.0567C15.3161 32.8018 15.4485 32.5475 15.5803 32.2925C15.6207 32.213 15.6671 32.1349 15.6942 32.0507C15.7975 31.7329 15.8518 31.4083 15.8287 31.0726C15.8022 30.6865 15.7439 30.3057 15.6604 29.9275C15.4657 29.0407 15.3002 28.15 15.3637 27.2347C15.3796 27.0022 15.3856 26.7698 15.4035 26.5373C15.4644 25.7413 15.5744 24.9538 15.8174 24.1896C15.826 24.1631 15.826 24.1346 15.8326 24.0836C15.8048 24.118 15.7916 24.1326 15.7797 24.1485C15.3346 24.7346 14.9836 25.3783 14.6485 26.0307C14.6286 26.0691 14.616 26.1135 14.6107 26.1565C14.5492 26.6824 14.4823 27.2075 14.4326 27.7347C14.367 28.4215 14.3491 29.1103 14.4511 29.7944C14.5379 30.3719 14.6458 30.9467 14.7982 31.5117C14.9372 32.0236 15.0591 32.5388 15.0995 33.07C15.1015 33.0925 15.1081 33.1144 15.118 33.17ZM19.2023 20.2543C19.195 20.2484 19.189 20.2418 19.1818 20.2351C19.1453 20.2676 19.1063 20.2967 19.0725 20.3318C18.7804 20.6418 18.4864 20.9491 18.1983 21.263C17.987 21.4928 17.7989 21.7431 17.644 22.0153C17.1473 22.8869 17.0075 23.826 17.1274 24.8134C17.1559 25.0532 17.1631 25.2962 17.1804 25.5373C17.1817 25.5618 17.1824 25.587 17.189 25.6108C17.2983 26.0466 17.3108 26.4923 17.3294 26.938C17.3473 27.3585 17.3777 27.7784 17.4002 28.199C17.4122 28.4162 17.4188 28.6341 17.4287 28.852C17.43 28.8818 17.4347 28.9122 17.44 28.9646C17.4797 28.9129 17.5055 28.8838 17.5267 28.8513C17.8334 28.3831 18.134 27.9109 18.448 27.4479C18.5327 27.3221 18.5586 27.1969 18.5387 27.0559C18.5142 26.889 18.4884 26.7228 18.4552 26.5579C18.3771 26.1691 18.2764 25.785 18.2162 25.3936C18.0923 24.5836 18.1128 23.7743 18.2791 22.9703C18.4685 22.0551 18.7413 21.1683 19.1718 20.3351C19.1844 20.31 19.1924 20.2815 19.2023 20.2543ZM26.429 15.7562C26.3939 15.9986 26.3734 16.2158 26.329 16.4284C26.2694 16.7145 26.1992 16.9986 26.1211 17.2794C25.9707 17.8112 25.731 18.3072 25.484 18.7973C25.274 19.2126 25.0382 19.6159 24.8151 20.0239C24.6528 20.3199 24.5137 20.6265 24.419 20.951C24.4091 20.9855 24.4058 21.0219 24.3972 21.0722C24.4303 21.0517 24.4488 21.0431 24.4634 21.0312C25.121 20.5139 25.7747 19.9914 26.437 19.4808C26.7184 19.2642 26.929 18.9973 27.0939 18.6881C27.3688 18.1715 27.6079 17.6397 27.8132 17.0907C28.0443 16.4728 28.2364 15.8449 28.392 15.2045C28.4152 15.1085 28.4271 15.0098 28.441 14.9118C28.4463 14.876 28.4397 14.8383 28.437 14.778C27.7509 15.1124 27.0833 15.4376 26.429 15.7562ZM34.0452 13.3024C34.0783 13.2978 34.0942 13.2998 34.1061 13.2938C34.7432 12.972 35.3724 12.6355 35.9247 12.1779C36.4883 11.711 37.0466 11.2375 37.6022 10.76C37.7665 10.6189 37.9254 10.4673 38.0658 10.3023C38.3923 9.91956 38.6235 9.47385 38.8672 9.03807C38.9043 8.97184 38.9288 8.88906 38.9294 8.81356C38.9327 8.33341 38.9294 7.85392 38.9248 7.37378C38.9195 6.9029 38.8162 6.45057 38.6453 6.01347C38.597 5.88896 38.5499 5.76379 38.5009 5.63928C38.4884 5.60683 38.4731 5.57504 38.4559 5.53663C38.4427 5.55517 38.438 5.55848 38.4374 5.56246C38.4354 5.61213 38.4307 5.66114 38.4301 5.71014C38.4195 6.43268 38.2519 7.12211 37.9791 7.78703C37.7108 8.44136 37.3479 9.04204 36.9208 9.60498C36.6744 9.92883 36.389 10.2176 36.1009 10.503C36.0419 10.5613 35.9783 10.6202 35.9373 10.6898C35.4796 11.4567 34.9737 12.1885 34.4001 12.874C34.2849 13.0124 34.1703 13.1514 34.0452 13.3024ZM21.8997 23.2895C21.9103 23.2942 21.9209 23.2981 21.9315 23.3021C21.9792 23.2591 22.0262 23.2167 22.0732 23.1736C22.6713 22.6246 23.2673 22.0749 23.8673 21.5279C23.9567 21.4464 24.0488 21.3782 24.023 21.2352C24.0157 21.1948 24.0389 21.1491 24.0488 21.1054C24.1594 20.6179 24.3621 20.1669 24.6098 19.7364C24.9449 19.1523 25.2634 18.5596 25.5363 17.9423C25.8058 17.335 25.9628 16.6986 26.0714 16.0476C26.0773 16.0118 26.0727 15.9741 26.0734 15.9191C25.923 15.99 25.7873 16.0496 25.6555 16.1164C25.223 16.337 24.7985 16.5741 24.3574 16.7741C24.123 16.8807 23.9899 17.0469 23.9091 17.2721C23.8587 17.4112 23.8124 17.5536 23.7832 17.6986C23.7428 17.9019 23.713 18.1086 23.6892 18.3145C23.5905 19.1616 23.3249 19.9537 22.9176 20.7014C22.607 21.2716 22.317 21.8517 22.1335 22.4789C22.054 22.7485 21.9772 23.0193 21.8997 23.2895ZM20.1149 25.136C20.5626 24.6743 20.9878 24.2326 21.4183 23.7962C21.4798 23.7346 21.4991 23.6631 21.5176 23.5869C21.5481 23.4571 21.5699 23.3253 21.603 23.1962C21.7441 22.6392 21.8958 22.0855 22.1388 21.563C22.3117 21.1908 22.4984 20.8246 22.6845 20.4583C22.8421 20.1497 22.9905 19.8371 23.1011 19.5086C23.2455 19.0795 23.3289 18.6377 23.3845 18.19C23.4223 17.8801 23.4634 17.5708 23.5667 17.2748C23.5733 17.2549 23.5733 17.2337 23.5806 17.182C22.9753 17.5569 22.3958 17.9158 21.813 18.2768C21.8083 18.3364 21.8024 18.3947 21.7997 18.4536C21.7845 18.7821 21.7236 19.102 21.6368 19.4179C21.4626 20.0484 21.2401 20.663 21.007 21.2729C20.7818 21.865 20.554 22.4564 20.3838 23.0677C20.2156 23.671 20.0997 24.2823 20.107 24.9114C20.1076 24.983 20.1116 25.0545 20.1149 25.136ZM21.4712 18.5033C21.4123 18.539 21.3739 18.5589 21.3394 18.5841C20.8884 18.9146 20.4374 19.2457 19.9871 19.5782C19.956 19.6007 19.9228 19.6278 19.905 19.6609C19.6917 20.0583 19.4645 20.4484 19.2745 20.8563C18.9519 21.5504 18.7407 22.2835 18.5903 23.0339C18.4241 23.8631 18.4069 24.6955 18.5625 25.528C18.6394 25.9419 18.7294 26.3532 18.8149 26.7651C18.8202 26.7896 18.8367 26.8122 18.8486 26.8353C19.1347 26.4492 19.4083 26.0664 19.6977 25.6962C19.803 25.5625 19.8414 25.4446 19.8162 25.2697C19.7506 24.8108 19.7937 24.3505 19.8705 23.8948C20.0149 23.0412 20.3017 22.2292 20.6103 21.4246C20.858 20.7782 21.105 20.1305 21.2944 19.4629C21.3805 19.1589 21.464 18.853 21.4712 18.5033ZM37.6009 13.9137C37.5949 13.9078 37.5897 13.9018 37.5837 13.8952C37.5678 13.9051 37.5493 13.9117 37.536 13.9243C37.1261 14.3164 36.6446 14.5945 36.1333 14.8303C35.3412 15.1946 34.5558 15.5721 33.765 15.939C33.5001 16.0628 33.2299 16.1747 32.959 16.2833C32.1908 16.5933 31.4027 16.8423 30.5974 17.039C30.4013 17.0873 30.2113 17.1635 30.0199 17.2297C29.9795 17.2443 29.9411 17.2701 29.9053 17.296C29.3748 17.6854 28.8443 18.0761 28.3152 18.4662C28.2807 18.4914 28.2483 18.5179 28.1999 18.5556C28.237 18.5536 28.2516 18.5556 28.2655 18.5516C28.9344 18.3741 29.6218 18.3258 30.308 18.2688C31.1828 18.196 32.0517 18.0841 32.9001 17.8483C33.4829 17.686 34.0657 17.5158 34.5962 17.2205C35.2101 16.8781 35.8075 16.5065 36.4121 16.1482C36.5532 16.0641 36.6492 15.9462 36.7148 15.7946C36.8049 15.586 36.9095 15.3826 37.0062 15.1767C37.2049 14.7561 37.4029 14.3349 37.6009 13.9137ZM22.6031 23.1134C22.607 23.1193 22.611 23.126 22.615 23.1319C22.6289 23.1286 22.6435 23.1273 22.6567 23.1213C23.3481 22.8253 24.0687 22.6326 24.8084 22.5061C25.5071 22.3869 26.2052 22.2663 26.9019 22.1372C27.7695 21.9769 28.6344 21.7974 29.4768 21.5358C30.1676 21.3219 30.8523 21.0861 31.5298 20.8338C32.4444 20.4941 33.3438 20.1119 34.2962 19.8821C34.318 19.8775 34.3445 19.8629 34.3551 19.845C34.4088 19.759 34.4578 19.6702 34.5101 19.5795C34.3187 19.6258 34.1352 19.6894 33.9471 19.7113C33.5981 19.7523 33.2471 19.7815 32.8961 19.7927C32.4809 19.806 32.0643 19.7907 31.6484 19.7947C31.2086 19.798 30.7669 19.7894 30.3278 19.8205C29.5841 19.8722 28.8781 20.0921 28.1913 20.3716C27.5814 20.6192 26.9807 20.8901 26.3687 21.1365C26.0297 21.2736 25.6813 21.3915 25.331 21.4974C25.0124 21.5941 24.6833 21.6451 24.3475 21.5961C24.2832 21.5862 24.2455 21.6199 24.2051 21.6557C23.9673 21.8656 23.7276 22.0723 23.4932 22.2855C23.1938 22.559 22.8998 22.8372 22.6031 23.1134ZM19.1029 27.0327C19.1096 27.0426 19.1155 27.0526 19.1222 27.0625C19.1539 27.0552 19.1871 27.0499 19.2182 27.0406C19.7076 26.8943 20.201 26.7625 20.6838 26.5983C21.5169 26.3148 22.3686 26.1102 23.2282 25.9333C24.6243 25.6472 25.9952 25.2817 27.3145 24.7306C28.2715 24.332 29.247 23.9882 30.2629 23.7637C30.5801 23.6942 30.8815 23.5551 31.1888 23.4465C31.2166 23.4372 31.2398 23.4154 31.2649 23.3988C31.212 23.3895 31.1676 23.3955 31.1245 23.4034C30.6503 23.4849 30.1742 23.5465 29.6927 23.5677C29.0894 23.5948 28.486 23.624 27.8827 23.6564C26.1429 23.7505 24.4535 24.0902 22.819 24.6936C22.2944 24.8876 21.7812 25.1141 21.2606 25.3207C20.9288 25.4525 20.5911 25.5658 20.2321 25.6015C20.1937 25.6055 20.15 25.6346 20.1248 25.6651C20.0169 25.7949 19.9122 25.9267 19.8122 26.0618C19.5738 26.3843 19.3394 26.7089 19.1029 27.0327ZM36.2684 16.6476C36.2618 16.6416 36.2552 16.6357 36.2485 16.6304C35.9942 16.7807 35.7419 16.9363 35.4836 17.0807C35.1253 17.282 34.773 17.498 34.3988 17.6655C33.6683 17.992 32.9001 18.2066 32.1133 18.3549C31.308 18.5066 30.4941 18.5788 29.6788 18.641C28.9834 18.6947 28.3059 18.8377 27.6496 19.0715C27.4873 19.1285 27.3151 19.1867 27.182 19.2901C26.376 19.9146 25.5793 20.5517 24.78 21.1848C24.7462 21.2107 24.7164 21.2405 24.6581 21.2928C24.917 21.2749 25.1356 21.2365 25.3455 21.165C25.6919 21.0464 26.0383 20.9259 26.378 20.7888C27.0999 20.4987 27.8105 20.1821 28.5377 19.906C29.3218 19.6086 30.1391 19.4609 30.9815 19.4682C31.655 19.4742 32.3285 19.4868 33.0021 19.4735C33.5564 19.4623 34.1107 19.4298 34.622 19.1636C34.7776 19.0834 34.9021 18.9914 34.9935 18.8417C35.4134 18.1569 35.8386 17.4761 36.2115 16.7648C36.2313 16.7257 36.2492 16.686 36.2684 16.6476ZM38.7228 9.9785C38.7168 9.97651 38.7109 9.97386 38.7043 9.97187C38.6672 10.0222 38.6254 10.0706 38.593 10.1235C38.3672 10.4918 38.0652 10.7904 37.7387 11.066C37.3175 11.4196 36.8943 11.7699 36.4803 12.1315C35.6121 12.8892 34.6247 13.4448 33.5644 13.8819C33.512 13.9038 33.463 13.9415 33.422 13.9819C33.2789 14.1263 33.1451 14.2793 32.9988 14.4197C32.2603 15.1297 31.5179 15.8356 30.7768 16.5436C30.7351 16.5834 30.6941 16.6244 30.6278 16.6887C30.6974 16.6787 30.7311 16.6787 30.7629 16.6688C31.2047 16.5377 31.6497 16.4184 32.0855 16.2694C32.7935 16.027 33.4816 15.735 34.1538 15.4025C34.8147 15.076 35.4902 14.7767 36.1591 14.4654C36.681 14.2223 37.1479 13.9038 37.5334 13.472C37.8453 13.1223 38.1181 12.7587 38.2155 12.2792C38.3665 11.5322 38.5466 10.7911 38.7142 10.048C38.7195 10.0255 38.7202 10.0017 38.7228 9.9785ZM16.4969 31.2699C16.5459 31.2434 16.5638 31.2362 16.5803 31.2256C17.185 30.8249 17.8493 30.5573 18.5433 30.358C19.4083 30.1103 20.2944 29.9798 21.1858 29.8745C22.3991 29.7315 23.5938 29.5083 24.7382 29.0593C26.0144 28.5599 27.2231 27.9473 28.2655 27.0413C28.3039 27.0082 28.3423 26.9757 28.396 26.93C28.3569 26.9287 28.3463 26.9254 28.3377 26.9281C27.694 27.1201 27.035 27.1665 26.3674 27.146C26.2701 27.1426 26.1701 27.1612 26.0747 27.1844C25.4727 27.3268 24.87 27.4691 24.27 27.6215C23.8859 27.7182 23.5031 27.8215 23.1249 27.94C22.1944 28.2314 21.2659 28.5288 20.3103 28.7367C19.6374 28.8831 18.9625 29.0202 18.3029 29.2215C18.044 29.3003 17.8029 29.4116 17.585 29.5705C17.4671 29.658 17.3473 29.7474 17.2724 29.8805C17.0261 30.3169 16.7797 30.752 16.5333 31.1878C16.5247 31.2037 16.5181 31.2216 16.4969 31.2699ZM28.9635 26.881C28.9019 26.9294 28.841 26.9777 28.7794 27.0267C28.388 27.3367 28.0119 27.6705 27.6019 27.9539C26.8376 28.4818 26.0065 28.893 25.1469 29.2427C24.0998 29.6686 23.0157 29.954 21.8938 30.1004C21.2898 30.1785 20.6864 30.26 20.0838 30.3494C19.3321 30.4613 18.595 30.6375 17.8863 30.9156C17.2605 31.162 16.6618 31.4574 16.2068 31.9739C16.0863 32.1104 15.9578 32.2488 15.8757 32.409C15.5651 33.0177 15.2717 33.6342 14.9717 34.2495C14.9584 34.2766 14.9492 34.3065 14.926 34.368C14.9889 34.3257 15.0227 34.3071 15.0518 34.2833C15.1724 34.1806 15.2955 34.0806 15.4108 33.972C15.9234 33.4892 16.4684 33.0461 17.0386 32.6349C17.7506 32.1216 18.5274 31.7507 19.3917 31.5752C20.007 31.4507 20.6288 31.417 21.2547 31.4501C21.7752 31.4772 22.2938 31.4766 22.8097 31.3885C22.9753 31.36 23.1415 31.3282 23.3084 31.3097C23.3985 31.2997 23.4905 31.3143 23.5819 31.3176C23.6355 31.3103 23.6859 31.2799 23.7342 31.2461C24.3462 30.8249 24.9561 30.4017 25.5687 29.9818C26.5641 29.2997 27.4827 28.5268 28.3251 27.6638C28.5602 27.4228 28.7933 27.1804 28.9635 26.881ZM34.0531 20.312C34.0458 20.302 34.0392 20.2927 34.0326 20.2828C33.8531 20.3365 33.6703 20.3808 33.4955 20.4451C32.8577 20.6782 32.2232 20.9199 31.5868 21.1557C30.4762 21.5683 29.3536 21.9398 28.1933 22.1961C27.1376 22.4299 26.0747 22.62 25.0091 22.7942C24.0236 22.9557 23.0753 23.2213 22.1938 23.7028C22.1077 23.7498 22.011 23.777 21.9203 23.8167C21.8679 23.8405 21.8083 23.8611 21.7693 23.9001C21.3765 24.2982 20.9865 24.6995 20.597 25.1009C20.5666 25.132 20.5447 25.173 20.5189 25.2088C20.656 25.1916 20.7758 25.1618 20.8911 25.1181C21.1322 25.028 21.3745 24.9393 21.6103 24.8359C22.809 24.3121 24.0468 23.9121 25.3296 23.6558C26.5191 23.418 27.7231 23.322 28.9337 23.2862C29.8364 23.2597 30.7338 23.1875 31.6159 22.9789C31.8279 22.9286 32.0424 22.8875 32.2544 22.8365C32.2921 22.8279 32.3338 22.7988 32.357 22.7663C32.4882 22.5862 32.6153 22.4027 32.7425 22.22C33.067 21.7517 33.3915 21.2842 33.7154 20.8153C33.8299 20.649 33.9405 20.4802 34.0531 20.312ZM31.7404 23.5664C31.7338 23.5584 31.7265 23.5505 31.7193 23.5425C31.6974 23.5525 31.6755 23.5617 31.6544 23.5723C31.1702 23.8313 30.6583 24.0147 30.1232 24.13C29.4669 24.2704 28.8331 24.4816 28.2072 24.7214C27.5456 24.9737 26.8886 25.2386 26.2217 25.4783C25.2396 25.83 24.2203 26.0453 23.2031 26.2625C22.5395 26.4042 21.8779 26.5539 21.2282 26.7539C20.4513 26.9936 19.6718 27.2208 18.8937 27.4559C18.8586 27.4665 18.8221 27.4883 18.797 27.5155C18.7526 27.5619 18.7122 27.6129 18.6771 27.6665C18.391 28.1003 18.1056 28.5354 17.8208 28.9705C17.8029 28.9977 17.7877 29.0261 17.7705 29.0566C17.7923 29.0619 17.8029 29.0685 17.8095 29.0659C18.3076 28.8632 18.8288 28.7427 19.3513 28.6275C20.3672 28.4036 21.3858 28.1851 22.3706 27.844C23.4965 27.4532 24.6588 27.2036 25.8124 26.9195C26.0866 26.8519 26.3654 26.7983 26.633 26.7108C27.5516 26.4108 28.4112 25.9876 29.2099 25.4419C29.6887 25.1148 30.1748 24.7995 30.6583 24.4816C30.9908 24.2631 31.302 24.0207 31.5822 23.7379C31.6371 23.6829 31.6881 23.6233 31.7404 23.5664ZM27.4072 26.7976C27.49 26.7857 27.5734 26.7771 27.6549 26.7605C28.0191 26.6863 28.3794 26.5963 28.7278 26.4625C28.8708 26.4075 29.0172 26.3598 29.1655 26.3214C29.2828 26.291 29.4086 26.279 29.4934 26.3929C29.5768 26.5055 29.5298 26.6208 29.4695 26.7267C29.2569 27.0996 28.99 27.4294 28.694 27.7387C27.7907 28.6831 26.8006 29.5255 25.7204 30.2626C25.0336 30.7322 24.3541 31.2123 23.6607 31.6713C22.858 32.2024 22.0123 32.6627 21.1401 33.0667C20.1123 33.5422 19.1327 34.1011 18.1758 34.7025C17.3155 35.2436 16.4777 35.8158 15.681 36.4469C15.0207 36.9708 14.4637 37.594 13.963 38.2682C13.8485 38.4225 13.7438 38.5847 13.6352 38.743C13.6418 38.751 13.6485 38.7596 13.6551 38.7675C13.6829 38.7569 13.7127 38.7496 13.7379 38.7364C13.9975 38.5973 14.2895 38.6728 14.5074 38.8649C14.5796 38.9278 14.5856 39.0099 14.5359 39.0775C14.4909 39.1391 14.4154 39.1583 14.3359 39.1218C14.2915 39.1013 14.2525 39.0695 14.2101 39.043C14.0902 38.9675 13.9723 38.9649 13.8478 39.0397C13.6266 39.1722 13.4922 39.3563 13.4412 39.6133C13.3359 40.1484 13.2564 40.6861 13.2147 41.2299C13.2114 41.2722 13.212 41.3153 13.2345 41.3656C13.322 41.214 13.4094 41.0623 13.4961 40.9106C13.6942 40.5689 13.9491 40.2735 14.2359 40.0047C14.2683 39.9742 14.3015 39.9431 14.3392 39.9205C14.4068 39.8801 14.4823 39.8907 14.5293 39.9411C14.5803 39.9954 14.5896 40.0649 14.5452 40.1318C14.5187 40.1729 14.4816 40.208 14.4458 40.2417C14.0134 40.6477 13.6796 41.1246 13.4478 41.6683C13.2438 42.1478 13.1398 42.6498 13.1749 43.175C13.1981 43.516 13.2114 43.8578 13.2339 44.1988C13.2584 44.569 13.273 44.9412 13.3783 45.3015C13.4041 45.3883 13.3683 45.4545 13.2948 45.4856C13.2239 45.5168 13.1438 45.4982 13.0994 45.4273C13.0696 45.3777 13.0445 45.3194 13.0378 45.2618C12.9935 44.9088 12.9511 44.5545 12.9166 44.2002C12.8974 44.0028 12.8994 43.8041 12.8849 43.6068C12.8736 43.4637 12.8491 43.322 12.8339 43.1796C12.82 43.0465 12.8054 42.9134 12.8014 42.7802C12.7849 42.2378 12.7007 41.7047 12.5723 41.1795C12.4756 40.7828 12.3054 40.412 12.0828 40.0689C12.014 39.9623 11.9173 39.8735 11.8332 39.7768C11.8232 39.7662 11.81 39.7583 11.8001 39.747C11.7418 39.6808 11.7352 39.608 11.7809 39.5437C11.8279 39.4775 11.9153 39.4543 11.9921 39.5033C12.0537 39.5424 12.108 39.596 12.1577 39.6497C12.3875 39.8967 12.5365 40.1927 12.6676 40.4987C12.7471 40.6841 12.8133 40.8755 12.8935 41.0861C12.9047 41.0391 12.9133 41.012 12.916 40.9842C12.9604 40.5159 13.0266 40.0504 13.1253 39.5901C13.1577 39.4377 13.1458 39.2808 13.0842 39.1377C12.9537 38.8331 12.8219 38.5311 12.6378 38.2503C12.408 37.8999 12.0968 37.6801 11.7054 37.5576C11.6583 37.5423 11.6093 37.5304 11.5649 37.5099C11.4782 37.4721 11.4411 37.3973 11.4643 37.3191C11.4868 37.2436 11.5643 37.1926 11.653 37.2145C11.7683 37.2436 11.8802 37.284 11.9915 37.3251C12.361 37.4628 12.6537 37.6966 12.8663 38.0298C12.9372 38.1404 13.0127 38.249 13.1094 38.3503C13.0974 38.2741 13.0875 38.1973 13.0716 38.1225C12.9855 37.7052 12.91 37.2854 12.808 36.8721C12.6511 36.2357 12.5537 35.5893 12.4663 34.9416C12.4312 34.6879 12.4286 34.427 12.4352 34.17C12.4504 33.5614 12.4709 32.9521 12.5054 32.3441C12.5445 31.6487 12.708 30.9746 12.8796 30.3023C13.1306 29.3182 13.3981 28.34 13.7326 27.3804C13.9213 26.8373 14.1399 26.3062 14.4147 25.8002C14.6339 25.3956 14.8512 24.9883 15.0896 24.5949C15.3339 24.1922 15.6075 23.8094 15.934 23.467C16.0062 23.3909 16.0797 23.312 16.2009 23.3472C16.3214 23.3822 16.3519 23.4856 16.3678 23.5895C16.4009 23.8101 16.4399 24.0306 16.4512 24.2525C16.4697 24.6194 16.6247 24.9273 16.8439 25.2413C16.8472 25.1896 16.8539 25.1598 16.8512 25.1307C16.8433 25.0518 16.8333 24.9724 16.8214 24.8942C16.6956 24.0637 16.7843 23.2544 17.0757 22.469C17.2737 21.9372 17.591 21.4789 17.9572 21.0497C18.5745 20.3272 19.2659 19.6868 20.0427 19.1377C20.3215 18.9404 20.5878 18.7258 20.8686 18.5311C21.207 18.2973 21.55 18.0715 21.8971 17.8516C22.3613 17.5576 22.8282 17.2662 23.3018 16.9867C23.5905 16.8158 23.8932 16.6655 24.1919 16.5098C24.5343 16.331 24.8786 16.1568 25.2224 15.98C25.3018 15.9396 25.38 15.8966 25.4608 15.8582C26.3853 15.4151 27.3079 14.9667 28.237 14.5323C28.7225 14.3051 29.1834 14.0343 29.6523 13.7766C29.8954 13.6429 30.1384 13.5091 30.3828 13.3786C31.1073 12.9918 31.7265 12.4746 32.2862 11.8759C32.8855 11.2348 33.4491 10.5646 33.9584 9.85002C34.3419 9.31225 34.6604 8.7374 34.9081 8.12214C35.1022 7.63935 35.2843 7.15456 35.4081 6.64726C35.534 6.13267 35.5234 5.6267 35.3585 5.12403C35.3094 4.97303 35.2631 4.82137 35.2055 4.67435C35.173 4.59223 35.1273 4.51342 35.0743 4.44255C34.9439 4.2697 34.769 4.20149 34.5518 4.23791C34.3491 4.27169 34.1591 4.33858 33.9763 4.43063C33.9193 4.45845 33.8571 4.48626 33.7955 4.49222C33.6299 4.50812 33.5266 4.36904 33.6048 4.22268C33.6716 4.09817 33.7551 3.97697 33.8531 3.87432C34.4571 3.24649 35.1863 2.91535 36.0677 3.01866C36.9102 3.11668 37.6142 3.48358 38.1274 4.18095C38.334 4.46242 38.5148 4.75581 38.6354 5.0843C38.7718 5.45649 38.9122 5.8267 39.0447 6.20089C39.1566 6.51547 39.2188 6.84131 39.2314 7.17509C39.2473 7.60094 39.2698 8.02744 39.2626 8.45262C39.2566 8.76389 39.2347 9.07913 39.1718 9.38245C38.9685 10.3666 38.7486 11.3468 38.5248 12.3263C38.4023 12.8647 38.1956 13.3753 37.9632 13.874C37.5777 14.7005 37.1963 15.5283 36.7929 16.3456C36.5492 16.8383 36.283 17.3211 35.9989 17.7913C35.4545 18.69 34.9002 19.5821 34.3313 20.4656C33.9664 21.0312 33.5703 21.5776 33.1862 22.1306C32.9259 22.5047 32.659 22.8749 32.3981 23.2478C31.9868 23.8352 31.4795 24.3227 30.8802 24.7161C30.3583 25.0578 29.8404 25.4062 29.3185 25.7479C28.7211 26.14 28.1079 26.5035 27.4337 26.7519C27.4204 26.7565 27.4098 26.7665 27.3979 26.7738C27.4006 26.7817 27.4039 26.7903 27.4072 26.7976Z" fill="#6A5B92"/>
</g>
<defs>
<linearGradient id="paint0_linear_4033_14693" x1="65.995" y1="41.2289" x2="65.4101" y2="57.2836" gradientUnits="userSpaceOnUse">
<stop offset="0.0036" stop-color="white"/>
<stop offset="1" stop-color="#F4F7FA"/>
</linearGradient>
<linearGradient id="paint1_linear_4033_14693" x1="82.543" y1="29.1283" x2="61.1844" y2="59.9043" gradientUnits="userSpaceOnUse">
<stop stop-color="#FFC444"/>
<stop offset="0.9964" stop-color="#F36F56"/>
</linearGradient>
<linearGradient id="paint2_linear_4033_14693" x1="82.8576" y1="25.6344" x2="61.499" y2="56.4104" gradientUnits="userSpaceOnUse">
<stop stop-color="#FFC444"/>
<stop offset="0.9964" stop-color="#F36F56"/>
</linearGradient>
<linearGradient id="paint3_linear_4033_14693" x1="81.4723" y1="24.5855" x2="60.1137" y2="55.3615" gradientUnits="userSpaceOnUse">
<stop stop-color="#FFC444"/>
<stop offset="0.9964" stop-color="#F36F56"/>
</linearGradient>
<linearGradient id="paint4_linear_4033_14693" x1="78.6036" y1="25.6749" x2="57.245" y2="56.4509" gradientUnits="userSpaceOnUse">
<stop stop-color="#FFC444"/>
<stop offset="0.9964" stop-color="#F36F56"/>
</linearGradient>
<linearGradient id="paint5_linear_4033_14693" x1="88.0521" y1="38.142" x2="65.4224" y2="52.8052" gradientUnits="userSpaceOnUse">
<stop stop-color="#FFC444"/>
<stop offset="0.9964" stop-color="#F36F56"/>
</linearGradient>
<linearGradient id="paint6_linear_4033_14693" x1="88.3804" y1="45.9207" x2="64.5839" y2="57.6727" gradientUnits="userSpaceOnUse">
<stop offset="0.0036" stop-color="white"/>
<stop offset="1" stop-color="#F4F7FA"/>
</linearGradient>
<linearGradient id="paint7_linear_4033_14693" x1="91.5648" y1="47.7528" x2="63.2138" y2="61.3929" gradientUnits="userSpaceOnUse">
<stop offset="0.0036" stop-color="#E38DDD"/>
<stop offset="1" stop-color="#9571F6"/>
</linearGradient>
<linearGradient id="paint8_linear_4033_14693" x1="90.8592" y1="46.2841" x2="62.5082" y2="59.9242" gradientUnits="userSpaceOnUse">
<stop offset="0.0036" stop-color="#E38DDD"/>
<stop offset="1" stop-color="#9571F6"/>
</linearGradient>
<linearGradient id="paint9_linear_4033_14693" x1="90.1533" y1="44.8194" x2="61.8022" y2="58.4595" gradientUnits="userSpaceOnUse">
<stop offset="0.0036" stop-color="#E38DDD"/>
<stop offset="1" stop-color="#9571F6"/>
</linearGradient>
<linearGradient id="paint10_linear_4033_14693" x1="94.6424" y1="40.8515" x2="66.2914" y2="54.4915" gradientUnits="userSpaceOnUse">
<stop offset="0.0036" stop-color="#E38DDD"/>
<stop offset="1" stop-color="#9571F6"/>
</linearGradient>
<linearGradient id="paint11_linear_4033_14693" x1="89.7646" y1="48.7273" x2="65.9683" y2="60.4793" gradientUnits="userSpaceOnUse">
<stop offset="0.0036" stop-color="#E38DDD"/>
<stop offset="1" stop-color="#9571F6"/>
</linearGradient>
<linearGradient id="paint12_linear_4033_14693" x1="71.9175" y1="58.9537" x2="66.7753" y2="73.3494" gradientUnits="userSpaceOnUse">
<stop offset="0.0036" stop-color="white"/>
<stop offset="1" stop-color="#F4F7FA"/>
</linearGradient>
<linearGradient id="paint13_linear_4033_14693" x1="87.5198" y1="68.4492" x2="56.1056" y2="66.719" gradientUnits="userSpaceOnUse">
<stop stop-color="#FF9085"/>
<stop offset="1" stop-color="#FB6FBB"/>
</linearGradient>
<linearGradient id="paint14_linear_4033_14693" x1="89.5339" y1="66.9342" x2="58.1197" y2="65.2041" gradientUnits="userSpaceOnUse">
<stop stop-color="#FF9085"/>
<stop offset="1" stop-color="#FB6FBB"/>
</linearGradient>
<linearGradient id="paint15_linear_4033_14693" x1="90.7487" y1="65.3673" x2="59.3345" y2="63.6372" gradientUnits="userSpaceOnUse">
<stop stop-color="#FF9085"/>
<stop offset="1" stop-color="#FB6FBB"/>
</linearGradient>
<linearGradient id="paint16_linear_4033_14693" x1="92.7453" y1="63.8436" x2="61.3311" y2="62.1135" gradientUnits="userSpaceOnUse">
<stop stop-color="#FF9085"/>
<stop offset="1" stop-color="#FB6FBB"/>
</linearGradient>
<linearGradient id="paint17_linear_4033_14693" x1="92.1971" y1="59.1447" x2="71.7526" y2="67.7686" gradientUnits="userSpaceOnUse">
<stop stop-color="#FF9085"/>
<stop offset="1" stop-color="#FB6FBB"/>
</linearGradient>
<linearGradient id="paint18_linear_4033_14693" x1="50.0782" y1="58.8594" x2="52.5348" y2="61.4045" gradientUnits="userSpaceOnUse">
<stop offset="0.0036" stop-color="#E38DDD"/>
<stop offset="1" stop-color="#9571F6"/>
</linearGradient>
<linearGradient id="paint19_linear_4033_14693" x1="25.9097" y1="40.8927" x2="48.4972" y2="40.8927" gradientUnits="userSpaceOnUse">
<stop stop-color="#AA80F9"/>
<stop offset="0.9964" stop-color="#6165D7"/>
</linearGradient>
<linearGradient id="paint20_linear_4033_14693" x1="35.9375" y1="40.4841" x2="30.4115" y2="55.3169" gradientUnits="userSpaceOnUse">
<stop offset="0.0036" stop-color="#E38DDD"/>
<stop offset="1" stop-color="#9571F6"/>
</linearGradient>
<linearGradient id="paint21_linear_4033_14693" x1="19.855" y1="62.5875" x2="70.7507" y2="62.5875" gradientUnits="userSpaceOnUse">
<stop stop-color="#444B8C"/>
<stop offset="0.9964" stop-color="#26264F"/>
</linearGradient>
<linearGradient id="paint22_linear_4033_14693" x1="21.9453" y1="62.2496" x2="69.0295" y2="62.2496" gradientUnits="userSpaceOnUse">
<stop stop-color="#AA80F9"/>
<stop offset="0.9964" stop-color="#6165D7"/>
</linearGradient>
<linearGradient id="paint23_linear_4033_14693" x1="19.855" y1="82.16" x2="96.5273" y2="82.16" gradientUnits="userSpaceOnUse">
<stop stop-color="#444B8C"/>
<stop offset="0.9964" stop-color="#26264F"/>
</linearGradient>
<linearGradient id="paint24_linear_4033_14693" x1="61.1261" y1="30.5109" x2="32.4913" y2="89.7284" gradientUnits="userSpaceOnUse">
<stop stop-color="white"/>
<stop offset="0.9964" stop-color="#EBEFF2"/>
</linearGradient>
<linearGradient id="paint25_linear_4033_14693" x1="50.1051" y1="23.2947" x2="37.833" y2="56.3124" gradientUnits="userSpaceOnUse">
<stop stop-color="#FF9085"/>
<stop offset="1" stop-color="#FB6FBB"/>
</linearGradient>
<linearGradient id="paint26_linear_4033_14693" x1="36.3563" y1="48.9953" x2="39.1046" y2="56.4406" gradientUnits="userSpaceOnUse">
<stop stop-color="#FF9085"/>
<stop offset="1" stop-color="#FB6FBB"/>
</linearGradient>
<linearGradient id="paint27_linear_4033_14693" x1="35.6219" y1="49.2549" x2="38.3612" y2="56.6761" gradientUnits="userSpaceOnUse">
<stop stop-color="#FF9085"/>
<stop offset="1" stop-color="#FB6FBB"/>
</linearGradient>
<linearGradient id="paint28_linear_4033_14693" x1="36.3591" y1="53.5014" x2="39.0896" y2="60.8984" gradientUnits="userSpaceOnUse">
<stop stop-color="#FF9085"/>
<stop offset="1" stop-color="#FB6FBB"/>
</linearGradient>
<linearGradient id="paint29_linear_4033_14693" x1="35.6295" y1="53.7779" x2="38.3511" y2="61.1508" gradientUnits="userSpaceOnUse">
<stop stop-color="#FF9085"/>
<stop offset="1" stop-color="#FB6FBB"/>
</linearGradient>
<linearGradient id="paint30_linear_4033_14693" x1="70.9406" y1="82.2065" x2="74.503" y2="91.8381" gradientUnits="userSpaceOnUse">
<stop stop-color="#FFC444"/>
<stop offset="0.9964" stop-color="#F36F56"/>
</linearGradient>
<linearGradient id="paint31_linear_4033_14693" x1="84.451" y1="87.2876" x2="84.8242" y2="87.2532" gradientUnits="userSpaceOnUse">
<stop stop-color="#AA80F9"/>
<stop offset="0.9964" stop-color="#6165D7"/>
</linearGradient>
<linearGradient id="paint32_linear_4033_14693" x1="70.9297" y1="82.1764" x2="74.5008" y2="91.8314" gradientUnits="userSpaceOnUse">
<stop offset="0.0036" stop-color="#F36F56"/>
<stop offset="1" stop-color="#FFC444"/>
</linearGradient>
</defs>
</svg>
