<svg width="85" height="82" viewBox="0 0 85 82" fill="none" xmlns="http://www.w3.org/2000/svg">
<circle cx="40" cy="42" r="40" fill="#FCF0F0"/>
<path d="M50.8815 17.2088C47.1433 15.9086 46.6557 12.9531 46.6557 12.9531C46.6557 12.9531 46.1682 15.9086 42.43 17.2088C38.6919 18.509 34.6287 20.8656 38.6106 26.3104H46.6557H54.7009C58.6828 20.8657 54.6196 18.509 50.8815 17.2088Z" stroke="#D8D8EF" stroke-width="6.3526" stroke-miterlimit="10" stroke-linecap="round" stroke-linejoin="round"/>
<path d="M55.1073 29.1528H38.2043C37.4189 29.1528 36.7822 28.5161 36.7822 27.7307C36.7822 26.9453 37.4189 26.3086 38.2043 26.3086H55.1073C55.8927 26.3086 56.5294 26.9453 56.5294 27.7307C56.5294 28.5161 55.8927 29.1528 55.1073 29.1528Z" stroke="#D8D8EF" stroke-width="6.3526" stroke-miterlimit="10" stroke-linecap="round" stroke-linejoin="round"/>
<path d="M58.7479 29.1523H34.5632C33.7232 29.1523 33.0425 29.8291 33.0425 30.6635V45.4476C33.0425 46.282 33.7232 46.9587 34.5632 46.9587H60.2609C60.2609 46.9587 60.2692 46.282 60.2692 45.4476V30.6635C60.2692 29.8291 59.5879 29.1523 58.7479 29.1523ZM41.9461 44.0557H34.7361V36.4572H35.7584C35.7584 36.4572 35.0919 36.0125 35.0029 34.9909C34.914 33.9686 35.9609 32.9068 37.3581 32.2355C38.0363 31.9093 38.2642 31.4035 38.3408 31.0792C38.418 31.4035 38.6459 31.9093 39.3241 32.2355C40.7213 32.9068 41.7682 33.9687 41.6793 34.9909C41.5903 36.0125 40.9239 36.4572 40.9239 36.4572H41.9461V44.0557ZM50.2605 44.0557H43.0505V36.4572H44.0727C44.0727 36.4572 43.4063 36.0125 43.3173 34.9909C43.2284 33.9686 44.2754 32.9068 45.6725 32.2355C46.3507 31.9093 46.5786 31.4035 46.6558 31.0792C46.7324 31.4035 46.9603 31.9093 47.6385 32.2355C49.0357 32.9068 50.0826 33.9687 49.9937 34.9909C49.9054 36.0125 49.2383 36.4572 49.2383 36.4572H50.2605V44.0557ZM58.5749 44.0557H51.3655V36.4572H52.3871C52.3871 36.4572 51.7207 36.0125 51.6317 34.9909C51.5428 33.9686 52.5898 32.9068 53.9869 32.2355C54.6651 31.9093 54.8936 31.4035 54.9702 31.0792C55.0468 31.4035 55.2754 31.9093 55.9536 32.2355C57.3507 32.9068 58.3976 33.9687 58.3087 34.9909C58.2198 36.0125 57.5533 36.4572 57.5533 36.4572H58.5749V44.0557Z" stroke="#D8D8EF" stroke-width="6.3526" stroke-miterlimit="10" stroke-linecap="round" stroke-linejoin="round"/>
<path d="M46.6558 10.2148V12.9509" stroke="#D8D8EF" stroke-width="6.3526" stroke-miterlimit="10" stroke-linecap="round" stroke-linejoin="round"/>
<path d="M47.3367 9.57148C46.6525 9.57148 46.0978 9.01684 46.0978 8.33262C46.0978 7.76216 46.4835 7.28205 47.0083 7.13809C46.9532 7.13215 46.8974 7.12891 46.8408 7.12891C45.9884 7.12891 45.2974 7.81992 45.2974 8.67236C45.2974 9.52481 45.9884 10.2158 46.8408 10.2158C47.5559 10.2158 48.1572 9.72942 48.3325 9.06946C48.1068 9.374 47.7448 9.57148 47.3367 9.57148Z" stroke="#D8D8EF" stroke-width="6.3526" stroke-miterlimit="10" stroke-linecap="round" stroke-linejoin="round"/>
<path d="M65.8894 5.96246C64.1656 5.36285 63.9407 4 63.9407 4C63.9407 4 63.7159 5.36285 61.992 5.96246C60.2682 6.56207 58.3945 7.64883 60.2308 10.1596H63.9407H67.6507C69.4869 7.64883 67.6132 6.56207 65.8894 5.96246Z" stroke="#D8D8EF" stroke-width="6.3526" stroke-miterlimit="10" stroke-linecap="round" stroke-linejoin="round"/>
<path d="M67.8385 11.4679H60.0438C59.6816 11.4679 59.3879 11.1743 59.3879 10.8121C59.3879 10.4499 59.6816 10.1562 60.0438 10.1562H67.8385C68.2007 10.1562 68.4943 10.4499 68.4943 10.8121C68.4943 11.1743 68.2007 11.4679 67.8385 11.4679Z" stroke="#D8D8EF" stroke-width="6.3526" stroke-miterlimit="10" stroke-linecap="round" stroke-linejoin="round"/>
<path d="M67.8385 20.9952H60.0438C59.6816 20.9952 59.3879 20.7016 59.3879 20.3394C59.3879 19.9772 59.6816 19.6836 60.0438 19.6836H67.8385C68.2007 19.6836 68.4943 19.9772 68.4943 20.3394C68.4943 20.7016 68.2007 20.9952 67.8385 20.9952Z" stroke="#D8D8EF" stroke-width="6.3526" stroke-miterlimit="10" stroke-linecap="round" stroke-linejoin="round"/>
<path d="M66.9584 11.418H60.924C60.7142 11.418 60.5444 11.7322 60.5444 12.1194V18.9828C60.5444 19.3701 60.7142 19.6842 60.924 19.6842H66.9584C67.168 19.6842 67.338 19.3701 67.338 18.9828V12.1194C67.338 11.7322 67.168 11.418 66.9584 11.418ZM62.7661 18.3456H60.967V14.8417H61.2221C61.2221 14.8417 61.0557 14.6364 61.0336 14.1653C61.0114 13.6938 61.2726 13.2044 61.6212 12.8946C61.7905 12.7445 61.8474 12.5111 61.8664 12.3616C61.8858 12.5111 61.9425 12.7445 62.1118 12.8946C62.4604 13.2044 62.7215 13.6938 62.6994 14.1653C62.6773 14.6364 62.5109 14.8417 62.5109 14.8417H62.766L62.7661 18.3456ZM64.8407 18.3456H63.0417V14.8417H63.2967C63.2967 14.8417 63.1304 14.6364 63.1083 14.1653C63.0859 13.6938 63.3473 13.2044 63.6959 12.8946C63.8652 12.7445 63.9219 12.5111 63.9413 12.3616C63.9603 12.5111 64.0172 12.7445 64.1863 12.8946C64.535 13.2044 64.7963 13.6938 64.7742 14.1653C64.752 14.6364 64.5857 14.8417 64.5857 14.8417H64.8408L64.8407 18.3456ZM66.9152 18.3456H65.1163V14.8417H65.3713C65.3713 14.8417 65.2049 14.6364 65.1828 14.1653C65.1606 13.6938 65.4218 13.2044 65.7704 12.8946C65.9397 12.7445 65.9968 12.5111 66.0158 12.3616C66.0348 12.5111 66.0919 12.7445 66.2612 12.8946C66.6098 13.2044 66.8709 13.6938 66.8488 14.1653C66.8267 14.6364 66.6603 14.8417 66.6603 14.8417H66.9153L66.9152 18.3456Z" stroke="#D8D8EF" stroke-width="6.3526" stroke-miterlimit="10" stroke-linecap="round" stroke-linejoin="round"/>
<path d="M67.6219 20.9922H60.2612V46.9578H67.6219V20.9922Z" stroke="#D8D8EF" stroke-width="6.3526" stroke-miterlimit="10" stroke-linecap="round" stroke-linejoin="round"/>
<path d="M19.0324 12.7201C17.1861 12.7201 15.6894 11.2234 15.6894 9.3771C15.6894 7.83769 16.7303 6.54208 18.1465 6.15372C17.9979 6.13769 17.8473 6.12891 17.6945 6.12891C15.3943 6.12891 13.5295 7.99363 13.5295 10.2939C13.5295 12.5941 15.3943 14.4589 17.6945 14.4589C19.6242 14.4589 21.2468 13.1464 21.7197 11.3655C21.1106 12.1872 20.1339 12.7201 19.0324 12.7201Z" fill="white"/>
<path d="M20.2429 18.7183C19.596 18.7183 19.0715 19.2429 19.0715 19.8899C19.0715 19.2429 18.5469 18.7183 17.8999 18.7183C18.5469 18.7183 19.0715 18.1938 19.0715 17.5469C19.0715 18.1938 19.596 18.7183 20.2429 18.7183Z" fill="white"/>
<path d="M12.1715 14.9959C11.8481 14.9959 11.5858 15.2582 11.5858 15.5817C11.5858 15.2582 11.3235 14.9959 11 14.9959C11.3235 14.9959 11.5858 14.7336 11.5858 14.4102C11.5858 14.7336 11.8481 14.9959 12.1715 14.9959Z" fill="white"/>
<path d="M21.4149 6.55839C21.0915 6.55839 20.8292 6.82066 20.8292 7.14417C20.8292 6.82066 20.5669 6.55839 20.2434 6.55839C20.5669 6.55839 20.8292 6.29612 20.8292 5.97266C20.8292 6.29612 21.0915 6.55839 21.4149 6.55839Z" fill="white"/>
<path d="M66.8877 46.7375C66.8877 46.7375 66.7256 46.6915 66.1134 45.7248C65.5012 44.7582 65.3212 44.3899 64.9791 43.9527C64.637 43.5154 64.403 43.055 64.9791 43.3542C65.5553 43.6534 65.9694 43.9757 66.2574 44.3439C66.5455 44.7122 66.6356 44.5971 66.6356 44.5971C66.6356 44.5971 66.9417 44.0608 66.1855 43.2587C65.4293 42.4567 64.8891 41.6742 64.2769 41.2599C63.6647 40.8456 63.6467 40.3393 64.547 40.9607C65.4472 41.5821 66.4375 42.5027 66.4375 42.5027C66.4375 42.5027 66.7616 42.4337 66.1854 41.7202C65.6093 41.0067 65.0871 40.6845 65.2851 38.6821C65.4832 36.6798 66.1134 34.1251 66.1854 34.2632C66.2574 34.4013 66.6176 37.3472 66.5995 37.8536C66.5995 37.8536 67.2657 35.2528 67.6078 35.483C67.6078 35.483 67.6979 37.3472 67.4818 38.7052C67.2657 40.0631 66.9956 41.7432 66.9956 41.7432C66.9956 41.7432 68.346 38.3139 68.8502 38.1758C68.8502 38.1758 68.7602 38.9813 68.6881 39.7869C68.6161 40.5924 68.4541 41.0758 68.4541 41.0758C68.4541 41.0758 69.2463 40.2473 69.3363 39.7869C69.3363 39.7869 69.7504 42.1115 69.0842 43.4694C68.418 44.8273 67.9139 44.344 67.6978 45.2186C67.4818 46.0932 67.2477 46.4614 67.2477 46.4614L67.2117 46.9907H66.8854L66.8877 46.7375Z" fill="#EFEEFF" stroke="#D8D8EF" stroke-width="2.096" stroke-miterlimit="10" stroke-linecap="round" stroke-linejoin="round"/>
<path d="M68.6124 43.4665C68.3632 43.8109 68.0161 44.0173 67.7733 44.3736C67.5942 44.6617 67.4746 45.0012 67.354 45.3323C67.2536 45.6179 67.1612 45.9078 67.0754 46.2011C67.0714 46.2149 67.0653 46.2362 67.0585 46.2601C67.0763 45.8168 67.1281 45.3666 67.2162 44.9369C67.3121 44.4789 67.4598 44.0113 67.7767 43.7358C68.0598 43.4071 68.2591 42.9868 68.4514 42.5706C68.6393 42.1511 68.8084 41.7185 68.9615 41.277C68.7208 41.9312 68.4544 42.5741 68.1237 43.1613C68.0116 43.3539 67.8925 43.5426 67.7504 43.6966C67.6785 43.772 67.5947 43.8413 67.5338 43.935C67.2221 44.404 67.0791 45.18 67.0147 45.8589C66.9931 45.5781 66.9687 45.2352 66.9587 44.9947C66.9544 44.8919 66.952 44.7474 66.9508 44.5841C66.9548 44.4742 66.9622 44.3676 66.9735 44.2658C66.9789 44.2572 66.9823 44.2463 66.9815 44.2321C66.981 44.2253 66.9805 44.2185 66.9799 44.2118C67.0023 44.037 67.0371 43.8784 67.0889 43.7472C67.3907 43.0215 67.7989 42.3749 68.1598 41.6965C68.2653 41.4943 68.3816 41.296 68.4543 41.0699C68.3788 41.2941 68.26 41.4898 68.152 41.6895C67.8198 42.2865 67.461 42.8594 67.159 43.4834C67.1243 43.5526 67.0827 43.6514 67.0518 43.7234C67.0167 43.8136 66.9845 43.9109 66.9633 44.0097C66.9596 43.9687 66.9556 43.9276 66.9513 43.8865C66.9525 43.6943 66.9543 43.5162 66.9558 43.3834C66.9567 43.3806 66.9568 43.3775 66.9573 43.3744C66.9576 43.3725 66.9584 43.3712 66.9585 43.3691C66.9713 43.1861 67.0073 42.9985 67.0528 42.8225C67.1423 42.4576 67.3022 42.1442 67.4716 41.83C67.5529 41.6693 67.6254 41.5024 67.6982 41.336C67.9783 40.6639 68.2419 39.9785 68.4544 39.2669C68.4017 39.4449 68.3393 39.6179 68.2772 39.7907C68.0231 40.477 67.7565 41.1604 67.432 41.7969C67.3505 41.9529 67.256 42.104 67.181 42.2716C67.0739 42.509 66.9881 42.7627 66.9338 43.0278C66.932 43.0121 66.9304 42.9965 66.9284 42.9808C66.902 42.767 66.8632 42.5559 66.8146 42.3487C66.8154 42.3452 66.8151 42.3412 66.8152 42.3374C66.8153 42.3352 66.816 42.3335 66.8159 42.3311C66.791 42.0189 66.7633 41.7044 66.7282 41.3911C66.6761 40.6509 66.6697 39.9038 66.7537 39.17C66.7877 38.9105 66.8331 38.6514 66.9131 38.4092C66.9945 38.1666 67.0795 37.9226 67.1466 37.6714C67.2155 37.4209 67.2749 37.1661 67.3217 36.9076C67.3675 36.649 67.4039 36.3866 67.413 36.1215C67.4002 36.3862 67.36 36.6473 67.3107 36.9042C67.2359 37.2859 67.1312 37.668 67.0092 38.0295C66.9689 38.1518 66.9231 38.269 66.882 38.3923C66.7979 38.6378 66.7493 38.8993 66.7121 39.1611C66.6484 39.6703 66.628 40.1839 66.6358 40.6978C66.5514 40.1654 66.4335 39.6437 66.2563 39.1496C66.2354 39.093 66.2071 39.0099 66.191 38.9519C65.9242 37.9314 66.0061 36.5698 66.1045 35.5078C65.9933 36.5757 65.8961 37.9357 66.1536 38.969C66.1694 39.0292 66.1976 39.1149 66.2183 39.1732C66.4626 39.8794 66.5856 40.6409 66.6632 41.4076C66.6737 41.5827 66.6867 41.7577 66.7018 41.9322C66.6967 41.9155 66.6918 41.8987 66.6866 41.8821C66.5197 41.352 66.2864 40.859 66.0047 40.4173L65.9089 40.2723C65.714 39.988 65.6424 39.6052 65.6085 39.2366C65.5676 38.7363 65.5939 38.228 65.6604 37.7326C65.6221 37.9799 65.5975 38.2307 65.5835 38.4824C65.559 39.0964 65.5619 39.8023 65.8795 40.3045L65.973 40.45C66.3097 40.9966 66.5791 41.6263 66.736 42.296C66.7375 42.3113 66.739 42.3268 66.7405 42.3421C66.7409 42.3452 66.7421 42.3471 66.7428 42.3498C66.7438 42.3539 66.7446 42.3581 66.7462 42.3614C66.7475 42.3642 66.7492 42.3662 66.7508 42.3684C66.752 42.3701 66.7529 42.3724 66.7544 42.3738C66.8226 42.6839 66.8659 43.0021 66.8807 43.3243C66.8804 43.345 66.8802 43.3674 66.8799 43.3909C66.8695 43.3454 66.8571 43.3004 66.8407 43.2564C66.822 43.2089 66.7887 43.1744 66.7577 43.1427C66.6384 43.0269 66.5131 42.9329 66.3888 42.8345C66.1708 42.6644 65.8553 42.4247 65.6493 42.2404C65.2958 41.9133 64.9587 41.5549 64.6191 41.2042C64.9528 41.5662 65.2822 41.9343 65.6308 42.2734C65.8355 42.4662 66.1443 42.7137 66.3606 42.8919C66.4822 42.9932 66.607 43.0927 66.7178 43.2059C66.7424 43.233 66.768 43.259 66.7822 43.2955C66.8346 43.4712 66.859 43.6596 66.8757 43.8494C66.8729 44.2622 66.8726 44.751 66.883 44.9999C66.8877 45.1149 66.8958 45.2532 66.9052 45.3968C66.9182 45.6932 66.9412 45.9887 66.9713 46.2837C66.8845 46.0976 66.7931 45.916 66.6971 45.7377C66.3123 44.9985 65.793 44.3929 65.2433 43.8585C65.6009 44.2261 65.938 44.633 66.2408 45.0724C66.5347 45.5192 66.7807 46.0197 66.9969 46.5325C66.9973 46.5336 66.9978 46.5345 66.9982 46.5355C67.0003 46.5405 67.0459 46.9813 67.0485 46.9848C67.0487 46.985 67.0812 46.9469 67.0815 46.9471C67.105 46.9768 67.0699 46.5529 67.0698 46.5137L67.0714 46.5063L67.0753 46.4889C67.1199 46.3075 67.174 46.1177 67.2263 45.94C67.3419 45.553 67.465 45.1676 67.6156 44.8008C67.6921 44.6206 67.7707 44.439 67.8892 44.2985C68.1159 43.9992 68.4125 43.7984 68.6281 43.4842C68.8402 43.1631 68.9649 42.7693 69.0813 42.3817C68.9593 42.7639 68.8278 43.1545 68.6124 43.4665Z" fill="#D8D8EF" stroke="#D8D8EF" stroke-width="0.524" stroke-miterlimit="10"/>
<path d="M70.7761 46.7931C70.7761 46.7931 70.9381 46.7573 71.5503 46.0054C72.1625 45.2535 72.3425 44.9671 72.6846 44.6269C73.0267 44.2868 73.2608 43.9287 72.6846 44.1615C72.1085 44.3943 71.6943 44.6449 71.4063 44.9313C71.1182 45.2177 71.0281 45.1282 71.0281 45.1282C71.0281 45.1282 70.722 44.711 71.4782 44.0872C72.2344 43.4633 72.7746 42.8546 73.3868 42.5324C73.999 42.2102 74.017 41.8163 73.1167 42.2997C72.2165 42.783 71.2262 43.4991 71.2262 43.4991C71.2262 43.4991 70.9021 43.4454 71.4783 42.8904C72.0544 42.3355 72.5766 42.0848 72.3786 40.5273C72.1805 38.9699 71.5503 36.9827 71.4783 37.0901C71.4063 37.1975 71.0462 39.489 71.0642 39.8829C71.0642 39.8829 70.398 37.8599 70.0559 38.0389C70.0559 38.0389 69.9659 39.489 70.1819 40.5453C70.398 41.6015 70.6681 42.9084 70.6681 42.9084C70.6681 42.9084 69.3177 40.241 68.8135 40.1335C68.8135 40.1335 68.9035 40.7601 68.9756 41.3867C69.0476 42.0132 69.2096 42.3892 69.2096 42.3892C69.2096 42.3892 68.4174 41.7447 68.3274 41.3867C68.3274 41.3867 67.9133 43.1948 68.5795 44.251C69.2457 45.3072 69.7498 44.9313 69.9659 45.6116C70.182 46.2918 70.416 46.5783 70.416 46.5783L70.452 46.99H70.7784L70.7761 46.7931Z" fill="#EFEEFF" stroke="#D8D8EF" stroke-width="1.8486" stroke-miterlimit="10" stroke-linecap="round" stroke-linejoin="round"/>
<path d="M69.0514 44.2491C69.3006 44.517 69.6477 44.6775 69.8905 44.9547C70.0696 45.1788 70.1892 45.4428 70.3098 45.7004C70.4102 45.9226 70.5026 46.1481 70.5884 46.3762C70.5924 46.3869 70.5985 46.4035 70.6053 46.4221C70.5876 46.0773 70.5357 45.7271 70.4476 45.3929C70.3517 45.0366 70.2041 44.6729 69.8872 44.4586C69.6041 44.2029 69.4048 43.876 69.2125 43.5522C69.0246 43.2259 68.8554 42.8894 68.7024 42.5461C68.9431 43.0549 69.2095 43.555 69.5402 44.0117C69.6523 44.1615 69.7714 44.3083 69.9135 44.428C69.9854 44.4867 70.0692 44.5406 70.1301 44.6135C70.4418 44.9783 70.5847 45.5819 70.6492 46.11C70.6708 45.8916 70.6951 45.6248 70.7052 45.4378C70.7095 45.3578 70.7119 45.2454 70.7131 45.1184C70.7091 45.0329 70.7017 44.9499 70.6904 44.8708C70.6851 44.8641 70.6816 44.8556 70.6824 44.8446C70.6829 44.8393 70.6834 44.8341 70.6839 44.8288C70.6616 44.6928 70.6268 44.5695 70.575 44.4674C70.2732 43.9029 69.865 43.4 69.5041 42.8723C69.3986 42.715 69.2822 42.5607 69.2095 42.3849C69.285 42.5593 69.4038 42.7115 69.5118 42.8669C69.844 43.3313 70.2029 43.7769 70.5049 44.2623C70.5395 44.3161 70.5811 44.3929 70.612 44.4489C70.6471 44.5191 70.6793 44.5948 70.7005 44.6717C70.7043 44.6397 70.7083 44.6078 70.7125 44.5759C70.7113 44.4263 70.7095 44.2878 70.708 44.1845C70.7071 44.1824 70.707 44.1799 70.7065 44.1776C70.7063 44.1761 70.7055 44.1751 70.7053 44.1735C70.6926 44.031 70.6566 43.8851 70.611 43.7483C70.5216 43.4645 70.3616 43.2206 70.1923 42.9763C70.111 42.8512 70.0384 42.7215 69.9657 42.592C69.6856 42.0692 69.4219 41.5361 69.2095 40.9826C69.2622 41.121 69.3245 41.2556 69.3866 41.39C69.6408 41.9238 69.9074 42.4554 70.2319 42.9505C70.3134 43.0718 70.4078 43.1893 70.4829 43.3197C70.59 43.5044 70.6757 43.7017 70.7301 43.9078C70.7319 43.8957 70.7335 43.8835 70.7354 43.8713C70.7619 43.705 70.8007 43.5409 70.8493 43.3796C70.8485 43.377 70.8487 43.3738 70.8486 43.3708C70.8485 43.3691 70.8478 43.3677 70.848 43.3659C70.8729 43.123 70.9006 42.8785 70.9356 42.6348C70.9877 42.059 70.9942 41.4779 70.9102 40.9072C70.8761 40.7053 70.8307 40.5037 70.7507 40.3153C70.6694 40.1267 70.5844 39.9368 70.5172 39.7415C70.4483 39.5466 70.389 39.3485 70.3421 39.1474C70.2964 38.9462 70.2599 38.7421 70.2508 38.536C70.2637 38.7418 70.3038 38.9449 70.3532 39.1448C70.428 39.4417 70.5327 39.7389 70.6547 40.0201C70.6949 40.1152 70.7408 40.2064 70.7818 40.3022C70.8659 40.4932 70.9146 40.6966 70.9518 40.9003C71.0154 41.2963 71.0358 41.6959 71.028 42.0955C71.1125 41.6815 71.2303 41.2756 71.4076 40.8913C71.4285 40.8473 71.4567 40.7827 71.4728 40.7375C71.7396 39.9437 71.6578 38.8846 71.5593 38.0586C71.6705 38.8892 71.7677 39.9471 71.5102 40.7508C71.4945 40.7976 71.4663 40.8643 71.4456 40.9096C71.2013 41.4589 71.0783 42.0513 71.0007 42.6476C70.9901 42.7838 70.9772 42.9199 70.9621 43.0556C70.9672 43.0426 70.972 43.0296 70.9773 43.0167C71.1441 42.6044 71.3774 42.2208 71.6591 41.8772L71.755 41.7644C71.9499 41.5433 72.0215 41.2455 72.0553 40.9589C72.0962 40.5698 72.0699 40.1743 72.0034 39.789C72.0418 39.9814 72.0663 40.1764 72.0803 40.3722C72.1048 40.8498 72.1019 41.3989 71.7843 41.7895L71.6909 41.9027C71.3542 42.3279 71.0847 42.8177 70.9279 43.3385C70.9263 43.3505 70.9249 43.3625 70.9233 43.3744C70.9229 43.3768 70.9218 43.3783 70.9211 43.3804C70.9201 43.3836 70.9193 43.3868 70.9177 43.3894C70.9164 43.3916 70.9147 43.393 70.9131 43.3948C70.9118 43.3961 70.9109 43.3979 70.9095 43.399C70.8412 43.6402 70.7979 43.8877 70.7832 44.1384C70.7834 44.1544 70.7837 44.1719 70.7839 44.1902C70.7943 44.1547 70.8068 44.1198 70.8232 44.0856C70.8419 44.0486 70.8752 44.0218 70.9061 43.9971C71.0255 43.907 71.1508 43.8339 71.2751 43.7574C71.493 43.6251 71.8086 43.4386 72.0146 43.2952C72.3681 43.0408 72.7051 42.762 73.0447 42.4892C72.711 42.7709 72.3816 43.0572 72.033 43.3209C71.8283 43.4709 71.5196 43.6634 71.3032 43.802C71.1816 43.8808 71.0569 43.9582 70.9461 44.0462C70.9214 44.0673 70.8958 44.0875 70.8816 44.1159C70.8292 44.2526 70.8049 44.3991 70.7881 44.5467C70.7909 44.8678 70.7913 45.248 70.7809 45.4417C70.7761 45.5311 70.7681 45.6387 70.7586 45.7504C70.7456 45.981 70.7226 46.2109 70.6925 46.4403C70.7794 46.2956 70.8708 46.1543 70.9668 46.0156C71.3516 45.4406 71.8709 44.9695 72.4205 44.5539C72.063 44.8398 71.7258 45.1563 71.423 45.4981C71.1291 45.8457 70.8831 46.2349 70.6669 46.6338C70.6666 46.6347 70.666 46.6354 70.6656 46.6362C70.6636 46.64 70.618 46.9829 70.6154 46.9856C70.6152 46.9858 70.5826 46.9562 70.5824 46.9564C70.5589 46.9795 70.5939 46.6497 70.594 46.6192L70.5924 46.6135L70.5885 46.5999C70.5439 46.4588 70.4898 46.3112 70.4375 46.173C70.322 45.872 70.1988 45.5722 70.0482 45.2869C69.9717 45.1468 69.8931 45.0055 69.7746 44.8962C69.5479 44.6634 69.2513 44.5072 69.0357 44.2628C68.8236 44.0131 68.6989 43.7068 68.5825 43.4052C68.7045 43.7026 68.836 44.0064 69.0514 44.2491Z" fill="#D8D8EF" stroke="#D8D8EF" stroke-width="0.4621" stroke-miterlimit="10"/>
<path d="M64.5472 46.8444C64.5472 46.8444 64.6574 46.8201 65.074 46.3084C65.4907 45.7967 65.6132 45.6017 65.846 45.3703C66.0788 45.1388 66.2381 44.8951 65.846 45.0535C65.4539 45.2119 65.1721 45.3824 64.976 45.5774C64.78 45.7723 64.7187 45.7114 64.7187 45.7114C64.7187 45.7114 64.5104 45.4275 65.0251 45.0029C65.5397 44.5784 65.9073 44.1641 66.3239 43.9448C66.7405 43.7255 66.7528 43.4575 66.1401 43.7864C65.5274 44.1154 64.8536 44.6027 64.8536 44.6027C64.8536 44.6027 64.633 44.5662 65.0251 44.1885C65.4172 43.8108 65.7726 43.6403 65.6378 42.5803C65.503 41.5204 65.0741 40.168 65.0251 40.2411C64.9761 40.3142 64.7311 41.8737 64.7433 42.1417C64.7433 42.1417 64.2899 40.765 64.0571 40.8869C64.0571 40.8869 63.9959 41.8737 64.1429 42.5925C64.2899 43.3114 64.4737 44.2007 64.4737 44.2007C64.4737 44.2007 63.5547 42.3854 63.2116 42.3124C63.2116 42.3124 63.2729 42.7388 63.3219 43.1652C63.3709 43.5916 63.4812 43.8475 63.4812 43.8475C63.4812 43.8475 62.942 43.4089 62.8808 43.1652C62.8808 43.1652 62.5989 44.3957 63.0523 45.1145C63.5057 45.8334 63.8488 45.5775 63.9958 46.0405C64.1429 46.5035 64.3022 46.6984 64.3022 46.6984L64.3267 46.9786H64.5488L64.5472 46.8444Z" fill="#EFEEFF" stroke="#D8D8EF" stroke-width="1.2581" stroke-miterlimit="10" stroke-linecap="round" stroke-linejoin="round"/>
<path d="M63.3738 45.1191C63.5433 45.3014 63.7796 45.4107 63.9448 45.5993C64.0667 45.7518 64.1481 45.9315 64.2301 46.1068C64.2984 46.258 64.3613 46.4114 64.4197 46.5667C64.4224 46.574 64.4266 46.5853 64.4312 46.598C64.4191 46.3633 64.3839 46.125 64.3239 45.8975C64.2586 45.6551 64.1581 45.4076 63.9425 45.2618C63.7498 45.0877 63.6142 44.8653 63.4833 44.6449C63.3554 44.4229 63.2403 44.1939 63.1362 43.9602C63.3 44.3064 63.4813 44.6468 63.7064 44.9577C63.7826 45.0596 63.8637 45.1595 63.9604 45.241C64.0093 45.2809 64.0664 45.3176 64.1078 45.3672C64.3199 45.6155 64.4172 46.0263 64.4611 46.3857C64.4758 46.237 64.4923 46.0555 64.4992 45.9282C64.5021 45.8737 64.5038 45.7972 64.5046 45.7108C64.5018 45.6526 64.4968 45.5962 64.4891 45.5423C64.4855 45.5378 64.4831 45.532 64.4837 45.5245C64.484 45.5209 64.4844 45.5173 64.4847 45.5138C64.4696 45.4212 64.4459 45.3372 64.4106 45.2678C64.2052 44.8836 63.9274 44.5414 63.6818 44.1823C63.61 44.0752 63.5308 43.9702 63.4813 43.8505C63.5327 43.9692 63.6136 44.0728 63.687 44.1786C63.9131 44.4946 64.1574 44.7979 64.3629 45.1281C64.3864 45.1648 64.4147 45.217 64.4358 45.2552C64.4597 45.303 64.4816 45.3545 64.496 45.4068C64.4986 45.385 64.5013 45.3633 64.5042 45.3416C64.5034 45.2398 64.5021 45.1456 64.5011 45.0753C64.5005 45.0738 64.5004 45.0721 64.5001 45.0705C64.4999 45.0695 64.4993 45.0688 64.4993 45.0677C64.4906 44.9709 64.4661 44.8715 64.4351 44.7784C64.3743 44.5852 64.2654 44.4193 64.1501 44.253C64.0948 44.1679 64.0454 44.0796 63.9959 43.9914C63.8054 43.6357 63.6259 43.2728 63.4813 42.8962C63.5172 42.9904 63.5596 43.082 63.6019 43.1735C63.7749 43.5367 63.9563 43.8985 64.1771 44.2355C64.2326 44.318 64.2968 44.398 64.3479 44.4867C64.4208 44.6123 64.4791 44.7467 64.5161 44.887C64.5173 44.8787 64.5185 44.8704 64.5198 44.8621C64.5377 44.749 64.5642 44.6373 64.5973 44.5275C64.5967 44.5257 64.5969 44.5236 64.5969 44.5215C64.5968 44.5204 64.5963 44.5194 64.5964 44.5182C64.6134 44.3529 64.6322 44.1864 64.6561 44.0206C64.6915 43.6288 64.6959 43.2333 64.6387 42.8449C64.6156 42.7075 64.5847 42.5703 64.5303 42.4421C64.4749 42.3137 64.417 42.1845 64.3713 42.0516C64.3244 41.919 64.2841 41.7841 64.2522 41.6473C64.221 41.5104 64.1962 41.3714 64.19 41.2312C64.1988 41.3713 64.2261 41.5095 64.2597 41.6455C64.3106 41.8476 64.3818 42.0498 64.4648 42.2412C64.4922 42.3058 64.5234 42.3679 64.5514 42.4332C64.6086 42.5632 64.6417 42.7016 64.667 42.8402C64.7104 43.1097 64.7242 43.3816 64.7189 43.6536C64.7764 43.3718 64.8566 43.0956 64.9772 42.8341C64.9915 42.8042 65.0107 42.7601 65.0216 42.7294C65.2032 42.1892 65.1474 41.4684 65.0805 40.9062C65.1561 41.4715 65.2223 42.1914 65.0471 42.7384C65.0363 42.7703 65.0172 42.8157 65.0031 42.8466C64.8368 43.2203 64.7531 43.6235 64.7003 44.0293C64.6931 44.122 64.6843 44.2146 64.674 44.307C64.6775 44.2982 64.6808 44.2893 64.6844 44.2805C64.7979 43.9999 64.9567 43.7389 65.1484 43.5051L65.2136 43.4283C65.3463 43.2778 65.395 43.0752 65.418 42.88C65.4458 42.6152 65.428 42.3461 65.3827 42.0839C65.4088 42.2148 65.4255 42.3475 65.435 42.4808C65.4517 42.8058 65.4497 43.1795 65.2336 43.4453L65.17 43.5223C64.9409 43.8117 64.7575 44.145 64.6507 44.4995C64.6497 44.5076 64.6487 44.5158 64.6476 44.5239C64.6473 44.5255 64.6466 44.5266 64.6461 44.528C64.6455 44.5301 64.6449 44.5324 64.6438 44.5341C64.6429 44.5356 64.6418 44.5367 64.6407 44.5378C64.6398 44.5387 64.6392 44.54 64.6382 44.5407C64.5918 44.7048 64.5623 44.8733 64.5523 45.0438C64.5524 45.0548 64.5526 45.0666 64.5528 45.0791C64.5599 45.055 64.5683 45.0312 64.5795 45.0079C64.5922 44.9827 64.6149 44.9645 64.6359 44.9476C64.7172 44.8863 64.8024 44.8366 64.887 44.7845C65.0353 44.6945 65.2501 44.5675 65.3902 44.47C65.6308 44.2969 65.8602 44.1071 66.0913 43.9215C65.8642 44.1131 65.64 44.3079 65.4028 44.4875C65.2635 44.5895 65.0533 44.7206 64.9061 44.8149C64.8234 44.8685 64.7385 44.9212 64.663 44.9811C64.6462 44.9955 64.6288 45.0092 64.6192 45.0286C64.5835 45.1216 64.5669 45.2213 64.5555 45.3218C64.5574 45.5403 64.5577 45.7991 64.5506 45.9308C64.5473 45.9917 64.5418 46.0649 64.5354 46.1409C64.5266 46.2979 64.5109 46.4543 64.4904 46.6104C64.5495 46.5119 64.6117 46.4158 64.6771 46.3214C64.9389 45.9301 65.2924 45.6095 65.6664 45.3266C65.423 45.5211 65.1936 45.7366 64.9876 45.9692C64.7875 46.2057 64.6201 46.4706 64.473 46.7421C64.4728 46.7427 64.4724 46.7431 64.4721 46.7437C64.4707 46.7463 64.4397 46.9797 64.4379 46.9815C64.4377 46.9816 64.4156 46.9614 64.4154 46.9616C64.3994 46.9773 64.4232 46.7529 64.4233 46.7321L64.4223 46.7282L64.4196 46.719C64.3893 46.623 64.3525 46.5225 64.3169 46.4284C64.2382 46.2236 64.1544 46.0196 64.052 45.8254C63.9999 45.73 63.9464 45.6339 63.8657 45.5595C63.7115 45.4011 63.5096 45.2948 63.3628 45.1284C63.2185 44.9585 63.1336 44.75 63.0544 44.5448C63.1377 44.7472 63.2272 44.954 63.3738 45.1191Z" fill="#D8D8EF" stroke="#D8D8EF" stroke-width="0.3145" stroke-miterlimit="10"/>
<path d="M16.5002 58.2852L10.314 64.714H83.214L76.9065 58.2852H16.5002Z" fill="#8E83E3"/>
<path d="M80.858 63.7241L76.4913 59.2734H16.921L12.6382 63.7241H80.858Z" stroke="#7F3F98" stroke-width="6.3913" stroke-miterlimit="10" stroke-linecap="round" stroke-linejoin="round"/>
<path d="M19.7112 40.8226C20.5912 39.2468 20.673 37.2004 20.3866 36.6274C20.1 36.0544 19.9364 36.4228 18.9745 37.1799C18.0127 37.9371 16.396 40.4338 16.2733 41.9276C16.1505 43.4215 17.0099 46.9823 17.0099 46.9823C17.0099 46.9823 16.2323 43.7694 15.0454 42.1323C13.8584 40.4951 11.0753 39.431 10.1339 39.3286C9.19258 39.2263 9.17211 39.6765 10.0111 41.3341C10.8501 42.9917 13.5514 44.0763 15.0454 45.3247C16.5251 46.5612 16.9604 47.8374 17.1873 48.8515L17.5379 53.0928C17.6141 54.4886 17.6648 55.6797 17.6648 55.6797C17.6648 55.6797 16.969 54.4313 16.2937 53.224C15.6184 52.0166 14.37 51.7914 14.2268 52.7328C14.0836 53.6742 15.5979 54.3086 16.6212 55.3523C17.6444 56.3959 17.5421 57.8899 17.5421 57.8899L17.4909 58.2889H18.2349L18.1245 56.6032C18.0294 55.8103 17.9308 54.9126 17.9308 54.5951C17.9308 54.4315 17.8901 53.86 17.8346 53.0739L17.6021 49.3663C17.5287 47.8735 17.4953 46.4499 17.5829 45.6931C17.808 43.749 18.8313 42.3983 19.7112 40.8226Z" fill="#FC6800"/>
<path d="M17.3618 48.5503C16.9677 46.556 16.1723 44.3873 14.6128 43.0132C13.3441 42.0398 11.9353 41.0582 10.6238 40.1484C11.4019 40.6686 12.1702 41.2034 12.9358 41.742C13.3434 42.0396 14.2681 42.667 14.6442 42.976C15.5468 43.7365 16.1718 44.7732 16.6397 45.8436C16.8265 46.2745 16.9876 46.7163 17.1269 47.1648C17.2649 47.614 17.3847 48.0674 17.4714 48.5322C17.4825 48.6015 17.3766 48.6279 17.3618 48.5503Z" fill="#924413"/>
<path d="M17.3615 48.5473C17.2712 47.5706 17.2083 46.5926 17.1919 45.6121C17.1891 44.8777 17.1783 44.1321 17.3408 43.4106C17.4016 43.1756 17.507 42.9426 17.5986 42.719C18.2578 41.2032 19.034 39.742 19.6337 38.2011C19.7383 37.919 19.842 37.6196 19.8997 37.3242C19.8448 37.6201 19.7439 37.9206 19.6419 38.2041C19.0004 39.9241 18.1055 41.539 17.4516 43.2521C17.2314 44.0133 17.2713 44.8244 17.2753 45.6104C17.3008 46.5875 17.3729 47.5645 17.4722 48.5365C17.4753 48.567 17.453 48.5943 17.4225 48.5974C17.3918 48.6006 17.3643 48.578 17.3615 48.5473Z" fill="#924413"/>
<path d="M17.9065 58.0545C17.8724 57.548 17.8097 57.0378 17.6862 56.5453C17.6218 56.3041 17.5464 56.0557 17.4067 55.8482C17.2515 55.6565 17.0715 55.4572 16.9223 55.2547C16.3005 54.4393 15.7106 53.6014 15.1228 52.7617C15.4237 53.1764 15.7273 53.589 16.0337 53.9995C16.4184 54.5108 16.8003 55.0249 17.2122 55.5141C17.2922 55.6153 17.3848 55.6957 17.4664 55.8061C17.6171 56.0224 17.6977 56.2735 17.7691 56.5233C17.9029 57.0231 17.9742 57.5334 18.0174 58.0478C18.0222 58.1207 17.9113 58.1305 17.9065 58.0545Z" fill="#924413"/>
<path d="M17.9013 57.5089C17.9004 57.5089 17.8994 57.5089 17.8984 57.5089C17.8678 57.5074 17.8441 57.4812 17.8457 57.4506C17.8465 57.4341 17.9285 55.7962 17.8459 55.0696C17.7999 54.663 17.6706 52.8213 17.5566 51.1965C17.4655 49.8969 17.3793 48.6694 17.3617 48.5563C17.3571 48.526 17.3778 48.4976 17.4082 48.4929C17.4379 48.488 17.4669 48.5089 17.4716 48.5393C17.4899 48.657 17.5722 49.8303 17.6675 51.1887C17.7815 52.8125 17.9106 54.653 17.9564 55.0571C18.0399 55.7927 17.9575 57.4397 17.9567 57.4563C17.9553 57.4859 17.9307 57.5089 17.9013 57.5089Z" fill="#924413"/>
<path d="M24.5194 52.993C24.5194 52.993 24.1715 53.4637 23.0459 53.7707C21.9204 54.0776 21.0609 55.8375 21.0609 55.8375L19.5465 57.1678C19.6284 56.3287 20.3242 54.2209 20.9381 53.0544C21.5521 51.888 23.005 52.3382 23.578 51.7038C24.151 51.0694 24.4375 51.4173 24.4989 51.1308C24.5603 50.8443 24.417 50.435 23.046 50.6396C21.6749 50.8443 20.3242 53.3614 20.5493 52.8088C20.7744 52.2563 21.8386 49.5141 23.2915 48.2862C24.7445 47.0583 24.8468 45.7282 24.8468 45.7282C24.8468 45.7282 24.8468 45.8919 23.7418 46.4444C22.6367 46.997 21.6953 48.9001 21.6953 48.9001C22.6162 45.81 21.7363 43.9682 21.4907 43.9477C21.2451 43.9273 21.0405 44.0501 20.7744 44.9096C20.5084 45.769 20.713 50.1689 20.7744 50.4145C20.8358 50.6601 19.3624 55.4897 19.3624 55.4897C19.3624 55.4897 19.0964 52.3382 18.994 50.5987C18.8917 48.8592 19.6489 46.0556 20.2219 44.6231C20.7949 43.1906 22.5344 42.5153 22.8004 41.4102C23.0664 40.3051 22.7185 39.8549 21.7772 40.346C20.8358 40.8372 18.1345 45.0528 18.0936 47.164C18.0527 49.2753 18.8216 53.0702 18.8216 53.0702C18.8216 53.0702 18.8918 53.3409 18.5234 51.9903C18.3598 51.3906 18.0948 50.7093 17.7187 50.0409L17.36 49.461C16.9355 48.834 16.4062 48.2438 15.7607 47.7746C14.2463 46.6742 11.4017 47.1641 11.4017 47.1641C11.4017 47.1641 11.2176 47.5086 11.9133 48.6955C12.6091 49.8825 14.0825 49.9643 15.9857 50.9466C16.6582 51.2937 17.1721 51.7226 17.5654 52.1546L17.8776 52.5289C18.3774 53.187 18.6091 53.7992 18.687 54.0776C18.8303 54.5893 18.9735 57.9864 18.9735 57.9864H18.9019V58.2831H19.6284V57.9045C19.7716 57.2496 20.7949 56.4106 20.7949 56.4106C20.7949 56.4106 21.0199 56.3287 21.6543 56.206C22.2887 56.0832 23.7212 55.7762 24.458 54.5484C25.1947 53.3204 24.5194 52.993 24.5194 52.993Z" fill="#FC6800"/>
<path d="M19.1858 58.181C19.1311 57.0802 19.0718 55.9746 18.9305 54.8815C18.7744 53.7979 18.4859 52.7038 17.8357 51.8046C17.3673 51.1263 16.7354 50.5641 16.0761 50.0746C14.9726 49.2459 13.8152 48.4845 12.5916 47.8438C13.8206 48.4742 14.9858 49.2268 16.0969 50.0467C16.7646 50.534 17.4026 51.0924 17.881 51.7724C18.8786 53.1388 19.0535 54.8834 19.1865 56.5206C19.2306 57.0719 19.2671 57.6233 19.2968 58.1758C19.2985 58.2064 19.275 58.2326 19.2443 58.2343C19.2134 58.236 19.187 58.2119 19.1858 58.181Z" fill="#924413"/>
<path d="M18.9775 55.3608L19.039 53.9695C18.9752 53.3378 18.586 50.2136 18.5649 49.614C18.518 48.2189 18.5278 46.5774 19.0843 45.2808C19.345 44.7556 19.6927 44.2795 20.0146 43.7911C20.6755 42.8253 21.3678 41.8816 22.0744 40.9492C21.2019 42.1223 20.3423 43.3068 19.5559 44.5395C19.4025 44.7868 19.2388 45.0312 19.1188 45.2965C18.8813 45.8295 18.7729 46.411 18.6995 46.9873C18.5707 48.1461 18.5717 49.3219 18.7169 50.4796C18.719 50.4818 19.1399 53.9702 19.1401 53.9735L19.0887 55.3652C19.0875 55.3959 19.0617 55.4198 19.031 55.4187C19.0002 55.4176 18.9762 55.3916 18.9775 55.3608Z" fill="#924413"/>
<path d="M21.22 50.1021C21.1888 49.2013 21.1693 48.3009 21.167 47.4C21.1725 46.6127 21.1627 45.8208 21.262 45.0384C21.2796 44.9275 21.2963 44.8146 21.3415 44.7109C21.2984 44.8154 21.2841 44.9284 21.2689 45.0393C21.1859 45.8226 21.2119 46.6131 21.2226 47.3994C21.2434 48.299 21.2814 49.1986 21.331 50.0968C21.3348 50.1676 21.2241 50.1785 21.22 50.1021Z" fill="#924413"/>
<path d="M19.209 57.6291C19.2048 57.6291 19.2006 57.6286 19.1964 57.6277C19.1665 57.6207 19.1478 57.5908 19.1548 57.5609L19.8455 54.5897L21.2223 50.0824C21.2312 50.053 21.262 50.0362 21.2917 50.0455C21.321 50.0545 21.3376 50.0856 21.3286 50.1149L19.9529 54.6185L19.2631 57.586C19.2572 57.6118 19.2343 57.6291 19.209 57.6291Z" fill="#924413"/>
<path d="M21.2274 50.0776C21.6864 49.3449 22.178 48.6308 22.7538 47.9846C23.2131 47.4949 23.7422 47.0762 24.1808 46.5664C23.8135 47.0083 23.387 47.3986 22.983 47.8055C22.5888 48.2219 22.2535 48.6895 21.9325 49.1638C21.7199 49.4811 21.5158 49.8055 21.3231 50.1342C21.2863 50.1973 21.1888 50.1428 21.2274 50.0776Z" fill="#924413"/>
<path d="M19.9359 54.3556C20.3065 53.6286 20.6809 52.8862 21.2292 52.2746C21.653 51.871 22.1746 51.5794 22.6986 51.3277C22.9113 51.2317 23.1297 51.1466 23.3562 51.0893C23.5819 51.0323 23.8169 50.9985 24.0491 51.0245C23.8164 51.0032 23.5832 51.0416 23.3598 51.1027C22.6909 51.2988 22.0812 51.6676 21.5299 52.087C21.1584 52.3686 20.9177 52.7757 20.6794 53.1684C20.4444 53.5681 20.2325 53.9831 20.0366 54.4026C20.0067 54.4687 19.9036 54.4245 19.9359 54.3556Z" fill="#924413"/>
<path d="M19.1982 57.8449C19.7451 57.19 20.2885 56.4935 21.0505 56.0758C21.1741 56.0091 21.3216 55.9654 21.4496 55.9172C21.5784 55.8614 21.7056 55.7987 21.8295 55.7299C22.5706 55.3148 23.2806 54.8244 23.8925 54.2321C24.0931 54.0316 24.2861 53.8196 24.4319 53.5742C24.2901 53.8219 24.1002 54.0377 23.9023 54.2419C23.2973 54.8466 22.5952 55.3487 21.8564 55.7784C21.6732 55.884 21.4737 55.9848 21.2727 56.0494C21.216 56.0704 21.1375 56.1091 21.0831 56.1371C20.8371 56.2714 20.616 56.4506 20.4075 56.6405C20.1979 56.8312 20.0046 57.0351 19.8236 57.2544C19.6409 57.4716 19.4618 57.6926 19.2847 57.9147C19.2403 57.9704 19.151 57.9042 19.1982 57.8449Z" fill="#924413"/>
<path d="M51.6777 35.1475C51.6777 35.1475 49.8783 38.9282 47.372 41.0912C44.865 43.2543 42.9648 44.043 42.9648 44.043L42.6815 48.0252C42.6815 48.0252 42.3178 48.7934 39.7099 49.0965C37.1021 49.4003 27.7313 47.3986 27.7313 47.3986L26.8521 47.1561C26.8521 47.1561 28.9277 31.1219 33.8473 23.8203H33.8479C35.9408 24.0896 39.3309 27.2327 39.3309 27.2327L39.5887 26.49C39.5887 26.49 42.9546 32.6915 42.894 36.1786C42.894 36.1786 42.9444 36.7044 43.0656 36.7847C43.1868 36.8658 46.9674 34.2178 48.3221 32.3776C48.3221 32.3776 48.8452 32.5064 49.4929 32.8472C49.5261 32.8644 49.5599 32.8829 49.5938 32.9014C49.6505 32.9326 49.708 32.9652 49.766 32.9997C49.789 33.0131 49.8126 33.0271 49.8362 33.0418C49.8834 33.0712 49.9313 33.1012 49.9798 33.1331C50.0021 33.1477 50.025 33.1624 50.0481 33.1784C50.1221 33.2281 50.1967 33.2811 50.2707 33.3373C50.2988 33.3583 50.3269 33.3794 50.3544 33.4011C50.3556 33.4024 50.3569 33.4036 50.3581 33.4043C50.39 33.4298 50.4226 33.4553 50.4545 33.4821C50.4602 33.4866 50.466 33.4917 50.4717 33.4962C50.5049 33.5242 50.538 33.5523 50.5706 33.5817C50.6044 33.611 50.6376 33.641 50.6708 33.6723C50.7033 33.7029 50.7359 33.7348 50.7684 33.7674C50.7748 33.7731 50.7806 33.7788 50.7863 33.7852C50.8169 33.8159 50.8475 33.8471 50.8775 33.879C50.8782 33.8803 50.8801 33.8816 50.8814 33.8835C50.9146 33.9192 50.9477 33.9555 50.9797 33.9926C51.0122 34.0302 51.0441 34.0679 51.076 34.1068C51.1054 34.1432 51.1348 34.1808 51.1634 34.2191C51.1654 34.221 51.1666 34.2236 51.1685 34.2255C51.3714 34.4961 51.5475 34.8024 51.6777 35.1475Z" fill="#FFB217"/>
<path d="M40.3948 9.35947C40.3892 9.34959 40.3849 9.34151 40.3818 9.33594C40.3849 9.34155 40.3892 9.34896 40.3948 9.35947Z" fill="#FEBB76"/>
<path d="M41.778 11.8648C41.7689 11.8491 41.7597 11.8328 41.7512 11.8164C41.7591 11.8315 41.7676 11.8472 41.7767 11.8616C41.7774 11.8629 41.7774 11.8635 41.778 11.8648Z" fill="#FEBB76"/>
<path d="M42.0601 12.3637C42.0568 12.357 42.0528 12.3511 42.0488 12.3438C42.0522 12.3497 42.0555 12.3551 42.0588 12.3604C42.0588 12.3617 42.0595 12.3624 42.0601 12.3637Z" fill="#FEBB76"/>
<path d="M42.1132 12.4457C42.1113 12.4419 42.1087 12.4381 42.1062 12.4336C42.1075 12.4361 42.1094 12.4387 42.1106 12.4406C42.1119 12.4425 42.1125 12.4444 42.1132 12.4457Z" fill="#FEBB76"/>
<path d="M43.97 18.0328C43.6363 18.23 43.6363 18.23 43.6363 18.23C43.6363 18.23 43.822 18.4731 43.7747 18.7762C43.7275 19.0793 43.3938 19.0945 43.4391 19.2311C43.4845 19.367 43.7314 19.3064 43.7747 19.4583C43.8181 19.6101 43.8788 19.9586 43.6363 20.201C43.6363 20.201 44.0153 20.8078 43.8641 21.5205C43.8513 21.5799 43.8353 21.6366 43.815 21.6896C43.8111 21.7017 43.806 21.7132 43.8009 21.7247C43.7958 21.7375 43.7901 21.7496 43.7844 21.7617C43.762 21.8076 43.7365 21.851 43.7065 21.8906C43.6995 21.9001 43.6925 21.9091 43.6848 21.918C43.6702 21.9359 43.6542 21.9531 43.6376 21.9697C43.6127 21.9939 43.5853 22.0169 43.5559 22.038C43.5362 22.0514 43.5151 22.0648 43.4934 22.0769C43.4825 22.0833 43.471 22.089 43.4596 22.0948C43.4481 22.1005 43.4366 22.1063 43.4245 22.1114C43.4008 22.1216 43.3753 22.1318 43.3491 22.1401C43.3383 22.1439 43.3275 22.1471 43.3166 22.1502C43.3121 22.1515 43.3077 22.1528 43.3032 22.1541C43.2911 22.1579 43.2789 22.1611 43.2668 22.1637C43.2247 22.1745 43.1794 22.1828 43.1315 22.1879C43.115 22.1905 43.0977 22.1924 43.0799 22.1937C43.0627 22.1956 43.0454 22.1969 43.0282 22.1975C43.0148 22.1982 43.0008 22.1988 42.9861 22.1994C42.9676 22.2001 42.9484 22.2007 42.9293 22.2007C42.8776 22.2007 42.8227 22.1994 42.7653 22.1956C42.7385 22.1937 42.711 22.1912 42.683 22.1886C42.5713 22.1783 42.4488 22.1605 42.3161 22.1337C42.2829 22.1273 42.2491 22.1203 42.2147 22.1126C42.1802 22.105 42.1451 22.0973 42.1094 22.0884C41.9154 22.0425 41.7016 21.9818 41.4655 21.9046C41.4323 21.8938 41.3979 21.8829 41.3635 21.8708C41.3265 21.8587 41.2888 21.8459 41.2505 21.8326C41.2403 21.8287 41.2308 21.8255 41.2205 21.8217C41.1529 21.7988 41.084 21.7733 41.0132 21.7477C41.0132 21.7477 40.3157 23.3097 40.1492 23.9765C39.982 24.644 39.5577 26.2359 39.5883 26.4937L39.3306 27.2365C39.3306 27.2365 35.9404 24.0933 33.8475 23.824C33.8967 23.75 33.9471 23.6766 33.9975 23.6045C34.0224 23.5688 34.0479 23.5325 34.0728 23.4974C34.1073 23.4495 34.1411 23.4023 34.1756 23.3557C34.2177 23.2976 34.2604 23.2396 34.3038 23.1828C34.344 23.1292 34.3849 23.0762 34.4263 23.0232C34.515 22.9084 34.605 22.7974 34.6963 22.6889C34.7371 22.6398 34.7786 22.5919 34.8194 22.544C34.866 22.4898 34.9125 22.4375 34.9598 22.3858C35.0063 22.3341 35.0529 22.2831 35.1001 22.2333L35.1607 21.4899C35.1607 21.4899 35.1614 21.4803 35.1614 21.4619V21.4529C35.162 21.4453 35.162 21.437 35.162 21.428V21.4083C35.1633 21.3387 35.164 21.2283 35.162 21.0937C35.162 21.063 35.1614 21.0305 35.1607 20.9973C35.1588 20.8978 35.1556 20.7893 35.1505 20.6751C35.1499 20.6611 35.1493 20.6471 35.1486 20.633C35.1467 20.5928 35.1442 20.5513 35.1416 20.5098C35.1397 20.4811 35.1378 20.4524 35.1359 20.4237C35.1187 20.1812 35.0905 19.933 35.0465 19.7205C35.0402 19.6893 35.0331 19.6586 35.0261 19.6293C35.0248 19.6236 35.0229 19.6172 35.0217 19.6114C35.0076 19.5553 34.9917 19.5017 34.9744 19.4532C34.9572 19.4047 34.9387 19.3607 34.9183 19.3218C34.6299 18.7762 33.7206 18.3818 33.7353 17.4419C33.7353 17.4419 38.9057 13.7826 42.1279 12.4688L42.1451 12.5791L42.1809 12.8018C42.1809 12.8018 42.1943 12.8414 42.2172 12.9071C42.3321 13.2325 42.6811 14.2139 42.782 14.3485C42.9038 14.5106 42.782 14.9145 42.782 14.9145C42.782 14.9145 43.1814 16.0011 43.697 16.6685C44.2125 17.3354 44.3037 17.8356 43.97 18.0328Z" fill="#FEBB76"/>
<path d="M50.7684 33.7716C50.7039 33.7065 50.6376 33.6453 50.5706 33.5859C50.6375 33.6446 50.7039 33.7065 50.7684 33.7716Z" fill="#FEBB76"/>
<path d="M29.5812 61.2891C29.5831 61.3586 29.5806 61.4294 29.5748 61.5016C29.562 61.4142 29.562 61.3395 29.5812 61.2891Z" fill="#FEBB76"/>
<path d="M29.5811 61.2907C29.5811 61.2907 27.7013 61.2505 26.0027 61.5944C24.3048 61.9377 22.1819 61.796 20.9491 62.1603C19.7158 62.524 18.6036 62.9892 17.9572 62.9892C17.3102 62.9892 17.5731 61.6141 17.9572 61.3717C18.3413 61.1292 18.9271 61.4323 19.3923 60.8663C19.8574 60.3004 19.8779 59.4715 21.5356 58.9661C23.1933 58.4607 25.0527 57.935 25.8816 56.6212C25.8816 56.6212 26.8725 55.6098 27.2968 55.3878C27.7217 55.1651 28.9245 55.2161 29.2072 55.4178C29.4905 55.62 30.1675 57.2171 30.5517 57.4194C30.5516 57.4195 29.5408 59.2591 29.5811 61.2907Z" fill="#FEBB76"/>
<path d="M42.9643 44.0467C42.9643 44.0467 42.0141 44.7239 40.5586 44.0467C39.103 43.3694 32.9775 34.7572 32.5833 32.1797" stroke="#C65000" stroke-width="2.6974" stroke-miterlimit="10" stroke-linecap="round" stroke-linejoin="round"/>
<path d="M37.7737 27.8672C37.7737 27.8672 38.6783 28.2311 39.0422 29.626C39.4061 31.0209 42.1758 36.2064 43.0653 36.7825" stroke="#C65000" stroke-width="2.6974" stroke-miterlimit="10" stroke-linecap="round" stroke-linejoin="round"/>
<path d="M55.6 60.4381C54.6594 62.8941 50.3537 62.4698 49.3226 62.4698C48.2914 62.4698 29.9045 62.4698 29.9045 62.4698C29.9045 62.4698 29.9032 62.4672 29.9013 62.4628C29.8924 62.4424 29.8631 62.3779 29.826 62.2886C29.8216 62.2778 29.8164 62.2669 29.812 62.2548C29.7954 62.2146 29.7776 62.1699 29.7597 62.1234C29.7514 62.1023 29.7437 62.0812 29.7354 62.0596C29.7048 61.9785 29.6748 61.8924 29.6487 61.8069C29.6448 61.7934 29.6404 61.7801 29.6365 61.7667C29.6289 61.7399 29.6213 61.7131 29.6142 61.6863C29.6072 61.6601 29.6008 61.634 29.595 61.6091C29.5925 61.5963 29.59 61.5835 29.5874 61.5714C29.5823 61.5465 29.5778 61.5223 29.5746 61.4993C29.5804 61.4273 29.5829 61.3564 29.581 61.2868C29.5408 59.2552 30.5515 57.4156 30.5515 57.4156C30.1674 57.2134 29.4904 55.6162 29.2071 55.414C28.9244 55.2124 27.7216 55.1613 27.2966 55.384C26.8723 55.606 25.8814 56.6174 25.8814 56.6174C25.8814 56.6174 24.729 50.7643 27.7312 47.3984C27.7312 47.3984 37.102 49.4001 39.7098 49.0964C42.3177 48.7933 42.6814 48.0251 42.6814 48.0251C42.6814 48.0251 52.7796 53.2509 54.0832 53.9483C55.3875 54.6457 56.5398 57.9815 55.6 60.4381Z" fill="#2D67BA"/>
<path d="M42.1282 12.4707C38.9059 13.7844 33.7355 17.4439 33.7355 17.4439C33.7355 17.4439 33.7349 17.4426 33.7336 17.4394V17.4388C33.7317 17.4362 33.7304 17.4324 33.7279 17.4273C33.7279 17.4266 33.7272 17.426 33.7272 17.4247C33.7272 17.4247 33.7266 17.4241 33.7266 17.4234C33.7234 17.4183 33.7208 17.4113 33.717 17.403C33.7164 17.4024 33.7164 17.4017 33.7164 17.4011C33.7158 17.4005 33.7158 17.3998 33.7145 17.3986C33.7113 17.3909 33.7081 17.3833 33.7042 17.3743C33.703 17.3711 33.701 17.3679 33.6998 17.3647C33.6972 17.359 33.6947 17.3533 33.6915 17.3469C33.6864 17.3347 33.68 17.3214 33.6736 17.3067C33.6698 17.2996 33.6666 17.292 33.6634 17.2844C33.6627 17.2825 33.6621 17.2812 33.6614 17.2799C33.6589 17.2755 33.657 17.271 33.6551 17.2659C33.6455 17.2448 33.6353 17.2219 33.6245 17.1976C33.6245 17.197 33.6238 17.1963 33.6238 17.1957C33.6123 17.1702 33.6008 17.1441 33.5881 17.1153C33.5855 17.1089 33.5823 17.1025 33.5798 17.0962C33.5798 17.0955 33.5791 17.0949 33.5785 17.0936C33.5683 17.0707 33.5581 17.0471 33.5472 17.0228C33.5414 17.0094 33.5357 16.9953 33.5293 16.9813C33.5236 16.9685 33.5178 16.9552 33.5121 16.9411C33.5114 16.9398 33.5108 16.9392 33.5108 16.9386C33.5101 16.9386 33.5101 16.9379 33.5101 16.9379C33.5012 16.9175 33.4923 16.8958 33.4827 16.8741C33.4738 16.8537 33.4648 16.8327 33.4559 16.8116C33.4355 16.7644 33.4151 16.7159 33.3933 16.6655C33.3933 16.6648 33.3933 16.6648 33.3933 16.6648C33.3659 16.6004 33.3372 16.5328 33.3085 16.4626C33.3085 16.4619 33.3078 16.4613 33.3078 16.4607C33.2855 16.4077 33.2632 16.3535 33.2408 16.2986C33.223 16.2546 33.2051 16.2092 33.1866 16.164C33.1017 15.9547 33.0156 15.7326 32.9339 15.5099C32.9231 15.4812 32.9122 15.4519 32.902 15.4231C32.9014 15.4218 32.9014 15.4206 32.9007 15.4193C32.879 15.3587 32.8573 15.2987 32.8363 15.2387C32.8152 15.1787 32.7948 15.1188 32.775 15.0594C32.7654 15.0307 32.7558 15.002 32.7463 14.9733C32.7457 14.9726 32.7457 14.972 32.7457 14.9707C32.7361 14.9414 32.7265 14.912 32.717 14.8827C32.6895 14.7959 32.6633 14.7098 32.6391 14.6262C32.6308 14.5987 32.6232 14.5713 32.6155 14.5438C32.5925 14.4615 32.5721 14.3824 32.5543 14.3058C32.5523 14.2975 32.5504 14.2899 32.5485 14.2816C32.5389 14.2394 32.53 14.1986 32.5224 14.1591C32.514 14.1176 32.507 14.0774 32.5007 14.0391C32.4975 14.0219 32.4949 14.0047 32.493 13.9875C32.4898 13.9657 32.4873 13.9434 32.4847 13.9224C32.4828 13.909 32.4815 13.8962 32.4808 13.8834C32.4789 13.8669 32.4776 13.8509 32.4771 13.835C32.4771 13.835 36.9347 10.1201 40.3764 9.33203C40.3764 9.33203 40.3783 9.33523 40.3815 9.34162C40.3847 9.34736 40.3892 9.35564 40.3949 9.36588C40.4281 9.42648 40.504 9.56495 40.6067 9.75129C40.624 9.78319 40.6425 9.81638 40.661 9.85083C40.6967 9.91592 40.735 9.98481 40.7746 10.0569C40.7906 10.0856 40.8065 10.115 40.8231 10.145C40.8314 10.1603 40.8397 10.175 40.848 10.1903C40.8646 10.221 40.8818 10.2516 40.899 10.2828C41.1574 10.7524 41.4656 11.3095 41.7094 11.7447C41.7113 11.7478 41.7132 11.751 41.7151 11.7542C41.7209 11.7651 41.7266 11.7753 41.733 11.7861C41.7387 11.797 41.7445 11.8072 41.7509 11.818C41.7591 11.834 41.7681 11.8499 41.777 11.8653C41.7783 11.8672 41.7796 11.8697 41.7808 11.8716C41.7904 11.8889 41.8 11.9061 41.8089 11.9227C41.8625 12.0165 41.9103 12.102 41.9525 12.176C41.9531 12.1767 41.9537 12.1773 41.9537 12.1779C41.9678 12.2028 41.9812 12.2264 41.994 12.2481C41.9965 12.252 41.9984 12.2564 42.0003 12.2596C42.0054 12.2685 42.0112 12.2775 42.0163 12.2864C42.0195 12.2922 42.0227 12.2972 42.0259 12.303C42.0303 12.3106 42.0342 12.3177 42.0386 12.3247C42.0418 12.3304 42.0457 12.3368 42.0489 12.3426C42.0527 12.3496 42.0566 12.3553 42.0597 12.3617C42.0622 12.3655 42.0648 12.3693 42.0667 12.3732C42.0699 12.3776 42.0725 12.3821 42.075 12.3865C42.0763 12.3891 42.0782 12.3916 42.0795 12.3942C42.0839 12.4018 42.0884 12.4089 42.0922 12.4152C42.0941 12.4184 42.0961 12.4216 42.0973 12.4242C42.1005 12.4286 42.1031 12.4338 42.1063 12.4376C42.1088 12.4421 42.1114 12.4458 42.1133 12.4497C42.1139 12.4503 42.1139 12.4503 42.1139 12.4503C42.1165 12.4542 42.119 12.458 42.1203 12.4606C42.1237 12.4643 42.1262 12.4681 42.1282 12.4707Z" fill="#E2E2E2"/>
<path d="M39.4063 24.7663L39.331 27.2375C39.331 27.2375 35.9409 24.0944 33.848 23.8251H33.8474C33.8972 23.7511 33.9469 23.6777 33.998 23.6056C34.0229 23.5699 34.0484 23.5335 34.0733 23.4984C34.1078 23.4506 34.1416 23.4033 34.1761 23.3568C34.2182 23.2987 34.2609 23.2407 34.3044 23.1839C34.3445 23.1302 34.3854 23.0773 34.4269 23.0243C34.5156 22.9095 34.6055 22.7984 34.6968 22.69C34.7376 22.6409 34.7791 22.593 34.8199 22.5451C34.8665 22.4909 34.9131 22.4385 34.9603 22.3869C34.9794 22.3652 34.9992 22.3441 35.019 22.3224C35.0458 22.2931 35.0732 22.2637 35.1007 22.2344L39.4063 24.7663Z" fill="#F49E06"/>
<path d="M57.2271 26.6942C57.0707 27.3872 55.9962 29.8138 55.6669 30.3855C55.3377 30.9578 53.3443 32.4484 52.5302 32.9856L51.1685 34.2292C51.1666 34.2273 51.1653 34.2248 51.1634 34.2229C51.1347 34.1846 51.1054 34.1469 51.076 34.1105C51.0441 34.0716 51.0122 34.034 50.9797 33.9963C50.9478 33.9593 50.9146 33.9229 50.8814 33.8872C50.8801 33.8853 50.8782 33.884 50.8775 33.8828C50.8476 33.8509 50.8169 33.8196 50.7863 33.789C50.7805 33.7826 50.7748 33.7768 50.7684 33.7711C50.704 33.706 50.6376 33.6448 50.5706 33.5854C50.538 33.5561 50.5049 33.5279 50.4717 33.4999C50.466 33.4955 50.4602 33.4903 50.4545 33.4859C50.4226 33.4591 50.39 33.4336 50.3581 33.408C50.3569 33.4073 50.3556 33.4061 50.3543 33.4048C50.3269 33.3831 50.2988 33.3621 50.2707 33.341C50.1967 33.2848 50.122 33.2319 50.0481 33.1821C50.0251 33.1661 50.0021 33.1509 49.9798 33.1368C49.9313 33.1049 49.8834 33.0749 49.8362 33.0455C49.8126 33.0309 49.789 33.0168 49.766 33.0034C49.708 32.969 49.6505 32.9364 49.5938 32.9051C49.5599 32.8866 49.5261 32.8681 49.4929 32.8509L49.9299 32.4132C49.9299 32.4132 49.5318 30.3509 50.554 29.5361C51.5768 28.7219 52.1837 28.1323 52.3566 27.7335C52.5302 27.3354 53.3622 27.4738 53.2231 28.0806C53.0846 28.6868 52.4089 29.1724 52.3394 29.6401C52.2698 30.1084 52.7031 30.1602 52.7031 30.1602C52.7031 30.1602 54.6792 29.5361 55.1642 28.8087C55.6497 28.0806 56.5858 25.7925 56.8455 25.7236C57.1058 25.6542 57.3828 26.0007 57.2271 26.6942Z" fill="#FEBB76"/>
<path d="M30.7031 57.4171C30.7031 57.4171 31.3703 56.6084 31.4511 56.6286C31.532 56.6489 33.0684 57.033 35.0092 56.9117C36.95 56.7904 37.5363 56.9925 39.2546 56.4062C39.2546 56.4062 42.5297 57.5586 44.895 57.5788C47.2603 57.599 47.8263 57.1543 47.8263 57.1543" stroke="#231F20" stroke-width="4.0461" stroke-miterlimit="10" stroke-linecap="round" stroke-linejoin="round"/>
<path d="M41.6274 16.2344C41.6274 16.2344 42.0672 16.5225 42.5978 16.2344H41.6274Z" fill="#603913"/>
<path d="M42.7949 14.9491C42.7867 14.9276 42.7823 14.9154 42.7823 14.9154C42.7823 14.9154 42.9041 14.5115 42.7823 14.3495C42.7692 14.332 42.752 14.3002 42.7316 14.2578C42.6188 14.2777 41.8311 14.4263 41.3393 14.7776C40.8087 15.1566 40.6267 15.3082 40.6267 15.3082C40.6267 15.3082 41.4606 14.9747 41.9685 14.9443C42.3279 14.9229 42.6146 14.9619 42.7949 14.9491Z" fill="#75210E"/>
<path d="M43.6931 16.6596C43.533 16.4515 43.2015 16.5487 43.185 16.8106C43.1676 17.085 43.1911 17.3889 43.3204 17.632C43.4583 17.8913 43.5524 18.1167 43.6742 18.2851C43.6527 18.2477 43.6365 18.2262 43.6365 18.2262C43.6365 18.2262 43.6365 18.2262 43.9702 18.0291C44.3039 17.8319 44.2127 17.3317 43.6971 16.6649C43.6958 16.6632 43.6944 16.6614 43.6931 16.6596Z" fill="#FF7332"/>
<path d="M43.8644 21.5205C43.8516 21.5798 43.8356 21.6366 43.8153 21.6895C43.8114 21.7017 43.8063 21.7132 43.8012 21.7246C43.7961 21.7374 43.7904 21.7495 43.7847 21.7616C43.7623 21.8076 43.7368 21.8509 43.7068 21.8905C43.6998 21.9001 43.6928 21.909 43.6851 21.918C43.6704 21.9358 43.6545 21.9531 43.6379 21.9696C43.613 21.9939 43.5856 22.0169 43.5562 22.0379C43.5365 22.0513 43.5154 22.0647 43.4937 22.0769C43.4828 22.0832 43.4713 22.089 43.4598 22.0947C43.4484 22.1005 43.4369 22.1062 43.4248 22.1113C43.4011 22.1215 43.3756 22.1317 43.3494 22.14C43.3386 22.1438 43.3278 22.147 43.3169 22.1502C43.3124 22.1515 43.3079 22.1527 43.3035 22.154C43.2914 22.1579 43.2792 22.1611 43.2671 22.1636C43.2244 22.1738 43.1797 22.1821 43.1318 22.1879C43.1153 22.1904 43.098 22.1923 43.0802 22.1936C43.0629 22.1955 43.0457 22.1968 43.0285 22.1975C43.0151 22.1981 43.001 22.1988 42.9864 22.1994C42.9679 22.2 42.9487 22.2007 42.9296 22.2007C42.8779 22.2007 42.823 22.1994 42.7656 22.1956C42.7388 22.1937 42.7113 22.1911 42.6833 22.1885C42.571 22.1777 42.4491 22.1598 42.3164 22.1337C42.2832 22.1273 42.2494 22.1203 42.2149 22.1126C42.1805 22.1049 42.1454 22.0973 42.1097 22.0883C41.9157 22.0424 41.7019 21.9818 41.4658 21.9046C41.4326 21.8938 41.3982 21.8829 41.3637 21.8708C41.3268 21.8587 41.2891 21.8459 41.2508 21.8325C41.2406 21.8287 41.2311 21.8255 41.2208 21.8217C41.1532 21.7968 41.0843 21.7719 41.0135 21.7477C40.919 21.7158 40.8284 21.6839 40.7423 21.652C40.6842 21.6309 40.6287 21.6098 40.5744 21.5888C40.3569 21.504 40.1667 21.4203 40.0002 21.3374C39.9587 21.317 39.9185 21.2959 39.8796 21.2755C39.8407 21.2551 39.803 21.234 39.7666 21.2136C39.6582 21.1517 39.5618 21.0905 39.4763 21.0299C39.3474 20.9386 39.2427 20.848 39.156 20.7587C39.0985 20.6987 39.0494 20.6394 39.0066 20.5807C38.9926 20.5615 38.9792 20.5417 38.9665 20.522C38.9537 20.5022 38.9415 20.483 38.9301 20.4633C38.8044 20.2495 38.7559 20.0402 38.7087 19.8373C38.5721 19.2458 38.5772 17.3814 38.5268 17.1083C38.4764 16.8352 38.2741 16.3196 37.4657 16.4715C36.6567 16.6227 37.1626 18.3314 37.5264 18.6039C37.8901 18.877 38.2034 18.796 38.2034 18.796C37.5264 20.4741 35.161 21.4899 35.161 21.4899C35.161 21.4899 35.1616 21.4803 35.1616 21.4619V21.4529C35.1623 21.4453 35.1623 21.437 35.1623 21.428V21.4083C35.1636 21.3387 35.1642 21.2283 35.1623 21.0937C35.1623 21.063 35.1616 21.0305 35.161 20.9973C35.1591 20.8978 35.1559 20.7893 35.1508 20.6751C35.1501 20.6611 35.1495 20.6471 35.1488 20.633C35.1469 20.5928 35.1444 20.5513 35.1419 20.5098C35.1399 20.4811 35.138 20.4524 35.1361 20.4237C35.1189 20.1812 35.0908 19.933 35.0468 19.7205C35.0404 19.6893 35.0334 19.6586 35.0263 19.6293C35.0251 19.6236 35.0232 19.6172 35.0219 19.6114C35.0079 19.5546 34.9919 19.5017 34.9747 19.4532C34.9575 19.4047 34.9389 19.3607 34.9185 19.3218C34.6301 18.7762 33.7209 18.3819 33.7355 17.442C33.7355 17.442 38.9059 13.7826 42.1282 12.4688L42.1454 12.5791C41.9967 13.1368 40.7633 14.212 40.0965 14.6293C39.429 15.046 39.0953 16.8958 39.0953 16.8958C39.0953 16.8958 40.0359 17.8286 40.4902 18.253C40.9451 18.6773 41.7868 19.2841 42.1811 18.9581C42.5755 18.632 43.6366 18.23 43.6366 18.23C43.6366 18.23 43.8222 18.4731 43.775 18.7762C43.7278 19.0793 43.3941 19.0946 43.4394 19.2312C43.4848 19.3671 43.7316 19.3064 43.775 19.4583C43.8184 19.6102 43.8791 19.9586 43.6366 20.2011C43.6366 20.2009 44.0156 20.8078 43.8644 21.5205Z" fill="#75210E"/>
<path d="M39.3308 27.2344C39.3308 27.2344 41.7023 31.4423 42.3228 35.9299" stroke="#C65000" stroke-width="2.6974" stroke-miterlimit="10" stroke-linecap="round" stroke-linejoin="round"/>
</svg>
