<svg width="80" height="80" viewBox="0 0 80 80" fill="none" xmlns="http://www.w3.org/2000/svg">
<path d="M0 40C0 17.9086 17.9086 0 40 0C62.0914 0 80 17.9086 80 40C80 62.0914 62.0914 80 40 80C17.9086 80 0 62.0914 0 40Z" fill="black"/>
<path d="M39.9997 0C17.9083 0 0 17.9083 0 39.9997C0 62.0911 17.9083 80 39.9997 80C62.0911 80 80 62.0911 80 39.9997C80 17.9083 62.0911 0 39.9997 0Z" fill="black"/>
<path d="M0 40C0 17.9086 17.9086 0 40 0C62.0914 0 80 17.9086 80 40C80 62.0914 62.0914 80 40 80C17.9086 80 0 62.0914 0 40Z" fill="#A4BDB8"/>
<path d="M31.9605 56.5943C31.9646 56.59 31.962 56.5826 31.9562 56.581C30.1342 56.0664 30.951 58.5463 31.0385 59.6589C31.0535 59.849 31.0398 60.0509 31.1485 60.2076C31.3445 60.4902 31.7495 60.7402 31.9696 61.1236C32.6257 62.4106 31.8668 63.4002 32.3351 64.4187C32.3551 64.462 32.3758 64.4917 32.4107 64.5243C32.6188 64.7182 32.9133 64.6119 32.9455 64.3292C33.1115 62.8686 33.2919 61.0696 33.5202 59.8213C33.8173 58.7811 32.2099 57.6665 31.9585 56.6016C31.9579 56.599 31.9587 56.5963 31.9605 56.5943Z" fill="#A20768"/>
<path d="M33.4457 72.4003C33.4457 72.4052 33.4474 72.4101 33.4503 72.414C34.3285 73.5931 34.9971 72.1098 35.789 71.8374C36.2405 71.7158 36.6313 71.6443 36.949 71.5443C38.0438 71.1997 38.4841 69.811 39.0966 68.8403C39.7 67.8839 39.2465 66.7476 38.3833 66.017C37.7209 65.4564 36.9912 64.8427 36.6322 64.484C35.7185 63.5956 35.2267 62.8299 34.8734 62.1817C34.1025 60.7673 32.5632 60.9525 32.307 62.5429C32.2038 63.1838 32.2799 63.7276 32.5163 64.3321C32.5458 64.4076 32.5759 64.4838 32.606 64.5597C32.9291 65.3735 33.0247 66.2504 32.8982 67.1169C32.6168 69.0457 32.5271 70.5044 33.4434 72.3904C33.4449 72.3935 33.4457 72.3969 33.4457 72.4003Z" fill="#A20768"/>
<path d="M37.8971 71.8164C37.9118 71.8067 37.9184 71.7884 37.9128 71.7716C37.6038 70.8426 36.5534 70.1227 35.9688 69.2442C35.7719 68.9483 35.6955 68.595 35.6154 68.2488C35.2507 66.6723 34.3264 65.1823 33.8152 63.5774C33.5729 62.8167 33.3786 62.5071 33.5844 63.2785C33.6223 63.4204 33.6618 63.5635 33.6991 63.6976C33.8248 64.1497 33.8067 64.3966 33.6041 63.9734C33.5216 63.801 33.4398 63.6194 33.3855 63.4865C33.3345 63.3615 33.303 63.2259 33.2862 63.0919C33.2588 62.8732 33.2313 62.537 33.1933 62.2331C33.1328 61.7489 32.7031 61.0456 32.2304 60.9247C31.9416 60.8725 31.9869 61.2314 32.0931 61.505C32.3224 62.0955 32.2756 62.6908 32.2255 63.2868C32.1412 64.2884 32.5883 65.2379 32.6685 66.2398C32.7766 67.59 32.2429 68.9456 32.1653 70.249C32.0589 72.0351 32.774 72.0834 32.8196 70.2947C32.8267 70.0156 32.9457 69.7042 33.0054 69.4314C33.2682 68.2313 33.4385 66.9925 33.049 65.7237C32.5652 64.6575 32.6397 63.6653 32.7509 62.5618C32.7509 62.8966 32.9125 63.9628 33.1848 64.5956C33.286 64.8792 33.3659 65.1504 33.4278 65.4102C33.678 66.4594 33.9004 66.1382 33.5202 65.1287C34.0488 66.2376 34.0377 67.417 34.0179 68.5903C34.0076 69.198 34.2808 69.1094 34.2901 68.5017C34.2982 67.9752 34.7479 67.9051 34.7717 68.4312C34.7946 68.9358 34.7805 69.4506 34.8067 69.951C34.8565 70.906 35.0786 70.6216 35.063 69.6654C35.0586 69.3918 35.0806 69.0897 35.1314 68.7457C35.1395 68.6911 35.1689 68.6099 35.185 68.6628C35.2164 68.7661 35.2485 69.0904 35.3046 69.4533C35.4417 70.3403 35.906 71.1413 36.2974 71.949C36.3477 72.037 36.382 72.0454 36.3956 72.0112C36.4425 71.8938 36.3559 71.757 36.3144 71.6376C36.2519 71.4581 36.3807 71.4349 36.5292 71.5535C36.631 71.6348 36.7459 71.7253 36.8592 71.7951C37.1193 71.9554 37.2333 71.7273 36.9922 71.5397C36.3158 71.0854 36.7657 70.8068 37.3144 71.409C37.6036 71.7264 37.8291 71.9269 37.8787 71.8396C37.8834 71.8313 37.8891 71.8217 37.8971 71.8164ZM32.3052 61.3967C32.305 61.3961 32.3049 61.3964 32.3049 61.3958C32.3049 61.3908 32.3118 61.3886 32.3137 61.3933C32.322 61.4144 32.3301 61.4358 32.3376 61.4577C32.3442 61.4769 32.3334 61.4803 32.3273 61.461C32.3207 61.4399 32.3137 61.4183 32.3052 61.3967ZM35.1016 67.5041C35.0972 67.4997 35.0942 67.494 35.0929 67.4879C35.055 67.3039 34.982 67.0971 34.9211 66.9269C35.0055 67.1126 35.0844 67.3102 35.1456 67.5075C35.1614 67.5583 35.1276 67.57 35.1104 67.5197C35.11 67.5186 35.1096 67.5174 35.1092 67.5163C35.1076 67.5117 35.105 67.5075 35.1016 67.5041Z" fill="#A20768"/>
<path d="M39.7202 67.162C39.7202 67.1671 39.7144 67.17 39.7103 67.1669C37.5816 65.5568 35.75 63.7236 34.6236 61.4954C34.0305 60.5222 33.811 59.9222 32.6451 60.1419C32.3691 60.1939 32.0358 60.3559 31.7611 60.2974C31.3955 60.2195 31.8638 60.0586 32.1941 59.8835C32.663 59.635 33.0418 59.1814 32.2923 59.4989C32.2133 59.5432 31.9731 59.5994 31.7563 59.6306C31.3156 59.694 31.815 59.494 32.2258 59.3222C32.2406 59.316 32.2551 59.3096 32.2692 59.303C32.5141 59.1879 32.4771 58.7901 32.2208 58.8772C32.1931 58.8866 32.1653 58.8972 32.1382 58.9072C31.9615 58.9725 31.8984 58.7819 31.8522 58.5992C31.7404 58.1562 31.4507 57.7283 31.3566 57.2894C31.2668 56.8703 31.1158 56.6075 30.9268 56.9923C30.8655 57.117 30.8289 57.2248 30.8139 57.363C30.7031 58.3861 30.6994 61.0955 32.1616 60.5631C32.3722 60.4864 32.64 60.2464 32.7263 60.4533C33.8177 62.4006 34.6729 64.4091 35.2806 66.4057C35.7334 67.7644 36.5644 70.028 38.2469 70.5434C38.3444 70.5733 38.3861 70.5121 38.3066 70.4481C37.9094 70.1999 37.4754 69.8531 37.2398 69.543C37.8102 70.126 38.3066 70.3243 37.4508 69.5183C36.5087 68.6193 36.9802 68.4048 37.9342 69.2912C38.0985 69.4439 38.2755 69.5797 38.4677 69.692C38.7526 69.8279 38.666 69.6175 38.517 69.5183C38.2814 69.3693 37.1407 67.9311 37.8475 68.6379C40.2533 70.6711 37.0295 67.5464 36.7566 66.8895C36.6202 66.6167 36.9796 67.038 37.0415 67.0752C37.531 67.4578 37.7049 67.1969 37.2351 66.7905C36.8718 66.4761 36.5616 66.1278 36.377 65.7078C36.3565 65.6611 36.3562 65.6036 36.4007 65.6284C36.4263 65.6426 36.4547 65.6632 36.4712 65.6743C37.0017 65.9538 37.0603 65.8344 36.6093 65.4391C36.184 65.0663 35.8994 64.6161 35.4915 63.5533C35.7996 64.157 39.1916 67.4655 39.7104 67.1563C39.7147 67.1538 39.7202 67.157 39.7202 67.162ZM31.5357 58.6926C31.5357 58.6928 31.5357 58.693 31.5358 58.6932C31.5777 58.7762 31.6884 58.8853 31.6724 58.9768C31.668 59.0023 31.6364 58.9982 31.6275 58.9739C31.5955 58.8865 31.5598 58.7823 31.5384 58.6923C31.538 58.6907 31.5357 58.691 31.5357 58.6926ZM34.8558 62.5949C34.8504 62.586 34.8597 62.586 34.8651 62.5949C34.8704 62.6037 34.8612 62.6037 34.8558 62.5949ZM33.9661 61.9913C33.8297 61.8675 33.0364 60.4533 33.3465 60.7262C33.5821 60.9497 34.822 62.7972 33.9661 61.9913ZM34.7721 63.9253C34.6763 63.6969 34.6853 63.6934 34.7721 63.9253V63.9253Z" fill="#A20768"/>
<path d="M36.6716 69.7529C36.7334 70.0297 36.8235 69.9013 36.739 69.6306C36.7352 69.6184 36.7313 69.6064 36.7275 69.5947C36.6698 69.4181 36.6311 69.5716 36.6716 69.7529Z" fill="#A20768"/>
<path d="M19.4719 46.0392C16.655 49.2173 14.9937 52.7104 17.7246 55.9627C18.3914 56.7568 19.1342 57.5289 19.9397 58.1999C21.4865 59.4884 23.6873 59.2747 25.4433 58.2901C25.8047 58.0874 26.1852 57.8734 26.5777 57.6508C30.2934 55.5434 33.8844 57.7916 33.0438 61.9798C32.6394 63.9944 34.1978 65.2295 36.2297 65.5348C37.0363 65.6561 37.9387 65.7747 38.8936 65.8716C44.1213 66.4019 46.0252 60.6068 49.3204 56.514C50.181 55.4451 51.4696 54.5753 53.3602 54.0922C56.4236 53.1252 61.0237 51.1407 64.0498 49.3803C65.277 48.4253 65.3017 44.693 65.5373 43.2049C66.2011 40.5766 65.7361 37.17 65.1464 33.9611C64.7152 31.6151 63.9515 29.361 63.2805 27.072C63.1053 26.2604 62.6836 24.784 61.8926 24.2383C61.4716 23.9478 60.9264 23.5791 60.8888 23.0691C60.8124 22.0315 60.6412 21.0591 60.25 20.5669C59.9139 20.144 56.1022 19.8624 55.7094 20.2334C55.6591 20.2809 55.5575 20.3635 55.494 20.3909C53.8626 21.0948 54.3232 22.9812 53.472 23.6744C52.7793 24.2699 52.0044 21.6712 52.3047 20.8085C52.8234 19.3179 53.2585 17.5028 52.8571 16.6496C52.3622 15.5974 50.6774 14.4379 49.797 13.6785C48.6773 12.7127 41.619 15.3737 40.5732 16.4191C37.5487 19.4422 33.5956 25.1124 31.3152 28.3417C30.9712 28.8289 30.5162 28.551 30.7177 27.9897C31.5357 26.4145 34.7475 23.6372 34.6237 21.3305C34.6035 20.5371 34.459 20.0409 34.2329 19.7643C32.1862 17.2603 27.967 21.7575 26.3652 24.5669C26.0128 25.2257 25.5455 26.0518 25.0328 26.9382C23.0801 30.3144 21.7415 34.0375 21.6469 37.9366C21.5596 41.5355 21.5689 43.6733 19.4719 46.0392Z" fill="#E59F76"/>
<path d="M64.477 30.1963C64.4788 30.1997 64.4839 30.1985 64.484 30.1947C64.5013 29.1813 63.8302 28.2034 63.3849 27.3065C63.3648 27.2661 63.349 27.2252 63.3367 27.1818C63.2539 26.8896 63.1411 26.4515 62.9867 25.9947C62.2859 23.9207 59.9171 25.2075 59.8353 27.3951C59.7811 28.845 60.1061 30.3822 60.3542 32.0694C61.037 34.5014 59.4628 39.4805 60.7086 42.1519C60.7935 42.3339 60.7689 42.4811 60.6144 42.6094C60.1612 42.9117 59.6698 43.5148 59.29 44.0432C58.8648 44.6346 58.2785 45.1122 57.6083 45.3974C56.8854 45.7051 56.1059 45.8701 55.3202 45.8728C50.9969 45.8874 44.2239 47.9373 43.006 48.3881C41.0488 49.0078 38.3481 48.026 36.5841 49.1122C36.0716 49.4278 35.7689 49.9601 35.5511 50.5213C35.0059 51.9258 35.0994 53.509 34.9109 55.0038C34.8803 55.247 34.8246 55.4734 34.7355 55.6669C34.3547 56.4613 34.003 57.5896 33.7098 58.7963C32.8115 62.4929 33.1039 65.1152 36.8737 65.6254C42.049 66.3258 45.8656 60.6539 49.2237 56.6541C50.1719 55.5248 51.6347 54.5885 53.7979 53.8589C54.7646 53.5328 55.7303 53.1946 56.673 52.8046C57.2952 52.5472 57.9486 52.2922 58.6045 52.0333C62.9419 50.3213 65.4442 46.2325 65.7714 41.5809C65.9168 39.5129 65.8434 37.3651 65.4135 34.9831C65.0796 33.4129 64.3513 31.7559 64.4701 30.1977C64.4704 30.194 64.4753 30.193 64.477 30.1963Z" fill="#F6C6A1"/>
<path d="M43.3869 14.7386C43.3817 14.7284 43.3707 14.7229 43.3596 14.7255C39.8125 15.5356 35.0403 23.2131 31.7218 27.9063C31.4307 28.3181 30.7472 27.9013 30.9698 27.4488C30.9862 27.4153 31.002 27.3939 31.0268 27.3661C31.7716 26.529 33.1208 25.0936 33.938 23.571C35.0129 21.5682 33.5207 18.9467 31.8193 20.4539C31.2071 20.9962 30.6729 21.5969 30.4569 21.8265C29.3162 22.9924 27.1958 23.067 26.3772 24.5298C26.111 25.0103 25.8076 25.5515 25.482 26.1259C23.2991 29.9774 21.6527 34.1076 21.6071 38.5344C21.5935 39.8588 21.559 41.2062 21.3943 42.549C21.3174 43.1761 21.1319 43.8182 20.808 44.3605C18.3612 48.4573 15.7633 54.1895 19.1261 57.5749C20.2688 58.7253 21.4787 59.5532 22.61 59.5898C23.1971 59.6089 23.7328 59.3024 24.2497 59.0235C24.6454 58.8099 24.9398 58.6531 25.1728 58.4991C26.6369 57.5308 27.0257 55.5655 27.8934 54.0396C28.1017 53.6733 28.3008 53.2909 28.4721 52.9009C29.2553 51.1183 28.509 49.0014 29.1408 47.1597C29.2284 46.9045 29.3492 46.6593 29.5145 46.4289C30.4942 44.9906 30.7177 42.9322 31.4119 39.9434C32.2688 37.7097 31.1744 36.2161 30.6017 34.6148C30.2735 33.6972 30.3822 32.6652 30.9792 31.895C31.6057 31.0869 32.0758 30.1902 32.5402 29.2791C32.9923 28.3923 33.5783 27.4821 34.2637 26.5144C35.9241 23.3424 42.8708 17.9665 43.3894 14.7538C43.3902 14.7486 43.3893 14.7434 43.3869 14.7386Z" fill="#F6C6A1"/>
<path d="M56.2563 48.8793C52.1523 49.4928 54.9829 48.1782 58.5317 46.0274C60.3973 44.8967 61.7163 43.2794 62.484 41.1162C63.0194 39.6074 64.5405 37.8792 64.9176 39.4351C65.1778 42.0645 63.144 44.7673 61.3957 46.2554C60.0067 47.3594 58.0474 48.6113 56.5227 48.8349C56.4538 48.8482 56.3637 48.8633 56.2563 48.8793Z" fill="#E59F76"/>
<path d="M23.6372 32.3422C25.7445 28.1871 26.2106 25.5041 29.5912 23.0364C31.4526 21.6776 33.2635 22.436 31.5237 23.9473C29.7008 25.8441 28.1754 28.2998 27.2457 29.8372C26.6516 30.6572 26.2403 31.3486 25.9531 31.9601C24.719 34.5873 22.3651 34.9512 23.6372 32.3422Z" fill="#E59F76"/>
<path d="M52.9394 23.5382C52.9311 23.5382 52.9232 23.5338 52.9184 23.5271C52.29 22.6469 51.3754 22.9834 50.9568 23.4526C50.5408 23.9191 51.2879 24.4311 51.4533 25.0339C51.9613 26.8852 49.2663 29.4618 48.9337 31.2017C48.4746 32.6526 47.6686 33.9544 47.3212 35.4052C45.077 42.9942 38.8397 44.6307 33.2347 49.8637C32.5162 50.5737 32.4259 51.3532 32.1421 52.0937C31.9067 52.7078 31.4643 53.214 31.1083 53.767C30.9437 54.0227 30.7751 54.1576 30.52 53.8684C30.485 53.8287 30.4501 53.7889 30.4124 53.7518C29.9464 53.2928 29.5588 52.71 29.1706 52.1399C28.8641 51.6899 28.6285 51.8635 28.9068 52.3315C30.9854 55.0452 33.9779 52.7008 35.759 49.7832C36.1746 49.1023 36.6631 48.4374 37.3643 47.8425C40.3278 45.1518 44.6058 42.8205 46.8873 38.8646C48.7565 35.1149 50.6131 28.8232 52.6909 25.3019C52.7807 25.1497 52.8967 25.0139 52.9715 24.8538C53.1771 24.4135 53.1206 23.7663 52.9587 23.5476C52.9542 23.5415 52.947 23.5382 52.9394 23.5382Z" fill="#A20768"/>
<path d="M30.395 21.8764C29.1677 22.8933 27.1958 23.067 26.3772 24.4806C23.6509 29.5116 21.9373 34.904 21.5558 40.6135C21.3661 43.4534 20.5799 45.7553 17.0698 48.1888C16.2157 48.781 15.33 49.34 14.4562 49.9029C14.4462 49.9094 14.4363 49.9159 14.4267 49.9224C13.5476 50.5155 14.5843 52.4186 15.6432 52.3609C16.7709 52.2995 17.6425 51.386 18.4585 50.6052C21.7586 47.4477 24.2502 43.1916 23.3018 38.2203C23.0298 37.3458 22.9215 36.444 22.9497 35.5513C23.0485 32.4265 24.3321 29.3726 25.9918 26.7231C26.9109 25.2558 28.2272 24.2376 30.746 23.0398C30.8979 22.9675 31.0431 22.8749 31.1613 22.7553C31.8557 22.0526 32.3311 21.115 32.6322 20.3571C32.7231 20.1285 32.5108 19.9312 32.3029 20.0626C31.5326 20.5497 30.6705 21.4485 30.3889 21.8725C30.3863 21.8763 30.3917 21.8796 30.395 21.8764ZM22.8921 37.194C22.8932 37.219 22.8688 37.2352 22.8485 37.2206C22.8363 37.2118 22.8266 37.201 22.8191 37.1885C22.7945 37.1479 22.89 37.1466 22.8921 37.194ZM23.1534 41.1959C23.017 42.0764 22.7068 42.9568 22.434 43.7628C22.6808 42.9237 22.9276 42.0725 23.0672 41.1978C23.1396 40.7447 23.2519 40.7477 23.1534 41.1959Z" fill="#F9D2B3"/>
<path d="M20.7102 43.7383C20.1026 45.3502 17.9822 43.9985 18.9991 42.746C19.7805 41.7916 21.0949 42.6841 20.7102 43.7383Z" fill="#A20768"/>
<path d="M21.479 47.0864C22.4466 48.9585 19.5822 49.244 19.2594 47.4211C19.0365 46.0196 20.8221 45.8832 21.479 47.0864Z" fill="#A20768"/>
<path d="M23.3643 49.219C24.4432 50.7711 23.5079 51.3499 22.4917 51.1593C20.5829 50.8013 22.1501 47.7033 23.3643 49.219Z" fill="#A20768"/>
<path d="M25.8314 51.0542C28.2745 53.6704 23.3144 53.8068 23.4262 51.2278C23.6119 50.1983 25.1373 50.3846 25.8314 51.0542Z" fill="#A20768"/>
<path d="M28.2619 52.9888C30.8042 55.4686 25.9186 55.8286 25.8687 53.2737C25.9931 52.2321 27.5179 52.3439 28.2619 52.9888Z" fill="#A20768"/>
<path d="M30.928 55.072C32.85 57.8871 27.8779 57.366 28.4855 54.9109C28.8696 53.9559 30.3456 54.3405 30.928 55.072Z" fill="#A20768"/>
<path d="M33.049 55.8535C34.8094 55.6924 35.2313 57.6391 33.4331 57.85C31.7094 57.9612 31.35 56.0764 33.049 55.8535Z" fill="#A20768"/>
<path d="M35.1321 55.1714C39.0255 55.0968 36.1364 58.3585 33.9042 56.7833C33.0857 56.0392 34.227 55.2333 35.1321 55.1714Z" fill="#A20768"/>
<path d="M37.7483 54.6134C41.6296 54.8117 38.5543 58.1966 36.372 56.3245C35.6033 55.4933 36.7194 54.6254 37.7483 54.6134Z" fill="#A20768"/>
<path d="M41.1092 54.5511C44.9779 55.0349 41.5305 58.1721 39.5219 56.1636C38.8151 55.2705 40.055 54.4771 41.1092 54.5511Z" fill="#A20768"/>
<path d="M44.8541 54.7743C49.194 55.3074 45.1516 58.4321 43.0558 56.3616C42.3244 55.4066 43.7873 54.6872 44.8541 54.7743Z" fill="#A20768"/>
<path d="M48.8219 54.5017C53.1871 55.0474 49.1194 58.5194 46.9744 56.2626C46.255 55.283 47.6686 54.4271 48.8219 54.5017Z" fill="#A20768"/>
<path d="M52.4551 54.2286C56.6964 54.0796 53.621 57.9609 51.0914 56.1879C50.1736 55.3693 51.327 54.3404 52.4551 54.2286Z" fill="#A20768"/>
<path d="M55.9151 53.1625C59.9822 52.3439 57.8371 56.56 55.01 55.233C53.9678 54.6007 54.8609 53.4347 55.9151 53.1625Z" fill="#A20768"/>
<path d="M58.4321 51.8357C61.5694 49.4178 62.2635 53.9314 58.9159 54.0059C57.5763 53.9068 57.6508 52.5299 58.4321 51.8357Z" fill="#A20768"/>
<path d="M54.7491 43.0189C58.8287 43.8874 54.4642 47.0613 52.7032 44.6681C52.1203 43.6266 53.621 42.8452 54.7491 43.0189Z" fill="#A20768"/>
<path d="M50.9549 42.9942C55.0718 43.6144 51.0415 47.0119 49.0822 44.7425C48.4126 43.7382 49.8142 42.8824 50.9549 42.9942Z" fill="#A20768"/>
<path d="M47.2845 42.8332C51.3017 43.6885 47.1228 46.8257 45.3252 44.4698C44.7296 43.4408 46.1684 42.6595 47.2845 42.8332Z" fill="#A20768"/>
<path d="M44.2831 41.99C47.8922 43.6638 43.0559 45.8587 41.9644 43.18C41.6669 42.0393 43.2668 41.5933 44.2831 41.99Z" fill="#A20768"/>
<path d="M41.2823 40.9977C44.6185 43.0562 39.5712 44.718 38.8398 41.9401C38.6907 40.7747 40.3279 40.4892 41.2823 40.9977Z" fill="#A20768"/>
<path d="M39.1619 40.3407C41.1585 43.49 35.777 43.0314 36.521 40.2289C36.967 39.1375 38.5669 39.5347 39.1619 40.3407Z" fill="#A20768"/>
<path d="M37.4881 38.3194C39.3975 41.3323 34.2763 40.8857 34.9831 38.2076C35.417 37.1781 36.9177 37.5501 37.4881 38.3194Z" fill="#A20768"/>
<path d="M36.1364 35.9881C38.1822 39.1993 32.7635 38.7654 33.4703 35.889C33.9169 34.7603 35.5288 35.1569 36.1364 35.9881Z" fill="#A20768"/>
<path d="M34.4998 33.3841C36.5703 36.6452 31.1263 36.2239 31.8211 33.297C32.255 32.1562 33.8796 32.5409 34.4998 33.3841Z" fill="#A20768"/>
<path d="M31.8085 30.9034C34.983 33.3465 29.7753 34.6856 29.2788 31.6974C29.2296 30.4575 30.8908 30.2958 31.8085 30.9034Z" fill="#A20768"/>
<path d="M21.6033 41.754C20.9831 43.3905 18.8501 42.0268 19.867 40.7497C20.661 39.77 21.9874 40.6752 21.6033 41.754Z" fill="#A20768"/>
<path d="M53.7334 46.0643C55.6746 46.1319 55.45 45.7859 53.509 45.7148C52.7255 45.6861 51.9748 45.9446 51.2116 46.1243C49.6596 46.4897 48.0806 46.2476 46.5794 45.8289C46.4564 45.7946 46.3162 45.7387 46.3608 45.8584C46.4929 46.213 46.7793 47.1385 46.4254 47.2724C45.0617 47.7882 43.4535 48.3918 42.1254 48.5617C41.8033 48.6363 41.8652 48.7727 42.1753 48.7354C44.8288 48.6735 46.9125 47.0364 49.5786 46.8753C50.8058 46.677 51.9964 46.3915 53.2117 46.0814C53.2781 46.0568 53.4711 46.0552 53.7334 46.0643Z" fill="#A20768"/>
<path d="M20.7229 45.2507C20.7848 46.7761 18.7137 46.8134 18.5526 45.2014C18.5033 43.6262 20.5864 43.6881 20.7229 45.2507Z" fill="#A20768"/>
<path d="M49.7915 16.8169C49.7898 16.8169 49.7883 16.8174 49.7871 16.8185C49.2471 17.299 48.7215 18.7188 48.1444 19.698C47.6193 20.5889 46.2444 20.3905 45.2737 20.0338C44.8062 19.8619 45.2118 20.38 45.6719 20.571C46.3972 20.8719 47.4445 21.0148 47.1481 21.3924C45.9076 23.4761 45.2134 26.3778 42.2745 24.6288C42.0177 24.4935 42.2475 24.8972 42.4984 25.0431C43.3827 25.5571 44.8891 25.313 43.9363 26.5262C43.2861 27.558 42.6788 29.1703 41.6815 30.0512C40.6574 30.9558 37.8934 30.8531 38.1702 29.5151C38.3286 28.6793 39.0198 26.219 39.8277 25.2448C40.0463 24.9813 40.3942 25.0111 40.6406 25.2487C41.1478 25.738 41.2903 25.5747 40.9024 24.9864C40.7557 24.7639 40.7176 24.5228 40.9228 24.2448C41.8898 23.0915 42.0389 21.5168 43.0432 20.3508C43.7752 19.5575 44.3828 18.6524 44.7422 17.6475C44.8848 17.2259 44.4901 17.9126 43.9195 18.7248C42.7986 20.3202 38.5299 18.6654 39.993 19.9542C40.914 20.8132 41.5329 21.9318 40.8384 22.9824C39.6416 24.7925 38.0873 26.4198 37.5499 28.4483C37.3802 29.0979 36.4203 28.8698 35.7783 28.6731C34.8985 28.4035 34.2387 27.6163 33.2966 27.4686C32.7509 27.4566 34.6729 28.5601 34.8346 28.7458C34.9084 28.8164 35.008 28.8717 35.1247 28.9166C36.7324 29.5352 36.5905 30.7025 36.4819 32.4217C36.4431 33.037 36.4863 33.6653 36.6014 34.2786C37.0717 36.7836 38.9287 38.6446 40.9354 40.2161C41.3451 40.4808 40.8025 39.7243 40.4272 39.4127C38.518 37.8276 36.9528 35.2091 36.931 32.7058C36.9179 31.1947 38.5616 30.9498 40.0052 31.3969C40.154 31.4429 40.3894 31.5444 40.2487 31.6113C40.2464 31.6124 40.244 31.6136 40.2416 31.6146C39.9863 31.7317 39.7067 31.801 39.4488 31.9123C38.4833 32.3291 37.7301 33.0056 38.0584 34.0779C38.1403 34.2828 38.2102 33.8899 38.2602 33.675C38.4809 32.7262 39.5541 32.1143 40.5842 31.9921C40.791 31.9676 40.9946 32.0189 41.1551 32.1516C41.4413 32.388 41.6282 32.0399 41.692 31.6742C41.9651 30.1084 43.2957 28.8421 44.0387 27.34C44.1133 27.1893 44.1722 27.0371 44.3398 27.0232C45.1557 26.9553 44.9921 27.2667 44.6493 26.5232C44.5438 26.2943 44.5835 26.0319 44.9033 25.7077C46.9597 23.1187 48.5956 19.8491 49.7979 16.8262C49.7996 16.8217 49.7963 16.8169 49.7915 16.8169ZM40.7491 23.6991C40.7209 23.7556 40.7169 23.7585 40.7471 23.703C40.7478 23.7017 40.7485 23.7004 40.7491 23.6991ZM40.4177 31.0388C40.4158 31.0394 40.4133 31.0399 40.4114 31.0397C40.409 31.0395 40.4066 31.0392 40.4041 31.0386C40.3831 31.0342 40.391 31.0031 40.4124 31.0049C40.4146 31.0051 40.4168 31.0053 40.419 31.0056C40.4399 31.0076 40.4377 31.0326 40.4177 31.0388ZM40.799 30.8949C40.799 30.893 40.7974 30.8914 40.7955 30.8914C40.7903 30.8914 40.785 30.8914 40.7798 30.8913C40.7623 30.8911 40.7636 30.8774 40.781 30.8756C40.7891 30.8748 40.7972 30.8738 40.8053 30.8725C40.814 30.8711 40.8201 30.8823 40.8139 30.8885C40.8108 30.8916 40.8078 30.8946 40.805 30.8974C40.8028 30.8996 40.799 30.898 40.799 30.8949ZM41.4879 32.143C41.4845 32.1738 41.4496 32.1935 41.4258 32.1737C41.4067 32.1578 41.408 32.1296 41.4255 32.1121C41.4273 32.1103 41.4291 32.1085 41.4309 32.1067C41.4517 32.0861 41.4873 32.0877 41.489 32.1169C41.4894 32.1254 41.4889 32.1341 41.4879 32.143Z" fill="#A20768"/>
<path d="M51.4943 22.9615C51.4907 22.958 51.4849 22.9577 51.4808 22.9607C50.6244 23.5957 50.0364 23.7619 49.5022 23.7414C49.0692 23.7248 48.9959 23.9439 49.422 24.0228C49.7529 24.084 49.9349 24.5109 49.7731 24.8059C48.7769 26.623 48.191 29.7874 45.898 28.8884C45.7374 28.8254 45.5748 28.7555 45.4096 28.7061C44.2037 28.3452 44.9086 28.7435 45.5979 29.0818C46.0715 29.3142 46.7856 29.5281 46.4084 29.8969C46.0206 30.2761 45.5565 30.7101 45.3065 31.1914C44.5662 32.6171 44.0189 34.8131 42.3244 33.223C42.1069 33.0327 41.9822 33.0011 42.0126 33.1039C42.0498 33.2295 42.1388 33.3359 42.2256 33.4341C42.7732 34.0542 42.8211 34.4483 42.0466 34.7389C41.698 34.8697 41.3864 34.9961 41.2825 35.078C41.1774 35.161 41.5807 35.0942 41.5299 35.2181C41.5116 35.2629 41.4366 35.3303 41.3532 35.4028C41.1572 35.573 40.9543 35.8651 40.8883 36.1162C40.829 36.342 41.0283 36.1043 41.1956 35.9414C41.3703 35.7714 41.6321 35.576 41.9142 35.4044C42.8015 34.8646 43.0941 35.8307 43.8505 36.5423C44.0843 36.7623 44.3649 36.964 44.6363 37.1644C45.1433 37.539 45.5891 37.7448 45.1649 37.2785C45.0865 37.1923 45.0167 37.1222 44.9779 37.0917C44.0109 36.1866 43.2416 35.9263 44.0974 34.5494C45.3746 32.5781 46.2797 30.2961 48.3135 28.6968C49.6033 27.5681 49.5907 25.8071 50.5829 24.5053C50.6332 24.4448 50.7652 24.2617 50.7134 24.2483C50.6666 24.2361 50.6251 24.2887 50.5912 24.3233C50.1667 24.7568 50.2304 24.7872 50.5621 24.2792C50.8622 23.8194 51.1729 23.3797 51.495 22.975C51.4983 22.971 51.4979 22.9652 51.4943 22.9615Z" fill="#A20768"/>
<path d="M43.1947 26.5251C43.6069 26.7486 43.4682 26.0226 43.0051 26.0959C42.8602 26.1189 42.9112 26.3229 43.0257 26.4147C43.0741 26.4536 43.1325 26.4913 43.1947 26.5251Z" fill="#A20768"/>
<path d="M47.4332 28.4379C47.8722 28.47 47.7537 28.0983 47.3139 28.1171C46.9866 28.1311 46.4956 28.1409 46.7926 28.2792C46.9573 28.3558 47.2048 28.4212 47.4332 28.4379Z" fill="#A20768"/>
<path d="M38.0514 23.0499C38.7833 23.745 38.5517 22.8744 37.6341 22.4537C37.0997 22.2088 37.536 22.568 37.9657 22.9691C37.9942 22.9958 38.0228 23.0227 38.0514 23.0499Z" fill="#A20768"/>
<path d="M38.43 24.7484C38.656 24.7737 38.6042 24.4852 38.4163 24.3571C37.8418 23.9655 37.5297 24.4152 38.1742 24.6762C38.2694 24.7147 38.356 24.7401 38.43 24.7484Z" fill="#A20768"/>
<path d="M31.3626 26.3527C30.1866 26.4314 30.0421 25.5389 29.1123 25.2738C28.8984 25.2128 28.5338 25.185 28.5967 25.3983C28.647 25.5628 28.8046 25.6199 28.9695 25.665C29.1979 25.7275 29.4251 25.8187 29.5951 25.9837C30.0917 26.4658 30.4147 27.4595 31.1225 27.1883C31.1478 27.1786 31.1653 27.1549 31.1746 27.1294C31.271 26.8656 31.8807 26.4424 31.363 26.3549C31.3619 26.3547 31.3614 26.3527 31.3626 26.3527Z" fill="#A20768"/>
<path d="M48.4872 33.1016C48.4872 33.0995 48.4862 33.0974 48.4846 33.0961C48.0014 32.7004 47.4563 32.3914 46.7262 32.3542C46.3683 32.3542 46.302 32.4422 46.6212 32.6041C46.9312 32.7614 47.3568 32.8103 47.6439 32.9618C47.8902 33.0909 47.9815 33.4311 48.2953 33.4671C48.3319 33.4714 48.3691 33.4754 48.4059 33.4752C48.7114 33.4735 48.929 33.0007 48.4965 33.1084C48.492 33.1096 48.4872 33.1063 48.4872 33.1016Z" fill="#A20768"/>
<path d="M56.5924 27.2367C56.5323 27.2158 56.467 27.2502 56.4077 27.2733C55.8091 27.5062 55.8156 27.8241 56.408 27.5756C56.4546 27.556 56.5011 27.5329 56.5474 27.506C56.6688 27.4355 56.6993 27.274 56.5924 27.2367Z" fill="#A20768"/>
<path d="M59.114 35.5774C59.6133 35.5631 59.3291 35.2266 58.8297 35.2286C57.9705 35.232 57.7262 35.4523 58.5797 35.5508C58.7667 35.5724 58.9511 35.582 59.114 35.5774Z" fill="#A20768"/>
<path d="M62.3128 36.1589C62.627 36.364 62.5729 35.9863 62.265 35.7719C62.1787 35.7118 62.0875 35.6582 61.997 35.6208C61.6418 35.4743 61.5891 35.908 61.9624 35.999C62.0697 36.0252 62.169 36.0669 62.2622 36.1262C62.2786 36.1367 62.2956 36.1477 62.3128 36.1589Z" fill="#A20768"/>
<path d="M62.7101 41.0966C62.1138 40.8261 61.6321 40.847 61.757 40.2041C61.9451 39.2359 62.3157 38.0016 61.9661 38.5424C61.0819 40.1789 60.4529 40.6987 60.5538 38.8413C60.6072 37.8577 60.7182 36.8068 60.7705 36.1062C60.8078 35.6074 60.8276 35.1006 60.7913 34.6017C60.7473 33.9975 60.6301 33.3079 60.633 32.6895C60.6372 31.7469 61.7565 31.4101 62.6986 31.3801C62.7228 31.3794 62.7461 31.3784 62.7683 31.3773C63.0064 31.3657 62.8216 31.3115 62.584 31.2915C61.7659 31.2227 61.1347 30.6306 60.709 29.8158C60.0874 28.6258 59.1989 28.447 57.9237 28.0271C58.6304 28.3241 59.0815 28.4303 59.3775 28.4957C61.199 28.8984 60.6948 31.9101 60.2216 33.7146C60.1071 34.1513 59.7094 34.1254 58.4295 33.6183C58.1279 33.4988 57.6572 33.518 57.9609 33.6321C61.0363 35.1322 60.4287 34.2644 60.1558 37.6865C59.8786 41.1864 56.4868 37.607 57.1796 34.1652C57.5544 30.3108 57.1874 26.2801 57.4891 22.2905C57.5049 22.0814 57.4679 21.7566 57.3287 21.9136C55.8619 23.3794 56.9035 25.9242 56.8852 27.9977C56.8679 29.9468 56.8465 31.8881 55.8159 33.4584C55.7534 33.5449 55.8159 33.6321 55.9151 33.706C57.0236 34.3254 56.5087 35.5932 56.1841 36.819C55.8883 37.9363 55.504 38.616 54.3944 38.2924C54.1898 38.2328 53.995 38.234 53.7861 38.192C51.5603 37.7444 52.9095 36.1624 53.0873 34.512C53.0931 34.269 53.5083 34.2656 53.8963 34.2904C54.4784 34.3276 54.0727 34.1558 53.5222 33.9628C53.0692 33.8041 53.4189 33.1739 53.4988 32.7006C53.826 30.7622 53.7561 28.7636 53.7448 26.7746C53.621 22.2483 53.2863 27.7662 53.2863 29.2297C53.3174 29.5605 53.0283 29.5679 52.7113 29.5567C52.2188 29.5392 52.2921 29.8568 52.7822 29.908C53.087 29.9399 53.186 30.2583 53.1599 30.5637C52.7465 35.4006 52.3615 33.1511 50.1452 33.7574C49.9671 33.8061 49.8267 33.9658 50.0101 33.9444C50.1027 33.9336 50.2126 33.9168 50.3058 33.9175C53.585 33.9414 51.6959 34.7994 51.5673 37.0188C51.5474 37.363 51.3824 37.7026 51.0498 37.7937C50.1747 38.0337 50.1748 38.7143 51.0766 38.8148C51.2415 38.8332 51.4074 38.8464 51.5746 38.8525C51.9517 38.8446 52.2479 39.5535 52.4953 40.2081C52.7401 40.8559 53.4556 41.6131 53.2486 40.9522C52.929 39.9317 53.2832 38.9219 54.3267 39.1557C54.937 39.2925 55.5516 39.4692 55.8033 39.4974C56.4975 39.6338 56.2126 40.2907 56.1507 40.7499C56.1181 41.0961 56.161 41.4354 56.151 41.7679C56.1323 42.3836 56.1392 43.2554 56.3983 42.6965C56.5912 42.3544 56.6 41.9905 56.5921 41.6219C56.5766 40.8928 56.8161 40.0349 57.4272 40.4329C57.4804 40.4675 57.5347 40.5034 57.5896 40.5393C58.1405 40.8999 59.6021 41.0155 58.9899 41.2577C58.451 41.4102 57.9315 42.0101 57.6454 42.4802C57.3359 42.9887 57.8199 42.7197 58.2267 42.2851C58.2336 42.2777 58.2406 42.2703 58.2476 42.2629C59.0834 41.3806 60.4958 42.5747 61.5243 41.9271C61.6845 41.8262 61.8884 41.6759 62.2105 41.4878C62.4234 41.3635 62.9763 41.2395 62.76 41.1213L62.7101 41.0966ZM51.5253 38.4059C51.5036 38.4059 51.4818 38.4059 51.4576 38.4059C51.4366 38.4059 51.4286 38.3862 51.4418 38.3699C51.4473 38.363 51.4565 38.3558 51.465 38.3584C51.4825 38.3639 51.5013 38.3768 51.525 38.3803C51.5318 38.3814 51.5373 38.3868 51.5373 38.3936V38.3939C51.5373 38.4005 51.5319 38.4059 51.5253 38.4059ZM52.4771 35.2316C52.4724 35.2493 52.4518 35.2525 52.4549 35.2344C52.4552 35.2331 52.4554 35.2318 52.4557 35.2305C52.4595 35.2103 52.4823 35.2118 52.4771 35.2316ZM57.1051 32.8508C57.0953 32.6931 57.1145 32.693 57.1051 32.8508V32.8508ZM59.66 40.3652C59.654 40.3692 59.6476 40.3732 59.641 40.3771C59.6064 40.3977 59.5805 40.3611 59.6064 40.3303C59.6337 40.2978 59.7139 40.3238 59.6815 40.3513C59.6757 40.3562 59.6686 40.3609 59.66 40.3652ZM60.0194 40.6627C60.0068 40.6627 59.9947 40.6627 59.9821 40.6627C59.9794 40.6627 59.9766 40.6627 59.9736 40.6627C59.9178 40.6627 59.9086 40.6256 59.9644 40.6278C59.9791 40.6284 59.9949 40.6286 60.0123 40.6274C60.0228 40.6267 60.032 40.6348 60.032 40.6453C60.032 40.6469 60.032 40.6485 60.032 40.6501C60.032 40.6571 60.0264 40.6627 60.0194 40.6627Z" fill="#A20768"/>
<path d="M47.5075 41.9076C47.5075 41.9044 47.5064 41.9012 47.5044 41.8988C47.1095 41.4132 46.4682 41.203 45.8361 41.0598C45.5104 40.986 45.3778 40.6998 45.5072 40.3919C45.5919 40.1901 45.3912 40.0112 45.2238 40.1522C44.9849 40.3535 44.7594 40.7647 44.4966 40.9757C44.3831 41.0668 44.2303 41.109 44.1425 41.2252C44.1304 41.2412 44.12 41.2576 44.1116 41.2741C44.0089 41.4755 44.3599 41.5422 44.5821 41.5839C45.4828 41.7528 47.0679 42.1829 47.5013 41.9192C47.5053 41.9167 47.5075 41.9124 47.5075 41.9076Z" fill="#A20768"/>
<path d="M29.1482 32.0814C29.1495 32.0814 29.1499 32.0832 29.1486 32.0836C27.4361 32.6888 25.3325 32.4884 23.8733 33.53C23.8145 33.572 23.748 33.6168 23.7263 33.6858C23.6901 33.8011 24.0712 33.5874 24.145 33.5448C25.3651 33.0396 26.8053 33.0245 28.1255 32.7684C28.1423 32.7652 28.1589 32.7633 28.176 32.762C28.5385 32.7342 29.8497 32.3859 29.1482 32.0838C29.147 32.0833 29.1469 32.0814 29.1482 32.0814Z" fill="#A20768"/>
<path d="M33.2327 38.473C33.2883 37.9843 33.1402 38.0118 33.0404 38.4934C33.028 38.553 33.0154 38.6128 33.0027 38.6726C32.6111 40.5039 32.8784 40.5908 33.1953 38.7451C33.2131 38.6411 33.2208 38.5779 33.2327 38.473Z" fill="#A20768"/>
<path d="M33.6394 42.9179C33.7681 42.0939 33.2999 41.6829 33.1404 42.5015C33.1157 42.6281 33.0947 42.7557 33.0772 42.884C32.9615 43.7351 33.5069 43.7666 33.6394 42.9179Z" fill="#A20768"/>
<path d="M43.5935 14.7168C43.597 14.7133 43.5954 14.7073 43.5905 14.7064C41.0063 14.1882 35.4893 22.7843 33.8923 24.7654C32.7137 26.2288 31.7094 27.7416 30.7051 29.2669C30.0269 30.3684 30.1487 30.4015 31.0851 29.509C32.8687 27.8089 34.1932 25.55 35.4997 23.3731C35.8557 22.78 36.2614 22.2186 36.7034 21.6865C38.5277 19.4909 40.3763 17.2043 42.6093 15.2916C42.8314 15.0696 43.9761 15.1056 43.5938 14.726C43.5914 14.7236 43.591 14.7193 43.5935 14.7168Z" fill="#F9D2B3"/>
<path d="M58.5695 45.2756C58.5688 45.2756 58.5682 45.2755 58.5676 45.2754C58.1145 45.1762 57.6829 45.4883 57.2343 45.7732C56.4968 46.2415 55.5732 46.1675 54.703 46.2451C51.7524 46.5082 48.8074 47.3515 46.032 48.0535C42.7829 48.5493 41.5803 51.4636 44.6677 50.645C46.9492 49.69 49.1939 48.5493 51.7236 47.9297C53.7912 47.2613 57.9343 47.5441 58.5779 45.287C58.5795 45.2814 58.5753 45.2756 58.5695 45.2756ZM44.482 50.4221C44.4843 50.4213 44.4865 50.4204 44.4886 50.4193C44.5279 50.4008 44.5231 50.4079 44.482 50.4221ZM44.7243 48.8068C44.7202 48.8088 44.7153 48.8102 44.7108 48.8101C44.7105 48.8101 44.7103 48.8101 44.71 48.8101C44.6889 48.8096 44.6878 48.79 44.7074 48.7823C44.74 48.7695 44.7555 48.7912 44.7243 48.8068ZM45.6227 49.9383C45.541 49.9753 45.544 49.9813 45.6227 49.9383V49.9383ZM48.8838 48.5493C48.9482 48.5209 48.9506 48.5271 48.8838 48.5493V48.5493ZM50.8821 47.5072C50.8809 47.5076 50.8798 47.5078 50.8785 47.5078C50.8628 47.5077 50.8469 47.5075 50.8345 47.5005C50.8248 47.4951 50.8314 47.4831 50.8425 47.4831C50.8541 47.483 50.8652 47.4829 50.8762 47.4827C50.8903 47.4823 50.8955 47.5027 50.8821 47.5072ZM51.0168 47.8179C51.0847 47.7924 51.0867 47.7988 51.0168 47.8179V47.8179ZM52.8397 46.9873C52.9109 46.9678 52.9109 46.9678 52.8397 46.9873V46.9873ZM58.3329 45.3898C58.3329 45.3885 58.3318 45.3874 58.3305 45.3874C58.326 45.3874 58.3233 45.3872 58.3207 45.386C58.3132 45.3825 58.316 45.3711 58.3236 45.3678C58.3311 45.3646 58.3392 45.3614 58.3473 45.3581C58.3563 45.3545 58.3631 45.3654 58.3559 45.3719C58.3491 45.3779 58.3431 45.384 58.3381 45.3912C58.3367 45.3933 58.3329 45.3923 58.3329 45.3898Z" fill="#F9D2B3"/>
<path d="M65.6054 45.2196C65.6079 45.2222 65.6123 45.2207 65.6127 45.2171C66.0365 41.1443 65.8018 36.9765 64.7817 32.8606C64.6189 32.2037 64.5688 31.5248 64.54 30.8486C64.452 28.777 63.6039 26.8898 62.4625 25.0755C62.3441 24.8397 62.3616 25.2184 62.4659 25.4608C62.6315 25.8456 62.7662 26.2357 62.8715 26.6304C63.5357 29.121 63.4067 31.7839 64.1853 34.2411C64.5886 35.5136 64.9525 36.7889 65.1285 38.0958C65.1746 38.4124 65.1858 38.8277 65.1722 39.2315C65.1651 39.4432 64.9463 39.4352 64.8397 39.2521C64.8337 39.2418 64.8257 39.2314 64.8176 39.2226C62.73 36.9495 62.1281 40.5948 61.2626 41.9123C61.2057 41.9988 61.1321 42.0744 61.0539 42.1424C60.0167 43.0453 60.6339 43.5563 61.3901 42.4077C61.864 41.6877 62.2518 40.9162 62.5587 40.1691C62.6799 39.8741 62.7148 39.5294 62.9208 39.2859C63.2026 38.9529 63.6898 38.7731 63.5409 39.0428C63.4514 39.2047 63.3436 39.3033 63.2858 39.479C62.7897 40.9874 64.4931 45.6842 63.9034 47.1584C63.3369 48.5745 62.4685 49.876 61.1339 50.8107C60.9806 50.918 60.614 51.0797 60.7638 51.1919C60.9304 51.3166 62.708 50.4541 62.9337 50.3721C65.3107 49.6544 65.2645 47.0072 65.5982 45.2216C65.5989 45.2182 65.6031 45.2171 65.6054 45.2196ZM63.3922 30.1968C63.3922 30.222 63.3796 30.3085 63.3796 30.3212C63.382 30.2804 63.3845 30.2392 63.3871 30.1977C63.3937 30.0933 63.3922 30.0922 63.3922 30.1968ZM64.3593 33.4957C64.2853 33.229 64.3441 33.325 64.4007 33.4852C64.4286 33.564 64.3923 33.5724 64.3593 33.4957ZM64.6666 41.7473C64.6561 41.7745 64.6304 41.7666 64.639 41.7387C64.6485 41.7076 64.6783 41.7169 64.6666 41.7473Z" fill="#F9D2B3"/>
<path d="M50.3347 15.7254C50.8306 11.311 46.0694 14.0143 45.2628 16.5067C45.1757 16.7139 45.3605 16.528 45.4742 16.3342C46.9141 13.8792 50.3498 12.3736 50.2659 15.2878C50.2382 16.2534 50.4002 16.6772 50.3347 15.7134V15.7254Z" fill="#F9D2B3"/>
<path d="M60.8569 23.9102C60.8603 23.9102 60.863 23.9087 60.8637 23.9054C60.9319 23.6081 60.8899 22.1926 60.6931 21.3464C60.5473 20.7195 60.1176 21.1512 60.0533 21.7917C60.0026 22.2972 59.9377 22.7952 59.7712 23.3026C59.5733 23.9088 60.795 24.9589 60.8496 23.9176C60.8498 23.9137 60.853 23.9102 60.8569 23.9102Z" fill="#F9D2B3"/>
<path d="M30.7796 54.9565C30.7796 54.9512 30.7777 54.9461 30.7743 54.942C29.1496 53.0479 26.6613 51.6842 25.3729 49.5169C25.2365 49.3306 25.1127 49.4298 25.1992 49.6035C26.2909 51.7628 28.6524 53.1033 30.3334 54.8432C30.4082 54.9207 30.4713 55.0151 30.5679 55.0625C30.689 55.1219 30.8304 55.111 30.7809 54.9641C30.7801 54.9617 30.7796 54.959 30.7796 54.9565Z" fill="#A20768"/>
<path d="M31.3534 29.8803C31.9267 30.126 32.0374 29.8925 31.4594 29.6581C31.1339 29.5262 30.9805 29.5194 31.1719 29.7496C31.2217 29.8094 31.2819 29.8497 31.3534 29.8803Z" fill="#A20768"/>
<path d="M21.5175 51.6932C21.4597 51.6637 21.4341 51.7562 21.4145 51.8181C21.182 52.5534 20.6465 53.0802 19.9963 53.5124C18.4561 54.5364 18.1578 55.1004 19.7023 54.0828C20.7242 53.4096 21.6918 52.5561 21.6347 51.9878C21.6242 51.8835 21.6109 51.7407 21.5175 51.6932Z" fill="#E59F76"/>
<path d="M20.6512 55.3878C22.4167 53.8785 22.0799 53.9583 20.1974 55.3189C19.1161 56.1004 19.0217 56.6803 20.0739 55.8601C20.262 55.7135 20.4563 55.5545 20.6512 55.3878Z" fill="#E59F76"/>
<path d="M35.8547 58.9661C35.8585 58.9661 35.8606 58.9614 35.8584 58.9583C35.619 58.5964 35.4326 59.3528 35.348 59.5808C35.3373 59.6096 35.326 59.6374 35.317 59.6667C34.8408 61.225 34.401 63.4134 35.562 64.8002C35.6873 64.9498 35.9286 64.9784 35.9424 64.7838C35.9502 64.6743 35.9003 64.5752 35.8361 64.486C34.6541 62.8427 35.4158 60.7186 35.85 58.9698C35.8506 58.9676 35.8525 58.9661 35.8547 58.9661Z" fill="#E59F76"/>
<path d="M31.7947 54.3378C32.0094 54.1418 31.7626 54.1209 31.526 54.2897C31.0831 54.6058 31.3094 54.7526 31.7238 54.4001C31.7486 54.379 31.7723 54.3582 31.7947 54.3378Z" fill="#A20768"/>
<path d="M53.038 17.9086C53.0599 17.6817 53.0491 17.482 53.0137 17.3079C52.5933 15.2446 50.7947 18.6304 50.3813 20.6952C50.3525 20.839 50.3386 20.9807 50.3439 21.1192C50.3568 21.4587 50.6982 21.7277 50.6011 22.0533C50.5523 22.2169 50.4232 22.3751 50.356 22.5321C50.3332 22.5853 50.3142 22.6406 50.3006 22.6947C50.1869 23.1462 50.857 22.9094 51.1765 22.5708C52.3287 21.3498 52.9073 19.4524 53.038 17.9086Z" fill="#F6C6A1"/>
<path d="M48.5352 18.2603C50.0263 16.5003 48.3682 15.5237 47.5091 17.6645C47.4258 17.8721 47.3666 18.0653 47.3403 18.2321C47.2357 18.896 48.1008 18.773 48.5352 18.2603ZM49.507 15.3846C49.4963 15.4332 49.4506 15.43 49.463 15.3818C49.4643 15.3769 49.4658 15.372 49.4674 15.3672C49.4799 15.3299 49.5154 15.3462 49.507 15.3846Z" fill="#F6C6A1"/>
<path d="M48.2229 26.8843C49.0636 25.8446 47.9818 24.8476 47.2625 25.9747C47.0525 26.3039 46.8248 26.601 46.8007 26.9907C46.7562 27.7072 47.6136 27.6378 48.2229 26.8843ZM47.2203 26.7736C47.2086 26.7886 47.1852 26.7892 47.1694 26.7786C47.1561 26.7696 47.1544 26.7526 47.1632 26.7391C47.1652 26.7359 47.1673 26.7328 47.1693 26.7296C47.1971 26.6865 47.2625 26.7071 47.2359 26.751C47.2313 26.7586 47.2261 26.7661 47.2203 26.7736ZM48.2905 25.1997C48.3061 25.1864 48.3267 25.2114 48.3083 25.2205C48.305 25.2222 48.3014 25.2236 48.2975 25.2246C48.2834 25.2282 48.2795 25.2092 48.2905 25.1997Z" fill="#F6C6A1"/>
<path d="M45.1164 30.3707C45.119 30.3707 45.1199 30.3672 45.1176 30.366C44.4168 30.0059 42.8455 31.5403 42.7596 32.3069C42.7514 32.3802 42.7454 32.4548 42.7549 32.5279C42.7566 32.5412 42.7592 32.5537 42.7626 32.5654C42.8568 32.8929 43.4413 32.8135 43.7449 32.6587C44.4212 32.3139 45.0429 30.8208 45.114 30.3726C45.1142 30.3714 45.1152 30.3707 45.1164 30.3707Z" fill="#F6C6A1"/>
<path d="M55.8898 20.2969C55.8898 20.2928 55.886 20.2897 55.882 20.2903C54.5411 20.5098 54.0844 21.972 54.0431 23.0913C54.0355 23.2978 54.071 23.5043 54.063 23.7107C54.058 23.8391 54.0418 23.9824 54.022 24.1326C53.8381 25.5278 54.9372 25.2041 54.7282 23.8125C54.5623 22.7081 54.4546 21.4391 55.6242 20.6082C55.6674 20.5776 55.7176 20.5551 55.7663 20.5342C55.9006 20.4768 56.0724 20.365 55.8946 20.3033C55.8919 20.3024 55.8898 20.2997 55.8898 20.2969ZM54.4639 24.8646C54.4707 24.8646 54.4762 24.859 54.4762 24.8522C54.4762 24.8317 54.4762 24.8112 54.4762 24.7906C54.4881 24.9072 54.5106 25.0238 54.5032 25.1509C54.5024 25.1644 54.4912 25.1747 54.4777 25.1747C54.4634 25.1747 54.4516 25.163 54.4516 25.1486V24.8769C54.4516 24.8701 54.4571 24.8646 54.4639 24.8646Z" fill="#F6C6A1"/>
<path d="M59.3991 20.5001C59.1635 20.4502 58.2831 21.2315 58.5066 20.9214C58.6184 20.7603 58.5313 20.6858 58.3828 20.8102C57.6804 21.4049 57.1047 22.5888 57.1325 23.5438C57.1576 24.4076 57.9906 24.5447 57.9759 23.6807C57.9602 22.7507 58.4259 21.6295 59.1695 21.0708C59.54 20.7925 59.7893 20.5698 59.3991 20.5001Z" fill="#F6C6A1"/>
<path d="M59.1325 29.7689C59.1284 29.7649 59.1254 29.7593 59.1238 29.7538C58.4786 27.3764 57.1429 30.1115 57.6015 31.2508C57.7127 31.6355 57.3905 32.4535 58.0108 32.516C58.8498 32.553 59.2711 30.3432 59.1409 29.7836C59.1395 29.7778 59.1367 29.7731 59.1325 29.7689Z" fill="#F6C6A1"/>
<path d="M55.7603 28.2502C55.7562 28.2502 55.7524 28.2475 55.751 28.2436C55.5202 27.605 54.4693 27.689 54.1381 28.2311C54.035 28.3999 54.0556 28.6096 54.0624 28.8073C54.0709 29.0527 54.0618 29.3046 54.0482 29.5576C53.9865 30.7148 54.7609 31.1462 55.2753 30.1077C55.6487 29.3539 55.9057 28.5088 55.7686 28.2549C55.7669 28.2518 55.7638 28.2502 55.7603 28.2502Z" fill="#F6C6A1"/>
<path d="M40.6205 42.126C40.8715 41.8951 40.6272 41.4085 40.287 41.3851C39.5797 41.3366 40.0221 42.5849 40.5858 42.1551C40.5979 42.1459 40.6095 42.1362 40.6205 42.126ZM39.855 41.9328C39.8493 41.9281 39.844 41.9217 39.8441 41.9143C39.8441 41.9138 39.8441 41.9134 39.8441 41.9129C39.8444 41.8973 39.8576 41.8993 39.8612 41.9144C39.8621 41.9181 39.8631 41.9217 39.8644 41.9251C39.8684 41.9363 39.8642 41.9404 39.855 41.9328ZM40.26 41.846C40.2571 41.904 40.202 41.9548 40.1722 41.9051C40.1432 41.8568 40.1443 41.7977 40.186 41.7691C40.2259 41.7417 40.2624 41.7977 40.26 41.846Z" fill="#A20768"/>
<path d="M40.8613 41.5741C40.8751 41.5636 40.879 41.5443 40.8696 41.5297C40.7053 41.275 40.4166 41.16 40.1043 41.2083C39.7821 41.2576 39.5958 41.4066 39.4846 41.6422C39.3728 41.8778 39.3729 41.9896 39.4594 42.126C39.5465 42.2625 39.6583 42.3364 39.7821 42.3863C40.0304 42.4981 40.3279 42.4981 40.5755 42.3737C40.8237 42.2498 40.8111 42.2126 40.861 42.0888C40.9102 41.9644 40.9355 41.766 40.8856 41.605C40.8363 41.4439 40.7492 41.4439 40.6626 41.4812C40.5755 41.5184 40.5015 41.605 40.5382 41.7041C40.5755 41.8033 40.5508 41.754 40.5635 41.7787C40.5698 41.7916 40.5635 41.7832 40.5635 41.7688C40.5635 41.764 40.5635 41.7615 40.5635 41.766C40.5635 41.7787 40.5635 41.7913 40.5635 41.8159C40.5635 41.8406 40.5635 41.8406 40.5635 41.8532C40.5635 41.8159 40.5635 41.8904 40.5635 41.8532C40.5635 41.8904 40.5635 41.9025 40.5508 41.9151C40.5382 41.9277 40.5755 41.8778 40.5508 41.9151C40.5262 41.9523 40.5508 41.9397 40.5382 41.9397C40.5262 41.9397 40.5382 41.9523 40.5262 41.9644C40.5015 42.0016 40.5508 41.9397 40.5262 41.9644C40.5015 41.9896 40.5015 41.9896 40.4889 42.0143C40.4889 42.0144 40.4888 42.0145 40.4887 42.0147C40.4838 42.0241 40.4858 42.0221 40.4763 42.0269C40.4517 42.0389 40.4763 42.0269 40.4643 42.0269C40.4517 42.0269 40.427 42.0515 40.4144 42.0641C40.4024 42.0762 40.3898 42.0641 40.3771 42.0762C40.3651 42.0762 40.4024 42.0762 40.4024 42.0762C40.4024 42.0762 40.3898 42.0762 40.3771 42.0762C40.3279 42.0888 40.2906 42.1008 40.2407 42.1134C40.1914 42.126 40.2906 42.1134 40.2407 42.1134C40.1914 42.1134 40.2161 42.1134 40.2034 42.1134C40.1788 42.1134 40.1542 42.1134 40.1295 42.1134C40.1043 42.1134 40.1043 42.1134 40.0923 42.1134C40.0796 42.1134 40.0923 42.1134 40.0796 42.1134C40.055 42.1134 40.1169 42.1134 40.0923 42.1134C40.067 42.1134 40.0424 42.1134 40.0177 42.1008C39.9931 42.0888 39.9678 42.0888 39.9558 42.0762C39.9186 42.0641 39.9805 42.0888 39.9558 42.0762C39.9327 42.0651 39.903 42.0634 39.8836 42.0466C39.8756 42.0396 39.8672 42.032 39.8567 42.0269C39.8314 42.0142 39.8068 42.0016 39.844 42.0269C39.8813 42.0515 39.844 42.0269 39.8314 42.0143C39.8194 42.0016 39.7948 41.977 39.7821 41.9644C39.7695 41.9523 39.7821 41.9644 39.7821 41.977C39.7821 41.9896 39.7821 42.0269 39.7821 42.0143C39.7821 42.0016 39.7821 42.0016 39.7821 41.9896C39.7821 41.977 39.7821 41.9277 39.7821 41.9151C39.7821 41.9025 39.7821 41.9523 39.7821 41.9397C39.7821 41.9277 39.7821 41.9397 39.7821 41.9277C39.7821 41.9151 39.7821 41.9025 39.7821 41.8904C39.7821 41.8778 39.7821 41.8652 39.7821 41.8652C39.7575 41.9025 39.7821 41.8406 39.7821 41.8652C39.8065 41.829 39.8068 41.8285 39.8189 41.8043C39.8192 41.8036 39.8194 41.8029 39.8194 41.8022C39.8194 41.7982 39.8145 41.7962 39.8116 41.799C39.8056 41.8049 39.7995 41.8109 39.8068 41.8033C39.8235 41.7874 39.836 41.7671 39.8533 41.7518C39.8636 41.7428 39.8743 41.7358 39.8813 41.7288C39.8859 41.7244 39.8871 41.7232 39.8875 41.7235C39.8928 41.7271 39.8928 41.7296 39.8983 41.7264C39.9123 41.7182 39.9279 41.6998 39.9422 41.6922C39.958 41.6839 39.972 41.6754 39.9805 41.6669C39.9835 41.664 39.9865 41.6625 39.9895 41.6617C40.0081 41.6569 39.9931 41.6548 39.9931 41.6548C39.9931 41.6548 39.9931 41.6548 40.0051 41.6548C40.0304 41.6548 40.055 41.6422 40.0796 41.6296C40.1043 41.6176 40.1043 41.6296 40.1169 41.6296C40.1295 41.6296 40.1295 41.6296 40.1415 41.6296C40.1668 41.6296 40.1415 41.6296 40.1295 41.6296C40.1542 41.6296 40.1914 41.6296 40.2161 41.6296C40.2407 41.6296 40.2407 41.6296 40.2533 41.6296H40.278C40.278 41.6296 40.2287 41.6296 40.266 41.6296C40.3026 41.6296 40.3152 41.6296 40.3399 41.6548C40.3432 41.6581 40.3463 41.6605 40.3492 41.6622C40.3626 41.6703 40.3509 41.6601 40.3651 41.6669C40.3898 41.6795 40.3771 41.6669 40.3898 41.6669C40.4024 41.6669 40.4144 41.6795 40.427 41.6921C40.439 41.7041 40.4643 41.7168 40.439 41.6921C40.4144 41.6669 40.439 41.6921 40.4517 41.7041C40.4517 41.7041 40.4763 41.7288 40.4889 41.7414C40.5015 41.754 40.4889 41.7414 40.4889 41.754C40.4643 41.7168 40.5015 41.766 40.4889 41.754C40.5054 41.779 40.5202 41.8062 40.5413 41.8274C40.6005 41.8869 40.7005 41.9056 40.7738 41.8532C40.8529 41.797 40.8909 41.7102 40.851 41.6205C40.8438 41.6043 40.8471 41.5848 40.8613 41.5741Z" fill="#A20768"/>
<path d="M40.0303 41.9773C40.0303 41.9527 40.0303 41.928 40.0424 41.9028L39.7825 41.8672C39.7298 41.8599 39.6787 41.9021 39.695 41.9527C39.7046 41.981 39.7251 41.9885 39.7488 41.9702L39.9749 41.7959C39.9767 41.7945 39.9806 41.7917 39.9783 41.7914C39.9755 41.791 39.9712 41.7891 39.9736 41.7907L39.9919 41.8028C39.9927 41.8033 39.9926 41.8036 39.9916 41.8036C39.9908 41.8036 39.9896 41.8036 39.9877 41.8036C39.9831 41.8036 39.9786 41.8018 39.975 41.7989C39.9667 41.7924 39.9553 41.7857 39.9427 41.779C39.927 41.7705 39.9091 41.7667 39.8916 41.7628C39.8757 41.7592 39.8597 41.7543 39.844 41.7543C39.8298 41.7543 39.8156 41.7543 39.8013 41.7567C39.7796 41.7601 39.7583 41.7646 39.7412 41.7783C39.7206 41.7948 39.6999 41.8152 39.6854 41.8372L39.683 41.8409C39.6703 41.8655 39.6583 41.9028 39.6583 41.9401C39.6583 41.9731 39.6625 42.0068 39.6805 42.0345C39.6807 42.0349 39.681 42.0354 39.6813 42.0358C39.6989 42.0627 39.7191 42.0882 39.7449 42.1074C39.7519 42.1127 39.7589 42.1179 39.7659 42.1237C39.7771 42.133 39.7887 42.1418 39.8016 42.1484C39.8212 42.1584 39.8429 42.1636 39.8649 42.1636H39.8813C39.8939 42.1636 39.9186 42.1636 39.9306 42.1636C39.9383 42.1636 39.9459 42.1625 39.9531 42.1602C39.9845 42.1501 40.0065 42.1119 40.0303 42.0891C40.0303 42.0891 40.055 42.0645 40.055 42.0518C40.055 42.0392 40.067 42.0272 40.067 42.002C40.067 41.9773 40.067 41.9527 40.067 41.928C40.067 41.9181 40.0652 41.9083 40.0622 41.8986C40.0585 41.8867 40.0424 41.8903 40.0424 41.9028C40.0424 41.9028 40.0424 41.8908 40.0424 41.8782C40.0424 41.8639 40.0424 41.8497 40.0401 41.8354C40.0366 41.8137 40.0321 41.7924 40.0184 41.7753C40.0019 41.7548 39.9815 41.7341 39.9595 41.7195L39.9558 41.7171C39.9306 41.7045 39.9059 41.6924 39.8813 41.6924C39.8687 41.6924 39.844 41.6924 39.8314 41.6924C39.8128 41.6924 39.7942 41.6924 39.7756 41.703C39.7623 41.7106 39.7511 41.7213 39.7383 41.7298C39.7263 41.7377 39.7147 41.7465 39.7057 41.7577C39.7025 41.7618 39.6995 41.766 39.6967 41.7703C39.6735 41.8061 39.6641 41.8498 39.659 41.8922C39.6586 41.8957 39.6583 41.8993 39.6583 41.9028C39.6583 41.928 39.6583 41.9527 39.6583 41.9773C39.6583 41.9868 39.6583 41.9963 39.6597 42.0058C39.6645 42.0391 39.6826 42.0733 39.7116 42.0903C39.7237 42.0975 39.7372 42.1065 39.749 42.1141C39.7517 42.1158 39.7545 42.1175 39.7574 42.1192C39.7813 42.1331 39.8091 42.1384 39.8367 42.1384H39.844C39.8813 42.1384 39.9059 42.1384 39.9432 42.1138L39.9483 42.1104C39.9697 42.0962 39.9909 42.0808 40.0046 42.0592C40.0112 42.0488 40.0167 42.0377 40.0218 42.0251C40.028 42.01 40.0303 41.9936 40.0303 41.9773Z" fill="#A20768"/>
<path d="M40.3278 41.7916C40.3216 41.7916 40.3196 41.8 40.3252 41.8028L40.3525 41.8162C40.3514 41.8162 40.3502 41.8162 40.3491 41.8162C40.3371 41.816 40.3424 41.8096 40.3525 41.8162C40.3525 41.8162 40.3278 41.8036 40.3278 41.7916L40.3525 41.8289C40.3525 41.8289 40.3399 41.8036 40.3278 41.7916L40.3358 41.8075C40.34 41.8158 40.3525 41.8129 40.3525 41.8036V41.8535C40.3525 41.8535 40.3525 41.8409 40.3525 41.8289V41.8781C40.3525 41.8781 40.3525 41.8655 40.3525 41.8535L40.3282 41.9021C40.328 41.9025 40.3278 41.9033 40.3278 41.9028C40.3278 41.8994 40.3235 41.8972 40.3216 41.9L40.3032 41.9271C40.3029 41.9276 40.3021 41.9285 40.3026 41.928C40.304 41.9266 40.303 41.9235 40.3013 41.9246L40.2791 41.9393C40.2783 41.9398 40.2784 41.94 40.2793 41.94C40.2794 41.94 40.2795 41.94 40.2796 41.94C40.2853 41.94 40.2871 41.9478 40.282 41.9503L40.2754 41.9537C40.2699 41.9564 40.2718 41.9647 40.278 41.9647H40.2287C40.2407 41.9647 40.2533 41.9647 40.278 41.9647L40.1339 41.7692C40.1245 41.7565 40.1043 41.7631 40.1043 41.779C40.1043 41.8162 40.1043 41.8535 40.1043 41.8908C40.1043 41.928 40.1043 41.928 40.1043 41.9527C40.1043 41.9899 40.1043 42.0272 40.1169 42.0518C40.123 42.0638 40.135 42.0846 40.1499 42.1058C40.1803 42.1488 40.2253 42.1883 40.278 42.1883C40.3274 42.1883 40.3806 42.1876 40.4196 42.1571C40.4373 42.1433 40.4521 42.1252 40.4643 42.1011C40.4889 42.0518 40.5015 42.0019 40.4889 41.9527C40.4763 41.9028 40.4889 41.928 40.4889 41.9028V41.9527C40.4889 41.9154 40.4889 41.8655 40.4889 41.8289V41.8781C40.4889 41.8655 40.4889 41.8409 40.4889 41.8289C40.4889 41.7916 40.4889 41.7664 40.4889 41.7291C40.4889 41.7275 40.4889 41.7259 40.4888 41.7243C40.4857 41.6781 40.444 41.6382 40.4024 41.6179C40.3771 41.6053 40.3399 41.5933 40.3026 41.5933C40.2659 41.5933 40.2407 41.5933 40.2034 41.5933C40.1668 41.5933 40.1542 41.6053 40.1295 41.6179C40.1043 41.6299 40.0796 41.6425 40.067 41.6672C40.0424 41.7044 40.0177 41.7291 40.0051 41.779C39.9931 41.8289 40.0051 41.8036 40.0051 41.8162C40.0051 41.8289 40.0051 41.8409 40.0051 41.8535C40.0051 41.8781 40.0051 41.8908 40.0051 41.9154C40.0051 41.9274 40.0063 41.934 40.0105 41.9452C40.0264 41.9888 40.0593 42.0315 40.0922 42.0645C40.1295 42.1011 40.1415 42.1011 40.1668 42.1137C40.1914 42.1264 40.2034 42.1384 40.2287 42.1384C40.2533 42.1384 40.2407 42.1384 40.2533 42.1384C40.278 42.1384 40.3026 42.1384 40.3278 42.1384C40.3371 42.1384 40.3464 42.1384 40.3557 42.1371C40.3894 42.1323 40.4237 42.1139 40.441 42.0845C40.4478 42.0728 40.4568 42.0597 40.4641 42.0482C40.4656 42.0459 40.4671 42.0434 40.4686 42.0408C40.4831 42.0159 40.4895 41.9869 40.4883 41.9581C40.4868 41.9232 40.4816 41.8882 40.4643 41.8535C40.445 41.8155 40.4192 41.7921 40.3859 41.7776C40.3659 41.7688 40.3431 41.776 40.3278 41.7916Z" fill="#A20768"/>
<path d="M38.2839 41.5481C39.0159 41.2203 38.517 39.9301 37.7259 40.0619C37.5605 40.0895 37.404 40.1598 37.2801 40.2616C36.6747 40.7589 37.5689 41.8683 38.2839 41.5481Z" fill="#A20768"/>
<path d="M35.6118 38.9636C36.4848 39.7948 36.6487 37.1692 35.6526 37.848C35.1976 38.2314 35.3097 38.6761 35.6118 38.9636Z" fill="#A20768"/>
<path d="M35.4669 35.6534C34.45 34.7476 33.3958 36.2856 34.2889 36.9924C35.3058 37.6746 36.4586 36.4221 35.4669 35.6534Z" fill="#A20768"/>
<path d="M33.6313 32.9002C32.6144 32.1814 31.5609 33.5577 32.6024 34.1899C33.4576 34.7603 34.5737 33.4585 33.6313 32.9002ZM33.1923 33.4015C33.1956 33.3983 33.1999 33.3966 33.2045 33.3966H33.2069C33.2153 33.3966 33.2218 33.3962 33.2224 33.4045C33.2233 33.418 33.2115 33.4459 33.198 33.4459C33.188 33.4459 33.1783 33.4459 33.1682 33.4459C33.1562 33.4459 33.1494 33.432 33.1579 33.4235C33.1589 33.4225 33.1608 33.4209 33.162 33.4203L33.1807 33.4107C33.1834 33.4093 33.1859 33.4076 33.1881 33.4054L33.1923 33.4015Z" fill="#A20768"/>
<path d="M30.9905 30.8663C28.4855 30.2341 29.4898 33.5949 31.3126 32.4536C31.9695 32.0449 31.8211 31.0028 30.9905 30.8663Z" fill="#A20768"/>
<path d="M50.3302 44.4307C50.9067 44.2778 50.5107 43.2896 49.9352 43.4461C49.4562 43.5764 49.3808 44.3192 49.8633 44.4356C50.0151 44.4721 50.1828 44.4698 50.3302 44.4307Z" fill="#A20768"/>
<path d="M46.5529 44.6972C47.4884 44.6586 47.1718 43.058 46.2539 43.243C45.7424 43.3462 45.5212 44.0504 45.8735 44.4354C46.0428 44.6206 46.2975 44.7078 46.5529 44.6972ZM46.3138 43.9739C46.2947 43.9553 46.3008 43.927 46.3275 43.9261C46.3791 43.9245 46.3914 43.9983 46.3407 43.9882C46.3308 43.9862 46.3217 43.9816 46.3138 43.9739Z" fill="#A20768"/>
<path d="M60.1721 53.4077C61.0115 52.881 60.5839 51.5556 59.6634 51.9227C58.5658 52.3605 58.8575 54.0587 59.9222 53.5459C60.0074 53.5048 60.0913 53.4584 60.1721 53.4077Z" fill="#A20768"/>
<path d="M57.4351 54.8955C58.0412 54.458 57.4241 53.6021 56.7154 53.8397C56.6969 53.8459 56.6786 53.8524 56.6603 53.8592C55.7006 54.2182 56.6043 55.4952 57.4351 54.8955ZM56.7211 54.3035C56.7307 54.3035 56.7399 54.3044 56.7488 54.3061C56.7594 54.3081 56.754 54.3287 56.7432 54.3283C56.7384 54.3281 56.7331 54.3241 56.7316 54.3196C56.7292 54.3124 56.7233 54.3035 56.7085 54.3035H56.7211Z" fill="#A20768"/>
<path d="M54.0388 54.882C54.0407 54.884 54.0405 54.8872 54.0385 54.889C53.3335 55.5284 53.4292 55.7506 52.4169 55.897C52.189 55.9299 51.7862 55.9402 51.8272 56.1669C51.8719 56.4146 53.4005 56.342 53.8462 56.0536C53.9339 55.9968 54.0059 55.9127 54.0811 55.8402C54.3931 55.5395 54.6405 54.9041 54.0428 54.8741C54.0385 54.8739 54.0357 54.879 54.0388 54.882Z" fill="#A20768"/>
<path d="M48.8237 55.9705C48.6696 57.4136 49.3579 54.4283 48.8592 55.7912C48.8413 55.855 48.8296 55.9148 48.8237 55.9705ZM49.2089 56.363C49.2074 56.3621 49.2062 56.3612 49.2049 56.3599C49.1904 56.3454 49.2067 56.3241 49.2271 56.327C49.2639 56.3323 49.3021 56.3318 49.3372 56.3359C49.3837 56.3414 49.3766 56.3904 49.3298 56.3912C49.2862 56.392 49.2438 56.3832 49.2089 56.363Z" fill="#A20768"/>
<path d="M45.9449 55.7788C45.7219 55.283 44.7423 55.072 44.4568 55.6424C43.9982 56.6593 46.3788 56.9694 45.9449 55.7788Z" fill="#A20768"/>
<path d="M42.2944 55.6709C42.2396 55.5903 42.1155 55.5543 42.0198 55.5358C41.7757 55.4885 41.5163 55.4745 41.2612 55.4945C40.5612 55.5492 40.1564 56.399 40.853 56.487C41.0615 56.5133 41.2896 56.4982 41.4889 56.4437C41.8737 56.3384 42.519 56.0007 42.2944 55.6709Z" fill="#A20768"/>
<path d="M37.2366 56.5142C37.8498 56.6929 37.355 55.7173 37.6358 55.1436C37.7356 54.9397 37.4203 54.9136 37.1987 54.9634C36.8669 55.038 36.5927 55.3093 36.5084 55.5803C36.3175 55.9953 36.819 56.3926 37.2366 56.5142ZM37.3656 56.2773C37.3648 56.2756 37.3656 56.2745 37.3637 56.2745C37.3584 56.2745 37.3536 56.2662 37.3579 56.2632C37.3703 56.2544 37.3818 56.244 37.3906 56.2354C37.3964 56.2298 37.4056 56.2297 37.4109 56.2357C37.416 56.2415 37.4205 56.2472 37.4245 56.253C37.4386 56.2732 37.4218 56.2997 37.3972 56.2997C37.3947 56.2997 37.3924 56.2997 37.3902 56.2997C37.3817 56.2997 37.3739 56.2948 37.3702 56.2871L37.3656 56.2773Z" fill="#A20768"/>
<path d="M35.2932 55.7416C34.7102 55.134 33.6441 55.7915 34.0035 56.4484C34.5366 57.4154 35.9628 56.4983 35.2932 55.7416ZM34.7475 56.1383C34.5699 56.4347 34.5811 56.2351 34.6869 56.098C34.7238 56.0501 34.7751 56.0844 34.7475 56.1383Z" fill="#A20768"/>
<path d="M32.9526 56.1384C32.9504 56.1384 32.9481 56.1382 32.946 56.1377C32.37 56.0137 31.7958 56.8504 32.1313 57.2424C32.2485 57.3793 32.4122 57.51 32.5749 57.5874C32.7548 57.673 32.7191 57.3944 32.7191 57.1952C32.7191 56.7514 33.2896 56.3694 32.9699 56.1439C32.965 56.1405 32.9587 56.1384 32.9526 56.1384Z" fill="#A20768"/>
<path d="M28.2746 53.9561C28.1733 53.7708 27.8721 53.5968 27.5961 53.551C27.3743 53.5142 27.2879 53.7064 27.3158 53.9295C27.325 54.0031 27.3038 54.0818 27.3221 54.1536C27.4659 54.7169 28.6132 54.634 28.2746 53.9561ZM27.605 53.9561C27.6134 53.9478 27.6198 53.9376 27.6276 53.9287C27.694 53.8525 27.9194 53.9068 27.7277 53.9416C27.7207 53.9429 27.713 53.9429 27.7063 53.9453C27.6994 53.9477 27.6933 53.9523 27.6879 53.9585C27.6485 54.0034 27.5628 53.9984 27.605 53.9561Z" fill="#A20768"/>
<path d="M25.2666 52.6068C26.1087 52.7936 24.3973 51.8276 24.9882 52.4559C25.0836 52.5393 25.1778 52.5871 25.2666 52.6068Z" fill="#A20768"/>
<path d="M24.7963 50.9987C24.7922 50.9945 24.7895 50.989 24.7885 50.9832C24.7697 50.8747 24.6799 50.8418 24.5824 50.8212C24.4655 50.7965 24.3656 50.7304 24.2596 50.6753C23.9287 50.5033 23.5341 50.701 23.5128 51.0668C23.4882 51.8941 24.903 51.7621 24.8038 51.0139C24.803 51.0082 24.8004 51.0027 24.7963 50.9987Z" fill="#A20768"/>
<path d="M23.0343 50.3396C22.9399 50.0232 22.6621 49.8021 22.4195 49.5781C21.843 49.0462 20.9456 49.793 21.4375 50.4041C21.9476 51.0378 23.2442 51.044 23.0343 50.3396ZM22.3686 50.3585C22.3664 50.3771 22.3466 50.384 22.3288 50.378C22.2959 50.3669 22.2976 50.3492 22.319 50.3323C22.3387 50.3168 22.3714 50.3335 22.3686 50.3585Z" fill="#A20768"/>
<path d="M19.4211 47.2348C19.9179 48.5091 18.9249 45.7744 19.3498 47.0744C19.3664 47.1253 19.3899 47.1788 19.4211 47.2348Z" fill="#A20768"/>
<path d="M19.0503 45.147C19.9346 46.046 18.7639 43.4099 18.8501 44.668C18.86 44.873 18.937 45.0319 19.0503 45.147ZM19.6068 45.1272C19.6042 45.1272 19.6016 45.1271 19.599 45.127C19.5825 45.1262 19.5885 45.1027 19.6037 45.109C19.6064 45.1101 19.6091 45.1113 19.6116 45.1127C19.6197 45.1169 19.6159 45.1272 19.6068 45.1272Z" fill="#A20768"/>
<path d="M20.3136 43.0186C20.1771 42.0888 19.1849 42.4482 19.5202 43.2295C19.6687 43.7133 20.4374 43.4525 20.3136 43.0186ZM19.8958 42.932C19.8938 42.932 19.8923 42.9336 19.8923 42.9355C19.8923 42.9723 19.8923 43.0197 19.8923 43.0558V43.0312C19.8923 43.0086 19.8816 42.9647 19.8989 42.9386C19.9006 42.936 19.8989 42.932 19.8958 42.932Z" fill="#A20768"/>
<path d="M20.8593 40.6628C20.239 40.4272 19.8796 41.2085 20.45 41.5187C21.1321 41.8408 21.5661 40.9603 20.8593 40.6628Z" fill="#A20768"/>
<path d="M22.8834 50.4853C23.2762 50.2077 23.0237 49.75 22.7059 50.111C22.6457 50.1794 22.5898 50.2338 22.5458 50.2485C22.3039 50.3447 22.3005 50.7049 22.5532 50.6424C22.6571 50.6167 22.7763 50.561 22.8834 50.4853Z" fill="#F6C6A1"/>
<path d="M21.2314 47.0117C20.8714 45.9822 19.0611 46.1186 19.2967 47.2227C19.334 47.3465 19.4331 47.4583 19.4211 47.26C19.4211 46.206 20.6199 46.4021 21.1487 47.0417C21.1969 47.1 21.2635 47.0802 21.2314 47.0117Z" fill="#F6C6A1"/>
<path d="M20.5437 45.494C20.6092 45.2607 20.5804 44.9435 20.4741 44.7258C20.2907 44.3498 19.891 44.0879 19.4926 44.097C19.0159 44.108 18.5566 45.0823 18.8134 44.6805C19.3456 43.9288 20.2645 44.4515 20.4015 45.1459C20.4533 45.4082 20.4714 45.7514 20.5437 45.494Z" fill="#F6C6A1"/>
<path d="M20.4785 42.8195C20.3846 42.6615 20.1751 42.4666 19.9944 42.4333C19.4127 42.3261 19.8608 42.2955 20.2189 42.7663C20.5264 43.1707 20.3045 44.0735 20.4747 43.7753C20.6228 43.4795 20.6531 43.1131 20.4785 42.8195Z" fill="#F6C6A1"/>
<path d="M37.5373 56.6669C37.5373 56.6694 37.535 56.6713 37.5325 56.6708C36.5054 56.4873 36.108 55.6454 36.6986 55.0198C36.8166 54.8948 36.9236 54.6906 36.7651 54.7569C36.7534 54.7618 36.742 54.7676 36.7314 54.7743C35.7981 55.3022 36.0932 56.5116 37.1591 56.7994C37.1798 56.8049 37.2 56.8129 37.2202 56.8196C37.3897 56.8765 37.7754 56.8345 37.544 56.6639C37.5413 56.6619 37.5373 56.6636 37.5373 56.6669Z" fill="#F6C6A1"/>
<path d="M33.9909 56.3084C34.2664 57.0743 34.0099 56.4518 34.301 55.6917C34.3844 55.474 34.1173 55.7131 34.0136 55.922C33.9465 56.0569 33.9476 56.1881 33.9909 56.3084Z" fill="#F6C6A1"/>
<path d="M45.3805 56.4955C45.6523 56.4289 45.4694 56.0497 45.2056 55.9564C44.6362 55.7548 44.735 56.6103 45.33 56.506C45.3473 56.503 45.3642 56.4995 45.3805 56.4955ZM45.0427 56.0795C45.05 56.0846 45.0518 56.0923 45.0536 56.1011C45.0634 56.1509 45.0743 56.1558 45.0275 56.1363C45.006 56.1274 44.9849 56.1189 44.9646 56.1112C44.9326 56.0989 44.9285 56.0701 44.9626 56.0667C44.9917 56.0637 45.0243 56.0668 45.0427 56.0795Z" fill="#F6C6A1"/>
<path d="M41.9307 56.1207C42.0983 55.9656 42.0031 55.662 41.7748 55.6633C41.2112 55.6664 41.2687 56.4893 41.7695 56.2308C41.8307 56.1992 41.8861 56.1619 41.9307 56.1207Z" fill="#F6C6A1"/>
<path d="M50.1554 55.6051C50.1572 55.6051 50.158 55.6028 50.1565 55.6017C49.8981 55.4092 49.491 55.7182 49.6872 55.9293C49.7111 55.955 49.7413 55.9809 49.7368 56.0156C49.7268 56.0931 49.6309 56.1893 49.6488 56.2675C49.6593 56.3136 49.714 56.3311 49.7613 56.3313C50.1322 56.3333 50.483 55.8321 50.1545 55.6088C50.1529 55.6077 50.1535 55.6051 50.1554 55.6051Z" fill="#F6C6A1"/>
<path d="M53.9966 55.0868C54.0947 54.7543 53.6631 54.4824 53.3298 54.3868C53.1271 54.3287 52.8882 54.3688 52.693 54.4488C52.4076 54.5657 52.3085 54.8047 52.4797 55.1092C52.7545 55.5161 53.8883 55.4535 53.9966 55.0868Z" fill="#F6C6A1"/>
<path d="M57.5966 54.3901C57.5925 54.3901 57.5895 54.386 57.59 54.382C57.6436 53.9679 57.0437 54.2181 56.8019 54.4626C56.7234 54.5419 56.6603 54.6435 56.6376 54.7528C56.5914 54.9757 56.7848 55.1819 57.1177 55.0103C57.3392 54.8748 57.6711 54.6413 57.6029 54.3949C57.6021 54.3921 57.5995 54.3901 57.5966 54.3901ZM56.9205 54.8856C56.9197 54.8858 56.9185 54.8859 56.9178 54.8859C56.9075 54.8859 56.905 54.8708 56.9143 54.8666C56.9306 54.8591 56.947 54.8513 56.9633 54.844C56.9828 54.8353 56.9918 54.8545 56.9729 54.8645C56.9558 54.8736 56.9381 54.8812 56.9205 54.8856Z" fill="#F6C6A1"/>
<path d="M60.4551 52.0885C60.436 52.0339 60.3879 51.9828 60.3305 51.9903C60.2449 52.0013 60.2558 52.1435 60.258 52.2769C60.2596 52.3761 60.2422 52.3694 60.2533 52.2709C60.2554 52.253 60.2508 52.2354 60.2429 52.2192C59.8747 51.4717 58.9451 52.9307 59.3498 53.2493C59.8892 53.6244 60.6279 52.5807 60.4551 52.0885Z" fill="#F6C6A1"/>
<path d="M54.2692 43.8129C54.3966 43.5107 53.9799 43.2571 53.7037 43.434C53.309 43.6868 53.5568 44.3406 53.9719 44.1228C54.104 44.0535 54.2151 43.9411 54.2692 43.8129ZM53.9506 43.758C53.954 43.7612 53.9564 43.7653 53.9573 43.7698C53.9631 43.7994 53.9604 43.8286 53.949 43.855C53.9365 43.8839 53.8996 43.8869 53.8734 43.8694C53.8662 43.8647 53.8589 43.8598 53.8517 43.855C53.8283 43.8394 53.8262 43.8071 53.8509 43.7938C53.8797 43.7783 53.9112 43.7658 53.9352 43.7455C53.9383 43.7429 53.9431 43.742 53.9431 43.746C53.9431 43.7472 53.9436 43.7514 53.9445 43.7522L53.9506 43.758ZM53.993 43.5583C53.993 43.5548 53.9959 43.5519 53.9993 43.5519H54.0083C54.014 43.5519 54.0193 43.5552 54.0217 43.5604C54.0288 43.5762 54.0358 43.5954 54.0428 43.6159C54.0468 43.6274 54.0337 43.6374 54.0233 43.6309C54.0118 43.6236 53.9999 43.6167 53.9873 43.6105C53.9793 43.6065 53.9768 43.5671 53.9855 43.5653C53.9859 43.5652 53.9863 43.5652 53.9867 43.5651C53.9902 43.5645 53.993 43.5617 53.993 43.5583Z" fill="#F6C6A1"/>
<path d="M50.1873 43.7068C50.282 43.5539 50.1725 43.3445 50.0027 43.2852C49.7517 43.1975 49.4666 43.4199 49.3763 43.6492C49.2291 44.0228 49.9761 44.0483 50.1873 43.7068ZM49.9999 43.6019C49.9761 43.794 49.6143 43.8119 49.9076 43.6663C49.9273 43.6566 49.9502 43.6324 49.957 43.6115C49.9923 43.5046 49.8872 43.4512 49.976 43.5204C49.997 43.5368 50.0072 43.5632 49.9999 43.6019Z" fill="#F6C6A1"/>
<path d="M39.7665 41.868C40.3588 42.1525 39.7289 40.8645 39.5739 41.5031C39.5421 41.634 39.619 41.7793 39.7337 41.85C39.7444 41.8567 39.7553 41.8626 39.7665 41.868ZM40.0304 41.7108C40.0304 41.7073 40.0275 41.7045 40.0241 41.7045C39.9902 41.7044 39.9664 41.7038 39.9432 41.6924C39.9599 41.7006 39.954 41.6977 39.9446 41.695C39.9358 41.6925 39.9302 41.6927 39.9247 41.6855C39.9147 41.6724 39.9282 41.6626 39.9417 41.6722C39.9805 41.6997 40.0151 41.7171 40.067 41.7171C40.067 41.7171 40.0494 41.7171 40.0367 41.7171C40.0332 41.7171 40.0304 41.7142 40.0304 41.7108ZM39.9517 41.5061C39.9543 41.5061 39.9568 41.5049 39.9584 41.5028C39.9746 41.4828 39.9967 41.4672 40.0187 41.4616C40.0645 41.4497 40.0431 41.5045 39.9961 41.5095C39.9803 41.5112 39.9645 41.5137 39.9486 41.5174C39.9454 41.5182 39.9432 41.5209 39.9432 41.5177C39.9432 41.5138 39.9464 41.5061 39.9503 41.5061H39.9517Z" fill="#F6C6A1"/>
<path d="M34.4966 34.6856C34.4613 34.5012 34.3118 34.7622 34.184 34.8997C34.1377 34.9495 34.0819 34.9922 34.0201 35.0265C33.5858 35.2678 33.181 35.2583 33.6766 35.2934C33.895 35.3088 34.1334 35.2728 34.295 35.1329C34.4178 35.0267 34.527 34.845 34.4966 34.6856Z" fill="#F6C6A1"/>
<path d="M30.8646 55.9447C30.8471 55.8505 30.8012 55.7593 30.7209 55.7069C30.6828 55.682 30.6415 55.6627 30.5982 55.6483C30.05 55.4662 29.1784 55.9456 29.0041 55.3949C28.9553 55.2408 28.8253 55.0844 28.7984 55.2438C28.789 55.2992 28.7871 55.3664 28.789 55.4283C28.7926 55.5462 28.8 55.6666 28.8234 55.7822C29.0251 56.7801 31.0759 57.0851 30.8646 55.9447Z" fill="#A20768"/>
<path d="M33.2103 65.8902C33.3621 66.7462 33.4558 66.5209 33.1728 65.6989C33.1866 65.7634 33.1991 65.8272 33.2103 65.8902Z" fill="#F6C6A1"/>
<path d="M38.0937 69.5632C38.0786 69.5499 38.0621 69.5382 38.0447 69.5279C37.9857 69.4931 37.9284 69.4571 37.8728 69.4198C37.5711 69.2176 37.3893 69.2866 37.6962 69.481C37.72 69.4961 37.7504 69.5089 37.7763 69.5202C37.8711 69.5615 37.9613 69.6556 38.046 69.7621C38.3179 70.1037 38.4982 69.9351 38.1776 69.6387C38.1492 69.6124 38.1209 69.5872 38.0937 69.5632Z" fill="#F6C6A1"/>
<path d="M38.4551 70.5721C37.769 70.3175 37.6618 70.3709 38.321 70.6887C38.393 70.7234 38.4667 70.7572 38.5422 70.79C38.6845 70.8519 38.7741 70.7993 38.6539 70.7012C38.5818 70.6424 38.4984 70.5883 38.4551 70.5721Z" fill="#F6C6A1"/>
<path d="M38.7894 68.3247C38.9603 68.4639 38.9878 68.3431 38.8117 68.2105C38.8031 68.204 38.7944 68.1975 38.7857 68.1911C38.5948 68.049 38.6049 68.1745 38.7894 68.3247Z" fill="#F6C6A1"/>
<path d="M36.3103 73.0656C36.3126 73.0679 36.3164 73.0653 36.3149 73.0624C36.0105 72.4382 35.1306 72.0058 34.9458 71.3416C34.7102 69.5927 35.1694 67.7824 34.2516 66.0095C34.2144 65.9103 34.1026 65.7859 34.1771 66.0095C35.3304 68.4399 33.5203 71.3288 36.3098 73.0651C36.31 73.0653 36.3102 73.0654 36.3103 73.0656Z" fill="#F6C6A1"/>
</svg>
