<svg width="84" height="87" viewBox="0 0 84 87" fill="none" xmlns="http://www.w3.org/2000/svg">
<mask id="mask0_4042_15676" style="mask-type:luminance" maskUnits="userSpaceOnUse" x="0" y="7" width="81" height="80">
<path d="M0 7H80.1594V87H0V7Z" fill="white"/>
</mask>
<g mask="url(#mask0_4042_15676)">
<mask id="mask1_4042_15676" style="mask-type:luminance" maskUnits="userSpaceOnUse" x="-4" y="2" width="89" height="90">
<path d="M-3.97412 11.5363L75.4999 2.99609L84.0401 82.4701L4.56609 91.0103L-3.97412 11.5363Z" fill="white"/>
</mask>
<g mask="url(#mask1_4042_15676)">
<mask id="mask2_4042_15676" style="mask-type:luminance" maskUnits="userSpaceOnUse" x="0" y="7" width="81" height="80">
<path d="M35.7629 7.26333C13.817 9.62202 -2.06203 29.3245 0.29604 51.2704C2.65473 73.217 22.3572 89.096 44.3031 86.7373C66.2497 84.3792 82.1287 64.6768 79.7706 42.7302C77.412 20.7842 57.7095 4.90526 35.7629 7.26333Z" fill="white"/>
</mask>
<g mask="url(#mask2_4042_15676)">
<path d="M-3.97388 11.5363L75.5001 2.99609L84.0403 82.4701L4.56634 91.0103L-3.97388 11.5363Z" fill="#6A5B92"/>
</g>
</g>
</g>
<path d="M60.5109 53.2461C60.5109 53.2461 59.5643 55.6354 60.0602 59.8728" stroke="#7DAF93" stroke-width="2.5319" stroke-miterlimit="10"/>
<path d="M61.8113 51.6681C61.8113 51.6681 59.474 50.5869 58.2117 51.9844C56.9496 53.382 59.0682 55.5006 60.4658 56.5376C61.8633 57.5744 63.0353 60.73 65.2893 61.4513C65.2893 61.4513 66.5967 58.9269 65.6499 56.4073C65.2583 55.3652 65.7003 52.3687 63.8379 51.218C63.0353 50.7221 61.8113 51.6681 61.8113 51.6681Z" fill="#A8CAB7"/>
<path d="M62.1143 51.4648C61.9696 51.5509 61.867 51.6244 61.8286 51.6529C63.4433 53.389 64.427 58.3881 64.598 59.0572C64.5489 58.8233 63.8043 53.5225 62.1143 51.4648Z" fill="#7DAF93"/>
<path d="M19.8977 59.1245C19.8977 59.1245 19.2527 55.1475 15.9673 55.5195C12.6818 55.8915 10.72 53.8828 10.72 53.8828C10.72 53.8828 10.9199 58.2279 13.7643 59.5077C17.3088 61.1023 19.8977 59.1245 19.8977 59.1245Z" fill="#A8CAB7"/>
<path d="M11.6064 55.3203C12.5934 56.4679 14.0039 57.2168 15.4789 57.3939C16.2319 57.4857 16.9842 57.5966 17.7297 57.771C18.1021 57.8588 18.4736 57.9599 18.837 58.1027C19.1962 58.2493 19.5637 58.4268 19.8526 58.7453L19.9533 58.8723C19.9824 58.9186 20.0085 58.9678 20.0357 59.0159C20.0842 59.1142 20.103 59.2244 20.1345 59.3281C20.1636 59.5209 20.1994 59.7157 20.2149 59.9048C20.2585 60.2862 20.2837 60.6649 20.3083 61.0442C20.3551 61.8024 20.39 62.5595 20.4083 63.3168C20.448 64.8316 20.4637 66.3452 20.442 67.8601L20.169 67.8616L20.1067 65.5943C20.0892 64.8385 20.0693 64.083 20.0415 63.328C20.0126 62.5733 19.9939 61.8179 19.9488 61.0657C19.9268 60.6901 19.904 60.3134 19.8643 59.9429C19.85 59.7547 19.8177 59.577 19.792 59.3954C19.767 59.3195 19.7573 59.2382 19.7241 59.1671L19.6683 59.0631L19.5945 58.9663C19.3793 58.7147 19.0522 58.5361 18.7184 58.3934C18.3805 58.2513 18.0225 58.1443 17.6609 58.0505C16.9366 57.8627 16.1915 57.7395 15.4478 57.614C13.9243 57.3764 12.5123 56.5363 11.6064 55.3203Z" fill="#D3E4DB"/>
<path d="M43.6223 59.0861L42.9592 59.0677C43.5951 35.9993 49.0508 21.3532 52.2463 14.6758L52.8447 14.9621C49.6718 21.5919 44.2548 36.1401 43.6223 59.0861Z" fill="#A8CAB7"/>
<path d="M43.6786 51.6087C43.6786 51.6087 41.3894 44.7902 32.5051 42.5625C32.5051 42.5625 42.6526 50.9484 43.6786 51.6087Z" fill="#A8CAB7"/>
<path d="M44.218 48.3907C44.218 48.3907 42.9356 41.3135 34.4653 37.8281C34.4653 37.8281 43.2978 47.5894 44.218 48.3907Z" fill="#A8CAB7"/>
<path d="M44.4425 44.0658C44.4425 44.0658 43.8508 36.8978 35.7573 32.6094C35.7573 32.6094 43.6044 43.1793 44.4425 44.0658Z" fill="#A8CAB7"/>
<path d="M45.4372 39.4212C45.4372 39.4212 44.8455 32.2532 36.752 27.9648C36.752 27.9648 44.599 38.5347 45.4372 39.4212Z" fill="#A8CAB7"/>
<path d="M46.1591 35.3711C46.1591 35.3711 46.3877 28.1824 38.8352 23C38.8352 23 45.4272 34.3949 46.1591 35.3711Z" fill="#A8CAB7"/>
<path d="M46.9866 31.6287C46.9866 31.6287 47.6792 25.395 41.47 20.3711C41.47 20.3711 46.4176 30.7299 46.9866 31.6287Z" fill="#A8CAB7"/>
<path d="M48.184 26.9175C48.184 26.9175 48.7554 21.7741 43.6321 17.6289C43.6321 17.6289 47.7143 26.1759 48.184 26.9175Z" fill="#A8CAB7"/>
<path d="M49.2765 23.5383C49.2765 23.5383 49.7836 18.9748 45.2378 15.2969C45.2378 15.2969 48.8599 22.8804 49.2765 23.5383Z" fill="#A8CAB7"/>
<path d="M50.0205 21.5872C50.0205 21.5872 51.6257 17.2853 48.1145 12.6094C48.1145 12.6094 49.7771 20.8474 50.0205 21.5872Z" fill="#A8CAB7"/>
<path d="M50.5604 18.8993C50.5604 18.8993 53.1512 15.1084 50.8651 9.72656C50.8651 9.72656 50.5017 18.1226 50.5604 18.8993Z" fill="#A8CAB7"/>
<path d="M51.6216 17.0982C51.6216 17.0982 55.163 12.9698 54.1057 7.21875C54.1057 7.21875 51.7337 16.3275 51.6216 17.0982Z" fill="#A8CAB7"/>
<path d="M58.121 11.1133C58.121 11.1133 53.6252 12.0461 51.5378 17.5082C51.5378 17.5082 57.6246 11.7134 58.121 11.1133Z" fill="#A8CAB7"/>
<path d="M56.3513 15.2969C56.3513 15.2969 51.8554 16.2297 49.7681 21.6918C49.7681 21.6918 55.8549 15.897 56.3513 15.2969Z" fill="#A8CAB7"/>
<path d="M55.778 18.7148C55.778 18.7148 51.231 19.3538 48.7935 24.669C48.7935 24.669 55.2434 19.2815 55.778 18.7148Z" fill="#A8CAB7"/>
<path d="M55.4118 22.0977C55.4118 22.0977 50.4894 22.4647 47.5024 27.9953C47.5024 27.9953 54.7987 22.668 55.4118 22.0977Z" fill="#A8CAB7"/>
<path d="M56.1665 25C56.1665 25 50.2124 25.4438 46.5994 32.1341C46.5994 32.1341 55.4252 25.69 56.1665 25Z" fill="#A8CAB7"/>
<path d="M56.3148 28.1836C56.3148 28.1836 49.6486 28.6806 45.6033 36.171C45.6033 36.171 55.4849 28.956 56.3148 28.1836Z" fill="#A8CAB7"/>
<path d="M55.4115 32.1797C55.4115 32.1797 48.7453 32.6767 44.7 40.1671C44.7 40.1671 54.5813 32.9521 55.4115 32.1797Z" fill="#A8CAB7"/>
<path d="M55.1242 36.1719C55.1242 36.1719 48.458 36.6689 44.4126 44.1593C44.4126 44.1593 54.294 36.9443 55.1242 36.1719Z" fill="#A8CAB7"/>
<path d="M54.6066 40.1641C54.6066 40.1641 47.9404 40.6611 43.895 48.1515C43.895 48.1515 53.7764 40.9365 54.6066 40.1641Z" fill="#A8CAB7"/>
<path d="M54.4157 43.6211C54.4157 43.6211 47.7495 44.1181 43.7041 51.6085C43.7041 51.6085 53.5857 44.3937 54.4157 43.6211Z" fill="#A8CAB7"/>
<path d="M62.9868 36.0067C61.884 36.8363 60.657 37.4722 59.3239 37.8288C58.5871 38.0261 57.8348 38.3628 57.1244 38.9057C55.2687 40.3242 54.9722 43.9195 54.9722 43.9195L63.9752 40.8258C63.9752 40.8258 69.2044 39.9061 71.146 37.6941C71.8309 36.9137 72.3773 35.4937 72.3773 35.4937C72.3773 35.4937 66.8288 33.1165 62.9868 36.0067Z" fill="#A8CAB7"/>
<path d="M54.9168 42.0036C55.9046 40.7331 57.0796 40.2966 60.3881 40.7367C61.3365 40.8629 62.4354 41.132 64.2155 40.7307C64.2155 40.7307 54.9862 44.2497 54.1105 46.5406L54.0846 46.4446C53.6717 44.9147 53.9442 43.2545 54.9168 42.0036Z" fill="#7DAF93"/>
<path d="M70.7669 36.1133C69.6988 36.7785 68.6107 37.4114 67.5129 38.0271C66.4134 38.6395 65.3041 39.2361 64.1757 39.7964C63.0462 40.3538 61.9072 40.8948 60.7402 41.3759C59.5727 41.8544 58.3856 42.2932 57.1606 42.6283L57.0752 42.2915C58.2858 41.9903 59.4724 41.5827 60.6431 41.134C61.8136 40.6826 62.961 40.1698 64.1 39.64C65.2381 39.1074 66.359 38.5373 67.4713 37.9509C68.582 37.3612 69.6839 36.7537 70.7669 36.1133Z" fill="#7DAF93"/>
<path d="M28.4896 44.5123C26.9922 43.4963 26.109 41.8072 26.1182 39.9976C26.1241 38.8504 26.0035 37.6547 25.5546 36.5743C23.9381 32.7618 21.2804 29.7492 18.7525 30.1917C16.2448 30.6152 14.9756 35.2634 17.0145 40.1366C17.6025 41.5521 18.7135 42.5729 19.8831 43.3535C21.5467 44.464 22.5936 46.2622 22.8919 48.2401C22.9596 48.6888 23.0946 49.1108 23.3507 49.4673C23.9623 50.3203 24.8276 50.8788 25.7059 51.2916C26.9637 51.8822 27.9792 52.9144 28.484 54.2091C28.5709 54.4323 28.7177 54.6081 28.846 54.7967C30.4685 57.1817 33.8917 57.5948 34.849 56.3353C35.815 55.0706 35.4036 52.6207 32.9317 50.7559C32.8487 50.6932 32.7726 50.6211 32.6771 50.5707C31.3213 49.8535 30.3419 48.6011 30.0159 47.1024C29.8686 46.4253 29.643 45.7678 29.2549 45.2265C29.0539 44.9473 28.788 44.7148 28.4896 44.5123Z" fill="#A8CAB7"/>
<path d="M18.8433 30.1812C19.2588 32.9897 20.4047 38.4494 23.277 41.4532C27.2579 45.6165 25.875 47.463 27.5731 49.5817C28.9743 51.3298 31.5232 55.2027 34.8891 56.2811C35.8018 55.0013 35.368 52.5958 32.9317 50.758C32.8485 50.6952 32.7726 50.6232 32.677 50.5727C31.3213 49.8555 30.3419 48.6031 30.0159 47.1044C29.8686 46.4273 29.643 45.7698 29.2549 45.2286C29.0539 44.9489 28.7882 44.7167 28.4898 44.5142C26.9924 43.4981 26.1092 41.809 26.1184 39.9996C26.1243 38.8524 26.0037 37.6567 25.5548 36.5764C23.9575 32.8092 21.344 29.8252 18.8433 30.1812Z" fill="#7DAF93"/>
<path d="M16.0154 35.8846C17.6803 36.5921 19.3746 37.2061 20.9923 37.0601L20.974 36.858C19.375 37.0021 17.676 36.3733 16.0061 35.6602C16.0085 35.7346 16.0115 35.8094 16.0154 35.8846Z" fill="#7DAF93"/>
<path d="M28.7168 54.6172C28.7601 54.6784 28.8041 54.739 28.8462 54.8009C28.877 54.8462 28.9096 54.8893 28.9417 54.9331C30.5379 55.5962 32.22 56.0255 33.9518 55.6665L33.9106 55.4677C32.1206 55.8388 30.3716 55.3387 28.7168 54.6172Z" fill="#1C9585"/>
<path d="M27.7035 49.018C26.0567 49.3596 24.4444 48.9634 22.9082 48.3359C22.9222 48.4164 22.938 48.4964 22.9569 48.5747C24.4867 49.1851 26.0932 49.5593 27.7447 49.2168L27.7035 49.018Z" fill="#7DAF93"/>
<path d="M21.6304 37.9438C19.7263 38.3388 17.8686 37.7475 16.1211 36.9531C16.1327 37.0327 16.145 37.1125 16.1582 37.1927C17.9023 37.974 19.7567 38.5398 21.6714 38.1428L21.6304 37.9438Z" fill="#7DAF93"/>
<path d="M31.2415 39.9138C31.2415 39.9138 23.9939 35.9692 26.7918 28.9465C28.7522 24.0259 29.045 22.6171 29.5565 20.7612C31.0056 15.5024 34.357 16.5547 34.357 16.5547C34.357 16.5547 32.6179 22.4423 33.7304 26.8939C35.6912 34.7409 31.2415 39.9138 31.2415 39.9138Z" fill="#7DAF93"/>
<path d="M31.9621 19.4141C31.7848 21.1277 31.6466 22.8438 31.5483 24.5618C31.4391 26.2789 31.3652 27.9977 31.3266 29.7168C31.2336 33.154 31.2768 36.5932 31.4786 40.021C31.5784 41.7347 31.7173 43.4458 31.909 45.1506C32.1102 46.8541 32.3599 48.5508 32.6568 50.2388C32.9691 51.9235 33.338 53.5978 33.7898 55.2497C34.2424 56.9013 34.7856 58.5259 35.4084 60.1214L35.0148 60.2877C34.3183 58.7006 33.7471 57.062 33.244 55.4046C32.761 53.7407 32.3763 52.0512 32.0412 50.3535C31.7132 48.6538 31.4767 46.9391 31.2785 45.2218C31.0913 43.5029 30.9574 41.7795 30.8627 40.0544C30.7752 38.3289 30.7534 36.6014 30.7558 34.8753C30.7635 33.1491 30.8006 31.4231 30.8985 29.7004C30.9938 27.9777 31.1245 26.2575 31.2904 24.5413C31.4754 22.8265 31.6727 21.1131 31.9621 19.4141Z" fill="#A8CAB7"/>
<path d="M30.8192 60.7954C23.2728 53.9181 16.9399 51.1646 13.8369 50.1356L13.9299 49.8555C17.0551 50.892 23.4311 53.6632 31.018 60.5774L30.8192 60.7954Z" fill="#7DAF93"/>
<path d="M28.4066 58.504C28.4066 58.504 26.9284 55.6667 28.956 52.1328C28.956 52.1328 28.5116 57.9716 28.4066 58.504Z" fill="#7DAF93"/>
<path d="M27.2085 57.6845C27.2085 57.6845 25.3368 55.09 26.8338 51.3008C26.8338 51.3008 27.2357 57.1426 27.2085 57.6845Z" fill="#7DAF93"/>
<path d="M25.7532 56.423C25.7532 56.423 23.6393 54.0217 24.7625 50.1055C24.7625 50.1055 25.7277 55.8809 25.7532 56.423Z" fill="#7DAF93"/>
<path d="M23.9592 55.3058C23.9592 55.3058 21.8453 52.9045 22.9686 48.9883C22.9686 48.9883 23.9338 54.7639 23.9592 55.3058Z" fill="#7DAF93"/>
<path d="M22.4384 54.2886C22.4384 54.2886 20.0647 52.1436 20.7346 48.125C20.7346 48.125 22.3515 53.7529 22.4384 54.2886Z" fill="#7DAF93"/>
<path d="M20.9837 53.4012C20.9837 53.4012 18.7728 51.6996 19.0792 48.1602C19.0792 48.1602 20.8714 52.9415 20.9837 53.4012Z" fill="#7DAF93"/>
<path d="M19.1062 52.3322C19.1062 52.3322 17.2819 50.9284 17.5348 48.0078C17.5348 48.0078 19.0134 51.9529 19.1062 52.3322Z" fill="#7DAF93"/>
<path d="M17.6857 51.6337C17.6857 51.6337 16.0671 50.388 16.2913 47.7969C16.2913 47.7969 17.6033 51.2973 17.6857 51.6337Z" fill="#7DAF93"/>
<path d="M16.8306 51.2753C16.8306 51.2753 14.9569 50.4621 14.5422 47.8945C14.5422 47.8945 16.6686 50.9689 16.8306 51.2753Z" fill="#7DAF93"/>
<path d="M15.8032 50.6154C15.8032 50.6154 13.7891 50.2757 12.7703 47.8828C12.7703 47.8828 15.5725 50.3568 15.8032 50.6154Z" fill="#7DAF93"/>
<path d="M14.8983 50.401C14.8983 50.401 12.4829 50.2617 10.9666 48.1484C10.9666 48.1484 14.6169 50.1992 14.8983 50.401Z" fill="#7DAF93"/>
<path d="M10.9763 50.641C10.9763 50.641 12.6624 49.4884 15.0564 50.505C15.0564 50.505 11.3218 50.6671 10.9763 50.641Z" fill="#7DAF93"/>
<path d="M12.8621 51.3559C12.8621 51.3559 14.5481 50.2033 16.9421 51.2198C16.9421 51.2198 13.2075 51.382 12.8621 51.3559Z" fill="#7DAF93"/>
<path d="M14.1343 52.2316C14.1343 52.2316 15.7421 50.9721 18.1971 51.8312C18.1971 51.8312 14.4808 52.2353 14.1343 52.2316Z" fill="#7DAF93"/>
<path d="M15.3311 53.1583C15.3311 53.1583 16.9675 51.6945 19.6611 52.4441C19.6611 52.4441 15.703 53.1378 15.3311 53.1583Z" fill="#7DAF93"/>
<path d="M16.0281 54.2943C16.0281 54.2943 18.0074 52.5237 21.2657 53.4302C21.2657 53.4302 16.4779 54.2695 16.0281 54.2943Z" fill="#7DAF93"/>
<path d="M17.0032 55.3269C17.0032 55.3269 19.2193 53.3446 22.8674 54.3596C22.8674 54.3596 17.5067 55.2993 17.0032 55.3269Z" fill="#7DAF93"/>
<path d="M18.5613 56.2644C18.5613 56.2644 20.7774 54.2821 24.4255 55.2971C24.4255 55.2971 19.065 56.2368 18.5613 56.2644Z" fill="#7DAF93"/>
<path d="M19.9292 57.4089C19.9292 57.4089 22.1453 55.4266 25.7932 56.4416C25.7932 56.4416 20.4327 57.3813 19.9292 57.4089Z" fill="#7DAF93"/>
<path d="M21.3687 58.4753C21.3687 58.4753 23.5848 56.493 27.2329 57.508C27.2329 57.508 21.8724 58.4477 21.3687 58.4753Z" fill="#7DAF93"/>
<path d="M22.5344 59.4871C22.5344 59.4871 24.7505 57.5046 28.3987 58.5198C28.3987 58.5198 23.0382 59.4595 22.5344 59.4871Z" fill="#7DAF93"/>
<path d="M36.194 62.7213C46.1521 54.0683 54.331 50.8078 58.3201 49.6347L58.219 49.2578C54.2014 50.4395 45.9669 53.7209 35.9551 62.4201L36.194 62.7213Z" fill="#7DAF93"/>
<path d="M39.3831 59.8358C39.3831 59.8358 41.4213 56.1653 39.0623 51.3555C39.0623 51.3555 39.2813 59.1234 39.3831 59.8358Z" fill="#7DAF93"/>
<path d="M40.9482 58.8192C40.9482 58.8192 43.4706 55.4947 41.7983 50.3789C41.7983 50.3789 40.9457 58.0989 40.9482 58.8192Z" fill="#7DAF93"/>
<path d="M42.865 57.2364C42.865 57.2364 45.6825 54.183 44.4905 48.9219C44.4905 48.9219 42.929 56.5194 42.865 57.2364Z" fill="#7DAF93"/>
<path d="M45.2017 55.8692C45.2017 55.8692 48.0192 52.8158 46.8271 47.5547C46.8271 47.5547 45.2657 55.152 45.2017 55.8692Z" fill="#7DAF93"/>
<path d="M47.1865 54.6173C47.1865 54.6173 50.3178 51.9199 49.7058 46.5508C49.7058 46.5508 47.328 53.9124 47.1865 54.6173Z" fill="#7DAF93"/>
<path d="M49.0803 53.5226C49.0803 53.5226 51.9793 51.4031 51.7997 46.6914C51.7997 46.6914 49.2496 52.9201 49.0803 53.5226Z" fill="#7DAF93"/>
<path d="M51.5203 52.2184C51.5203 52.2184 53.9121 50.4695 53.764 46.582C53.764 46.582 51.66 51.7213 51.5203 52.2184Z" fill="#7DAF93"/>
<path d="M53.3594 51.3917C53.3594 51.3917 55.4817 49.84 55.3501 46.3906C55.3501 46.3906 53.4834 50.9505 53.3594 51.3917Z" fill="#7DAF93"/>
<path d="M54.4634 50.9623C54.4634 50.9623 56.883 49.9997 57.5591 46.6211C57.5591 46.6211 54.6863 50.5662 54.4634 50.9623Z" fill="#7DAF93"/>
<path d="M55.8027 50.151C55.8027 50.151 58.3723 49.8248 59.803 46.7148C59.803 46.7148 56.11 49.8226 55.8027 50.151Z" fill="#7DAF93"/>
<path d="M56.9607 49.9237C56.9607 49.9237 60.0266 49.8879 62.0707 47.1797C62.0707 47.1797 57.329 49.6733 56.9607 49.9237Z" fill="#7DAF93"/>
<path d="M61.912 50.4817C61.912 50.4817 59.8454 48.8497 56.7546 50.0502C56.7546 50.0502 61.4732 50.495 61.912 50.4817Z" fill="#7DAF93"/>
<path d="M59.4821 51.3215C59.4821 51.3215 57.4154 49.6896 54.3247 50.89C54.3247 50.89 59.0433 51.3349 59.4821 51.3215Z" fill="#7DAF93"/>
<path d="M57.8206 52.3974C57.8206 52.3974 55.8594 50.6286 52.7009 51.6162C52.7009 51.6162 57.3818 52.3811 57.8206 52.3974Z" fill="#7DAF93"/>
<path d="M56.2505 53.5479C56.2505 53.5479 54.2649 51.5065 50.8108 52.3343C50.8108 52.3343 55.781 53.4981 56.2505 53.5479Z" fill="#7DAF93"/>
<path d="M55.3019 55.0156C55.3019 55.0156 52.9001 52.5462 48.7219 53.5476C48.7219 53.5476 54.7339 54.9553 55.3019 55.0156Z" fill="#7DAF93"/>
<path d="M54.0067 56.3213C54.0067 56.3213 51.3177 53.5566 46.6396 54.6777C46.6396 54.6777 53.3708 56.2538 54.0067 56.3213Z" fill="#7DAF93"/>
<path d="M51.9789 57.4775C51.9789 57.4775 49.2899 54.7129 44.6118 55.834C44.6118 55.834 51.3429 57.4101 51.9789 57.4775Z" fill="#7DAF93"/>
<path d="M50.1793 58.9072C50.1793 58.9072 47.4903 56.1425 42.8123 57.2636C42.8123 57.2636 49.5434 58.8395 50.1793 58.9072Z" fill="#7DAF93"/>
<path d="M48.2945 60.2315C48.2945 60.2315 45.6055 57.4668 40.9275 58.5879C40.9275 58.5879 47.6586 60.164 48.2945 60.2315Z" fill="#7DAF93"/>
<path d="M46.7599 61.4932C46.7599 61.4932 44.0709 58.7285 39.3928 59.8496C39.3928 59.8496 46.1239 61.4255 46.7599 61.4932Z" fill="#7DAF93"/>
<path d="M68.767 13.6436C67.953 13.0202 67.4018 12.1167 67.0285 11.1757C66.8323 10.7135 66.5052 10.3105 66.0979 10.0237C65.6914 9.7352 65.2051 9.56722 64.7117 9.53767C64.2175 9.50554 63.7213 9.61962 63.287 9.84755C63.071 9.96378 62.87 10.1078 62.6929 10.2771C62.5219 10.4503 62.3339 10.6443 62.1359 10.8056C61.7403 11.139 61.2963 11.4101 60.8333 11.6335C60.6017 11.7454 60.3649 11.8456 60.1247 11.936C60.0046 11.9819 59.8942 12.0285 59.7799 12.0779C59.671 12.1363 59.5567 12.1846 59.4534 12.2534C58.598 12.7561 57.9513 13.5936 57.6134 14.5336C57.4435 15.0045 57.3434 15.5022 57.3242 16.0046C57.3108 16.5066 57.3671 17.0132 57.5103 17.4958C57.6522 17.9782 57.8657 18.4426 58.165 18.848C58.3118 19.0522 58.4787 19.242 58.6633 19.4126C58.8429 19.5883 59.0525 19.7289 59.2518 19.8906C60.0436 20.5307 60.7244 21.3345 61.1291 22.2833C61.2333 22.5182 61.3101 22.7657 61.3816 23.0107L61.4903 23.3723L61.6169 23.7277C61.7963 24.1971 62.0189 24.65 62.2912 25.0698C62.8314 25.9065 63.5945 26.6222 64.5254 26.9603L64.6994 27.0222C64.7581 27.0403 64.8187 27.0526 64.878 27.0681L65.057 27.1123L65.2396 27.1384C65.3006 27.146 65.361 27.1587 65.4223 27.1621L65.6066 27.1656C65.7293 27.1634 65.8527 27.1811 65.9745 27.163C66.467 27.1317 66.9412 26.9748 67.388 26.769C68.2659 26.3143 69.01 25.6076 69.5567 24.7718C70.6614 23.1008 71.1545 21.054 71.0942 19.0456C71.0629 18.039 70.8746 17.0328 70.5068 16.0902C70.1305 15.1559 69.5623 14.2778 68.767 13.6436ZM68.7815 13.6253C69.591 14.2524 70.1639 15.1339 70.5669 16.0657C70.9644 17.0054 71.1839 18.018 71.2483 19.0384C71.3754 21.0758 70.8984 23.1826 69.7574 24.907C69.1944 25.768 68.4293 26.5176 67.4958 26.989C67.0216 27.2038 66.5162 27.3659 65.9902 27.3955C65.8602 27.4131 65.7285 27.3944 65.5978 27.3955L65.4016 27.3896C65.3364 27.3853 65.272 27.3717 65.2071 27.3631L65.013 27.3336L64.8226 27.2853C64.7594 27.2682 64.6953 27.2544 64.633 27.2346L64.4487 27.1675C63.4602 26.8027 62.6787 26.0361 62.139 25.1669C61.8662 24.7302 61.6465 24.2631 61.4718 23.7814L61.3491 23.4172L61.2449 23.0476C61.1781 22.8043 61.1084 22.5648 61.0105 22.3332C60.6304 21.4033 59.9832 20.5893 59.1996 19.9549C59.0064 19.7953 58.7929 19.65 58.6101 19.4691C58.4229 19.2938 58.2543 19.0995 58.1061 18.8905C57.806 18.4754 57.5791 18.0094 57.432 17.5188C57.1396 16.5373 57.1597 15.4651 57.4898 14.4902C57.6518 14.0016 57.8965 13.5401 58.2105 13.1293C58.5217 12.7168 58.9081 12.3576 59.3531 12.0867C59.4614 12.0141 59.5813 11.9617 59.6958 11.8995C59.8137 11.8474 59.9373 11.7945 60.054 11.7493C60.2884 11.6593 60.5189 11.5599 60.7436 11.4493C61.1927 11.2278 61.6188 10.962 62.0068 10.6489C62.2045 10.4912 62.3723 10.3219 62.5603 10.1365C62.7525 9.95731 62.9698 9.80593 63.2025 9.68474C63.6689 9.44301 64.2043 9.34252 64.7232 9.39061C65.2424 9.43676 65.7459 9.62867 66.1593 9.93984C66.5738 10.2495 66.8981 10.6743 67.0857 11.1524C67.4339 12.0992 67.9812 12.9952 68.7815 13.6253Z" fill="white"/>
<path d="M26.2739 3.11764C25.7316 3.98774 24.8855 4.62322 23.9847 5.08555C23.5435 5.32534 23.1739 5.68976 22.9277 6.12276C22.6795 6.55512 22.5592 7.05539 22.5773 7.5492C22.5928 8.04409 22.7541 8.52712 23.0228 8.93748C23.1593 9.14125 23.3221 9.32757 23.5075 9.48757C23.6964 9.6411 23.9075 9.80973 24.0872 9.9913C24.4572 10.3531 24.7697 10.7689 25.0366 11.2084C25.1703 11.4281 25.293 11.6541 25.4058 11.8846C25.4631 11.9997 25.5201 12.1052 25.5802 12.2141C25.6488 12.3167 25.7081 12.4261 25.7864 12.5222C26.369 13.3253 27.265 13.8883 28.233 14.1343C28.718 14.2581 29.2232 14.3099 29.7252 14.2805C30.2261 14.2456 30.7249 14.1408 31.1915 13.9519C31.658 13.7643 32.0998 13.507 32.4746 13.17C32.6639 13.0042 32.8366 12.8198 32.9887 12.6197C33.1463 12.4239 33.266 12.2018 33.4079 11.9879C33.9687 11.1381 34.7034 10.3833 35.6089 9.88887C35.8325 9.7625 36.0716 9.66245 36.3086 9.56757L36.6582 9.42482L36.9997 9.2646C37.4498 9.04098 37.8789 8.77575 38.2707 8.46437C39.0515 7.84614 39.6905 7.01766 39.9376 6.05872L39.9824 5.87952C39.9949 5.81936 40.0012 5.7579 40.0109 5.69731L40.0376 5.51488L40.046 5.33073C40.0478 5.26927 40.0545 5.20803 40.0521 5.14657L40.0379 4.96285C40.0238 4.84101 40.0297 4.71638 39.9999 4.59691C39.9214 4.10979 39.7196 3.65285 39.4718 3.22783C38.9347 2.39763 38.1597 1.72506 37.2751 1.26143C35.5056 0.32255 33.4208 0.0288519 31.4275 0.28201C30.4286 0.409883 29.4451 0.694308 28.5424 1.15103C27.648 1.61508 26.8286 2.26523 26.2739 3.11764ZM26.2543 3.10513C26.8005 2.23892 27.6227 1.58381 28.5116 1.09324C29.4089 0.607191 30.3954 0.291283 31.405 0.129123C33.4208 -0.193254 35.5636 0.0788798 37.3898 1.0486C38.3009 1.52624 39.1207 2.21563 39.6797 3.09953C39.9391 3.55086 40.1491 4.03841 40.2291 4.55896C40.2591 4.68662 40.2533 4.81945 40.2669 4.94948L40.28 5.14549C40.282 5.21083 40.2746 5.27617 40.2723 5.34151L40.2615 5.53752L40.2317 5.7316C40.2209 5.79607 40.2134 5.86119 40.1996 5.92502L40.1506 6.115C39.8826 7.1341 39.1947 7.98565 38.3815 8.60647C37.9731 8.92001 37.5293 9.18352 37.0666 9.4039L36.716 9.5611L36.358 9.7004C36.1225 9.79032 35.8905 9.88262 35.6695 10.0025C34.7806 10.4704 34.0326 11.1928 33.4767 12.0338C33.3365 12.2415 33.2123 12.4679 33.0499 12.6674C32.8936 12.8705 32.7161 13.057 32.5227 13.2246C32.1384 13.5633 31.6964 13.834 31.2222 14.0274C30.2731 14.4127 29.2042 14.4962 28.202 14.2613C27.7002 14.1473 27.2171 13.948 26.7781 13.675C26.3376 13.4048 25.9427 13.0549 25.6303 12.638C25.5475 12.5373 25.4838 12.423 25.411 12.315C25.3476 12.2027 25.2833 12.0847 25.2268 11.973C25.1149 11.7483 24.9937 11.5286 24.8619 11.3155C24.5984 10.8896 24.2927 10.4911 23.9435 10.1353C23.7676 9.95378 23.583 9.80283 23.3803 9.63355C23.1834 9.45953 23.0118 9.2577 22.8688 9.03796C22.5833 8.59699 22.4319 8.07385 22.4298 7.55265C22.4257 7.03146 22.5684 6.51177 22.8382 6.07036C23.1064 5.62809 23.4983 5.26431 23.9561 5.03164C24.865 4.59325 25.7042 3.96229 26.2543 3.10513Z" fill="#E1FAFF"/>
<path d="M23.0595 24.9711C22.349 25.5572 21.4828 25.9541 20.5691 26.1001C20.3408 26.1374 20.1083 26.151 19.8836 26.1775C19.6577 26.206 19.434 26.2511 19.2132 26.3061C18.7725 26.4201 18.347 26.5888 17.9446 26.7992C16.3379 27.651 15.0844 29.1156 14.4358 30.8053C14.1123 31.6491 13.9303 32.56 13.9924 33.4676C14.006 33.9226 14.111 34.3687 14.2454 34.802C14.3998 35.2296 14.6148 35.6345 14.8919 35.9957C15.454 36.7097 16.2769 37.2147 17.167 37.3972C18.0624 37.5746 18.9965 37.4498 19.8474 37.1382C20.6975 36.8136 21.4731 36.3088 22.1334 35.6876C22.2151 35.6091 22.3005 35.534 22.3794 35.4528L22.6067 35.1996C22.7643 35.0361 22.898 34.8526 23.0339 34.6713C23.3129 34.3125 23.5141 33.9114 23.7899 33.5222C24.0638 33.1405 24.3913 32.798 24.7577 32.5046C24.9408 32.3577 25.1335 32.2227 25.3341 32.1007C25.4346 32.0399 25.5368 31.9823 25.6405 31.9273C25.7401 31.8743 25.8376 31.8199 25.9336 31.7615C26.6993 31.2929 27.3522 30.6399 27.8346 29.8787C28.0705 29.4956 28.2769 29.093 28.4255 28.6679C28.5695 28.2421 28.6663 27.8011 28.7058 27.3545C28.7802 26.4661 28.568 25.5291 27.9834 24.8466C27.6927 24.5083 27.3167 24.2416 26.891 24.0908C26.4649 23.9425 26.0051 23.8918 25.5514 23.9241C24.6382 23.9925 23.7735 24.4029 23.0595 24.9711ZM23.0447 24.9529C23.7541 24.3703 24.6208 23.9548 25.5456 23.8594C26.006 23.8122 26.4789 23.8484 26.9259 23.9886C27.3723 24.1311 27.7798 24.3968 28.0988 24.744C28.7489 25.4437 28.9878 26.4393 28.929 27.3698C28.9005 27.8397 28.7994 28.3018 28.6499 28.7462C28.4964 29.19 28.2834 29.6096 28.039 30.0088C27.5388 30.7984 26.8679 31.4887 26.0599 31.9713C25.9592 32.0317 25.8557 32.0879 25.752 32.1421C25.6524 32.1938 25.554 32.2482 25.4574 32.3053C25.2647 32.4205 25.0792 32.5479 24.9028 32.6868C24.55 32.9647 24.2339 33.2893 23.9691 33.6517C23.7086 34.0084 23.4919 34.4339 23.1991 34.7953C23.0559 34.979 22.9153 35.1642 22.7505 35.3294L22.5127 35.5843C22.4303 35.6662 22.3415 35.7415 22.2561 35.8202C21.568 36.4436 20.7658 36.9443 19.8918 37.2591C19.0157 37.5636 18.0619 37.6602 17.1507 37.478C17.0364 37.459 16.9275 37.4155 16.8158 37.3855C16.7064 37.3476 16.5896 37.3297 16.4869 37.2742C16.2778 37.1744 16.058 37.0946 15.8698 36.9568L15.5774 36.769L15.3104 36.5465C15.2175 36.4762 15.1383 36.3914 15.0607 36.3052C14.9839 36.2185 14.8977 36.1393 14.8289 36.0462C14.5419 35.6807 14.3204 35.2684 14.1552 34.8345C14.0071 34.3963 13.8887 33.942 13.8628 33.4771C13.7774 32.5496 13.9379 31.6105 14.2544 30.7372C14.8972 28.9931 16.2038 27.4837 17.8791 26.6677C18.2972 26.4654 18.7371 26.3078 19.1893 26.2054C19.4159 26.1562 19.6445 26.1174 19.875 26.0954C20.1073 26.0753 20.3343 26.0691 20.5607 26.0393C21.4675 25.9201 22.3305 25.5252 23.0447 24.9529Z" fill="white"/>
<path d="M16.0483 15.7164C15.1038 15.1922 13.9297 15.1492 12.9537 15.5518C12.707 15.6478 12.4793 15.7828 12.2576 15.9232C12.0452 16.0771 11.8339 16.2361 11.6562 16.4286C11.2913 16.8025 10.9966 17.2485 10.8161 17.7423C10.6336 18.2346 10.5513 18.7659 10.5808 19.2949C10.5918 19.5599 10.6423 19.8215 10.7063 20.0796C10.7473 20.2057 10.7889 20.3327 10.8378 20.4563C10.8963 20.5755 10.9409 20.7023 11.0108 20.8162C11.2648 21.285 11.6323 21.6895 12.0596 22.0061C12.487 22.3263 12.9968 22.5249 13.5165 22.6187C14.561 22.8016 15.6664 22.523 16.4871 21.875C16.5898 21.7939 16.6937 21.7148 16.781 21.6169C16.8703 21.5218 16.971 21.4368 17.045 21.3285C17.2052 21.1325 17.3559 20.8919 17.5528 20.6888C17.7415 20.4839 17.9765 20.3107 18.2021 20.1671C18.4209 20.0302 18.6094 19.8497 18.778 19.6561C19.1129 19.2643 19.3251 18.7694 19.3743 18.2592C19.3969 18.0041 19.376 17.7451 19.3068 17.498C19.2393 17.2496 19.1112 17.0216 18.957 16.814C18.6379 16.4023 18.138 16.1418 17.6121 16.0717C17.4797 16.0517 17.3488 16.0491 17.2117 16.0482C17.0756 16.0433 16.9402 16.0278 16.8071 16.0008C16.5404 15.9467 16.2842 15.8488 16.0483 15.7164ZM16.0597 15.6959C16.2965 15.822 16.5516 15.9133 16.8147 15.9607C16.9462 15.9844 17.0795 15.9967 17.2127 15.9986C17.3449 15.9982 17.484 15.9941 17.6192 16.0066C18.162 16.05 18.7034 16.2913 19.075 16.7143C19.2535 16.9276 19.4118 17.1683 19.4933 17.4404C19.5791 17.7095 19.6123 17.9944 19.5968 18.2762C19.5856 18.5593 19.5099 18.836 19.4008 19.0945C19.2913 19.3533 19.1464 19.5985 18.9628 19.8115C18.7804 20.0242 18.5756 20.2215 18.3379 20.3726C18.1106 20.5199 17.9105 20.6711 17.7283 20.8585C17.5457 21.0402 17.4064 21.2578 17.2235 21.4771C17.1424 21.5908 17.0348 21.6805 16.938 21.7799C16.8433 21.8821 16.7319 21.9651 16.6217 22.0496C15.7408 22.7278 14.5625 22.9803 13.4913 22.7449C12.9548 22.6325 12.4459 22.4003 12.0105 22.0727C11.797 21.9041 11.5902 21.7255 11.416 21.5159C11.3211 21.4183 11.2402 21.3089 11.1602 21.1987C11.0742 21.0929 11.0112 20.9715 10.9394 20.8557C10.3979 19.9094 10.2798 18.7267 10.633 17.6767C10.9955 16.6315 11.8535 15.7606 12.9017 15.414C13.9447 15.0505 15.1124 15.179 16.0597 15.6959Z" fill="#BDD6CB"/>
<path d="M7.84133 43.8277C8.10527 43.3125 8.11734 42.6835 7.88532 42.1649C7.65911 41.6441 7.2121 41.2325 6.67947 41.0494C6.149 40.8689 5.52732 40.9017 5.03308 41.1978C4.53884 41.4852 4.17679 42.0012 4.10196 42.5679C4.01463 43.1312 4.18455 43.7205 4.54359 44.1509C4.63049 44.2609 4.73485 44.3566 4.84483 44.4425C4.95222 44.5255 5.08354 44.6031 5.19524 44.7058C5.3078 44.8041 5.40419 44.9276 5.48441 45.0467C5.56096 45.1623 5.66059 45.2606 5.7669 45.3484C5.98189 45.5224 6.25057 45.6291 6.52486 45.6483C6.7998 45.6684 7.07969 45.5823 7.29425 45.4038C7.51054 45.2267 7.64316 44.9548 7.67313 44.6715C7.68995 44.5309 7.66817 44.3823 7.69965 44.2385C7.72488 44.0951 7.77383 43.9562 7.84133 43.8277ZM7.85254 43.8333C7.78828 43.962 7.743 44.1002 7.72122 44.2421C7.69448 44.3842 7.71518 44.527 7.70806 44.6745C7.69254 44.9662 7.57092 45.2604 7.34924 45.4657C7.13123 45.6748 6.82115 45.7798 6.51882 45.768C6.21477 45.7589 5.92172 45.636 5.68603 45.4499C5.56937 45.355 5.46048 45.2479 5.37595 45.1226C5.29357 45.0027 5.20969 44.8977 5.10661 44.8026C5.00656 44.7073 4.88774 44.6355 4.76742 44.5406C4.65162 44.4474 4.54251 44.3439 4.45172 44.226C4.07479 43.7628 3.92708 43.1342 4.03382 42.5565C4.08643 42.2671 4.20374 41.9907 4.37323 41.7524C4.54445 41.5154 4.76203 41.3134 5.01087 41.1602C5.51072 40.8562 6.14361 40.7758 6.71203 40.9502C7.27851 41.1296 7.75593 41.5788 7.95863 42.1349C8.16608 42.6889 8.11993 43.3188 7.85254 43.8333Z" fill="#BDD6CB"/>
<path d="M69.7771 48.5212C68.8326 47.997 67.6584 47.9543 66.6825 48.3567C66.4358 48.4527 66.2081 48.5876 65.9864 48.728C65.7742 48.882 65.5627 49.0409 65.3848 49.2335C65.0199 49.6074 64.7251 50.0533 64.5446 50.5471C64.3622 51.0394 64.2798 51.5708 64.3092 52.0997C64.3202 52.3647 64.3706 52.6263 64.4347 52.8844C64.4756 53.0108 64.5173 53.1376 64.5662 53.2609C64.6246 53.3804 64.6693 53.507 64.7389 53.6208C64.993 54.0896 65.3604 54.4942 65.7878 54.8107C66.2152 55.1309 66.7249 55.3296 67.2446 55.4234C68.2892 55.6062 69.3945 55.3276 70.2153 54.6796C70.3179 54.5985 70.4218 54.5194 70.5092 54.4215C70.5984 54.3264 70.6991 54.2414 70.7731 54.1332C70.9333 53.9372 71.0841 53.6965 71.2809 53.4934C71.4696 53.2885 71.7047 53.1154 71.9302 52.9718C72.1491 52.8348 72.3376 52.6544 72.5062 52.4605C72.8411 52.0687 73.0533 51.5738 73.1024 51.0636C73.1251 50.8085 73.1041 50.5495 73.0349 50.3024C72.9674 50.054 72.8396 49.8261 72.6852 49.6184C72.366 49.2067 71.8662 48.9463 71.3402 48.876C71.2078 48.8559 71.0769 48.8533 70.9398 48.8525C70.8037 48.8475 70.6683 48.832 70.535 48.805C70.2694 48.7513 70.0132 48.6534 69.7771 48.5212ZM69.7885 48.5005C70.0253 48.6267 70.2804 48.7179 70.5435 48.7653C70.675 48.7891 70.8083 48.8013 70.9415 48.8033C71.0737 48.8029 71.2128 48.7988 71.348 48.8113C71.8908 48.8546 72.4322 49.0959 72.8038 49.519C72.9823 49.7323 73.1406 49.9729 73.2221 50.2448C73.3079 50.5139 73.3411 50.7988 73.3256 51.0806C73.3144 51.3638 73.2389 51.6404 73.1296 51.899C73.02 52.1577 72.8751 52.4029 72.6918 52.616C72.5094 52.8286 72.3043 53.0259 72.0669 53.1771C71.8397 53.3243 71.6395 53.4755 71.4573 53.6629C71.2747 53.8447 71.1354 54.0622 70.9525 54.2816C70.8717 54.3952 70.7638 54.4849 70.667 54.5843C70.5724 54.6865 70.4609 54.7695 70.3507 54.8541C69.4698 55.5322 68.2916 55.7848 67.2203 55.5493C66.6838 55.4369 66.1749 55.2047 65.7395 54.8771C65.5262 54.7085 65.3192 54.53 65.145 54.3204C65.0501 54.2227 64.9692 54.1134 64.8892 54.0032C64.8032 53.8973 64.7402 53.7759 64.6684 53.6601C64.127 52.7139 64.0088 51.5311 64.362 50.4812C64.7245 49.436 65.5825 48.5648 66.6307 48.2185C67.6735 47.8553 68.8412 47.9837 69.7885 48.5005Z" fill="white"/>
<path d="M44.9146 9.06133C44.5655 10.0835 44.7311 11.2468 45.2995 12.1363C45.4375 12.3621 45.6106 12.5624 45.7879 12.7556C45.9768 12.9374 46.1707 13.1173 46.3917 13.2583C46.8243 13.5513 47.3153 13.7627 47.8332 13.853C48.3499 13.9455 48.8877 13.9328 49.4031 13.8103C49.662 13.7527 49.9105 13.6568 50.1533 13.5481C50.2704 13.4856 50.3879 13.4222 50.5007 13.3521C50.6078 13.2734 50.7247 13.207 50.8243 13.1183C51.2409 12.7854 51.5741 12.3524 51.81 11.8756C52.0496 11.3982 52.155 10.8615 52.1555 10.3334C52.1507 9.27288 51.6813 8.23415 50.8985 7.54109C50.8006 7.45441 50.7042 7.366 50.5925 7.29742C50.4832 7.22626 50.3818 7.14238 50.2622 7.08869C50.0409 6.96556 49.7774 6.85989 49.5428 6.70183C49.3078 6.5524 49.0958 6.35164 48.9146 6.15498C48.7411 5.9637 48.5302 5.81017 48.3098 5.67842C47.8649 5.41793 47.3403 5.29674 46.8296 5.33836C46.5745 5.36121 46.3233 5.42763 46.0924 5.53933C45.8597 5.64974 45.6581 5.81599 45.4808 6.00446C45.1321 6.39131 44.964 6.92933 44.9879 7.45937C44.9916 7.59328 45.0123 7.72266 45.0355 7.85765C45.0547 7.99242 45.0634 8.12849 45.0606 8.26434C45.0541 8.53626 45.003 8.80559 44.9146 9.06133ZM44.8921 9.05379C44.9745 8.79847 45.0192 8.5313 45.0194 8.26412C45.0194 8.13043 45.0082 7.99716 44.9864 7.86563C44.9627 7.7356 44.934 7.59953 44.9223 7.46411C44.8691 6.92221 45.0107 6.34668 45.3614 5.90613C45.5397 5.69286 45.7487 5.49448 46.002 5.36596C46.2517 5.23399 46.5262 5.15097 46.8064 5.11625C47.0869 5.07722 47.3726 5.10266 47.6465 5.16434C47.9206 5.22644 48.1875 5.32563 48.4297 5.4686C48.6712 5.61049 48.9017 5.77739 49.0923 5.98462C49.2776 6.18215 49.4615 6.3525 49.6782 6.4987C49.8893 6.6462 50.1282 6.74517 50.3762 6.88642C50.5024 6.94615 50.6098 7.03628 50.7247 7.11391C50.842 7.18896 50.9436 7.28405 51.046 7.37764C51.8691 8.12461 52.326 9.23988 52.2835 10.3358C52.2678 10.8837 52.1291 11.4256 51.8838 11.9121C51.7554 12.1518 51.6164 12.3871 51.4408 12.5956C51.3615 12.7065 51.2681 12.8052 51.1739 12.9033C51.0848 13.0069 50.9766 13.0903 50.8752 13.1813C50.0396 13.8815 48.8963 14.2069 47.8007 14.0449C46.7078 13.8729 45.6988 13.1824 45.1725 12.2118C44.631 11.2496 44.551 10.0776 44.8921 9.05379Z" fill="#BDD6CB"/>
<path d="M65.8069 65.8477H12.9585V67.0209H65.8069V65.8477Z" fill="#A8CAB7"/>
<path d="M39.3829 74.6496C53.9766 74.6496 65.8071 71.2337 65.8071 67.0201C65.8071 62.8065 53.9766 59.3906 39.3829 59.3906C24.7893 59.3906 12.9587 62.8065 12.9587 67.0201C12.9587 71.2337 24.7893 74.6496 39.3829 74.6496Z" fill="#A8CAB7"/>
<path d="M39.3829 73.4777C53.9766 73.4777 65.8071 70.0618 65.8071 65.8482C65.8071 61.6346 53.9766 58.2188 39.3829 58.2188C24.7893 58.2188 12.9587 61.6346 12.9587 65.8482C12.9587 70.0618 24.7893 73.4777 39.3829 73.4777Z" fill="#D3E4DB"/>
<path d="M39.2101 60.9267C45.1131 60.9267 50.6526 61.4609 54.8082 62.4308C59.5861 63.5459 60.6323 64.8132 60.6323 65.2074C60.6323 65.6015 59.5861 66.8686 54.8082 67.9839C50.6526 68.9538 45.1131 69.488 39.2101 69.488C33.307 69.488 27.7673 68.9538 23.6117 67.9839C18.8338 66.8686 17.7876 65.6015 17.7876 65.2074C17.7876 64.8132 18.8338 63.5461 23.6117 62.4308C27.7675 61.4609 33.307 60.9267 39.2101 60.9267ZM39.2101 59.9883C26.8605 59.9883 16.8491 62.3249 16.8491 65.2074C16.8491 68.0898 26.8605 70.4264 39.2101 70.4264C51.5596 70.4264 61.571 68.0898 61.571 65.2074C61.571 62.3249 51.5596 59.9883 39.2101 59.9883Z" fill="#E4EFE8"/>
<path d="M40.9728 68.8059C51.3863 68.8059 59.8281 66.3686 59.8281 63.3619C59.8281 60.3553 51.3863 57.918 40.9728 57.918C30.5592 57.918 22.1174 60.3553 22.1174 63.3619C22.1174 66.3686 30.5592 68.8059 40.9728 68.8059Z" fill="#A8CAB7"/>
<path d="M46.3602 53.6905L46.5784 48.1055H33.6147C33.7064 49.6796 33.8547 51.9166 34.0439 53.6905H46.3602Z" fill="#FF8D6A"/>
<path d="M37.3847 33.1439C37.3327 33.2912 37.2868 33.4296 37.2048 33.5739L37.3075 37.7288H44.0936V32.6406L37.3847 33.1439Z" fill="#FF926E"/>
<path d="M65.1398 22.0911C63.9139 21.6936 62.7113 21.2376 61.5663 20.6435C60.4044 20.0408 59.2958 19.3387 58.2226 18.5908C56.7619 17.5733 54.83 15.7147 51.808 14.8379C47.7868 13.6713 44.1452 14.2419 40.1904 16.6456C35.627 19.4193 33.9533 24.1472 36.206 27.9329C38.307 31.4633 42.9734 33.252 47.7554 32.9536C49.6627 32.8346 53.6953 30.2008 56.3515 30.7006C61.5941 31.6874 59.8278 36.1146 59.3241 37.8278C60.197 37.9122 61.389 37.9402 62.0709 37.3884C62.7648 38.089 63.4404 39.4223 64.2288 40.1677C66.6646 42.4712 71.0026 43.2699 75.3302 42.4412C78.565 41.8217 79.6984 43.5565 79.9258 45.7122C84.3889 43.5095 85.5928 34.1226 81.4743 27.2974C75.5299 17.4462 69.8823 23.6283 65.1398 22.0911Z" fill="#A56941"/>
<path d="M44.6162 52.293C43.996 52.5789 43.3403 52.7764 42.6813 52.9511C41.8796 53.1635 41.0834 53.3886 40.2582 53.4913C38.6118 53.6959 36.9665 53.4408 35.4426 52.8232C29.0694 53.8061 21.8011 55.4533 21.087 55.501C19.9807 55.5747 19.9963 56.9059 24.9199 60.2053C33.1825 65.7423 37.7066 64.621 37.7066 64.621C37.7066 64.621 41.6243 63.2197 45.2202 64.621C48.8162 66.0219 60.9307 64.9423 61.2507 60.9601C61.556 57.1612 49.9198 53.2234 44.6162 52.293Z" fill="#F0E1D3"/>
<path d="M40.4118 34.8229C40.4118 34.8229 40.8592 34.0029 41.2094 34.1307C41.5596 34.2586 43.1489 34.4509 43.1489 34.4509C43.1489 34.4509 41.5156 34.4622 41.2288 34.6703C40.9423 34.8786 40.2966 35.0101 40.4118 34.8229Z" fill="#F57356"/>
<path d="M39.5528 34.7583C39.5528 34.7583 39.2395 33.8781 38.8737 33.9494C38.5078 34.0208 37.2222 34.0182 37.2222 34.0182C37.2222 34.0182 38.5192 34.2289 38.7696 34.4795C39.0202 34.73 39.6371 34.9614 39.5528 34.7583Z" fill="#F57356"/>
<path d="M59.2772 57.9399C57.7466 57.5828 56.1884 57.4243 54.6123 57.6593C50.9115 58.2113 43.7502 62.4365 41.3989 62.4365C37.7443 62.4365 34.8642 58.9592 31.4559 57.9187C27.8752 56.8257 26.0462 55.5174 22.3094 55.3319C22.2557 55.3293 22.2035 55.324 22.1531 55.3164C21.5959 55.4253 21.2226 55.4924 21.087 55.5014C19.9807 55.5752 19.9963 56.9063 24.9199 60.2058C33.1825 65.7427 37.7066 64.6214 37.7066 64.6214C37.7066 64.6214 41.6243 63.2204 45.2202 64.6214C48.8162 66.0226 60.9307 64.9429 61.2507 60.9607C61.3324 59.9436 60.5568 58.9165 59.2772 57.9399Z" fill="#D8C5B6"/>
<path d="M28.0696 49.8915C28.1325 47.1775 31.6865 34.9474 33.6261 34.25C33.6261 34.25 35.6074 40.2906 34.5117 44.8106C33.3033 49.7959 32.254 52.9266 32.254 52.9266L28.0696 49.8915Z" fill="#FF8D6A"/>
<path d="M33.511 51.6055C33.7857 53.668 34.1952 55.6157 34.7832 56.0288C37.2219 57.7421 45.1554 59.2677 46.5948 52.7087C46.6373 52.515 46.6767 52.1653 46.7136 51.6965C41.5277 53.359 38.324 53.0091 33.511 51.6055Z" fill="#F0E1D3"/>
<path d="M43.9785 32.6133C43.9785 32.6133 43.0249 36.4786 40.0079 36.4009C37.9645 36.3485 37.2098 34.7168 37.3845 33.1427C35.3551 33.7667 33.6257 34.2476 33.6257 34.2476C33.6257 34.2476 33.5185 40.0631 32.2536 43.1096C30.988 46.1579 33.1043 47.792 33.302 49.7866C36.6172 50.6069 41.3283 50.4668 46.8234 49.7866C47.0664 44.3301 47.1464 33.5726 47.1464 33.5726C47.1464 33.5726 45.8075 33.0312 43.9785 32.6133Z" fill="#FAC855"/>
<path d="M43.5765 27.4531C43.0305 28.6387 43.435 36.2412 42.8655 37.4977C41.5805 40.3325 39.632 41.0115 39.632 41.0115C39.632 41.0115 37.5565 53.0197 41.9577 54.4162C46.3588 55.8127 52.5254 52.1552 53.7289 54.9592" stroke="white" stroke-width="0.5" stroke-miterlimit="10" stroke-linecap="round"/>
<path d="M36.9255 38.7038C36.1373 37.5504 36.0813 31.4701 36.0782 30.2366C36.0763 30.2334 36.0782 30.0527 36.0782 30.0527C36.0782 30.0527 36.0254 29.9703 35.9913 29.9062C35.9894 30.3699 35.9551 37.4745 36.8366 38.7644C37.7272 40.0679 39.5884 41.0528 39.6071 41.0627L39.6572 40.9672C39.6384 40.9575 37.8008 39.9845 36.9255 38.7038Z" fill="white"/>
<path d="M43.251 27.8689L42.2686 33.577H38.6994L38.575 27.8281L43.251 27.8689Z" fill="#FF926E"/>
<path d="M41.9696 29.1444C42.0226 28.8214 42.1063 28.5632 42.1535 27.8594L38.5754 27.8281L38.6796 32.6437C39.8831 32.4833 41.4633 32.2273 41.9696 29.1444Z" fill="#F57356"/>
<path d="M38.5752 31.4917C40.398 31.5478 43.2961 29.1376 43.352 27.3148C43.352 27.3148 43.7444 24.5361 43.2573 23.6587C42.4114 22.1352 38.7684 21.8799 37.3094 22.0923C35.0743 22.4179 35.3562 26.5463 35.3562 26.5463C35.1791 31.666 38.5752 31.4917 38.5752 31.4917Z" fill="#FF926E"/>
<path d="M44.6204 26.6126C44.558 27.3939 43.8096 28.0104 42.8694 27.9849L42.9664 25.1484C43.9066 25.1737 44.7323 25.2108 44.6204 26.6126Z" fill="#FF926E"/>
<path d="M43.6774 26.0917C43.6748 25.9845 43.8139 25.9438 43.8715 26.0341C43.9666 26.1836 44.0308 26.3932 43.9209 26.6437C43.7652 26.998 43.4605 27.3392 43.3285 27.1861C43.1965 27.0332 43.3399 27.0729 43.5694 26.6159C43.6599 26.4352 43.6811 26.2448 43.6774 26.0917Z" fill="#F57356"/>
<path d="M39.1202 26.6719C39.1023 26.8996 39.2215 27.0945 39.3867 27.1077C39.5519 27.1208 39.7005 26.9468 39.7184 26.7191" stroke="#281923" stroke-width="0.7515" stroke-miterlimit="10"/>
<path d="M36.2828 26.4141C36.2649 26.6418 36.3841 26.8367 36.5495 26.8499C36.7147 26.863 36.8633 26.689 36.8812 26.4613" stroke="#281923" stroke-width="0.7515" stroke-miterlimit="10"/>
<path d="M40.6047 25.764C40.6047 25.764 39.6018 25.0973 38.5842 25.6044" stroke="#F57356" stroke-width="0.8563" stroke-miterlimit="10"/>
<path d="M35.5596 25.3661C35.8938 25.1997 36.2263 25.1596 36.5224 25.1811C37.394 25.2443 38.0431 26.0603 37.8082 26.9021C37.7903 26.9666 37.7671 27.0315 37.7379 27.0964C37.3888 27.8738 37.0981 28.0989 37.6758 28.2162" stroke="#F57356" stroke-width="0.8563" stroke-miterlimit="10"/>
<path d="M38.493 29.5536C38.493 29.5536 37.8085 29.9629 37.2188 29.3477" stroke="#F57356" stroke-width="0.8563" stroke-miterlimit="10"/>
<path d="M40.6642 27.8451C40.6584 27.9182 40.713 27.9823 40.7863 27.9879C40.8594 27.9937 40.9234 27.9392 40.9293 27.8658C40.9351 27.7927 40.8805 27.7287 40.8072 27.7231C40.7339 27.7173 40.6701 27.7718 40.6642 27.8451Z" fill="#F57356"/>
<path d="M40.0522 28.1659C40.0496 28.1974 40.0731 28.2247 40.1046 28.2273C40.1361 28.2297 40.1635 28.2062 40.1661 28.1749C40.1686 28.1435 40.1451 28.1161 40.1137 28.1135C40.0824 28.1109 40.0548 28.1344 40.0522 28.1659Z" fill="#F57356"/>
<path d="M40.7401 28.5761C40.7351 28.6403 40.783 28.6964 40.8471 28.7014C40.9113 28.7063 40.9674 28.6585 40.9723 28.5944C40.9773 28.5302 40.9294 28.4741 40.8654 28.4691C40.8013 28.464 40.7453 28.5118 40.7401 28.5761Z" fill="#F57356"/>
<path d="M41.3989 28.083C41.3961 28.1186 41.4226 28.1496 41.4582 28.1524C41.4938 28.1552 41.5248 28.1287 41.5276 28.0931C41.5304 28.0575 41.5039 28.0265 41.4683 28.0237C41.4327 28.0207 41.4017 28.0474 41.3989 28.083Z" fill="#F57356"/>
<path d="M40.0294 28.8439C40.0251 28.8976 40.0652 28.9446 40.1191 28.9489C40.173 28.9532 40.2198 28.9129 40.2241 28.8592C40.2284 28.8055 40.1881 28.7585 40.1344 28.7542C40.0807 28.7501 40.0337 28.7902 40.0294 28.8439Z" fill="#F57356"/>
<path d="M39.386 27.8344C39.3821 27.8825 39.4182 27.9245 39.4662 27.9284C39.5143 27.9323 39.5564 27.8963 39.5603 27.8482C39.5641 27.8001 39.5281 27.758 39.48 27.7542C39.432 27.7505 39.3899 27.7865 39.386 27.8344Z" fill="#F57356"/>
<path d="M39.513 28.4409C39.5197 28.3574 39.4574 28.2843 39.3737 28.2778C39.2903 28.2712 39.2172 28.3335 39.2107 28.4171C39.204 28.5006 39.2663 28.5737 39.3498 28.5802C39.4335 28.5866 39.5066 28.5243 39.513 28.4409Z" fill="#F57356"/>
<path d="M42.8987 23.2172C41.6624 22.0871 38.6137 21.9023 37.3091 22.0922C36.0332 22.2781 35.578 23.7028 35.4219 24.8916C36.7226 24.7015 37.7546 24.1289 38.5344 23.4941C38.8386 23.7494 39.186 24.0017 39.5802 24.2359C40.1549 24.5775 40.862 24.8438 41.544 25.0469C42.2481 25.2563 42.7747 25.8424 42.8827 26.5689L42.8987 26.5005V23.2172Z" fill="#F57356"/>
<path d="M36.3492 27.5835C36.3443 27.6473 36.3919 27.7034 36.4558 27.7083C36.5196 27.7133 36.5757 27.6656 36.5806 27.6018C36.5856 27.538 36.5379 27.4819 36.4741 27.4769C36.41 27.4718 36.3542 27.5194 36.3492 27.5835Z" fill="#F57356"/>
<path d="M58.6996 59.0984C56.6103 58.4167 47.1447 61.5663 43.9446 63.9797C42.585 65.0051 41.2052 65.8081 40.0675 66.3932C38.5807 67.1576 34.8419 67.4368 34.8419 67.4368C34.7824 67.6005 34.7328 67.7575 34.6908 67.9091C32.8309 68.4542 30.8977 68.7143 28.9576 68.674C28.0448 68.6552 27.1769 68.6901 26.8038 68.8575C25.9512 69.24 24.385 71.4945 24.8924 72.4271C25.1743 72.9455 26.5179 72.6805 27.4797 72.4116C28.3325 72.1729 29.1953 71.973 30.069 71.8281L35.1699 70.9815C35.3306 71.1551 35.4572 71.234 35.4572 71.234C35.4572 71.234 37.8158 71.0912 41.0107 70.5107C41.4924 70.4232 42.0224 70.3288 42.5866 70.2274C42.5896 70.2283 42.5922 70.2296 42.5952 70.2304C42.5952 70.2304 47.058 72.2598 48.4497 72.8355C49.948 73.4555 52.6551 72.6389 53.4816 70.5107C53.7341 69.8604 51.9616 69.1581 50.3987 68.7477C50.3368 68.7315 50.2704 68.7162 50.202 68.7013C53.6483 67.8908 57.0123 66.8641 59.0369 65.5692C63.0462 63.0042 60.7889 59.78 58.6996 59.0984Z" fill="#A8CAB7"/>
<path d="M50.4715 68.7661C47.1039 69.2332 43.2422 69.4827 39.2102 69.4827C35.0144 69.4827 31.005 69.2116 27.5428 68.707C27.2279 68.7361 26.9666 68.7829 26.8035 68.856C26.5946 68.9496 26.3429 69.1568 26.0894 69.4281C29.7748 70.0526 34.3077 70.4211 39.2102 70.4211C40.043 70.4211 40.8648 70.4101 41.6739 70.3894C41.9661 70.337 42.2699 70.2825 42.586 70.2258C42.5891 70.2266 42.5916 70.2279 42.5947 70.2288C42.5947 70.2288 42.6941 70.2741 42.8646 70.3515C46.3787 70.2167 49.616 69.8907 52.3755 69.4208C51.8205 69.1687 51.1307 68.9423 50.4715 68.7661Z" fill="#BAD6C5"/>
<path d="M50.723 60.7305C50.0942 60.9547 49.4678 61.1924 48.8584 61.4393C51.0376 61.6864 53.0482 62.018 54.8083 62.4288C58.0821 63.1928 59.6036 64.0284 60.2372 64.6055C60.4754 64.3575 60.6665 64.1071 60.8157 63.857C59.3052 62.5347 55.627 61.4192 50.723 60.7305Z" fill="#D3E4DB"/>
<path d="M36.1833 28.3774C36.1904 28.2884 36.124 28.2108 36.0349 28.2036C35.9459 28.1965 35.868 28.2632 35.8611 28.352C35.854 28.4411 35.9204 28.5189 36.0095 28.5258C36.0983 28.5329 36.1762 28.4665 36.1833 28.3774Z" fill="#F57356"/>
<path d="M35.6465 27.7196C35.6424 27.7715 35.6813 27.8168 35.733 27.8209C35.785 27.825 35.8303 27.7862 35.8344 27.7345C35.8385 27.6827 35.7996 27.6372 35.7479 27.6331C35.6961 27.629 35.6506 27.6678 35.6465 27.7196Z" fill="#F57356"/>
<path d="M42.5947 68.8241C42.5947 68.8241 47.0576 70.8532 48.4493 71.4292C49.9475 72.0491 52.6547 71.2325 53.4812 69.1044C53.7337 68.454 51.9612 67.7517 50.3982 67.3413C48.8355 66.931 45.0694 66.9793 43.6874 66.0464C42.3051 65.1138 41.151 68.4564 42.5947 68.8241Z" fill="#FF8D6A"/>
<path d="M20.3098 55.7128C20.3098 55.7128 24.2193 54.2329 29.0196 56.7791C33.82 59.3256 43.6871 66.0477 43.6871 66.0477C43.6871 66.0477 44.8403 68.2801 42.5947 68.8251C42.5947 68.8251 33.1148 65.8853 28.5004 65.2103C23.8862 64.5354 19.8576 60.6317 19.3636 58.311C18.8698 55.9905 20.3098 55.7128 20.3098 55.7128Z" fill="#F0E1D3"/>
<path d="M16.221 42.9923C16.3207 42.9386 16.4423 42.9489 16.5406 43.0052C16.7761 43.1398 17.3667 43.4496 17.964 43.5449C18.681 43.6592 19.7176 44.3156 19.6171 45.5778C19.5296 46.6771 18.6342 47.6442 15.6183 47.5994C14.4711 47.5823 13.9696 47.2543 13.6133 47.0465C13.0333 46.7079 13.0911 46.4276 13.2502 46.3931C13.507 46.3372 14.3001 47.0074 15.7654 46.9201C16.8902 46.853 16.3274 46.6889 15.6069 46.6945C15.3462 46.6965 13.7255 46.626 13.0218 45.3744C12.9518 45.2498 12.9349 45.0973 12.9962 44.9681C13.0734 44.8051 13.2502 44.6952 13.6524 45.1644C14.3226 45.9463 15.5092 46.1347 15.97 45.9965C16.3051 45.896 15.7229 45.7598 15.3878 45.7375C15.0527 45.7151 14.0209 45.4324 13.6243 44.7232C13.3401 44.2147 13.697 44.0355 13.9877 44.1981C14.1621 44.2958 14.3832 44.4907 14.624 44.74C15.1733 45.3084 16.0481 45.1812 16.0593 44.969C16.0684 44.7961 15.0428 44.9244 14.8084 44.31C14.5945 43.7496 15.1053 43.0201 15.9362 43.0675C16.0559 43.0744 16.1182 43.2101 16.0421 43.3028C15.9414 43.4255 15.7786 43.5963 15.5288 43.7906C15.2543 44.004 15.591 44.1093 15.9931 44.128C16.3276 44.1438 16.7075 44.0996 16.819 44.0083C16.819 44.0083 15.7844 43.4328 16.1544 43.0423C16.174 43.0216 16.1969 43.0052 16.221 42.9923Z" fill="#FF8D6A"/>
<path d="M18.4316 46.3294C18.4316 46.3294 25.0429 51.4454 27.67 52.1059C28.8271 52.3968 32.254 52.929 32.254 52.929L30.7816 48.1326L19.1417 44.1836L18.4316 46.3294Z" fill="#FF8D6A"/>
<path d="M40.3956 20.9182C40.3956 20.9182 38.4052 24.8726 34.042 24.5832C34.042 24.5832 33.9717 21.6861 35.4583 20.4218C36.9452 19.1573 40.3956 20.9182 40.3956 20.9182Z" fill="#A56941"/>
<path d="M47.1466 33.5742C47.1466 33.5742 44.3157 37.9655 45.2406 44.0939C45.734 47.3638 48.1444 52.6482 48.1444 52.6482C48.1444 52.6482 49.6377 52.3381 50.6512 51.352C51.7919 50.2421 51.9316 35.632 47.1466 33.5742Z" fill="#FF8D6A"/>
<path d="M64.1206 41.9024C64.021 41.8487 63.8994 41.8591 63.8011 41.9154C63.5656 42.0499 62.975 42.3598 62.3776 42.4551C61.6606 42.5694 60.6241 43.2258 60.7246 44.4879C60.8121 45.5872 61.7074 46.5544 64.7233 46.5095C65.8705 46.4925 66.3721 46.1645 66.7283 45.9566C67.3084 45.6181 67.2506 45.3377 67.0913 45.3032C66.8344 45.2474 66.0413 45.9176 64.5761 45.8303C63.4513 45.7632 64.0141 45.5991 64.7346 45.6047C64.9953 45.6066 66.616 45.5361 67.3196 44.2846C67.3897 44.1599 67.4065 44.0075 67.3453 43.8783C67.2681 43.7153 67.0913 43.6053 66.6891 44.0745C66.0189 44.8564 64.8322 45.0449 64.3714 44.9067C64.0363 44.8062 64.6185 44.6699 64.9536 44.6477C65.2887 44.6253 66.3206 44.3426 66.7171 43.6333C67.0013 43.1249 66.6445 42.9457 66.3538 43.1083C66.1793 43.2059 65.9583 43.4009 65.7174 43.6502C65.1682 44.2186 64.2934 44.0914 64.2821 43.8792C64.2731 43.7062 65.2987 43.8345 65.5331 43.2202C65.747 42.6597 65.2361 41.9302 64.4053 41.9777C64.2856 41.9846 64.2233 42.1202 64.2994 42.2129C64.4001 42.3356 64.5629 42.5064 64.8126 42.7007C65.0871 42.9142 64.7505 43.0194 64.3483 43.0382C64.0139 43.0539 63.6339 43.0097 63.5225 42.9185C63.5225 42.9185 64.5571 42.343 64.187 41.9524C64.1676 41.9317 64.1448 41.9154 64.1206 41.9024Z" fill="#FF8D6A"/>
<path d="M61.9101 45.2354C61.9101 45.2354 55.7987 50.9114 53.2665 51.8732C50.2055 53.0355 48.144 52.6482 48.144 52.6482L50.0507 47.96L61.2 43.0898L61.9101 45.2354Z" fill="#FF8D6A"/>
<path d="M38.3242 53.0977C38.3242 53.0977 38.2119 58.2171 40.4088 61.6662" stroke="#D8C5B6" stroke-width="1.0297" stroke-miterlimit="10" stroke-linecap="round"/>
<path d="M27.6299 56.1367L31.2502 58.8089C32.4593 59.6956 33.661 60.592 34.8831 61.4602C36.0962 62.3402 37.3193 63.2066 38.5616 64.0435C39.1842 64.4595 39.8061 64.878 40.4489 65.2612C40.6087 65.3587 40.7648 65.4628 40.9276 65.5549L41.4179 65.8277C41.7395 66.0224 42.0888 66.1559 42.428 66.3185C42.0808 66.1802 41.7192 66.0644 41.3897 65.8831L40.8845 65.6323C40.7167 65.5476 40.5556 65.4507 40.3909 65.3606C39.7334 64.9957 39.099 64.5931 38.4626 64.1944C37.196 63.3864 35.9718 62.5168 34.7461 61.6503C33.534 60.7652 32.3288 59.8707 31.142 58.9523L29.3716 57.5623C28.7896 57.0892 28.203 56.6215 27.6299 56.1367Z" fill="#D8C5B6"/>
<path d="M35.2887 66.3164C33.2473 66.9885 31.1062 67.3088 28.9574 67.2643C28.0444 67.2456 27.1767 67.2805 26.8036 67.4479C25.951 67.8304 24.3848 70.0849 24.8922 71.0175C25.174 71.5357 26.5177 71.2711 27.4794 71.002C28.3323 70.7633 29.195 70.5636 30.0688 70.4185L35.673 69.4884C35.673 69.4884 37.9234 67.4015 35.2887 66.3164Z" fill="#FF8D6A"/>
<path d="M40.0674 64.9868C41.2051 64.402 42.5849 63.5988 43.9445 62.5734C47.1446 60.1602 56.6102 57.0106 58.6995 57.6921C60.7888 58.3735 63.0463 61.5979 59.0363 64.1625C55.0263 66.727 45.7641 68.2404 41.0103 69.104C37.8155 69.6845 35.4568 69.8273 35.4568 69.8273C35.4568 69.8273 33.8294 68.8183 34.8418 66.0303C34.8418 66.0303 38.5805 65.7511 40.0674 64.9868Z" fill="#F0E1D3"/>
<path d="M34.842 66.6308C35.2895 66.6579 35.7378 66.6409 36.1833 66.6049C36.4065 66.5919 36.6279 66.5577 36.8501 66.5346C37.0707 66.4992 37.2921 66.4695 37.5114 66.4278C38.3899 66.2685 39.2548 66.0367 40.0913 65.727C40.925 65.4109 41.7392 65.046 42.5196 64.6148C43.2914 64.1725 44.042 63.683 44.7887 63.1879C46.2948 62.2188 47.7667 61.1915 49.3184 60.2828C50.0956 59.8317 50.8937 59.4132 51.7211 59.0608C52.5506 58.7143 53.4047 58.4275 54.277 58.2188C52.553 58.7201 50.9266 59.4914 49.4058 60.4295C47.8808 61.3632 46.4093 62.3879 44.9101 63.3733C44.1593 63.8631 43.4041 64.348 42.6171 64.7914C41.8233 65.2188 41.0002 65.5929 40.1482 65.8872C38.4456 66.4621 36.6333 66.791 34.842 66.6308Z" fill="#D8C5B6"/>
<path d="M45.3497 46.9446C45.3497 46.9446 50.2573 45.7913 51.7556 45.2831C51.7556 45.2831 51.502 34.7736 47.1466 33.5776C42.7911 32.3817 45.3497 46.9446 45.3497 46.9446Z" fill="#FAC855"/>
<path d="M28.3018 45.2807C28.3018 45.2807 28.3535 46.5806 33.7779 48.2337L33.6258 34.25C33.6258 34.25 31.298 34.9403 28.3018 45.2807Z" fill="#FAC855"/>
<path d="M34.0418 37.6836C33.9829 38.117 33.8966 38.5457 33.8117 38.975C33.719 39.4024 33.6139 39.8275 33.502 40.251C33.2696 41.0956 32.9882 41.9299 32.5989 42.7265C32.3848 43.1284 32.1489 43.4694 32.0639 43.8838C31.9641 44.2931 31.9887 44.7254 32.04 45.1487C32.0974 45.5733 32.2097 45.993 32.3546 46.4012C32.4944 46.812 32.6697 47.2113 32.8696 47.5997C32.39 46.8693 32.0269 46.0514 31.8617 45.1772C31.7797 44.7416 31.759 44.2843 31.8552 43.839C31.9087 43.6192 31.9708 43.3973 32.0838 43.197C32.1834 42.9827 32.2957 42.8188 32.3902 42.6204C32.7857 41.8553 33.0626 41.0273 33.3297 40.2005C33.4617 39.7861 33.5853 39.3682 33.7006 38.9479C33.8227 38.5289 33.9311 38.1065 34.0418 37.6836Z" fill="#FFA50A"/>
<path d="M45.0549 37.9375L44.9643 40.189C44.9397 40.939 44.9106 41.6881 44.8934 42.4376C44.869 43.187 44.8623 43.9365 44.8505 44.6865C44.8444 45.0615 44.8429 45.4367 44.847 45.8119C44.8371 46.1878 44.8539 46.5626 44.8459 46.9393C44.7532 46.1925 44.6958 45.4412 44.67 44.6891C44.6391 43.937 44.6398 43.184 44.659 42.4316C44.682 41.6795 44.7174 40.9275 44.7849 40.178C44.8502 39.4286 44.9302 38.6802 45.0549 37.9375Z" fill="#FFA50A"/>
<path d="M34.842 46.5133C35.4782 46.2666 36.1425 46.0928 36.8218 45.9874C37.1617 45.9341 37.5069 45.9106 37.8549 45.9145C38.0294 45.9212 38.2036 45.9354 38.3778 45.9664C38.5499 45.9962 38.7298 46.0484 38.8855 46.0986C39.5272 46.3071 40.1819 46.471 40.8465 46.5849C41.1788 46.6422 41.5145 46.6817 41.8518 46.7041C42.1892 46.7343 42.5284 46.7378 42.8694 46.7369C42.5323 46.7906 42.1905 46.8104 41.8481 46.8191C41.5057 46.8199 41.1628 46.8001 40.8214 46.7637C40.1381 46.6903 39.4668 46.5286 38.8136 46.322C38.1898 46.0894 37.5131 46.1111 36.8434 46.1659C36.5078 46.1954 36.1734 46.2474 35.8402 46.3082C35.5056 46.3632 35.1739 46.4363 34.842 46.5133Z" fill="#FFA50A"/>
<path d="M43.0517 21.6316C41.7206 21.0985 36.7087 20.8633 36.7087 20.8633C36.7087 20.8633 37.4812 22.6244 39.5806 23.8719C40.1553 24.2134 40.8623 24.4797 41.5444 24.6827C42.2482 24.8923 42.775 25.4781 42.8831 26.2046L42.9247 26.0269C43.0468 25.5042 43.5468 25.1618 44.0792 25.2306H44.0794C44.0794 25.2306 44.3828 22.1647 43.0517 21.6316Z" fill="#A56941"/>
<path d="M42.1536 24.9922C42.1536 24.9922 42.8057 25.3965 42.7021 27.11L43.1026 26.6054C43.1026 26.6054 43.0109 25.293 43.8446 25.2307L42.1536 24.9922Z" fill="#A56941"/>
<path d="M46.5951 52.7109C46.4435 52.8136 46.3096 52.9341 46.1927 53.0706C46.0719 53.2026 45.9635 53.3447 45.8617 53.4907C45.6605 53.7846 45.4867 54.0975 45.3416 54.4244C45.1861 54.7468 45.0662 55.0858 44.9407 55.4241L44.603 56.4609C44.6164 56.2782 44.6442 56.0973 44.6645 55.9144C44.6962 55.734 44.7348 55.5543 44.7747 55.3747C44.8225 55.1972 44.8743 55.0202 44.9323 54.8451C44.9985 54.6728 45.0589 54.4981 45.1402 54.3312C45.2944 53.9951 45.4848 53.6718 45.7243 53.3861C45.9607 53.1028 46.2483 52.8412 46.5951 52.7109Z" fill="#D8C5B6"/>
<path d="M42.8694 53.3601C43.4216 53.0268 44.0392 52.8148 44.6712 52.6826C44.9887 52.6214 45.3121 52.5854 45.6362 52.5821C45.9605 52.5798 46.2857 52.6233 46.5952 52.7098C46.2726 52.7089 45.9586 52.7247 45.6455 52.7553C45.3333 52.7932 45.0225 52.837 44.7144 52.9004C44.4056 52.9608 44.0992 53.0345 43.7923 53.1115C43.4861 53.1922 43.1784 53.2715 42.8694 53.3601Z" fill="#D8C5B6"/>
<path d="M33.7407 53.0977C34.0275 53.2745 34.2828 53.5026 34.5067 53.756C34.7331 54.0081 34.9297 54.2875 35.0945 54.5845C35.2567 54.8827 35.3962 55.1949 35.4854 55.5225C35.5872 55.846 35.6284 56.1854 35.6435 56.5198C35.5383 56.1996 35.4397 55.8854 35.3125 55.5822C35.1915 55.2775 35.049 54.983 34.8896 54.6983C34.7352 54.4107 34.5552 54.1372 34.3646 53.8701C34.1709 53.6053 33.9689 53.3439 33.7407 53.0977Z" fill="#D8C5B6"/>
<path d="M36.2445 53.7868L34.9923 53.4487L34.3693 53.2826C34.161 53.2253 33.9512 53.171 33.7407 53.0963C34.1839 53.0526 34.6257 53.1134 35.0527 53.2221C35.2651 53.282 35.4749 53.3519 35.6761 53.4444C35.8768 53.5362 36.0733 53.643 36.2445 53.7868Z" fill="#D8C5B6"/>
<path d="M40.605 18.9939C41.4956 18.6905 42.4278 18.5175 43.3636 18.4179C44.3008 18.3232 45.247 18.3047 46.1883 18.373C48.0716 18.5003 49.9315 18.9686 51.6652 19.7212C52.534 20.0986 53.3636 20.546 54.196 20.9844C55.0279 21.425 55.8484 21.8849 56.673 22.3341C57.4974 22.7835 58.3284 23.2178 59.178 23.6089C60.0277 23.9999 60.8988 24.3408 61.7883 24.6257C63.5708 25.1857 65.4177 25.5298 67.2795 25.7364C69.1442 25.9531 71.0144 26.0133 72.9008 26.0799C74.7867 26.1914 76.691 26.7066 78.2563 27.7957C79.0369 28.3355 79.7201 29.0122 80.2682 29.7822C80.8153 30.5507 81.247 31.409 81.4749 32.3224C80.9281 30.5231 79.7222 28.9492 78.1679 27.9256C76.6145 26.8821 74.7425 26.4075 72.887 26.3277C71.0155 26.28 69.1226 26.2229 67.2487 26.0165C65.3744 25.8158 63.5011 25.4897 61.6988 24.904C60.799 24.6108 59.9179 24.2604 59.0614 23.861C58.2051 23.4612 57.3708 23.0198 56.5466 22.565L54.083 21.1923C53.2592 20.7416 52.4387 20.2819 51.5861 19.9015C49.8804 19.1347 48.0445 18.6601 46.1788 18.4919C45.2459 18.4062 44.3047 18.4067 43.3697 18.4832C42.4364 18.5673 41.5027 18.7127 40.605 18.9939Z" fill="#965028"/>
<path d="M44.093 28.9523C46.5353 28.4184 49.0266 28.0969 51.5312 27.9986C52.7836 27.9498 54.0412 27.9796 55.2919 28.1131C56.5396 28.2524 57.7909 28.4919 58.9664 28.9808C59.5525 29.2251 60.111 29.5488 60.607 29.9565C60.7266 30.0609 60.8515 30.1664 60.9612 30.2953C61.0676 30.4206 61.1635 30.5498 61.2526 30.6806C61.4324 30.9422 61.598 31.2072 61.7673 31.4688C62.1039 31.9926 62.4567 32.5017 62.853 32.9752C63.2515 33.446 63.6919 33.8803 64.1764 34.26C65.147 35.0208 66.3203 35.5049 67.5403 35.7177C68.1508 35.8273 68.7734 35.8689 69.3957 35.8693L69.863 35.8611L70.3296 35.8296C70.6416 35.8163 70.9502 35.766 71.2614 35.7361C70.0329 35.9595 68.7667 36.0334 67.5173 35.8596C66.2733 35.6716 65.0575 35.2017 64.0406 34.4394C63.0124 33.6868 62.2244 32.6628 61.5454 31.6135C61.3733 31.3519 61.2058 31.0882 61.0298 30.8361C60.9425 30.7093 60.8506 30.5884 60.754 30.476C60.6607 30.3669 60.5457 30.2707 60.4293 30.1707C59.9572 29.787 59.4201 29.4832 58.8538 29.2467C57.7209 28.766 56.4928 28.5197 55.2626 28.3742C54.0287 28.2306 52.7821 28.2047 51.537 28.2191C50.2913 28.2396 49.046 28.324 47.8046 28.451C46.5625 28.5711 45.3247 28.7401 44.093 28.9523Z" fill="#965028"/>
<path d="M45.5989 23.5352C46.2042 23.9856 46.8858 24.3184 47.5793 24.6032C48.2773 24.8797 48.9949 25.1082 49.7294 25.2618C51.1921 25.5975 52.7005 25.7008 54.197 25.6581L55.3269 25.6236L55.8964 25.6104C56.0862 25.6096 56.2759 25.6245 56.4657 25.6309L57.0352 25.6562L57.6021 25.7178C57.7908 25.7413 57.9808 25.7545 58.1684 25.7866L58.7301 25.8884C59.1073 25.9443 59.4719 26.0585 59.8426 26.1465C60.0285 26.189 60.2061 26.2604 60.3884 26.316C60.5682 26.3788 60.7534 26.4273 60.929 26.5017C61.6416 26.7736 62.3304 27.1081 62.9855 27.5012C64.2759 28.313 65.4379 29.3587 66.2787 30.643C67.0889 31.8859 68.3005 32.8337 69.6772 33.4006L69.9329 33.5127C70.0194 33.5472 70.1084 33.5757 70.196 33.6074L70.7243 33.7922L71.2647 33.9416L71.5351 34.0164L71.8098 34.074L72.3597 34.1891C72.543 34.228 72.7299 34.2476 72.9149 34.2778L73.4715 34.3608L74.0322 34.4151C75.5276 34.5682 77.0369 34.5648 78.5435 34.5167C77.0407 34.6355 75.5283 34.67 74.019 34.568L73.4532 34.5251L72.8899 34.4522C72.7025 34.4253 72.5134 34.4089 72.3273 34.3733L71.7686 34.2674L71.4892 34.2144L71.2131 34.1439L70.6609 34.0024L70.1186 33.8243C70.0284 33.7935 69.9372 33.7663 69.8482 33.7326L69.584 33.6231C68.1589 33.079 66.8909 32.0815 66.0415 30.8011C65.2195 29.5611 64.0818 28.5515 62.8218 27.7679C62.1863 27.3815 61.5172 27.0509 60.8229 26.7811C60.6519 26.7072 60.4712 26.6589 60.2959 26.5966C60.1182 26.5411 59.945 26.47 59.7634 26.4275C59.4014 26.3395 59.0452 26.225 58.6758 26.1681L58.1257 26.0648C57.942 26.032 57.7554 26.0182 57.5704 25.9939L57.0139 25.9296L56.4541 25.9016C56.2673 25.8942 56.0808 25.8781 55.8941 25.8778L55.333 25.8854L54.2024 25.8985C52.6884 25.9123 51.1653 25.781 49.6947 25.4108C48.9583 25.2329 48.2411 24.9797 47.5476 24.6795C46.8571 24.3738 46.1841 24.0128 45.5989 23.5352Z" fill="#965028"/>
<path d="M34.042 24.5788C34.687 24.5846 35.324 24.487 35.9349 24.3129C36.5432 24.1327 37.136 23.8957 37.6748 23.5614C37.8156 23.4886 37.9394 23.3881 38.0727 23.3029L38.2693 23.1696C38.3334 23.1233 38.3918 23.0691 38.4544 23.0206L38.8242 22.7211C38.9365 22.609 39.051 22.499 39.1668 22.3895L39.34 22.2245C39.3941 22.1661 39.4446 22.1044 39.4972 22.0444L39.8107 21.6815C40.0169 21.4363 40.192 21.167 40.3951 20.9141C40.2377 21.1944 40.0801 21.4788 39.9028 21.7503L39.6104 22.14C39.561 22.2044 39.5136 22.2709 39.4625 22.3342L39.2973 22.5141C39.1875 22.6346 39.0767 22.7545 38.9635 22.8723L38.5934 23.194C38.5311 23.247 38.4705 23.302 38.4052 23.3512L38.2036 23.4914C38.0669 23.5811 37.9396 23.6863 37.7947 23.7631C37.2343 24.1036 36.615 24.3442 35.9784 24.4874C35.6599 24.5596 35.3358 24.6015 35.0119 24.6267C34.6872 24.6347 34.3609 24.636 34.042 24.5788Z" fill="#965028"/>
</svg>
