<svg width="32" height="32" viewBox="0 0 32 32" fill="none" xmlns="http://www.w3.org/2000/svg">
<path d="M27.5 23.6691C27.5 25.7894 25.7822 27.5 23.6691 27.5C21.5487 27.5 19.8381 25.7822 19.8381 23.6691C19.8381 21.5487 21.5559 19.8381 23.6691 19.8381C25.7822 19.8309 27.5 21.5487 27.5 23.6691ZM22.7059 14.5625C22.7059 16.4169 21.2038 17.9191 19.3494 17.9191C17.495 17.9191 16 16.4169 16 14.5625C16 12.7081 17.5022 11.2059 19.3566 11.2059C21.2109 11.2059 22.7059 12.7081 22.7059 14.5625ZM16 21.75C16 24.9269 13.4269 27.5 10.25 27.5C7.07312 27.5 4.5 24.9269 4.5 21.75C4.5 18.5731 7.07312 16 10.25 16C13.4269 16 16 18.5731 16 21.75ZM14.0809 9.29406C14.0809 11.9391 11.9391 14.0881 9.28687 14.0881C6.63469 14.0881 4.5 11.9391 4.5 9.29406C4.5 6.64906 6.64188 4.5 9.29406 4.5C11.9462 4.5 14.0809 6.64188 14.0809 9.29406ZM27.5 7.375C27.5 8.96344 26.2134 10.25 24.625 10.25C23.0366 10.25 21.75 8.96344 21.75 7.375C21.75 5.78656 23.0366 4.5 24.625 4.5C26.2134 4.5 27.5 5.78656 27.5 7.375ZM26.5441 16.9559C26.5441 17.4878 26.1128 17.9119 25.5881 17.9119C25.0562 17.9119 24.6322 17.4806 24.6322 16.9559C24.625 16.4312 25.0562 16 25.5809 16C26.1128 16 26.5441 16.4312 26.5441 16.9559ZM19.3566 7.85656C19.3566 8.64719 18.7097 9.29406 17.9191 9.29406C17.1284 9.29406 16.4816 8.64719 16.4816 7.85656C16.4816 7.06594 17.1284 6.41906 17.9191 6.41906C18.7097 6.41906 19.3566 7.05875 19.3566 7.85656Z" fill="#A9A9A9"/>
</svg>
