<svg width="32" height="32" viewBox="0 0 32 32" fill="none" xmlns="http://www.w3.org/2000/svg">
<path d="M28.2931 22.3781C28.2931 26.0344 25.3275 29 21.6712 29H7.96435C5.61622 29 3.70685 27.0988 3.70685 24.7425C3.70685 23.0444 4.70622 21.5737 6.15247 20.8913C5.48622 20.1194 5.1206 19.1362 5.1206 18.1206C5.1206 15.7725 7.02185 13.8631 9.3781 13.8631C9.3781 12.4981 10.3693 11.3444 11.71 11.1413C12.8556 10.9625 13.8712 10.4425 14.6675 9.67875C15.4637 8.915 16.0162 7.9075 16.2356 6.77L16.9425 3C17.625 3.85312 18.2425 4.73875 18.8031 5.65687C18.925 5.85188 19.0387 6.04688 19.1525 6.24187C19.2093 6.33938 19.2662 6.43687 19.3231 6.53437C19.3718 6.63188 19.4287 6.72125 19.4775 6.81875C19.4856 6.835 19.4937 6.85125 19.51 6.8675C19.5587 6.95688 19.5993 7.03813 19.6481 7.1275C19.6968 7.225 19.7456 7.3225 19.7943 7.42C19.8025 7.43625 19.8106 7.44438 19.8106 7.46062C19.8431 7.52562 19.8837 7.59875 19.9162 7.66375C19.9406 7.70437 19.9568 7.745 19.9812 7.78562C20.0056 7.83437 20.03 7.88313 20.0543 7.93188C20.0787 7.98063 20.1031 8.02938 20.1275 8.08625C20.1843 8.2 20.2331 8.31375 20.2818 8.4275C20.3143 8.50062 20.3468 8.56563 20.3793 8.63875C20.3875 8.655 20.3956 8.67938 20.4037 8.69563C20.4362 8.76875 20.4687 8.83375 20.4931 8.90688C20.5093 8.9475 20.5256 8.98 20.5418 9.02063C20.5743 9.09375 20.6068 9.175 20.6393 9.24813C20.6475 9.26438 20.6475 9.2725 20.6556 9.28875C20.6962 9.38625 20.7368 9.48375 20.7775 9.58125C20.7856 9.5975 20.7856 9.60562 20.7937 9.62187C20.8262 9.71125 20.8668 9.80063 20.8993 9.88188C20.9318 9.955 20.9562 10.0363 20.9887 10.1094C21.0131 10.1825 21.0456 10.2637 21.07 10.3369C21.07 10.345 21.0781 10.3531 21.0781 10.3613C21.1025 10.4344 21.135 10.5156 21.1593 10.5887C21.1675 10.605 21.1675 10.6131 21.1756 10.6294C21.2081 10.7269 21.2406 10.8244 21.2731 10.9219C21.3056 11.0275 21.3462 11.1331 21.3787 11.2388C21.4112 11.3444 21.4437 11.45 21.4762 11.5556C21.5412 11.7669 21.6062 11.9862 21.6631 12.1975C21.72 12.4087 21.7768 12.6281 21.8337 12.8394C22.0206 13.595 22.1831 14.3588 22.305 15.1306C22.305 15.1388 22.305 15.1388 22.305 15.1388C22.3375 15.3581 22.37 15.5775 22.4025 15.7969C23.3368 15.9025 24.2306 16.2031 25.0268 16.6663C25.1081 16.715 25.1812 16.7638 25.2625 16.8125C25.3031 16.8369 25.3437 16.8612 25.3762 16.8856C25.7175 17.1213 26.0425 17.3894 26.3431 17.6819L28.2687 21.85C28.285 22.0369 28.2931 22.2075 28.2931 22.3781Z" fill="#F4903B"/>
<path d="M28.2921 22.3772C28.2921 26.0334 25.3264 28.9991 21.6702 28.9991H10.3277C7.97957 28.9991 6.07019 27.0978 6.07019 24.7416C6.07019 23.0922 7.02082 21.5891 8.51582 20.8903C7.87394 20.1509 7.49207 19.1841 7.49207 18.1278C7.49207 15.7797 9.39332 13.8703 11.7496 13.8703C11.7496 12.5134 12.7408 11.3516 14.0814 11.1484C15.1946 10.9778 16.2264 10.4659 17.0389 9.68594C17.8352 8.92219 18.3877 7.91469 18.6071 6.77719L18.8183 5.66406C18.9402 5.85906 19.0539 6.05406 19.1677 6.24906C19.2246 6.34656 19.2814 6.44406 19.3383 6.54156C19.3871 6.63906 19.4439 6.72844 19.4927 6.82594C19.5008 6.84219 19.5089 6.85844 19.5252 6.87469C19.5739 6.96406 19.6146 7.04531 19.6633 7.13469C19.7121 7.23219 19.7608 7.32969 19.8096 7.42719C19.8177 7.44344 19.8258 7.45156 19.8258 7.46781C19.8583 7.53281 19.8989 7.60594 19.9314 7.67094C19.9558 7.71156 19.9721 7.75219 19.9964 7.79281C20.0208 7.84156 20.0452 7.89031 20.0696 7.93906C20.0939 7.98781 20.1183 8.03656 20.1427 8.09344C20.1996 8.20719 20.2483 8.32094 20.2971 8.43469C20.3296 8.50781 20.3621 8.57281 20.3946 8.64594C20.4027 8.66219 20.4108 8.68656 20.4189 8.70281C20.4514 8.77594 20.4839 8.84094 20.5083 8.91406C20.5246 8.95469 20.5408 8.98719 20.5571 9.02781C20.5896 9.10094 20.6221 9.18219 20.6546 9.25531C20.6627 9.27156 20.6627 9.27969 20.6708 9.29594C20.7114 9.39344 20.7521 9.49094 20.7927 9.58844C20.8008 9.60469 20.8008 9.61281 20.8089 9.62906C20.8414 9.71844 20.8821 9.80781 20.9146 9.88906C20.9471 9.96219 20.9714 10.0434 21.0039 10.1166C21.0283 10.1897 21.0608 10.2709 21.0852 10.3441C21.0852 10.3522 21.0933 10.3603 21.0933 10.3684C21.1177 10.4416 21.1502 10.5228 21.1746 10.5959C21.1827 10.6122 21.1827 10.6203 21.1908 10.6366C21.2233 10.7341 21.2558 10.8316 21.2883 10.9291C21.3208 11.0347 21.3614 11.1403 21.3939 11.2459C21.4264 11.3516 21.4589 11.4572 21.4914 11.5628C21.5564 11.7741 21.6214 11.9934 21.6783 12.2047C21.7352 12.4159 21.8002 12.6353 21.8489 12.8466C22.0439 13.6022 22.1983 14.3659 22.3202 15.1378C22.3202 15.1459 22.3202 15.1459 22.3202 15.1459C22.3527 15.3653 22.3852 15.5847 22.4177 15.8041C23.3521 15.9097 24.2458 16.2103 25.0421 16.6734C25.1233 16.7222 25.1964 16.7709 25.2777 16.8197C25.3183 16.8441 25.3589 16.8684 25.3914 16.8928C25.7327 17.1284 26.0577 17.3966 26.3583 17.6891C26.3583 17.6891 27.1302 18.3634 27.5852 19.3628C28.0889 20.4434 28.2758 21.8572 28.2758 21.8572C28.2839 22.0359 28.2921 22.2066 28.2921 22.3772Z" fill="#F4A460"/>
<path d="M6.5827 21.4833C8.7927 22.0033 11.0921 22.0439 13.3264 21.597L14.2039 21.4183L14.0171 20.492L13.1396 20.6708C11.0514 21.0852 8.87394 21.0527 6.80207 20.557L5.72145 20.2808C5.85145 20.492 5.9977 20.6952 6.1602 20.8902C5.95707 20.9877 5.76207 21.1014 5.5752 21.2314L6.05457 21.3533L6.5827 21.4833ZM18.5102 17.0227L17.3483 17.1852L17.4783 18.1195L18.6402 17.957C20.1271 17.7458 21.5327 17.1283 22.6864 16.1777L23.0358 15.9095C22.8246 15.8608 22.6133 15.8283 22.4021 15.8039C22.3777 15.6252 22.3452 15.4464 22.3208 15.2677L22.1014 15.4383C21.0696 16.2833 19.8346 16.8277 18.5102 17.0227ZM16.6008 13.3827L16.3408 12.4727C14.1877 13.0902 11.9614 13.3989 9.71895 13.3989H9.42645C9.40207 13.5533 9.38582 13.7158 9.38582 13.8702C8.71145 13.8702 8.0452 14.0327 7.44395 14.3414H9.72707C12.0508 14.3414 14.3664 14.0164 16.6008 13.3827Z" fill="#F4882D"/>
</svg>
