<svg width="32" height="32" viewBox="0 0 32 32" fill="none" xmlns="http://www.w3.org/2000/svg">
<path d="M9.51168 12.543L23.2769 26.3082C22.8656 26.8857 22.428 27.3408 22.043 27.6733C20.3453 29.1785 18.0613 30.001 15.8036 30.001C14.6747 30.001 13.5108 29.8085 12.452 29.3622C9.62544 28.2334 7.87526 26.0981 7.3327 23.2191C6.79014 20.0075 7.73524 16.2009 9.51168 12.543Z" fill="#4FA8A8"/>
<path d="M24.8256 21.6166L11.7954 8.58647C13.4319 6.12746 15.3658 3.89598 17.361 2.14579C17.5798 1.98828 17.8336 1.96202 18.0873 2.04953C18.3061 2.14579 18.4636 2.39957 18.4636 2.64459C18.4374 6.53875 20.0651 9.35655 21.6665 12.1131C22.7078 13.8983 23.7929 15.7885 24.3618 17.8887C24.738 19.2888 24.8693 20.5227 24.8256 21.6166Z" fill="#4FA8A8"/>
<path d="M25.9017 27.4571L4.54944 6.11363C4.12065 5.68484 4.12065 4.98477 4.54944 4.55597C4.97824 4.12718 5.67831 4.12718 6.1071 4.55597L27.4506 25.8995C27.8794 26.3283 27.8794 27.0283 27.4506 27.4571C27.0305 27.8859 26.3305 27.8859 25.9017 27.4571Z" fill="#4FA8A8"/>
</svg>
