<svg width="32" height="32" viewBox="0 0 32 32" fill="none" xmlns="http://www.w3.org/2000/svg">
<path d="M22.5975 21.8012C19.0275 21.8012 16.1312 18.8962 16.1312 15.335C16.1312 13.9525 16.56 12.6312 17.3825 11.5112L19.9025 7.76625L16.0175 2L7.92374 14.0138C6.65499 15.7462 5.98124 17.8025 5.98124 19.955C5.97249 25.4937 10.4787 30 16.0175 30C21.2675 30 25.5812 25.9575 26.0187 20.8213C25.03 21.4425 23.8575 21.8012 22.5975 21.8012Z" fill="#FF4B6F"/>
<path d="M27.4204 11.4314L27.3716 11.363L27.3619 11.3435L23.0873 5L18.8128 11.3435L18.803 11.363L18.7542 11.4314C18.0711 12.3585 17.71 13.4613 17.71 14.6226C17.71 17.5895 20.1205 20 23.0873 20C26.0541 20 28.4647 17.5895 28.4647 14.6226C28.4744 13.471 28.1133 12.3682 27.4204 11.4314Z" fill="#DC143C"/>
</svg>
