<svg width="32" height="32" viewBox="0 0 32 32" fill="none" xmlns="http://www.w3.org/2000/svg">
<path d="M27.2621 10.9083C26.8195 9.85056 26.1368 8.89782 25.3416 8.10263C23.7512 6.51224 21.5607 5.46948 19.3101 5.34195C17.3146 5.20692 13.5637 5.73955 10.773 10.6007C9.69278 12.4762 9.13765 14.5767 8.61252 16.5647C7.79482 19.6405 6.95461 22.7762 4.19394 25.4919C4.01389 25.6719 3.95388 25.957 4.0364 26.1746C4.14892 26.4146 4.34397 26.5722 4.61404 26.6172C12.3259 27.1273 22.626 24.3441 26.5419 18.8378C28.1923 16.4372 28.4549 13.6915 27.2621 10.9083ZM19.4602 10.1356C18.1774 9.91807 17.0971 10.3382 16.4744 11.2609C16.2344 11.636 15.7468 11.726 15.3717 11.4785C14.9966 11.2384 14.9066 10.7508 15.1541 10.3757C16.1294 8.92033 17.8323 8.23016 19.7077 8.56024C19.8653 8.58274 20.0153 8.65026 20.1278 8.76279C20.3004 8.94283 20.3904 9.2054 20.3454 9.47546C20.3004 9.95558 19.9028 10.2256 19.4602 10.1356ZM21.5157 11.0433L21.4032 10.9308C20.983 10.4207 21.2456 9.97809 21.4257 9.80554C21.6057 9.633 22.0858 9.40795 22.5509 9.87306C22.9935 10.3157 22.791 10.8258 22.6184 10.9983C22.4909 11.1709 22.0258 11.4635 21.5157 11.0433Z" fill="#D2691E"/>
</svg>
