<svg width="32" height="32" viewBox="0 0 32 32" fill="none" xmlns="http://www.w3.org/2000/svg">
<path d="M25.8892 16.4412C26.9093 16.4502 27.9926 16.0079 28.7149 15.2857C30.3308 13.6697 30.3308 11.0337 28.7058 9.4087C27.2524 7.95525 25.0948 7.82887 23.208 9.09273C22.7837 9.37259 22.2872 9.37259 21.9983 9.09273C21.908 9.00246 21.6372 8.73163 21.8358 7.90109C22.0435 7.04347 21.9171 6.09557 21.4747 5.16573C21.0775 4.32616 20.5268 3.6852 20.1296 3.28799C19.0282 2.16856 17.5567 1.55469 15.9859 1.55469H15.9769C14.4061 1.55469 12.9346 2.15954 11.8242 3.26993C10.443 4.65115 9.8201 6.53792 10.1722 8.2983C10.2173 8.54205 10.1451 8.81288 9.97357 8.9844C9.71177 9.2462 9.27844 9.26426 8.70067 9.04759C8.22221 8.86704 6.76877 8.32539 5.72157 9.37259C5.21602 9.87813 4.94519 10.6274 5.00839 11.3587C5.05352 11.9545 5.36046 12.5322 5.8299 12.9024C6.20003 13.2003 6.53405 13.3538 6.79585 13.4801L6.91321 13.5343C7.22918 13.6878 7.45487 13.7961 7.71667 14.0399C8.17707 14.4732 8.43887 15.0509 8.4479 15.6829C8.45693 16.2697 8.23124 16.8384 7.83402 17.2447C7.45487 17.6058 7.04862 17.8044 6.47989 17.9127C6.36253 17.9307 6.24517 17.9578 6.12781 17.9759C5.18894 18.1384 4.11466 18.3189 3.28412 19.1585C2.49872 19.9439 2.06539 20.9821 2.07442 22.1015C2.07442 23.2119 2.50774 24.2501 3.29314 25.0355C4.07854 25.8118 5.10769 26.2542 6.20003 26.2722C7.3014 26.2903 8.33054 25.875 9.09789 25.1077L9.14303 25.0626C9.32358 24.873 9.63052 24.5389 9.77496 24.3674C9.85621 24.2772 9.93745 24.1869 10.0187 24.0966C10.8402 23.2751 11.8784 22.8959 12.7992 23.0945C13.3679 23.2119 14.1443 23.6181 14.6228 24.8549L14.6408 24.9001C15.1012 26.0917 15.7241 27.7167 16.7352 28.7187C17.8456 29.8291 19.3262 30.443 20.897 30.443H20.906C22.4768 30.443 23.9483 29.8291 25.0587 28.7278C26.1781 27.6083 26.801 26.1639 26.8281 24.6563C26.8461 23.1306 26.2503 21.6862 25.149 20.5758L25.1128 20.5397C24.6615 20.0974 24.3184 19.7724 24.2101 19.655C23.5511 18.9689 23.6233 17.8044 24.3726 17.046C24.8059 16.6308 25.2844 16.4322 25.8892 16.4412Z" fill="#6A5ACD"/>
</svg>
