<svg width="32" height="32" viewBox="0 0 32 32" fill="none" xmlns="http://www.w3.org/2000/svg">
<path d="M20.4532 17.207C24.2321 17.207 25.8592 17.7094 25.8592 18.4592C25.8592 19.9138 23.0925 18.9615 23.0925 20.3636C23.0925 21.7207 29.5931 20.8135 29.6756 22.3131C29.7281 23.2353 27.9736 23.4452 25.6492 23.5127C23.07 23.5877 20.0783 23.2128 20.0408 24.4125C19.9959 25.6646 22.6426 24.8848 22.6426 26.3394C22.6426 28.5663 9.3564 28.5213 9.3564 26.3394C9.3564 24.8848 12.0031 25.6646 11.9582 24.4125C11.9207 23.2128 8.92903 23.5877 6.34976 23.5127C4.03293 23.4452 2.27843 23.2353 2.32342 22.3131C2.40589 20.8135 8.90653 21.7132 8.90653 20.3636C8.90653 18.9615 6.13982 19.9138 6.13982 18.4592C6.13982 17.7094 7.76686 17.207 11.5458 17.207H20.4532Z" fill="#A2D9FF"/>
<path d="M20.0418 24.42C20.0643 23.7377 21.0465 23.5652 22.3662 23.5277C20.2368 23.5127 18.2573 23.4452 18.2273 24.42C18.1824 25.6721 20.8291 24.8923 20.8291 26.3469C20.8291 27.3516 18.1224 27.8915 15.1457 27.9889C18.7297 28.1014 22.6436 27.5616 22.6436 26.3469C22.6436 24.8923 20.0043 25.6646 20.0418 24.42ZM23.0934 20.3636C23.0934 18.9615 25.8602 19.9138 25.8602 18.4592C25.8602 17.7094 24.2331 17.207 20.4542 17.207H18.6397C22.4186 17.207 24.0457 17.7094 24.0457 18.4592C24.0457 19.9138 21.279 18.9615 21.279 20.3636C21.279 21.7207 27.7796 20.8135 27.8621 22.3131C27.9146 23.2353 26.1601 23.4452 23.8357 23.5127C23.7832 23.5127 23.7383 23.5127 23.6858 23.5202C24.3306 23.5277 25.0054 23.5352 25.6502 23.5127C27.9671 23.4452 29.7215 23.2353 29.6766 22.3131C29.5941 20.8135 23.0934 21.7207 23.0934 20.3636Z" fill="#88CEFF"/>
<path d="M15.9976 4L10.4492 13.6122C7.98239 17.886 11.064 23.2245 15.9976 23.2245C20.9312 23.2245 24.0128 17.886 21.546 13.6122L15.9976 4Z" fill="#83CCFF"/>
<path d="M16.9006 20.3841C16.6757 20.3841 16.4883 20.1967 16.4883 19.9717C16.4883 19.7468 16.6757 19.5594 16.9006 19.5594C17.7854 19.5594 18.5727 19.102 19.015 18.3372C19.1275 18.1423 19.3824 18.0748 19.5774 18.1873C19.7723 18.2997 19.8398 18.5546 19.7273 18.7496C19.135 19.7768 18.0853 20.3841 16.9006 20.3841Z" fill="#A2D9FF"/>
</svg>
