<svg width="32" height="32" viewBox="0 0 32 32" fill="none" xmlns="http://www.w3.org/2000/svg">
<rect width="32" height="32" rx="16" fill="white"/>
<path d="M13.7346 17.0938V18.8791L9.53224 19.4157C7.57008 19.6662 6.09991 21.336 6.09991 23.3141V28.8604H25.9081V23.3141C25.9081 21.336 24.438 19.6662 22.4758 19.4157L18.2734 18.8791V17.0938H13.7346Z" fill="#A7BDCD"/>
<path d="M15.9821 21.1051C17.3342 21.1051 18.4724 20.1916 18.8149 18.9483L18.2735 18.8791V17.0938H13.7347V18.8791L13.1508 18.9537C13.4951 20.1942 14.6319 21.1051 15.9821 21.1051Z" fill="white"/>
<path d="M10.2103 10.2885C12.4685 10.2198 14.9374 9.01975 15.9377 7.19805C15.6482 8.335 15.1431 9.37197 14.4739 10.2514C16.3028 10.1465 17.9565 9.30908 19.1998 7.99929C20.1545 8.92164 20.886 10.0734 21.3057 11.3658L21.3277 12.1127L22.0352 9.70188C23.0334 6.30074 20.8758 2.78157 17.3919 2.12835C16.4793 1.95722 15.5429 1.95722 14.6303 2.12835C11.1464 2.78157 8.98879 6.30074 9.98694 9.70188L10.6945 12.1127L10.2103 10.2885Z" fill="#A7BDCD"/>
<path d="M19.1998 7.99851C17.9565 9.3083 16.3028 10.1457 14.4739 10.2506C15.1431 9.37119 15.6482 8.33422 15.9377 7.19727C15.0085 8.8895 12.8122 10.0446 10.6945 10.2554V12.2173C10.6945 15.1474 13.0698 17.5227 16 17.5227C18.9301 17.5227 21.3055 15.1474 21.3055 12.2173V11.3646C20.8859 10.0724 20.1543 8.92074 19.1998 7.99851ZM14.0539 29.1929C13.0871 28.2261 12.9765 26.6962 13.7941 25.6003L15.3583 23.5038C15.6787 23.0744 16.3222 23.0744 16.6425 23.5038L18.2068 25.6003C19.0244 26.6962 18.9138 28.2261 17.9469 29.1929C16.8719 30.2679 15.1289 30.2679 14.0539 29.1929Z" fill="white"/>
<path d="M15.9999 27.326C15.137 26.8278 14.1544 26.7259 13.2621 26.9635C13.1797 27.7643 13.4495 28.5887 14.0539 29.193C15.1289 30.268 16.8719 30.268 17.9468 29.193C18.3542 28.7863 18.6235 28.2617 18.7164 27.6936C17.8298 27.9239 16.856 27.8203 15.9999 27.326ZM9.68844 12.3114C9.18877 11.8117 9.13157 11.021 9.55413 10.4546L10.2712 9.4936C10.4823 9.21047 10.9066 9.21047 11.1178 9.4936L11.8348 10.4546C12.2574 11.021 12.2002 11.8117 11.7005 12.3114C11.1448 12.867 10.244 12.867 9.68844 12.3114ZM20.2995 16.9738C19.7998 16.4741 19.7426 15.6834 20.1652 15.117L21.0079 13.9874C21.1564 13.7884 21.4546 13.7884 21.6031 13.9874L22.4458 15.117C22.8684 15.6834 22.8112 16.4741 22.3115 16.9738C21.7559 17.5294 20.8551 17.5294 20.2995 16.9738Z" fill="#E2E9EE"/>
<path d="M18.315 28.8605H25.9081V23.3141C25.9081 21.336 24.4379 19.6663 22.4758 19.4158L18.2734 18.8792V17.0938M13.7346 17.0938V18.8791L9.53224 19.4157C7.57008 19.6662 6.09991 21.336 6.09991 23.3141V28.8604H13.7162" stroke="#8AA8BD" stroke-miterlimit="10" stroke-linecap="round" stroke-linejoin="round"/>
<path d="M19.8696 15.8472C18.9017 16.8787 17.5261 17.5229 16 17.5229C13.2583 17.5229 11.0023 15.4433 10.7234 12.7755M21.3056 11.3652V12.2175C21.3056 12.834 21.2004 13.426 21.0071 13.9764" stroke="#8AA8BD" stroke-miterlimit="10" stroke-linecap="round" stroke-linejoin="round"/>
<path d="M21.3277 11.9957L22.0352 9.70188C23.0334 6.30074 20.8758 2.78157 17.3919 2.12835C16.4793 1.95722 15.5429 1.95722 14.6303 2.12835C11.1464 2.78157 8.98879 6.30074 9.98694 9.70188L10.0129 9.78747" stroke="#8AA8BD" stroke-miterlimit="10" stroke-linecap="round" stroke-linejoin="round"/>
<path d="M11.6579 10.0965C13.4487 9.6826 15.1494 8.63306 15.9378 7.19727C15.6483 8.33422 15.1431 9.37119 14.474 10.2506C16.3028 10.1457 17.9565 9.3083 19.1998 7.99851C20.1545 8.92086 20.8861 10.0726 21.3057 11.365M24.9226 8.08126C25.0739 8.38382 25.1526 8.71744 25.1526 9.05571C25.1526 9.39397 25.0739 9.72759 24.9226 10.0302C24.7713 10.3327 24.6926 10.6663 24.6926 11.0046C24.6926 11.3429 24.7713 11.6765 24.9226 11.9791C25.0739 12.2816 25.1526 12.6152 25.1526 12.9535C25.1526 13.2918 25.0739 13.6254 24.9226 13.928M7.07736 12.2085C6.9261 12.5111 6.84735 12.8447 6.84735 13.183C6.84735 13.5212 6.9261 13.8549 7.07736 14.1574C7.22863 14.46 7.30738 14.7936 7.30738 15.1319C7.30738 15.4701 7.22863 15.8038 7.07736 16.1063C6.9261 16.4089 6.84735 16.7425 6.84735 17.0808C6.84735 17.419 6.9261 17.7527 7.07736 18.0552M28.5051 28.86C28.3539 28.5574 28.2751 28.2238 28.2751 27.8855C28.2751 27.5472 28.3539 27.2136 28.5051 26.9111C28.6564 26.6085 28.7351 26.2749 28.7351 25.9366C28.7351 25.5983 28.6564 25.2647 28.5051 24.9622C28.3539 24.6596 28.2751 24.326 28.2751 23.9877C28.2751 23.6494 28.3539 23.3158 28.5051 23.0133C28.6564 22.7107 28.7351 22.3771 28.7351 22.0388C28.7351 21.7005 28.6564 21.3669 28.5051 21.0644M3.49485 28.86C3.64611 28.5574 3.72486 28.2238 3.72486 27.8855C3.72486 27.5472 3.64611 27.2136 3.49485 26.9111C3.34358 26.6085 3.26483 26.2749 3.26483 25.9366C3.26483 25.5983 3.34358 25.2647 3.49485 24.9622C3.64611 24.6596 3.72486 24.326 3.72486 23.9877C3.72486 23.6494 3.64611 23.3158 3.49485 23.0133C3.34358 22.7107 3.26483 22.3771 3.26483 22.0388C3.26483 21.7005 3.34358 21.3669 3.49485 21.0644M17.1878 14.1071C17.0035 14.1993 16.8002 14.2473 16.5941 14.2473C16.388 14.2473 16.1847 14.1993 16.0004 14.1071C15.8161 14.0149 15.6128 13.9669 15.4067 13.9669C15.2006 13.9669 14.9974 14.0149 14.813 14.1071M14.054 29.1929C13.0872 28.2261 12.9765 26.6962 13.7941 25.6003L15.3583 23.5038C15.6788 23.0744 16.3222 23.0744 16.6425 23.5038L18.2068 25.6003C19.0244 26.6962 18.9138 28.2261 17.9469 29.1929C16.8719 30.2679 15.1289 30.2679 14.054 29.1929ZM9.68847 12.3113C9.1888 11.8116 9.1316 11.0209 9.55416 10.4545L10.2712 9.49349C10.4824 9.21036 10.9066 9.21036 11.1178 9.49349L11.8349 10.4545C12.2575 11.0209 12.2003 11.8116 11.7005 12.3113C11.1449 12.8669 10.244 12.8669 9.68847 12.3113ZM20.2995 16.9737C19.7998 16.474 19.7426 15.6832 20.1652 15.1169L21.0079 13.9873C21.1564 13.7883 21.4546 13.7883 21.6031 13.9873L22.4458 15.1169C22.8684 15.6832 22.8112 16.474 22.3115 16.9737C21.7559 17.5293 20.8551 17.5293 20.2995 16.9737Z" stroke="#8AA8BD" stroke-miterlimit="10" stroke-linecap="round" stroke-linejoin="round"/>
</svg>
