<svg width="32" height="32" viewBox="0 0 32 32" fill="none" xmlns="http://www.w3.org/2000/svg">
<path d="M5.19747 24.906C3.19995 22.4858 2 19.3831 2 16C2 8.26801 8.26801 2 16 2C23.732 2 30 8.26801 30 16C30 20.8442 27.5397 25.1137 23.8005 27.6272C23.6987 27.6956 17.2178 23.1961 13.0879 23.1961C10.332 23.196 5.32686 25.0627 5.19747 24.906Z" fill="white"/>
<path d="M29.1092 15.3173C29.1092 21.6831 23.9488 26.8435 17.583 26.8435C11.2172 26.8435 6.05676 21.6831 6.05676 15.3173C6.05676 8.95149 11.2172 3.79102 17.583 3.79102C23.9487 3.79102 29.1092 8.95149 29.1092 15.3173Z" fill="white"/>
<path d="M25.5156 4.73438H22.6172L21.6677 5.84721L15.0505 4.73438H7.68488C7.3888 4.73438 7.20319 5.05419 7.35008 5.31127L9.9111 9.79297V22.9314H11.479C15.7738 22.9314 19.6262 25.117 22.3634 28.4265C22.3814 28.4481 22.3985 28.4556 22.4147 28.4472C22.892 28.2007 23.3547 27.9269 23.8006 27.6272V17.6406H25.5156C26.8143 17.6406 27.8672 16.5878 27.8672 15.2891V7.08594C27.8672 5.78722 26.8143 4.73438 25.5156 4.73438ZM26.4453 15.2891C26.4453 15.8017 26.0283 16.2188 25.5156 16.2188H23.8005V6.15625H25.5156C26.0283 6.15625 26.4453 6.5733 26.4453 7.08594V15.2891Z" fill="#5381C1"/>
<path d="M25.5156 4.73438H15.0505V17.8594C15.0505 20.2756 17.0093 22.2344 19.4255 22.2344C21.8242 22.2344 23.7721 20.3039 23.8002 17.9119H23.8005V17.6406H25.5156C26.8123 17.6406 27.8672 16.5857 27.8672 15.2891V7.08594C27.8672 5.7893 26.8123 4.73438 25.5156 4.73438ZM26.4453 15.2891C26.4453 15.8017 26.0283 16.2188 25.5156 16.2188H23.8005V6.15625H25.5156C26.0283 6.15625 26.4453 6.5733 26.4453 7.08594V15.2891Z" fill="#6C94CA"/>
<path d="M22.4147 21.0539V28.4472C20.493 29.4396 18.312 30 16 30C15.7882 30 15.5776 29.9953 15.3682 29.986C13.0865 29.8847 11.2969 27.9878 11.2969 25.7039V10.2031H15.0505L15.431 17.2106C15.431 19.6269 17.3897 21.5856 19.806 21.5856C20.7836 21.5856 21.6864 21.5958 22.4147 21.0539Z" fill="#2E5180"/>
<path d="M15.0505 10.2031H22.4148V21.0539C21.6326 21.7861 20.5814 22.2344 19.4255 22.2344C17.0093 22.2344 15.0505 20.2756 15.0505 17.8594V10.2031Z" fill="#376099"/>
<path d="M15.4311 21.5832V29.9886C14.9264 29.9685 14.4232 29.9213 13.9237 29.847C13.5905 29.7975 13.3199 29.2844 12.9948 29.2118C10.9529 28.756 9.07934 27.8541 7.48159 26.6139C7.23566 26.4229 6.93739 26.6758 6.70492 26.4692C6.16297 25.9877 5.659 25.4651 5.19751 24.906V13.4844H8.59918L8.69893 15.2152C8.89767 18.6627 11.7513 21.3566 15.2045 21.3566C15.2646 21.3566 15.3222 21.3805 15.3647 21.423C15.4072 21.4654 15.4311 21.5231 15.4311 21.5832Z" fill="#E1EBF0"/>
<path d="M8.59912 21.5528V13.4844H15.431V21.5528C15.431 23.4394 13.9017 24.9688 12.0151 24.9688C10.1285 24.9688 8.59912 23.4394 8.59912 21.5528Z" fill="#FFF5F5"/>
<path d="M13.9236 17.5898V29.8465C11.9157 29.5479 10.047 28.823 8.41235 27.7669V17.5898H13.9236Z" fill="#D5F1FE"/>
<path d="M8.5991 27.8854C7.92896 27.4672 7.2953 26.9933 6.70483 26.4686V17.5898H8.5991V27.8854Z" fill="#B4E7FD"/>
<path d="M11.0839 19.1679C11.0839 19.5304 10.79 19.8242 10.4276 19.8242C10.0652 19.8242 9.77136 19.5304 9.77136 19.1679C9.77136 18.8055 10.0652 18.5117 10.4276 18.5117C10.79 18.5117 11.0839 18.8055 11.0839 19.1679ZM10.4276 25.1109C10.1256 25.1109 9.88074 25.3557 9.88074 25.6578C9.88074 25.9598 10.1256 26.2046 10.4276 26.2046C10.7297 26.2046 10.9745 25.9598 10.9745 25.6578C10.9745 25.3557 10.7297 25.1109 10.4276 25.1109ZM12.4458 20.2735C11.9418 20.2735 11.5332 20.682 11.5332 21.1861C11.5332 21.6901 11.9417 22.0987 12.4458 22.0987C12.9499 22.0987 13.3584 21.6901 13.3584 21.1861C13.3584 20.6821 12.9498 20.2735 12.4458 20.2735ZM11.0839 6.39453C11.0839 6.69657 10.839 6.94141 10.537 6.94141C10.2349 6.94141 9.99011 6.69657 9.99011 6.39453C9.99011 6.09249 10.2349 5.84766 10.537 5.84766C10.839 5.84766 11.0839 6.09249 11.0839 6.39453ZM11.5332 10.0663C11.0292 10.0663 10.6205 10.4749 10.6205 10.9789C10.6205 11.483 11.0291 11.8916 11.5332 11.8916C12.0372 11.8916 12.4458 11.483 12.4458 10.9789C12.4458 10.4749 12.0372 10.0663 11.5332 10.0663Z" fill="#93DCFC"/>
<path d="M8.21136 9.67434C8.21136 10.1783 7.80279 10.587 7.29873 10.587C6.79468 10.587 6.38611 10.1784 6.38611 9.67434C6.38611 9.17034 6.79468 8.76172 7.29873 8.76172C7.80279 8.76172 8.21136 9.17034 8.21136 9.67434Z" fill="#FFF5F5"/>
<path d="M25.2452 6.25059C25.7947 7.42336 25.5454 8.69441 24.8101 9.57526C24.7565 9.63941 24.1756 9.82983 23.9302 9.82983C21.2842 9.82983 19.5286 7.07981 20.6514 4.68384C20.7053 4.56867 20.9712 4.1589 21.0473 4.06954C21.4659 3.57773 21.9296 3.09566 22.4146 2.62891C23.6024 3.77182 24.6625 5.0071 25.2452 6.25059Z" fill="#B4E7FD"/>
<path d="M24.8102 9.57624C24.2486 10.2488 23.4038 10.6939 22.4148 10.6939C20.1306 10.6939 18.615 8.31996 19.5843 6.25163C19.9323 5.50908 20.4504 4.76954 21.0643 4.05078C20.9741 4.2128 20.8896 4.37785 20.8108 4.54565C19.6966 6.9233 21.4388 9.65226 24.0645 9.65226C24.315 9.65249 24.5649 9.62701 24.8102 9.57624Z" fill="#93DCFC"/>
</svg>
