<svg width="32" height="32" viewBox="0 0 32 32" fill="none" xmlns="http://www.w3.org/2000/svg">
<rect width="32" height="32" rx="16" fill="white"/>
<g clip-path="url(#clip0_1002_10893)">
<path d="M11.8224 7.24493L10.9224 8.14493C10.9037 8.16369 10.8814 8.17858 10.8569 8.18873C10.8324 8.19889 10.8061 8.20412 10.7795 8.20412C10.753 8.20412 10.7267 8.19889 10.7022 8.18873C10.6777 8.17858 10.6554 8.16369 10.6367 8.14493L9.73668 7.24493C9.71791 7.22617 9.70303 7.20389 9.69287 7.17938C9.68272 7.15487 9.67749 7.12859 9.67749 7.10206C9.67749 7.07552 9.68272 7.04925 9.69287 7.02474C9.70303 7.00022 9.71791 6.97795 9.73668 6.95919L10.6367 6.05919C10.6554 6.04042 10.6777 6.02554 10.7022 6.01538C10.7267 6.00523 10.753 6 10.7795 6C10.8061 6 10.8324 6.00523 10.8569 6.01538C10.8814 6.02554 10.9037 6.04042 10.9224 6.05919L11.8224 6.95919C11.8603 6.99709 11.8816 7.04848 11.8816 7.10206C11.8816 7.15564 11.8603 7.20703 11.8224 7.24493Z" fill="#8BC727"/>
<path d="M12.1326 23.7754V25.5986C12.1326 25.8208 12.3127 26.001 12.535 26.001H20.1727C20.395 26.001 20.5751 25.8208 20.5751 25.5986V23.7754H12.1326Z" fill="#FFBD86"/>
<path d="M18.4547 23.7754V26.001H20.1727C20.395 26.001 20.5751 25.8208 20.5751 25.5986V23.7754H18.4547Z" fill="#F6A96C"/>
<path d="M21.1068 17.0263C21.2147 16.7224 21.2697 16.4022 21.2695 16.0798C21.2695 14.517 20.0026 13.25 18.4398 13.25C16.8769 13.25 15.61 14.5169 15.61 16.0798C15.61 16.4118 15.6677 16.7302 15.7727 17.0263H21.1068Z" fill="#FFC344"/>
<path d="M20.9697 16.1317H15.6111C15.6161 16.4372 15.6707 16.7399 15.7727 17.0279H21.1067C21.2113 16.7328 21.2661 16.4224 21.2689 16.1094C21.1699 16.1242 21.0699 16.1317 20.9697 16.1317Z" fill="#FEB237"/>
<path d="M11.9257 13.8159C12.7457 13.8159 13.5097 14.1432 14.0766 14.7378L14.1186 14.7818L14.1427 14.7259C14.1832 14.632 14.2412 14.5467 14.3135 14.4744C14.3887 14.3988 14.4781 14.3389 14.5766 14.2981C14.675 14.2574 14.7806 14.2365 14.8872 14.2368C15.0642 14.2368 15.239 14.2956 15.3794 14.4024L15.4344 14.4443L15.4437 14.3757C15.4978 13.9749 15.844 13.6727 16.249 13.6727C16.654 13.6727 17.0002 13.9749 17.0543 14.3757L17.0636 14.4443L17.1186 14.4024C17.1813 14.3551 17.2506 14.3171 17.3243 14.2897C17.3757 14.0744 17.4017 13.8539 17.4018 13.6325C17.4018 12.0696 16.1349 10.8027 14.5721 10.8027C13.0092 10.8027 11.7423 12.0696 11.7423 13.6325C11.7423 13.6961 11.7452 13.759 11.7493 13.8216C11.8077 13.8181 11.8665 13.8159 11.9257 13.8159Z" fill="#FD6930"/>
<path d="M16.9122 12.041C16.4965 13.0866 15.4761 13.8262 14.2824 13.8262C13.3096 13.8262 12.4516 13.3352 11.9423 12.5876C11.81 12.9199 11.7421 13.2744 11.7423 13.6321C11.7423 13.6957 11.7452 13.7586 11.7493 13.8212C11.808 13.8176 11.8669 13.8157 11.9257 13.8155C12.7457 13.8155 13.5096 14.1429 14.0766 14.7375L14.1186 14.7814L14.1427 14.7256C14.1832 14.6317 14.2411 14.5464 14.3135 14.4741C14.3886 14.3985 14.478 14.3386 14.5765 14.2978C14.675 14.257 14.7806 14.2362 14.8872 14.2365C15.0642 14.2365 15.239 14.2953 15.3794 14.4021L15.4344 14.4439L15.4436 14.3754C15.4978 13.9746 15.844 13.6724 16.249 13.6724C16.6539 13.6724 17.0001 13.9746 17.0543 14.3754L17.0635 14.4439L17.1185 14.4021C17.1813 14.3547 17.2506 14.3168 17.3243 14.2894C17.3757 14.0741 17.4017 13.8535 17.4018 13.6322C17.4018 13.0421 17.2211 12.4944 16.9122 12.041Z" fill="#FD5426"/>
<path d="M24.827 17.0279L21.3194 13.5203C21.2364 13.4373 21.1 13.4419 21.0235 13.5308C20.167 14.5266 20.1121 15.9735 20.8573 17.0279H24.827Z" fill="#8BC727"/>
<path d="M22.7929 14.9922C22.4605 15.6646 21.767 16.1301 20.9697 16.1301H20.4364C20.5229 16.4512 20.6654 16.7546 20.8572 17.0263H24.8269L22.7929 14.9922Z" fill="#81B823"/>
<path d="M18.7625 17.0268C18.846 16.9473 18.9125 16.8516 18.9578 16.7456C19.0032 16.6396 19.0265 16.5255 19.0264 16.4102C19.0264 15.9781 18.7051 15.6212 18.2884 15.565C18.5429 15.2305 18.5183 14.7517 18.2129 14.4463C17.9075 14.1409 17.4286 14.1163 17.0942 14.3707C17.0379 13.9541 16.6811 13.6328 16.249 13.6328C15.817 13.6328 15.4601 13.9541 15.4038 14.3707C15.0694 14.1163 14.5905 14.1409 14.2852 14.4463C13.9798 14.7517 13.9552 15.2305 14.2096 15.565C13.793 15.6212 13.4717 15.9781 13.4717 16.4102C13.4717 16.6527 13.573 16.8716 13.7355 17.0268H18.7625Z" fill="#FFF3BE"/>
<path d="M13.5194 16.1309C13.4879 16.2207 13.4718 16.3152 13.4717 16.4104C13.4717 16.6529 13.573 16.8718 13.7355 17.027H18.7625C18.846 16.9475 18.9125 16.8518 18.9579 16.7458C19.0032 16.6398 19.0265 16.5257 19.0264 16.4104C19.0264 16.3123 19.0091 16.2185 18.9787 16.1309H13.5194Z" fill="#FFE177"/>
<path d="M14.9287 17.0263C14.9349 16.9478 14.9389 16.8686 14.9389 16.7886C14.9389 15.1244 13.5899 13.7754 11.9258 13.7754C10.2616 13.7754 8.9126 15.1245 8.9126 16.7886C8.9126 16.8687 8.91666 16.9478 8.92279 17.0263H14.9287Z" fill="#8BC727"/>
<path d="M8.98561 16.1309C8.93721 16.347 8.91273 16.5678 8.9126 16.7893C8.9126 16.8694 8.91666 16.9485 8.92279 17.027H14.9287C14.9349 16.9485 14.9389 16.8694 14.9389 16.7893C14.9389 16.563 14.9132 16.3429 14.8659 16.1309H8.98561Z" fill="#81B823"/>
<path d="M13.5258 17.0272C13.5373 16.9496 13.5434 16.8702 13.5434 16.7895C13.5434 15.8961 12.8192 15.1719 11.9258 15.1719C11.0324 15.1719 10.3082 15.8961 10.3082 16.7895C10.3082 16.8702 10.3143 16.9496 10.3258 17.0272H13.5258Z" fill="#A2E62E"/>
<path d="M10.4483 16.1309C10.3558 16.338 10.308 16.5624 10.3082 16.7893C10.3082 16.8701 10.3143 16.9495 10.3258 17.027H13.5259C13.5373 16.9494 13.5434 16.8701 13.5434 16.7893C13.5436 16.5624 13.4959 16.338 13.4033 16.1309H10.4483Z" fill="#97D729"/>
<path d="M21.6092 7.41614C21.5181 7.50728 21.5045 7.65275 21.5825 7.7554C22.0641 8.38939 22.0155 9.29747 21.4368 9.87614C20.8581 10.4549 19.95 10.5034 19.3161 10.0218C19.2135 9.94388 19.0679 9.95739 18.9768 10.0485L18.3565 10.6688C18.2481 10.7773 18.2545 10.9567 18.3727 11.0546C19.5564 12.0358 21.3147 11.9719 22.4236 10.863C23.5326 9.75403 23.5965 7.99575 22.6152 6.812C22.5173 6.69388 22.3379 6.68739 22.2294 6.79587L21.6092 7.41614Z" fill="#FFE5C2"/>
<path d="M22.6152 6.812C22.5173 6.69388 22.3379 6.68739 22.2294 6.79587L22.1225 6.90278C22.729 8.04204 22.5529 9.48853 21.5928 10.4486C20.7694 11.272 19.5882 11.5186 18.5498 11.1897C19.7264 12.0263 21.3686 11.9179 22.4235 10.863C23.5325 9.75403 23.5964 7.99571 22.6152 6.812Z" fill="#FED2A4"/>
<path d="M7.83224 14.0364C7.92338 13.9453 7.93689 13.7998 7.85892 13.6971C7.37736 13.0632 7.42592 12.1551 8.00463 11.5764C8.58334 10.9977 9.49142 10.9491 10.1254 11.4307C10.228 11.5087 10.3735 11.4952 10.4646 11.404L11.0849 10.7837C11.1934 10.6753 11.1869 10.4959 11.0688 10.398C9.88502 9.41676 8.12674 9.48062 7.01779 10.5896C5.90885 11.6985 5.84498 13.4568 6.82619 14.6405C6.92408 14.7587 7.10349 14.7652 7.21197 14.6567L7.83224 14.0364Z" fill="#FFE5C2"/>
<path d="M7.85892 13.6974C7.65454 13.4284 7.54603 13.1099 7.53263 12.7883L6.38892 13.932C6.50095 14.1875 6.64813 14.426 6.82618 14.6408C6.92407 14.7589 7.10349 14.7654 7.21196 14.6569L7.83224 14.0366C7.92333 13.9455 7.93685 13.8 7.85892 13.6974ZM9.21626 11.1046C9.5379 11.1181 9.8563 11.2266 10.1254 11.4309C10.228 11.5089 10.3735 11.4954 10.4646 11.4043L11.0849 10.784C11.1934 10.6755 11.1869 10.4961 11.0688 10.3982C10.854 10.2201 10.6154 10.073 10.36 9.96094L9.21626 11.1046Z" fill="#FED2A4"/>
<path d="M12.1326 23.8143H20.5751C23.1423 22.5927 25.0958 20.2916 25.8503 17.4979C25.9199 17.2402 25.7274 16.9863 25.4605 16.9863H7.24712C6.98021 16.9863 6.78775 17.2402 6.85736 17.4979C7.61185 20.2916 9.56533 22.5928 12.1326 23.8143Z" fill="#F6A96C"/>
<path d="M25.4606 16.9863H23.6271C22.8 19.2979 21.133 21.2096 18.993 22.3532C18.7372 22.4898 18.4507 22.559 18.1607 22.559H10.1484C10.7574 23.0551 11.4235 23.4766 12.1326 23.8143H20.5752C23.1424 22.5927 25.0959 20.2916 25.8504 17.4979C25.92 17.2402 25.7275 16.9863 25.4606 16.9863Z" fill="#EA9B58"/>
<path d="M18.0773 8.55023H14.132C14.0784 8.55023 14.027 8.52895 13.9891 8.49106C13.9512 8.45317 13.9299 8.40179 13.9299 8.3482V7.12781C13.9299 7.07423 13.9512 7.02284 13.9891 6.98495C14.027 6.94707 14.0784 6.92578 14.132 6.92578H18.0773C18.1309 6.92578 18.1823 6.94707 18.2202 6.98495C18.2581 7.02284 18.2793 7.07423 18.2793 7.12781V8.3482C18.2794 8.37474 18.2741 8.40101 18.264 8.42552C18.2538 8.45004 18.2389 8.47231 18.2202 8.49107C18.2014 8.50983 18.1791 8.52471 18.1546 8.53487C18.1301 8.54502 18.1038 8.55024 18.0773 8.55023Z" fill="#FFE177"/>
<path d="M18.0773 6.92578H17.4486V7.72473C17.4486 7.75126 17.4434 7.77753 17.4332 7.80204C17.4231 7.82655 17.4082 7.84882 17.3894 7.86758C17.3707 7.88634 17.3484 7.90123 17.3239 7.91138C17.2994 7.92153 17.2731 7.92676 17.2466 7.92676H13.9299V8.3482C13.9299 8.40179 13.9512 8.45317 13.9891 8.49106C14.027 8.52895 14.0784 8.55023 14.132 8.55023H18.0773C18.1038 8.55023 18.1301 8.54501 18.1546 8.53486C18.1791 8.5247 18.2014 8.50982 18.2202 8.49106C18.2389 8.4723 18.2538 8.45003 18.264 8.42552C18.2741 8.40101 18.2793 8.37473 18.2793 8.3482V7.12785C18.2794 7.10132 18.2741 7.07504 18.264 7.05052C18.2538 7.026 18.239 7.00372 18.2202 6.98496C18.2014 6.96619 18.1792 6.95131 18.1546 6.94115C18.1301 6.931 18.1038 6.92578 18.0773 6.92578Z" fill="#FFD15B"/>
<path d="M25.3815 13.0613L24.4815 13.9613C24.4627 13.9801 24.4405 13.995 24.416 14.0051C24.3914 14.0153 24.3652 14.0205 24.3386 14.0205C24.3121 14.0205 24.2858 14.0153 24.2613 14.0051C24.2368 13.995 24.2145 13.9801 24.1958 13.9613L23.2958 13.0613C23.277 13.0426 23.2621 13.0203 23.252 12.9958C23.2418 12.9713 23.2366 12.945 23.2366 12.9185C23.2366 12.8919 23.2418 12.8657 23.252 12.8411C23.2621 12.8166 23.277 12.7944 23.2958 12.7756L24.1958 11.8756C24.2145 11.8568 24.2368 11.8419 24.2613 11.8318C24.2858 11.8216 24.3121 11.8164 24.3386 11.8164C24.3652 11.8164 24.3914 11.8216 24.416 11.8318C24.4405 11.8419 24.4627 11.8568 24.4815 11.8756L25.3815 12.7756C25.4003 12.7944 25.4152 12.8166 25.4253 12.8411C25.4355 12.8657 25.4407 12.8919 25.4407 12.9185C25.4407 12.945 25.4355 12.9713 25.4253 12.9958C25.4152 13.0203 25.4003 13.0426 25.3815 13.0613Z" fill="#A2E62E"/>
<path d="M25.3814 12.7754L24.9517 12.3457L23.766 13.5314L24.1957 13.9611C24.2144 13.9799 24.2367 13.9948 24.2612 14.0049C24.2857 14.0151 24.312 14.0203 24.3385 14.0203C24.3651 14.0203 24.3914 14.0151 24.4159 14.0049C24.4404 13.9948 24.4627 13.9799 24.4814 13.9611L25.3814 13.0611C25.4002 13.0424 25.4151 13.0201 25.4252 12.9956C25.4354 12.9711 25.4406 12.9448 25.4406 12.9183C25.4406 12.8917 25.4354 12.8655 25.4252 12.8409C25.4151 12.8164 25.4002 12.7942 25.3814 12.7754Z" fill="#97D729"/>
<path d="M11.8225 6.95898L11.3928 6.5293L10.207 7.71504L10.6367 8.14473C10.6554 8.16349 10.6777 8.17838 10.7022 8.18853C10.7267 8.19869 10.753 8.20391 10.7796 8.20391C10.8061 8.20391 10.8324 8.19869 10.8569 8.18853C10.8814 8.17838 10.9037 8.16349 10.9224 8.14473L11.8224 7.24473C11.8412 7.22597 11.8561 7.2037 11.8662 7.17918C11.8764 7.15467 11.8816 7.1284 11.8816 7.10186C11.8816 7.07533 11.8764 7.04905 11.8663 7.02454C11.8561 7.00002 11.8412 6.97775 11.8225 6.95898Z" fill="#81B823"/>
<path d="M14.6808 12.3802C14.6034 12.3736 14.5318 12.3365 14.4817 12.2771C14.4317 12.2176 14.4073 12.1408 14.4139 12.0634L14.4317 11.8545C14.4347 11.8159 14.4453 11.7783 14.4628 11.7439C14.4804 11.7094 14.5046 11.6788 14.5341 11.6537C14.5636 11.6287 14.5977 11.6097 14.6346 11.5979C14.6714 11.5861 14.7102 11.5818 14.7488 11.585C14.7873 11.5883 14.8248 11.5992 14.8591 11.6171C14.8935 11.635 14.9239 11.6594 14.9487 11.6891C14.9735 11.7188 14.9922 11.7531 15.0036 11.7901C15.0151 11.827 15.0191 11.8659 15.0155 11.9044L14.9977 12.1132C14.9911 12.1907 14.954 12.2623 14.8945 12.3123C14.8351 12.3624 14.7582 12.3868 14.6808 12.3802ZM13.6105 12.7201C13.5721 12.7169 13.5348 12.7061 13.5006 12.6884C13.4665 12.6707 13.4361 12.6464 13.4114 12.6169L13.2763 12.4566C13.2262 12.3972 13.2018 12.3203 13.2085 12.2429C13.2151 12.1655 13.2522 12.0938 13.3116 12.0438C13.371 11.9937 13.4479 11.9693 13.5253 11.9759C13.6028 11.9826 13.6744 12.0197 13.7244 12.0791L13.8595 12.2394C13.8968 12.2837 13.9202 12.3381 13.9266 12.3957C13.933 12.4533 13.9222 12.5115 13.8956 12.5629C13.8689 12.6144 13.8276 12.6568 13.7769 12.6848C13.7261 12.7127 13.6682 12.725 13.6105 12.7201ZM15.678 12.8967C15.6203 12.8918 15.5653 12.8699 15.52 12.8337C15.4748 12.7975 15.4413 12.7487 15.4237 12.6935C15.4062 12.6383 15.4054 12.5791 15.4215 12.5234C15.4376 12.4678 15.4698 12.4181 15.5142 12.3808L15.6745 12.2457C15.7982 12.1414 15.983 12.1572 16.0873 12.2809C16.1915 12.4046 16.1758 12.5895 16.052 12.6937L15.8917 12.8288C15.8623 12.8537 15.8283 12.8725 15.7917 12.8841C15.755 12.8958 15.7164 12.9 15.678 12.8967ZM13.094 13.7173L12.8851 13.6994C12.8466 13.6964 12.809 13.6859 12.7745 13.6683C12.74 13.6507 12.7094 13.6265 12.6844 13.597C12.6593 13.5676 12.6403 13.5334 12.6286 13.4966C12.6168 13.4597 12.6124 13.4209 12.6157 13.3824C12.619 13.3438 12.6299 13.3063 12.6477 13.272C12.6656 13.2377 12.6901 13.2073 12.7198 13.1825C12.7495 13.1577 12.7838 13.139 12.8207 13.1275C12.8577 13.116 12.8965 13.112 12.935 13.1156L13.1438 13.1335C13.1824 13.1364 13.22 13.147 13.2545 13.1646C13.2889 13.1822 13.3196 13.2064 13.3446 13.2359C13.3697 13.2653 13.3886 13.2995 13.4004 13.3363C13.4122 13.3732 13.4166 13.412 13.4133 13.4505C13.41 13.4891 13.3991 13.5266 13.3812 13.5609C13.3634 13.5952 13.3389 13.6256 13.3092 13.6504C13.2795 13.6752 13.2452 13.6939 13.2083 13.7054C13.1713 13.7168 13.1325 13.7209 13.094 13.7173Z" fill="#FFD15B"/>
</g>
<defs>
<clipPath id="clip0_1002_10893">
<rect width="20" height="20" fill="white" transform="translate(6 6)"/>
</clipPath>
</defs>
</svg>
