<svg width="32" height="32" viewBox="0 0 32 32" fill="none" xmlns="http://www.w3.org/2000/svg">
<rect width="32" height="32" rx="16" fill="white"/>
<path d="M10.7674 6.99625C9.60239 6.99625 8.62845 7.81153 8.38323 8.9025C8.00737 8.71776 7.57736 8.62627 7.12312 8.65957C5.94794 8.74571 4.98998 9.67879 4.87454 10.8515C4.83746 11.2283 4.88695 11.5894 5.0042 11.9181C3.84526 12.1096 2.96118 13.1159 2.96118 14.3291C2.96118 14.6523 3.02484 14.9603 3.13886 15.2426L4.99786 15.7348L6.78953 15.2426L13.1908 9.1254C13.0361 7.92441 12.0104 6.99625 10.7674 6.99625ZM14.6039 11.4223L17.1554 15.2426L18.9218 15.7348H26.9201L28.2116 15.2426C28.2315 15.1171 28.242 14.9885 28.242 14.8573C28.242 14.1796 27.966 13.5664 27.5205 13.1236C28.1557 12.6822 28.572 11.9476 28.572 11.1154C28.572 9.89737 27.681 8.88779 26.5153 8.70201C26.5498 8.53684 26.5672 8.36855 26.5671 8.19982C26.5671 6.84985 25.4728 5.7555 24.1229 5.7555C23.5013 5.7555 22.9343 5.98787 22.5031 6.36997C22.1149 5.53352 21.2681 4.95312 20.2852 4.95312C18.9672 4.95312 17.8934 5.99645 17.8433 7.30217C17.5875 7.21406 17.3188 7.16912 17.0482 7.16917C15.6982 7.16917 14.6039 8.26353 14.6039 9.61344C14.6039 9.68141 14.6067 9.77722 14.6122 9.89765L14.6039 11.4223Z" fill="#87BE68"/>
<path d="M8.58162 12.7884L14.1654 15.1258L15.7793 11.9336L15.7794 11.9336C15.4558 10.2579 13.982 8.99219 12.2118 8.99219C10.2047 8.99219 8.57751 10.6193 8.57751 12.6265C8.57757 12.6808 8.57926 12.7346 8.58162 12.7884Z" fill="#FFE077"/>
<path d="M3.13892 15.2422C3.30087 15.6429 3.56589 15.9938 3.90711 16.2591L5.36809 16.7513L6.70537 16.2591L7.23857 15.7636L6.78958 15.2422H3.13892ZM28.2117 15.2422H17.1556L15.6823 16.2591L17.7632 16.7513H26.7778L27.7993 16.2591C28.0124 15.9559 28.1535 15.6081 28.2117 15.2422Z" fill="#83A984"/>
<path d="M23.9241 15.2426L24.8609 15.7348L25.6776 15.2426C25.219 13.3171 23.4888 11.8848 21.423 11.8848C19.3571 11.8848 17.6269 13.3171 17.1683 15.2426L18.1091 15.7348L18.9218 15.2426C19.3235 14.2556 20.2917 13.5596 21.423 13.5596C22.5542 13.5596 23.5224 14.2556 23.9241 15.2426Z" fill="#EEF5FF"/>
<path d="M17.1683 15.2422C17.0887 15.5753 17.0484 15.9166 17.0482 16.2591L17.985 16.7513L18.7231 16.2591C18.7228 15.9105 18.7903 15.5651 18.9218 15.2422H17.1683ZM24.1229 16.2591L25.0276 16.7513L25.7977 16.2591C25.7977 15.9088 25.7554 15.5687 25.6776 15.2422H23.9241C24.0556 15.5651 24.1231 15.9105 24.1229 16.2591Z" fill="#DFE9FB"/>
<path d="M15.6797 15.7335H15.682C16.5494 15.7335 17.2591 15.2413 17.2591 13.6642V13.5048C17.2591 12.6374 16.5494 11.9277 15.682 11.9277H15.6797C14.8123 11.9277 14.1027 12.6374 14.1027 13.5048V13.6644C14.1027 15.1216 14.8125 15.7335 15.6797 15.7335Z" fill="#6FD6A2"/>
<path d="M15.6798 16.2591L14.2067 15.2426L14.1927 15.2422L13.7903 15.7584L14.2773 16.2591L14.8532 16.7513L15.6798 16.2591Z" fill="#9AE59C"/>
<path d="M14.1927 15.2415C13.8181 13.5417 12.3037 12.2695 10.4913 12.2695C8.67887 12.2695 7.1644 13.5417 6.78979 15.2415L10.4804 15.7337L14.1927 15.2415Z" fill="#FF7E92"/>
<path d="M6.70007 16.0614C6.70007 16.1277 6.70182 16.1936 6.70521 16.2591L10.4805 16.7513L14.2774 16.2591C14.295 15.9179 14.2665 15.5758 14.1928 15.2422H6.78982C6.73029 15.5112 6.7002 15.7859 6.70007 16.0614Z" fill="#FF5F7A"/>
<path d="M6.99033 26.0307L10.056 26.5233H22.3287L25.0097 26.0307C29.3556 22.4811 29.9249 17.7558 29.9995 16.5496C30.0092 16.3923 29.8838 16.2598 29.7263 16.2598H2.2737C2.11614 16.2598 1.9908 16.3923 2.00053 16.5496C2.07507 17.7558 2.64442 22.4811 6.99033 26.0307Z" fill="#B2E5FB"/>
<path d="M6.99036 26.0293C7.24795 26.2397 7.51267 26.4412 7.78404 26.6335C8.16444 26.903 8.62021 27.0462 9.08648 27.0462H22.9136C23.3798 27.0462 23.8356 26.903 24.216 26.6335C24.4874 26.4412 24.7521 26.2397 25.0097 26.0293H6.99036Z" fill="#9EC8FC"/>
<path d="M15.682 15.2411H15.6797C14.8123 15.2411 14.1027 14.5315 14.1027 13.6641V14.681C14.1027 15.5484 14.8123 16.2581 15.6797 16.2581H15.682C16.5494 16.2581 17.2591 15.5484 17.2591 14.681V13.6641C17.2591 14.5315 16.5494 15.2411 15.682 15.2411Z" fill="#69C494"/>
<path d="M10.4805 13.3789C10.3679 13.3789 10.2599 13.4236 10.1803 13.5033C10.1007 13.5829 10.056 13.6909 10.056 13.8034V14.4179C10.056 14.5305 10.1007 14.6385 10.1803 14.7181C10.2599 14.7977 10.3679 14.8425 10.4805 14.8425C10.5931 14.8425 10.7011 14.7977 10.7807 14.7181C10.8603 14.6385 10.9051 14.5305 10.9051 14.4179V13.8034C10.9051 13.7477 10.8941 13.6925 10.8727 13.641C10.8514 13.5895 10.8201 13.5427 10.7807 13.5033C10.7413 13.4638 10.6945 13.4326 10.643 13.4112C10.5915 13.3899 10.5363 13.3789 10.4805 13.3789ZM9.04491 14.201C8.96493 14.1231 8.85749 14.0799 8.74585 14.0806C8.63422 14.0814 8.52736 14.1261 8.44843 14.205C8.3695 14.284 8.32483 14.3908 8.32411 14.5025C8.32338 14.6141 8.36665 14.7215 8.44455 14.8015L8.76207 15.119C8.84498 15.2019 8.95358 15.2433 9.06225 15.2433C9.17091 15.2433 9.27958 15.2018 9.36248 15.1189C9.44208 15.0393 9.4868 14.9313 9.4868 14.8187C9.4868 14.7061 9.44208 14.5981 9.36248 14.5185L9.04491 14.201ZM11.9162 14.201L11.5987 14.5185C11.5394 14.5779 11.499 14.6535 11.4826 14.7359C11.4663 14.8182 11.4747 14.9035 11.5068 14.9811C11.5389 15.0587 11.5933 15.125 11.6631 15.1716C11.7329 15.2183 11.8149 15.2432 11.8989 15.2433C11.9546 15.2433 12.0099 15.2324 12.0614 15.2111C12.1129 15.1897 12.1597 15.1584 12.1991 15.119L12.5166 14.8015C12.5938 14.7214 12.6365 14.6142 12.6355 14.5029C12.6345 14.3916 12.5898 14.2852 12.5111 14.2065C12.4325 14.1279 12.326 14.0832 12.2148 14.0822C12.1035 14.0811 11.9963 14.1238 11.9162 14.201Z" fill="#FFE077"/>
</svg>
