<svg width="32" height="32" viewBox="0 0 32 32" fill="none" xmlns="http://www.w3.org/2000/svg">
<rect width="32" height="32" rx="16" fill="white"/>
<path d="M8.82516 16.5635C8.7451 16.6436 8.6401 16.6836 8.53516 16.6836C8.43021 16.6836 8.32521 16.6436 8.24515 16.5635L5.63087 13.9492H3.50391C3.27739 13.9492 3.09375 13.7656 3.09375 13.5391C3.09375 13.3125 3.27739 13.1289 3.50391 13.1289H4.81055L3.99024 12.3086H2.41016C2.18364 12.3086 2 12.125 2 11.8984C2 11.6719 2.18364 11.4883 2.41016 11.4883H3.16993L2.12015 10.4385C2.04323 10.3616 2.00001 10.2572 2 10.1484V8.61719C2 8.39062 2.18364 8.20703 2.41016 8.20703C2.63667 8.20703 2.82031 8.39062 2.82031 8.61719V9.97858L4.29693 11.4552V10.094C4.29693 9.86745 4.48057 9.68387 4.70709 9.68387C4.9336 9.68387 5.11724 9.86745 5.11724 10.094V12.2755L6.09079 13.249L8.82516 15.9834C8.90208 16.0603 8.94529 16.1646 8.94529 16.2734C8.94529 16.3822 8.90208 16.4866 8.82516 16.5635Z" fill="#4EB879"/>
<path d="M28.9062 15.1797C28.3021 15.1797 27.8125 14.69 27.8125 14.0859H21.3495V12.4453H27.8125C27.8125 11.8412 28.3021 11.3516 28.9062 11.3516C29.5103 11.3516 30 11.8412 30 12.4453C30 12.7725 29.8556 13.0652 29.628 13.2656C29.8556 13.4661 30 13.7588 30 14.0859C30 14.69 29.5103 15.1797 28.9062 15.1797Z" fill="#FFF1BA"/>
<path d="M24.4492 13.8125V23.9297H6.40234V13.8125C6.40234 10.3391 9.21804 7.52344 12.6914 7.52344H18.1602C21.6335 7.52344 24.4492 10.3391 24.4492 13.8125Z" fill="#F15950"/>
<path d="M24.4492 13.8125V23.9297H23.3008V13.8125C23.3008 10.3391 20.4851 7.52344 17.0117 7.52344H18.1602C21.6335 7.52344 24.4492 10.3391 24.4492 13.8125Z" fill="#CE4D48"/>
<path d="M20.3602 10.3024C20.2872 10.3619 20.1959 10.3943 20.1018 10.3942C20.0408 10.3943 19.9805 10.3808 19.9253 10.3546C19.8702 10.3283 19.8216 10.2901 19.7832 10.2427L19.4277 9.8052C19.3617 9.72051 19.3314 9.6133 19.3436 9.50658C19.3557 9.39986 19.4092 9.30214 19.4925 9.23442C19.5759 9.16669 19.6825 9.13436 19.7894 9.14436C19.8963 9.15436 19.9951 9.2059 20.0645 9.28791L20.4199 9.72541C20.4539 9.76722 20.4793 9.8153 20.4947 9.86693C20.5101 9.91855 20.5151 9.9727 20.5096 10.0263C20.504 10.0799 20.488 10.1318 20.4624 10.1792C20.4367 10.2266 20.402 10.2685 20.3602 10.3024ZM20.7062 12.9323C20.4812 12.9088 20.2792 13.0727 20.256 13.298L20.198 13.8587C20.1921 13.9159 20.1982 13.9737 20.2161 14.0283C20.2339 14.0829 20.263 14.1332 20.3015 14.1759C20.34 14.2185 20.3871 14.2526 20.4396 14.2759C20.4921 14.2992 20.5489 14.3112 20.6064 14.3111C20.7078 14.311 20.8056 14.2733 20.8808 14.2054C20.9561 14.1374 21.0035 14.044 21.0139 13.9431L21.0719 13.3824C21.0775 13.3288 21.0724 13.2747 21.057 13.2231C21.0416 13.1715 21.0163 13.1234 20.9823 13.0816C20.9483 13.0398 20.9065 13.0051 20.8591 12.9795C20.8117 12.9538 20.7597 12.9378 20.7062 12.9323ZM22.5666 11.0222C22.5306 10.9821 22.487 10.9496 22.4384 10.9264C22.3898 10.9032 22.3371 10.8898 22.2833 10.8869C22.2295 10.8841 22.1757 10.8919 22.1249 10.9099C22.0742 10.9279 22.0274 10.9557 21.9874 10.9917L21.4405 11.4839C21.3609 11.557 21.3133 11.6585 21.3081 11.7665C21.303 11.8745 21.3407 11.9801 21.413 12.0605C21.4853 12.1408 21.5864 12.1894 21.6943 12.1956C21.8023 12.2017 21.9083 12.1651 21.9893 12.0935L22.5362 11.6014C22.5762 11.5653 22.6088 11.5218 22.632 11.4732C22.6552 11.4246 22.6686 11.3719 22.6714 11.3181C22.6742 11.2643 22.6664 11.2105 22.6484 11.1597C22.6305 11.1089 22.6027 11.0622 22.5666 11.0222Z" fill="#B04B42"/>
<path d="M18.9258 13.8125V23.9297H6.34766V13.8125C6.34766 10.3391 9.16335 7.52344 12.6367 7.52344C16.1101 7.52344 18.9258 10.3391 18.9258 13.8125Z" fill="#FF8E8C"/>
<path d="M17.2852 13.8125V23.9297H7.98828V13.8125C7.98828 11.2452 10.0695 9.16406 12.6367 9.16406C15.204 9.16406 17.2852 11.2452 17.2852 13.8125Z" fill="#FF6165"/>
<path d="M14.0039 13.2656C14.0039 14.0207 13.3918 14.6328 12.6367 14.6328C11.8816 14.6328 11.2695 14.0207 11.2695 13.2656C11.2695 12.5106 11.8816 11.8984 12.6367 11.8984C13.3918 11.8984 14.0039 12.5106 14.0039 13.2656Z" fill="#FFF1BA"/>
<path d="M11.6142 17.1104L10.6738 18.0508H11.3242C11.5507 18.0508 11.7344 18.2344 11.7344 18.4609C11.7344 18.6875 11.5507 18.8711 11.3242 18.8711H9.8535L7.23922 21.4854C7.15916 21.5654 7.05416 21.6055 6.94921 21.6055C6.84427 21.6055 6.73927 21.5654 6.65921 21.4854C6.62112 21.4473 6.5909 21.4021 6.57029 21.3523C6.54967 21.3025 6.53906 21.2492 6.53906 21.1953C6.53906 21.1415 6.54967 21.0881 6.57029 21.0384C6.5909 20.9886 6.62112 20.9434 6.65921 20.9053L9.27343 18.2911V16.8203C9.27343 16.5937 9.45707 16.4102 9.68359 16.4102C9.9101 16.4102 10.0937 16.5937 10.0937 16.8203V17.4708L10.9141 16.6505V15.7266C10.9141 15.5 11.0977 15.3164 11.3242 15.3164C11.5507 15.3164 11.7344 15.5 11.7344 15.7266V16.8203C11.7344 16.9291 11.6912 17.0334 11.6142 17.1104ZM18.707 23.3281H16.2934C16.1006 23.3635 15.9023 23.3828 15.6992 23.3828C15.4962 23.3828 15.2978 23.3635 15.105 23.3281H12.6914V21.4132C12.5107 20.9996 12.4176 20.553 12.418 20.1016C12.418 18.2894 13.887 16.8203 15.6992 16.8203C17.5114 16.8203 18.9805 18.2894 18.9805 20.1016C18.9809 20.553 18.8878 20.9996 18.707 21.4132V23.3281Z" fill="#4EB879"/>
<path d="M11.2084 22.4701C11.3387 22.6004 11.3066 22.8219 11.1425 22.9055C9.4938 23.7454 7.42585 23.4768 6.04674 22.0977C4.66758 20.7185 4.39901 18.6506 5.2389 17.0019C5.32251 16.8377 5.544 16.8057 5.67426 16.9359L11.2084 22.4701ZM22.777 19.5545H14.9505C14.7663 19.5545 14.6324 19.7338 14.6893 19.909C15.2612 21.6687 16.9134 22.9411 18.8638 22.9411C18.8846 22.9411 18.9051 22.9401 18.9258 22.9398V23.328H22.2071V21.3948C22.5785 20.9586 22.8609 20.4538 23.0383 19.909C23.0952 19.7338 22.9613 19.5545 22.777 19.5545Z" fill="#FF9C41"/>
<path d="M25.7242 16.9359C25.8544 16.8057 26.0759 16.8377 26.1595 17.0019C26.9994 18.6506 26.7308 20.7185 25.3517 22.0976C23.9726 23.4767 21.9046 23.7454 20.256 22.9055C20.0918 22.8219 20.0597 22.6004 20.19 22.4701L25.7242 16.9359Z" fill="#FFB45A"/>
<path d="M13.7306 21.7422C13.7306 22.6483 12.9961 23.3828 12.09 23.3828C11.1839 23.3828 10.4493 22.6483 10.4493 21.7422C10.4493 20.8361 11.1839 20.1016 12.09 20.1016C12.9961 20.1016 13.7306 20.8361 13.7306 21.7422ZM25.543 20.1016C24.6369 20.1016 23.9024 20.8361 23.9024 21.7422C23.9024 22.6483 24.6369 23.3828 25.543 23.3828C26.4491 23.3828 27.1836 22.6483 27.1836 21.7422C27.1836 20.8361 26.4491 20.1016 25.543 20.1016Z" fill="#89DF8F"/>
<path d="M30 23.6562C30 24.1093 29.6327 24.4766 29.1797 24.4766H2.82031C2.36728 24.4766 2 24.1093 2 23.6562C2 23.2032 2.36728 22.8359 2.82031 22.8359H29.1797C29.6327 22.8359 30 23.2032 30 23.6562Z" fill="#C97D5D"/>
</svg>
