<svg width="32" height="32" viewBox="0 0 32 32" fill="none" xmlns="http://www.w3.org/2000/svg">
<rect width="32" height="32" rx="16" fill="white"/>
<g clip-path="url(#clip0_1001_10589)">
<path d="M25.79 16.0007C25.79 21.5228 21.5221 25.7915 16 25.7915C13.301 25.7915 10.534 24.7863 8.71001 22.8441C7.03019 21.0553 6.00122 18.6482 6.00122 16.0007C6.00122 10.4785 10.4778 6.00195 16 6.00195C18.6476 6.00195 21.0549 7.03104 22.8437 8.71101C24.7857 10.535 25.79 13.4213 25.79 16.0007Z" fill="#615260"/>
<path d="M24.707 15.9986C24.707 20.8082 20.8081 24.7072 15.9984 24.7072C13.7175 24.7072 11.6414 23.8303 10.0889 22.3953C8.36764 20.8043 7.48914 18.5273 7.48914 15.9986C7.48914 11.189 11.1888 7.49805 15.9984 7.49805C18.527 7.49805 20.8039 8.36768 22.3948 10.0888C23.8301 11.6414 24.707 13.7176 24.707 15.9986Z" fill="#FF8B57"/>
<path d="M22.8436 8.71094C24.5234 10.4997 25.5521 12.9065 25.5521 15.554C25.5521 21.0762 21.0755 25.5528 15.5534 25.5528C12.9058 25.5528 10.4987 24.5239 8.70996 22.844C10.5339 24.7864 13.1251 25.9993 15.9999 25.9993C21.5221 25.9993 25.9987 21.5227 25.9987 16.0006C25.9987 13.1259 24.7859 10.5349 22.8436 8.71094Z" fill="#4E3D4D"/>
<path d="M7.77591 16.4836C7.77591 11.674 11.6749 7.77505 16.4845 7.77505C18.7657 7.77505 20.8423 8.65246 22.3949 10.0878C20.804 8.36687 18.5269 7.28906 15.9985 7.28906C11.1889 7.28906 7.28992 11.188 7.28992 15.9977C7.28992 18.5261 8.36803 20.8034 10.0889 22.3943C8.65359 20.8417 7.77591 18.7648 7.77591 16.4836Z" fill="#FF744D"/>
<path d="M13.1773 11.6437C12.471 11.6429 11.7943 11.3651 11.2949 10.8657L6.85949 6.43024L6.1881 6.18945C6.1627 6.21498 6.13939 6.24252 6.11841 6.2718C5.93079 6.53294 5.98673 6.89896 6.21408 7.12631L10.6242 11.5364C11.1235 12.0358 11.4014 12.7126 11.4022 13.4188C11.4026 13.7893 11.4871 14.1761 11.6514 14.55C11.7344 14.7388 12.0003 14.7287 12.0722 14.5355C12.4539 13.5113 13.2239 12.6775 14.2039 12.2124L14.3086 11.8929C13.9346 11.7285 13.5478 11.6441 13.1773 11.6437Z" fill="#DBD8DB"/>
<path d="M14.55 11.6511C14.1761 11.4868 13.7893 11.4023 13.4188 11.4019C12.7125 11.4011 12.0357 11.1232 11.5363 10.6238L7.10091 6.18845C6.84938 5.93661 6.4398 5.93754 6.18811 6.18911L11.0804 11.0799C11.7028 11.7025 12.5331 12.046 13.4182 12.0469C13.6756 12.0472 13.9402 12.1069 14.204 12.2121C14.3124 12.1607 14.423 12.1139 14.5354 12.0719C14.7287 11.9999 14.7388 11.7341 14.55 11.6511Z" fill="#C9C5C9"/>
<path d="M20.1081 13.3854L16.9219 13.1862C16.8365 13.1808 16.7525 13.2096 16.6884 13.2662C16.6242 13.3228 16.5852 13.4026 16.5799 13.4879L16.4643 15.336L15.4344 14.5885C15.4002 14.5636 15.3613 14.5457 15.3201 14.5358C15.2789 14.526 15.2362 14.5243 15.1944 14.531C15.1525 14.5376 15.1124 14.5524 15.0763 14.5746C15.0402 14.5967 15.0088 14.6258 14.9839 14.66L12.7014 17.8044C12.6765 17.8387 12.6587 17.8775 12.6488 17.9187C12.6389 17.9599 12.6372 18.0026 12.6439 18.0444C12.6505 18.0863 12.6653 18.1264 12.6875 18.1625C12.7096 18.1986 12.7387 18.23 12.773 18.2549L15.6174 20.3198L17.3853 17.8844L20.1459 17.9482L20.4098 13.7275C20.4125 13.6852 20.4068 13.6428 20.3931 13.6028C20.3793 13.5627 20.3578 13.5257 20.3298 13.4939C20.3018 13.4622 20.2678 13.4362 20.2297 13.4176C20.1917 13.399 20.1503 13.3881 20.1081 13.3854Z" fill="#FFE09C"/>
<path d="M16.7467 8.96574C15.8183 9.0677 14.6788 10.1648 16.1525 10.7529C17.2994 11.2107 17.9191 10.6672 17.8876 9.84803C17.8638 9.22969 17.3647 8.89789 16.7467 8.96574ZM18.1469 20.2867C17.513 20.9727 17.3726 22.5482 18.8708 22.0255C20.0368 21.6187 20.1479 20.802 19.5868 20.2043C19.1632 19.7531 18.5688 19.8301 18.1469 20.2867ZM9.46363 17.2375C9.89013 17.945 11.1939 18.4527 11.1191 17.0512C11.061 15.9604 10.3946 15.6646 9.74852 15.994C9.26089 16.2426 9.17976 16.7665 9.46363 17.2375Z" fill="#FFC263"/>
<path d="M15.997 17.6123C16.4007 17.4936 16.6515 17.1378 16.5574 16.8177C16.4632 16.4976 16.0597 16.3343 15.656 16.453C15.2524 16.5717 15.0015 16.9275 15.0957 17.2476C15.1898 17.5677 15.5934 17.731 15.997 17.6123Z" fill="#98DB7C"/>
<path d="M20.1455 11.5426C20.461 11.2641 20.5378 10.8354 20.3169 10.5851C20.096 10.3349 19.6611 10.3578 19.3455 10.6363C19.03 10.9148 18.9532 11.3435 19.1741 11.5938C19.395 11.844 19.8299 11.8211 20.1455 11.5426Z" fill="#FFAA5A"/>
<path d="M13.2251 21.5407C13.4063 21.2605 13.2668 20.8482 12.9135 20.6197C12.5602 20.3912 12.1269 20.4331 11.9456 20.7134C11.7644 20.9936 11.904 21.4059 12.2573 21.6344C12.6106 21.8629 13.0439 21.8209 13.2251 21.5407Z" fill="#FFAA5A"/>
<path d="M21.0922 19.8916C21.0208 19.8916 20.9515 19.8679 20.895 19.8242C20.7543 19.715 20.7284 19.5125 20.8374 19.3717L22.5449 17.1651C22.6542 17.0242 22.8564 16.9987 22.9975 17.1073C23.1383 17.2164 23.1641 17.419 23.0552 17.5598L21.3477 19.7664C21.3175 19.8054 21.2788 19.837 21.2345 19.8587C21.1902 19.8804 21.1416 19.8917 21.0922 19.8916ZM14.4991 23.1493C14.425 23.1493 14.3532 23.1239 14.2956 23.0772C14.2381 23.0305 14.1984 22.9654 14.1832 22.8929C14.168 22.8204 14.1781 22.7449 14.212 22.679C14.2459 22.6131 14.3015 22.5609 14.3693 22.5312L16.2869 21.6905C16.4513 21.6194 16.6403 21.6933 16.7118 21.8564C16.7833 22.0196 16.709 22.2099 16.5458 22.2813L14.6282 23.122C14.5875 23.1399 14.5436 23.1492 14.4991 23.1493ZM10.1375 14.9791C9.98666 14.9791 9.85154 14.8727 9.82127 14.719L9.47981 12.9852C9.44547 12.8104 9.55919 12.6408 9.734 12.6064C9.91135 12.571 10.0786 12.6858 10.1129 12.8605L10.4544 14.5943C10.4887 14.7691 10.375 14.9387 10.2002 14.973C10.1796 14.9771 10.1586 14.9792 10.1375 14.9791ZM22.8269 14.4275C22.7777 14.4275 22.7292 14.4164 22.6851 14.3948C22.6409 14.3733 22.6022 14.342 22.572 14.3032L21.3635 12.7532C21.2542 12.6127 21.279 12.41 21.4195 12.3006C21.5597 12.1905 21.7628 12.2161 21.8725 12.3566L23.081 13.9066C23.1903 14.0471 23.1655 14.2498 23.025 14.3593C22.9684 14.4035 22.8987 14.4275 22.8269 14.4275ZM13.1066 10.3819C13.0642 10.3819 13.0222 10.3736 12.9831 10.3574C12.944 10.3412 12.9084 10.3174 12.8785 10.2874C12.8485 10.2574 12.8248 10.2219 12.8086 10.1828C12.7924 10.1436 12.784 10.1017 12.784 10.0593C12.784 10.017 12.7924 9.97503 12.8086 9.9359C12.8248 9.89677 12.8485 9.86122 12.8785 9.83128L14.0606 8.64917C14.1866 8.52319 14.3907 8.52319 14.5167 8.64917C14.6427 8.77515 14.6427 8.97926 14.5167 9.10528L13.3346 10.2874C13.3047 10.3174 13.2691 10.3412 13.23 10.3574C13.1909 10.3736 13.1489 10.3819 13.1066 10.3819ZM9.71736 19.8653C9.63628 19.8652 9.5582 19.8346 9.49867 19.7796C9.43913 19.7245 9.4025 19.6491 9.39606 19.5683C9.38188 19.3908 9.5145 19.2353 9.69212 19.2211L11.347 19.0898C11.5259 19.0766 11.6799 19.2084 11.6941 19.3859C11.7083 19.5634 11.5757 19.7188 11.3981 19.733L9.74318 19.8643C9.73459 19.865 9.72597 19.8653 9.71736 19.8653ZM13.6842 14.6112C13.6045 14.6113 13.5276 14.5818 13.4685 14.5284C13.3362 14.4092 13.3255 14.2052 13.4445 14.0729L13.6811 13.8102C13.8002 13.6776 14.004 13.6674 14.1366 13.7863C14.2689 13.9055 14.2796 14.1094 14.1605 14.2417L13.924 14.5044C13.8937 14.5381 13.8568 14.565 13.8155 14.5834C13.7742 14.6018 13.7294 14.6113 13.6842 14.6112ZM18.0454 12.352C18.0262 12.352 18.007 12.3505 17.9875 12.3469L17.6986 12.2944C17.5235 12.2626 17.4069 12.0947 17.4388 11.9194C17.4706 11.7441 17.6397 11.628 17.8139 11.6597L18.1027 11.7122C18.2779 11.744 18.3944 11.9119 18.3626 12.0872C18.3343 12.2429 18.1985 12.352 18.0454 12.352Z" fill="#FFAA5A"/>
<path d="M23.2726 16.0549C23.2186 16.0549 23.1656 16.0414 23.1182 16.0155L22.8294 15.8578C22.6732 15.7725 22.6155 15.5765 22.7009 15.4202C22.7862 15.2638 22.9822 15.206 23.1387 15.2915L23.4275 15.4492C23.4905 15.4835 23.5402 15.5379 23.5688 15.6036C23.5974 15.6694 23.6032 15.7428 23.5855 15.8122C23.5677 15.8817 23.5273 15.9433 23.4706 15.9872C23.414 16.0312 23.3443 16.055 23.2726 16.0549ZM14.5249 21.7554C14.4826 21.7554 14.4406 21.7471 14.4015 21.7309C14.3624 21.7146 14.3268 21.6909 14.2968 21.6609C14.2669 21.631 14.2431 21.5954 14.2269 21.5563C14.2107 21.5171 14.2024 21.4752 14.2024 21.4328V21.2753C14.2024 21.0972 14.3467 20.9528 14.5249 20.9528C14.7032 20.9528 14.8475 21.0972 14.8475 21.2753V21.4328C14.8475 21.4752 14.8392 21.5171 14.823 21.5563C14.8068 21.5954 14.783 21.631 14.753 21.6609C14.7231 21.6909 14.6875 21.7146 14.6484 21.7309C14.6092 21.7471 14.5673 21.7554 14.5249 21.7554Z" fill="#98DB7C"/>
<path d="M18.6231 15.0582C18.5566 15.0581 18.4917 15.0376 18.4374 14.9992C18.383 14.9609 18.3418 14.9066 18.3195 14.844L18.1882 14.4762C18.128 14.3085 18.2156 14.1239 18.3835 14.0639C18.5501 14.0036 18.7356 14.0917 18.7954 14.2592L18.9268 14.6269C18.9869 14.7947 18.8993 14.9792 18.7315 15.0392C18.6967 15.0517 18.6601 15.0581 18.6231 15.0582Z" fill="#FFD18D"/>
<path d="M15.313 13.4547C15.2289 13.4547 15.1451 13.4192 15.084 13.3611C14.96 13.2364 14.9628 13.0287 15.084 12.9031C15.158 12.829 15.2711 12.7967 15.3741 12.8161C15.5237 12.8417 15.6353 12.9811 15.6355 13.1322C15.6355 13.2192 15.6 13.2999 15.542 13.3611C15.4791 13.4182 15.4 13.4543 15.313 13.4547Z" fill="#98DB7C"/>
<path d="M17.0224 23.5961C16.9352 23.5961 16.8514 23.5607 16.7934 23.5026C16.6691 23.3798 16.6691 23.1675 16.7934 23.0446C16.9128 22.9252 17.1289 22.9252 17.2483 23.0446C17.3093 23.1059 17.3449 23.1898 17.3449 23.2736C17.3445 23.4457 17.1967 23.5986 17.0224 23.5961Z" fill="#FFAA5A"/>
<path d="M22.2476 20.5484C22.0735 20.5506 21.9237 20.3996 21.9251 20.2258C21.925 20.0776 22.0371 19.9363 22.1862 19.9098C22.2895 19.8905 22.4022 19.9227 22.4765 19.9969C22.6007 20.1196 22.6012 20.3314 22.4765 20.455C22.4152 20.513 22.3346 20.5484 22.2476 20.5484Z" fill="#98DB7C"/>
<path d="M15.3406 18.8539C15.1634 18.8559 15.0185 18.7055 15.0146 18.5314C15.0146 18.4443 15.0502 18.3637 15.1116 18.3024C15.2307 18.183 15.4471 18.183 15.5661 18.3024C15.6929 18.4215 15.6954 18.6386 15.5661 18.7571C15.5082 18.8184 15.4244 18.8539 15.3406 18.8539Z" fill="#FFD18D"/>
<path d="M12.4778 16.4774C12.392 16.4769 12.3051 16.4439 12.2489 16.3805C12.1874 16.3226 12.1519 16.2386 12.1519 16.1549C12.1511 16.0087 12.2643 15.8615 12.4133 15.8388C12.5166 15.8161 12.6294 15.8517 12.7037 15.9259C12.8272 16.0417 12.8284 16.2639 12.7037 16.3805C12.6744 16.4109 12.6394 16.4352 12.6006 16.4518C12.5618 16.4684 12.52 16.4771 12.4778 16.4774Z" fill="#98DB7C"/>
<path d="M20.4297 13.4068L20.1081 13.3867L19.9056 16.6208C19.8722 17.1542 19.4128 17.5594 18.8795 17.5261L18.0808 17.4762L18.3502 17.105C18.3751 17.0707 18.393 17.0319 18.4029 16.9907C18.4127 16.9495 18.4144 16.9068 18.4078 16.865C18.4011 16.8231 18.3863 16.783 18.3642 16.7469C18.342 16.7108 18.313 16.6794 18.2787 16.6545L18.0179 16.4652L16.1141 19.0875C15.8002 19.5199 15.1951 19.616 14.7627 19.302L12.7014 17.8057L12.5119 18.0668C12.4617 18.1361 12.441 18.2224 12.4544 18.3068C12.4678 18.3913 12.5143 18.467 12.5835 18.5172L15.4278 20.582C15.462 20.6068 15.5009 20.6247 15.5421 20.6346C15.5832 20.6445 15.626 20.6461 15.6678 20.6395C15.7096 20.6329 15.7498 20.618 15.7859 20.5959C15.822 20.5737 15.8534 20.5447 15.8782 20.5104L17.632 18.0945L20.1268 18.2506C20.2122 18.2559 20.2962 18.2271 20.3603 18.1705C20.4245 18.1139 20.4635 18.0342 20.4689 17.9488L20.7315 13.749C20.7342 13.7067 20.7285 13.6643 20.7148 13.6242C20.701 13.5842 20.6795 13.5472 20.6515 13.5154C20.6235 13.4836 20.5895 13.4577 20.5514 13.4391C20.5134 13.4204 20.472 13.4095 20.4297 13.4068Z" fill="#FFD18D"/>
<path d="M21.372 16.2849C21.5532 16.0047 21.4137 15.5923 21.0604 15.3638C20.7071 15.1354 20.2738 15.1773 20.0926 15.4575C19.9114 15.7377 20.0509 16.1501 20.4042 16.3785C20.7575 16.607 21.1908 16.5651 21.372 16.2849Z" fill="#98DB7C"/>
</g>
<defs>
<clipPath id="clip0_1001_10589">
<rect width="20" height="20" fill="white" transform="translate(6 6)"/>
</clipPath>
</defs>
</svg>
