<svg width="32" height="32" viewBox="0 0 32 32" fill="none" xmlns="http://www.w3.org/2000/svg">
<rect width="32" height="32" rx="16" fill="white"/>
<g clip-path="url(#clip0_1002_10701)">
<path d="M16.7415 10.6696V8.28906H8.72455V10.6696C8.72455 12.4152 8.90607 14.1562 9.26615 15.8643C9.80088 18.4007 10.4824 21.2711 9.26217 23.6944C9.07463 24.0668 9.34185 24.52 9.7708 24.52H15.6953C16.1242 24.52 16.3915 24.0668 16.2039 23.6944C14.9837 21.2711 15.6652 18.4007 16.1999 15.8643C16.56 14.1562 16.7416 12.4152 16.7415 10.6696Z" fill="#F1FAFF"/>
<path d="M16.7415 10.6696V8.28906H15.1306V10.6696C15.1306 12.4152 14.9491 14.1562 14.589 15.8643C14.0543 18.4007 13.3728 21.2711 14.593 23.6944C14.7806 24.0668 14.5133 24.52 14.0844 24.52H15.6953C16.1242 24.52 16.3914 24.0668 16.2039 23.6944C14.9837 21.2711 15.6652 18.4007 16.1999 15.8643C16.56 14.1562 16.7415 12.4152 16.7415 10.6696Z" fill="#DCF5FF"/>
<path d="M16.2039 23.6936C14.9837 21.2704 15.6652 18.4 16.1999 15.8636C16.5204 14.3429 16.6994 12.7958 16.7346 11.2422H8.73151C8.76675 12.7958 8.94573 14.3429 9.26615 15.8636C9.80088 18.4 10.4824 21.2704 9.26217 23.6936C9.07463 24.0661 9.34186 24.5193 9.77084 24.5193H15.6953C16.1242 24.5193 16.3915 24.0661 16.2039 23.6936Z" fill="#FCDD2E"/>
<path d="M16.7346 11.2422H15.1237C15.0885 12.7958 14.9095 14.3429 14.589 15.8636C14.0543 18.4 13.3728 21.2704 14.593 23.6936C14.7806 24.0661 14.5133 24.5193 14.0844 24.5193H15.6953C16.1242 24.5193 16.3914 24.0661 16.2039 23.6936C14.9837 21.2704 15.6652 18.4 16.1999 15.8636C16.5204 14.3429 16.6994 12.7958 16.7346 11.2422Z" fill="#F9C301"/>
<path d="M16.2039 23.6936C16.0316 23.3514 15.8973 23.0004 15.7951 22.6426C15.76 22.858 15.5774 23.0409 15.3293 23.0409H10.1367C9.88865 23.0409 9.70603 22.858 9.67099 22.6426C9.56876 23.0004 9.43443 23.3514 9.26216 23.6936C9.07462 24.066 9.34185 24.5192 9.77083 24.5192H15.6953C16.1242 24.5192 16.3914 24.066 16.2039 23.6936Z" fill="#C9E2E7"/>
<path d="M16.7415 8.3107C16.7406 7.46543 16.601 7.17445 16.3444 6.99789C16.0652 6.80574 15.7162 6.78832 15.4286 6.9234C15.2794 6.99348 15.1055 6.97895 14.974 6.87953C14.9663 6.87371 14.9585 6.86797 14.9506 6.8623C14.7042 6.6857 14.4066 6.63398 14.1321 6.69395C13.9665 6.73012 13.7924 6.67086 13.6847 6.5398C13.4435 6.24602 13.0774 6.05859 12.6676 6.05859C12.2909 6.05859 11.9513 6.21703 11.7115 6.47082C11.5928 6.59648 11.4144 6.65113 11.2487 6.60203C10.8982 6.4982 10.5034 6.58461 10.2268 6.86121L10.2196 6.86848C10.0993 6.99117 9.92225 7.04207 9.75643 6.99695C9.30006 6.87281 8.85854 7.12508 8.71233 7.43832C8.63276 7.60879 8.50178 7.75133 8.32916 7.82617C8.0051 7.96668 7.77838 8.28891 7.77838 8.66465V10.7457C7.77838 11.0725 8.03405 11.3528 8.36072 11.3588C8.69358 11.3649 8.9653 11.0969 8.9653 10.7654V9.44148C8.9653 9.11371 9.231 8.84801 9.55877 8.84801C9.88655 8.84801 10.1522 9.11371 10.1522 9.44148V9.51332C10.1522 9.84109 10.418 10.1068 10.7457 10.1068C11.0735 10.1068 11.3392 9.84109 11.3392 9.51332V8.80629C11.3392 8.53258 11.5611 8.3107 11.8348 8.3107H16.7415Z" fill="#FDF3C4"/>
<path d="M16.3444 6.99785C16.0652 6.8057 15.7162 6.78828 15.4286 6.92336C15.2708 6.99746 15.1148 6.97996 14.9506 6.86227C14.7042 6.68566 14.4066 6.63395 14.1321 6.69391C13.9664 6.73008 13.7923 6.67082 13.6847 6.5398C13.4434 6.24602 13.0774 6.05859 12.6676 6.05859C12.2908 6.05859 11.9512 6.21703 11.7115 6.47082C11.6359 6.55086 11.536 6.60191 11.4307 6.61586C11.6032 6.70396 11.7557 6.82661 11.8787 6.97617C11.9937 7.11617 12.1796 7.17949 12.3566 7.14082C12.6498 7.07676 12.9677 7.13199 13.2309 7.32066C13.2394 7.32672 13.2476 7.33285 13.2559 7.33906C13.3964 7.44527 13.5821 7.46078 13.7415 7.38594C14.0488 7.24164 14.4215 7.26027 14.7198 7.46551C14.9939 7.65414 15.144 7.97293 15.144 8.3107H16.7415C16.7405 7.46539 16.6009 7.17445 16.3444 6.99785Z" fill="#FCEEAC"/>
<path d="M22.7155 22.3615H15.5269C15.0318 22.3615 14.6306 21.9602 14.6306 21.4652V20.2578H23.6118V21.4652C23.6118 21.9602 23.2105 22.3615 22.7155 22.3615Z" fill="#FC5327"/>
<path d="M22.1089 22.3615H22.7155C23.2105 22.3615 23.6118 21.9602 23.6118 21.4652V20.2578H22.1089V22.3615Z" fill="#ED4322"/>
<path d="M22.6082 19.1816H15.6756C14.9888 19.1816 14.432 19.7384 14.432 20.4252C14.432 20.5131 14.4669 20.5974 14.5291 20.6596C14.5912 20.7217 14.6755 20.7566 14.7635 20.7566H20.2911C20.426 20.7566 20.555 20.8124 20.6474 20.9107L21.4826 21.7983C21.6872 22.0157 22.0372 22.0009 22.2225 21.7668L22.8756 20.9421C22.9684 20.825 23.1097 20.7566 23.2592 20.7566H23.5203C23.6082 20.7566 23.6925 20.7217 23.7547 20.6596C23.8168 20.5974 23.8517 20.5131 23.8517 20.4252C23.8518 19.7384 23.295 19.1816 22.6082 19.1816Z" fill="#FCDD2E"/>
<path d="M22.6082 19.1816H22.1089V21.8709C22.152 21.8424 22.1904 21.8073 22.2226 21.7668L22.8756 20.9421C22.9684 20.825 23.1097 20.7566 23.2592 20.7566H23.5203C23.6082 20.7566 23.6925 20.7217 23.7547 20.6596C23.8169 20.5974 23.8518 20.5131 23.8518 20.4252C23.8518 19.7384 23.295 19.1816 22.6082 19.1816Z" fill="#F9C301"/>
<path d="M23.8075 21.9512H14.4334C14.2046 21.9512 14.0192 22.1366 14.0192 22.3654C14.0192 23.5546 14.9833 24.5188 16.1725 24.5188H22.0684C23.2576 24.5188 24.2217 23.5546 24.2217 22.3654C24.2217 22.1366 24.0363 21.9512 23.8075 21.9512Z" fill="#FBA615"/>
<path d="M23.8075 21.9512H22.6175V22.7796C22.6175 23.7401 21.8389 24.5188 20.8784 24.5188H22.0684C23.2576 24.5188 24.2217 23.5546 24.2217 22.3654C24.2217 22.1366 24.0362 21.9512 23.8075 21.9512Z" fill="#FA9801"/>
<path d="M14.5308 18.0781V19.0964C14.5305 19.4639 14.9494 19.6584 15.4361 19.5871C15.8907 19.5206 15.8964 19.3115 16.3567 19.3115C16.8171 19.3115 16.8171 19.5871 17.2774 19.5871C17.7377 19.5871 17.7377 19.3115 18.198 19.3115C18.6583 19.3115 18.6583 19.5871 19.1186 19.5871C19.5789 19.5871 19.5789 19.3115 20.0392 19.3115C20.4995 19.3115 20.4995 19.5871 20.9598 19.5871C21.4201 19.5871 21.4201 19.3115 21.8804 19.3115C22.3407 19.3115 22.3465 19.5206 22.801 19.5871C23.2877 19.6584 23.7066 19.4639 23.7063 19.0964V18.0781H14.5308Z" fill="#78D090"/>
<path d="M22.1089 18.0781V19.3338C22.3607 19.3894 22.4373 19.5339 22.801 19.5871C23.2877 19.6583 23.7066 19.4639 23.7063 19.0964V18.0781H22.1089Z" fill="#5EA570"/>
<path d="M23.9139 18.3029C24.0757 18.3029 24.1979 18.1546 24.1647 17.9962C23.955 16.9948 23.0203 14.8823 19.1205 14.8809C15.2207 14.8823 14.2858 16.9947 14.0762 17.9962C14.043 18.1546 14.1652 18.3029 14.327 18.3029H23.9139Z" fill="#FBA615"/>
<path d="M24.1647 17.9963C23.955 16.9948 23.0202 14.8823 19.1204 14.8809C18.8417 14.881 18.5786 14.8922 18.3293 14.9127C21.9834 15.2141 22.5566 17.5809 22.628 18.303H23.914C24.0757 18.3029 24.1979 18.1546 24.1647 17.9963Z" fill="#FA9801"/>
<path d="M25.4669 25.9412H6.53312C6.23867 25.9412 6 25.7025 6 25.408V24.9179C6 24.6235 6.23867 24.3848 6.53312 24.3848H25.4669C25.7613 24.3848 26 24.6234 26 24.9179V25.408C26 25.7025 25.7613 25.9412 25.4669 25.9412Z" fill="#845C47"/>
<path d="M25.4669 24.3848H24.3992V25.408C24.3992 25.7025 24.1605 25.9412 23.866 25.9412H25.4669C25.7613 25.9412 26 25.7025 26 25.408V24.9179C26 24.6234 25.7613 24.3848 25.4669 24.3848Z" fill="#7A5440"/>
</g>
<defs>
<clipPath id="clip0_1002_10701">
<rect width="20" height="20" fill="white" transform="translate(6 6)"/>
</clipPath>
</defs>
</svg>
