<svg width="32" height="32" viewBox="0 0 32 32" fill="none" xmlns="http://www.w3.org/2000/svg">
<rect width="32" height="32" rx="16" fill="white"/>
<path d="M25.1656 16.1209C24.005 15.7863 22.6837 16.8323 22.2151 18.4572C21.7545 20.0541 21.3808 21.8933 22.5008 22.2634C22.5205 22.27 22.5393 22.2792 22.5595 22.2853C23.7201 22.62 25.9496 21.2935 26.4186 19.6686C26.8876 18.0438 26.325 16.4561 25.1656 16.1209Z" fill="#69911D"/>
<path d="M25.3188 16.1758C24.8534 16.3884 24.4426 16.7041 24.1175 17.0991C23.7923 17.4942 23.5614 17.958 23.4423 18.4556C23.0109 19.9514 23.4533 21.414 24.4315 21.8983C25.3526 21.4333 26.0625 20.6357 26.4178 19.667C26.8658 18.1187 26.374 16.6037 25.3188 16.1758Z" fill="#5A7D19"/>
<path d="M27.2692 16.1209C26.1085 15.7863 24.7872 16.8323 24.3182 18.4572C23.858 20.0541 24.3926 21.6129 25.5126 21.9843C25.5323 21.9913 25.5511 22.0001 25.5712 22.0062C26.7319 22.3409 28.0532 21.2948 28.5222 19.6699C28.9912 18.0451 28.4299 16.4561 27.2692 16.1209Z" fill="#69911D"/>
<path d="M25.4653 22.563C25.396 22.563 25.3277 22.5466 25.2659 22.515C25.2042 22.4834 25.1509 22.4376 25.1104 22.3814C25.0698 22.3252 25.0432 22.2601 25.0327 22.1916C25.0223 22.1231 25.0282 22.053 25.0501 21.9873L26.3626 18.0498C26.3993 17.9395 26.4782 17.8484 26.5821 17.7964C26.686 17.7443 26.8063 17.7357 26.9165 17.7724C27.0267 17.8091 27.1179 17.888 27.1699 17.9919C27.2219 18.0958 27.2305 18.216 27.1939 18.3263L25.8814 22.2638C25.8523 22.3511 25.7964 22.427 25.7218 22.4807C25.6471 22.5344 25.5573 22.5632 25.4653 22.563Z" fill="#799C36"/>
<path d="M27.2644 10.352C27.5288 10.3115 27.7803 10.2103 27.9991 10.0563C28.2179 9.90228 28.398 9.69965 28.5252 9.46432C29.0017 8.51626 28.394 7.24751 27.1664 6.63107C26.6404 6.35842 26.0438 6.25266 25.4562 6.32788C25.643 5.44063 25.0432 4.40288 23.9687 3.86126C22.9279 3.33845 21.7781 3.45482 21.1617 4.08001C20.5781 3.57829 19.8321 3.30559 19.0626 3.31263C17.5274 3.31263 16.2626 4.34207 16.0946 5.66726C16.0946 5.66726 11.6758 7.94226 13.5081 11.1876C15.3403 14.433 14.1608 15.1934 16.9792 15.021C19.7976 14.8486 20.6979 12.4249 22.5302 12.8291C24.3624 13.2334 25.2396 14.3976 26.5001 13.0251C27.2963 12.1567 27.2644 10.352 27.2644 10.352Z" fill="#69911D"/>
<path d="M21.4403 12.4473L20.2648 13.7698C19.49 14.643 19.0623 15.77 19.0625 16.9373C19.0625 17.1114 18.9934 17.2783 18.8703 17.4014C18.7472 17.5244 18.5803 17.5936 18.4062 17.5936C18.2322 17.5936 18.0653 17.5244 17.9422 17.4014C17.8191 17.2783 17.75 17.1114 17.75 16.9373V15.0508C17.75 14.6585 17.8272 14.2701 17.9774 13.9077C18.1275 13.5452 18.3476 13.2159 18.625 12.9386L18.0291 13.296C17.5745 13.5688 17.0418 13.6818 16.5156 13.617C15.9894 13.5522 15.4999 13.3134 15.125 12.9386V22.6603C15.125 22.6603 22.125 22.5846 22.125 22.6603V15.2617C22.1512 14.9055 22.2523 14.5588 22.4217 14.2443C22.5911 13.9299 22.825 13.6547 23.1081 13.4369C22.4634 13.2869 21.8809 12.9412 21.4403 12.4473Z" fill="#A9C358"/>
<path d="M12.9152 17.5413H12.9021L13.1475 17.4756C13.3763 17.4172 13.5913 17.3139 13.7799 17.1718C13.9686 17.0297 14.1272 16.8516 14.2465 16.6477C14.3658 16.4439 14.4435 16.2184 14.4751 15.9844C14.5066 15.7503 14.4914 15.5123 14.4304 15.2841C14.3693 15.056 14.2636 14.8422 14.1193 14.6552C13.9751 14.4682 13.7951 14.3117 13.59 14.1947C13.3848 14.0777 13.1584 14.0026 12.924 13.9737C12.6896 13.9448 12.4518 13.9627 12.2244 14.0264L12.1369 14.0491L13.0311 13.3014C13.3943 12.9977 13.622 12.5622 13.664 12.0906C13.7061 11.6191 13.5591 11.1501 13.2553 10.7869C12.9516 10.4237 12.5161 10.1961 12.0445 10.154C11.573 10.112 11.104 10.259 10.7408 10.5627L10.1922 11.0212L10.0973 10.0394C10.0518 9.56818 9.82094 9.13429 9.45554 8.83322C9.09014 8.53215 8.62011 8.38856 8.14885 8.43404C7.67758 8.47953 7.24369 8.71036 6.94262 9.07576C6.64154 9.44115 6.49796 9.91118 6.54344 10.3824L6.63663 11.3511L6.12519 11.0356C5.71055 10.8072 5.22213 10.7528 4.76739 10.8844C4.31264 11.0161 3.92881 11.323 3.70035 11.7376C3.47188 12.1522 3.41748 12.6407 3.54913 13.0954C3.68077 13.5502 3.98767 13.934 4.40232 14.1624L5.28475 14.7071L5.22132 14.7028C4.74889 14.6701 4.28284 14.8264 3.92569 15.1374C3.56854 15.4484 3.34954 15.8885 3.31688 16.3609C3.28421 16.8333 3.44056 17.2994 3.75152 17.6565C4.06248 18.0137 4.50258 18.2327 4.975 18.2653L5.22875 18.2828H5.21563C4.74436 18.3283 4.31047 18.5591 4.0094 18.9245C3.70832 19.2899 3.56474 19.76 3.61022 20.2312C3.65571 20.7025 3.88654 21.1364 4.25193 21.4375C4.61733 21.7385 5.08736 21.8821 5.55863 21.8366L7.03913 21.694C7.24146 21.7063 7.43827 21.7649 7.61435 21.8653C7.79042 21.9657 7.94104 22.1053 8.05457 22.2733L10.8502 21.995C10.9412 21.8093 11.0712 21.6454 11.2314 21.5146C11.3915 21.3837 11.578 21.289 11.7781 21.2368L13.2586 21.0938C13.7299 21.0483 14.1638 20.8176 14.4649 20.4522C14.766 20.0868 14.9097 19.6168 14.8643 19.1456C14.8188 18.6743 14.588 18.2404 14.2227 17.9393C13.8573 17.6382 13.3873 17.4945 12.9161 17.5399L12.9152 17.5413Z" fill="#457529"/>
<path d="M27.0385 10.1635C27.0429 10.1145 27.0477 10.066 27.0477 10.0161C27.0477 8.9267 25.9483 8.04383 24.592 8.04383C23.3067 8.04383 22.2536 8.83745 22.1473 9.84808C21.9862 9.94199 21.8345 10.0513 21.6945 10.1745C21.7091 10.0638 21.7168 9.95228 21.7177 9.84064C21.7182 9.30774 21.5582 8.78704 21.2586 8.34639C20.9589 7.90573 20.5335 7.56554 20.0377 7.37015C19.5419 7.17477 18.9987 7.13324 18.479 7.25099C17.9593 7.36873 17.4871 7.64028 17.1239 8.03026C17.1209 7.29299 16.8577 6.58045 16.3809 6.01814C15.904 5.45582 15.244 5.07982 14.5172 4.95634C13.7903 4.83286 13.0432 4.96984 12.4074 5.34314C11.7716 5.71644 11.2879 6.30212 11.0416 6.99702C10.7952 7.69192 10.8019 8.45147 11.0606 9.14188C11.3193 9.83229 11.8133 10.4093 12.4556 10.7712C13.0979 11.1332 13.8474 11.2568 14.5719 11.1205C15.2965 10.9841 15.9497 10.5964 16.4165 10.0257C16.4524 10.55 16.6434 11.0518 16.9652 11.4674C17.2869 11.883 17.7249 12.1935 18.2235 12.3596C18.7222 12.5258 19.2589 12.5399 19.7656 12.4004C20.2723 12.2608 20.7261 11.9738 21.0693 11.5758C21.1485 12.4258 21.9771 13.1438 23.1387 13.4465C23.3457 13.8184 23.6631 14.1168 24.0469 14.3006C24.4307 14.4845 24.8622 14.5447 25.2817 14.473C25.7012 14.4013 26.0881 14.2012 26.3891 13.9002C26.69 13.5993 26.8902 13.2124 26.962 12.7929C27.1775 12.6379 27.3552 12.4361 27.4816 12.2027C27.6079 11.9692 27.6798 11.7102 27.6917 11.445C27.6817 11.1969 27.6182 10.9539 27.5055 10.7327C27.3927 10.5115 27.2334 10.3173 27.0385 10.1635Z" fill="#69911D"/>
<path d="M14.7312 17.8883H14.7181L14.9688 17.8446C15.2023 17.8084 15.4262 17.7263 15.6278 17.603C15.8293 17.4797 16.0043 17.3176 16.1427 17.1261C16.2811 16.9347 16.3801 16.7176 16.434 16.4876C16.488 16.2576 16.4957 16.0192 16.4568 15.7861C16.4179 15.5531 16.3331 15.3301 16.2074 15.1301C16.0817 14.9301 15.9175 14.757 15.7244 14.6209C15.5313 14.4847 15.3131 14.3883 15.0825 14.3371C14.8518 14.2859 14.6133 14.281 14.3808 14.3227L14.2933 14.3376L15.2558 13.6813C15.6416 13.4119 15.9055 13.001 15.9899 12.538C16.0744 12.075 15.9726 11.5974 15.7068 11.2091C15.441 10.8207 15.0326 10.553 14.5704 10.4642C14.1083 10.3754 13.6298 10.4726 13.2389 10.7348L12.6487 11.139V10.152C12.6414 9.68339 12.4501 9.23644 12.1161 8.90763C11.7821 8.57882 11.3322 8.39453 10.8635 8.39453C10.3948 8.39453 9.94493 8.57882 9.61093 8.90763C9.27694 9.23644 9.08563 9.68339 9.07829 10.152V11.1255L8.59704 10.7619C8.20636 10.4944 7.72544 10.3931 7.26006 10.4803C6.79469 10.5674 6.383 10.8358 6.11554 11.2265C5.84809 11.6172 5.74678 12.0981 5.83392 12.5635C5.92105 13.0289 6.18949 13.4406 6.58017 13.708L7.40835 14.3367L7.34535 14.3262C6.88103 14.2543 6.40709 14.3684 6.02631 14.6437C5.64553 14.9189 5.38859 15.3332 5.31122 15.7966C5.23385 16.2601 5.34227 16.7353 5.61298 17.1193C5.88369 17.5034 6.29487 17.7652 6.75735 17.8481L7.00804 17.8918H6.99492C6.52629 17.8992 6.07933 18.0905 5.75053 18.4245C5.42172 18.7585 5.23743 19.2084 5.23743 19.6771C5.23743 20.1457 5.42172 20.5956 5.75053 20.9296C6.07933 21.2636 6.52629 21.4549 6.99492 21.4623H8.48242C8.68232 21.4935 8.87237 21.5703 9.03795 21.6865C9.20353 21.8028 9.34022 21.9555 9.43748 22.133L12.2471 22.1242C12.3556 21.9482 12.5008 21.7976 12.6728 21.6828C12.8448 21.5679 13.0395 21.4915 13.2437 21.4588H14.7312C15.1999 21.4514 15.6468 21.2601 15.9756 20.9261C16.3044 20.5921 16.4887 20.1422 16.4887 19.6736C16.4887 19.2049 16.3044 18.755 15.9756 18.421C15.6468 18.087 15.1999 17.8957 14.7312 17.8883Z" fill="#557C3E"/>
<path d="M14.5388 19.2056C14.4935 19.0988 14.4076 19.0143 14.3 18.9709C14.1925 18.9274 14.072 18.9284 13.9652 18.9737L11.1875 20.1514V17.5969L14.3139 16.2061C14.42 16.1589 14.5029 16.0715 14.5446 15.9632C14.5862 15.8548 14.5831 15.7344 14.5359 15.6283C14.4888 15.5223 14.4014 15.4393 14.2931 15.3977C14.1847 15.356 14.0643 15.3591 13.9582 15.4063L11.1875 16.6387V14.0912L14.3209 12.6312C14.4261 12.5822 14.5075 12.4934 14.5472 12.3844C14.5869 12.2753 14.5817 12.155 14.5327 12.0498C14.4836 11.9446 14.3948 11.8632 14.2858 11.8235C14.1768 11.7838 14.0564 11.789 13.9512 11.8381L11.1875 13.1261V11.1875C11.1875 11.0715 11.1414 10.9602 11.0594 10.8781C10.9773 10.7961 10.8661 10.75 10.75 10.75C10.634 10.75 10.5227 10.7961 10.4407 10.8781C10.3586 10.9602 10.3125 11.0715 10.3125 11.1875V13.1055L7.78554 11.8438C7.73399 11.8166 7.67753 11.7999 7.61946 11.7949C7.5614 11.7898 7.50291 11.7964 7.44743 11.8142C7.39194 11.832 7.34058 11.8608 7.29637 11.8988C7.25215 11.9367 7.21596 11.9832 7.18993 12.0353C7.1639 12.0874 7.14855 12.1443 7.14479 12.2024C7.14102 12.2606 7.14892 12.3189 7.16801 12.374C7.18709 12.4291 7.21699 12.4798 7.25595 12.5231C7.2949 12.5665 7.34213 12.6016 7.39485 12.6264L10.3125 14.0829V16.6204L7.77854 15.412C7.67406 15.3638 7.55479 15.3587 7.44658 15.3978C7.33836 15.4369 7.2499 15.517 7.20036 15.6209C7.15083 15.7247 7.14419 15.8439 7.18191 15.9526C7.21962 16.0613 7.29864 16.1508 7.40185 16.2017L10.3125 17.5886V20.1331L7.7711 18.9785C7.71853 18.9527 7.66132 18.9377 7.60284 18.9343C7.54437 18.931 7.48582 18.9395 7.43068 18.9592C7.37554 18.979 7.32492 19.0096 7.28183 19.0493C7.23874 19.0889 7.20405 19.1368 7.17982 19.1902C7.15559 19.2435 7.14231 19.3011 7.14078 19.3597C7.13924 19.4182 7.14947 19.4765 7.17088 19.531C7.19228 19.5855 7.2244 19.6352 7.26536 19.6771C7.30631 19.7189 7.35525 19.7521 7.40929 19.7747L10.3125 21.0943V22.125C10.3125 22.241 10.3586 22.3523 10.4407 22.4344C10.5227 22.5164 10.634 22.5625 10.75 22.5625C10.8661 22.5625 10.9773 22.5164 11.0594 22.4344C11.1414 22.3523 11.1875 22.241 11.1875 22.125V21.1021L14.3069 19.7796C14.3598 19.7571 14.4078 19.7245 14.4481 19.6835C14.4885 19.6425 14.5203 19.5939 14.5418 19.5406C14.5634 19.4873 14.5742 19.4303 14.5737 19.3728C14.5731 19.3153 14.5613 19.2585 14.5388 19.2056Z" fill="#BFC99D"/>
<path d="M19.262 11.1776C19.1523 11.1775 19.0468 11.1361 18.9662 11.0618C18.8856 10.9875 18.8358 10.8856 18.8267 10.7764C18.8177 10.6671 18.8499 10.5584 18.9172 10.4718C18.9844 10.3852 19.0817 10.327 19.1898 10.3088C19.6911 10.2231 20.1479 9.96817 20.4839 9.58646C20.5618 9.50407 20.6686 9.45513 20.7818 9.44994C20.8951 9.44476 21.0059 9.48373 21.091 9.55866C21.1761 9.63358 21.2287 9.7386 21.2379 9.8516C21.2471 9.96459 21.212 10.0767 21.1402 10.1644C20.6711 10.6966 20.0336 11.0518 19.3342 11.1706C19.3103 11.1749 19.2862 11.1772 19.262 11.1776ZM21.1992 8.48089C21.1121 8.48093 21.027 8.45496 20.9547 8.40633C20.8825 8.35769 20.8264 8.2886 20.7937 8.20789C20.5876 7.69909 20.56 7.13549 20.7153 6.60898C20.8706 6.08247 21.1997 5.62409 21.6489 5.30856C22.0981 4.99302 22.6409 4.83895 23.1889 4.87145C23.7368 4.90395 24.2577 5.1211 24.6664 5.48752C24.7112 5.5253 24.7479 5.57167 24.7744 5.6239C24.8009 5.67613 24.8166 5.73314 24.8206 5.79157C24.8247 5.84999 24.817 5.90863 24.7979 5.96401C24.7789 6.0194 24.7489 6.07039 24.7098 6.11398C24.6707 6.15758 24.6233 6.19287 24.5703 6.21778C24.5173 6.24269 24.4598 6.2567 24.4013 6.25899C24.3428 6.26127 24.2844 6.25179 24.2296 6.2311C24.1748 6.2104 24.1247 6.17892 24.0823 6.13852C23.8206 5.9046 23.4874 5.76614 23.137 5.74565C22.7865 5.72516 22.4395 5.82386 22.1523 6.02568C21.8651 6.2275 21.6546 6.52057 21.5551 6.85721C21.4556 7.19385 21.473 7.55424 21.6043 7.87977C21.6476 7.98723 21.6464 8.10745 21.6012 8.21407C21.5559 8.32068 21.4702 8.405 21.3628 8.44852C21.3109 8.46987 21.2553 8.48087 21.1992 8.48089ZM12.9348 8.24333C12.8323 8.24314 12.733 8.20691 12.6544 8.14096C12.5341 8.04215 12.4346 7.92048 12.3616 7.78299C12.2887 7.6455 12.2437 7.49491 12.2292 7.33993C12.2148 7.18494 12.2312 7.02863 12.2775 6.88002C12.3238 6.73141 12.3991 6.59345 12.499 6.47412C12.599 6.35478 12.7216 6.25643 12.8598 6.18475C12.9979 6.11307 13.1489 6.06948 13.3041 6.0565C13.4592 6.04352 13.6153 6.06141 13.7635 6.10913C13.9117 6.15685 14.0489 6.23345 14.1673 6.33452C14.2562 6.40907 14.3119 6.5159 14.3221 6.6315C14.3322 6.74711 14.2961 6.86202 14.2215 6.95096C14.147 7.03989 14.0402 7.09558 13.9245 7.10575C13.8089 7.11592 13.694 7.07976 13.6051 7.00521C13.5751 6.97962 13.5403 6.96028 13.5027 6.94834C13.4652 6.93639 13.4256 6.93207 13.3863 6.93564C13.3266 6.94088 13.2697 6.96374 13.2229 7.00133C13.1761 7.03892 13.1416 7.08954 13.1236 7.14678C13.1056 7.20403 13.105 7.26532 13.1219 7.32291C13.1387 7.38049 13.1723 7.43178 13.2183 7.47027C13.2873 7.52795 13.3368 7.60546 13.3601 7.69227C13.3835 7.77908 13.3795 7.87097 13.3488 7.95544C13.318 8.03991 13.262 8.11286 13.1883 8.16437C13.1147 8.21588 13.0269 8.24345 12.937 8.24333H12.9348Z" fill="#5A7D19"/>
<path d="M19.4816 19.0628H18.7003C18.5842 19.0628 18.4729 19.0167 18.3909 18.9347C18.3088 18.8526 18.2628 18.7413 18.2628 18.6253C18.2628 18.5093 18.3088 18.398 18.3909 18.3159C18.4729 18.2339 18.5842 18.1878 18.7003 18.1878H19.3434L20.9984 17.0236C21.0453 16.9883 21.0988 16.9628 21.1557 16.9486C21.2126 16.9344 21.2718 16.9317 21.3297 16.9409C21.3876 16.95 21.4432 16.9707 21.493 17.0017C21.5428 17.0327 21.5858 17.0734 21.6195 17.1214C21.6533 17.1693 21.677 17.2236 21.6894 17.2809C21.7017 17.3383 21.7024 17.3975 21.6914 17.4551C21.6804 17.5128 21.6579 17.5676 21.6253 17.6163C21.5927 17.6651 21.5506 17.7068 21.5016 17.7389L19.7332 18.9827C19.6597 19.035 19.5718 19.063 19.4816 19.0628ZM19.5 20.8128H17.3125C17.1965 20.8128 17.0852 20.7667 17.0031 20.6847C16.9211 20.6026 16.875 20.4913 16.875 20.3753C16.875 20.2593 16.9211 20.148 17.0031 20.0659C17.0852 19.9839 17.1965 19.9378 17.3125 19.9378H19.5C19.616 19.9378 19.7273 19.9839 19.8094 20.0659C19.8914 20.148 19.9375 20.2593 19.9375 20.3753C19.9375 20.4913 19.8914 20.6026 19.8094 20.6847C19.7273 20.7667 19.616 20.8128 19.5 20.8128ZM15.125 21.6878H22.125V22.5628H15.125V21.6878Z" fill="#9BBA3A"/>
<path d="M3.3125 22.125H28.6875V23.875C28.6875 25.1514 28.1805 26.3754 27.278 27.278C26.3754 28.1805 25.1514 28.6875 23.875 28.6875H8.125C6.84865 28.6875 5.62457 28.1805 4.72205 27.278C3.81953 26.3754 3.3125 25.1514 3.3125 23.875V22.125Z" fill="#F2E4DA"/>
<path d="M23.875 27.8125H8.125C6.84865 27.8125 5.62457 27.3055 4.72205 26.403C3.81953 25.5004 3.3125 24.2764 3.3125 23V23.875C3.3125 25.1514 3.81953 26.3754 4.72205 27.278C5.62457 28.1805 6.84865 28.6875 8.125 28.6875H23.875C25.1514 28.6875 26.3754 28.1805 27.278 27.278C28.1805 26.3754 28.6875 25.1514 28.6875 23.875V23C28.6875 24.2764 28.1805 25.5004 27.278 26.403C26.3754 27.3055 25.1514 27.8125 23.875 27.8125Z" fill="#F2DBCB"/>
<path d="M9.43754 27.3754C6.16547 27.3754 5.08835 25.5213 4.76154 23.9655C4.74905 23.9091 4.74789 23.8507 4.75811 23.7938C4.76832 23.7369 4.78972 23.6825 4.82107 23.634C4.85241 23.5854 4.89307 23.5435 4.94071 23.5107C4.98835 23.4779 5.04201 23.4549 5.09859 23.443C5.15518 23.4311 5.21356 23.4305 5.27037 23.4413C5.32718 23.4521 5.38128 23.474 5.42956 23.5058C5.47783 23.5377 5.51932 23.5788 5.55162 23.6267C5.58391 23.6747 5.60638 23.7286 5.61772 23.7853C5.99616 25.5869 7.28154 26.5004 9.43754 26.5004C9.55357 26.5004 9.66485 26.5465 9.7469 26.6286C9.82894 26.7106 9.87504 26.8219 9.87504 26.9379C9.87504 27.0539 9.82894 27.1652 9.7469 27.2473C9.66485 27.3293 9.55357 27.3754 9.43754 27.3754ZM11.625 27.3754H11.1875C11.0715 27.3754 10.9602 27.3293 10.8782 27.2473C10.7961 27.1652 10.75 27.0539 10.75 26.9379C10.75 26.8219 10.7961 26.7106 10.8782 26.6286C10.9602 26.5465 11.0715 26.5004 11.1875 26.5004H11.625C11.7411 26.5004 11.8523 26.5465 11.9344 26.6286C12.0164 26.7106 12.0625 26.8219 12.0625 26.9379C12.0625 27.0539 12.0164 27.1652 11.9344 27.2473C11.8523 27.3293 11.7411 27.3754 11.625 27.3754Z" fill="#F2DBCB"/>
<path d="M23.637 12.0629C23.5274 12.0627 23.4218 12.0214 23.3412 11.9471C23.2606 11.8728 23.2109 11.7709 23.2018 11.6617C23.1927 11.5524 23.225 11.4437 23.2922 11.3571C23.3595 11.2705 23.4567 11.2123 23.5648 11.1941C24.0661 11.1084 24.5229 10.8535 24.859 10.4717C24.8962 10.4263 24.9422 10.3889 24.9943 10.3616C25.0463 10.3343 25.1033 10.3178 25.1619 10.3131C25.2204 10.3083 25.2794 10.3154 25.3351 10.3339C25.3909 10.3524 25.4423 10.382 25.4864 10.4208C25.5305 10.4597 25.5663 10.507 25.5917 10.5599C25.6171 10.6129 25.6316 10.6705 25.6343 10.7291C25.637 10.7878 25.6278 10.8465 25.6074 10.9015C25.5869 10.9566 25.5556 11.007 25.5152 11.0497C25.0461 11.5819 24.4086 11.9371 23.7092 12.0559C23.6854 12.0602 23.6612 12.0625 23.637 12.0629ZM14.7925 9.56918C14.7659 9.46305 14.7801 9.3508 14.8322 9.25458C14.8843 9.15836 14.9706 9.08516 15.074 9.0494C15.1774 9.01365 15.2904 9.01795 15.3908 9.06144C15.4912 9.10494 15.5717 9.18448 15.6163 9.28437C15.8232 9.74899 16.1831 10.1286 16.6362 10.3597C16.7393 10.4125 16.8173 10.5041 16.8531 10.6144C16.8888 10.7246 16.8793 10.8446 16.8267 10.9478C16.774 11.0511 16.6826 11.1293 16.5724 11.1652C16.4622 11.2011 16.3423 11.1918 16.2389 11.1394C15.6069 10.8165 15.1047 10.2867 14.8162 9.63831C14.8065 9.61593 14.7986 9.59282 14.7925 9.56918Z" fill="#5A7D19"/>
</svg>
