<svg width="32" height="32" viewBox="0 0 32 32" fill="none" xmlns="http://www.w3.org/2000/svg">
<rect width="32" height="32" rx="16" fill="white"/>
<g clip-path="url(#clip0_1002_10995)">
<path d="M26.0486 14.2401C26.0108 13.8892 25.8925 13.5517 25.7029 13.254L25.0871 12.2839C24.8121 11.8507 24.18 11.8507 23.9049 12.2839L23.2891 13.254C22.7098 14.1667 22.853 15.3311 23.5675 16.0784C23.7671 15.7799 24.0509 15.5511 24.3205 15.3144C24.5607 15.1034 24.7986 14.8923 25.0759 14.743C25.2401 14.4557 26.0851 14.5783 26.0486 14.2401Z" fill="#41C47D"/>
<path d="M23.5468 15.8231L23.4909 15.9119C23.4808 15.9278 23.4718 15.9443 23.4625 15.9606C23.6174 16.1468 23.8006 16.3074 24.0056 16.4365L24.065 16.4739C24.194 16.5552 24.3435 16.5984 24.496 16.5984C24.6486 16.5984 24.798 16.5552 24.9271 16.4739L24.9864 16.4365C25.7558 15.9517 26.1394 15.0869 26.0483 14.2402C25.6549 14.2879 25.2726 14.4026 24.9181 14.5796C24.757 14.66 24.6016 15.4555 24.4535 15.5615C24.3202 15.657 24.1929 15.0605 24.0728 15.1762C23.872 15.3697 23.6953 15.5869 23.5468 15.8231Z" fill="#3CB372"/>
<path d="M24.4053 15.4185L24.9185 14.5799V13.8542C24.9185 13.7421 24.874 13.6346 24.7948 13.5554C24.7155 13.4762 24.6081 13.4316 24.496 13.4316C24.3839 13.4316 24.2765 13.4762 24.1972 13.5554C24.118 13.6346 24.0735 13.7421 24.0735 13.8542V15.1762L24.4053 15.4185Z" fill="#3CB372"/>
<path d="M24.0735 16.4783C24.2006 16.5563 24.3469 16.5976 24.496 16.5976C24.6452 16.5976 24.7914 16.5563 24.9186 16.4783V14.5801C24.6083 14.7349 24.3233 14.9359 24.0735 15.1764V16.4783Z" fill="#32A563"/>
<path d="M24.5786 16.125L24.616 16.0656C25.2956 14.9872 26.7221 14.666 27.7983 15.3491L28.7685 15.965C29.2016 16.2399 29.2016 16.8721 28.7685 17.1471L27.7983 17.7629C26.7221 18.4461 25.2956 18.125 24.616 17.0464L24.5786 16.987C24.4973 16.858 24.4541 16.7086 24.4541 16.556C24.4541 16.4035 24.4973 16.2541 24.5786 16.125Z" fill="#41C47D"/>
<path d="M27.1975 16.9778H24.454C24.342 16.9778 24.2345 16.9333 24.1552 16.8541C24.076 16.7749 24.0315 16.6674 24.0315 16.5553C24.0315 16.4433 24.076 16.3358 24.1552 16.2566C24.2345 16.1773 24.342 16.1328 24.454 16.1328H27.1975C27.3095 16.1328 27.417 16.1773 27.4962 16.2566C27.5755 16.3358 27.62 16.4433 27.62 16.5553C27.62 16.6108 27.6091 16.6658 27.5878 16.717C27.5666 16.7683 27.5355 16.8149 27.4962 16.8541C27.457 16.8933 27.4104 16.9245 27.3592 16.9457C27.3079 16.9669 27.253 16.9779 27.1975 16.9778Z" fill="#3CB372"/>
<path d="M14.3972 23.7723C14.412 23.6123 14.42 23.4503 14.42 23.2865C14.42 20.3754 12.0601 18.0156 9.14913 18.0156C6.23812 18.0156 3.8783 20.3754 3.8783 23.2865C3.87838 23.4487 3.88599 23.6108 3.9011 23.7723H14.3972Z" fill="#FFDF74"/>
<path d="M6.12029 23.7724C6.09417 23.6118 6.08093 23.4493 6.08069 23.2866C6.08069 21.5946 7.45723 20.2181 9.14921 20.2181C10.8412 20.2181 12.2177 21.5946 12.2177 23.2866C12.2175 23.4493 12.2042 23.6118 12.1781 23.7724H13.0318C13.052 23.6114 13.0628 23.4492 13.0628 23.2866C13.0628 21.1286 11.3072 19.373 9.14926 19.373C6.99135 19.373 5.23572 21.1287 5.23572 23.2866C5.23572 23.4492 5.24649 23.6114 5.26673 23.7724H6.12029Z" fill="#F7CE5C"/>
<path d="M7.96155 23.7729C7.898 23.6188 7.86535 23.4537 7.86547 23.287C7.86547 22.5791 8.44132 22.0033 9.14915 22.0033C9.85697 22.0033 10.4328 22.5791 10.4328 23.287C10.4328 23.456 10.3997 23.6199 10.3367 23.7729H11.2219C11.2591 23.6136 11.2779 23.4506 11.2779 23.287C11.2779 22.1132 10.3229 21.1582 9.14909 21.1582C7.97528 21.1582 7.02032 22.1132 7.02032 23.287C7.02032 23.4525 7.03941 23.6151 7.07627 23.7729H7.96155Z" fill="#F7CE5C"/>
<path d="M21.2481 23.7723C21.2629 23.6123 21.2709 23.4503 21.2709 23.2865C21.2709 20.3754 18.911 18.0156 16 18.0156C13.089 18.0156 10.7292 20.3754 10.7292 23.2865C10.7293 23.4487 10.7369 23.6108 10.752 23.7723H21.2481Z" fill="#EFC04B"/>
<path d="M12.9711 23.7724C12.945 23.6118 12.9318 23.4493 12.9315 23.2866C12.9315 21.5946 14.3081 20.2181 16 20.2181C17.692 20.2181 19.0686 21.5946 19.0686 23.2866C19.0683 23.4493 19.0551 23.6118 19.029 23.7724H19.8826C19.9029 23.6114 19.9136 23.4492 19.9136 23.2866C19.9136 21.1286 18.158 19.373 16.0001 19.373C13.8422 19.373 12.0865 21.1287 12.0865 23.2866C12.0865 23.4492 12.0973 23.6114 12.1176 23.7724H12.9711Z" fill="#F7CE5C"/>
<path d="M14.8124 23.7729C14.7488 23.6188 14.7162 23.4537 14.7163 23.287C14.7163 22.5791 15.2922 22.0033 16 22.0033C16.7078 22.0033 17.2837 22.5791 17.2837 23.287C17.2837 23.456 17.2506 23.6199 17.1876 23.7729H18.0727C18.11 23.6136 18.1287 23.4506 18.1287 23.287C18.1287 22.1132 17.1737 21.1582 15.9999 21.1582C14.8261 21.1582 13.8712 22.1132 13.8712 23.287C13.8712 23.4525 13.8902 23.6151 13.9271 23.7729H14.8124Z" fill="#F7CE5C"/>
<path d="M28.0989 23.7723C28.1138 23.6123 28.1217 23.4503 28.1217 23.2865C28.1217 20.3754 25.7619 18.0156 22.8509 18.0156C19.9398 18.0156 17.58 20.3754 17.58 23.2865C17.5801 23.4487 17.5877 23.6108 17.6028 23.7723H28.0989Z" fill="#FFDF74"/>
<path d="M19.822 23.7724C19.7959 23.6118 19.7827 23.4493 19.7824 23.2866C19.7824 21.5946 21.159 20.2181 22.8509 20.2181C24.5429 20.2181 25.9194 21.5946 25.9194 23.2866C25.9192 23.4493 25.906 23.6118 25.8799 23.7724H26.7335C26.7537 23.6114 26.7645 23.4492 26.7645 23.2866C26.7645 21.1286 25.0089 19.373 22.851 19.373C20.6931 19.373 18.9374 21.1287 18.9374 23.2866C18.9374 23.4492 18.9482 23.6114 18.9684 23.7724H19.822Z" fill="#F7CE5C"/>
<path d="M21.6633 23.7729C21.5997 23.6188 21.5671 23.4537 21.5672 23.287C21.5672 22.5791 22.143 22.0033 22.8509 22.0033C23.5587 22.0033 24.1345 22.5791 24.1345 23.287C24.1345 23.456 24.1015 23.6199 24.0385 23.7729H24.9236C24.9608 23.6136 24.9796 23.4506 24.9796 23.287C24.9796 22.1132 24.0246 21.1582 22.8508 21.1582C21.677 21.1582 20.722 22.1132 20.722 23.287C20.722 23.4525 20.7411 23.6151 20.778 23.7729H21.6633Z" fill="#F7CE5C"/>
<path d="M25.7927 29.2185L26.5082 28.1946L7.11855 27.4375L7.02039 28.8437C7.363 29.334 8.55103 30.0009 9.14915 30.0009H24.2916C24.5863 30.0009 24.8766 29.9297 25.138 29.7935C25.3993 29.6573 25.6239 29.46 25.7927 29.2185Z" fill="#D4D4E8"/>
<path d="M27.7472 26.4199H4.25281L6.20728 29.2169C6.37608 29.4585 6.60069 29.6558 6.86204 29.792C7.12338 29.9282 7.41374 29.9993 7.70846 29.9993H9.49324C9.19852 29.9993 8.90816 29.9282 8.64682 29.792C8.38547 29.6558 8.16086 29.4585 7.99207 29.2169L7.27664 28.1931H26.5082L27.7472 26.4199Z" fill="#C6C6E0"/>
<path d="M28.0282 27.0282H5.44192C4.35293 27.0282 2.96753 26.1453 2.96753 25.0564V24.0797C2.96753 23.6236 3.32874 23.2539 3.78478 23.2539H29.1742C29.6303 23.2539 29.9999 23.6236 29.9999 24.0797V25.0564C30 26.1453 29.1172 27.0282 28.0282 27.0282Z" fill="#E9E9FF"/>
<path d="M3.78478 25.0563V23.2539H2.82578C2.36974 23.2539 2 23.6236 2 24.0797V25.0564C2 26.1453 2.88282 27.0282 3.97181 27.0282H5.75659C4.6676 27.0281 3.78478 26.1453 3.78478 25.0563Z" fill="#D4D4E8"/>
<path d="M24.425 15.6241L21.2123 14.2112C19.7556 13.5704 18.1932 13.2037 16.6035 13.1296C14.6281 13.0375 12.8141 13.7047 10.9653 14.5178L7.84529 15.995C7.33784 16.2182 7.56398 16.3431 7.56135 16.8975C7.55774 17.6647 8.49355 18.2874 9.25994 18.2874H10.5178C10.9264 18.2874 12.287 18.6187 12.287 19.0273V19.7404C12.287 20.5038 11.9316 20.8372 12.6951 20.8372L12.7103 20.8321C12.9429 20.8321 13.0919 21.0654 13.2842 20.9639C13.7233 20.7323 14.0226 20.2713 14.0226 19.7403V19.2873C14.0226 18.8786 14.3539 18.5473 14.7625 18.5473H17.9889C18.3976 18.5473 19.7405 18.8786 19.7405 19.2873V20.3098C19.7405 21.0118 19.3547 21.3577 20.0566 21.3577C20.2916 21.3577 20.4551 21.517 20.644 21.4058C21.0191 21.1848 21.2709 20.7767 21.2709 20.3098V19.0273C21.2709 18.6187 21.6021 18.2874 22.0108 18.2874H23.8977C24.6641 18.2874 25.285 17.6643 25.2814 16.897C25.2787 16.3428 24.9325 15.8474 24.425 15.6241Z" fill="#FF415B"/>
<path d="M8.0066 16.8966C8.00922 16.3422 8.3555 15.8468 8.863 15.6236L12.0756 14.2106C13.5199 13.5754 15.0681 13.2096 16.644 13.1313C14.6346 13.0311 12.6294 13.4006 10.7877 14.2106L7.57511 15.6236C7.06767 15.8468 6.72133 16.3422 6.7187 16.8966C6.7151 17.6638 7.33596 18.2869 8.10235 18.2869H9.39024C8.6238 18.2869 8.00293 17.6638 8.0066 16.8966ZM12.5455 19.7399V19.0268C12.5455 18.6182 12.2143 18.2869 11.8056 18.2869H10.5177C10.9264 18.2869 11.2577 18.6182 11.2577 19.0268V19.7399C11.2577 20.5033 11.8766 21.1223 12.6401 21.1223C12.8727 21.1223 13.0917 21.0646 13.284 20.9632C12.845 20.7316 12.5455 20.2708 12.5455 19.7399ZM20.0167 20.3094V19.2868C20.0167 18.8782 19.6855 18.5469 19.2768 18.5469H17.9889C18.3975 18.5469 18.7288 18.8782 18.7288 19.2868V20.3094C18.7288 21.0113 19.2979 21.5804 19.9998 21.5804C20.2263 21.5806 20.4487 21.5201 20.6438 21.405C20.2686 21.184 20.0167 20.7762 20.0167 20.3094Z" fill="#EF2B55"/>
<path d="M9.14914 16.193C8.34578 16.193 7.96362 15.6687 7.96362 14.8654C7.96362 14.062 8.35688 13.4837 9.16024 13.4837C9.30177 13.4837 9.4275 13.431 9.55689 13.4687C10.1618 13.645 10.6038 14.2035 10.6038 14.8654C10.6038 15.5242 10.1658 16.0808 9.56504 16.2597C9.43324 16.2989 9.29362 16.193 9.14914 16.193Z" fill="#FFF3D7"/>
<path d="M8.52604 14.8648C8.52604 14.206 8.96419 13.6497 9.56488 13.4708C9.42995 13.4306 9.28989 13.4101 9.14909 13.4102C8.34573 13.4102 7.69446 14.0614 7.69446 14.8648C7.69446 15.6681 8.34573 16.3194 9.14909 16.3194C9.29363 16.3194 9.43308 16.298 9.56488 16.2588C8.96419 16.0799 8.52604 15.5237 8.52604 14.8648Z" fill="#F7E1B5"/>
<path d="M29.4366 5.09377H23.7457C23.1648 5.09378 22.6015 4.89431 22.1501 4.52874L21.7608 4.21341C21.3094 3.84788 20.7461 3.64843 20.1653 3.64844H18.3005V8.5673H20.1653C20.7461 8.56731 21.3094 8.36786 21.7608 8.00233L22.1501 7.687C22.6016 7.32146 23.1648 7.12201 23.7457 7.12202H29.4366C29.7478 7.12202 30 6.8698 30 6.55863V5.65716C30 5.34599 29.7478 5.09377 29.4366 5.09377Z" fill="#E9E9FF"/>
<path d="M19.8993 6.50487H18.3005V7.34996H19.8993C20.0113 7.34996 20.1188 7.30545 20.198 7.22621C20.2773 7.14697 20.3218 7.0395 20.3218 6.92745C20.3218 6.87196 20.3109 6.81701 20.2896 6.76574C20.2684 6.71447 20.2373 6.66789 20.198 6.62865C20.1588 6.58941 20.1122 6.55828 20.061 6.53704C20.0097 6.51581 19.9548 6.50487 19.8993 6.50487ZM19.8993 4.86523H18.3005V5.71032H19.8993C20.0105 5.70905 20.1167 5.66398 20.195 5.58488C20.2732 5.50577 20.317 5.39902 20.317 5.28778C20.317 5.17654 20.2732 5.06978 20.195 4.99068C20.1167 4.91157 20.0105 4.8665 19.8993 4.86523Z" fill="#D4D4E8"/>
<path d="M17.7741 2.29088C17.2868 2.29088 16.8918 2.39435 16.8918 2.88156C16.8918 2.53364 16.6904 2.2328 16.3979 2.08914C16.2807 2.03161 16.1446 2.2765 16.0053 2.2765C15.518 2.2765 15.1272 2.39429 15.1272 2.88156C15.1272 2.53364 14.9259 2.2328 14.6333 2.08914C14.5161 2.03161 14.429 2.15903 14.2897 2.15903L14.2593 2.16663C13.772 2.16663 13.8385 2.39429 13.8385 2.88156L13.8131 14.441C13.8131 14.9283 13.7872 15.1723 14.2745 15.1723C14.4138 15.1723 14.5161 15.291 14.6333 15.2334C14.9258 15.0898 15.1272 14.7889 15.1272 14.441V9.12496C15.1272 9.61222 15.5231 9.75539 16.0103 9.75539C16.1496 9.75539 16.2806 9.97491 16.3978 9.91738C16.6903 9.77371 16.8917 9.47288 16.8917 9.12496C16.8917 9.61222 17.2977 9.75539 17.7849 9.75539C17.9243 9.75539 18.0452 9.97491 18.1623 9.91738C18.4549 9.77371 18.6562 9.47288 18.6562 9.12496V2.88161C18.6562 2.53369 18.4549 2.23286 18.1623 2.08919C18.0452 2.03166 17.9134 2.29088 17.7741 2.29088Z" fill="#FFDF74"/>
<path d="M14.1385 14.4417V2.88227C14.1385 2.53441 14.3404 2.23445 14.6329 2.09078C14.5123 2.03115 14.3796 2.00009 14.245 2C13.7577 2 13.3627 2.39501 13.3627 2.88227V14.4417C13.3627 14.929 13.7577 15.324 14.245 15.324C14.3844 15.324 14.5157 15.2908 14.6329 15.2333C14.3404 15.0896 14.1385 14.7895 14.1385 14.4417ZM15.9031 9.12562V2.88227C15.9031 2.53441 16.1049 2.23445 16.3975 2.09078C16.2768 2.03116 16.1441 2.0001 16.0096 2C15.5223 2 15.1273 2.39501 15.1273 2.88227V9.12567C15.1273 9.61294 15.5223 10.0079 16.0096 10.0079C16.149 10.0079 16.2803 9.97475 16.3975 9.91716C16.1049 9.7735 15.9031 9.47348 15.9031 9.12562ZM17.6676 9.12562V2.88227C17.6676 2.53441 17.8694 2.23445 18.1619 2.09078C18.0413 2.03116 17.9086 2.0001 17.774 2C17.2868 2 16.8918 2.39501 16.8918 2.88227V9.12567C16.8918 9.61294 17.2868 10.0079 17.774 10.0079C17.9134 10.0079 18.0447 9.97475 18.1619 9.91716C17.8694 9.7735 17.6676 9.47348 17.6676 9.12562Z" fill="#F7CE5C"/>
<path d="M16.8546 15.1636H16.8269C16.7047 15.1636 16.5876 15.115 16.5013 15.0287C16.4149 14.9423 16.3664 14.8252 16.3664 14.7031V14.6753C16.3664 14.5532 16.4149 14.4361 16.5013 14.3497C16.5876 14.2634 16.7047 14.2148 16.8269 14.2148H16.8546C16.9768 14.2148 17.0939 14.2634 17.1802 14.3497C17.2666 14.4361 17.3151 14.5532 17.3151 14.6753V14.7031C17.3151 14.8252 17.2666 14.9423 17.1802 15.0287C17.0939 15.115 16.9768 15.1636 16.8546 15.1636ZM18.6702 17.5151H18.6424C18.582 17.5151 18.5221 17.5032 18.4662 17.48C18.4104 17.4569 18.3596 17.423 18.3168 17.3802C18.2741 17.3374 18.2402 17.2867 18.217 17.2308C18.1939 17.1749 18.182 17.1151 18.182 17.0546V17.0268C18.182 16.9664 18.1939 16.9065 18.217 16.8506C18.2402 16.7947 18.2741 16.744 18.3168 16.7012C18.3596 16.6585 18.4104 16.6245 18.4662 16.6014C18.5221 16.5783 18.582 16.5664 18.6424 16.5664H18.6702C18.7307 16.5664 18.7906 16.5783 18.8464 16.6014C18.9023 16.6245 18.9531 16.6585 18.9958 16.7012C19.0386 16.744 19.0725 16.7947 19.0956 16.8506C19.1188 16.9065 19.1307 16.9664 19.1307 17.0268V17.0546C19.1307 17.1151 19.1188 17.1749 19.0956 17.2308C19.0725 17.2867 19.0386 17.3374 18.9958 17.3802C18.9531 17.423 18.9023 17.4569 18.8464 17.48C18.7906 17.5032 18.7307 17.5151 18.6702 17.5151ZM12.3892 17.5151H12.3614C12.2393 17.5151 12.1222 17.4666 12.0358 17.3802C11.9495 17.2938 11.9009 17.1767 11.9009 17.0546V17.0268C11.9009 16.9047 11.9495 16.7876 12.0358 16.7012C12.1222 16.6149 12.2393 16.5664 12.3614 16.5664H12.3892C12.5113 16.5664 12.6284 16.6149 12.7148 16.7012C12.8011 16.7876 12.8497 16.9047 12.8497 17.0268V17.0546C12.8497 17.1767 12.8011 17.2938 12.7148 17.3802C12.6284 17.4666 12.5113 17.5151 12.3892 17.5151ZM22.1446 17.0407H22.1168C22.0564 17.0407 21.9965 17.0288 21.9406 17.0057C21.8848 16.9825 21.834 16.9486 21.7912 16.9058C21.7485 16.8631 21.7146 16.8123 21.6914 16.7565C21.6683 16.7006 21.6564 16.6407 21.6564 16.5802V16.5525C21.6564 16.4303 21.7049 16.3132 21.7912 16.2269C21.8776 16.1405 21.9947 16.092 22.1168 16.092H22.1446C22.2667 16.092 22.3839 16.1405 22.4702 16.2269C22.5566 16.3132 22.6051 16.4303 22.6051 16.5525V16.5802C22.6051 16.6407 22.5932 16.7006 22.57 16.7565C22.5469 16.8123 22.513 16.8631 22.4702 16.9058C22.4275 16.9486 22.3767 16.9825 22.3208 17.0057C22.265 17.0288 22.2051 17.0407 22.1446 17.0407Z" fill="#EF2B55"/>
<path d="M20.0089 15.3668C19.2055 15.3668 18.8234 14.8426 18.8234 14.0392C18.8234 13.2358 19.2166 12.6575 20.02 12.6575C20.1615 12.6575 20.2872 12.6048 20.4166 12.6425C21.0215 12.8188 21.4636 13.3774 21.4636 14.0392C21.4636 14.6981 21.0255 15.2546 20.4248 15.4335C20.293 15.4728 20.1534 15.3668 20.0089 15.3668Z" fill="#FFF3D7"/>
<path d="M19.3858 14.0387C19.3858 13.3798 19.8239 12.8236 20.4246 12.6446C20.2897 12.6044 20.1496 12.584 20.0088 12.584C19.2055 12.584 18.5542 13.2353 18.5542 14.0386C18.5542 14.842 19.2055 15.4932 20.0088 15.4932C20.1534 15.4932 20.2928 15.4719 20.4246 15.4326C19.8239 15.2538 19.3858 14.6975 19.3858 14.0387Z" fill="#F7E1B5"/>
<path d="M24.5571 20.1305C23.7537 20.1305 23.3716 19.6062 23.3716 18.8029C23.3716 17.9995 23.7648 17.4212 24.5682 17.4212C24.7097 17.4212 24.8355 17.3685 24.9648 17.4062C25.5697 17.5825 26.0118 18.141 26.0118 18.8029C26.0118 19.4617 25.5737 20.0183 24.973 20.1972C24.8412 20.2364 24.7016 20.1305 24.5571 20.1305Z" fill="#FFF3D7"/>
<path d="M23.934 18.8023C23.934 18.1435 24.3722 17.5872 24.9728 17.4083C24.8379 17.3681 24.6979 17.3476 24.557 17.3477C23.7537 17.3477 23.1024 17.9989 23.1024 18.8023C23.1024 19.6056 23.7537 20.2569 24.557 20.2569C24.7016 20.2569 24.841 20.2355 24.9728 20.1963C24.3722 20.0174 23.934 19.4612 23.934 18.8023Z" fill="#F7E1B5"/>
</g>
<defs>
<clipPath id="clip0_1002_10995">
<rect width="28" height="28" fill="white" transform="translate(2 2)"/>
</clipPath>
</defs>
</svg>
