<svg width="32" height="32" viewBox="0 0 32 32" fill="none" xmlns="http://www.w3.org/2000/svg">
<rect width="32" height="32" rx="16" fill="white"/>
<path d="M10.7673 6.45133C9.60232 6.45133 8.62839 7.26661 8.38317 8.35757C8.00731 8.17284 7.5773 8.08135 7.12306 8.11465C5.94788 8.20079 4.98992 9.13387 4.87447 10.3065C4.8374 10.6834 4.88689 11.0444 5.00414 11.3732C3.8452 11.5647 2.96112 12.571 2.96112 13.7842C2.96112 14.1074 3.02478 14.4154 3.1388 14.6977L4.99779 15.1899L6.78947 14.6977L13.1907 8.58048C13.036 7.37949 12.0104 6.45133 10.7673 6.45133ZM14.6039 10.8774L17.1554 14.6977L18.9217 15.1899H26.92L28.2116 14.6977C28.2315 14.5722 28.2419 14.4435 28.2419 14.3124C28.2419 13.6347 27.966 13.0214 27.5204 12.5787C28.1557 12.1373 28.5719 11.4026 28.5719 10.5705C28.5719 9.35245 27.6809 8.34286 26.5152 8.15709C26.5497 7.99192 26.5671 7.82363 26.5671 7.65489C26.5671 6.30493 25.4727 5.21058 24.1228 5.21058C23.5013 5.21058 22.9343 5.44295 22.503 5.82505C22.1148 4.9886 21.268 4.4082 20.2852 4.4082C18.9671 4.4082 17.8933 5.45153 17.8432 6.75725C17.5874 6.66914 17.3187 6.6242 17.0481 6.62425C15.6982 6.62425 14.6039 7.71861 14.6039 9.06851C14.6039 9.13649 14.6067 9.2323 14.6121 9.35272L14.6039 10.8774Z" fill="#87BE68"/>
<path d="M8.58168 12.2415L14.1654 14.579L15.7793 11.3867L15.7794 11.3867C15.4558 9.71106 13.982 8.44531 12.2119 8.44531C10.2047 8.44531 8.57758 10.0724 8.57758 12.0796C8.57763 12.1339 8.57933 12.1877 8.58168 12.2415Z" fill="#FFE077"/>
<path d="M3.13879 14.6973C3.30075 15.098 3.56577 15.4488 3.90699 15.7142L5.36797 16.2064L6.70524 15.7142L7.23845 15.2187L6.78946 14.6973H3.13879ZM28.2116 14.6973H17.1554L15.6822 15.7142L17.7631 16.2064H26.7777L27.7992 15.7142C28.0123 15.411 28.1533 15.0632 28.2116 14.6973Z" fill="#83A984"/>
<path d="M23.924 14.6977L24.8608 15.1898L25.6775 14.6977C25.2189 12.7722 23.4887 11.3398 21.4229 11.3398C19.3571 11.3398 17.6268 12.7722 17.1683 14.6977L18.109 15.1898L18.9218 14.6977C19.3235 13.7107 20.2916 13.0147 21.4229 13.0147C22.5542 13.0147 23.5224 13.7107 23.924 14.6977Z" fill="#EEF5FF"/>
<path d="M17.1683 14.6973C17.0887 15.0304 17.0484 15.3717 17.0482 15.7142L17.985 16.2064L18.7231 15.7142C18.7228 15.3655 18.7903 15.0202 18.9218 14.6973H17.1683ZM24.1229 15.7142L25.0276 16.2064L25.7977 15.7142C25.7977 15.3639 25.7554 15.0238 25.6776 14.6973H23.9241C24.0556 15.0202 24.1231 15.3655 24.1229 15.7142Z" fill="#DFE9FB"/>
<path d="M15.6799 15.1905H15.6821C16.5495 15.1905 17.2592 14.6983 17.2592 13.1213V12.9618C17.2592 12.0944 16.5495 11.3848 15.6821 11.3848H15.6799C14.8125 11.3848 14.1028 12.0944 14.1028 12.9618V13.1215C14.1028 14.5786 14.8126 15.1905 15.6799 15.1905Z" fill="#6FD6A2"/>
<path d="M15.6798 15.7142L14.2067 14.6976L14.1927 14.6973L13.7903 15.2135L14.2773 15.7142L14.8532 16.2064L15.6798 15.7142Z" fill="#9AE59C"/>
<path d="M14.1927 14.6986C13.8181 12.9987 12.3037 11.7266 10.4913 11.7266C8.67893 11.7266 7.16447 12.9987 6.78986 14.6986L10.4805 15.1907L14.1927 14.6986Z" fill="#FF7E92"/>
<path d="M6.70013 15.5165C6.70013 15.5828 6.70188 15.6487 6.70528 15.7142L10.4806 16.2064L14.2774 15.7142C14.295 15.3729 14.2666 15.0309 14.1928 14.6973H6.78988C6.73035 14.9663 6.70026 15.241 6.70013 15.5165Z" fill="#FF5F7A"/>
<path d="M6.99033 25.4858L10.056 25.9784H22.3287L25.0097 25.4858C29.3556 21.9362 29.9249 17.2109 29.9995 16.0046C30.0092 15.8474 29.8838 15.7148 29.7263 15.7148H2.2737C2.11614 15.7148 1.9908 15.8474 2.00053 16.0046C2.07507 17.2109 2.64442 21.9362 6.99033 25.4858Z" fill="#B2E5FB"/>
<path d="M6.99036 25.4863C7.24795 25.6967 7.51267 25.8982 7.78404 26.0905C8.16444 26.3601 8.62021 26.5032 9.08648 26.5032H22.9136C23.3798 26.5032 23.8356 26.3601 24.216 26.0905C24.4874 25.8982 24.7521 25.6967 25.0097 25.4863H6.99036Z" fill="#9EC8FC"/>
<path d="M15.6821 14.6982H15.6799C14.8125 14.6982 14.1028 13.9885 14.1028 13.1211V14.138C14.1028 15.0054 14.8125 15.7151 15.6799 15.7151H15.6821C16.5495 15.7151 17.2592 15.0054 17.2592 14.138V13.1211C17.2592 13.9885 16.5495 14.6982 15.6821 14.6982Z" fill="#69C494"/>
<path d="M10.4805 12.834C10.3679 12.834 10.2599 12.8787 10.1803 12.9583C10.1007 13.0379 10.056 13.1459 10.056 13.2585V13.873C10.056 13.9856 10.1007 14.0936 10.1803 14.1732C10.2599 14.2528 10.3679 14.2975 10.4805 14.2975C10.5931 14.2975 10.7011 14.2528 10.7807 14.1732C10.8603 14.0936 10.9051 13.9856 10.9051 13.873V13.2585C10.9051 13.2028 10.8941 13.1476 10.8727 13.0961C10.8514 13.0446 10.8201 12.9978 10.7807 12.9583C10.7413 12.9189 10.6945 12.8876 10.643 12.8663C10.5915 12.845 10.5363 12.834 10.4805 12.834ZM9.04491 13.6561C8.96493 13.5782 8.85749 13.535 8.74585 13.5357C8.63422 13.5365 8.52736 13.5811 8.44843 13.6601C8.3695 13.739 8.32483 13.8459 8.32411 13.9575C8.32338 14.0692 8.36665 14.1766 8.44455 14.2566L8.76207 14.574C8.84498 14.6569 8.95358 14.6983 9.06225 14.6983C9.17091 14.6983 9.27958 14.6569 9.36248 14.574C9.44208 14.4943 9.4868 14.3864 9.4868 14.2738C9.4868 14.1612 9.44208 14.0532 9.36248 13.9736L9.04491 13.6561ZM11.9162 13.6561L11.5987 13.9736C11.5394 14.033 11.499 14.1086 11.4826 14.1909C11.4663 14.2733 11.4747 14.3586 11.5068 14.4362C11.5389 14.5137 11.5933 14.58 11.6631 14.6267C11.7329 14.6734 11.8149 14.6983 11.8989 14.6983C11.9546 14.6984 12.0099 14.6875 12.0614 14.6661C12.1129 14.6448 12.1597 14.6135 12.1991 14.574L12.5166 14.2566C12.5938 14.1765 12.6365 14.0692 12.6355 13.958C12.6345 13.8467 12.5898 13.7403 12.5111 13.6616C12.4325 13.5829 12.326 13.5383 12.2148 13.5372C12.1035 13.5362 11.9963 13.5789 11.9162 13.6561Z" fill="#FFE077"/>
<rect x="3.28838" y="6.46484" width="4.29619" height="31.6577" rx="2.14809" transform="rotate(-45 3.28838 6.46484)" fill="#83A984" stroke="white"/>
</svg>
