<svg width="32" height="32" viewBox="0 0 32 32" fill="none" xmlns="http://www.w3.org/2000/svg">
<rect width="32" height="32" rx="16" fill="white"/>
<g clip-path="url(#clip0_1002_11065)">
<path d="M16 26C21.5228 26 26 21.5228 26 16C26 10.4772 21.5228 6 16 6C10.4772 6 6 10.4772 6 16C6 21.5228 10.4772 26 16 26Z" fill="#D67B42"/>
<path d="M16 6C15.7973 6 15.5961 6.00676 15.3964 6.01867C20.6381 6.33082 24.7928 10.6799 24.7928 16C24.7928 21.3201 20.6381 25.6692 15.3964 25.9813C15.5974 25.9935 15.7987 25.9998 16 26C21.5228 26 26 21.5229 26 16C26 10.4771 21.5228 6 16 6Z" fill="#BE652B"/>
<path d="M16 24.7926C13.6514 24.7926 11.4433 23.878 9.78257 22.2172C8.12182 20.5565 7.20721 18.3484 7.20721 15.9998C7.20721 13.6512 8.12182 11.4431 9.78257 9.78238C11.4433 8.12164 13.6514 7.20703 16 7.20703C18.3486 7.20703 20.5567 8.12164 22.2174 9.78238C23.8782 11.4431 24.7928 13.6512 24.7928 15.9998C24.7928 18.3484 23.8782 20.5565 22.2174 22.2172C20.5567 23.878 18.3486 24.7926 16 24.7926Z" fill="#A75224"/>
<path d="M23.0698 18.1174C24.0328 18.0178 24.2501 16.6338 23.3204 16.2679C23.3014 16.2604 23.286 16.246 23.2773 16.2275C23.2687 16.2091 23.2673 16.1881 23.2736 16.1687C23.359 15.8955 23.2841 15.5938 23.0724 15.3933C23.0325 15.3555 23.04 15.2899 23.0886 15.2645C23.8945 14.8426 23.6483 13.6 22.7558 13.4996C22.6995 13.4932 22.6676 13.4319 22.6949 13.3824C23.0775 12.6893 22.6715 11.8078 21.894 11.6488C21.8413 11.638 21.8149 11.578 21.8418 11.5316C22.2758 10.7846 21.4283 9.91546 20.6729 10.316C20.6613 10.3222 20.6484 10.3254 20.6353 10.3254C20.6222 10.3254 20.6093 10.3222 20.5977 10.316C20.5861 10.3098 20.5763 10.3009 20.569 10.2899C20.5617 10.279 20.5572 10.2665 20.5559 10.2534C20.4969 9.68136 19.9007 9.31858 19.3665 9.52566C19.313 9.5464 19.2567 9.50671 19.2574 9.44929C19.2653 8.69671 18.3448 8.28386 17.7896 8.79144C17.7454 8.83183 17.6752 8.80901 17.6593 8.75128C17.4342 7.93097 16.2678 7.83175 15.9055 8.5996C15.8805 8.65249 15.8093 8.66409 15.7722 8.61882C15.4783 8.26011 14.9202 8.24983 14.6141 8.60663C14.6069 8.61525 14.598 8.62227 14.5879 8.62726C14.5778 8.63225 14.5669 8.63509 14.5556 8.63561C14.5444 8.63612 14.5332 8.63431 14.5227 8.63027C14.5122 8.62623 14.5027 8.62005 14.4947 8.61214C13.915 8.04214 12.9296 8.52546 13.0056 9.31976C13.0068 9.33256 13.005 9.3455 13.0002 9.35745C12.9954 9.3694 12.9878 9.38001 12.9781 9.38838C12.9683 9.39676 12.9566 9.40264 12.9441 9.40553C12.9315 9.40842 12.9185 9.40824 12.906 9.40499C12.3191 9.25601 11.7728 9.74562 11.8145 10.32C11.8196 10.3892 11.7391 10.4294 11.6848 10.3865C11.0115 9.85413 9.96274 10.6362 10.3479 11.4523C10.3747 11.509 10.329 11.574 10.2668 11.5657C9.69864 11.4895 9.2352 12.085 9.48106 12.6259C9.48553 12.6358 9.48788 12.6466 9.48796 12.6575C9.48804 12.6684 9.48585 12.6793 9.48153 12.6893C9.47721 12.6993 9.47086 12.7083 9.46287 12.7157C9.45488 12.7232 9.44543 12.7289 9.43513 12.7325C9.01087 12.8766 8.80415 13.3646 8.9938 13.7685C9.01751 13.819 8.98575 13.8774 8.93024 13.8832C7.9672 13.9828 7.74993 15.3667 8.67966 15.7326C8.69859 15.7401 8.71397 15.7546 8.72266 15.773C8.73135 15.7914 8.73271 15.8124 8.72645 15.8318C8.64102 16.105 8.71587 16.4067 8.92755 16.6072C8.96763 16.6451 8.95954 16.7108 8.91059 16.7363C8.05778 17.1812 8.41259 18.5084 9.34044 18.5102C9.40544 18.5103 9.44239 18.5872 9.40212 18.6382C8.89852 19.2762 9.27841 20.25 10.0875 20.3766C10.1001 20.3785 10.112 20.3834 10.1223 20.3909C10.1326 20.3985 10.1409 20.4083 10.1465 20.4197C10.1522 20.4311 10.155 20.4437 10.1548 20.4564C10.1546 20.4691 10.1514 20.4816 10.1454 20.4928C9.74231 21.2392 10.5815 22.0797 11.327 21.6846C11.3386 21.6784 11.3515 21.6752 11.3647 21.6752C11.3778 21.6752 11.3907 21.6784 11.4023 21.6846C11.4139 21.6908 11.4237 21.6997 11.431 21.7106C11.4383 21.7216 11.4428 21.7341 11.4441 21.7472C11.5031 22.3192 12.0993 22.6821 12.6335 22.475C12.687 22.4542 12.7433 22.4939 12.7427 22.5513C12.7347 23.3039 13.6553 23.7166 14.2104 23.2091C14.2546 23.1687 14.3249 23.1916 14.3407 23.2493C14.5658 24.0696 15.7324 24.1688 16.0946 23.4009C16.1195 23.3479 16.1907 23.3364 16.2278 23.3816C16.5205 23.7381 17.0783 23.7532 17.3859 23.3939C17.3932 23.3853 17.4021 23.3783 17.4121 23.3733C17.4222 23.3683 17.4332 23.3654 17.4444 23.3649C17.4556 23.3644 17.4668 23.3662 17.4773 23.3703C17.4878 23.3743 17.4973 23.3805 17.5053 23.3884C18.0847 23.958 19.0706 23.4757 18.9945 22.6808C18.9932 22.668 18.995 22.655 18.9998 22.6431C19.0046 22.6311 19.0122 22.6205 19.022 22.6121C19.0317 22.6038 19.0434 22.5979 19.0559 22.595C19.0685 22.5921 19.0815 22.5923 19.094 22.5955C19.6809 22.7445 20.2272 22.2549 20.1854 21.6805C20.1804 21.6113 20.2608 21.571 20.3152 21.6141C20.9885 22.1464 22.0372 21.3644 21.652 20.5482C21.6252 20.4915 21.671 20.4265 21.7332 20.4348C22.3013 20.511 22.7648 19.9156 22.5189 19.3746C22.5144 19.3646 22.5121 19.3539 22.512 19.343C22.5119 19.3321 22.5141 19.3212 22.5184 19.3112C22.5228 19.3012 22.5291 19.2922 22.5371 19.2848C22.5451 19.2773 22.5545 19.2717 22.5649 19.2681C22.9891 19.1239 23.1958 18.6359 23.0062 18.232C22.9825 18.1815 23.0143 18.1231 23.0698 18.1174Z" fill="#FFF0BD"/>
<path d="M16.452 8.7507C16.4679 8.80844 16.5382 8.83125 16.5823 8.79086C16.8984 8.50184 17.3328 8.51152 17.647 8.71215C17.439 8.06199 16.6245 7.89328 16.1486 8.28508C16.2881 8.39699 16.3977 8.55262 16.452 8.7507Z" fill="#FFAE08"/>
<path d="M23.0697 18.1164C24.0328 18.0169 24.25 16.6328 23.3203 16.2669C23.3014 16.2595 23.286 16.245 23.2773 16.2266C23.2686 16.2082 23.2672 16.1872 23.2735 16.1678C23.3589 15.8946 23.284 15.5928 23.0723 15.3923C23.0324 15.3546 23.0399 15.289 23.0885 15.2636C23.8945 14.8416 23.6482 13.5991 22.7557 13.4986C22.6995 13.4923 22.6675 13.431 22.6949 13.3814C23.0774 12.6884 22.6714 11.8068 21.8939 11.6478C21.8412 11.6371 21.8148 11.5771 21.8417 11.5306C22.2757 10.7837 21.4282 9.91449 20.6728 10.315C20.6613 10.3212 20.6483 10.3245 20.6352 10.3245C20.6221 10.3245 20.6092 10.3212 20.5976 10.3151C20.586 10.3089 20.5762 10.2999 20.5689 10.289C20.5616 10.2781 20.5571 10.2655 20.5559 10.2525C20.4968 9.68039 19.9006 9.31761 19.3665 9.52468C19.3129 9.54543 19.2567 9.50574 19.2573 9.44832C19.2653 8.69574 18.3447 8.28285 17.7895 8.79046C17.7829 8.79656 17.7755 8.80078 17.7679 8.8041C17.9397 8.95953 18.0529 9.18257 18.0501 9.44828C18.0494 9.5057 18.1057 9.54539 18.1592 9.52464C18.6934 9.31757 19.2896 9.68035 19.3487 10.2524C19.3499 10.2655 19.3544 10.278 19.3617 10.289C19.3689 10.2999 19.3788 10.3088 19.3904 10.315C19.4019 10.3212 19.4149 10.3244 19.428 10.3244C19.4411 10.3244 19.454 10.3212 19.4656 10.315C20.221 9.91445 21.0685 10.7836 20.6345 11.5306C20.6075 11.577 20.634 11.637 20.6867 11.6478C21.4641 11.8068 21.8702 12.6883 21.4876 13.3814C21.4603 13.4309 21.4922 13.4923 21.5485 13.4986C22.441 13.599 22.6872 14.8416 21.8813 15.2635C21.8327 15.2889 21.8252 15.3546 21.8651 15.3923C22.0768 15.5928 22.1517 15.8945 22.0663 16.1677C22.06 16.1871 22.0614 16.2082 22.0701 16.2266C22.0788 16.245 22.0941 16.2594 22.1131 16.2669C23.0428 16.6328 22.8255 18.0168 21.8625 18.1164C21.807 18.1221 21.7753 18.1806 21.799 18.2311C21.9886 18.6349 21.7819 19.123 21.3576 19.2671C21.3473 19.2707 21.3379 19.2764 21.3299 19.2839C21.3219 19.2913 21.3155 19.3003 21.3112 19.3103C21.3069 19.3203 21.3047 19.3311 21.3048 19.342C21.3049 19.3529 21.3072 19.3637 21.3117 19.3737C21.5576 19.9146 21.094 20.5101 20.526 20.4339C20.4637 20.4255 20.418 20.4905 20.4448 20.5473C20.83 21.3634 19.7812 22.1454 19.1079 21.6131C19.0536 21.5701 18.9731 21.6104 18.9782 21.6795C19.0199 22.254 18.4737 22.7436 17.8867 22.5946C17.8743 22.5913 17.8612 22.5911 17.8487 22.594C17.8361 22.5969 17.8245 22.6028 17.8147 22.6112C17.8049 22.6196 17.7973 22.6302 17.7925 22.6421C17.7877 22.6541 17.7859 22.667 17.7872 22.6798C17.8153 22.9726 17.6989 23.2227 17.5122 23.3937C18.0925 23.953 19.0703 23.4716 18.9945 22.6798C18.9932 22.667 18.995 22.6541 18.9998 22.6421C19.0046 22.6302 19.0122 22.6196 19.022 22.6112C19.0317 22.6028 19.0434 22.5969 19.0559 22.594C19.0685 22.5911 19.0815 22.5913 19.094 22.5946C19.6809 22.7436 20.2272 22.254 20.1854 21.6795C20.1804 21.6104 20.2608 21.5701 20.3152 21.6131C20.9885 22.1455 22.0372 21.3634 21.6521 20.5473C21.6253 20.4905 21.671 20.4255 21.7332 20.4339C22.3013 20.5101 22.7648 19.9146 22.5189 19.3737C22.4999 19.3319 22.5214 19.2819 22.5649 19.2671C22.9891 19.123 23.1958 18.6349 23.0062 18.2311C22.9825 18.1806 23.0142 18.1222 23.0697 18.1164Z" fill="#FFC808"/>
<path d="M14.5151 13.9181L12.7822 14.3634C12.7019 14.384 12.6167 14.3719 12.5453 14.3297C12.4739 14.2875 12.4222 14.2187 12.4016 14.1384L12.1166 13.0291C12.096 12.9487 12.1081 12.8635 12.1503 12.7921C12.1925 12.7208 12.2613 12.6691 12.3416 12.6484L14.0745 12.2032C14.1548 12.1826 14.24 12.1947 14.3114 12.2369C14.3828 12.2791 14.4345 12.3479 14.4551 12.4282L14.7401 13.5375C14.7504 13.5773 14.7527 13.6187 14.7469 13.6593C14.7411 13.7 14.7274 13.7391 14.7065 13.7744C14.6856 13.8098 14.6579 13.8407 14.6251 13.8653C14.5923 13.89 14.5549 13.9079 14.5151 13.9181Z" fill="#45D987"/>
<path d="M14.0746 12.2032L12.9053 12.5036C12.9856 12.483 13.0709 12.4951 13.1422 12.5373C13.2136 12.5795 13.2653 12.6483 13.286 12.7286L13.571 13.8379C13.5916 13.9182 13.5795 14.0035 13.5373 14.0748C13.4951 14.1462 13.4263 14.1979 13.346 14.2185L14.5152 13.9181C14.5955 13.8975 14.6643 13.8458 14.7065 13.7744C14.7487 13.703 14.7609 13.6178 14.7402 13.5375L14.4552 12.4282C14.4346 12.3479 14.3829 12.2791 14.3115 12.2369C14.2401 12.1947 14.1549 12.1826 14.0746 12.2032Z" fill="#1EB073"/>
<path d="M20.149 14.5607L18.4161 15.0059C18.3358 15.0266 18.2505 15.0145 18.1792 14.9723C18.1078 14.9301 18.0561 14.8612 18.0354 14.7809L17.7504 13.6716C17.7298 13.5913 17.7419 13.5061 17.7841 13.4347C17.8263 13.3633 17.8951 13.3116 17.9754 13.291L19.7084 12.8458C19.7887 12.8251 19.8739 12.8373 19.9453 12.8794C20.0167 12.9216 20.0684 12.9905 20.089 13.0708L20.374 14.1801C20.3946 14.2604 20.3825 14.3456 20.3403 14.417C20.2981 14.4884 20.2293 14.5401 20.149 14.5607Z" fill="#45D987"/>
<path d="M19.7084 12.8458L18.5391 13.1462C18.6194 13.1256 18.7047 13.1377 18.776 13.1799C18.8474 13.2221 18.8991 13.2909 18.9197 13.3712L19.2047 14.4805C19.2254 14.5608 19.2133 14.646 19.1711 14.7174C19.1289 14.7888 19.0601 14.8405 18.9797 14.8611L20.149 14.5607C20.2293 14.5401 20.2981 14.4884 20.3403 14.417C20.3825 14.3456 20.3946 14.2604 20.374 14.1801L20.089 13.0708C20.0684 12.9905 20.0167 12.9216 19.9453 12.8794C19.8739 12.8373 19.7887 12.8251 19.7084 12.8458Z" fill="#1EB073"/>
<path d="M15.203 20.2377L13.5505 19.5518C13.5126 19.5361 13.4782 19.513 13.4491 19.484C13.4201 19.4549 13.3971 19.4205 13.3814 19.3825C13.3658 19.3446 13.3577 19.3039 13.3577 19.2629C13.3578 19.2218 13.3659 19.1812 13.3816 19.1432L13.8207 18.0854C13.8364 18.0475 13.8595 18.013 13.8885 17.984C13.9176 17.955 13.9521 17.932 13.99 17.9163C14.0279 17.9006 14.0686 17.8925 14.1097 17.8926C14.1507 17.8926 14.1914 17.9007 14.2293 17.9165L15.8818 18.6023C15.9197 18.6181 15.9542 18.6411 15.9832 18.6702C16.0122 18.6992 16.0352 18.7337 16.0509 18.7716C16.0666 18.8096 16.0746 18.8502 16.0746 18.8913C16.0746 18.9324 16.0664 18.973 16.0507 19.0109L15.6116 20.0688C15.5798 20.1454 15.5189 20.2062 15.4423 20.2378C15.3657 20.2695 15.2796 20.2695 15.203 20.2377Z" fill="#45D987"/>
<path d="M15.8817 18.6034L14.7667 18.1406C14.8046 18.1564 14.8391 18.1794 14.8681 18.2085C14.8971 18.2375 14.9201 18.272 14.9358 18.3099C14.9515 18.3479 14.9595 18.3885 14.9595 18.4296C14.9595 18.4707 14.9513 18.5113 14.9356 18.5492L14.4965 19.6071C14.4808 19.645 14.4578 19.6794 14.4287 19.7085C14.3997 19.7375 14.3652 19.7605 14.3272 19.7762C14.2893 19.7919 14.2486 19.7999 14.2076 19.7999C14.1665 19.7998 14.1259 19.7917 14.088 19.776L15.203 20.2388C15.2409 20.2545 15.2816 20.2626 15.3226 20.2626C15.3637 20.2627 15.4043 20.2546 15.4423 20.2389C15.4802 20.2233 15.5147 20.2002 15.5438 20.1712C15.5728 20.1422 15.5959 20.1078 15.6116 20.0698L16.0506 19.012C16.0664 18.9741 16.0745 18.9334 16.0745 18.8924C16.0746 18.8513 16.0665 18.8107 16.0508 18.7727C16.0351 18.7348 16.0121 18.7003 15.9831 18.6712C15.9541 18.6422 15.9197 18.6191 15.8817 18.6034Z" fill="#1EB073"/>
<path d="M15.7033 12.4113L15.4983 11.5301C15.4313 11.2423 15.7046 10.9919 15.9855 11.0838L16.8769 11.3754C17.1577 11.4672 17.2302 11.8308 17.006 12.0233L16.3197 12.6129C16.1038 12.7986 15.7679 12.6887 15.7033 12.4113ZM11.6727 15.9813L12.5483 16.2093C12.8342 16.2837 12.929 16.6421 12.7171 16.8481L12.0446 17.5018C11.8328 17.7078 11.4772 17.6031 11.4108 17.3151L11.2077 16.4334C11.1438 16.1559 11.3971 15.9096 11.6727 15.9813ZM16.5335 15.6189L16.184 16.4534C16.0698 16.726 15.7016 16.769 15.5277 16.5301L14.9757 15.7719C14.8018 15.5331 14.9558 15.1959 15.2503 15.1709L16.1518 15.0946C16.4356 15.0706 16.6436 15.3562 16.5335 15.6189ZM19.2837 18.3181L18.3797 18.3551C18.0844 18.3672 17.8894 18.0519 18.0321 17.7931L18.485 16.9719C18.6277 16.7131 18.9983 16.7098 19.1457 16.9659L19.5969 17.7502C19.7388 17.997 19.5682 18.3065 19.2837 18.3181Z" fill="#F75632"/>
</g>
<defs>
<clipPath id="clip0_1002_11065">
<rect width="20" height="20" fill="white" transform="translate(6 6)"/>
</clipPath>
</defs>
</svg>
