<svg width="32" height="32" viewBox="0 0 32 32" fill="none" xmlns="http://www.w3.org/2000/svg">
<rect width="32" height="32" rx="16" fill="white"/>
<g clip-path="url(#clip0_1002_10809)">
<path d="M17.2688 6.00025C17.077 5.99295 16.9171 6.14568 16.9171 6.3376V14.6084C16.9171 14.8704 17.1296 15.0829 17.3916 15.0829H25.6624C25.8543 15.0829 26.007 14.923 25.9998 14.7312C25.8194 9.99099 22.009 6.1806 17.2688 6.00025Z" fill="#FFC365"/>
<path d="M18.3806 14.6084V6.3376C18.3806 6.25631 18.4095 6.1822 18.4571 6.12416C18.0641 6.05692 17.6672 6.01553 17.2688 6.00025C17.077 5.99295 16.9171 6.14568 16.9171 6.3376V14.6084C16.9171 14.8704 17.1296 15.0829 17.3916 15.0829H18.8551C18.593 15.0829 18.3806 14.8705 18.3806 14.6084Z" fill="#FFB640"/>
<path d="M23.8348 16.911H15.5639C15.3018 16.911 15.0893 16.6985 15.0893 16.4365V8.16557C15.0893 7.97326 14.9289 7.82104 14.7367 7.82838C9.88023 8.01365 6 12.0092 6 16.911C6 21.9457 10.0546 26.0003 15.0894 26.0003C19.9915 26.0003 23.9873 22.1196 24.172 17.2626C24.1793 17.0708 24.0266 16.911 23.8348 16.911Z" fill="#FFC365"/>
<path d="M8.9616 16.911C8.96164 12.928 11.5235 9.54338 15.0893 8.31506V8.16557C15.0893 7.97326 14.9289 7.82104 14.7367 7.82838C9.88023 8.01365 6.00004 12.0092 6 16.911C5.99996 21.9457 10.0546 26.0003 15.0894 26.0003C15.5844 26.0003 16.0786 25.9601 16.5672 25.8801C12.243 25.1755 8.96156 21.4401 8.9616 16.911Z" fill="#FFB640"/>
<path d="M16.9171 7.4375V14.6084C16.9171 14.8705 17.1296 15.083 17.3916 15.083H24.5626C24.5626 10.8605 21.1396 7.4375 16.9171 7.4375Z" fill="#FF9838"/>
<path d="M18.8549 15.083C18.5929 15.0829 18.3806 14.8705 18.3806 14.6085V7.57801C17.8984 7.4845 17.4083 7.43745 16.9171 7.4375V14.6085C16.9171 14.7068 16.947 14.798 16.9982 14.8738C17.0416 14.9382 17.1002 14.991 17.1688 15.0275C17.2374 15.064 17.3139 15.0831 17.3916 15.083H18.8549Z" fill="#FF8706"/>
<path d="M15.5639 16.9111C15.3018 16.9111 15.0894 16.6987 15.0894 16.4366V9.26562C10.8669 9.26562 7.44389 12.6886 7.44385 16.9111C7.44385 21.1461 10.8544 24.5566 15.0894 24.5566C19.3118 24.5566 22.7348 21.1336 22.7348 16.9111L15.5639 16.9111Z" fill="#FF9838"/>
<path d="M12.4941 9.7168C9.54912 10.7795 7.44385 13.5988 7.44385 16.9102C7.44385 20.2286 9.53814 23.0407 12.4821 24.1025C10.3379 22.4427 8.96158 19.8431 8.96158 16.9102C8.96158 13.9831 10.3453 11.3792 12.4941 9.7168Z" fill="#FF8706"/>
<path d="M15.5952 21.6945C15.5371 21.6816 15.4764 21.6898 15.4239 21.7178C15.3714 21.7458 15.3307 21.7916 15.3091 21.847C15.1978 22.1312 15.2066 22.4605 15.3614 22.7511C15.5163 23.0416 15.7848 23.2325 16.0828 23.2984C16.1408 23.3114 16.2016 23.3031 16.2541 23.2752C16.3065 23.2472 16.3472 23.2014 16.3688 23.146C16.4802 22.8618 16.4714 22.5325 16.3165 22.2419C16.1617 21.9514 15.8932 21.7605 15.5952 21.6945ZM20.9024 13.2277C20.8531 13.2609 20.8174 13.3108 20.8017 13.3681C20.786 13.4254 20.7914 13.4865 20.8168 13.5402C20.947 13.8164 21.1924 14.0361 21.51 14.123C21.8275 14.2099 22.1506 14.1458 22.4032 13.9745C22.4525 13.9412 22.4882 13.8913 22.5039 13.834C22.5196 13.7767 22.5142 13.7156 22.4888 13.6619C22.3586 13.3857 22.1132 13.166 21.7957 13.0791C21.4781 12.9922 21.155 13.0563 20.9024 13.2277ZM12.4731 10.8864C12.4238 10.9197 12.3881 10.9695 12.3724 11.0268C12.3567 11.0842 12.3621 11.1453 12.3875 11.199C12.5177 11.4751 12.7631 11.6948 13.0807 11.7818C13.3982 11.8687 13.7213 11.8046 13.9739 11.6332C14.0232 11.5999 14.0589 11.5501 14.0746 11.4928C14.0903 11.4354 14.0849 11.3744 14.0595 11.3206C13.9293 11.0445 13.6839 10.8248 13.3664 10.7378C13.0488 10.6509 12.7257 10.715 12.4731 10.8864ZM10.072 16.7366C10.0581 16.6788 10.0239 16.6279 9.9757 16.5931C9.92747 16.5583 9.86838 16.542 9.80914 16.547C9.50492 16.5723 9.2132 16.7253 9.02062 16.9923C8.82805 17.2593 8.775 17.5845 8.84711 17.8811C8.86104 17.9389 8.89522 17.9898 8.94344 18.0246C8.99167 18.0593 9.05076 18.0757 9.11 18.0707C9.41422 18.0454 9.70594 17.8924 9.89851 17.6253C10.0911 17.3583 10.1441 17.0332 10.072 16.7366Z" fill="#A2E82D"/>
<path d="M16.0137 21.8873C15.8896 21.7938 15.7469 21.7281 15.5952 21.6945C15.5371 21.6815 15.4764 21.6898 15.4239 21.7178C15.3715 21.7457 15.3308 21.7916 15.3092 21.847C15.0665 22.4664 15.4334 23.1546 16.0828 23.2984C16.1409 23.3114 16.2016 23.3031 16.2541 23.2751C16.3065 23.2472 16.3473 23.2013 16.3688 23.1459C16.3741 23.1326 16.3788 23.1191 16.3835 23.1056C16.0172 22.8297 15.8561 22.3414 16.0137 21.8873ZM21.536 13.5402C21.5106 13.4865 21.5052 13.4254 21.5209 13.3681C21.5366 13.3107 21.5723 13.2609 21.6215 13.2276C21.6985 13.1755 21.7818 13.1334 21.8695 13.1025C21.8452 13.0938 21.8205 13.086 21.7957 13.0791C21.4781 12.9922 21.155 13.0563 20.9024 13.2276C20.8531 13.2609 20.8174 13.3107 20.8017 13.3681C20.786 13.4254 20.7914 13.4865 20.8169 13.5402C21.0562 14.048 21.6372 14.283 22.1553 14.0996C21.8736 14.0007 21.6558 13.7945 21.536 13.5402ZM13.1067 11.1989C13.0813 11.1452 13.0759 11.0842 13.0916 11.0268C13.1073 10.9695 13.143 10.9197 13.1922 10.8864C13.2692 10.8342 13.3525 10.7922 13.4402 10.7612C13.4159 10.7526 13.3913 10.7448 13.3664 10.7379C13.0488 10.6509 12.7257 10.715 12.4731 10.8864C12.4238 10.9197 12.3881 10.9695 12.3724 11.0269C12.3568 11.0842 12.3621 11.1453 12.3876 11.199C12.6269 11.7068 13.2078 11.9418 13.726 11.7584C13.4444 11.6594 13.2266 11.4532 13.1067 11.1989ZM9.56631 17.8811C9.51161 17.6572 9.52992 17.4216 9.61858 17.2089C9.70723 16.9961 9.86158 16.8173 10.0591 16.6985C10.0388 16.65 10.0037 16.6093 9.95877 16.5821C9.91386 16.5548 9.86149 16.5425 9.80916 16.547C9.14619 16.602 8.69006 17.2347 8.84713 17.8811C8.86106 17.9389 8.89523 17.9898 8.94346 18.0245C8.99169 18.0593 9.05077 18.0757 9.11002 18.0706C9.27599 18.0568 9.43656 18.005 9.57928 17.9191C9.57393 17.9068 9.56959 17.8941 9.56631 17.8811Z" fill="#98D829"/>
<path d="M12.0743 15.5899C12.5759 15.5899 12.9825 15.1833 12.9825 14.6817C12.9825 14.1801 12.5759 13.7734 12.0743 13.7734C11.5726 13.7734 11.166 14.1801 11.166 14.6817C11.166 15.1833 11.5726 15.5899 12.0743 15.5899Z" fill="#FF4654"/>
<path d="M21.982 12.5013C21.9096 12.4669 21.8539 12.4053 21.8271 12.3299C21.8002 12.2545 21.8044 12.1715 21.8388 12.0992L22.1972 11.3441C22.2319 11.2724 22.2936 11.2174 22.3687 11.1909C22.4439 11.1645 22.5264 11.1688 22.5983 11.203C22.6703 11.2372 22.7258 11.2984 22.7528 11.3733C22.7798 11.4482 22.7761 11.5308 22.7425 11.603L22.3841 12.3581C22.3497 12.4304 22.2881 12.4861 22.2127 12.5129C22.1373 12.5398 22.0543 12.5356 21.982 12.5013ZM20.6976 19.4196L20.2655 18.7042C20.2255 18.6357 20.214 18.5542 20.2336 18.4774C20.2531 18.4005 20.3021 18.3344 20.37 18.2934C20.4379 18.2524 20.5192 18.2398 20.5963 18.2583C20.6735 18.2767 20.7402 18.3248 20.7822 18.3921L21.2143 19.1076C21.2543 19.176 21.2658 19.2575 21.2462 19.3343C21.2267 19.4112 21.1777 19.4773 21.1098 19.5183C21.0419 19.5593 20.9606 19.5719 20.8835 19.5535C20.8063 19.535 20.7396 19.4869 20.6976 19.4196ZM13.6587 17.7247L12.9795 17.2375C12.9153 17.1905 12.8723 17.1201 12.8597 17.0415C12.8472 16.963 12.8662 16.8827 12.9125 16.818C12.9589 16.7534 13.0289 16.7096 13.1073 16.6964C13.1858 16.6831 13.2663 16.7013 13.3314 16.747L14.0105 17.2342C14.0747 17.2812 14.1178 17.3516 14.1303 17.4302C14.1429 17.5087 14.1239 17.589 14.0776 17.6537C14.0312 17.7183 13.9612 17.7621 13.8827 17.7754C13.8043 17.7887 13.7238 17.7704 13.6587 17.7247ZM12.8972 23.1875C12.8847 23.1499 12.8796 23.1102 12.8824 23.0707C12.8851 23.0311 12.8957 22.9925 12.9134 22.957C12.9311 22.9216 12.9556 22.8899 12.9855 22.8639C13.0154 22.8379 13.0501 22.8181 13.0877 22.8055L13.8804 22.5404C14.0385 22.4875 14.2095 22.5728 14.2624 22.7309C14.3153 22.889 14.23 23.06 14.0719 23.1128L13.2792 23.378C13.2033 23.4033 13.1204 23.3975 13.0488 23.3618C12.9771 23.3261 12.9226 23.2634 12.8972 23.1875Z" fill="#FFE02F"/>
<path d="M13.8776 13.0744C13.7099 13.0744 13.5758 12.9382 13.5758 12.7726C13.5758 12.5775 13.7567 12.4394 13.9363 12.4768C14.0795 12.5067 14.1794 12.6287 14.1794 12.7726C14.1794 12.9381 14.0446 13.0744 13.8776 13.0744ZM11.445 17.7806C11.2796 17.7806 11.1432 17.646 11.1432 17.4788C11.1432 17.2868 11.3203 17.1448 11.5037 17.183C11.6438 17.2092 11.7468 17.3358 11.7468 17.4788C11.7468 17.6457 11.61 17.7806 11.445 17.7806ZM19.1817 13.9034C19.019 13.9034 18.8799 13.7707 18.8799 13.6012C18.8799 13.4091 19.0552 13.2691 19.2409 13.3054C19.385 13.336 19.4836 13.4587 19.4836 13.6012C19.4836 13.7708 19.3443 13.9034 19.1817 13.9034ZM17.746 22.7987C17.5779 22.7987 17.4442 22.6618 17.4442 22.4969C17.4441 22.4271 17.4683 22.3594 17.5125 22.3054C17.5568 22.2514 17.6184 22.2144 17.6868 22.2007C17.8694 22.1641 18.0478 22.3034 18.0478 22.4969C18.0477 22.6629 17.9121 22.7987 17.746 22.7987ZM15.2341 18.9649C15.066 18.9649 14.9323 18.827 14.9323 18.6631C14.9323 18.4737 15.1076 18.3291 15.2933 18.3674C15.4285 18.3927 15.5359 18.5154 15.5359 18.6631C15.5359 18.8265 15.4045 18.9649 15.2341 18.9649ZM9.83732 19.7681C9.66845 19.7681 9.53552 19.6304 9.53552 19.4663C9.53552 19.2778 9.70865 19.1338 9.8965 19.1706C10.0431 19.201 10.1392 19.3271 10.1392 19.4663C10.1391 19.6346 10.0025 19.7681 9.83732 19.7681Z" fill="#F46B37"/>
<path d="M12.7543 21.0606C13.2559 21.0606 13.6626 20.654 13.6626 20.1524C13.6626 19.6508 13.2559 19.2441 12.7543 19.2441C12.2527 19.2441 11.8461 19.6508 11.8461 20.1524C11.8461 20.654 12.2527 21.0606 12.7543 21.0606Z" fill="#FF4654"/>
<path d="M17.4722 20.6231C17.9738 20.6231 18.3804 20.2165 18.3804 19.7149C18.3804 19.2133 17.9738 18.8066 17.4722 18.8066C16.9706 18.8066 16.564 19.2133 16.564 19.7149C16.564 20.2165 16.9706 20.6231 17.4722 20.6231Z" fill="#FF4654"/>
<path d="M19.1857 11.9766C19.6873 11.9766 20.0939 11.57 20.0939 11.0684C20.0939 10.5668 19.6873 10.1602 19.1857 10.1602C18.6841 10.1602 18.2775 10.5668 18.2775 11.0684C18.2775 11.57 18.6841 11.9766 19.1857 11.9766Z" fill="#FF4654"/>
<path d="M12.5429 13.9029C11.9412 13.5398 11.166 13.9732 11.166 14.6811C11.166 15.3894 11.9414 15.8222 12.5429 15.4592C11.9574 15.1058 11.9569 14.2566 12.5429 13.9029ZM13.2228 19.3742C12.6212 19.0112 11.846 19.4443 11.846 20.1523C11.846 20.8604 12.6213 21.2935 13.2228 20.9304C12.6373 20.5771 12.6368 19.7279 13.2228 19.3742ZM17.9408 18.9367C17.3393 18.5736 16.564 19.0068 16.564 19.7148C16.564 20.423 17.3395 20.8559 17.9408 20.4929C17.3553 20.1395 17.3548 19.2903 17.9408 18.9367ZM19.6542 10.2894C19.0527 9.92631 18.2774 10.3595 18.2774 11.0675C18.2774 11.7756 19.0527 12.2086 19.6542 11.8456C19.0687 11.4922 19.0682 10.643 19.6542 10.2894Z" fill="#FD2A39"/>
</g>
<defs>
<clipPath id="clip0_1002_10809">
<rect width="20" height="20" fill="white" transform="translate(6 6)"/>
</clipPath>
</defs>
</svg>
