<svg width="56" height="32" viewBox="0 0 56 32" fill="none" xmlns="http://www.w3.org/2000/svg">
<path d="M15.7968 9.37847C13.5132 5.81708 11.1933 2.87191 11.1752 2.84472L10.5046 2.00195L9.83398 2.84472C9.8068 2.87191 7.49597 5.81708 5.21233 9.37847C2.08592 14.2539 0.500061 17.9512 0.500061 20.3617C0.509123 26.2248 4.99484 31.0006 10.5046 31.0006C16.0143 31.0006 20.5 26.2248 20.5 20.3617C20.5 17.9602 18.9232 14.2629 15.7968 9.37847Z" fill="url(#paint0_linear_1781_12796)"/>
<path d="M27.8955 1.69043L28.5664 2.5332L28.5791 2.5498L28.5908 2.56738C28.5789 2.54947 28.5698 2.53745 28.6006 2.57715C28.619 2.60093 28.6457 2.6364 28.6807 2.68164C28.7508 2.77244 28.8528 2.9044 28.9814 3.07324C29.2388 3.41093 29.604 3.89583 30.04 4.49121C30.9116 5.68141 32.0688 7.31662 33.2178 9.1084V9.10938L33.79 10.0166C35.0821 12.103 36.0808 13.9694 36.7803 15.6045C37.5765 17.4657 37.9999 19.0627 38 20.3613C38 26.4706 33.3196 31.5008 27.5049 31.501C21.6899 31.501 17.0094 26.471 17 20.3623V20.3613L17.0049 20.1143C17.0545 18.8577 17.4759 17.3429 18.2246 15.5977C19.0263 13.7289 20.2189 11.56 21.791 9.1084L22.2217 8.44434C23.2243 6.91473 24.2041 5.53276 24.9658 4.49121C25.4013 3.89581 25.7664 3.4113 26.0244 3.07324C26.1534 2.90423 26.2557 2.77127 26.3271 2.67969C26.3627 2.63411 26.3911 2.59852 26.4111 2.57324C26.4211 2.56071 26.4289 2.54928 26.4355 2.54102C26.4388 2.53705 26.4427 2.53268 26.4463 2.52832H26.4453L27.1133 1.69043L27.5049 1.19922L27.8955 1.69043Z" fill="url(#paint1_linear_1781_12796)" stroke="white"/>
<path d="M44.8955 1.69043L45.5664 2.5332L45.5791 2.5498L45.5908 2.56738C45.5789 2.54947 45.5698 2.53745 45.6006 2.57715C45.619 2.60093 45.6457 2.6364 45.6807 2.68164C45.7508 2.77244 45.8528 2.9044 45.9814 3.07324C46.2388 3.41093 46.604 3.89583 47.04 4.49121C47.9116 5.68141 49.0688 7.31662 50.2178 9.1084V9.10938L50.79 10.0166C52.0821 12.103 53.0808 13.9694 53.7803 15.6045C54.5765 17.4657 54.9999 19.0627 55 20.3613C55 26.4706 50.3196 31.5008 44.5049 31.501C38.6899 31.501 34.0094 26.471 34 20.3623V20.3613L34.0049 20.1143C34.0545 18.8577 34.4759 17.3429 35.2246 15.5977C36.0263 13.7289 37.2189 11.56 38.791 9.1084L39.2217 8.44434C40.2243 6.91473 41.2041 5.53276 41.9658 4.49121C42.4013 3.89581 42.7664 3.4113 43.0244 3.07324C43.1534 2.90423 43.2557 2.77127 43.3271 2.67969C43.3627 2.63411 43.3911 2.59852 43.4111 2.57324C43.4211 2.56071 43.4289 2.54928 43.4355 2.54102C43.4388 2.53705 43.4427 2.53268 43.4463 2.52832H43.4453L44.1133 1.69043L44.5049 1.19922L44.8955 1.69043Z" fill="url(#paint2_linear_1781_12796)" stroke="white"/>
<defs>
<linearGradient id="paint0_linear_1781_12796" x1="10.5" y1="31.0006" x2="10.5" y2="2.00195" gradientUnits="userSpaceOnUse">
<stop stop-color="#FD3A84"/>
<stop offset="1" stop-color="#FFA68D"/>
</linearGradient>
<linearGradient id="paint1_linear_1781_12796" x1="27.5" y1="31.0006" x2="27.5" y2="2.00195" gradientUnits="userSpaceOnUse">
<stop stop-color="#FD3A84"/>
<stop offset="1" stop-color="#FFA68D"/>
</linearGradient>
<linearGradient id="paint2_linear_1781_12796" x1="44.5" y1="31.0006" x2="44.5" y2="2.00195" gradientUnits="userSpaceOnUse">
<stop stop-color="#FD3A84"/>
<stop offset="1" stop-color="#FFA68D"/>
</linearGradient>
</defs>
</svg>
